<svg width="42" height="43" viewBox="0 0 42 43" fill="none" xmlns="http://www.w3.org/2000/svg">
<rect x="0.5" y="0.5" width="41" height="42" rx="7.5" stroke="#342E1B"/>
<path d="M16.1667 15.3335H19.5L22 17.8335H27.8333C28.2754 17.8335 28.6993 18.0091 29.0118 18.3217C29.3244 18.6342 29.5 19.0581 29.5 19.5002V26.1668C29.5 26.6089 29.3244 27.0328 29.0118 27.3453C28.6993 27.6579 28.2754 27.8335 27.8333 27.8335H16.1667C15.7246 27.8335 15.3007 27.6579 14.9882 27.3453C14.6756 27.0328 14.5 26.6089 14.5 26.1668V17.0002C14.5 16.5581 14.6756 16.1342 14.9882 15.8217C15.3007 15.5091 15.7246 15.3335 16.1667 15.3335Z" fill="#342E1B"/>
</svg>
