<svg width="81" height="14" viewBox="0 0 81 14" fill="none" xmlns="http://www.w3.org/2000/svg">
<rect x="0.75" y="0.75" width="79.5" height="12.5" rx="2.25" fill="url(#paint0_linear_8068_120910)"/>
<rect x="0.75" y="0.75" width="79.5" height="12.5" rx="2.25" stroke="url(#paint1_linear_8068_120910)" stroke-width="0.5"/>
<path d="M5.259 7.057C5.259 5.601 6.372 4.572 7.744 4.572C8.759 4.572 9.634 5.083 10.005 6.035H9.046C8.787 5.517 8.325 5.272 7.744 5.272C6.778 5.272 6.078 5.958 6.078 7.057C6.078 8.156 6.778 8.849 7.744 8.849C8.325 8.849 8.787 8.604 9.046 8.086H10.005C9.634 9.038 8.759 9.542 7.744 9.542C6.372 9.542 5.259 8.52 5.259 7.057ZM15.6431 7.057C15.6431 8.52 14.5441 9.549 13.1581 9.549C11.7861 9.549 10.6731 8.52 10.6731 7.057C10.6731 5.601 11.7861 4.572 13.1581 4.572C14.5441 4.572 15.6431 5.601 15.6431 7.057ZM11.4921 7.057C11.4921 8.156 12.1921 8.856 13.1581 8.856C14.1241 8.856 14.8241 8.156 14.8241 7.057C14.8241 5.958 14.1241 5.272 13.1581 5.272C12.1921 5.272 11.4921 5.958 11.4921 7.057ZM16.4283 9.5V4.635H17.2893L18.9973 8.45L20.6983 4.635H21.5523V9.5H20.7543V6.168L19.2703 9.5H18.7173L17.2263 6.168V9.5H16.4283ZM22.6012 9.5V4.635H23.3992V9.5H22.6012ZM27.6459 4.628H28.4439V9.5H27.6459L25.2449 5.867V9.5H24.4469V4.628H25.2449L27.6459 8.254V4.628ZM31.7108 4.572C32.7258 4.572 33.6008 5.083 33.9718 6.035H33.0128C32.7538 5.545 32.2918 5.3 31.7108 5.3C30.7448 5.3 30.0448 5.986 30.0448 7.057C30.0448 8.128 30.7448 8.821 31.7108 8.821C32.5928 8.821 33.1458 8.289 33.2648 7.47H31.4378V6.833H34.1188V7.456C33.9718 8.583 33.0198 9.542 31.7108 9.542C30.3388 9.542 29.2258 8.52 29.2258 7.057C29.2258 5.601 30.3388 4.572 31.7108 4.572ZM38.6282 8.681L40.0772 4.635H40.9172L39.0902 9.5H38.1662L36.3322 4.635H37.1862L38.6282 8.681ZM44.2726 4.628V5.279H42.3826V6.707H44.0626V7.358H42.3826V8.849H44.2726V9.5H41.5846V4.628H44.2726ZM47.8385 6.091C47.8385 5.601 47.5585 5.286 46.9355 5.286H46.0535V6.917H46.9355C47.5585 6.917 47.8385 6.574 47.8385 6.091ZM45.2555 4.635H46.9355C48.0905 4.635 48.6575 5.3 48.6575 6.091C48.6575 6.665 48.3495 7.281 47.5305 7.484L48.7345 9.5H47.7825L46.6625 7.554H46.0535V9.5H45.2555V4.635ZM50.8753 7.736L49.2583 4.635H50.1473L51.2743 7.022L52.4013 4.635H53.2833L51.6733 7.736V9.5H50.8753V7.736ZM59.018 8.121C59.018 8.849 58.423 9.549 57.338 9.549C56.365 9.549 55.616 9.017 55.616 8.156H56.47C56.505 8.555 56.785 8.877 57.338 8.877C57.898 8.877 58.213 8.576 58.213 8.163C58.213 6.987 55.63 7.75 55.63 5.958C55.63 5.104 56.309 4.572 57.303 4.572C58.234 4.572 58.892 5.062 58.962 5.895H58.08C58.052 5.566 57.765 5.265 57.261 5.251C56.799 5.237 56.442 5.461 56.442 5.93C56.442 7.029 59.018 6.343 59.018 8.121ZM64.6636 7.057C64.6636 8.52 63.5646 9.549 62.1786 9.549C60.8066 9.549 59.6936 8.52 59.6936 7.057C59.6936 5.601 60.8066 4.572 62.1786 4.572C63.5646 4.572 64.6636 5.601 64.6636 7.057ZM60.5126 7.057C60.5126 8.156 61.2126 8.856 62.1786 8.856C63.1446 8.856 63.8446 8.156 63.8446 7.057C63.8446 5.958 63.1446 5.272 62.1786 5.272C61.2126 5.272 60.5126 5.958 60.5126 7.057ZM70.1528 7.057C70.1528 8.52 69.0538 9.549 67.6678 9.549C66.2958 9.549 65.1828 8.52 65.1828 7.057C65.1828 5.601 66.2958 4.572 67.6678 4.572C69.0538 4.572 70.1528 5.601 70.1528 7.057ZM66.0018 7.057C66.0018 8.156 66.7018 8.856 67.6678 8.856C68.6338 8.856 69.3338 8.156 69.3338 7.057C69.3338 5.958 68.6338 5.272 67.6678 5.272C66.7018 5.272 66.0018 5.958 66.0018 7.057ZM74.1371 4.628H74.9351V9.5H74.1371L71.7361 5.867V9.5H70.9381V4.628H71.7361L74.1371 8.254V4.628Z" fill="white"/>
<defs>
<linearGradient id="paint0_linear_8068_120910" x1="1" y1="7" x2="80" y2="7" gradientUnits="userSpaceOnUse">
<stop stop-color="#403C83"/>
<stop offset="0.49949" stop-color="#9A97D4"/>
<stop offset="1" stop-color="#151156"/>
</linearGradient>
<linearGradient id="paint1_linear_8068_120910" x1="64" y1="0.999999" x2="24" y2="13" gradientUnits="userSpaceOnUse">
<stop stop-color="#141052"/>
<stop offset="1" stop-color="#8582B9"/>
</linearGradient>
</defs>
</svg>
