<svg width="62" height="14" viewBox="0 0 62 14" fill="none" xmlns="http://www.w3.org/2000/svg">
<rect x="0.75" y="0.75" width="60.5" height="12.5" rx="2.25" fill="url(#paint0_linear_9039_124021)"/>
<rect x="0.75" y="0.75" width="60.5" height="12.5" rx="2.25" stroke="url(#paint1_linear_9039_124021)" stroke-width="0.5"/>
<path d="M5.259 7.057C5.259 6.581 5.36867 6.154 5.588 5.776C5.812 5.398 6.113 5.104 6.491 4.894C6.87367 4.67933 7.29133 4.572 7.744 4.572C8.262 4.572 8.72167 4.70033 9.123 4.957C9.529 5.209 9.823 5.56833 10.005 6.035H9.046C8.92 5.77833 8.745 5.587 8.521 5.461C8.297 5.335 8.038 5.272 7.744 5.272C7.422 5.272 7.135 5.34433 6.883 5.489C6.631 5.63367 6.43267 5.84133 6.288 6.112C6.148 6.38267 6.078 6.69767 6.078 7.057C6.078 7.41633 6.148 7.73133 6.288 8.002C6.43267 8.27267 6.631 8.48267 6.883 8.632C7.135 8.77667 7.422 8.849 7.744 8.849C8.038 8.849 8.297 8.786 8.521 8.66C8.745 8.534 8.92 8.34267 9.046 8.086H10.005C9.823 8.55267 9.529 8.912 9.123 9.164C8.72167 9.416 8.262 9.542 7.744 9.542C7.28667 9.542 6.869 9.437 6.491 9.227C6.113 9.01233 5.812 8.716 5.588 8.338C5.36867 7.96 5.259 7.533 5.259 7.057ZM13.1581 9.549C12.7054 9.549 12.2877 9.444 11.9051 9.234C11.5271 9.01933 11.2261 8.723 11.0021 8.345C10.7827 7.96233 10.6731 7.533 10.6731 7.057C10.6731 6.581 10.7827 6.154 11.0021 5.776C11.2261 5.398 11.5271 5.104 11.9051 4.894C12.2877 4.67933 12.7054 4.572 13.1581 4.572C13.6154 4.572 14.0331 4.67933 14.4111 4.894C14.7937 5.104 15.0947 5.398 15.3141 5.776C15.5334 6.154 15.6431 6.581 15.6431 7.057C15.6431 7.533 15.5334 7.96233 15.3141 8.345C15.0947 8.723 14.7937 9.01933 14.4111 9.234C14.0331 9.444 13.6154 9.549 13.1581 9.549ZM13.1581 8.856C13.4801 8.856 13.7671 8.78367 14.0191 8.639C14.2711 8.48967 14.4671 8.27967 14.6071 8.009C14.7517 7.73367 14.8241 7.41633 14.8241 7.057C14.8241 6.69767 14.7517 6.38267 14.6071 6.112C14.4671 5.84133 14.2711 5.63367 14.0191 5.489C13.7671 5.34433 13.4801 5.272 13.1581 5.272C12.8361 5.272 12.5491 5.34433 12.2971 5.489C12.0451 5.63367 11.8467 5.84133 11.7021 6.112C11.5621 6.38267 11.4921 6.69767 11.4921 7.057C11.4921 7.41633 11.5621 7.73367 11.7021 8.009C11.8467 8.27967 12.0451 8.48967 12.2971 8.639C12.5491 8.78367 12.8361 8.856 13.1581 8.856ZM21.5523 4.635V9.5H20.7543V6.168L19.2703 9.5H18.7173L17.2263 6.168V9.5H16.4283V4.635H17.2893L18.9973 8.45L20.6983 4.635H21.5523ZM23.3992 4.635V9.5H22.6012V4.635H23.3992ZM28.4439 9.5H27.6459L25.2449 5.867V9.5H24.4469V4.628H25.2449L27.6459 8.254V4.628H28.4439V9.5ZM33.0128 6.035C32.8868 5.79233 32.7118 5.61033 32.4878 5.489C32.2638 5.363 32.0048 5.3 31.7108 5.3C31.3888 5.3 31.1018 5.37233 30.8498 5.517C30.5978 5.66167 30.3995 5.867 30.2548 6.133C30.1148 6.399 30.0448 6.707 30.0448 7.057C30.0448 7.407 30.1148 7.71733 30.2548 7.988C30.3995 8.254 30.5978 8.45933 30.8498 8.604C31.1018 8.74867 31.3888 8.821 31.7108 8.821C32.1448 8.821 32.4971 8.69967 32.7678 8.457C33.0385 8.21433 33.2041 7.88533 33.2648 7.47H31.4378V6.833H34.1188V7.456C34.0675 7.834 33.9321 8.18167 33.7128 8.499C33.4981 8.81633 33.2158 9.07067 32.8658 9.262C32.5205 9.44867 32.1355 9.542 31.7108 9.542C31.2535 9.542 30.8358 9.437 30.4578 9.227C30.0798 9.01233 29.7788 8.716 29.5548 8.338C29.3355 7.96 29.2258 7.533 29.2258 7.057C29.2258 6.581 29.3355 6.154 29.5548 5.776C29.7788 5.398 30.0798 5.104 30.4578 4.894C30.8405 4.67933 31.2581 4.572 31.7108 4.572C32.2288 4.572 32.6885 4.70033 33.0898 4.957C33.4958 5.209 33.7898 5.56833 33.9718 6.035H33.0128ZM38.3272 9.549C38.0006 9.549 37.7066 9.493 37.4452 9.381C37.1839 9.26433 36.9786 9.101 36.8292 8.891C36.6799 8.681 36.6052 8.436 36.6052 8.156H37.4592C37.4779 8.366 37.5596 8.53867 37.7042 8.674C37.8536 8.80933 38.0612 8.877 38.3272 8.877C38.6026 8.877 38.8172 8.81167 38.9712 8.681C39.1252 8.54567 39.2022 8.373 39.2022 8.163C39.2022 7.99967 39.1532 7.86667 39.0552 7.764C38.9619 7.66133 38.8429 7.582 38.6982 7.526C38.5582 7.47 38.3622 7.40933 38.1102 7.344C37.7929 7.26 37.5339 7.176 37.3332 7.092C37.1372 7.00333 36.9692 6.868 36.8292 6.686C36.6892 6.504 36.6192 6.26133 36.6192 5.958C36.6192 5.678 36.6892 5.433 36.8292 5.223C36.9692 5.013 37.1652 4.852 37.4172 4.74C37.6692 4.628 37.9609 4.572 38.2922 4.572C38.7636 4.572 39.1486 4.691 39.4472 4.929C39.7506 5.16233 39.9186 5.48433 39.9512 5.895H39.0692C39.0552 5.71767 38.9712 5.566 38.8172 5.44C38.6632 5.314 38.4602 5.251 38.2082 5.251C37.9796 5.251 37.7929 5.30933 37.6482 5.426C37.5036 5.54267 37.4312 5.71067 37.4312 5.93C37.4312 6.07933 37.4756 6.203 37.5642 6.301C37.6576 6.39433 37.7742 6.469 37.9142 6.525C38.0542 6.581 38.2456 6.64167 38.4882 6.707C38.8102 6.79567 39.0716 6.88433 39.2722 6.973C39.4776 7.06167 39.6502 7.19933 39.7902 7.386C39.9349 7.568 40.0072 7.813 40.0072 8.121C40.0072 8.36833 39.9396 8.60167 39.8042 8.821C39.6736 9.04033 39.4799 9.21767 39.2232 9.353C38.9712 9.48367 38.6726 9.549 38.3272 9.549ZM43.1678 9.549C42.7152 9.549 42.2975 9.444 41.9148 9.234C41.5368 9.01933 41.2358 8.723 41.0118 8.345C40.7925 7.96233 40.6828 7.533 40.6828 7.057C40.6828 6.581 40.7925 6.154 41.0118 5.776C41.2358 5.398 41.5368 5.104 41.9148 4.894C42.2975 4.67933 42.7152 4.572 43.1678 4.572C43.6252 4.572 44.0428 4.67933 44.4208 4.894C44.8035 5.104 45.1045 5.398 45.3238 5.776C45.5432 6.154 45.6528 6.581 45.6528 7.057C45.6528 7.533 45.5432 7.96233 45.3238 8.345C45.1045 8.723 44.8035 9.01933 44.4208 9.234C44.0428 9.444 43.6252 9.549 43.1678 9.549ZM43.1678 8.856C43.4898 8.856 43.7768 8.78367 44.0288 8.639C44.2808 8.48967 44.4768 8.27967 44.6168 8.009C44.7615 7.73367 44.8338 7.41633 44.8338 7.057C44.8338 6.69767 44.7615 6.38267 44.6168 6.112C44.4768 5.84133 44.2808 5.63367 44.0288 5.489C43.7768 5.34433 43.4898 5.272 43.1678 5.272C42.8458 5.272 42.5588 5.34433 42.3068 5.489C42.0548 5.63367 41.8565 5.84133 41.7118 6.112C41.5718 6.38267 41.5018 6.69767 41.5018 7.057C41.5018 7.41633 41.5718 7.73367 41.7118 8.009C41.8565 8.27967 42.0548 8.48967 42.3068 8.639C42.5588 8.78367 42.8458 8.856 43.1678 8.856ZM48.6571 9.549C48.2044 9.549 47.7868 9.444 47.4041 9.234C47.0261 9.01933 46.7251 8.723 46.5011 8.345C46.2818 7.96233 46.1721 7.533 46.1721 7.057C46.1721 6.581 46.2818 6.154 46.5011 5.776C46.7251 5.398 47.0261 5.104 47.4041 4.894C47.7868 4.67933 48.2044 4.572 48.6571 4.572C49.1144 4.572 49.5321 4.67933 49.9101 4.894C50.2928 5.104 50.5938 5.398 50.8131 5.776C51.0324 6.154 51.1421 6.581 51.1421 7.057C51.1421 7.533 51.0324 7.96233 50.8131 8.345C50.5938 8.723 50.2928 9.01933 49.9101 9.234C49.5321 9.444 49.1144 9.549 48.6571 9.549ZM48.6571 8.856C48.9791 8.856 49.2661 8.78367 49.5181 8.639C49.7701 8.48967 49.9661 8.27967 50.1061 8.009C50.2508 7.73367 50.3231 7.41633 50.3231 7.057C50.3231 6.69767 50.2508 6.38267 50.1061 6.112C49.9661 5.84133 49.7701 5.63367 49.5181 5.489C49.2661 5.34433 48.9791 5.272 48.6571 5.272C48.3351 5.272 48.0481 5.34433 47.7961 5.489C47.5441 5.63367 47.3458 5.84133 47.2011 6.112C47.0611 6.38267 46.9911 6.69767 46.9911 7.057C46.9911 7.41633 47.0611 7.73367 47.2011 8.009C47.3458 8.27967 47.5441 8.48967 47.7961 8.639C48.0481 8.78367 48.3351 8.856 48.6571 8.856ZM55.9243 9.5H55.1263L52.7253 5.867V9.5H51.9273V4.628H52.7253L55.1263 8.254V4.628H55.9243V9.5Z" fill="white"/>
<defs>
<linearGradient id="paint0_linear_9039_124021" x1="1" y1="7" x2="61" y2="7" gradientUnits="userSpaceOnUse">
<stop stop-color="#F1507F" stop-opacity="0.9"/>
<stop offset="0.49949" stop-color="#F04A7A" stop-opacity="0.5"/>
<stop offset="1" stop-color="#EF4375"/>
</linearGradient>
<linearGradient id="paint1_linear_9039_124021" x1="46.5" y1="1" x2="21.5" y2="13" gradientUnits="userSpaceOnUse">
<stop stop-color="#F05582"/>
<stop offset="1" stop-color="#FDA8C1"/>
</linearGradient>
</defs>
</svg>
