<svg width="150" height="70" viewBox="0 0 150 70" fill="none" xmlns="http://www.w3.org/2000/svg">
<g filter="url(#filter0_d_9039_123960)">
<path d="M161 25H50L59.4872 37L50 49H161V25Z" fill="url(#paint0_linear_9039_123960)"/>
<path d="M59.8794 37.3101L51.0327 48.5H160.5V25.5H51.0327L59.8794 36.6899L60.1246 37L59.8794 37.3101Z" stroke="#F04B7B"/>
</g>
<path d="M160 25H49L58.4872 37L49 49H160V25Z" fill="url(#paint1_linear_9039_123960)"/>
<path d="M67.407 37.161C67.407 36.413 67.5793 35.742 67.924 35.148C68.276 34.554 68.749 34.092 69.343 33.762C69.9443 33.4247 70.6007 33.256 71.312 33.256C72.126 33.256 72.8483 33.4577 73.479 33.861C74.117 34.257 74.579 34.8217 74.865 35.555H73.358C73.16 35.1517 72.885 34.851 72.533 34.653C72.181 34.455 71.774 34.356 71.312 34.356C70.806 34.356 70.355 34.4697 69.959 34.697C69.563 34.9243 69.2513 35.2507 69.024 35.676C68.804 36.1013 68.694 36.5963 68.694 37.161C68.694 37.7257 68.804 38.2207 69.024 38.646C69.2513 39.0713 69.563 39.4013 69.959 39.636C70.355 39.8633 70.806 39.977 71.312 39.977C71.774 39.977 72.181 39.878 72.533 39.68C72.885 39.482 73.16 39.1813 73.358 38.778H74.865C74.579 39.5113 74.117 40.076 73.479 40.472C72.8483 40.868 72.126 41.066 71.312 41.066C70.5933 41.066 69.937 40.901 69.343 40.571C68.749 40.2337 68.276 39.768 67.924 39.174C67.5793 38.58 67.407 37.909 67.407 37.161ZM79.8198 41.077C79.1085 41.077 78.4521 40.912 77.8508 40.582C77.2568 40.2447 76.7838 39.779 76.4318 39.185C76.0871 38.5837 75.9148 37.909 75.9148 37.161C75.9148 36.413 76.0871 35.742 76.4318 35.148C76.7838 34.554 77.2568 34.092 77.8508 33.762C78.4521 33.4247 79.1085 33.256 79.8198 33.256C80.5385 33.256 81.1948 33.4247 81.7888 33.762C82.3901 34.092 82.8631 34.554 83.2078 35.148C83.5525 35.742 83.7248 36.413 83.7248 37.161C83.7248 37.909 83.5525 38.5837 83.2078 39.185C82.8631 39.779 82.3901 40.2447 81.7888 40.582C81.1948 40.912 80.5385 41.077 79.8198 41.077ZM79.8198 39.988C80.3258 39.988 80.7768 39.8743 81.1728 39.647C81.5688 39.4123 81.8768 39.0823 82.0968 38.657C82.3241 38.2243 82.4378 37.7257 82.4378 37.161C82.4378 36.5963 82.3241 36.1013 82.0968 35.676C81.8768 35.2507 81.5688 34.9243 81.1728 34.697C80.7768 34.4697 80.3258 34.356 79.8198 34.356C79.3138 34.356 78.8628 34.4697 78.4668 34.697C78.0708 34.9243 77.7591 35.2507 77.5318 35.676C77.3118 36.1013 77.2018 36.5963 77.2018 37.161C77.2018 37.7257 77.3118 38.2243 77.5318 38.657C77.7591 39.0823 78.0708 39.4123 78.4668 39.647C78.8628 39.8743 79.3138 39.988 79.8198 39.988ZM93.0108 33.355V41H91.7568V35.764L89.4248 41H88.5558L86.2128 35.764V41H84.9588V33.355H86.3118L88.9958 39.35L91.6688 33.355H93.0108ZM95.913 33.355V41H94.659V33.355H95.913ZM103.84 41H102.586L98.8134 35.291V41H97.5594V33.344H98.8134L102.586 39.042V33.344H103.84V41ZM111.02 35.555C110.822 35.1737 110.547 34.8877 110.195 34.697C109.843 34.499 109.436 34.4 108.974 34.4C108.468 34.4 108.017 34.5137 107.621 34.741C107.225 34.9683 106.913 35.291 106.686 35.709C106.466 36.127 106.356 36.611 106.356 37.161C106.356 37.711 106.466 38.1987 106.686 38.624C106.913 39.042 107.225 39.3647 107.621 39.592C108.017 39.8193 108.468 39.933 108.974 39.933C109.656 39.933 110.21 39.7423 110.635 39.361C111.06 38.9797 111.321 38.4627 111.416 37.81H108.545V36.809H112.758V37.788C112.677 38.382 112.465 38.9283 112.12 39.427C111.783 39.9257 111.339 40.3253 110.789 40.626C110.246 40.9193 109.641 41.066 108.974 41.066C108.255 41.066 107.599 40.901 107.005 40.571C106.411 40.2337 105.938 39.768 105.586 39.174C105.241 38.58 105.069 37.909 105.069 37.161C105.069 36.413 105.241 35.742 105.586 35.148C105.938 34.554 106.411 34.092 107.005 33.762C107.606 33.4247 108.263 33.256 108.974 33.256C109.788 33.256 110.51 33.4577 111.141 33.861C111.779 34.257 112.241 34.8217 112.527 35.555H111.02ZM119.371 41.077C118.858 41.077 118.396 40.989 117.985 40.813C117.575 40.6297 117.252 40.373 117.017 40.043C116.783 39.713 116.665 39.328 116.665 38.888H118.007C118.037 39.218 118.165 39.4893 118.392 39.702C118.627 39.9147 118.953 40.021 119.371 40.021C119.804 40.021 120.141 39.9183 120.383 39.713C120.625 39.5003 120.746 39.229 120.746 38.899C120.746 38.6423 120.669 38.4333 120.515 38.272C120.369 38.1107 120.182 37.986 119.954 37.898C119.734 37.81 119.426 37.7147 119.03 37.612C118.532 37.48 118.125 37.348 117.809 37.216C117.501 37.0767 117.237 36.864 117.017 36.578C116.797 36.292 116.687 35.9107 116.687 35.434C116.687 34.994 116.797 34.609 117.017 34.279C117.237 33.949 117.545 33.696 117.941 33.52C118.337 33.344 118.796 33.256 119.316 33.256C120.057 33.256 120.662 33.443 121.131 33.817C121.608 34.1837 121.872 34.6897 121.923 35.335H120.537C120.515 35.0563 120.383 34.818 120.141 34.62C119.899 34.422 119.58 34.323 119.184 34.323C118.825 34.323 118.532 34.4147 118.304 34.598C118.077 34.7813 117.963 35.0453 117.963 35.39C117.963 35.6247 118.033 35.819 118.172 35.973C118.319 36.1197 118.502 36.237 118.722 36.325C118.942 36.413 119.243 36.5083 119.624 36.611C120.13 36.7503 120.541 36.8897 120.856 37.029C121.179 37.1683 121.45 37.3847 121.67 37.678C121.898 37.964 122.011 38.349 122.011 38.833C122.011 39.2217 121.905 39.5883 121.692 39.933C121.487 40.2777 121.183 40.5563 120.779 40.769C120.383 40.9743 119.914 41.077 119.371 41.077ZM126.978 41.077C126.267 41.077 125.61 40.912 125.009 40.582C124.415 40.2447 123.942 39.779 123.59 39.185C123.245 38.5837 123.073 37.909 123.073 37.161C123.073 36.413 123.245 35.742 123.59 35.148C123.942 34.554 124.415 34.092 125.009 33.762C125.61 33.4247 126.267 33.256 126.978 33.256C127.697 33.256 128.353 33.4247 128.947 33.762C129.548 34.092 130.021 34.554 130.366 35.148C130.711 35.742 130.883 36.413 130.883 37.161C130.883 37.909 130.711 38.5837 130.366 39.185C130.021 39.779 129.548 40.2447 128.947 40.582C128.353 40.912 127.697 41.077 126.978 41.077ZM126.978 39.988C127.484 39.988 127.935 39.8743 128.331 39.647C128.727 39.4123 129.035 39.0823 129.255 38.657C129.482 38.2243 129.596 37.7257 129.596 37.161C129.596 36.5963 129.482 36.1013 129.255 35.676C129.035 35.2507 128.727 34.9243 128.331 34.697C127.935 34.4697 127.484 34.356 126.978 34.356C126.472 34.356 126.021 34.4697 125.625 34.697C125.229 34.9243 124.917 35.2507 124.69 35.676C124.47 36.1013 124.36 36.5963 124.36 37.161C124.36 37.7257 124.47 38.2243 124.69 38.657C124.917 39.0823 125.229 39.4123 125.625 39.647C126.021 39.8743 126.472 39.988 126.978 39.988ZM135.604 41.077C134.893 41.077 134.236 40.912 133.635 40.582C133.041 40.2447 132.568 39.779 132.216 39.185C131.871 38.5837 131.699 37.909 131.699 37.161C131.699 36.413 131.871 35.742 132.216 35.148C132.568 34.554 133.041 34.092 133.635 33.762C134.236 33.4247 134.893 33.256 135.604 33.256C136.323 33.256 136.979 33.4247 137.573 33.762C138.174 34.092 138.647 34.554 138.992 35.148C139.337 35.742 139.509 36.413 139.509 37.161C139.509 37.909 139.337 38.5837 138.992 39.185C138.647 39.779 138.174 40.2447 137.573 40.582C136.979 40.912 136.323 41.077 135.604 41.077ZM135.604 39.988C136.11 39.988 136.561 39.8743 136.957 39.647C137.353 39.4123 137.661 39.0823 137.881 38.657C138.108 38.2243 138.222 37.7257 138.222 37.161C138.222 36.5963 138.108 36.1013 137.881 35.676C137.661 35.2507 137.353 34.9243 136.957 34.697C136.561 34.4697 136.11 34.356 135.604 34.356C135.098 34.356 134.647 34.4697 134.251 34.697C133.855 34.9243 133.543 35.2507 133.316 35.676C133.096 36.1013 132.986 36.5963 132.986 37.161C132.986 37.7257 133.096 38.2243 133.316 38.657C133.543 39.0823 133.855 39.4123 134.251 39.647C134.647 39.8743 135.098 39.988 135.604 39.988ZM147.024 41H145.77L141.997 35.291V41H140.743V33.344H141.997L145.77 39.042V33.344H147.024V41Z" fill="white"/>
<defs>
<filter id="filter0_d_9039_123960" x="0" y="0" width="211" height="124" filterUnits="userSpaceOnUse" color-interpolation-filters="sRGB">
<feFlood flood-opacity="0" result="BackgroundImageFix"/>
<feColorMatrix in="SourceAlpha" type="matrix" values="0 0 0 0 0 0 0 0 0 0 0 0 0 0 0 0 0 0 127 0" result="hardAlpha"/>
<feOffset dy="25"/>
<feGaussianBlur stdDeviation="25"/>
<feColorMatrix type="matrix" values="0 0 0 0 0.611765 0 0 0 0 0.65098 0 0 0 0 0.792157 0 0 0 0.4 0"/>
<feBlend mode="normal" in2="BackgroundImageFix" result="effect1_dropShadow_9039_123960"/>
<feBlend mode="normal" in="SourceGraphic" in2="effect1_dropShadow_9039_123960" result="shape"/>
</filter>
<linearGradient id="paint0_linear_9039_123960" x1="161" y1="25" x2="56.5" y2="54.5" gradientUnits="userSpaceOnUse">
<stop stop-color="#EF4375"/>
<stop offset="0.360526" stop-color="#F66C94" stop-opacity="0.8"/>
<stop offset="0.761139" stop-color="#FF9AB7"/>
<stop offset="1" stop-color="#F1507F" stop-opacity="0.4"/>
</linearGradient>
<linearGradient id="paint1_linear_9039_123960" x1="160" y1="25" x2="55.5" y2="54.5" gradientUnits="userSpaceOnUse">
<stop stop-color="#EF4375"/>
<stop offset="0.360526" stop-color="#F66C94" stop-opacity="0.8"/>
<stop offset="0.761139" stop-color="#FF9AB7"/>
<stop offset="1" stop-color="#F1507F" stop-opacity="0.4"/>
</linearGradient>
</defs>
</svg>
