<svg width="83" height="82" viewBox="0 0 83 82" fill="none" xmlns="http://www.w3.org/2000/svg">
<rect x="1.5" y="1" width="80" height="80" rx="40" fill="white"/>
<rect x="1.5" y="1" width="80" height="80" rx="40" stroke="#4D4D5A" stroke-width="2"/>
<path d="M54.6663 36V50.6667C54.6663 52.5335 54.6663 53.467 54.303 54.18C53.9835 54.8072 53.4735 55.3172 52.8463 55.6367C52.1333 56 51.1998 56 49.333 56H36.6663C34.7995 56 33.8661 56 33.153 55.6367C32.5258 55.3172 32.0159 54.8072 31.6963 54.18C31.333 53.467 31.333 52.5335 31.333 50.6667V31.3333C31.333 29.4665 31.333 28.5331 31.6963 27.82C32.0159 27.1928 32.5258 26.6829 33.153 26.3633C33.8661 26 34.7995 26 36.6663 26H44.6663M54.6663 36L44.6663 26M54.6663 36H46.333C45.4125 36 44.6663 35.2538 44.6663 34.3333V26" stroke="black" stroke-width="2" stroke-linecap="round" stroke-linejoin="round"/>
</svg>
