<svg width="83" height="82" viewBox="0 0 83 82" fill="none" xmlns="http://www.w3.org/2000/svg">
<rect x="1.5" y="1" width="80" height="80" rx="40" fill="white"/>
<rect x="1.5" y="1" width="80" height="80" rx="40" stroke="#4D4D5A" stroke-width="2"/>
<path d="M25.333 32.5829C25.333 31.112 25.333 30.3766 25.4486 29.764C25.9574 27.0672 28.0669 24.9577 30.7637 24.4489C31.3763 24.3333 32.1117 24.3333 33.5826 24.3333C34.227 24.3333 34.5493 24.3333 34.859 24.3623C36.1941 24.4871 37.4605 25.0117 38.4929 25.8675C38.7323 26.066 38.9602 26.2939 39.4158 26.7496L40.333 27.6666C41.6927 29.0263 42.3725 29.7061 43.1865 30.159C43.6337 30.4078 44.1082 30.6043 44.6003 30.7446C45.4962 31 46.4575 31 48.3803 31H49.0032C53.3905 31 55.584 31 57.01 32.2824C57.1412 32.4004 57.266 32.5252 57.3838 32.6564C58.6663 34.0822 58.6663 36.2759 58.6663 40.6631V44.3333C58.6663 50.6186 58.6663 53.7615 56.7137 55.714C54.7612 57.6666 51.6183 57.6666 45.333 57.6666H38.6663C32.3809 57.6666 29.2383 57.6666 27.2856 55.714C25.333 53.7615 25.333 50.6186 25.333 44.3333V32.5829Z" stroke="#212131" stroke-width="2.5"/>
<path d="M25.333 32.5829C25.333 31.112 25.333 30.3766 25.4486 29.764C25.9574 27.0672 28.0669 24.9577 30.7637 24.4489C31.3763 24.3333 32.1117 24.3333 33.5826 24.3333C34.227 24.3333 34.5493 24.3333 34.859 24.3623C36.1941 24.4871 37.4605 25.0117 38.4929 25.8675C38.7323 26.066 38.9602 26.2939 39.4158 26.7496L40.333 27.6666C41.6927 29.0263 42.3725 29.7061 43.1865 30.159C43.6337 30.4078 44.1082 30.6043 44.6003 30.7446C45.4962 31 46.4575 31 48.3803 31H49.0032C53.3905 31 55.584 31 57.01 32.2824C57.1412 32.4004 57.266 32.5252 57.3838 32.6564C58.6663 34.0822 58.6663 36.2759 58.6663 40.6631V44.3333C58.6663 50.6186 58.6663 53.7615 56.7137 55.714C54.7612 57.6666 51.6183 57.6666 45.333 57.6666H38.6663C32.3809 57.6666 29.2383 57.6666 27.2856 55.714C25.333 53.7615 25.333 50.6186 25.333 44.3333V32.5829Z" stroke="black" stroke-opacity="0.2" stroke-width="2.5"/>
</svg>
