<svg width="20" height="21" viewBox="0 0 20 21" fill="none" xmlns="http://www.w3.org/2000/svg">
<g clip-path="url(#clip0_84_208358)">
<path d="M4.16667 16.4595L6.46417 10.3336C6.5237 10.1748 6.63027 10.038 6.76964 9.94132C6.90902 9.84468 7.07456 9.79287 7.24417 9.79281H17.5M4.16667 16.4595H15.855C16.2427 16.4594 16.6183 16.3241 16.917 16.0769C17.2158 15.8297 17.419 15.4862 17.4917 15.1053L18.3217 10.7628C18.3415 10.6435 18.3351 10.5213 18.303 10.4046C18.2708 10.288 18.2137 10.1798 18.1355 10.0875C18.0573 9.99521 17.9599 9.92104 17.8502 9.87014C17.7405 9.81925 17.621 9.79286 17.5 9.79281M4.16667 16.4595C3.72464 16.4595 3.30072 16.2839 2.98816 15.9713C2.67559 15.6588 2.5 15.2348 2.5 14.7928V5.62614C2.5 5.18411 2.67559 4.76019 2.98816 4.44763C3.30072 4.13507 3.72464 3.95947 4.16667 3.95947H7.5L10 6.45947H15.8333C16.2754 6.45947 16.6993 6.63507 17.0118 6.94763C17.3244 7.26019 17.5 7.68411 17.5 8.12614V9.79281" stroke="#1E1F21" stroke-width="1.25" stroke-linecap="round" stroke-linejoin="round"/>
</g>
<defs>
<clipPath id="clip0_84_208358">
<rect width="20" height="20" fill="white" transform="translate(0 0.625977)"/>
</clipPath>
</defs>
</svg>
