<svg width="20" height="20" viewBox="0 0 20 20" fill="none" xmlns="http://www.w3.org/2000/svg">
<g clip-path="url(#clip0_84_208393)">
<path d="M2.5 10C2.5 10.9849 2.69399 11.9602 3.0709 12.8701C3.44781 13.7801 4.00026 14.6069 4.6967 15.3033C5.39314 15.9997 6.21993 16.5522 7.12987 16.9291C8.03982 17.306 9.01509 17.5 10 17.5C10.9849 17.5 11.9602 17.306 12.8701 16.9291C13.7801 16.5522 14.6069 15.9997 15.3033 15.3033C15.9997 14.6069 16.5522 13.7801 16.9291 12.8701C17.306 11.9602 17.5 10.9849 17.5 10C17.5 9.01509 17.306 8.03982 16.9291 7.12987C16.5522 6.21993 15.9997 5.39314 15.3033 4.6967C14.6069 4.00026 13.7801 3.44781 12.8701 3.0709C11.9602 2.69399 10.9849 2.5 10 2.5C9.01509 2.5 8.03982 2.69399 7.12987 3.0709C6.21993 3.44781 5.39314 4.00026 4.6967 4.6967C4.00026 5.39314 3.44781 6.21993 3.0709 7.12987C2.69399 8.03982 2.5 9.01509 2.5 10Z" stroke="#2C3E50" stroke-width="1.66667" stroke-linecap="round" stroke-linejoin="round"/>
<path d="M10 14.167V14.1753" stroke="#2C3E50" stroke-width="1.66667" stroke-linecap="round" stroke-linejoin="round"/>
<path d="M10.0026 11.2505C9.98726 10.9799 10.0602 10.7118 10.2105 10.4863C10.3608 10.2609 10.5803 10.0903 10.8359 10.0005C11.1492 9.88068 11.4303 9.68983 11.6572 9.44292C11.8842 9.19602 12.0507 8.89981 12.1437 8.57762C12.2367 8.25543 12.2537 7.91604 12.1932 7.58618C12.1328 7.25633 11.9966 6.94501 11.7954 6.67673C11.5942 6.40845 11.3334 6.19053 11.0337 6.04015C10.7339 5.88976 10.4034 5.811 10.068 5.81007C9.73269 5.80914 9.40171 5.88606 9.10114 6.03479C8.80057 6.18351 8.53863 6.39997 8.33594 6.66713" stroke="#2C3E50" stroke-width="1.66667" stroke-linecap="round" stroke-linejoin="round"/>
</g>
<defs>
<clipPath id="clip0_84_208393">
<rect width="20" height="20" fill="white"/>
</clipPath>
</defs>
</svg>
