<svg width="20" height="20" viewBox="0 0 20 20" fill="none" xmlns="http://www.w3.org/2000/svg">
<g clip-path="url(#clip0_6847_13504)">
<path d="M13.5215 5.21273V3.34579C14.1718 3.09703 14.6337 2.46756 14.6337 1.72989C14.6336 0.774513 13.8591 0 12.9037 0H7.09604C6.14066 0 5.36609 0.774513 5.36609 1.72989C5.36609 2.46762 5.82797 3.09703 6.47821 3.34579V5.21273C4.14168 5.51401 2.33594 7.50947 2.33594 9.92805V15.244C2.33594 17.8707 4.46532 20 7.09207 20H12.9076C15.5344 20 17.6638 17.8706 17.6638 15.244V9.92805C17.6638 7.50947 15.8581 5.51401 13.5215 5.21273ZM12.7486 14.8016H7.25102C5.79062 14.8016 4.60668 13.6177 4.60668 12.1572C4.60668 10.6967 5.79062 9.51272 7.25108 9.51272H12.7486C14.209 9.51272 15.393 10.6967 15.393 12.1572C15.393 13.6177 14.209 14.8016 12.7486 14.8016Z" fill="#6A6A75"/>
<path d="M6.71184 10.418H6.69447C6.48221 10.418 6.30957 10.5906 6.30957 10.8028V13.4453C6.30957 13.6575 6.48226 13.8302 6.69447 13.8302H6.71184C6.92405 13.8302 7.09669 13.6575 7.09669 13.4453V10.8028C7.09674 10.5906 6.92411 10.418 6.71184 10.418Z" fill="#6A6A75"/>
<path d="M10.085 10.418H10.0675C9.85531 10.418 9.68273 10.5906 9.68273 10.8028V12.3051L8.42766 10.5767C8.3554 10.4774 8.23896 10.418 8.11634 10.418H8.0456C7.83334 10.418 7.66064 10.5906 7.66064 10.8028V13.4453C7.66064 13.6575 7.83334 13.8302 8.0456 13.8302H8.06286C8.27512 13.8302 8.44782 13.6575 8.44782 13.4453V11.943L9.70272 13.6714C9.77493 13.7707 9.89142 13.8301 10.0142 13.8301H10.0849C10.2971 13.8301 10.4696 13.6574 10.4696 13.4453V10.8028C10.4698 10.5906 10.2972 10.418 10.085 10.418Z" fill="#6A6A75"/>
<path d="M13.6037 13.2025L12.6277 12.0021L13.4967 11.0645C13.6006 10.9521 13.6282 10.789 13.5671 10.6487C13.5058 10.5085 13.3673 10.418 13.2143 10.418H13.1879C13.0807 10.418 12.9777 10.4631 12.905 10.5419L11.8208 11.7168V10.8028C11.8208 10.5906 11.6482 10.418 11.436 10.418H11.4185C11.2063 10.418 11.0337 10.5906 11.0337 10.8028V13.4453C11.0337 13.6575 11.2063 13.8302 11.4185 13.8302H11.436C11.6482 13.8302 11.8208 13.6575 11.8208 13.4453V12.8755L12.0867 12.5871L12.979 13.6877C13.0524 13.7784 13.1615 13.8303 13.2781 13.8303H13.3052C13.4531 13.8303 13.5894 13.7441 13.6529 13.6108C13.716 13.4772 13.6968 13.317 13.6037 13.2025Z" fill="#6A6A75"/>
</g>
<defs>
<clipPath id="clip0_6847_13504">
<rect width="20" height="20" fill="white"/>
</clipPath>
</defs>
</svg>
