<svg width="20" height="20" viewBox="0 0 20 20" fill="none" xmlns="http://www.w3.org/2000/svg">
<g clip-path="url(#clip0_84_208466)">
<path d="M9.16406 9.99984C9.16406 10.2209 9.25186 10.4328 9.40814 10.5891C9.56442 10.7454 9.77638 10.8332 9.9974 10.8332C10.2184 10.8332 10.4304 10.7454 10.5867 10.5891C10.7429 10.4328 10.8307 10.2209 10.8307 9.99984C10.8307 9.77882 10.7429 9.56686 10.5867 9.41058C10.4304 9.2543 10.2184 9.1665 9.9974 9.1665C9.77638 9.1665 9.56442 9.2543 9.40814 9.41058C9.25186 9.56686 9.16406 9.77882 9.16406 9.99984Z" stroke="#5C553F" stroke-width="1.66667" stroke-linecap="round" stroke-linejoin="round"/>
<path d="M9.16406 15.8333C9.16406 16.0543 9.25186 16.2663 9.40814 16.4226C9.56442 16.5789 9.77638 16.6667 9.9974 16.6667C10.2184 16.6667 10.4304 16.5789 10.5867 16.4226C10.7429 16.2663 10.8307 16.0543 10.8307 15.8333C10.8307 15.6123 10.7429 15.4004 10.5867 15.2441C10.4304 15.0878 10.2184 15 9.9974 15C9.77638 15 9.56442 15.0878 9.40814 15.2441C9.25186 15.4004 9.16406 15.6123 9.16406 15.8333Z" stroke="#5C553F" stroke-width="1.66667" stroke-linecap="round" stroke-linejoin="round"/>
<path d="M9.16406 4.16683C9.16406 4.38784 9.25186 4.5998 9.40814 4.75608C9.56442 4.91237 9.77638 5.00016 9.9974 5.00016C10.2184 5.00016 10.4304 4.91237 10.5867 4.75608C10.7429 4.5998 10.8307 4.38784 10.8307 4.16683C10.8307 3.94582 10.7429 3.73385 10.5867 3.57757C10.4304 3.42129 10.2184 3.3335 9.9974 3.3335C9.77638 3.3335 9.56442 3.42129 9.40814 3.57757C9.25186 3.73385 9.16406 3.94582 9.16406 4.16683Z" stroke="#5C553F" stroke-width="1.66667" stroke-linecap="round" stroke-linejoin="round"/>
</g>
<defs>
<clipPath id="clip0_84_208466">
<rect width="20" height="20" fill="white"/>
</clipPath>
</defs>
</svg>
