<svg width="177" height="207" viewBox="0 0 177 207" fill="none" xmlns="http://www.w3.org/2000/svg">
<path fill-rule="evenodd" clip-rule="evenodd" d="M48.9103 0.831152C34.037 3.91651 18.5916 16.3982 11.012 31.6847C6.72158 40.0993 6.43556 41.7822 6.43556 55.5261C6.43556 68.9894 6.72158 70.9528 10.5829 77.8248C15.7314 87.5016 26.7433 99.0015 38.6134 107.136C59.9222 121.721 73.2224 132.239 75.9396 136.306C81.9461 145.983 78.2278 158.745 67.2158 166.038C62.9255 168.843 60.9233 169.263 53.7727 168.843C46.4791 168.282 44.7629 167.581 41.3306 163.794C37.4692 159.587 37.1832 158.465 37.1832 146.965C37.1832 129.855 35.7531 128.453 18.8776 128.453C0.143008 128.453 0 128.733 0 149.91C0 165.898 0.286025 167.581 4.29037 175.715C14.8733 197.733 38.7564 209.513 65.4997 206.007C79.3719 204.184 90.8129 198.995 99.2506 190.44C119.987 169.684 123.134 136.587 106.687 114.569C101.539 107.697 94.5312 102.227 65.4997 81.6114C57.062 75.7211 48.9103 69.1297 47.4801 67.0261C38.6134 54.6846 45.907 39.1176 61.3523 37.5749C67.7879 37.014 68.789 37.2944 73.5084 41.642C77.9418 45.709 78.9429 47.8127 80.659 56.648C81.6601 62.398 83.5193 67.8675 84.6634 68.9895C87.3806 71.7943 110.406 72.215 113.695 69.5504C115.411 68.148 115.84 64.7822 115.84 54.2639C115.84 46.831 115.125 38.5566 114.41 35.892C110.549 22.0079 96.8194 7.56283 82.9472 2.79455C75.0815 0.129927 57.348 -0.851769 48.9103 0.831152Z" fill="url(#paint0_linear_8696_78)"/>
<path fill-rule="evenodd" clip-rule="evenodd" d="M148.607 159.453C142.072 161.506 138.805 163.832 134.544 169.444C125.31 181.625 132.271 199.007 148.039 203.25C157.84 205.85 169.915 200.512 174.318 191.753C177.87 184.636 177.87 178.751 174.461 172.181C171.193 165.885 167.926 163.011 161.108 160.274C155.425 158.084 154.147 157.947 148.607 159.453Z" fill="url(#paint1_linear_8696_78)"/>
<defs>
<linearGradient id="paint0_linear_8696_78" x1="58.5972" y1="0" x2="58.5972" y2="206.618" gradientUnits="userSpaceOnUse">
<stop stop-color="#FEC77C" stop-opacity="0.8"/>
<stop offset="0.5" stop-color="#F28C99" stop-opacity="0.8"/>
<stop offset="1" stop-color="#6A9DF0" stop-opacity="0.8"/>
</linearGradient>
<linearGradient id="paint1_linear_8696_78" x1="153.702" y1="158.454" x2="153.702" y2="203.91" gradientUnits="userSpaceOnUse">
<stop stop-color="#FEC77C" stop-opacity="0.8"/>
<stop offset="0.5" stop-color="#F28C99" stop-opacity="0.8"/>
<stop offset="1" stop-color="#6A9DF0" stop-opacity="0.8"/>
</linearGradient>
</defs>
</svg>
