<svg width="21" height="18" viewBox="0 0 21 18" fill="none" xmlns="http://www.w3.org/2000/svg">
<path fill-rule="evenodd" clip-rule="evenodd" d="M16.3325 7C16.3325 6.449 15.9011 6 15.3696 6C14.838 6 14.4067 6.449 14.4067 7C14.4067 7.551 14.838 8 15.3696 8C15.9011 8 16.3325 7.551 16.3325 7ZM18.2583 7C18.2583 8.654 16.9622 10 15.3696 10C13.7769 10 12.4808 8.654 12.4808 7C12.4808 5.346 13.7769 4 15.3696 4C16.9622 4 18.2583 5.346 18.2583 7ZM9.59206 4C9.59206 2.897 8.72832 2 7.66622 2C6.60412 2 5.74038 2.897 5.74038 4C5.74038 5.103 6.60412 6 7.66622 6C8.72832 6 9.59206 5.103 9.59206 4ZM11.5179 4C11.5179 6.206 9.79042 8 7.66622 8C5.54202 8 3.81454 6.206 3.81454 4C3.81454 1.794 5.54202 0 7.66622 0C9.79042 0 11.5179 1.794 11.5179 4ZM12.423 12.046C13.2598 11.374 14.2901 11 15.3696 11C18.0243 11 20.1842 13.243 20.1842 16C20.1842 16.552 19.7538 17 19.2213 17C18.6888 17 18.2583 16.552 18.2583 16C18.2583 14.346 16.9622 13 15.3696 13C14.7119 13 14.087 13.234 13.5824 13.649C14.1062 14.645 14.4067 15.787 14.4067 17C14.4067 17.552 13.9762 18 13.4437 18C12.9112 18 12.4808 17.552 12.4808 17C12.4808 14.243 10.321 12 7.66622 12C5.01145 12 2.85162 14.243 2.85162 17C2.85162 17.552 2.4212 18 1.8887 18C1.35621 18 0.925781 17.552 0.925781 17C0.925781 13.14 3.95031 10 7.66622 10C9.52177 10 11.203 10.783 12.423 12.046Z" fill="#9999A0"/>
</svg>
