<svg width="19" height="20" viewBox="0 0 19 20" fill="none" xmlns="http://www.w3.org/2000/svg">
<path fill-rule="evenodd" clip-rule="evenodd" d="M16.2973 17C16.2973 17.552 15.865 18 15.3344 18H3.77938C3.24882 18 2.81646 17.552 2.81646 17V6C2.81646 5.448 3.24882 5 3.77938 5V6C3.77938 7.103 4.64312 8 5.70522 8H13.4086C14.4707 8 15.3344 7.103 15.3344 6V5C15.865 5 16.2973 5.448 16.2973 6V17ZM5.70522 2L13.4086 2.003V3V6H5.70522V3V2ZM15.3344 3V2C15.3344 0.897 14.4707 0 13.4086 0H5.70522C4.64312 0 3.77938 0.897 3.77938 2V3C2.18671 3 0.890625 4.346 0.890625 6V17C0.890625 18.654 2.18671 20 3.77938 20H15.3344C16.9271 20 18.2232 18.654 18.2232 17V6C18.2232 4.346 16.9271 3 15.3344 3V3Z" fill="#9999A0"/>
</svg>
