<svg width="16" height="16" viewBox="0 0 16 16" fill="none" xmlns="http://www.w3.org/2000/svg">
<g clip-path="url(#clip0_11683_14468)">
<path d="M8.04606 2.84184C8.83144 2.84184 9.46709 2.20559 9.46709 1.42103C9.46709 0.635938 8.83144 0 8.04606 0C7.26097 0 6.625 0.635938 6.625 1.42103C6.625 2.20559 7.26097 2.84184 8.04606 2.84184Z" fill="black"/>
<path d="M8.07304 6.06463H9.99335C9.99335 6.06463 10.4543 5.06613 9.94607 4.18132C9.65889 3.68126 8.9862 3.37598 8.07304 3.37598C7.1596 3.37598 6.48692 3.68126 6.19973 4.18132C5.69157 5.06613 6.15245 6.06463 6.15245 6.06463H8.07304Z" fill="black"/>
<path d="M2.17912 12.7766C2.96447 12.7766 3.60044 12.1404 3.60044 11.3558C3.60044 10.5705 2.96447 9.93506 2.17912 9.93506C1.39375 9.93506 0.757812 10.5705 0.757812 11.3558C0.757812 12.1404 1.39375 12.7766 2.17912 12.7766Z" fill="black"/>
<path d="M2.20594 13.3115C1.29253 13.3115 0.619846 13.6165 0.332658 14.1161C-0.175779 15.0014 0.285408 15.9999 0.285408 15.9999H2.20594H4.12625C4.12625 15.9999 4.58713 15.0014 4.07869 14.1161C3.79181 13.6165 3.1191 13.3115 2.20594 13.3115Z" fill="black"/>
<path d="M13.7726 12.7766C14.558 12.7766 15.1939 12.1404 15.1939 11.3558C15.1939 10.5705 14.558 9.93506 13.7726 9.93506C12.9875 9.93506 12.3516 10.5705 12.3516 11.3558C12.3516 12.1404 12.9875 12.7766 13.7726 12.7766Z" fill="black"/>
<path d="M15.6722 14.1161C15.3856 13.6165 14.7126 13.3115 13.7994 13.3115C12.886 13.3115 12.2133 13.6165 11.9264 14.1161C11.418 15.0014 11.8791 15.9999 11.8791 15.9999H13.7994H15.7198C15.7198 15.9999 16.1809 15.0014 15.6722 14.1161Z" fill="black"/>
<path d="M8.36456 10.5434V7.06369V7.03613H8.33703H7.78372H7.75616V7.06369V10.5426L4.74278 12.2827L4.71875 12.2967L4.73253 12.3205L5.00916 12.7998L5.02322 12.8238L5.04703 12.81L8.05984 11.0702L11.0732 12.8103L11.097 12.8241L11.111 12.8L11.3877 12.3208L11.4015 12.297L11.3774 12.2829L8.36456 10.5434Z" fill="black"/>
</g>
<defs>
<clipPath id="clip0_11683_14468">
<rect width="16" height="16" fill="white"/>
</clipPath>
</defs>
</svg>
