<svg width="64" height="64" viewBox="0 0 64 64" fill="none" xmlns="http://www.w3.org/2000/svg">
<rect x="4" y="4" width="56" height="56" rx="28" fill="#40BB7B"/>
<rect x="4" y="4" width="56" height="56" rx="28" stroke="#C4EAD6" stroke-width="8"/>
<path d="M23.079 34.0218C22.6038 33.529 21.8316 33.529 21.3564 34.0218C20.8812 34.5147 20.8812 35.3156 21.3564 35.8085L26.9698 41.6304C27.2074 41.8768 27.5044 42 27.8311 42C27.8608 42 27.8608 42 27.8905 42C28.2172 41.9692 28.5439 41.8152 28.7815 41.5379L42.8298 24.0723C43.2457 23.5486 43.1863 22.7477 42.6813 22.2856C42.1764 21.8544 41.4042 21.916 40.9587 22.4397L27.742 38.858L23.079 34.0218Z" fill="white"/>
</svg>
