<svg width="49" height="48" viewBox="0 0 49 48" fill="none" xmlns="http://www.w3.org/2000/svg">
<circle cx="24.957" cy="24" r="24" fill="#212131"/>
<path fill-rule="evenodd" clip-rule="evenodd" d="M29.957 17.875C29.957 20.3568 27.7145 22.375 24.957 22.375C22.1995 22.375 19.957 20.3568 19.957 17.875C19.957 15.3932 22.1995 13.375 24.957 13.375C27.7145 13.375 29.957 15.3932 29.957 17.875ZM33.707 32.5C33.707 33.121 33.1483 33.625 32.457 33.625H17.457C16.7658 33.625 16.207 33.121 16.207 32.5C16.207 28.1575 20.1333 24.625 24.957 24.625C29.7808 24.625 33.707 28.1575 33.707 32.5Z" fill="#231F20"/>
<mask id="mask0_12505_110226" style="mask-type:luminance" maskUnits="userSpaceOnUse" x="16" y="13" width="18" height="21">
<path fill-rule="evenodd" clip-rule="evenodd" d="M29.957 17.875C29.957 20.3568 27.7145 22.375 24.957 22.375C22.1995 22.375 19.957 20.3568 19.957 17.875C19.957 15.3932 22.1995 13.375 24.957 13.375C27.7145 13.375 29.957 15.3932 29.957 17.875ZM33.707 32.5C33.707 33.121 33.1483 33.625 32.457 33.625H17.457C16.7658 33.625 16.207 33.121 16.207 32.5C16.207 28.1575 20.1333 24.625 24.957 24.625C29.7808 24.625 33.707 28.1575 33.707 32.5Z" fill="white"/>
</mask>
<g mask="url(#mask0_12505_110226)">
<rect x="9.95703" y="10" width="30" height="27" fill="white"/>
</g>
</svg>
