<svg width="24" height="24" viewBox="0 0 24 24" fill="none" xmlns="http://www.w3.org/2000/svg">
<path fill-rule="evenodd" clip-rule="evenodd" d="M19.2583 14C19.2583 14.551 18.827 15 18.2954 15H11.6388H11.4712H4.81454C4.28301 15 3.85162 14.551 3.85162 14V6C3.85162 5.449 4.28301 5 4.81454 5H18.2954C18.827 5 19.2583 5.449 19.2583 6V14ZM18.2954 3H4.81454C3.22187 3 1.92578 4.346 1.92578 6V14C1.92578 15.654 3.22187 17 4.81454 17H10.5921V19H6.74038C6.21077 19 5.77746 19.45 5.77746 20C5.77746 20.55 6.21077 21 6.74038 21H16.3696C16.8992 21 17.3325 20.55 17.3325 20C17.3325 19.45 16.8992 19 16.3696 19H12.5179V17H18.2954C19.8881 17 21.1842 15.654 21.1842 14V6C21.1842 4.346 19.8881 3 18.2954 3Z" fill="#231F20"/>
<mask id="mask0_12505_110215" style="mask-type:luminance" maskUnits="userSpaceOnUse" x="1" y="3" width="21" height="18">
<path fill-rule="evenodd" clip-rule="evenodd" d="M19.2583 14C19.2583 14.551 18.827 15 18.2954 15H11.6388H11.4712H4.81454C4.28301 15 3.85162 14.551 3.85162 14V6C3.85162 5.449 4.28301 5 4.81454 5H18.2954C18.827 5 19.2583 5.449 19.2583 6V14ZM18.2954 3H4.81454C3.22187 3 1.92578 4.346 1.92578 6V14C1.92578 15.654 3.22187 17 4.81454 17H10.5921V19H6.74038C6.21077 19 5.77746 19.45 5.77746 20C5.77746 20.55 6.21077 21 6.74038 21H16.3696C16.8992 21 17.3325 20.55 17.3325 20C17.3325 19.45 16.8992 19 16.3696 19H12.5179V17H18.2954C19.8881 17 21.1842 15.654 21.1842 14V6C21.1842 4.346 19.8881 3 18.2954 3Z" fill="white"/>
</mask>
<g mask="url(#mask0_12505_110215)">
<rect width="23.1101" height="24" fill="#9999A0"/>
</g>
</svg>
