<svg width="201" height="60" viewBox="0 0 291 96" fill="none" xmlns="http://www.w3.org/2000/svg">
<path d="M59.3457 2.04492C59.4785 2.04492 59.5723 2.07617 59.627 2.13867C59.6855 2.19727 59.7148 2.29883 59.7148 2.44336C59.7148 2.58789 59.6855 2.69141 59.627 2.75391C59.5723 2.8125 59.4785 2.8418 59.3457 2.8418H59.0293L58.2207 8.74805C58.2012 8.88867 58.1504 8.98633 58.0684 9.04102C57.9902 9.09961 57.873 9.12891 57.7168 9.12891C57.3965 9.12891 57.1973 9.00195 57.1191 8.74805L56.0352 5.34375L54.9395 8.74805C54.8574 9.00195 54.6543 9.12891 54.3301 9.12891C54.1777 9.12891 54.0605 9.09961 53.9785 9.04102C53.9004 8.98242 53.8535 8.88477 53.8379 8.74805L53.0586 2.8418H52.7715C52.6387 2.8418 52.543 2.8125 52.4844 2.75391C52.4297 2.69141 52.4023 2.58789 52.4023 2.44336C52.4023 2.29883 52.4297 2.19727 52.4844 2.13867C52.543 2.07617 52.6387 2.04492 52.7715 2.04492H54.7871C54.9199 2.04492 55.0137 2.07617 55.0684 2.13867C55.127 2.19727 55.1562 2.29883 55.1562 2.44336C55.1562 2.58789 55.127 2.69141 55.0684 2.75391C55.0137 2.8125 54.9199 2.8418 54.7871 2.8418H53.9316L54.5176 7.53516L55.6191 4.08984C55.6738 3.90625 55.8145 3.81445 56.041 3.81445C56.166 3.81445 56.2617 3.83398 56.3281 3.87305C56.3984 3.91211 56.4453 3.9707 56.4688 4.04883L57.5645 7.53516L58.1738 2.8418H57.4473C57.3145 2.8418 57.2188 2.8125 57.1602 2.75391C57.1055 2.69141 57.0781 2.58789 57.0781 2.44336C57.0781 2.29883 57.1055 2.19727 57.1602 2.13867C57.2188 2.07617 57.3145 2.04492 57.4473 2.04492H59.3457ZM65.0469 3.45703C65.3516 3.45703 65.6367 3.53516 65.9023 3.69141C66.0586 3.78516 66.1367 3.90625 66.1367 4.05469C66.1367 4.125 66.1191 4.20703 66.084 4.30078C66.002 4.52344 65.8887 4.63477 65.7441 4.63477C65.6855 4.63477 65.6309 4.61914 65.5801 4.58789C65.3887 4.48242 65.1836 4.42969 64.9648 4.42969C64.6133 4.42969 64.2598 4.55273 63.9043 4.79883C63.5488 5.04102 63.2559 5.36523 63.0254 5.77148C62.7988 6.17773 62.6855 6.60938 62.6855 7.06641V8.20312H64.6602C64.793 8.20312 64.8867 8.23438 64.9414 8.29688C65 8.35547 65.0293 8.45703 65.0293 8.60156C65.0293 8.74609 65 8.84961 64.9414 8.91211C64.8867 8.9707 64.793 9 64.6602 9H60.8867C60.7539 9 60.6582 8.9707 60.5996 8.91211C60.5449 8.84961 60.5176 8.74609 60.5176 8.60156C60.5176 8.45703 60.5449 8.35547 60.5996 8.29688C60.6582 8.23438 60.7539 8.20312 60.8867 8.20312H61.8066V4.38281H61.0625C60.9297 4.38281 60.834 4.35352 60.7754 4.29492C60.7207 4.23242 60.6934 4.12891 60.6934 3.98438C60.6934 3.83984 60.7207 3.73828 60.7754 3.67969C60.834 3.61719 60.9297 3.58594 61.0625 3.58594H62.2578C62.3906 3.58594 62.4844 3.61719 62.5391 3.67969C62.5977 3.73828 62.627 3.83984 62.627 3.98438V5.16797C62.8145 4.82422 63.041 4.52344 63.3066 4.26562C63.5723 4.00781 63.8555 3.80859 64.1562 3.66797C64.457 3.52734 64.7539 3.45703 65.0469 3.45703ZM70.6602 3.58594C70.793 3.58594 70.8867 3.61719 70.9414 3.67969C71 3.73828 71.0293 3.83984 71.0293 3.98438V8.20312H72.9102C73.043 8.20312 73.1367 8.23438 73.1914 8.29688C73.25 8.35547 73.2793 8.45703 73.2793 8.60156C73.2793 8.74609 73.25 8.84961 73.1914 8.91211C73.1367 8.9707 73.043 9 72.9102 9H68.3164C68.1836 9 68.0879 8.9707 68.0293 8.91211C67.9746 8.84961 67.9473 8.74609 67.9473 8.60156C67.9473 8.45703 67.9746 8.35547 68.0293 8.29688C68.0879 8.23438 68.1836 8.20312 68.3164 8.20312H70.1504V4.38281H68.668C68.5352 4.38281 68.4395 4.35352 68.3809 4.29492C68.3262 4.23242 68.2988 4.12891 68.2988 3.98438C68.2988 3.83984 68.3262 3.73828 68.3809 3.67969C68.4395 3.61719 68.5352 3.58594 68.668 3.58594H70.6602ZM70.4727 1.01367C70.6875 1.01367 70.834 1.04297 70.9121 1.10156C70.9902 1.15625 71.0293 1.25391 71.0293 1.39453V2.15625C71.0293 2.29688 70.9902 2.39648 70.9121 2.45508C70.834 2.50977 70.6875 2.53711 70.4727 2.53711C70.2578 2.53711 70.1113 2.50977 70.0332 2.45508C69.9551 2.39648 69.916 2.29688 69.916 2.15625V1.39453C69.916 1.25391 69.9551 1.15625 70.0332 1.10156C70.1113 1.04297 70.2578 1.01367 70.4727 1.01367ZM76.7305 1.91602C76.8906 1.91602 77.0039 1.94531 77.0703 2.00391C77.1367 2.0625 77.1699 2.16016 77.1699 2.29688V4.05469H79.5781C79.7109 4.05469 79.8047 4.08594 79.8594 4.14844C79.918 4.20703 79.9473 4.30859 79.9473 4.45312C79.9473 4.59766 79.918 4.70117 79.8594 4.76367C79.8047 4.82227 79.7109 4.85156 79.5781 4.85156H77.1699V6.98438C77.1699 7.42969 77.2461 7.75586 77.3984 7.96289C77.5547 8.16992 77.8242 8.27344 78.207 8.27344C78.4688 8.27344 78.7441 8.2207 79.0332 8.11523C79.3223 8.00977 79.6016 7.86914 79.8711 7.69336C79.9258 7.6543 79.9863 7.63477 80.0527 7.63477C80.1855 7.63477 80.2988 7.72461 80.3926 7.9043C80.4434 8.00586 80.4688 8.09375 80.4688 8.16797C80.4688 8.29297 80.4043 8.39453 80.2754 8.47266C79.9707 8.66406 79.6309 8.82227 79.2559 8.94727C78.8809 9.06836 78.5312 9.12891 78.207 9.12891C77.543 9.12891 77.0566 8.95703 76.748 8.61328C76.4434 8.26562 76.291 7.74805 76.291 7.06055V4.85156H75.1016C74.9688 4.85156 74.873 4.82227 74.8145 4.76367C74.7598 4.70117 74.7324 4.59766 74.7324 4.45312C74.7324 4.30859 74.7598 4.20703 74.8145 4.14844C74.873 4.08594 74.9688 4.05469 75.1016 4.05469H76.291V2.29688C76.291 2.16016 76.3242 2.0625 76.3906 2.00391C76.457 1.94531 76.5703 1.91602 76.7305 1.91602ZM84.8926 3.45703C85.459 3.45703 85.9414 3.57227 86.3398 3.80273C86.7422 4.0293 87.0508 4.3457 87.2656 4.75195C87.4805 5.1543 87.6035 5.61914 87.6348 6.14648C87.6348 6.2793 87.6055 6.37305 87.5469 6.42773C87.4922 6.48242 87.3984 6.50977 87.2656 6.50977H83.0234C83.0508 7.0918 83.2227 7.5332 83.5391 7.83398C83.8594 8.13086 84.3105 8.2793 84.8926 8.2793C85.252 8.2793 85.6074 8.23438 85.959 8.14453C86.3105 8.05078 86.6191 7.92773 86.8848 7.77539C86.9512 7.74023 87.0117 7.72266 87.0664 7.72266C87.2031 7.72266 87.3145 7.82617 87.4004 8.0332C87.4355 8.11523 87.4531 8.18945 87.4531 8.25586C87.4531 8.41211 87.3672 8.5332 87.1953 8.61914C86.8945 8.77148 86.5391 8.89453 86.1289 8.98828C85.7188 9.08203 85.3066 9.12891 84.8926 9.12891C84.3027 9.12891 83.7988 9.01562 83.3809 8.78906C82.9629 8.5625 82.6445 8.23633 82.4258 7.81055C82.207 7.38477 82.0977 6.87891 82.0977 6.29297C82.0977 5.73438 82.2168 5.24023 82.4551 4.81055C82.6934 4.38086 83.0234 4.04883 83.4453 3.81445C83.8672 3.57617 84.3496 3.45703 84.8926 3.45703ZM84.8926 4.30664C84.4121 4.30664 84.0137 4.42969 83.6973 4.67578C83.3848 4.91797 83.1797 5.25586 83.082 5.68945H86.6621C86.5801 5.24023 86.3906 4.89844 86.0938 4.66406C85.8008 4.42578 85.4004 4.30664 84.8926 4.30664ZM92.6211 7.27734C92.6875 7.27734 92.7383 7.29688 92.7734 7.33594C92.8086 7.37109 92.8262 7.41797 92.8262 7.47656C92.8262 7.53125 92.8125 7.58789 92.7852 7.64648L91.543 10.4824C91.4727 10.6426 91.3047 10.7227 91.0391 10.7227C90.7578 10.7227 90.6172 10.625 90.6172 10.4297C90.6172 10.4141 90.6211 10.3828 90.6289 10.3359L91.1797 7.51172C91.1953 7.4375 91.2285 7.38086 91.2793 7.3418C91.334 7.29883 91.4023 7.27734 91.4844 7.27734H92.6211ZM108.682 1.91602C108.842 1.91602 108.955 1.94531 109.021 2.00391C109.088 2.0625 109.121 2.16016 109.121 2.29688V4.23047C109.121 4.36719 109.088 4.46484 109.021 4.52344C108.955 4.58203 108.842 4.61133 108.682 4.61133C108.521 4.61133 108.408 4.58203 108.342 4.52344C108.275 4.46484 108.242 4.36719 108.242 4.23047C108.242 3.96484 108.182 3.72266 108.061 3.50391C107.943 3.28516 107.762 3.11133 107.516 2.98242C107.27 2.84961 106.965 2.7832 106.602 2.7832C106.18 2.7832 105.805 2.89453 105.477 3.11719C105.152 3.33984 104.898 3.6582 104.715 4.07227C104.535 4.48633 104.445 4.9707 104.445 5.52539C104.445 6.08008 104.531 6.56445 104.703 6.97852C104.875 7.38867 105.119 7.70508 105.436 7.92773C105.752 8.15039 106.121 8.26172 106.543 8.26172C106.93 8.26172 107.299 8.20508 107.65 8.0918C108.002 7.97852 108.318 7.81445 108.6 7.59961C108.666 7.54492 108.738 7.51758 108.816 7.51758C108.934 7.51758 109.037 7.59375 109.127 7.74609C109.197 7.86328 109.232 7.9668 109.232 8.05664C109.232 8.17383 109.172 8.27539 109.051 8.36133C108.688 8.61523 108.291 8.80664 107.861 8.93555C107.436 9.06445 106.996 9.12891 106.543 9.12891C105.934 9.12891 105.4 8.98047 104.943 8.68359C104.49 8.38281 104.139 7.96094 103.889 7.41797C103.643 6.875 103.52 6.24414 103.52 5.52539C103.52 4.81055 103.646 4.18164 103.9 3.63867C104.154 3.0918 104.51 2.66797 104.967 2.36719C105.428 2.06641 105.953 1.91602 106.543 1.91602C106.91 1.91602 107.236 1.97852 107.521 2.10352C107.807 2.22852 108.047 2.40625 108.242 2.63672V2.29688C108.242 2.16016 108.275 2.0625 108.342 2.00391C108.408 1.94531 108.521 1.91602 108.682 1.91602ZM113.621 3.45703C114.156 3.45703 114.639 3.57812 115.068 3.82031C115.498 4.0625 115.834 4.40039 116.076 4.83398C116.322 5.26367 116.445 5.75 116.445 6.29297C116.445 6.83594 116.322 7.32422 116.076 7.75781C115.834 8.1875 115.498 8.52344 115.068 8.76562C114.639 9.00781 114.156 9.12891 113.621 9.12891C113.086 9.12891 112.604 9.00781 112.174 8.76562C111.744 8.52344 111.406 8.1875 111.16 7.75781C110.918 7.32422 110.797 6.83594 110.797 6.29297C110.797 5.75 110.918 5.26367 111.16 4.83398C111.406 4.40039 111.744 4.0625 112.174 3.82031C112.604 3.57812 113.086 3.45703 113.621 3.45703ZM113.621 4.32422C113.242 4.32422 112.908 4.4082 112.619 4.57617C112.334 4.74023 112.113 4.97266 111.957 5.27344C111.801 5.57031 111.723 5.91016 111.723 6.29297C111.723 6.67578 111.801 7.01758 111.957 7.31836C112.113 7.61523 112.334 7.84766 112.619 8.01562C112.908 8.17969 113.242 8.26172 113.621 8.26172C114 8.26172 114.332 8.17969 114.617 8.01562C114.906 7.84766 115.129 7.61523 115.285 7.31836C115.441 7.01758 115.52 6.67578 115.52 6.29297C115.52 5.91016 115.441 5.57031 115.285 5.27344C115.129 4.97266 114.906 4.74023 114.617 4.57617C114.332 4.4082 114 4.32422 113.621 4.32422ZM120.969 1.3125C121.102 1.3125 121.195 1.34375 121.25 1.40625C121.309 1.46484 121.338 1.56641 121.338 1.71094V8.20312H123.219C123.352 8.20312 123.445 8.23438 123.5 8.29688C123.559 8.35547 123.588 8.45703 123.588 8.60156C123.588 8.74609 123.559 8.84961 123.5 8.91211C123.445 8.9707 123.352 9 123.219 9H118.625C118.492 9 118.396 8.9707 118.338 8.91211C118.283 8.84961 118.256 8.74609 118.256 8.60156C118.256 8.45703 118.283 8.35547 118.338 8.29688C118.396 8.23438 118.492 8.20312 118.625 8.20312H120.459V2.10938H118.859C118.727 2.10938 118.631 2.08008 118.572 2.02148C118.518 1.95898 118.49 1.85547 118.49 1.71094C118.49 1.56641 118.518 1.46484 118.572 1.40625C118.631 1.34375 118.727 1.3125 118.859 1.3125H120.969ZM128.164 1.3125C128.297 1.3125 128.391 1.34375 128.445 1.40625C128.504 1.46484 128.533 1.56641 128.533 1.71094V8.20312H130.414C130.547 8.20312 130.641 8.23438 130.695 8.29688C130.754 8.35547 130.783 8.45703 130.783 8.60156C130.783 8.74609 130.754 8.84961 130.695 8.91211C130.641 8.9707 130.547 9 130.414 9H125.82C125.688 9 125.592 8.9707 125.533 8.91211C125.479 8.84961 125.451 8.74609 125.451 8.60156C125.451 8.45703 125.479 8.35547 125.533 8.29688C125.592 8.23438 125.688 8.20312 125.82 8.20312H127.654V2.10938H126.055C125.922 2.10938 125.826 2.08008 125.768 2.02148C125.713 1.95898 125.686 1.85547 125.686 1.71094C125.686 1.56641 125.713 1.46484 125.768 1.40625C125.826 1.34375 125.922 1.3125 126.055 1.3125H128.164ZM135.23 3.45703C135.965 3.45703 136.516 3.62109 136.883 3.94922C137.25 4.27734 137.434 4.76367 137.434 5.4082V7.74023C137.434 8.04883 137.562 8.20312 137.82 8.20312H138.025C138.158 8.20312 138.252 8.23438 138.307 8.29688C138.365 8.35547 138.395 8.45703 138.395 8.60156C138.395 8.74609 138.365 8.84961 138.307 8.91211C138.252 8.9707 138.158 9 138.025 9H137.65C137.396 9 137.178 8.9375 136.994 8.8125C136.814 8.68359 136.697 8.49609 136.643 8.25C136.322 8.53125 135.975 8.74805 135.6 8.90039C135.229 9.05273 134.834 9.12891 134.416 9.12891C134.021 9.12891 133.672 9.0625 133.367 8.92969C133.066 8.79297 132.83 8.5957 132.658 8.33789C132.486 8.08008 132.4 7.77344 132.4 7.41797C132.4 6.80078 132.621 6.3457 133.062 6.05273C133.504 5.75586 134.074 5.60742 134.773 5.60742C135.395 5.60742 135.988 5.70703 136.555 5.90625V5.4082C136.555 5.0293 136.447 4.75195 136.232 4.57617C136.021 4.39648 135.68 4.30664 135.207 4.30664C134.914 4.30664 134.609 4.34766 134.293 4.42969C133.977 4.51172 133.676 4.625 133.391 4.76953C133.324 4.80469 133.264 4.82227 133.209 4.82227C133.08 4.82227 132.973 4.72852 132.887 4.54102C132.844 4.44727 132.822 4.36914 132.822 4.30664C132.822 4.16992 132.895 4.06445 133.039 3.99023C133.367 3.81836 133.719 3.6875 134.094 3.59766C134.473 3.50391 134.852 3.45703 135.23 3.45703ZM134.779 6.43359C134.33 6.43359 133.975 6.51172 133.713 6.66797C133.455 6.82031 133.326 7.06445 133.326 7.40039C133.326 7.68555 133.424 7.9082 133.619 8.06836C133.818 8.22461 134.096 8.30273 134.451 8.30273C135.229 8.30273 135.93 7.98047 136.555 7.33594V6.69727C136.289 6.61133 136.004 6.54688 135.699 6.50391C135.395 6.45703 135.088 6.43359 134.779 6.43359ZM140.498 1.3125C140.631 1.3125 140.725 1.34375 140.779 1.40625C140.838 1.46484 140.867 1.56641 140.867 1.71094V4.42383C141.371 3.7793 141.99 3.45703 142.725 3.45703C143.209 3.45703 143.643 3.57227 144.025 3.80273C144.408 4.0293 144.709 4.35742 144.928 4.78711C145.146 5.21289 145.256 5.71484 145.256 6.29297C145.256 6.87109 145.146 7.375 144.928 7.80469C144.709 8.23047 144.408 8.55859 144.025 8.78906C143.643 9.01562 143.209 9.12891 142.725 9.12891C142.342 9.12891 141.988 9.04297 141.664 8.87109C141.34 8.69922 141.055 8.45312 140.809 8.13281V8.60156C140.809 8.74609 140.779 8.84961 140.721 8.91211C140.666 8.9707 140.572 9 140.439 9H139.508C139.375 9 139.279 8.9707 139.221 8.91211C139.166 8.84961 139.139 8.74609 139.139 8.60156C139.139 8.45703 139.166 8.35547 139.221 8.29688C139.279 8.23438 139.375 8.20312 139.508 8.20312H139.988V2.10938H139.391C139.258 2.10938 139.162 2.08008 139.104 2.02148C139.049 1.95898 139.021 1.85547 139.021 1.71094C139.021 1.56641 139.049 1.46484 139.104 1.40625C139.162 1.34375 139.258 1.3125 139.391 1.3125H140.498ZM142.666 4.32422C142.318 4.32422 142.008 4.40234 141.734 4.55859C141.465 4.71484 141.252 4.94141 141.096 5.23828C140.943 5.53516 140.867 5.88672 140.867 6.29297C140.867 6.69922 140.943 7.05078 141.096 7.34766C141.252 7.64453 141.465 7.87109 141.734 8.02734C142.008 8.18359 142.318 8.26172 142.666 8.26172C143.014 8.26172 143.312 8.17969 143.562 8.01562C143.812 7.84766 144.002 7.61523 144.131 7.31836C144.264 7.02148 144.33 6.67969 144.33 6.29297C144.33 5.90625 144.264 5.56445 144.131 5.26758C144.002 4.9707 143.812 4.74023 143.562 4.57617C143.312 4.4082 143.014 4.32422 142.666 4.32422ZM149.598 3.45703C150.133 3.45703 150.615 3.57812 151.045 3.82031C151.475 4.0625 151.811 4.40039 152.053 4.83398C152.299 5.26367 152.422 5.75 152.422 6.29297C152.422 6.83594 152.299 7.32422 152.053 7.75781C151.811 8.1875 151.475 8.52344 151.045 8.76562C150.615 9.00781 150.133 9.12891 149.598 9.12891C149.062 9.12891 148.58 9.00781 148.15 8.76562C147.721 8.52344 147.383 8.1875 147.137 7.75781C146.895 7.32422 146.773 6.83594 146.773 6.29297C146.773 5.75 146.895 5.26367 147.137 4.83398C147.383 4.40039 147.721 4.0625 148.15 3.82031C148.58 3.57812 149.062 3.45703 149.598 3.45703ZM149.598 4.32422C149.219 4.32422 148.885 4.4082 148.596 4.57617C148.311 4.74023 148.09 4.97266 147.934 5.27344C147.777 5.57031 147.699 5.91016 147.699 6.29297C147.699 6.67578 147.777 7.01758 147.934 7.31836C148.09 7.61523 148.311 7.84766 148.596 8.01562C148.885 8.17969 149.219 8.26172 149.598 8.26172C149.977 8.26172 150.309 8.17969 150.594 8.01562C150.883 7.84766 151.105 7.61523 151.262 7.31836C151.418 7.01758 151.496 6.67578 151.496 6.29297C151.496 5.91016 151.418 5.57031 151.262 5.27344C151.105 4.97266 150.883 4.74023 150.594 4.57617C150.309 4.4082 149.977 4.32422 149.598 4.32422ZM158.586 3.45703C158.891 3.45703 159.176 3.53516 159.441 3.69141C159.598 3.78516 159.676 3.90625 159.676 4.05469C159.676 4.125 159.658 4.20703 159.623 4.30078C159.541 4.52344 159.428 4.63477 159.283 4.63477C159.225 4.63477 159.17 4.61914 159.119 4.58789C158.928 4.48242 158.723 4.42969 158.504 4.42969C158.152 4.42969 157.799 4.55273 157.443 4.79883C157.088 5.04102 156.795 5.36523 156.564 5.77148C156.338 6.17773 156.225 6.60938 156.225 7.06641V8.20312H158.199C158.332 8.20312 158.426 8.23438 158.48 8.29688C158.539 8.35547 158.568 8.45703 158.568 8.60156C158.568 8.74609 158.539 8.84961 158.48 8.91211C158.426 8.9707 158.332 9 158.199 9H154.426C154.293 9 154.197 8.9707 154.139 8.91211C154.084 8.84961 154.057 8.74609 154.057 8.60156C154.057 8.45703 154.084 8.35547 154.139 8.29688C154.197 8.23438 154.293 8.20312 154.426 8.20312H155.346V4.38281H154.602C154.469 4.38281 154.373 4.35352 154.314 4.29492C154.26 4.23242 154.232 4.12891 154.232 3.98438C154.232 3.83984 154.26 3.73828 154.314 3.67969C154.373 3.61719 154.469 3.58594 154.602 3.58594H155.797C155.93 3.58594 156.023 3.61719 156.078 3.67969C156.137 3.73828 156.166 3.83984 156.166 3.98438V5.16797C156.354 4.82422 156.58 4.52344 156.846 4.26562C157.111 4.00781 157.395 3.80859 157.695 3.66797C157.996 3.52734 158.293 3.45703 158.586 3.45703ZM164.012 3.45703C164.746 3.45703 165.297 3.62109 165.664 3.94922C166.031 4.27734 166.215 4.76367 166.215 5.4082V7.74023C166.215 8.04883 166.344 8.20312 166.602 8.20312H166.807C166.939 8.20312 167.033 8.23438 167.088 8.29688C167.146 8.35547 167.176 8.45703 167.176 8.60156C167.176 8.74609 167.146 8.84961 167.088 8.91211C167.033 8.9707 166.939 9 166.807 9H166.432C166.178 9 165.959 8.9375 165.775 8.8125C165.596 8.68359 165.479 8.49609 165.424 8.25C165.104 8.53125 164.756 8.74805 164.381 8.90039C164.01 9.05273 163.615 9.12891 163.197 9.12891C162.803 9.12891 162.453 9.0625 162.148 8.92969C161.848 8.79297 161.611 8.5957 161.439 8.33789C161.268 8.08008 161.182 7.77344 161.182 7.41797C161.182 6.80078 161.402 6.3457 161.844 6.05273C162.285 5.75586 162.855 5.60742 163.555 5.60742C164.176 5.60742 164.77 5.70703 165.336 5.90625V5.4082C165.336 5.0293 165.229 4.75195 165.014 4.57617C164.803 4.39648 164.461 4.30664 163.988 4.30664C163.695 4.30664 163.391 4.34766 163.074 4.42969C162.758 4.51172 162.457 4.625 162.172 4.76953C162.105 4.80469 162.045 4.82227 161.99 4.82227C161.861 4.82227 161.754 4.72852 161.668 4.54102C161.625 4.44727 161.604 4.36914 161.604 4.30664C161.604 4.16992 161.676 4.06445 161.82 3.99023C162.148 3.81836 162.5 3.6875 162.875 3.59766C163.254 3.50391 163.633 3.45703 164.012 3.45703ZM163.561 6.43359C163.111 6.43359 162.756 6.51172 162.494 6.66797C162.236 6.82031 162.107 7.06445 162.107 7.40039C162.107 7.68555 162.205 7.9082 162.4 8.06836C162.6 8.22461 162.877 8.30273 163.232 8.30273C164.01 8.30273 164.711 7.98047 165.336 7.33594V6.69727C165.07 6.61133 164.785 6.54688 164.48 6.50391C164.176 6.45703 163.869 6.43359 163.561 6.43359ZM170.27 1.91602C170.43 1.91602 170.543 1.94531 170.609 2.00391C170.676 2.0625 170.709 2.16016 170.709 2.29688V4.05469H173.117C173.25 4.05469 173.344 4.08594 173.398 4.14844C173.457 4.20703 173.486 4.30859 173.486 4.45312C173.486 4.59766 173.457 4.70117 173.398 4.76367C173.344 4.82227 173.25 4.85156 173.117 4.85156H170.709V6.98438C170.709 7.42969 170.785 7.75586 170.938 7.96289C171.094 8.16992 171.363 8.27344 171.746 8.27344C172.008 8.27344 172.283 8.2207 172.572 8.11523C172.861 8.00977 173.141 7.86914 173.41 7.69336C173.465 7.6543 173.525 7.63477 173.592 7.63477C173.725 7.63477 173.838 7.72461 173.932 7.9043C173.982 8.00586 174.008 8.09375 174.008 8.16797C174.008 8.29297 173.943 8.39453 173.814 8.47266C173.51 8.66406 173.17 8.82227 172.795 8.94727C172.42 9.06836 172.07 9.12891 171.746 9.12891C171.082 9.12891 170.596 8.95703 170.287 8.61328C169.982 8.26562 169.83 7.74805 169.83 7.06055V4.85156H168.641C168.508 4.85156 168.412 4.82227 168.354 4.76367C168.299 4.70117 168.271 4.59766 168.271 4.45312C168.271 4.30859 168.299 4.20703 168.354 4.14844C168.412 4.08594 168.508 4.05469 168.641 4.05469H169.83V2.29688C169.83 2.16016 169.863 2.0625 169.93 2.00391C169.996 1.94531 170.109 1.91602 170.27 1.91602ZM178.432 3.45703C178.998 3.45703 179.48 3.57227 179.879 3.80273C180.281 4.0293 180.59 4.3457 180.805 4.75195C181.02 5.1543 181.143 5.61914 181.174 6.14648C181.174 6.2793 181.145 6.37305 181.086 6.42773C181.031 6.48242 180.938 6.50977 180.805 6.50977H176.562C176.59 7.0918 176.762 7.5332 177.078 7.83398C177.398 8.13086 177.85 8.2793 178.432 8.2793C178.791 8.2793 179.146 8.23438 179.498 8.14453C179.85 8.05078 180.158 7.92773 180.424 7.77539C180.49 7.74023 180.551 7.72266 180.605 7.72266C180.742 7.72266 180.854 7.82617 180.939 8.0332C180.975 8.11523 180.992 8.18945 180.992 8.25586C180.992 8.41211 180.906 8.5332 180.734 8.61914C180.434 8.77148 180.078 8.89453 179.668 8.98828C179.258 9.08203 178.846 9.12891 178.432 9.12891C177.842 9.12891 177.338 9.01562 176.92 8.78906C176.502 8.5625 176.184 8.23633 175.965 7.81055C175.746 7.38477 175.637 6.87891 175.637 6.29297C175.637 5.73438 175.756 5.24023 175.994 4.81055C176.232 4.38086 176.562 4.04883 176.984 3.81445C177.406 3.57617 177.889 3.45703 178.432 3.45703ZM178.432 4.30664C177.951 4.30664 177.553 4.42969 177.236 4.67578C176.924 4.91797 176.719 5.25586 176.621 5.68945H180.201C180.119 5.24023 179.93 4.89844 179.633 4.66406C179.34 4.42578 178.939 4.30664 178.432 4.30664ZM186.16 7.27734C186.227 7.27734 186.277 7.29688 186.312 7.33594C186.348 7.37109 186.365 7.41797 186.365 7.47656C186.365 7.53125 186.352 7.58789 186.324 7.64648L185.082 10.4824C185.012 10.6426 184.844 10.7227 184.578 10.7227C184.297 10.7227 184.156 10.625 184.156 10.4297C184.156 10.4141 184.16 10.3828 184.168 10.3359L184.719 7.51172C184.734 7.4375 184.768 7.38086 184.818 7.3418C184.873 7.29883 184.941 7.27734 185.023 7.27734H186.16ZM202.221 1.91602C202.381 1.91602 202.494 1.94531 202.561 2.00391C202.627 2.0625 202.66 2.16016 202.66 2.29688V4.23047C202.66 4.36719 202.627 4.46484 202.561 4.52344C202.494 4.58203 202.381 4.61133 202.221 4.61133C202.061 4.61133 201.947 4.58203 201.881 4.52344C201.814 4.46484 201.781 4.36719 201.781 4.23047C201.781 3.96484 201.721 3.72266 201.6 3.50391C201.482 3.28516 201.301 3.11133 201.055 2.98242C200.809 2.84961 200.504 2.7832 200.141 2.7832C199.719 2.7832 199.344 2.89453 199.016 3.11719C198.691 3.33984 198.438 3.6582 198.254 4.07227C198.074 4.48633 197.984 4.9707 197.984 5.52539C197.984 6.08008 198.07 6.56445 198.242 6.97852C198.414 7.38867 198.658 7.70508 198.975 7.92773C199.291 8.15039 199.66 8.26172 200.082 8.26172C200.469 8.26172 200.838 8.20508 201.189 8.0918C201.541 7.97852 201.857 7.81445 202.139 7.59961C202.205 7.54492 202.277 7.51758 202.355 7.51758C202.473 7.51758 202.576 7.59375 202.666 7.74609C202.736 7.86328 202.771 7.9668 202.771 8.05664C202.771 8.17383 202.711 8.27539 202.59 8.36133C202.227 8.61523 201.83 8.80664 201.4 8.93555C200.975 9.06445 200.535 9.12891 200.082 9.12891C199.473 9.12891 198.939 8.98047 198.482 8.68359C198.029 8.38281 197.678 7.96094 197.428 7.41797C197.182 6.875 197.059 6.24414 197.059 5.52539C197.059 4.81055 197.186 4.18164 197.439 3.63867C197.693 3.0918 198.049 2.66797 198.506 2.36719C198.967 2.06641 199.492 1.91602 200.082 1.91602C200.449 1.91602 200.775 1.97852 201.061 2.10352C201.346 2.22852 201.586 2.40625 201.781 2.63672V2.29688C201.781 2.16016 201.814 2.0625 201.881 2.00391C201.947 1.94531 202.061 1.91602 202.221 1.91602ZM208.953 3.45703C209.258 3.45703 209.543 3.53516 209.809 3.69141C209.965 3.78516 210.043 3.90625 210.043 4.05469C210.043 4.125 210.025 4.20703 209.99 4.30078C209.908 4.52344 209.795 4.63477 209.65 4.63477C209.592 4.63477 209.537 4.61914 209.486 4.58789C209.295 4.48242 209.09 4.42969 208.871 4.42969C208.52 4.42969 208.166 4.55273 207.811 4.79883C207.455 5.04102 207.162 5.36523 206.932 5.77148C206.705 6.17773 206.592 6.60938 206.592 7.06641V8.20312H208.566C208.699 8.20312 208.793 8.23438 208.848 8.29688C208.906 8.35547 208.936 8.45703 208.936 8.60156C208.936 8.74609 208.906 8.84961 208.848 8.91211C208.793 8.9707 208.699 9 208.566 9H204.793C204.66 9 204.564 8.9707 204.506 8.91211C204.451 8.84961 204.424 8.74609 204.424 8.60156C204.424 8.45703 204.451 8.35547 204.506 8.29688C204.564 8.23438 204.66 8.20312 204.793 8.20312H205.713V4.38281H204.969C204.836 4.38281 204.74 4.35352 204.682 4.29492C204.627 4.23242 204.6 4.12891 204.6 3.98438C204.6 3.83984 204.627 3.73828 204.682 3.67969C204.74 3.61719 204.836 3.58594 204.969 3.58594H206.164C206.297 3.58594 206.391 3.61719 206.445 3.67969C206.504 3.73828 206.533 3.83984 206.533 3.98438V5.16797C206.721 4.82422 206.947 4.52344 207.213 4.26562C207.479 4.00781 207.762 3.80859 208.062 3.66797C208.363 3.52734 208.66 3.45703 208.953 3.45703ZM214.408 3.45703C214.975 3.45703 215.457 3.57227 215.855 3.80273C216.258 4.0293 216.566 4.3457 216.781 4.75195C216.996 5.1543 217.119 5.61914 217.15 6.14648C217.15 6.2793 217.121 6.37305 217.062 6.42773C217.008 6.48242 216.914 6.50977 216.781 6.50977H212.539C212.566 7.0918 212.738 7.5332 213.055 7.83398C213.375 8.13086 213.826 8.2793 214.408 8.2793C214.768 8.2793 215.123 8.23438 215.475 8.14453C215.826 8.05078 216.135 7.92773 216.4 7.77539C216.467 7.74023 216.527 7.72266 216.582 7.72266C216.719 7.72266 216.83 7.82617 216.916 8.0332C216.951 8.11523 216.969 8.18945 216.969 8.25586C216.969 8.41211 216.883 8.5332 216.711 8.61914C216.41 8.77148 216.055 8.89453 215.645 8.98828C215.234 9.08203 214.822 9.12891 214.408 9.12891C213.818 9.12891 213.314 9.01562 212.896 8.78906C212.479 8.5625 212.16 8.23633 211.941 7.81055C211.723 7.38477 211.613 6.87891 211.613 6.29297C211.613 5.73438 211.732 5.24023 211.971 4.81055C212.209 4.38086 212.539 4.04883 212.961 3.81445C213.383 3.57617 213.865 3.45703 214.408 3.45703ZM214.408 4.30664C213.928 4.30664 213.529 4.42969 213.213 4.67578C212.9 4.91797 212.695 5.25586 212.598 5.68945H216.178C216.096 5.24023 215.906 4.89844 215.609 4.66406C215.316 4.42578 214.916 4.30664 214.408 4.30664ZM221.574 3.45703C222.309 3.45703 222.859 3.62109 223.227 3.94922C223.594 4.27734 223.777 4.76367 223.777 5.4082V7.74023C223.777 8.04883 223.906 8.20312 224.164 8.20312H224.369C224.502 8.20312 224.596 8.23438 224.65 8.29688C224.709 8.35547 224.738 8.45703 224.738 8.60156C224.738 8.74609 224.709 8.84961 224.65 8.91211C224.596 8.9707 224.502 9 224.369 9H223.994C223.74 9 223.521 8.9375 223.338 8.8125C223.158 8.68359 223.041 8.49609 222.986 8.25C222.666 8.53125 222.318 8.74805 221.943 8.90039C221.572 9.05273 221.178 9.12891 220.76 9.12891C220.365 9.12891 220.016 9.0625 219.711 8.92969C219.41 8.79297 219.174 8.5957 219.002 8.33789C218.83 8.08008 218.744 7.77344 218.744 7.41797C218.744 6.80078 218.965 6.3457 219.406 6.05273C219.848 5.75586 220.418 5.60742 221.117 5.60742C221.738 5.60742 222.332 5.70703 222.898 5.90625V5.4082C222.898 5.0293 222.791 4.75195 222.576 4.57617C222.365 4.39648 222.023 4.30664 221.551 4.30664C221.258 4.30664 220.953 4.34766 220.637 4.42969C220.32 4.51172 220.02 4.625 219.734 4.76953C219.668 4.80469 219.607 4.82227 219.553 4.82227C219.424 4.82227 219.316 4.72852 219.23 4.54102C219.188 4.44727 219.166 4.36914 219.166 4.30664C219.166 4.16992 219.238 4.06445 219.383 3.99023C219.711 3.81836 220.062 3.6875 220.438 3.59766C220.816 3.50391 221.195 3.45703 221.574 3.45703ZM221.123 6.43359C220.674 6.43359 220.318 6.51172 220.057 6.66797C219.799 6.82031 219.67 7.06445 219.67 7.40039C219.67 7.68555 219.768 7.9082 219.963 8.06836C220.162 8.22461 220.439 8.30273 220.795 8.30273C221.572 8.30273 222.273 7.98047 222.898 7.33594V6.69727C222.633 6.61133 222.348 6.54688 222.043 6.50391C221.738 6.45703 221.432 6.43359 221.123 6.43359ZM227.832 1.91602C227.992 1.91602 228.105 1.94531 228.172 2.00391C228.238 2.0625 228.271 2.16016 228.271 2.29688V4.05469H230.68C230.812 4.05469 230.906 4.08594 230.961 4.14844C231.02 4.20703 231.049 4.30859 231.049 4.45312C231.049 4.59766 231.02 4.70117 230.961 4.76367C230.906 4.82227 230.812 4.85156 230.68 4.85156H228.271V6.98438C228.271 7.42969 228.348 7.75586 228.5 7.96289C228.656 8.16992 228.926 8.27344 229.309 8.27344C229.57 8.27344 229.846 8.2207 230.135 8.11523C230.424 8.00977 230.703 7.86914 230.973 7.69336C231.027 7.6543 231.088 7.63477 231.154 7.63477C231.287 7.63477 231.4 7.72461 231.494 7.9043C231.545 8.00586 231.57 8.09375 231.57 8.16797C231.57 8.29297 231.506 8.39453 231.377 8.47266C231.072 8.66406 230.732 8.82227 230.357 8.94727C229.982 9.06836 229.633 9.12891 229.309 9.12891C228.645 9.12891 228.158 8.95703 227.85 8.61328C227.545 8.26562 227.393 7.74805 227.393 7.06055V4.85156H226.203C226.07 4.85156 225.975 4.82227 225.916 4.76367C225.861 4.70117 225.834 4.59766 225.834 4.45312C225.834 4.30859 225.861 4.20703 225.916 4.14844C225.975 4.08594 226.07 4.05469 226.203 4.05469H227.393V2.29688C227.393 2.16016 227.426 2.0625 227.492 2.00391C227.559 1.94531 227.672 1.91602 227.832 1.91602ZM235.994 3.45703C236.561 3.45703 237.043 3.57227 237.441 3.80273C237.844 4.0293 238.152 4.3457 238.367 4.75195C238.582 5.1543 238.705 5.61914 238.736 6.14648C238.736 6.2793 238.707 6.37305 238.648 6.42773C238.594 6.48242 238.5 6.50977 238.367 6.50977H234.125C234.152 7.0918 234.324 7.5332 234.641 7.83398C234.961 8.13086 235.412 8.2793 235.994 8.2793C236.354 8.2793 236.709 8.23438 237.061 8.14453C237.412 8.05078 237.721 7.92773 237.986 7.77539C238.053 7.74023 238.113 7.72266 238.168 7.72266C238.305 7.72266 238.416 7.82617 238.502 8.0332C238.537 8.11523 238.555 8.18945 238.555 8.25586C238.555 8.41211 238.469 8.5332 238.297 8.61914C237.996 8.77148 237.641 8.89453 237.23 8.98828C236.82 9.08203 236.408 9.12891 235.994 9.12891C235.404 9.12891 234.9 9.01562 234.482 8.78906C234.064 8.5625 233.746 8.23633 233.527 7.81055C233.309 7.38477 233.199 6.87891 233.199 6.29297C233.199 5.73438 233.318 5.24023 233.557 4.81055C233.795 4.38086 234.125 4.04883 234.547 3.81445C234.969 3.57617 235.451 3.45703 235.994 3.45703ZM235.994 4.30664C235.514 4.30664 235.115 4.42969 234.799 4.67578C234.486 4.91797 234.281 5.25586 234.184 5.68945H237.764C237.682 5.24023 237.492 4.89844 237.195 4.66406C236.902 4.42578 236.502 4.30664 235.994 4.30664Z" fill="black"/>
<path fill-rule="evenodd" clip-rule="evenodd" d="M13.2635 21.1432C9.23018 21.9799 5.04169 25.3647 2.98623 29.5101C1.82277 31.792 1.7452 32.2484 1.7452 35.9755C1.7452 39.6265 1.82276 40.1589 2.86989 42.0225C4.26605 44.6466 7.25228 47.7652 10.4712 49.971C16.2498 53.9263 19.8565 56.7786 20.5934 57.8815C22.2222 60.5057 21.2139 63.9665 18.2277 65.9442C17.0642 66.7048 16.5212 66.8189 14.5821 66.7048C12.6042 66.5527 12.1388 66.3625 11.2081 65.3357C10.161 64.1947 10.0834 63.8905 10.0834 60.7719C10.0834 56.1321 9.69557 55.7518 5.11926 55.7518C0.0387809 55.7518 0 55.8278 0 61.5706C0 65.9061 0.0775646 66.3625 1.16347 68.5683C4.03336 74.5393 10.51 77.7339 17.7623 76.7831C21.5242 76.2887 24.6267 74.8816 26.9149 72.5616C32.5383 66.933 33.3915 57.9576 28.9316 51.9867C27.5354 50.1231 25.6351 48.6399 17.7623 43.0493C15.4741 41.452 13.2635 39.6645 12.8757 39.094C10.4712 35.7473 12.4491 31.5258 16.6376 31.1075C18.3828 30.9553 18.6543 31.0314 19.9341 32.2104C21.1363 33.3133 21.4078 33.8837 21.8732 36.2797C22.1447 37.839 22.6488 39.3222 22.9591 39.6265C23.696 40.3871 29.9399 40.5012 30.8319 39.7786C31.2973 39.3983 31.4136 38.4855 31.4136 35.6332C31.4136 33.6175 31.2197 31.3737 31.0258 30.6511C29.9787 26.886 26.2556 22.9687 22.4937 21.6757C20.3607 20.9531 15.5517 20.6869 13.2635 21.1432Z" fill="black"/>
<path fill-rule="evenodd" clip-rule="evenodd" d="M46.6397 22.7273C45.4342 23.108 43.6843 23.8695 42.751 24.4025C40.1456 25.8874 36.7236 29.6567 35.3237 32.5503L34.0793 35.1393V48.0843V61.0294L35.3237 63.6184C38.6679 70.5478 46.7563 74.4313 54.4947 72.8703C58.5001 72.0327 60.9888 70.7762 63.3997 68.3395C66.0051 65.7125 66.7051 64.6083 67.7161 61.7909C69.4272 56.9174 68.6105 55.5087 63.983 55.5087C60.911 55.5087 60.6388 55.6991 59.2389 58.3642C56.5557 63.5422 50.6061 65.0271 45.9786 61.6766C43.4899 59.8491 43.2177 58.7069 43.2177 48.4651C43.2177 43.0206 43.4121 38.7182 43.6454 37.8045C44.2676 35.5962 45.6286 34.0352 47.9618 32.893C52.0449 30.9131 56.7113 32.0553 59.3944 35.6723C60.9888 37.8806 61.6888 38.1471 65.0719 37.9187C67.9495 37.7283 68.6494 37.043 68.3383 34.7586C67.755 30.9512 63.8275 25.8493 60.0166 23.9457C56.0502 21.9658 50.645 21.4709 46.6397 22.7273Z" fill="black"/>
<path fill-rule="evenodd" clip-rule="evenodd" d="M71.3586 23.1543C70.97 23.5342 70.8535 28.7383 70.8535 46.5538C70.8535 73.1442 70.3095 70.4851 75.5549 69.8394C77.3033 69.6494 78.9741 69.2696 79.2461 69.0417C79.6346 68.7378 79.79 66.9524 79.8677 61.9002C79.9843 56.3542 80.062 55.2147 80.5282 55.2147C80.8779 55.2147 82.1213 57.4179 83.792 61.1025C85.2685 64.3314 86.745 67.2943 87.0558 67.6362C87.9106 68.5858 94.5548 68.6238 95.4873 67.7121C95.837 67.4083 96.109 66.9524 96.109 66.7625C96.109 66.5726 94.7879 63.6856 93.1949 60.3428C91.6018 57 90.2808 54.1511 90.2808 53.9991C90.2808 53.8092 91.1356 52.8975 92.1846 51.9099C93.2337 50.9222 94.5159 49.2888 94.9822 48.3012C95.8758 46.5918 95.9147 46.06 95.9147 39.4504C95.9147 32.4989 95.9147 32.385 94.7879 30.0678C93.5057 27.3328 91.1356 24.9777 88.4157 23.7621C86.7838 23.0404 85.7736 22.9264 79.2072 22.8124C73.6121 22.7365 71.7083 22.8124 71.3586 23.1543ZM84.6857 32.8028C86.4342 33.9044 86.7838 34.8921 86.8227 38.9186C86.8616 43.211 86.3176 44.9964 84.608 46.174C83.2481 47.0856 81.5385 47.5415 80.5282 47.2376C79.8289 47.0097 79.79 46.5538 79.79 39.8303C79.79 33.4106 79.8677 32.6129 80.4894 32.233C81.3053 31.7392 83.4812 32.0051 84.6857 32.8028Z" fill="black"/>
<path fill-rule="evenodd" clip-rule="evenodd" d="M100.218 23.4792C99.6366 24.1231 99.5591 26.1687 99.5591 44.8818C99.5591 60.375 99.6754 65.8299 100.024 66.5875L100.489 67.6103L104.791 67.3451C107.116 67.2315 113.162 67.0042 118.162 66.8906C125.525 66.7012 127.385 66.5117 127.967 66.0572C128.509 65.6026 128.626 64.845 128.626 62.0039C128.626 59.8447 128.471 58.4053 128.161 58.1022C127.812 57.7613 125.215 57.6476 118.82 57.6476C113.472 57.6476 109.674 57.4961 109.209 57.2688C108.589 56.9279 108.473 56.4355 108.473 53.8974C108.473 51.9276 108.628 50.7912 108.977 50.5261C109.248 50.2988 110.876 50.0715 112.542 50.0336C117.27 49.8821 117.387 49.7684 117.387 44.8439C117.387 42.1544 117.232 40.6013 116.921 40.2982C116.65 40.0331 115.216 39.8437 113.201 39.8437C108.667 39.8437 108.473 39.6921 108.473 36.2829C108.473 32.1539 108.163 32.2675 118.394 32.2675C129.052 32.2675 128.626 32.4569 128.626 27.6839C128.626 22.3049 130.06 22.7973 114.325 22.7973C101.768 22.7973 100.799 22.8352 100.218 23.4792Z" fill="black"/>
<path fill-rule="evenodd" clip-rule="evenodd" d="M132.76 23.4792C132.178 24.1231 132.101 26.1687 132.101 44.8818C132.101 60.375 132.217 65.8299 132.566 66.5875L133.031 67.6103L137.333 67.3451C139.658 67.2315 145.704 67.0042 150.703 66.8906C158.067 66.7012 159.927 66.5117 160.508 66.0572C161.051 65.6026 161.167 64.845 161.167 62.0039C161.167 59.8447 161.012 58.4053 160.702 58.1022C160.353 57.7613 157.757 57.6476 151.362 57.6476C146.014 57.6476 142.216 57.4961 141.751 57.2688C141.131 56.9279 141.015 56.4355 141.015 53.8974C141.015 51.9276 141.17 50.7912 141.518 50.5261C141.79 50.2988 143.417 50.0715 145.084 50.0336C149.812 49.8821 149.928 49.7684 149.928 44.8439C149.928 42.1544 149.773 40.6013 149.463 40.2982C149.192 40.0331 147.758 39.8437 145.743 39.8437C141.208 39.8437 141.015 39.6922 141.015 36.2829C141.015 32.1539 140.705 32.2675 150.936 32.2675C161.594 32.2675 161.167 32.4569 161.167 27.6839C161.167 22.3049 162.601 22.7973 146.867 22.7973C134.31 22.7973 133.341 22.8352 132.76 23.4792Z" fill="black"/>
<path fill-rule="evenodd" clip-rule="evenodd" d="M194.704 23.3555C194.354 23.7354 194.237 27.991 194.159 39.5798C194.042 59.6797 194.315 67.1269 195.094 67.6208C195.951 68.1528 202.263 68.0768 202.809 67.5448C203.121 67.2409 203.276 65.2651 203.276 61.1235C203.276 54.4362 203.121 54.7022 206.471 54.7022C210.563 54.7022 215.238 51.4725 217.381 47.179C218.667 44.6332 218.667 44.6332 218.628 38.9338C218.628 33.9944 218.511 32.9685 217.771 31.1446C216.212 27.2311 213.329 24.3434 209.939 23.2415C209.121 22.9755 205.965 22.7855 201.913 22.7855C196.497 22.7855 195.094 22.8995 194.704 23.3555ZM207.134 32.6265C209.277 34.0703 209.705 35.1342 209.705 38.6679C209.666 43.6453 208.186 45.9251 204.952 45.9631H203.276V38.9718C203.276 32.6265 203.354 31.9426 203.978 31.7906C204.913 31.5626 206.043 31.8666 207.134 32.6265Z" fill="black"/>
<path fill-rule="evenodd" clip-rule="evenodd" d="M221.318 23.7695C221.087 24.3372 220.933 33.3825 220.933 46.7801C220.933 67.3307 220.971 68.8824 221.627 69.4123C222.051 69.7907 223.479 70.1313 225.562 70.2827C227.376 70.4341 231.08 70.8504 233.858 71.2289C238.256 71.8344 238.95 71.8723 239.491 71.3803C239.838 71.0775 240.494 69.0338 240.995 66.6495C242.153 61.1996 242.268 61.3131 235.902 61.0104C233.279 60.8968 230.925 60.6697 230.694 60.5184C230.308 60.2913 230.192 56.166 230.192 42.0872C230.192 26.116 230.115 23.9209 229.575 23.3911C229.112 22.9369 228.147 22.7855 225.331 22.7855C221.781 22.7855 221.666 22.8234 221.318 23.7695Z" fill="black"/>
<path fill-rule="evenodd" clip-rule="evenodd" d="M243.599 23.4632C243.054 24.0697 242.12 27.216 237.876 42.9095C236.942 46.4348 234.723 55.8358 234.723 56.3665C234.723 56.4423 234.996 56.7835 235.346 57.0867C235.852 57.5795 237.02 57.6932 242.042 57.6932C245.39 57.6932 248.387 57.8449 248.66 57.9965C249.049 58.2618 249.944 61.7493 251.852 70.8091C252.086 71.9084 252.592 73.0456 252.942 73.3488C253.682 73.9932 259.988 74.9788 260.961 74.6377C261.818 74.2965 261.74 73.4626 260.455 68.383C259.794 65.957 258.937 62.1663 258.47 59.9677C258.042 57.769 256.835 52.3104 255.784 47.8374C254.733 43.3644 253.059 36.1999 252.047 31.9165C251.034 27.595 249.983 23.8802 249.633 23.5011C248.738 22.5534 244.455 22.5534 243.599 23.4632ZM247.142 44.0467C247.57 45.7904 247.803 47.3825 247.725 47.5342C247.453 47.9511 244.455 47.9132 244.455 47.4962C244.455 47.0035 245.584 41.6965 245.818 41.052C246.129 40.2181 246.324 40.6351 247.142 44.0467Z" fill="black"/>
<path fill-rule="evenodd" clip-rule="evenodd" d="M253.419 23.3929C253.147 23.6958 253.03 24.2639 253.147 24.6047C253.575 26.0816 258.203 37.8211 261.043 44.7891L264.038 52.1736L264.31 57.6647C264.466 60.6942 264.621 65.7308 264.66 68.874C264.699 73.797 264.777 74.668 265.399 75.1603C265.749 75.5011 267.616 75.9934 269.522 76.2585C272.75 76.7129 272.984 76.713 273.489 76.0313C273.917 75.4633 274.034 73.0396 274.034 64.519C274.073 54.9759 274.151 53.4611 274.773 51.7949C275.784 49.0683 277.418 45.0541 278.896 41.5702C279.596 39.9039 280.491 37.6696 280.841 36.6471C281.541 34.7158 281.774 34.1856 284.497 28.3916C286.986 23.0899 286.83 22.8248 281.152 22.8248C277.69 22.8248 277.068 22.9384 276.445 23.5822C276.056 23.9988 274.812 26.9147 273.645 30.0957C270.261 39.5252 270.105 39.866 269.561 39.866C268.822 39.866 268.861 39.9418 265.827 31.459C264.349 27.2555 262.91 23.5822 262.676 23.3171C262.054 22.5597 254.081 22.6355 253.419 23.3929Z" fill="black"/>
<path fill-rule="evenodd" clip-rule="evenodd" d="M283.3 61.1582C281.528 61.715 280.642 62.3459 279.487 63.8677C276.983 67.171 278.87 71.8846 283.146 73.0352C285.804 73.7404 289.079 72.2929 290.273 69.9175C291.236 67.9875 291.236 66.3915 290.311 64.61C289.425 62.9027 288.539 62.1232 286.69 61.3809C285.149 60.7871 284.803 60.75 283.3 61.1582Z" fill="black"/>
<path fill-rule="evenodd" clip-rule="evenodd" d="M127.204 76.2864C126.859 76.6294 126.744 79.2588 126.744 85.7751C126.744 94.6923 126.744 94.8447 127.587 95.4163C128.774 96.2547 130.42 96.1785 131.339 95.2639C132.066 94.5398 132.105 94.0063 132.105 85.8895C132.105 80.7069 131.952 77.0104 131.722 76.5532C131.416 75.9815 130.918 75.8291 129.501 75.8291C128.467 75.8291 127.472 76.0196 127.204 76.2864Z" fill="black"/>
<path fill-rule="evenodd" clip-rule="evenodd" d="M138.18 76.5908C137.905 77.124 137.787 80.3611 137.866 86.1499C137.984 94.338 138.023 94.9854 138.731 95.4805C139.793 96.2041 141.877 96.166 142.545 95.4044C142.899 94.9854 143.175 93.3859 143.293 91.1008C143.411 89.0443 143.647 87.4448 143.882 87.4448C144.197 87.4829 146.281 90.0345 149.899 94.8331C150.45 95.5567 151 95.7471 152.455 95.8233C153.674 95.8233 154.5 95.6709 154.815 95.2901C155.444 94.5665 155.719 78.3807 155.13 76.8574C154.776 75.9434 154.54 75.8291 152.809 75.8291C151.787 75.8291 150.725 76.0195 150.45 76.2861C150.135 76.5908 149.978 78.1522 149.978 80.8562C149.978 83.2174 149.821 84.9693 149.585 84.9693C149.388 84.9693 147.776 82.9128 146.045 80.3992L142.821 75.8291H140.697C139.006 75.8291 138.534 75.9814 138.18 76.5908Z" fill="black"/>
<path fill-rule="evenodd" clip-rule="evenodd" d="M161.834 76.4388C161.285 76.9342 161.207 78.3442 161.207 85.9276C161.207 94.6923 161.207 94.8447 162.069 95.4163C163.285 96.2547 164.97 96.1785 165.911 95.2639C166.538 94.6542 166.695 94.0063 166.695 91.6437C166.695 88.8999 166.734 88.7856 167.479 89.1667C167.871 89.3953 169.204 90.9196 170.459 92.5583C172.419 95.2639 172.811 95.5687 174.222 95.7974C175.829 96.0641 177.672 95.3401 177.672 94.4636C177.672 94.2731 176.261 92.0629 174.536 89.5478L171.36 84.9749L172.693 82.9552C173.438 81.8882 174.536 80.5544 175.124 80.0209C175.712 79.4874 176.457 78.5728 176.77 78.0012C177.593 76.4388 176.927 75.8291 174.3 75.8291H172.223L169.753 78.8777C168.381 80.5544 167.166 81.9263 167.048 81.9263C166.891 81.9263 166.695 80.7069 166.617 79.2207C166.538 77.4296 166.303 76.4388 165.911 76.2102C164.97 75.6386 162.501 75.791 161.834 76.4388Z" fill="black"/>
<path fill-rule="evenodd" clip-rule="evenodd" d="M101.517 84.1587C100.421 85.242 100.421 85.5781 101.556 86.5867C102.417 87.3711 102.769 87.4085 110.673 87.4085C119.594 87.4085 120.611 87.1844 120.611 85.354C120.611 83.4116 120.102 83.2996 110.868 83.2996C102.495 83.2996 102.339 83.2996 101.517 84.1587Z" fill="black"/>
<path fill-rule="evenodd" clip-rule="evenodd" d="M180.778 83.8972C179.718 84.6069 179.679 85.6902 180.7 86.6614C181.446 87.3711 181.995 87.4085 189.688 87.4085H197.931L198.716 86.4373C199.736 85.2046 199.736 84.9805 198.755 84.0466C198.009 83.3369 197.46 83.2996 189.806 83.2996C183.055 83.2996 181.524 83.4116 180.778 83.8972Z" fill="black"/>
<path fill-rule="evenodd" clip-rule="evenodd" d="M166.261 23.2413C165.912 23.5831 165.796 28.8242 165.796 44.4716C165.796 62.8535 165.873 65.3221 166.416 65.8538C167.153 66.6134 173.128 66.7273 173.865 66.0057C174.214 65.6639 174.33 62.7015 174.33 55.0677C174.369 42.9144 174.098 43.0664 178.132 52.9789C181.74 61.828 183.176 64.9803 183.874 65.7399C184.417 66.3095 185.115 66.4615 187.521 66.4615C189.305 66.4615 190.663 66.2716 190.935 66.0057C191.672 65.2841 191.594 23.811 190.857 23.2033C190.508 22.8995 189.034 22.7855 186.706 22.8615L183.059 22.9754L182.865 34.1793L182.671 45.3831L179.49 37.5974C177.744 33.3057 175.843 28.5963 175.3 27.1531C173.632 22.7476 173.671 22.7855 169.947 22.7855C167.968 22.7855 166.533 22.9754 166.261 23.2413Z" fill="black"/>
</svg>
