<svg width="40" height="40" viewBox="0 0 40 40" fill="none" xmlns="http://www.w3.org/2000/svg">
<rect x="0.5" y="0.5" width="39" height="39" rx="19.5" stroke="#212131"/>
<path fill-rule="evenodd" clip-rule="evenodd" d="M15.6764 22.6666L16.4631 21.8786C16.7151 21.6266 16.8537 21.2919 16.8537 20.9359V17.8179C16.8537 16.9132 17.2471 16.0486 17.9337 15.4472C18.6257 14.8406 19.5071 14.5739 20.4251 14.6946C21.9764 14.9006 23.1464 16.3032 23.1464 17.9579V20.9359C23.1464 21.2919 23.2851 21.6266 23.5364 21.8779L24.3237 22.6666H15.6764ZM21.3331 24.2272C21.3331 24.8266 20.7224 25.3332 19.9997 25.3332C19.2771 25.3332 18.6664 24.8266 18.6664 24.2272V23.9999H21.3331V24.2272ZM25.6804 22.1386L24.4797 20.9359V17.9579C24.4797 15.6372 22.8117 13.6659 20.5997 13.3732C19.3184 13.2026 18.0251 13.5939 17.0551 14.4446C16.0791 15.2992 15.5204 16.5286 15.5204 17.8179L15.5197 20.9359L14.3191 22.1386C14.0064 22.4519 13.9137 22.9179 14.0831 23.3266C14.2531 23.7359 14.6484 23.9999 15.0911 23.9999H17.3331V24.2272C17.3331 25.5726 18.5291 26.6666 19.9997 26.6666C21.4704 26.6666 22.6664 25.5726 22.6664 24.2272V23.9999H24.9084C25.3511 23.9999 25.7457 23.7359 25.9151 23.3272C26.0851 22.9179 25.9931 22.4512 25.6804 22.1386Z" fill="#231F20"/>
<mask id="mask0_12505_110224" style="mask-type:luminance" maskUnits="userSpaceOnUse" x="13" y="13" width="13" height="14">
<path fill-rule="evenodd" clip-rule="evenodd" d="M15.6764 22.6666L16.4631 21.8786C16.7151 21.6266 16.8537 21.2919 16.8537 20.9359V17.8179C16.8537 16.9132 17.2471 16.0486 17.9337 15.4472C18.6257 14.8406 19.5071 14.5739 20.4251 14.6946C21.9764 14.9006 23.1464 16.3032 23.1464 17.9579V20.9359C23.1464 21.2919 23.2851 21.6266 23.5364 21.8779L24.3237 22.6666H15.6764ZM21.3331 24.2272C21.3331 24.8266 20.7224 25.3332 19.9997 25.3332C19.2771 25.3332 18.6664 24.8266 18.6664 24.2272V23.9999H21.3331V24.2272ZM25.6804 22.1386L24.4797 20.9359V17.9579C24.4797 15.6372 22.8117 13.6659 20.5997 13.3732C19.3184 13.2026 18.0251 13.5939 17.0551 14.4446C16.0791 15.2992 15.5204 16.5286 15.5204 17.8179L15.5197 20.9359L14.3191 22.1386C14.0064 22.4519 13.9137 22.9179 14.0831 23.3266C14.2531 23.7359 14.6484 23.9999 15.0911 23.9999H17.3331V24.2272C17.3331 25.5726 18.5291 26.6666 19.9997 26.6666C21.4704 26.6666 22.6664 25.5726 22.6664 24.2272V23.9999H24.9084C25.3511 23.9999 25.7457 23.7359 25.9151 23.3272C26.0851 22.9179 25.9931 22.4512 25.6804 22.1386Z" fill="white"/>
</mask>
<g mask="url(#mask0_12505_110224)">
<rect x="12" y="12" width="16" height="16" fill="#0D1C2E"/>
</g>
</svg>
