<svg width="9" height="11" viewBox="0 0 9 11" fill="none" xmlns="http://www.w3.org/2000/svg">
<path d="M6.2366 2.85555V1.83297C6.59276 1.69671 6.84574 1.35193 6.84574 0.947887C6.84571 0.424593 6.42149 0.000366211 5.89819 0.000366211H2.71713C2.19384 0.000366211 1.76958 0.424593 1.76958 0.947887C1.76958 1.35196 2.02257 1.69671 2.37873 1.83297V2.85555C1.09893 3.02057 0.109863 4.11356 0.109863 5.43829V8.35001C0.109863 9.78877 1.2762 10.955 2.71496 10.955H5.90034C7.33913 10.955 8.50543 9.7887 8.50543 8.35001V5.43829C8.50543 4.11356 7.5164 3.02057 6.2366 2.85555ZM5.81321 8.10772H2.80202C2.00211 8.10772 1.35362 7.45923 1.35362 6.65926C1.35362 5.85928 2.00211 5.2108 2.80205 5.2108H5.81324C6.61316 5.2108 7.26164 5.85928 7.26164 6.65926C7.26164 7.45923 6.61316 8.10772 5.81321 8.10772Z" fill="#6A6A75"/>
<path d="M2.50794 5.70612H2.49842C2.38216 5.70612 2.2876 5.80067 2.2876 5.91691V7.36431C2.2876 7.48054 2.38219 7.5751 2.49842 7.5751H2.50794C2.62417 7.5751 2.71873 7.48054 2.71873 7.36431V5.91691C2.71876 5.80067 2.6242 5.70612 2.50794 5.70612Z" fill="#6A6A75"/>
<path d="M4.35622 5.70605H4.34662C4.23041 5.70605 4.13589 5.80061 4.13589 5.91685V6.73971L3.44844 5.793C3.40886 5.73858 3.34508 5.70605 3.27792 5.70605H3.23917C3.12291 5.70605 3.02832 5.80061 3.02832 5.91685V7.36425C3.02832 7.48048 3.12291 7.57504 3.23917 7.57504H3.24863C3.36489 7.57504 3.45948 7.48048 3.45948 7.36425V6.54139L4.14683 7.48807C4.18638 7.54248 4.25019 7.57498 4.31745 7.57498H4.35619C4.47239 7.57498 4.56689 7.48042 4.56689 7.36422V5.91682C4.56698 5.80061 4.47243 5.70605 4.35622 5.70605Z" fill="#6A6A75"/>
<path d="M6.28318 7.23126L5.7486 6.57372L6.22454 6.06016C6.28147 5.99863 6.29661 5.90926 6.26312 5.83242C6.22954 5.75565 6.1537 5.70605 6.0699 5.70605H6.05541C5.9967 5.70605 5.9403 5.73078 5.90047 5.77394L5.30662 6.41747V5.91685C5.30662 5.80061 5.21206 5.70605 5.09583 5.70605H5.08628C4.97005 5.70605 4.87549 5.80061 4.87549 5.91685V7.36425C4.87549 7.48048 4.97005 7.57504 5.08628 7.57504H5.09583C5.21206 7.57504 5.30662 7.48048 5.30662 7.36425V7.05215L5.45227 6.89416L5.94101 7.49702C5.98122 7.54665 6.04095 7.5751 6.10485 7.5751H6.11968C6.20066 7.5751 6.27531 7.5279 6.31011 7.45489C6.34469 7.38169 6.33418 7.29394 6.28318 7.23126Z" fill="#6A6A75"/>
</svg>
