<svg width="10" height="11" viewBox="0 0 10 11" fill="none" xmlns="http://www.w3.org/2000/svg">
<rect x="0.212891" y="0.849731" width="9.70974" height="9.70974" rx="4.85487" fill="#43479B"/>
<path fill-rule="evenodd" clip-rule="evenodd" d="M4.48517 7.40374C4.40991 7.40374 4.33791 7.37146 4.28637 7.31453L2.96024 5.84784C2.85688 5.73399 2.86261 5.55473 2.97224 5.44768C3.08213 5.34063 3.25475 5.34629 3.35756 5.46014L4.48245 6.70367L6.7753 4.09766C6.87729 3.98183 7.04964 3.97418 7.1609 4.07953C7.27189 4.18488 7.27953 4.36415 7.17808 4.47941L4.68642 7.31142C4.63543 7.36976 4.56289 7.40318 4.48708 7.40374H4.48517Z" fill="white"/>
<mask id="mask0_4756_34503" style="mask-type:luminance" maskUnits="userSpaceOnUse" x="2" y="4" width="6" height="4">
<path fill-rule="evenodd" clip-rule="evenodd" d="M4.48517 7.40374C4.40991 7.40374 4.33791 7.37146 4.28637 7.31453L2.96024 5.84784C2.85688 5.73399 2.86261 5.55473 2.97224 5.44768C3.08213 5.34063 3.25475 5.34629 3.35756 5.46014L4.48245 6.70367L6.7753 4.09766C6.87729 3.98183 7.04964 3.97418 7.1609 4.07953C7.27189 4.18488 7.27953 4.36415 7.17808 4.47941L4.68642 7.31142C4.63543 7.36976 4.56289 7.40318 4.48708 7.40374H4.48517Z" fill="white"/>
</mask>
<g mask="url(#mask0_4756_34503)">
<rect x="1.79541" y="2.30615" width="6.54479" height="6.79682" fill="white"/>
</g>
</svg>
