<svg width="11" height="10" viewBox="0 0 11 10" fill="none" xmlns="http://www.w3.org/2000/svg">
<rect x="0.466797" y="0.163086" width="9.83959" height="9.83959" rx="4.91979" fill="#F28C99"/>
<path fill-rule="evenodd" clip-rule="evenodd" d="M4.79611 6.8049C4.71983 6.8049 4.64688 6.77219 4.59465 6.7145L3.25078 5.22819C3.14604 5.11282 3.15184 4.93116 3.26294 4.82268C3.3743 4.71419 3.54923 4.71993 3.65341 4.8353L4.79334 6.09547L7.11686 3.4546C7.22022 3.33723 7.39487 3.32948 7.50762 3.43624C7.62009 3.543 7.62783 3.72466 7.52503 3.84146L5.00005 6.71134C4.94837 6.77046 4.87486 6.80433 4.79804 6.8049H4.79611Z" fill="white"/>
<mask id="mask0_4756_34577" style="mask-type:luminance" maskUnits="userSpaceOnUse" x="3" y="3" width="5" height="4">
<path fill-rule="evenodd" clip-rule="evenodd" d="M4.79611 6.8049C4.71983 6.8049 4.64688 6.77219 4.59465 6.7145L3.25078 5.22819C3.14604 5.11282 3.15184 4.93116 3.26294 4.82268C3.3743 4.71419 3.54923 4.71993 3.65341 4.8353L4.79334 6.09547L7.11686 3.4546C7.22022 3.33723 7.39487 3.32948 7.50762 3.43624C7.62009 3.543 7.62783 3.72466 7.52503 3.84146L5.00005 6.71134C4.94837 6.77046 4.87486 6.80433 4.79804 6.8049H4.79611Z" fill="white"/>
</mask>
<g mask="url(#mask0_4756_34577)">
<rect x="2.07031" y="1.63904" width="6.63231" height="6.88771" fill="white"/>
</g>
</svg>
