<svg width="604" height="19" viewBox="0 0 604 19" fill="none" xmlns="http://www.w3.org/2000/svg">
<rect x="0.79089" y="0.79089" width="17.3996" height="17.3996" rx="8.69979" fill="#653EFF"/>
<rect x="0.79089" y="0.79089" width="17.3996" height="17.3996" rx="8.69979" stroke="#E7EBFF" stroke-width="1.58178"/>
<g clip-path="url(#clip0_5501_133895)">
<path d="M6.26074 9.49072L8.56751 11.7975L13.181 7.18396" stroke="#E7EBFF" stroke-width="1.03804" stroke-linecap="round" stroke-linejoin="round"/>
</g>
<path d="M18.9814 9.49066H52.9897" stroke="#653EFF" stroke-width="0.79089"/>
<rect x="53.7801" y="0.791012" width="17.3996" height="17.3996" rx="8.69979" fill="#653EFF"/>
<rect x="53.7801" y="0.791012" width="17.3996" height="17.3996" rx="8.69979" stroke="#E7EBFF" stroke-width="1.58178"/>
<g clip-path="url(#clip1_5501_133895)">
<path d="M59.25 9.49085L61.5568 11.7976L66.1703 7.18408" stroke="#E7EBFF" stroke-width="1.03804" stroke-linecap="round" stroke-linejoin="round"/>
</g>
<path d="M71.9712 9.49066H105.979" stroke="#653EFF" stroke-width="0.79089"/>
<rect x="106.77" y="0.79089" width="17.3996" height="17.3996" rx="8.69979" fill="#653EFF"/>
<rect x="106.77" y="0.79089" width="17.3996" height="17.3996" rx="8.69979" stroke="#E7EBFF" stroke-width="1.58178"/>
<g clip-path="url(#clip2_5501_133895)">
<path d="M112.24 9.49072L114.547 11.7975L119.161 7.18396" stroke="#E7EBFF" stroke-width="1.03804" stroke-linecap="round" stroke-linejoin="round"/>
</g>
<path d="M124.96 9.49066H158.969" stroke="#653EFF" stroke-width="0.79089"/>
<rect x="159.76" y="0.79089" width="17.3996" height="17.3996" rx="8.69979" fill="#653EFF"/>
<rect x="159.76" y="0.79089" width="17.3996" height="17.3996" rx="8.69979" stroke="#E7EBFF" stroke-width="1.58178"/>
<g clip-path="url(#clip3_5501_133895)">
<path d="M165.229 9.49072L167.536 11.7975L172.15 7.18396" stroke="#E7EBFF" stroke-width="1.03804" stroke-linecap="round" stroke-linejoin="round"/>
</g>
<path d="M177.95 9.49066H211.958" stroke="#653EFF" stroke-width="0.79089"/>
<rect x="212.749" y="0.79089" width="17.3996" height="17.3996" rx="8.69979" fill="#653EFF"/>
<rect x="212.749" y="0.79089" width="17.3996" height="17.3996" rx="8.69979" stroke="#E7EBFF" stroke-width="1.58178"/>
<g clip-path="url(#clip4_5501_133895)">
<path d="M218.219 9.49072L220.526 11.7975L225.14 7.18396" stroke="#E7EBFF" stroke-width="1.03804" stroke-linecap="round" stroke-linejoin="round"/>
</g>
<path d="M230.94 9.49066H264.948" stroke="#653EFF" stroke-width="0.79089"/>
<rect x="265.739" y="0.791012" width="17.3996" height="17.3996" rx="8.69979" fill="#653EFF"/>
<rect x="265.739" y="0.791012" width="17.3996" height="17.3996" rx="8.69979" stroke="#E7EBFF" stroke-width="1.58178"/>
<g clip-path="url(#clip5_5501_133895)">
<path d="M271.209 9.49085L273.516 11.7976L278.129 7.18408" stroke="#E7EBFF" stroke-width="1.03804" stroke-linecap="round" stroke-linejoin="round"/>
</g>
<path d="M283.93 9.49091H317.938" stroke="#653EFF" stroke-width="0.79089"/>
<rect x="318.729" y="0.79089" width="17.3996" height="17.3996" rx="8.69979" fill="#653EFF"/>
<rect x="318.729" y="0.79089" width="17.3996" height="17.3996" rx="8.69979" stroke="#E7EBFF" stroke-width="1.58178"/>
<g clip-path="url(#clip6_5501_133895)">
<path d="M324.199 9.49072L326.506 11.7975L331.12 7.18396" stroke="#E7EBFF" stroke-width="1.03804" stroke-linecap="round" stroke-linejoin="round"/>
</g>
<path d="M336.919 9.49091H370.928" stroke="#653EFF" stroke-width="0.79089"/>
<rect x="371.719" y="0.791012" width="17.3996" height="17.3996" rx="8.69979" fill="#653EFF"/>
<rect x="371.719" y="0.791012" width="17.3996" height="17.3996" rx="8.69979" stroke="#E7EBFF" stroke-width="1.58178"/>
<g clip-path="url(#clip7_5501_133895)">
<path d="M377.188 9.49085L379.495 11.7976L384.109 7.18408" stroke="#E7EBFF" stroke-width="1.03804" stroke-linecap="round" stroke-linejoin="round"/>
</g>
<path d="M389.909 9.49091H423.917" stroke="#653EFF" stroke-width="0.79089"/>
<rect x="424.708" y="0.791012" width="17.3996" height="17.3996" rx="8.69979" fill="#653EFF"/>
<rect x="424.708" y="0.791012" width="17.3996" height="17.3996" rx="8.69979" stroke="#E7EBFF" stroke-width="1.58178"/>
<g clip-path="url(#clip8_5501_133895)">
<path d="M430.178 9.49085L432.485 11.7976L437.099 7.18408" stroke="#E7EBFF" stroke-width="1.03804" stroke-linecap="round" stroke-linejoin="round"/>
</g>
<path d="M442.899 9.49091H476.907" stroke="#653EFF" stroke-width="0.79089"/>
<rect x="477.698" y="0.791012" width="17.3996" height="17.3996" rx="8.69979" fill="#653EFF"/>
<rect x="477.698" y="0.791012" width="17.3996" height="17.3996" rx="8.69979" stroke="#E7EBFF" stroke-width="1.58178"/>
<g clip-path="url(#clip9_5501_133895)">
<path d="M483.167 9.49078L485.474 11.7975L490.088 7.18402" stroke="#E7EBFF" stroke-width="1.03804" stroke-linecap="round" stroke-linejoin="round"/>
</g>
<path d="M495.888 9.49091H529.896" stroke="#653EFF" stroke-width="0.79089"/>
<rect x="530.687" y="0.79089" width="17.3996" height="17.3996" rx="8.69979" fill="#653EFF"/>
<rect x="530.687" y="0.79089" width="17.3996" height="17.3996" rx="8.69979" stroke="#E7EBFF" stroke-width="1.58178"/>
<g clip-path="url(#clip10_5501_133895)">
<path d="M536.157 9.49072L538.464 11.7975L543.077 7.18396" stroke="#E7EBFF" stroke-width="1.03804" stroke-linecap="round" stroke-linejoin="round"/>
</g>
<path d="M548.878 9.49066H591.878" stroke="#BABABF"/>
<rect x="592.878" y="4.49066" width="10" height="10" rx="5" fill="#BABABF"/>
<rect x="592.878" y="4.49066" width="10" height="10" rx="5" stroke="#E7EBFF" stroke-width="2"/>
<defs>
<clipPath id="clip0_5501_133895">
<rect width="11.0725" height="11.0725" fill="white" transform="translate(3.95459 3.95447)"/>
</clipPath>
<clipPath id="clip1_5501_133895">
<rect width="11.0725" height="11.0725" fill="white" transform="translate(56.9438 3.95459)"/>
</clipPath>
<clipPath id="clip2_5501_133895">
<rect width="11.0725" height="11.0725" fill="white" transform="translate(109.934 3.95447)"/>
</clipPath>
<clipPath id="clip3_5501_133895">
<rect width="11.0725" height="11.0725" fill="white" transform="translate(162.923 3.95447)"/>
</clipPath>
<clipPath id="clip4_5501_133895">
<rect width="11.0725" height="11.0725" fill="white" transform="translate(215.913 3.95447)"/>
</clipPath>
<clipPath id="clip5_5501_133895">
<rect width="11.0725" height="11.0725" fill="white" transform="translate(268.903 3.95459)"/>
</clipPath>
<clipPath id="clip6_5501_133895">
<rect width="11.0725" height="11.0725" fill="white" transform="translate(321.893 3.95447)"/>
</clipPath>
<clipPath id="clip7_5501_133895">
<rect width="11.0725" height="11.0725" fill="white" transform="translate(374.882 3.95459)"/>
</clipPath>
<clipPath id="clip8_5501_133895">
<rect width="11.0725" height="11.0725" fill="white" transform="translate(427.872 3.95459)"/>
</clipPath>
<clipPath id="clip9_5501_133895">
<rect width="11.0725" height="11.0725" fill="white" transform="translate(480.861 3.95453)"/>
</clipPath>
<clipPath id="clip10_5501_133895">
<rect width="11.0725" height="11.0725" fill="white" transform="translate(533.851 3.95447)"/>
</clipPath>
</defs>
</svg>
