<svg width="732" height="24" viewBox="0 0 732 24" fill="none" xmlns="http://www.w3.org/2000/svg">
<rect x="1" y="1" width="22" height="22" rx="11" fill="#653EFF"/>
<rect x="1" y="1" width="22" height="22" rx="11" stroke="#E7EBFF" stroke-width="2"/>
<g clip-path="url(#clip0_5501_133218)">
<path d="M7.91602 11.9999L10.8327 14.9166L16.666 9.08325" stroke="#E7EBFF" stroke-width="1.3125" stroke-linecap="round" stroke-linejoin="round"/>
</g>
<path d="M24 12H67" stroke="#653EFF"/>
<rect x="68" y="1" width="22" height="22" rx="11" fill="#653EFF"/>
<rect x="68" y="1" width="22" height="22" rx="11" stroke="#E7EBFF" stroke-width="2"/>
<g clip-path="url(#clip1_5501_133218)">
<path d="M74.916 11.9999L77.8327 14.9166L83.666 9.08325" stroke="#E7EBFF" stroke-width="1.3125" stroke-linecap="round" stroke-linejoin="round"/>
</g>
<path d="M91 12H134" stroke="#653EFF"/>
<rect x="135" y="1" width="22" height="22" rx="11" fill="#653EFF"/>
<rect x="135" y="1" width="22" height="22" rx="11" stroke="#E7EBFF" stroke-width="2"/>
<g clip-path="url(#clip2_5501_133218)">
<path d="M141.916 11.9999L144.833 14.9166L150.666 9.08325" stroke="#E7EBFF" stroke-width="1.3125" stroke-linecap="round" stroke-linejoin="round"/>
</g>
<path d="M158 12H201" stroke="#653EFF"/>
<rect x="202" y="1" width="22" height="22" rx="11" fill="#653EFF"/>
<rect x="202" y="1" width="22" height="22" rx="11" stroke="#E7EBFF" stroke-width="2"/>
<g clip-path="url(#clip3_5501_133218)">
<path d="M208.916 11.9999L211.833 14.9166L217.666 9.08325" stroke="#E7EBFF" stroke-width="1.3125" stroke-linecap="round" stroke-linejoin="round"/>
</g>
<path d="M225 12H268" stroke="#653EFF"/>
<rect x="269" y="1" width="22" height="22" rx="11" fill="#653EFF"/>
<rect x="269" y="1" width="22" height="22" rx="11" stroke="#E7EBFF" stroke-width="2"/>
<g clip-path="url(#clip4_5501_133218)">
<path d="M275.916 11.9999L278.833 14.9166L284.666 9.08325" stroke="#E7EBFF" stroke-width="1.3125" stroke-linecap="round" stroke-linejoin="round"/>
</g>
<path d="M292 12H335" stroke="#653EFF"/>
<rect x="336" y="7" width="10" height="10" rx="5" fill="#BABABF"/>
<rect x="336" y="7" width="10" height="10" rx="5" stroke="#E7EBFF" stroke-width="2"/>
<path d="M347 12H390" stroke="#BABABF"/>
<rect x="391" y="7" width="10" height="10" rx="5" fill="#BABABF"/>
<rect x="391" y="7" width="10" height="10" rx="5" stroke="#E7EBFF" stroke-width="2"/>
<path d="M402 12H445" stroke="#BABABF"/>
<rect x="446" y="7" width="10" height="10" rx="5" fill="#BABABF"/>
<rect x="446" y="7" width="10" height="10" rx="5" stroke="#E7EBFF" stroke-width="2"/>
<path d="M457 12H500" stroke="#BABABF"/>
<rect x="501" y="7" width="10" height="10" rx="5" fill="#BABABF"/>
<rect x="501" y="7" width="10" height="10" rx="5" stroke="#E7EBFF" stroke-width="2"/>
<path d="M512 12H555" stroke="#BABABF"/>
<rect x="556" y="7" width="10" height="10" rx="5" fill="#BABABF"/>
<rect x="556" y="7" width="10" height="10" rx="5" stroke="#E7EBFF" stroke-width="2"/>
<path d="M567 12H610" stroke="#BABABF"/>
<rect x="611" y="7" width="10" height="10" rx="5" fill="#BABABF"/>
<rect x="611" y="7" width="10" height="10" rx="5" stroke="#E7EBFF" stroke-width="2"/>
<path d="M622 12H665" stroke="#BABABF"/>
<rect x="666" y="7" width="10" height="10" rx="5" fill="#BABABF"/>
<rect x="666" y="7" width="10" height="10" rx="5" stroke="#E7EBFF" stroke-width="2"/>
<path d="M677 12H720" stroke="#BABABF"/>
<rect x="721" y="7" width="10" height="10" rx="5" fill="#BABABF"/>
<rect x="721" y="7" width="10" height="10" rx="5" stroke="#E7EBFF" stroke-width="2"/>
<defs>
<clipPath id="clip0_5501_133218">
<rect width="14" height="14" fill="white" transform="translate(5 5)"/>
</clipPath>
<clipPath id="clip1_5501_133218">
<rect width="14" height="14" fill="white" transform="translate(72 5)"/>
</clipPath>
<clipPath id="clip2_5501_133218">
<rect width="14" height="14" fill="white" transform="translate(139 5)"/>
</clipPath>
<clipPath id="clip3_5501_133218">
<rect width="14" height="14" fill="white" transform="translate(206 5)"/>
</clipPath>
<clipPath id="clip4_5501_133218">
<rect width="14" height="14" fill="white" transform="translate(273 5)"/>
</clipPath>
</defs>
</svg>
