<svg width="756" height="25" viewBox="0 0 756 25" fill="none" xmlns="http://www.w3.org/2000/svg">
<rect x="1" y="1.34387" width="22" height="22" rx="11" fill="#653EFF"/>
<rect x="1" y="1.34387" width="22" height="22" rx="11" stroke="#E7EBFF" stroke-width="2"/>
<g clip-path="url(#clip0_6888_5651)">
<path d="M7.91602 12.3438L10.8327 15.2605L16.666 9.42712" stroke="white" stroke-width="1.3125" stroke-linecap="round" stroke-linejoin="round"/>
</g>
<path d="M24 12.3439H67" stroke="#653EFF"/>
<rect x="68" y="1.34387" width="22" height="22" rx="11" fill="#653EFF"/>
<rect x="68" y="1.34387" width="22" height="22" rx="11" stroke="#E7EBFF" stroke-width="2"/>
<g clip-path="url(#clip1_6888_5651)">
<path d="M74.916 12.3438L77.8327 15.2605L83.666 9.42712" stroke="white" stroke-width="1.3125" stroke-linecap="round" stroke-linejoin="round"/>
</g>
<path d="M91 12.3439H134" stroke="#653EFF"/>
<rect x="135" y="1.34387" width="22" height="22" rx="11" fill="#653EFF"/>
<rect x="135" y="1.34387" width="22" height="22" rx="11" stroke="#E7EBFF" stroke-width="2"/>
<g clip-path="url(#clip2_6888_5651)">
<path d="M141.916 12.3438L144.833 15.2605L150.666 9.42712" stroke="white" stroke-width="1.3125" stroke-linecap="round" stroke-linejoin="round"/>
</g>
<path d="M158 12.3439H201" stroke="#653EFF"/>
<rect x="202" y="1.34387" width="22" height="22" rx="11" fill="#653EFF"/>
<rect x="202" y="1.34387" width="22" height="22" rx="11" stroke="#E7EBFF" stroke-width="2"/>
<g clip-path="url(#clip3_6888_5651)">
<path d="M208.916 12.3438L211.833 15.2605L217.666 9.42712" stroke="white" stroke-width="1.3125" stroke-linecap="round" stroke-linejoin="round"/>
</g>
<path d="M225 12.3439H268" stroke="#653EFF"/>
<rect x="269" y="1.34387" width="22" height="22" rx="11" fill="#653EFF"/>
<rect x="269" y="1.34387" width="22" height="22" rx="11" stroke="#E7EBFF" stroke-width="2"/>
<g clip-path="url(#clip4_6888_5651)">
<path d="M275.916 12.3438L278.833 15.2605L284.666 9.42712" stroke="white" stroke-width="1.3125" stroke-linecap="round" stroke-linejoin="round"/>
</g>
<path d="M292 12.3439H335" stroke="#653EFF"/>
<rect x="336" y="1.34387" width="22" height="22" rx="11" fill="#653EFF"/>
<rect x="336" y="1.34387" width="22" height="22" rx="11" stroke="#E7EBFF" stroke-width="2"/>
<g clip-path="url(#clip5_6888_5651)">
<path d="M342.916 12.3438L345.833 15.2605L351.666 9.42712" stroke="white" stroke-width="1.3125" stroke-linecap="round" stroke-linejoin="round"/>
</g>
<path d="M359 12.3439H402" stroke="#653EFF"/>
<rect x="403" y="1.34387" width="22" height="22" rx="11" fill="#653EFF"/>
<rect x="403" y="1.34387" width="22" height="22" rx="11" stroke="#E7EBFF" stroke-width="2"/>
<g clip-path="url(#clip6_6888_5651)">
<path d="M409.916 12.3438L412.833 15.2605L418.666 9.42712" stroke="white" stroke-width="1.3125" stroke-linecap="round" stroke-linejoin="round"/>
</g>
<path d="M426 12.3439H469" stroke="#653EFF"/>
<rect x="470" y="1.34387" width="22" height="22" rx="11" fill="#653EFF"/>
<rect x="470" y="1.34387" width="22" height="22" rx="11" stroke="#E7EBFF" stroke-width="2"/>
<g clip-path="url(#clip7_6888_5651)">
<path d="M476.916 12.3438L479.833 15.2605L485.666 9.42712" stroke="white" stroke-width="1.3125" stroke-linecap="round" stroke-linejoin="round"/>
</g>
<path d="M493 12.3439H536" stroke="#BABABF"/>
<rect x="537" y="7.34387" width="10" height="10" rx="5" fill="#BABABF"/>
<rect x="537" y="7.34387" width="10" height="10" rx="5" stroke="#E7EBFF" stroke-width="2"/>
<path d="M548 12.3439H591" stroke="#BABABF"/>
<rect x="592" y="7.34387" width="10" height="10" rx="5" fill="#BABABF"/>
<rect x="592" y="7.34387" width="10" height="10" rx="5" stroke="#E7EBFF" stroke-width="2"/>
<path d="M603 12.3439H646" stroke="#BABABF"/>
<rect x="647" y="7.34387" width="10" height="10" rx="5" fill="#BABABF"/>
<rect x="647" y="7.34387" width="10" height="10" rx="5" stroke="#E7EBFF" stroke-width="2"/>
<path d="M658 12.3439H701" stroke="#BABABF"/>
<rect x="702" y="7.34387" width="10" height="10" rx="5" fill="#BABABF"/>
<rect x="702" y="7.34387" width="10" height="10" rx="5" stroke="#E7EBFF" stroke-width="2"/>
<path d="M713 12.3439H756" stroke="#BABABF"/>
<defs>
<clipPath id="clip0_6888_5651">
<rect width="14" height="14" fill="white" transform="translate(5 5.34387)"/>
</clipPath>
<clipPath id="clip1_6888_5651">
<rect width="14" height="14" fill="white" transform="translate(72 5.34387)"/>
</clipPath>
<clipPath id="clip2_6888_5651">
<rect width="14" height="14" fill="white" transform="translate(139 5.34387)"/>
</clipPath>
<clipPath id="clip3_6888_5651">
<rect width="14" height="14" fill="white" transform="translate(206 5.34387)"/>
</clipPath>
<clipPath id="clip4_6888_5651">
<rect width="14" height="14" fill="white" transform="translate(273 5.34387)"/>
</clipPath>
<clipPath id="clip5_6888_5651">
<rect width="14" height="14" fill="white" transform="translate(340 5.34387)"/>
</clipPath>
<clipPath id="clip6_6888_5651">
<rect width="14" height="14" fill="white" transform="translate(407 5.34387)"/>
</clipPath>
<clipPath id="clip7_6888_5651">
<rect width="14" height="14" fill="white" transform="translate(474 5.34387)"/>
</clipPath>
</defs>
</svg>
