<svg width="780" height="25" viewBox="0 0 780 25" fill="none" xmlns="http://www.w3.org/2000/svg">
<rect x="1" y="1.64246" width="22" height="22" rx="11" fill="#653EFF"/>
<rect x="1" y="1.64246" width="22" height="22" rx="11" stroke="#E7EBFF" stroke-width="2"/>
<g clip-path="url(#clip0_5501_133805)">
<path d="M7.91602 12.6424L10.8327 15.559L16.666 9.72571" stroke="#E7EBFF" stroke-width="1.3125" stroke-linecap="round" stroke-linejoin="round"/>
</g>
<path d="M24 12.6425H67" stroke="#653EFF"/>
<rect x="68" y="1.64246" width="22" height="22" rx="11" fill="#653EFF"/>
<rect x="68" y="1.64246" width="22" height="22" rx="11" stroke="#E7EBFF" stroke-width="2"/>
<g clip-path="url(#clip1_5501_133805)">
<path d="M74.916 12.6424L77.8327 15.559L83.666 9.72571" stroke="#E7EBFF" stroke-width="1.3125" stroke-linecap="round" stroke-linejoin="round"/>
</g>
<path d="M91 12.6425H134" stroke="#653EFF"/>
<rect x="135" y="1.64246" width="22" height="22" rx="11" fill="#653EFF"/>
<rect x="135" y="1.64246" width="22" height="22" rx="11" stroke="#E7EBFF" stroke-width="2"/>
<g clip-path="url(#clip2_5501_133805)">
<path d="M141.916 12.6424L144.833 15.559L150.666 9.72571" stroke="#E7EBFF" stroke-width="1.3125" stroke-linecap="round" stroke-linejoin="round"/>
</g>
<path d="M158 12.6425H201" stroke="#653EFF"/>
<rect x="202" y="1.64246" width="22" height="22" rx="11" fill="#653EFF"/>
<rect x="202" y="1.64246" width="22" height="22" rx="11" stroke="#E7EBFF" stroke-width="2"/>
<g clip-path="url(#clip3_5501_133805)">
<path d="M208.916 12.6424L211.833 15.559L217.666 9.72571" stroke="#E7EBFF" stroke-width="1.3125" stroke-linecap="round" stroke-linejoin="round"/>
</g>
<path d="M225 12.6425H268" stroke="#653EFF"/>
<rect x="269" y="1.64246" width="22" height="22" rx="11" fill="#653EFF"/>
<rect x="269" y="1.64246" width="22" height="22" rx="11" stroke="#E7EBFF" stroke-width="2"/>
<g clip-path="url(#clip4_5501_133805)">
<path d="M275.916 12.6424L278.833 15.559L284.666 9.72571" stroke="#E7EBFF" stroke-width="1.3125" stroke-linecap="round" stroke-linejoin="round"/>
</g>
<path d="M292 12.6425H335" stroke="#653EFF"/>
<rect x="336" y="1.64246" width="22" height="22" rx="11" fill="#653EFF"/>
<rect x="336" y="1.64246" width="22" height="22" rx="11" stroke="#E7EBFF" stroke-width="2"/>
<g clip-path="url(#clip5_5501_133805)">
<path d="M342.916 12.6424L345.833 15.559L351.666 9.72571" stroke="#E7EBFF" stroke-width="1.3125" stroke-linecap="round" stroke-linejoin="round"/>
</g>
<path d="M359 12.6425H402" stroke="#653EFF"/>
<rect x="403" y="1.64246" width="22" height="22" rx="11" fill="#653EFF"/>
<rect x="403" y="1.64246" width="22" height="22" rx="11" stroke="#E7EBFF" stroke-width="2"/>
<g clip-path="url(#clip6_5501_133805)">
<path d="M409.916 12.6424L412.833 15.559L418.666 9.72571" stroke="#E7EBFF" stroke-width="1.3125" stroke-linecap="round" stroke-linejoin="round"/>
</g>
<path d="M426 12.6425H469" stroke="#653EFF"/>
<rect x="470" y="1.64246" width="22" height="22" rx="11" fill="#653EFF"/>
<rect x="470" y="1.64246" width="22" height="22" rx="11" stroke="#E7EBFF" stroke-width="2"/>
<g clip-path="url(#clip7_5501_133805)">
<path d="M476.916 12.6424L479.833 15.559L485.666 9.72571" stroke="#E7EBFF" stroke-width="1.3125" stroke-linecap="round" stroke-linejoin="round"/>
</g>
<path d="M493 12.6425H536" stroke="#653EFF"/>
<rect x="537" y="1.64246" width="22" height="22" rx="11" fill="#653EFF"/>
<rect x="537" y="1.64246" width="22" height="22" rx="11" stroke="#E7EBFF" stroke-width="2"/>
<g clip-path="url(#clip8_5501_133805)">
<path d="M543.916 12.6424L546.833 15.559L552.666 9.72571" stroke="#E7EBFF" stroke-width="1.3125" stroke-linecap="round" stroke-linejoin="round"/>
</g>
<path d="M560 12.6425H603" stroke="#653EFF"/>
<rect x="604" y="1.64246" width="22" height="22" rx="11" fill="#653EFF"/>
<rect x="604" y="1.64246" width="22" height="22" rx="11" stroke="#E7EBFF" stroke-width="2"/>
<g clip-path="url(#clip9_5501_133805)">
<path d="M610.916 12.6424L613.833 15.559L619.666 9.72571" stroke="#E7EBFF" stroke-width="1.3125" stroke-linecap="round" stroke-linejoin="round"/>
</g>
<path d="M627 12.6425H670" stroke="#653EFF"/>
<rect x="671" y="7.64246" width="10" height="10" rx="5" fill="#BABABF"/>
<rect x="671" y="7.64246" width="10" height="10" rx="5" stroke="#E7EBFF" stroke-width="2"/>
<path d="M682 12.6425H725" stroke="#BABABF"/>
<rect x="726" y="7.64246" width="10" height="10" rx="5" fill="#BABABF"/>
<rect x="726" y="7.64246" width="10" height="10" rx="5" stroke="#E7EBFF" stroke-width="2"/>
<path d="M737 12.6425H780" stroke="#BABABF"/>
<defs>
<clipPath id="clip0_5501_133805">
<rect width="14" height="14" fill="white" transform="translate(5 5.64246)"/>
</clipPath>
<clipPath id="clip1_5501_133805">
<rect width="14" height="14" fill="white" transform="translate(72 5.64246)"/>
</clipPath>
<clipPath id="clip2_5501_133805">
<rect width="14" height="14" fill="white" transform="translate(139 5.64246)"/>
</clipPath>
<clipPath id="clip3_5501_133805">
<rect width="14" height="14" fill="white" transform="translate(206 5.64246)"/>
</clipPath>
<clipPath id="clip4_5501_133805">
<rect width="14" height="14" fill="white" transform="translate(273 5.64246)"/>
</clipPath>
<clipPath id="clip5_5501_133805">
<rect width="14" height="14" fill="white" transform="translate(340 5.64246)"/>
</clipPath>
<clipPath id="clip6_5501_133805">
<rect width="14" height="14" fill="white" transform="translate(407 5.64246)"/>
</clipPath>
<clipPath id="clip7_5501_133805">
<rect width="14" height="14" fill="white" transform="translate(474 5.64246)"/>
</clipPath>
<clipPath id="clip8_5501_133805">
<rect width="14" height="14" fill="white" transform="translate(541 5.64246)"/>
</clipPath>
<clipPath id="clip9_5501_133805">
<rect width="14" height="14" fill="white" transform="translate(608 5.64246)"/>
</clipPath>
</defs>
</svg>
