<svg width="630" height="24" viewBox="0 0 630 24" fill="none" xmlns="http://www.w3.org/2000/svg">
<rect x="1.5" y="1" width="22" height="22" rx="11" fill="#653EFF"/>
<rect x="1.5" y="1" width="22" height="22" rx="11" stroke="#E7EBFF" stroke-width="2"/>
<g clip-path="url(#clip0_5501_128807)">
<path d="M8.41602 11.9997L11.3327 14.9163L17.166 9.08301" stroke="#E7EBFF" stroke-width="1.3125" stroke-linecap="round" stroke-linejoin="round"/>
</g>
<path d="M24.5 12H67.5" stroke="#653EFF"/>
<rect x="68.5" y="7" width="10" height="10" rx="5" fill="#BABABF"/>
<rect x="68.5" y="7" width="10" height="10" rx="5" stroke="#E7EBFF" stroke-width="2"/>
<path d="M79.5 12H122.5" stroke="#BABABF"/>
<rect x="123.5" y="7" width="10" height="10" rx="5" fill="#BABABF"/>
<rect x="123.5" y="7" width="10" height="10" rx="5" stroke="#E7EBFF" stroke-width="2"/>
<path d="M134.5 12H177.5" stroke="#BABABF"/>
<rect x="178.5" y="7" width="10" height="10" rx="5" fill="#BABABF"/>
<rect x="178.5" y="7" width="10" height="10" rx="5" stroke="#E7EBFF" stroke-width="2"/>
<path d="M189.5 12H232.5" stroke="#BABABF"/>
<rect x="233.5" y="7" width="10" height="10" rx="5" fill="#BABABF"/>
<rect x="233.5" y="7" width="10" height="10" rx="5" stroke="#E7EBFF" stroke-width="2"/>
<path d="M244.5 12H287.5" stroke="#BABABF"/>
<rect x="288.5" y="7" width="10" height="10" rx="5" fill="#BABABF"/>
<rect x="288.5" y="7" width="10" height="10" rx="5" stroke="#E7EBFF" stroke-width="2"/>
<path d="M299.5 12H342.5" stroke="#BABABF"/>
<rect x="343.5" y="7" width="10" height="10" rx="5" fill="#BABABF"/>
<rect x="343.5" y="7" width="10" height="10" rx="5" stroke="#E7EBFF" stroke-width="2"/>
<path d="M354.5 12H397.5" stroke="#BABABF"/>
<rect x="398.5" y="7" width="10" height="10" rx="5" fill="#BABABF"/>
<rect x="398.5" y="7" width="10" height="10" rx="5" stroke="#E7EBFF" stroke-width="2"/>
<path d="M409.5 12H452.5" stroke="#BABABF"/>
<rect x="453.5" y="7" width="10" height="10" rx="5" fill="#BABABF"/>
<rect x="453.5" y="7" width="10" height="10" rx="5" stroke="#E7EBFF" stroke-width="2"/>
<path d="M464.5 12H507.5" stroke="#BABABF"/>
<rect x="508.5" y="7" width="10" height="10" rx="5" fill="#BABABF"/>
<rect x="508.5" y="7" width="10" height="10" rx="5" stroke="#E7EBFF" stroke-width="2"/>
<path d="M519.5 12H562.5" stroke="#BABABF"/>
<rect x="563.5" y="7" width="10" height="10" rx="5" fill="#BABABF"/>
<rect x="563.5" y="7" width="10" height="10" rx="5" stroke="#E7EBFF" stroke-width="2"/>
<path d="M574.5 12H617.5" stroke="#BABABF"/>
<rect x="618.5" y="7" width="10" height="10" rx="5" fill="#BABABF"/>
<rect x="618.5" y="7" width="10" height="10" rx="5" stroke="#E7EBFF" stroke-width="2"/>
<defs>
<clipPath id="clip0_5501_128807">
<rect width="14" height="14" fill="white" transform="translate(5.5 5)"/>
</clipPath>
</defs>
</svg>
