<svg width="662" height="24" viewBox="0 0 662 24" fill="none" xmlns="http://www.w3.org/2000/svg">
<rect x="1" y="1" width="22" height="22" rx="11" fill="#653EFF"/>
<rect x="1" y="1" width="22" height="22" rx="11" stroke="#E7EBFF" stroke-width="2"/>
<g clip-path="url(#clip0_5501_133355)">
<path d="M7.91602 11.9999L10.8327 14.9166L16.666 9.08325" stroke="#E7EBFF" stroke-width="1.3125" stroke-linecap="round" stroke-linejoin="round"/>
</g>
<path d="M24 12H67" stroke="#653EFF"/>
<rect x="68" y="1" width="22" height="22" rx="11" fill="#653EFF"/>
<rect x="68" y="1" width="22" height="22" rx="11" stroke="#E7EBFF" stroke-width="2"/>
<g clip-path="url(#clip1_5501_133355)">
<path d="M74.916 11.9999L77.8327 14.9166L83.666 9.08325" stroke="#E7EBFF" stroke-width="1.3125" stroke-linecap="round" stroke-linejoin="round"/>
</g>
<path d="M91 12H134" stroke="#653EFF"/>
<rect x="135" y="1" width="22" height="22" rx="11" fill="#653EFF"/>
<rect x="135" y="1" width="22" height="22" rx="11" stroke="#E7EBFF" stroke-width="2"/>
<g clip-path="url(#clip2_5501_133355)">
<path d="M141.916 11.9999L144.833 14.9166L150.666 9.08325" stroke="#E7EBFF" stroke-width="1.3125" stroke-linecap="round" stroke-linejoin="round"/>
</g>
<path d="M158 12H201" stroke="#653EFF"/>
<rect x="202" y="1" width="22" height="22" rx="11" fill="#653EFF"/>
<rect x="202" y="1" width="22" height="22" rx="11" stroke="#E7EBFF" stroke-width="2"/>
<g clip-path="url(#clip3_5501_133355)">
<path d="M208.916 11.9999L211.833 14.9166L217.666 9.08325" stroke="#E7EBFF" stroke-width="1.3125" stroke-linecap="round" stroke-linejoin="round"/>
</g>
<path d="M225 12H268" stroke="#653EFF"/>
<rect x="269" y="1" width="22" height="22" rx="11" fill="#653EFF"/>
<rect x="269" y="1" width="22" height="22" rx="11" stroke="#E7EBFF" stroke-width="2"/>
<g clip-path="url(#clip4_5501_133355)">
<path d="M275.916 11.9999L278.833 14.9166L284.666 9.08325" stroke="#E7EBFF" stroke-width="1.3125" stroke-linecap="round" stroke-linejoin="round"/>
</g>
<path d="M292 12H335" stroke="#653EFF"/>
<rect x="336" y="1" width="22" height="22" rx="11" fill="#653EFF"/>
<rect x="336" y="1" width="22" height="22" rx="11" stroke="#E7EBFF" stroke-width="2"/>
<g clip-path="url(#clip5_5501_133355)">
<path d="M342.916 11.9999L345.833 14.9166L351.666 9.08325" stroke="#E7EBFF" stroke-width="1.3125" stroke-linecap="round" stroke-linejoin="round"/>
</g>
<path d="M359 12H402" stroke="#653EFF"/>
<rect x="403" y="1" width="22" height="22" rx="11" fill="#653EFF"/>
<rect x="403" y="1" width="22" height="22" rx="11" stroke="#E7EBFF" stroke-width="2"/>
<g clip-path="url(#clip6_5501_133355)">
<path d="M409.916 11.9999L412.833 14.9166L418.666 9.08325" stroke="#E7EBFF" stroke-width="1.3125" stroke-linecap="round" stroke-linejoin="round"/>
</g>
<path d="M426 12H469" stroke="#653EFF"/>
<rect x="470" y="7" width="10" height="10" rx="5" fill="#BABABF"/>
<rect x="470" y="7" width="10" height="10" rx="5" stroke="#E7EBFF" stroke-width="2"/>
<path d="M481 12H524" stroke="#BABABF"/>
<rect x="525" y="7" width="10" height="10" rx="5" fill="#BABABF"/>
<rect x="525" y="7" width="10" height="10" rx="5" stroke="#E7EBFF" stroke-width="2"/>
<path d="M536 12H579" stroke="#BABABF"/>
<rect x="580" y="7" width="10" height="10" rx="5" fill="#BABABF"/>
<rect x="580" y="7" width="10" height="10" rx="5" stroke="#E7EBFF" stroke-width="2"/>
<path d="M591 12H634" stroke="#BABABF"/>
<rect x="635" y="7" width="10" height="10" rx="5" fill="#BABABF"/>
<rect x="635" y="7" width="10" height="10" rx="5" stroke="#E7EBFF" stroke-width="2"/>
<path d="M618.5 12H661.5" stroke="#BABABF"/>
<rect x="647" y="7" width="10" height="10" rx="5" fill="#BABABF"/>
<rect x="647" y="7" width="10" height="10" rx="5" stroke="#E7EBFF" stroke-width="2"/>
<defs>
<clipPath id="clip0_5501_133355">
<rect width="14" height="14" fill="white" transform="translate(5 5)"/>
</clipPath>
<clipPath id="clip1_5501_133355">
<rect width="14" height="14" fill="white" transform="translate(72 5)"/>
</clipPath>
<clipPath id="clip2_5501_133355">
<rect width="14" height="14" fill="white" transform="translate(139 5)"/>
</clipPath>
<clipPath id="clip3_5501_133355">
<rect width="14" height="14" fill="white" transform="translate(206 5)"/>
</clipPath>
<clipPath id="clip4_5501_133355">
<rect width="14" height="14" fill="white" transform="translate(273 5)"/>
</clipPath>
<clipPath id="clip5_5501_133355">
<rect width="14" height="14" fill="white" transform="translate(340 5)"/>
</clipPath>
<clipPath id="clip6_5501_133355">
<rect width="14" height="14" fill="white" transform="translate(407 5)"/>
</clipPath>
</defs>
</svg>
