<svg width="665" height="24" viewBox="0 0 665 24" fill="none" xmlns="http://www.w3.org/2000/svg">
<rect x="1" y="1" width="22" height="22" rx="11" fill="#653EFF"/>
<rect x="1" y="1" width="22" height="22" rx="11" stroke="#E7EBFF" stroke-width="2"/>
<g clip-path="url(#clip0_5501_133155)">
<path d="M7.91602 11.9999L10.8327 14.9166L16.666 9.08325" stroke="#E7EBFF" stroke-width="1.3125" stroke-linecap="round" stroke-linejoin="round"/>
</g>
<path d="M24 12H67" stroke="#653EFF"/>
<rect x="68" y="1" width="22" height="22" rx="11" fill="#653EFF"/>
<rect x="68" y="1" width="22" height="22" rx="11" stroke="#E7EBFF" stroke-width="2"/>
<g clip-path="url(#clip1_5501_133155)">
<path d="M74.916 11.9999L77.8327 14.9166L83.666 9.08325" stroke="#E7EBFF" stroke-width="1.3125" stroke-linecap="round" stroke-linejoin="round"/>
</g>
<path d="M91 12H134" stroke="#653EFF"/>
<rect x="135" y="1" width="22" height="22" rx="11" fill="#653EFF"/>
<rect x="135" y="1" width="22" height="22" rx="11" stroke="#E7EBFF" stroke-width="2"/>
<g clip-path="url(#clip2_5501_133155)">
<path d="M141.916 11.9999L144.833 14.9166L150.666 9.08325" stroke="#E7EBFF" stroke-width="1.3125" stroke-linecap="round" stroke-linejoin="round"/>
</g>
<path d="M158 12H201" stroke="#653EFF"/>
<rect x="202" y="1" width="22" height="22" rx="11" fill="#653EFF"/>
<rect x="202" y="1" width="22" height="22" rx="11" stroke="#E7EBFF" stroke-width="2"/>
<g clip-path="url(#clip3_5501_133155)">
<path d="M208.916 11.9999L211.833 14.9166L217.666 9.08325" stroke="#E7EBFF" stroke-width="1.3125" stroke-linecap="round" stroke-linejoin="round"/>
</g>
<path d="M225 12H268" stroke="#653EFF"/>
<rect x="269" y="7" width="10" height="10" rx="5" fill="#BABABF"/>
<rect x="269" y="7" width="10" height="10" rx="5" stroke="#E7EBFF" stroke-width="2"/>
<path d="M280 12H323" stroke="#BABABF"/>
<rect x="324" y="7" width="10" height="10" rx="5" fill="#BABABF"/>
<rect x="324" y="7" width="10" height="10" rx="5" stroke="#E7EBFF" stroke-width="2"/>
<path d="M335 12H378" stroke="#BABABF"/>
<rect x="379" y="7" width="10" height="10" rx="5" fill="#BABABF"/>
<rect x="379" y="7" width="10" height="10" rx="5" stroke="#E7EBFF" stroke-width="2"/>
<path d="M390 12H433" stroke="#BABABF"/>
<rect x="434" y="7" width="10" height="10" rx="5" fill="#BABABF"/>
<rect x="434" y="7" width="10" height="10" rx="5" stroke="#E7EBFF" stroke-width="2"/>
<path d="M445 12H488" stroke="#BABABF"/>
<rect x="489" y="7" width="10" height="10" rx="5" fill="#BABABF"/>
<rect x="489" y="7" width="10" height="10" rx="5" stroke="#E7EBFF" stroke-width="2"/>
<path d="M500 12H543" stroke="#BABABF"/>
<rect x="544" y="7" width="10" height="10" rx="5" fill="#BABABF"/>
<rect x="544" y="7" width="10" height="10" rx="5" stroke="#E7EBFF" stroke-width="2"/>
<path d="M555 12H598" stroke="#BABABF"/>
<rect x="599" y="7" width="10" height="10" rx="5" fill="#BABABF"/>
<rect x="599" y="7" width="10" height="10" rx="5" stroke="#E7EBFF" stroke-width="2"/>
<path d="M610 12H653" stroke="#BABABF"/>
<rect x="654" y="7" width="10" height="10" rx="5" fill="#BABABF"/>
<rect x="654" y="7" width="10" height="10" rx="5" stroke="#E7EBFF" stroke-width="2"/>
<defs>
<clipPath id="clip0_5501_133155">
<rect width="14" height="14" fill="white" transform="translate(5 5)"/>
</clipPath>
<clipPath id="clip1_5501_133155">
<rect width="14" height="14" fill="white" transform="translate(72 5)"/>
</clipPath>
<clipPath id="clip2_5501_133155">
<rect width="14" height="14" fill="white" transform="translate(139 5)"/>
</clipPath>
<clipPath id="clip3_5501_133155">
<rect width="14" height="14" fill="white" transform="translate(206 5)"/>
</clipPath>
</defs>
</svg>
