<svg width="11" height="12" viewBox="0 0 11 12" fill="none" xmlns="http://www.w3.org/2000/svg">
<g clip-path="url(#clip0_6890_102263)">
<path d="M7.40505 3.3782V2.35561C7.76121 2.21936 8.0142 1.87458 8.0142 1.47053C8.01417 0.947237 7.58994 0.52301 7.06665 0.52301H3.88559C3.36229 0.52301 2.93804 0.947237 2.93804 1.47053C2.93804 1.87461 3.19102 2.21936 3.54718 2.35561V3.3782C2.26738 3.54322 1.27832 4.6362 1.27832 5.96093V8.87265C1.27832 10.3114 2.44466 11.4777 3.88341 11.4777H7.0688C8.50758 11.4777 9.67389 10.3113 9.67389 8.87265V5.96093C9.67389 4.6362 8.68485 3.54322 7.40505 3.3782ZM6.98167 8.63036H3.97048C3.17056 8.63036 2.52208 7.98188 2.52208 7.1819C2.52208 6.38193 3.17056 5.73344 3.97051 5.73344H6.9817C7.78161 5.73344 8.43009 6.38193 8.43009 7.1819C8.43009 7.98188 7.78161 8.63036 6.98167 8.63036Z" fill="white"/>
<path d="M3.67639 6.22876H3.66688C3.55061 6.22876 3.45605 6.32332 3.45605 6.43955V7.88695C3.45605 8.00318 3.55065 8.09774 3.66688 8.09774H3.67639C3.79262 8.09774 3.88718 8.00318 3.88718 7.88695V6.43955C3.88722 6.32332 3.79266 6.22876 3.67639 6.22876Z" fill="white"/>
<path d="M5.52468 6.2287H5.51507C5.39887 6.2287 5.30434 6.32326 5.30434 6.43949V7.26235L4.6169 6.31564C4.57732 6.26122 4.51354 6.2287 4.44638 6.2287H4.40763C4.29137 6.2287 4.19678 6.32326 4.19678 6.43949V7.88689C4.19678 8.00312 4.29137 8.09768 4.40763 8.09768H4.41708C4.53335 8.09768 4.62794 8.00312 4.62794 7.88689V7.06403L5.31529 8.01071C5.35484 8.06513 5.41865 8.09762 5.48591 8.09762H5.52465C5.64085 8.09762 5.73535 8.00306 5.73535 7.88686V6.43946C5.73544 6.32326 5.64088 6.2287 5.52468 6.2287Z" fill="white"/>
<path d="M7.45164 7.7539L6.91706 7.09637L7.39299 6.58281C7.44993 6.52127 7.46507 6.4319 7.43158 6.35507C7.398 6.2783 7.32216 6.2287 7.23836 6.2287H7.22387C7.16516 6.2287 7.10876 6.25342 7.06892 6.29658L6.47508 6.94012V6.43949C6.47508 6.32326 6.38052 6.2287 6.26428 6.2287H6.25474C6.1385 6.2287 6.04395 6.32326 6.04395 6.43949V7.88689C6.04395 8.00312 6.1385 8.09768 6.25474 8.09768H6.26428C6.38052 8.09768 6.47508 8.00312 6.47508 7.88689V7.57479L6.62072 7.4168L7.10947 8.01967C7.14968 8.06929 7.20941 8.09775 7.27331 8.09775H7.28814C7.36911 8.09775 7.44377 8.05054 7.47857 7.97753C7.51314 7.90434 7.50263 7.81659 7.45164 7.7539Z" fill="white"/>
</g>
<defs>
<clipPath id="clip0_6890_102263">
<rect width="10.9547" height="10.9547" fill="white" transform="translate(0 0.522644)"/>
</clipPath>
</defs>
</svg>
