<svg width="160" height="28" viewBox="0 0 160 28" fill="none" xmlns="http://www.w3.org/2000/svg">
<rect x="0.5" y="0.5" width="159" height="27" rx="13.5" fill="#CCCCCC"/>
<circle cx="14" cy="14" r="10.5" fill="white"/>
<path d="M36.4124 16.33H32.1564L31.3724 18.5H30.0284L33.5564 8.798H35.0264L38.5404 18.5H37.1964L36.4124 16.33ZM36.0484 15.294L34.2844 10.366L32.5204 15.294H36.0484ZM40.736 9.582C40.4933 9.582 40.288 9.498 40.12 9.33C39.952 9.162 39.868 8.95667 39.868 8.714C39.868 8.47133 39.952 8.266 40.12 8.098C40.288 7.93 40.4933 7.846 40.736 7.846C40.9693 7.846 41.1653 7.93 41.324 8.098C41.492 8.266 41.576 8.47133 41.576 8.714C41.576 8.95667 41.492 9.162 41.324 9.33C41.1653 9.498 40.9693 9.582 40.736 9.582ZM41.352 10.828V18.5H40.078V10.828H41.352ZM46.7797 13.614C46.7797 12.662 46.9944 11.808 47.4237 11.052C47.8531 10.2867 48.4364 9.68933 49.1737 9.26C49.9204 8.83067 50.7464 8.616 51.6517 8.616C52.7157 8.616 53.6444 8.87267 54.4377 9.386C55.2311 9.89933 55.8097 10.6273 56.1737 11.57H54.6477C54.3771 10.982 53.9851 10.5293 53.4717 10.212C52.9677 9.89467 52.3611 9.736 51.6517 9.736C50.9704 9.736 50.3591 9.89467 49.8177 10.212C49.2764 10.5293 48.8517 10.982 48.5437 11.57C48.2357 12.1487 48.0817 12.83 48.0817 13.614C48.0817 14.3887 48.2357 15.07 48.5437 15.658C48.8517 16.2367 49.2764 16.6847 49.8177 17.002C50.3591 17.3193 50.9704 17.478 51.6517 17.478C52.3611 17.478 52.9677 17.324 53.4717 17.016C53.9851 16.6987 54.3771 16.246 54.6477 15.658H56.1737C55.8097 16.5913 55.2311 17.3147 54.4377 17.828C53.6444 18.332 52.7157 18.584 51.6517 18.584C50.7464 18.584 49.9204 18.374 49.1737 17.954C48.4364 17.5247 47.8531 16.932 47.4237 16.176C46.9944 15.42 46.7797 14.566 46.7797 13.614ZM61.4162 18.626C60.6975 18.626 60.0442 18.4627 59.4562 18.136C58.8775 17.8093 58.4202 17.3473 58.0842 16.75C57.7575 16.1433 57.5942 15.4433 57.5942 14.65C57.5942 13.866 57.7622 13.1753 58.0982 12.578C58.4435 11.9713 58.9102 11.5093 59.4982 11.192C60.0862 10.8653 60.7442 10.702 61.4722 10.702C62.2002 10.702 62.8582 10.8653 63.4462 11.192C64.0342 11.5093 64.4962 11.9667 64.8322 12.564C65.1775 13.1613 65.3502 13.8567 65.3502 14.65C65.3502 15.4433 65.1729 16.1433 64.8182 16.75C64.4729 17.3473 64.0015 17.8093 63.4042 18.136C62.8069 18.4627 62.1442 18.626 61.4162 18.626ZM61.4162 17.506C61.8735 17.506 62.3029 17.3987 62.7042 17.184C63.1055 16.9693 63.4275 16.6473 63.6702 16.218C63.9222 15.7887 64.0482 15.266 64.0482 14.65C64.0482 14.034 63.9269 13.5113 63.6842 13.082C63.4415 12.6527 63.1242 12.3353 62.7322 12.13C62.3402 11.9153 61.9155 11.808 61.4582 11.808C60.9915 11.808 60.5622 11.9153 60.1702 12.13C59.7875 12.3353 59.4795 12.6527 59.2462 13.082C59.0129 13.5113 58.8962 14.034 58.8962 14.65C58.8962 15.2753 59.0082 15.8027 59.2322 16.232C59.4655 16.6613 59.7735 16.9833 60.1562 17.198C60.5389 17.4033 60.9589 17.506 61.4162 17.506ZM72.3453 12.83V13.908H66.7593V12.83H72.3453ZM87.0002 8.742L84.1722 18.5H82.7442L80.4762 10.646L78.1242 18.5L76.7102 18.514L73.9802 8.742H75.3382L77.4662 17.016L79.8182 8.742H81.2462L83.4862 16.988L85.6282 8.742H87.0002ZM89.6684 12.074C89.8924 11.6353 90.2097 11.2947 90.6204 11.052C91.0404 10.8093 91.5491 10.688 92.1464 10.688V12.004H91.8104C90.3824 12.004 89.6684 12.7787 89.6684 14.328V18.5H88.3944V10.828H89.6684V12.074ZM94.2751 9.582C94.0324 9.582 93.8271 9.498 93.6591 9.33C93.4911 9.162 93.4071 8.95667 93.4071 8.714C93.4071 8.47133 93.4911 8.266 93.6591 8.098C93.8271 7.93 94.0324 7.846 94.2751 7.846C94.5084 7.846 94.7044 7.93 94.8631 8.098C95.0311 8.266 95.1151 8.47133 95.1151 8.714C95.1151 8.95667 95.0311 9.162 94.8631 9.33C94.7044 9.498 94.5084 9.582 94.2751 9.582ZM94.8911 10.828V18.5H93.6171V10.828H94.8911ZM98.6164 11.878V16.4C98.6164 16.7733 98.6957 17.0393 98.8544 17.198C99.013 17.3473 99.2884 17.422 99.6804 17.422H100.618V18.5H99.4704C98.761 18.5 98.229 18.3367 97.8744 18.01C97.5197 17.6833 97.3424 17.1467 97.3424 16.4V11.878H96.3484V10.828H97.3424V8.896H98.6164V10.828H100.618V11.878H98.6164ZM109.162 14.37C109.162 14.6127 109.148 14.8693 109.12 15.14H102.988C103.035 15.896 103.291 16.4887 103.758 16.918C104.234 17.338 104.808 17.548 105.48 17.548C106.031 17.548 106.488 17.422 106.852 17.17C107.225 16.9087 107.487 16.5633 107.636 16.134H109.008C108.803 16.8713 108.392 17.4733 107.776 17.94C107.16 18.3973 106.395 18.626 105.48 18.626C104.752 18.626 104.099 18.4627 103.52 18.136C102.951 17.8093 102.503 17.3473 102.176 16.75C101.849 16.1433 101.686 15.4433 101.686 14.65C101.686 13.8567 101.845 13.1613 102.162 12.564C102.479 11.9667 102.923 11.5093 103.492 11.192C104.071 10.8653 104.733 10.702 105.48 10.702C106.208 10.702 106.852 10.8607 107.412 11.178C107.972 11.4953 108.401 11.934 108.7 12.494C109.008 13.0447 109.162 13.67 109.162 14.37ZM107.846 14.104C107.846 13.6187 107.739 13.2033 107.524 12.858C107.309 12.5033 107.015 12.2373 106.642 12.06C106.278 11.8733 105.872 11.78 105.424 11.78C104.78 11.78 104.229 11.9853 103.772 12.396C103.324 12.8067 103.067 13.376 103.002 14.104H107.846ZM112.118 12.074C112.342 11.6353 112.659 11.2947 113.07 11.052C113.49 10.8093 113.998 10.688 114.596 10.688V12.004H114.26C112.832 12.004 112.118 12.7787 112.118 14.328V18.5H110.844V10.828H112.118V12.074ZM120.457 9.582C120.214 9.582 120.009 9.498 119.841 9.33C119.673 9.162 119.589 8.95667 119.589 8.714C119.589 8.47133 119.673 8.266 119.841 8.098C120.009 7.93 120.214 7.846 120.457 7.846C120.69 7.846 120.886 7.93 121.045 8.098C121.213 8.266 121.297 8.47133 121.297 8.714C121.297 8.95667 121.213 9.162 121.045 9.33C120.886 9.498 120.69 9.582 120.457 9.582ZM121.073 10.828V18.5H119.799V10.828H121.073ZM125.96 18.626C125.372 18.626 124.845 18.528 124.378 18.332C123.911 18.1267 123.543 17.8467 123.272 17.492C123.001 17.128 122.852 16.7127 122.824 16.246H124.14C124.177 16.6287 124.355 16.9413 124.672 17.184C124.999 17.4267 125.423 17.548 125.946 17.548C126.431 17.548 126.814 17.4407 127.094 17.226C127.374 17.0113 127.514 16.7407 127.514 16.414C127.514 16.078 127.365 15.8307 127.066 15.672C126.767 15.504 126.305 15.3407 125.68 15.182C125.111 15.0327 124.644 14.8833 124.28 14.734C123.925 14.5753 123.617 14.3467 123.356 14.048C123.104 13.74 122.978 13.3387 122.978 12.844C122.978 12.452 123.095 12.0927 123.328 11.766C123.561 11.4393 123.893 11.1827 124.322 10.996C124.751 10.8 125.241 10.702 125.792 10.702C126.641 10.702 127.327 10.9167 127.85 11.346C128.373 11.7753 128.653 12.3633 128.69 13.11H127.416C127.388 12.7087 127.225 12.3867 126.926 12.144C126.637 11.9013 126.245 11.78 125.75 11.78C125.293 11.78 124.929 11.878 124.658 12.074C124.387 12.27 124.252 12.5267 124.252 12.844C124.252 13.096 124.331 13.306 124.49 13.474C124.658 13.6327 124.863 13.7633 125.106 13.866C125.358 13.9593 125.703 14.0667 126.142 14.188C126.693 14.3373 127.141 14.4867 127.486 14.636C127.831 14.776 128.125 14.9907 128.368 15.28C128.62 15.5693 128.751 15.9473 128.76 16.414C128.76 16.834 128.643 17.212 128.41 17.548C128.177 17.884 127.845 18.15 127.416 18.346C126.996 18.5327 126.511 18.626 125.96 18.626ZM138.715 18.598C137.81 18.598 136.984 18.388 136.237 17.968C135.49 17.5387 134.898 16.946 134.459 16.19C134.03 15.4247 133.815 14.566 133.815 13.614C133.815 12.662 134.03 11.808 134.459 11.052C134.898 10.2867 135.49 9.694 136.237 9.274C136.984 8.84467 137.81 8.63 138.715 8.63C139.63 8.63 140.46 8.84467 141.207 9.274C141.954 9.694 142.542 10.282 142.971 11.038C143.4 11.794 143.615 12.6527 143.615 13.614C143.615 14.5753 143.4 15.434 142.971 16.19C142.542 16.946 141.954 17.5387 141.207 17.968C140.46 18.388 139.63 18.598 138.715 18.598ZM138.715 17.492C139.396 17.492 140.008 17.3333 140.549 17.016C141.1 16.6987 141.529 16.246 141.837 15.658C142.154 15.07 142.313 14.3887 142.313 13.614C142.313 12.83 142.154 12.1487 141.837 11.57C141.529 10.982 141.104 10.5293 140.563 10.212C140.022 9.89467 139.406 9.736 138.715 9.736C138.024 9.736 137.408 9.89467 136.867 10.212C136.326 10.5293 135.896 10.982 135.579 11.57C135.271 12.1487 135.117 12.83 135.117 13.614C135.117 14.3887 135.271 15.07 135.579 15.658C135.896 16.246 136.326 16.6987 136.867 17.016C137.418 17.3333 138.034 17.492 138.715 17.492ZM148.419 11.878H146.809V18.5H145.535V11.878H144.541V10.828H145.535V10.282C145.535 9.42333 145.754 8.798 146.193 8.406C146.641 8.00467 147.355 7.804 148.335 7.804V8.868C147.775 8.868 147.378 8.98 147.145 9.204C146.921 9.41867 146.809 9.778 146.809 10.282V10.828H148.419V11.878ZM153.026 11.878H151.416V18.5H150.142V11.878H149.148V10.828H150.142V10.282C150.142 9.42333 150.362 8.798 150.8 8.406C151.248 8.00467 151.962 7.804 152.942 7.804V8.868C152.382 8.868 151.986 8.98 151.752 9.204C151.528 9.41867 151.416 9.778 151.416 10.282V10.828H153.026V11.878Z" fill="url(#paint0_linear_778_28666)"/>
<defs>
<linearGradient id="paint0_linear_778_28666" x1="91.5" y1="3.5" x2="91.5" y2="24.5" gradientUnits="userSpaceOnUse">
<stop/>
<stop offset="1" stop-color="#424D53"/>
</linearGradient>
</defs>
</svg>
