<svg width="22" height="22" viewBox="0 0 22 22" fill="none" xmlns="http://www.w3.org/2000/svg">
<path d="M21.1829 10.836L12.1267 1.78443L11.5196 1.1774C11.3813 1.04 11.1943 0.962891 10.9993 0.962891C10.8044 0.962891 10.6173 1.04 10.479 1.1774L0.815722 10.836C0.673998 10.9772 0.561991 11.1453 0.486313 11.3305C0.410635 11.5156 0.372819 11.7141 0.375097 11.9141C0.384472 12.7391 1.07119 13.3977 1.89619 13.3977H2.89228V21.0313H19.1063V13.3977H20.1235C20.5243 13.3977 20.9017 13.2407 21.1853 12.9571C21.3249 12.8179 21.4355 12.6524 21.5108 12.4701C21.586 12.2879 21.6243 12.0925 21.6235 11.8954C21.6235 11.4969 21.4665 11.1196 21.1829 10.836ZM12.3118 19.3438H9.68682V14.5626H12.3118V19.3438ZM17.4188 11.7102V19.3438H13.8118V14.0001C13.8118 13.4821 13.3923 13.0626 12.8743 13.0626H9.12432C8.60635 13.0626 8.18682 13.4821 8.18682 14.0001V19.3438H4.57978V11.7102H2.32978L11.0017 3.04537L11.5431 3.58678L19.6712 11.7102H17.4188Z" fill="#5F5F5F"/>
</svg>
