<svg width="24" height="24" viewBox="0 0 24 24" fill="none" xmlns="http://www.w3.org/2000/svg">
<path d="M12.9994 3C16.8794 3 19.9994 6.14 19.9994 10C19.9994 12.8 18.3694 15.19 15.9994 16.31V21H8.99943V18H7.99943C6.88943 18 5.99943 17.11 5.99943 16V13H4.49943C4.07943 13 3.83943 12.5 4.07943 12.19L5.99943 9.66C6.08754 7.86329 6.86366 6.16939 8.1669 4.92945C9.47015 3.6895 11.2006 2.99861 12.9994 3ZM12.9994 1C8.40943 1 4.60943 4.42 4.05943 8.9L2.49943 11H2.46943L2.44943 11.03C1.89943 11.79 1.82943 12.79 2.25943 13.62C2.61943 14.31 3.25943 14.79 3.99943 14.94V16C3.99943 17.85 5.27943 19.42 6.99943 19.87V23H17.9994V17.5C20.4994 15.83 21.9994 13.06 21.9994 10C21.9994 5.03 17.9594 1 12.9994 1ZM17.3294 9.3L15.3694 9.81L16.8094 11.27C17.1594 11.61 17.1594 12.19 16.8094 12.54C16.4594 12.89 15.8794 12.89 15.5394 12.54L14.0894 11.1L13.5694 13.06C13.4494 13.55 12.9594 13.82 12.4994 13.7C12.383 13.6708 12.2735 13.6189 12.1772 13.5472C12.0809 13.4756 11.9998 13.3855 11.9384 13.2824C11.8771 13.1792 11.8367 13.0649 11.8197 12.9461C11.8028 12.8272 11.8095 12.7062 11.8394 12.59L12.3694 10.63L10.4094 11.16C10.2932 11.19 10.1722 11.1967 10.0534 11.1797C9.93453 11.1627 9.82024 11.1224 9.71707 11.061C9.61389 10.9997 9.52388 10.9185 9.4522 10.8222C9.38052 10.7259 9.3286 10.6164 9.29943 10.5C9.17943 10.05 9.45943 9.55 9.93943 9.43L11.8994 8.91L10.4594 7.46C10.309 7.28817 10.2295 7.06558 10.2371 6.83732C10.2446 6.60907 10.3387 6.39222 10.5002 6.23073C10.6617 6.06925 10.8785 5.97519 11.1068 5.96762C11.335 5.96006 11.5576 6.03956 11.7294 6.19L13.1894 7.63L13.6994 5.67C13.8194 5.18 14.3194 4.9 14.7894 5.03C15.2794 5.16 15.5594 5.65 15.4294 6.13L14.8994 8.1L16.8694 7.57C17.3494 7.44 17.8394 7.72 17.9694 8.21C18.0994 8.68 17.8194 9.18 17.3294 9.3Z" fill="#777777"/>
</svg>
