<svg width="21" height="22" viewBox="0 0 21 22" fill="none" xmlns="http://www.w3.org/2000/svg">
<path d="M21 18.3977C21 19.2205 20.6732 20.0096 20.0914 20.5914C19.5096 21.1732 18.7205 21.5 17.8977 21.5H3.10227C2.2795 21.5 1.49042 21.1732 0.908635 20.5914C0.326846 20.0096 0 19.2205 0 18.3977V3.60227C0 2.7795 0.326846 1.99042 0.908635 1.40863C1.49042 0.826846 2.2795 0.5 3.10227 0.5H17.8977C18.7205 0.5 19.5096 0.826846 20.0914 1.40863C20.6732 1.99042 21 2.7795 21 3.60227V18.3977ZM19.5682 18.3977V3.60227C19.5682 3.15924 19.3922 2.73435 19.0789 2.42108C18.7656 2.10781 18.3408 1.93182 17.8977 1.93182H3.10227C2.65924 1.93182 2.23435 2.10781 1.92108 2.42108C1.60781 2.73435 1.43182 3.15924 1.43182 3.60227V18.3977C1.43182 19.3198 2.18018 20.0682 3.10227 20.0682H17.8977C18.3408 20.0682 18.7656 19.8922 19.0789 19.5789C19.3922 19.2656 19.5682 18.8408 19.5682 18.3977ZM15.9886 11C15.9886 11.173 15.926 11.3401 15.8123 11.4705C15.6986 11.6009 15.5415 11.6857 15.3701 11.7092L15.2727 11.7159H5.72727C5.54589 11.7159 5.37128 11.6469 5.23874 11.5231C5.10621 11.3993 5.02561 11.2298 5.01325 11.0488C5.00089 10.8678 5.05767 10.6889 5.17214 10.5482C5.28661 10.4075 5.45022 10.3155 5.62991 10.2908L5.72727 10.2841H15.2727C15.4626 10.2841 15.6447 10.3595 15.779 10.4938C15.9132 10.628 15.9886 10.8101 15.9886 11ZM15.9886 16.0114C15.9886 16.1844 15.926 16.3515 15.8123 16.4819C15.6986 16.6123 15.5415 16.6971 15.3701 16.7206L15.2727 16.7273H5.72727C5.54589 16.7272 5.37128 16.6583 5.23874 16.5345C5.10621 16.4106 5.02561 16.2411 5.01325 16.0602C5.00089 15.8792 5.05767 15.7003 5.17214 15.5596C5.28661 15.4189 5.45022 15.3269 5.62991 15.3021L5.72727 15.2955H15.2727C15.4626 15.2955 15.6447 15.3709 15.779 15.5051C15.9132 15.6394 15.9886 15.8215 15.9886 16.0114ZM15.9886 5.98864C15.9886 6.16164 15.926 6.32878 15.8123 6.45916C15.6986 6.58954 15.5415 6.67434 15.3701 6.69786L15.2727 6.70455H5.72727C5.54589 6.70449 5.37128 6.63558 5.23874 6.51175C5.10621 6.38792 5.02561 6.2184 5.01325 6.03743C5.00089 5.85647 5.05767 5.67756 5.17214 5.53685C5.28661 5.39614 5.45022 5.30413 5.62991 5.27941L5.72727 5.27273H15.2727C15.4626 5.27273 15.6447 5.34815 15.779 5.48241C15.9132 5.61667 15.9886 5.79877 15.9886 5.98864Z" fill="#5F5F5F"/>
</svg>
