<svg width="65" height="32" viewBox="0 0 65 32" fill="none" xmlns="http://www.w3.org/2000/svg">
<rect x="0.5" width="64" height="32" rx="8" fill="#D9BA56"/>
<path d="M21.2188 14.0653C21.1733 13.6619 20.9858 13.3494 20.6562 13.1278C20.3267 12.9034 19.9119 12.7912 19.4119 12.7912C19.054 12.7912 18.7443 12.848 18.483 12.9616C18.2216 13.0724 18.0185 13.2259 17.8736 13.4219C17.7315 13.6151 17.6605 13.8352 17.6605 14.0824C17.6605 14.2898 17.7088 14.4687 17.8054 14.6193C17.9048 14.7699 18.0341 14.8963 18.1932 14.9986C18.3551 15.098 18.5284 15.1818 18.7131 15.25C18.8977 15.3153 19.0753 15.3693 19.2457 15.4119L20.098 15.6335C20.3764 15.7017 20.6619 15.794 20.9545 15.9105C21.2472 16.027 21.5185 16.1804 21.7685 16.3707C22.0185 16.5611 22.2202 16.7969 22.3736 17.0781C22.5298 17.3594 22.608 17.696 22.608 18.0881C22.608 18.5824 22.4801 19.0213 22.2244 19.4048C21.9716 19.7884 21.6037 20.0909 21.1207 20.3125C20.6406 20.5341 20.0597 20.6449 19.3778 20.6449C18.7244 20.6449 18.1591 20.5412 17.6818 20.3338C17.2045 20.1264 16.831 19.8324 16.5611 19.4517C16.2912 19.0682 16.142 18.6136 16.1136 18.0881H17.4347C17.4602 18.4034 17.5625 18.6662 17.7415 18.8764C17.9233 19.0838 18.1548 19.2386 18.4361 19.3409C18.7202 19.4403 19.0312 19.4901 19.3693 19.4901C19.7415 19.4901 20.0724 19.4318 20.3622 19.3153C20.6548 19.196 20.8849 19.0312 21.0526 18.821C21.2202 18.608 21.304 18.3594 21.304 18.0753C21.304 17.8168 21.2301 17.6051 21.0824 17.4403C20.9375 17.2756 20.7401 17.1392 20.4901 17.0312C20.2429 16.9233 19.9631 16.8281 19.6506 16.7457L18.6193 16.4645C17.9205 16.2741 17.3665 15.9943 16.9574 15.625C16.5511 15.2557 16.348 14.767 16.348 14.1591C16.348 13.6562 16.4844 13.2173 16.7571 12.8423C17.0298 12.4673 17.3991 12.1761 17.8651 11.9688C18.331 11.7585 18.8565 11.6534 19.4418 11.6534C20.0327 11.6534 20.554 11.7571 21.0057 11.9645C21.4602 12.1719 21.8182 12.4574 22.0795 12.821C22.3409 13.1818 22.4773 13.5966 22.4886 14.0653H21.2188ZM25.3533 16.6136V20.5H24.0792V11.7727H25.3363V15.0199H25.4173C25.5707 14.6676 25.805 14.3878 26.1204 14.1804C26.4357 13.973 26.8477 13.8693 27.3562 13.8693C27.805 13.8693 28.1971 13.9616 28.5323 14.1463C28.8704 14.331 29.1317 14.6065 29.3164 14.973C29.5039 15.3366 29.5977 15.7912 29.5977 16.3366V20.5H28.3235V16.4901C28.3235 16.0099 28.1999 15.6378 27.9528 15.3736C27.7056 15.1065 27.3619 14.973 26.9215 14.973C26.6204 14.973 26.3505 15.0369 26.1119 15.1648C25.8761 15.2926 25.69 15.4801 25.5536 15.7273C25.4201 15.9716 25.3533 16.267 25.3533 16.6136ZM33.2028 20.6449C32.788 20.6449 32.413 20.5682 32.0778 20.4148C31.7425 20.2585 31.4769 20.0327 31.2809 19.7372C31.0877 19.4418 30.9911 19.0795 30.9911 18.6506C30.9911 18.2812 31.0621 17.9773 31.2042 17.7386C31.3462 17.5 31.538 17.3111 31.7795 17.1719C32.021 17.0327 32.2908 16.9276 32.5891 16.8565C32.8874 16.7855 33.1914 16.7315 33.5011 16.6946C33.8931 16.6491 34.2113 16.6122 34.4556 16.5838C34.6999 16.5526 34.8775 16.5028 34.9883 16.4347C35.0991 16.3665 35.1545 16.2557 35.1545 16.1023V16.0724C35.1545 15.7003 35.0494 15.4119 34.8391 15.2074C34.6317 15.0028 34.3221 14.9006 33.9102 14.9006C33.4812 14.9006 33.1431 14.9957 32.896 15.1861C32.6516 15.3736 32.4826 15.5824 32.3888 15.8125L31.1914 15.5398C31.3335 15.142 31.5408 14.821 31.8136 14.5767C32.0891 14.3295 32.4059 14.1506 32.7638 14.0398C33.1218 13.9261 33.4982 13.8693 33.8931 13.8693C34.1545 13.8693 34.4315 13.9006 34.7241 13.9631C35.0195 14.0227 35.2951 14.1335 35.5508 14.2955C35.8093 14.4574 36.021 14.6889 36.1857 14.9901C36.3505 15.2884 36.4329 15.6761 36.4329 16.1534V20.5H35.1886V19.6051H35.1374C35.055 19.7699 34.9315 19.9318 34.7667 20.0909C34.6019 20.25 34.3903 20.3821 34.1317 20.4872C33.8732 20.5923 33.5636 20.6449 33.2028 20.6449ZM33.4798 19.6222C33.832 19.6222 34.1332 19.5526 34.3832 19.4134C34.636 19.2741 34.8278 19.0923 34.9585 18.8679C35.092 18.6406 35.1587 18.3977 35.1587 18.1392V17.2955C35.1133 17.3409 35.0252 17.3835 34.8945 17.4233C34.7667 17.4602 34.6204 17.4929 34.4556 17.5213C34.2908 17.5469 34.1303 17.571 33.9741 17.5938C33.8178 17.6136 33.6871 17.6307 33.582 17.6449C33.3349 17.6761 33.109 17.7287 32.9045 17.8026C32.7028 17.8764 32.5408 17.983 32.4187 18.1222C32.2994 18.2585 32.2397 18.4403 32.2397 18.6676C32.2397 18.983 32.3562 19.2216 32.5891 19.3835C32.8221 19.5426 33.119 19.6222 33.4798 19.6222ZM38.13 20.5V13.9545H39.3615V14.9943H39.4297C39.549 14.642 39.7592 14.3651 40.0604 14.1634C40.3643 13.9588 40.7081 13.8565 41.0916 13.8565C41.1712 13.8565 41.2649 13.8594 41.3729 13.8651C41.4837 13.8707 41.5703 13.8778 41.6328 13.8864V15.1051C41.5817 15.0909 41.4908 15.0753 41.3601 15.0582C41.2294 15.0384 41.0987 15.0284 40.968 15.0284C40.6669 15.0284 40.3984 15.0923 40.1626 15.2202C39.9297 15.3452 39.745 15.5199 39.6087 15.7443C39.4723 15.9659 39.4041 16.2187 39.4041 16.5028V20.5H38.13ZM45.3221 20.6321C44.6772 20.6321 44.1218 20.4943 43.6559 20.2188C43.1928 19.9403 42.8349 19.5497 42.582 19.0469C42.332 18.5412 42.207 17.9489 42.207 17.2699C42.207 16.5994 42.332 16.0085 42.582 15.4972C42.8349 14.9858 43.1871 14.5866 43.6388 14.2997C44.0934 14.0128 44.6246 13.8693 45.2326 13.8693C45.6019 13.8693 45.9599 13.9304 46.3065 14.0526C46.6531 14.1747 46.9641 14.3665 47.2397 14.6278C47.5153 14.8892 47.7326 15.2287 47.8917 15.6463C48.0508 16.0611 48.1303 16.5653 48.1303 17.1591V17.6108H42.9272V16.6562H46.8817C46.8817 16.321 46.8136 16.0241 46.6772 15.7656C46.5408 15.5043 46.3491 15.2983 46.1019 15.1477C45.8576 14.9972 45.5707 14.9219 45.2411 14.9219C44.8832 14.9219 44.5707 15.0099 44.3036 15.1861C44.0394 15.3594 43.8349 15.5866 43.69 15.8679C43.5479 16.1463 43.4769 16.4489 43.4769 16.7756V17.5213C43.4769 17.9588 43.5536 18.331 43.707 18.6378C43.8633 18.9446 44.0806 19.179 44.359 19.3409C44.6374 19.5 44.9627 19.5795 45.3349 19.5795C45.5763 19.5795 45.7965 19.5455 45.9954 19.4773C46.1942 19.4062 46.3661 19.3011 46.511 19.1619C46.6559 19.0227 46.7667 18.8509 46.8434 18.6463L48.0494 18.8636C47.9528 19.2187 47.7795 19.5298 47.5295 19.7969C47.2823 20.0611 46.9712 20.267 46.5962 20.4148C46.2241 20.5597 45.7994 20.6321 45.3221 20.6321Z" fill="white"/>
</svg>
