<svg width="31" height="32" viewBox="0 0 31 32" fill="none" xmlns="http://www.w3.org/2000/svg">
<path fill-rule="evenodd" clip-rule="evenodd" d="M20.5657 14.2382L17.1057 10.6448L19.6067 8.04615L23.0655 11.6382L20.5657 14.2382ZM11.6568 23.4995L7.83466 23.8608L8.17361 19.9195L15.3852 12.4302L18.8466 16.0248L11.6568 23.4995ZM24.9117 9.78348L24.9104 9.78215L21.3951 6.13148C20.4438 5.14615 18.8094 5.09948 17.9081 6.03948L6.35818 18.0342C5.93963 18.4675 5.68029 19.0435 5.62636 19.6528L5.13977 25.2128C5.10639 25.6062 5.2412 25.9955 5.51081 26.2755C5.75347 26.5275 6.08086 26.6662 6.41853 26.6662C6.45833 26.6662 6.49684 26.6648 6.53536 26.6608L11.8892 26.1555C12.4772 26.0995 13.0306 25.8315 13.4478 25.3982L24.999 13.4022C25.9337 12.4288 25.8939 10.8048 24.9117 9.78348V9.78348Z" fill="#212131"/>
<path fill-rule="evenodd" clip-rule="evenodd" d="M20.5657 14.2382L17.1057 10.6448L19.6067 8.04615L23.0655 11.6382L20.5657 14.2382ZM11.6568 23.4995L7.83466 23.8608L8.17361 19.9195L15.3852 12.4302L18.8466 16.0248L11.6568 23.4995ZM24.9117 9.78348L24.9104 9.78215L21.3951 6.13148C20.4438 5.14615 18.8094 5.09948 17.9081 6.03948L6.35818 18.0342C5.93963 18.4675 5.68029 19.0435 5.62636 19.6528L5.13977 25.2128C5.10639 25.6062 5.2412 25.9955 5.51081 26.2755C5.75347 26.5275 6.08086 26.6662 6.41853 26.6662C6.45833 26.6662 6.49684 26.6648 6.53536 26.6608L11.8892 26.1555C12.4772 26.0995 13.0306 25.8315 13.4478 25.3982L24.999 13.4022C25.9337 12.4288 25.8939 10.8048 24.9117 9.78348V9.78348Z" fill="black" fill-opacity="0.2"/>
<mask id="mask0_7938_121632" style="mask-type:luminance" maskUnits="userSpaceOnUse" x="5" y="5" width="21" height="22">
<path fill-rule="evenodd" clip-rule="evenodd" d="M20.5657 14.2382L17.1057 10.6448L19.6067 8.04615L23.0655 11.6382L20.5657 14.2382ZM11.6568 23.4995L7.83466 23.8608L8.17361 19.9195L15.3852 12.4302L18.8466 16.0248L11.6568 23.4995ZM24.9117 9.78348L24.9104 9.78215L21.3951 6.13148C20.4438 5.14615 18.8094 5.09948 17.9081 6.03948L6.35818 18.0342C5.93963 18.4675 5.68029 19.0435 5.62636 19.6528L5.13977 25.2128C5.10639 25.6062 5.2412 25.9955 5.51081 26.2755C5.75347 26.5275 6.08086 26.6662 6.41853 26.6662C6.45833 26.6662 6.49684 26.6648 6.53536 26.6608L11.8892 26.1555C12.4772 26.0995 13.0306 25.8315 13.4478 25.3982L24.999 13.4022C25.9337 12.4288 25.8939 10.8048 24.9117 9.78348V9.78348Z" fill="white"/>
</mask>
<g mask="url(#mask0_7938_121632)">
<rect width="30.8134" height="32" fill="#212131"/>
<rect width="30.8134" height="32" fill="black" fill-opacity="0.2"/>
</g>
</svg>
<svg width="31" height="32" viewBox="0 0 31 32" fill="none" xmlns="http://www.w3.org/2000/svg">
<path fill-rule="evenodd" clip-rule="evenodd" d="M20.5657 14.2382L17.1057 10.6448L19.6067 8.04615L23.0655 11.6382L20.5657 14.2382ZM11.6568 23.4995L7.83466 23.8608L8.17361 19.9195L15.3852 12.4302L18.8466 16.0248L11.6568 23.4995ZM24.9117 9.78348L24.9104 9.78215L21.3951 6.13148C20.4438 5.14615 18.8094 5.09948 17.9081 6.03948L6.35818 18.0342C5.93963 18.4675 5.68029 19.0435 5.62636 19.6528L5.13977 25.2128C5.10639 25.6062 5.2412 25.9955 5.51081 26.2755C5.75347 26.5275 6.08086 26.6662 6.41853 26.6662C6.45833 26.6662 6.49684 26.6648 6.53536 26.6608L11.8892 26.1555C12.4772 26.0995 13.0306 25.8315 13.4478 25.3982L24.999 13.4022C25.9337 12.4288 25.8939 10.8048 24.9117 9.78348V9.78348Z" fill="#212131"/>
<path fill-rule="evenodd" clip-rule="evenodd" d="M20.5657 14.2382L17.1057 10.6448L19.6067 8.04615L23.0655 11.6382L20.5657 14.2382ZM11.6568 23.4995L7.83466 23.8608L8.17361 19.9195L15.3852 12.4302L18.8466 16.0248L11.6568 23.4995ZM24.9117 9.78348L24.9104 9.78215L21.3951 6.13148C20.4438 5.14615 18.8094 5.09948 17.9081 6.03948L6.35818 18.0342C5.93963 18.4675 5.68029 19.0435 5.62636 19.6528L5.13977 25.2128C5.10639 25.6062 5.2412 25.9955 5.51081 26.2755C5.75347 26.5275 6.08086 26.6662 6.41853 26.6662C6.45833 26.6662 6.49684 26.6648 6.53536 26.6608L11.8892 26.1555C12.4772 26.0995 13.0306 25.8315 13.4478 25.3982L24.999 13.4022C25.9337 12.4288 25.8939 10.8048 24.9117 9.78348V9.78348Z" fill="black" fill-opacity="0.2"/>
<mask id="mask0_7938_121632" style="mask-type:luminance" maskUnits="userSpaceOnUse" x="5" y="5" width="21" height="22">
<path fill-rule="evenodd" clip-rule="evenodd" d="M20.5657 14.2382L17.1057 10.6448L19.6067 8.04615L23.0655 11.6382L20.5657 14.2382ZM11.6568 23.4995L7.83466 23.8608L8.17361 19.9195L15.3852 12.4302L18.8466 16.0248L11.6568 23.4995ZM24.9117 9.78348L24.9104 9.78215L21.3951 6.13148C20.4438 5.14615 18.8094 5.09948 17.9081 6.03948L6.35818 18.0342C5.93963 18.4675 5.68029 19.0435 5.62636 19.6528L5.13977 25.2128C5.10639 25.6062 5.2412 25.9955 5.51081 26.2755C5.75347 26.5275 6.08086 26.6662 6.41853 26.6662C6.45833 26.6662 6.49684 26.6648 6.53536 26.6608L11.8892 26.1555C12.4772 26.0995 13.0306 25.8315 13.4478 25.3982L24.999 13.4022C25.9337 12.4288 25.8939 10.8048 24.9117 9.78348V9.78348Z" fill="white"/>
</mask>
<g mask="url(#mask0_7938_121632)">
<rect width="30.8134" height="32" fill="#212131"/>
<rect width="30.8134" height="32" fill="black" fill-opacity="0.2"/>
</g>
</svg>
<svg width="31" height="32" viewBox="0 0 31 32" fill="none" xmlns="http://www.w3.org/2000/svg">
<path fill-rule="evenodd" clip-rule="evenodd" d="M20.5657 14.2382L17.1057 10.6448L19.6067 8.04615L23.0655 11.6382L20.5657 14.2382ZM11.6568 23.4995L7.83466 23.8608L8.17361 19.9195L15.3852 12.4302L18.8466 16.0248L11.6568 23.4995ZM24.9117 9.78348L24.9104 9.78215L21.3951 6.13148C20.4438 5.14615 18.8094 5.09948 17.9081 6.03948L6.35818 18.0342C5.93963 18.4675 5.68029 19.0435 5.62636 19.6528L5.13977 25.2128C5.10639 25.6062 5.2412 25.9955 5.51081 26.2755C5.75347 26.5275 6.08086 26.6662 6.41853 26.6662C6.45833 26.6662 6.49684 26.6648 6.53536 26.6608L11.8892 26.1555C12.4772 26.0995 13.0306 25.8315 13.4478 25.3982L24.999 13.4022C25.9337 12.4288 25.8939 10.8048 24.9117 9.78348V9.78348Z" fill="#212131"/>
<path fill-rule="evenodd" clip-rule="evenodd" d="M20.5657 14.2382L17.1057 10.6448L19.6067 8.04615L23.0655 11.6382L20.5657 14.2382ZM11.6568 23.4995L7.83466 23.8608L8.17361 19.9195L15.3852 12.4302L18.8466 16.0248L11.6568 23.4995ZM24.9117 9.78348L24.9104 9.78215L21.3951 6.13148C20.4438 5.14615 18.8094 5.09948 17.9081 6.03948L6.35818 18.0342C5.93963 18.4675 5.68029 19.0435 5.62636 19.6528L5.13977 25.2128C5.10639 25.6062 5.2412 25.9955 5.51081 26.2755C5.75347 26.5275 6.08086 26.6662 6.41853 26.6662C6.45833 26.6662 6.49684 26.6648 6.53536 26.6608L11.8892 26.1555C12.4772 26.0995 13.0306 25.8315 13.4478 25.3982L24.999 13.4022C25.9337 12.4288 25.8939 10.8048 24.9117 9.78348V9.78348Z" fill="black" fill-opacity="0.2"/>
<mask id="mask0_7938_121632" style="mask-type:luminance" maskUnits="userSpaceOnUse" x="5" y="5" width="21" height="22">
<path fill-rule="evenodd" clip-rule="evenodd" d="M20.5657 14.2382L17.1057 10.6448L19.6067 8.04615L23.0655 11.6382L20.5657 14.2382ZM11.6568 23.4995L7.83466 23.8608L8.17361 19.9195L15.3852 12.4302L18.8466 16.0248L11.6568 23.4995ZM24.9117 9.78348L24.9104 9.78215L21.3951 6.13148C20.4438 5.14615 18.8094 5.09948 17.9081 6.03948L6.35818 18.0342C5.93963 18.4675 5.68029 19.0435 5.62636 19.6528L5.13977 25.2128C5.10639 25.6062 5.2412 25.9955 5.51081 26.2755C5.75347 26.5275 6.08086 26.6662 6.41853 26.6662C6.45833 26.6662 6.49684 26.6648 6.53536 26.6608L11.8892 26.1555C12.4772 26.0995 13.0306 25.8315 13.4478 25.3982L24.999 13.4022C25.9337 12.4288 25.8939 10.8048 24.9117 9.78348V9.78348Z" fill="white"/>
</mask>
<g mask="url(#mask0_7938_121632)">
<rect width="30.8134" height="32" fill="#212131"/>
<rect width="30.8134" height="32" fill="black" fill-opacity="0.2"/>
</g>
</svg>
