<svg width="16" height="16" viewBox="0 0 16 16" fill="none" xmlns="http://www.w3.org/2000/svg">
<path fill-rule="evenodd" clip-rule="evenodd" d="M7.99935 10.6668C7.63135 10.6668 7.33268 10.3682 7.33268 10.0002C7.33268 9.63216 7.63135 9.3335 7.99935 9.3335C8.36735 9.3335 8.66602 9.63216 8.66602 10.0002C8.66602 10.3682 8.36735 10.6668 7.99935 10.6668M7.99935 8.00016C6.89668 8.00016 5.99935 8.8975 5.99935 10.0002C5.99935 11.1028 6.89668 12.0002 7.99935 12.0002C9.10202 12.0002 9.99935 11.1028 9.99935 10.0002C9.99935 8.8975 9.10202 8.00016 7.99935 8.00016M11.9993 12.6668C11.9993 13.0348 11.7007 13.3335 11.3327 13.3335H4.66602C4.29802 13.3335 3.99935 13.0348 3.99935 12.6668V7.3335C3.99935 6.9655 4.29802 6.66683 4.66602 6.66683H11.3327C11.7007 6.66683 11.9993 6.9655 11.9993 7.3335V12.6668ZM11.3327 5.3335H6.66602V4.00016C6.66602 3.26483 7.26402 2.66683 7.99935 2.66683C8.73468 2.66683 9.33268 3.26483 9.33268 4.00016C9.33268 4.36883 9.63068 4.66683 9.99935 4.66683C10.368 4.66683 10.666 4.36883 10.666 4.00016C10.666 2.5295 9.47002 1.3335 7.99935 1.3335C6.52868 1.3335 5.33268 2.5295 5.33268 4.00016V5.3335H4.66602C3.56335 5.3335 2.66602 6.23083 2.66602 7.3335V12.6668C2.66602 13.7695 3.56335 14.6668 4.66602 14.6668H11.3327C12.4353 14.6668 13.3327 13.7695 13.3327 12.6668V7.3335C13.3327 6.23083 12.4353 5.3335 11.3327 5.3335V5.3335Z" fill="#231F20"/>
<mask id="mask0_7368_142170" style="mask-type:luminance" maskUnits="userSpaceOnUse" x="2" y="1" width="12" height="14">
<path fill-rule="evenodd" clip-rule="evenodd" d="M7.99935 10.6668C7.63135 10.6668 7.33268 10.3682 7.33268 10.0002C7.33268 9.63216 7.63135 9.3335 7.99935 9.3335C8.36735 9.3335 8.66602 9.63216 8.66602 10.0002C8.66602 10.3682 8.36735 10.6668 7.99935 10.6668M7.99935 8.00016C6.89668 8.00016 5.99935 8.8975 5.99935 10.0002C5.99935 11.1028 6.89668 12.0002 7.99935 12.0002C9.10202 12.0002 9.99935 11.1028 9.99935 10.0002C9.99935 8.8975 9.10202 8.00016 7.99935 8.00016M11.9993 12.6668C11.9993 13.0348 11.7007 13.3335 11.3327 13.3335H4.66602C4.29802 13.3335 3.99935 13.0348 3.99935 12.6668V7.3335C3.99935 6.9655 4.29802 6.66683 4.66602 6.66683H11.3327C11.7007 6.66683 11.9993 6.9655 11.9993 7.3335V12.6668ZM11.3327 5.3335H6.66602V4.00016C6.66602 3.26483 7.26402 2.66683 7.99935 2.66683C8.73468 2.66683 9.33268 3.26483 9.33268 4.00016C9.33268 4.36883 9.63068 4.66683 9.99935 4.66683C10.368 4.66683 10.666 4.36883 10.666 4.00016C10.666 2.5295 9.47002 1.3335 7.99935 1.3335C6.52868 1.3335 5.33268 2.5295 5.33268 4.00016V5.3335H4.66602C3.56335 5.3335 2.66602 6.23083 2.66602 7.3335V12.6668C2.66602 13.7695 3.56335 14.6668 4.66602 14.6668H11.3327C12.4353 14.6668 13.3327 13.7695 13.3327 12.6668V7.3335C13.3327 6.23083 12.4353 5.3335 11.3327 5.3335V5.3335Z" fill="white"/>
</mask>
<g mask="url(#mask0_7368_142170)">
<rect width="16" height="16" fill="#0D1C2E"/>
</g>
</svg>
