<svg width="16" height="16" viewBox="0 0 16 16" fill="none" xmlns="http://www.w3.org/2000/svg">
<path fill-rule="evenodd" clip-rule="evenodd" d="M4.49294 6.66683C4.49294 6.29883 4.78053 6.00016 5.13488 6.00016C5.48924 6.00016 5.77683 6.29883 5.77683 6.66683C5.77683 7.03483 5.48924 7.3335 5.13488 7.3335C4.78053 7.3335 4.49294 7.03483 4.49294 6.66683ZM7.70267 6.00016C7.34831 6.00016 7.06072 6.29883 7.06072 6.66683C7.06072 7.03483 7.34831 7.3335 7.70267 7.3335C8.05702 7.3335 8.34462 7.03483 8.34462 6.66683C8.34462 6.29883 8.05702 6.00016 7.70267 6.00016ZM10.2705 6.00016C9.9161 6.00016 9.62851 6.29883 9.62851 6.66683C9.62851 7.03483 9.9161 7.3335 10.2705 7.3335C10.6248 7.3335 10.9124 7.03483 10.9124 6.66683C10.9124 6.29883 10.6248 6.00016 10.2705 6.00016ZM12.8382 10.0002C12.8382 10.3675 12.55 10.6668 12.1963 10.6668H5.49052C5.14194 10.6668 4.79914 10.7655 4.49936 10.9522L2.5671 12.1562V3.3335C2.5671 2.96616 2.85533 2.66683 3.20904 2.66683H12.1963C12.55 2.66683 12.8382 2.96616 12.8382 3.3335V10.0002ZM12.1963 1.3335H3.20904C2.14726 1.3335 1.2832 2.23083 1.2832 3.3335V13.3335C1.2832 13.5735 1.40774 13.7955 1.60867 13.9135C1.70689 13.9715 1.81602 14.0002 1.92515 14.0002C2.03942 14.0002 2.15368 13.9688 2.25575 13.9048L5.15992 12.0955C5.26006 12.0328 5.37433 12.0002 5.49052 12.0002H12.1963C13.2581 12.0002 14.1221 11.1028 14.1221 10.0002V3.3335C14.1221 2.23083 13.2581 1.3335 12.1963 1.3335V1.3335Z" fill="#212131"/>
<path fill-rule="evenodd" clip-rule="evenodd" d="M4.49294 6.66683C4.49294 6.29883 4.78053 6.00016 5.13488 6.00016C5.48924 6.00016 5.77683 6.29883 5.77683 6.66683C5.77683 7.03483 5.48924 7.3335 5.13488 7.3335C4.78053 7.3335 4.49294 7.03483 4.49294 6.66683ZM7.70267 6.00016C7.34831 6.00016 7.06072 6.29883 7.06072 6.66683C7.06072 7.03483 7.34831 7.3335 7.70267 7.3335C8.05702 7.3335 8.34462 7.03483 8.34462 6.66683C8.34462 6.29883 8.05702 6.00016 7.70267 6.00016ZM10.2705 6.00016C9.9161 6.00016 9.62851 6.29883 9.62851 6.66683C9.62851 7.03483 9.9161 7.3335 10.2705 7.3335C10.6248 7.3335 10.9124 7.03483 10.9124 6.66683C10.9124 6.29883 10.6248 6.00016 10.2705 6.00016ZM12.8382 10.0002C12.8382 10.3675 12.55 10.6668 12.1963 10.6668H5.49052C5.14194 10.6668 4.79914 10.7655 4.49936 10.9522L2.5671 12.1562V3.3335C2.5671 2.96616 2.85533 2.66683 3.20904 2.66683H12.1963C12.55 2.66683 12.8382 2.96616 12.8382 3.3335V10.0002ZM12.1963 1.3335H3.20904C2.14726 1.3335 1.2832 2.23083 1.2832 3.3335V13.3335C1.2832 13.5735 1.40774 13.7955 1.60867 13.9135C1.70689 13.9715 1.81602 14.0002 1.92515 14.0002C2.03942 14.0002 2.15368 13.9688 2.25575 13.9048L5.15992 12.0955C5.26006 12.0328 5.37433 12.0002 5.49052 12.0002H12.1963C13.2581 12.0002 14.1221 11.1028 14.1221 10.0002V3.3335C14.1221 2.23083 13.2581 1.3335 12.1963 1.3335V1.3335Z" fill="black" fill-opacity="0.2"/>
<mask id="mask0_7368_142172" style="mask-type:luminance" maskUnits="userSpaceOnUse" x="1" y="1" width="14" height="13">
<path fill-rule="evenodd" clip-rule="evenodd" d="M4.49294 6.66683C4.49294 6.29883 4.78053 6.00016 5.13488 6.00016C5.48924 6.00016 5.77683 6.29883 5.77683 6.66683C5.77683 7.03483 5.48924 7.3335 5.13488 7.3335C4.78053 7.3335 4.49294 7.03483 4.49294 6.66683ZM7.70267 6.00016C7.34831 6.00016 7.06072 6.29883 7.06072 6.66683C7.06072 7.03483 7.34831 7.3335 7.70267 7.3335C8.05702 7.3335 8.34462 7.03483 8.34462 6.66683C8.34462 6.29883 8.05702 6.00016 7.70267 6.00016ZM10.2705 6.00016C9.9161 6.00016 9.62851 6.29883 9.62851 6.66683C9.62851 7.03483 9.9161 7.3335 10.2705 7.3335C10.6248 7.3335 10.9124 7.03483 10.9124 6.66683C10.9124 6.29883 10.6248 6.00016 10.2705 6.00016ZM12.8382 10.0002C12.8382 10.3675 12.55 10.6668 12.1963 10.6668H5.49052C5.14194 10.6668 4.79914 10.7655 4.49936 10.9522L2.5671 12.1562V3.3335C2.5671 2.96616 2.85533 2.66683 3.20904 2.66683H12.1963C12.55 2.66683 12.8382 2.96616 12.8382 3.3335V10.0002ZM12.1963 1.3335H3.20904C2.14726 1.3335 1.2832 2.23083 1.2832 3.3335V13.3335C1.2832 13.5735 1.40774 13.7955 1.60867 13.9135C1.70689 13.9715 1.81602 14.0002 1.92515 14.0002C2.03942 14.0002 2.15368 13.9688 2.25575 13.9048L5.15992 12.0955C5.26006 12.0328 5.37433 12.0002 5.49052 12.0002H12.1963C13.2581 12.0002 14.1221 11.1028 14.1221 10.0002V3.3335C14.1221 2.23083 13.2581 1.3335 12.1963 1.3335V1.3335Z" fill="white"/>
</mask>
<g mask="url(#mask0_7368_142172)">
<rect width="15.4067" height="16" fill="#212131"/>
<rect width="15.4067" height="16" fill="black" fill-opacity="0.2"/>
</g>
</svg>
