<svg width="25" height="24" viewBox="0 0 25 24" fill="none" xmlns="http://www.w3.org/2000/svg">
<path fill-rule="evenodd" clip-rule="evenodd" d="M5.75955 13H17.1846L13.6863 17.36C13.3454 17.784 13.4013 18.415 13.8096 18.768C14.2188 19.122 14.8254 19.064 15.1663 18.64L19.9809 12.64C20.0185 12.593 20.0368 12.538 20.0647 12.486C20.0878 12.444 20.1157 12.408 20.1331 12.362C20.1764 12.247 20.2024 12.126 20.2024 12.004C20.2024 12.003 20.2033 12.001 20.2033 12C20.2033 11.999 20.2024 11.997 20.2024 11.996C20.2024 11.874 20.1764 11.753 20.1331 11.638C20.1157 11.592 20.0878 11.556 20.0647 11.514C20.0368 11.462 20.0185 11.407 19.9809 11.36L15.1663 5.36C14.9747 5.123 14.7012 5 14.4258 5C14.2082 5 13.9896 5.076 13.8096 5.232C13.4013 5.585 13.3454 6.216 13.6863 6.64L17.1846 11H5.75955C5.22802 11 4.79663 11.448 4.79663 12C4.79663 12.552 5.22802 13 5.75955 13Z" fill="#231F20"/>
<mask id="mask0_5416_36121" style="mask-type:luminance" maskUnits="userSpaceOnUse" x="4" y="5" width="17" height="14">
<path fill-rule="evenodd" clip-rule="evenodd" d="M5.75955 13H17.1846L13.6863 17.36C13.3454 17.784 13.4013 18.415 13.8096 18.768C14.2188 19.122 14.8254 19.064 15.1663 18.64L19.9809 12.64C20.0185 12.593 20.0368 12.538 20.0647 12.486C20.0878 12.444 20.1157 12.408 20.1331 12.362C20.1764 12.247 20.2024 12.126 20.2024 12.004C20.2024 12.003 20.2033 12.001 20.2033 12C20.2033 11.999 20.2024 11.997 20.2024 11.996C20.2024 11.874 20.1764 11.753 20.1331 11.638C20.1157 11.592 20.0878 11.556 20.0647 11.514C20.0368 11.462 20.0185 11.407 19.9809 11.36L15.1663 5.36C14.9747 5.123 14.7012 5 14.4258 5C14.2082 5 13.9896 5.076 13.8096 5.232C13.4013 5.585 13.3454 6.216 13.6863 6.64L17.1846 11H5.75955C5.22802 11 4.79663 11.448 4.79663 12C4.79663 12.552 5.22802 13 5.75955 13Z" fill="white"/>
</mask>
<g mask="url(#mask0_5416_36121)">
<rect x="0.944946" width="23.1101" height="24" fill="white"/>
</g>
</svg>
