<svg width="20" height="20" viewBox="0 0 20 20" fill="none" xmlns="http://www.w3.org/2000/svg">
<circle cx="10" cy="10" r="10" fill="#40BB7B"/>
<path fill-rule="evenodd" clip-rule="evenodd" d="M8.3316 14C8.15443 14 7.98495 13.924 7.86363 13.79L4.74184 10.3373C4.49854 10.0693 4.51202 9.64731 4.77009 9.39531C5.02879 9.14331 5.43514 9.15664 5.67716 9.42464L8.32519 12.352L13.7227 6.21731C13.9628 5.94464 14.3685 5.92664 14.6304 6.17464C14.8917 6.42264 14.9096 6.84464 14.6708 7.11597L8.80536 13.7826C8.68532 13.92 8.51456 13.9986 8.3361 14H8.3316Z" fill="#231F20"/>
<mask id="mask0_7959_5865" style="mask-type:luminance" maskUnits="userSpaceOnUse" x="4" y="6" width="11" height="8">
<path fill-rule="evenodd" clip-rule="evenodd" d="M8.3316 14C8.15443 14 7.98495 13.924 7.86363 13.79L4.74184 10.3373C4.49854 10.0693 4.51202 9.64731 4.77009 9.39531C5.02879 9.14331 5.43514 9.15664 5.67716 9.42464L8.32519 12.352L13.7227 6.21731C13.9628 5.94464 14.3685 5.92664 14.6304 6.17464C14.8917 6.42264 14.9096 6.84464 14.6708 7.11597L8.80536 13.7826C8.68532 13.92 8.51456 13.9986 8.3361 14H8.3316Z" fill="white"/>
</mask>
<g mask="url(#mask0_7959_5865)">
<rect x="2" y="2" width="15.4067" height="16" fill="white"/>
</g>
</svg>
