<svg width="24" height="25" viewBox="0 0 24 25" fill="none" xmlns="http://www.w3.org/2000/svg">
<path d="M2.68931 7.62541C2.52614 7.24469 2.08523 7.06832 1.70451 7.23149C1.32379 7.39466 1.14742 7.83557 1.31059 8.21629L2.68931 7.62541ZM9.0414 14.6585C9.26731 14.3114 9.16899 13.8468 8.8218 13.6209C8.47461 13.395 8.01003 13.4933 7.78412 13.8405L9.0414 14.6585ZM6.37131 16.0118C6.1454 16.3589 6.24372 16.8235 6.59091 17.0494C6.9381 17.2753 7.40268 17.177 7.62859 16.8298L6.37131 16.0118ZM22.6894 8.21629C22.8524 7.83557 22.6762 7.39466 22.2954 7.23149C21.9147 7.06832 21.4738 7.24469 21.3106 7.62541L22.6894 8.21629ZM19.9697 14.08C20.2626 14.3729 20.7374 14.3729 21.0303 14.08C21.3232 13.7871 21.3232 13.3122 21.0303 13.0193L19.9697 14.08ZM11.25 17.4208C11.25 17.835 11.5858 18.1708 12 18.1708C12.4142 18.1708 12.75 17.835 12.75 17.4208H11.25ZM16.3714 16.8298C16.5973 17.177 17.0619 17.2753 17.409 17.0494C17.7562 16.8235 17.8545 16.3589 17.6285 16.0118L16.3714 16.8298ZM5.53028 12.58C5.82317 12.2871 5.82317 11.8122 5.53028 11.5193C5.23739 11.2264 4.76251 11.2264 4.46962 11.5193L5.53028 12.58ZM2.96962 13.0193C2.67673 13.3122 2.67673 13.7871 2.96962 14.08C3.26251 14.3729 3.73739 14.3729 4.03028 14.08L2.96962 13.0193ZM12 14.1708C8.77606 14.1708 6.46128 12.5654 4.92455 10.9105C4.1564 10.0833 3.5932 9.25369 3.22254 8.63099C3.03764 8.32035 2.90182 8.06317 2.81335 7.88622C2.76914 7.79781 2.73684 7.7296 2.71622 7.68496C2.70592 7.66265 2.69854 7.64625 2.69406 7.63618C2.69182 7.63115 2.6901 7.62722 2.68931 7.62541C2.68929 7.62537 2.68934 7.62549 2.68931 7.62541C2.68941 7.62564 2.68931 7.62541 1.99995 7.92085C1.31059 8.21629 1.31044 8.21595 1.31059 8.21629C1.31065 8.21644 1.31109 8.21745 1.31122 8.21775C1.31147 8.21834 1.31178 8.21905 1.31213 8.21985C1.31282 8.22147 1.31371 8.22351 1.31478 8.22597C1.31693 8.23088 1.31983 8.23747 1.32348 8.24568C1.33078 8.2621 1.3411 8.285 1.35448 8.31396C1.38122 8.37187 1.42021 8.45405 1.47171 8.55704C1.57464 8.76291 1.72789 9.0526 1.93361 9.39821C2.3442 10.088 2.9685 11.0084 3.82535 11.9311C5.53862 13.7762 8.22384 15.6708 12 15.6708V14.1708ZM15.3125 13.5516C14.3421 13.9336 13.2417 14.1708 12 14.1708V15.6708C13.4382 15.6708 14.7246 15.395 15.8619 14.9474L15.3125 13.5516ZM7.78412 13.8405L6.37131 16.0118L7.62859 16.8298L9.0414 14.6585L7.78412 13.8405ZM22 7.92085C21.3106 7.62541 21.3105 7.62555 21.3106 7.62541C21.3106 7.62525 21.3111 7.62434 21.3111 7.62445C21.311 7.62465 21.3107 7.62537 21.3101 7.62661C21.309 7.62908 21.3069 7.6336 21.3041 7.64009C21.2983 7.65308 21.2889 7.67394 21.2758 7.7021C21.2495 7.75842 21.2085 7.8438 21.1525 7.95352C21.0406 8.17312 20.869 8.48916 20.6354 8.86405C20.1669 9.61601 19.4563 10.5928 18.4867 11.5028L19.5133 12.5965C20.6023 11.5743 21.3917 10.4867 21.9085 9.65731C22.1676 9.24153 22.3599 8.88765 22.4888 8.635C22.5532 8.5086 22.6019 8.40728 22.6353 8.33592C22.6518 8.30024 22.6646 8.27203 22.6737 8.25189C22.6782 8.24182 22.6818 8.23377 22.6844 8.22781C22.6857 8.22483 22.6866 8.22238 22.6875 8.22045C22.688 8.21949 22.6883 8.21866 22.6886 8.21797C22.6888 8.21762 22.6893 8.21657 22.6894 8.21629C22.6894 8.21636 22.6894 8.21615 22.6894 8.21629C22.6894 8.21612 22.6894 8.21629 22 7.92085ZM18.4867 11.5028C17.6277 12.309 16.5739 13.0551 15.3125 13.5516L15.8619 14.9474C17.3355 14.3674 18.5466 13.5038 19.5133 12.5965L18.4867 11.5028ZM18.4697 12.58L19.9697 14.08L21.0303 13.0193L19.5303 11.5193L18.4697 12.58ZM11.25 14.9208V17.4208H12.75V14.9208H11.25ZM14.9586 14.6585L16.3714 16.8298L17.6285 16.0118L16.2157 13.8405L14.9586 14.6585ZM4.46962 11.5193L2.96962 13.0193L4.03028 14.08L5.53028 12.58L4.46962 11.5193Z" fill="#212131"/>
<path d="M2.68931 7.62541C2.52614 7.24469 2.08523 7.06832 1.70451 7.23149C1.32379 7.39466 1.14742 7.83557 1.31059 8.21629L2.68931 7.62541ZM9.0414 14.6585C9.26731 14.3114 9.16899 13.8468 8.8218 13.6209C8.47461 13.395 8.01003 13.4933 7.78412 13.8405L9.0414 14.6585ZM6.37131 16.0118C6.1454 16.3589 6.24372 16.8235 6.59091 17.0494C6.9381 17.2753 7.40268 17.177 7.62859 16.8298L6.37131 16.0118ZM22.6894 8.21629C22.8524 7.83557 22.6762 7.39466 22.2954 7.23149C21.9147 7.06832 21.4738 7.24469 21.3106 7.62541L22.6894 8.21629ZM19.9697 14.08C20.2626 14.3729 20.7374 14.3729 21.0303 14.08C21.3232 13.7871 21.3232 13.3122 21.0303 13.0193L19.9697 14.08ZM11.25 17.4208C11.25 17.835 11.5858 18.1708 12 18.1708C12.4142 18.1708 12.75 17.835 12.75 17.4208H11.25ZM16.3714 16.8298C16.5973 17.177 17.0619 17.2753 17.409 17.0494C17.7562 16.8235 17.8545 16.3589 17.6285 16.0118L16.3714 16.8298ZM5.53028 12.58C5.82317 12.2871 5.82317 11.8122 5.53028 11.5193C5.23739 11.2264 4.76251 11.2264 4.46962 11.5193L5.53028 12.58ZM2.96962 13.0193C2.67673 13.3122 2.67673 13.7871 2.96962 14.08C3.26251 14.3729 3.73739 14.3729 4.03028 14.08L2.96962 13.0193ZM12 14.1708C8.77606 14.1708 6.46128 12.5654 4.92455 10.9105C4.1564 10.0833 3.5932 9.25369 3.22254 8.63099C3.03764 8.32035 2.90182 8.06317 2.81335 7.88622C2.76914 7.79781 2.73684 7.7296 2.71622 7.68496C2.70592 7.66265 2.69854 7.64625 2.69406 7.63618C2.69182 7.63115 2.6901 7.62722 2.68931 7.62541C2.68929 7.62537 2.68934 7.62549 2.68931 7.62541C2.68941 7.62564 2.68931 7.62541 1.99995 7.92085C1.31059 8.21629 1.31044 8.21595 1.31059 8.21629C1.31065 8.21644 1.31109 8.21745 1.31122 8.21775C1.31147 8.21834 1.31178 8.21905 1.31213 8.21985C1.31282 8.22147 1.31371 8.22351 1.31478 8.22597C1.31693 8.23088 1.31983 8.23747 1.32348 8.24568C1.33078 8.2621 1.3411 8.285 1.35448 8.31396C1.38122 8.37187 1.42021 8.45405 1.47171 8.55704C1.57464 8.76291 1.72789 9.0526 1.93361 9.39821C2.3442 10.088 2.9685 11.0084 3.82535 11.9311C5.53862 13.7762 8.22384 15.6708 12 15.6708V14.1708ZM15.3125 13.5516C14.3421 13.9336 13.2417 14.1708 12 14.1708V15.6708C13.4382 15.6708 14.7246 15.395 15.8619 14.9474L15.3125 13.5516ZM7.78412 13.8405L6.37131 16.0118L7.62859 16.8298L9.0414 14.6585L7.78412 13.8405ZM22 7.92085C21.3106 7.62541 21.3105 7.62555 21.3106 7.62541C21.3106 7.62525 21.3111 7.62434 21.3111 7.62445C21.311 7.62465 21.3107 7.62537 21.3101 7.62661C21.309 7.62908 21.3069 7.6336 21.3041 7.64009C21.2983 7.65308 21.2889 7.67394 21.2758 7.7021C21.2495 7.75842 21.2085 7.8438 21.1525 7.95352C21.0406 8.17312 20.869 8.48916 20.6354 8.86405C20.1669 9.61601 19.4563 10.5928 18.4867 11.5028L19.5133 12.5965C20.6023 11.5743 21.3917 10.4867 21.9085 9.65731C22.1676 9.24153 22.3599 8.88765 22.4888 8.635C22.5532 8.5086 22.6019 8.40728 22.6353 8.33592C22.6518 8.30024 22.6646 8.27203 22.6737 8.25189C22.6782 8.24182 22.6818 8.23377 22.6844 8.22781C22.6857 8.22483 22.6866 8.22238 22.6875 8.22045C22.688 8.21949 22.6883 8.21866 22.6886 8.21797C22.6888 8.21762 22.6893 8.21657 22.6894 8.21629C22.6894 8.21636 22.6894 8.21615 22.6894 8.21629C22.6894 8.21612 22.6894 8.21629 22 7.92085ZM18.4867 11.5028C17.6277 12.309 16.5739 13.0551 15.3125 13.5516L15.8619 14.9474C17.3355 14.3674 18.5466 13.5038 19.5133 12.5965L18.4867 11.5028ZM18.4697 12.58L19.9697 14.08L21.0303 13.0193L19.5303 11.5193L18.4697 12.58ZM11.25 14.9208V17.4208H12.75V14.9208H11.25ZM14.9586 14.6585L16.3714 16.8298L17.6285 16.0118L16.2157 13.8405L14.9586 14.6585ZM4.46962 11.5193L2.96962 13.0193L4.03028 14.08L5.53028 12.58L4.46962 11.5193Z" fill="black" fill-opacity="0.2"/>
</svg>
