<svg width="24" height="25" viewBox="0 0 24 25" fill="none" xmlns="http://www.w3.org/2000/svg">
<g clip-path="url(#clip0_7959_5904)">
<path d="M12.081 8.45383C9.5962 8.45383 7.58095 10.4691 7.58095 12.9538C7.58095 15.4386 9.5962 17.4538 12.081 17.4538C14.5657 17.4538 16.581 15.4393 16.581 12.9538C16.581 10.4683 14.5665 8.45383 12.081 8.45383ZM12.081 15.9538C10.4265 15.9538 9.04645 14.5753 9.04645 12.9208C9.04645 11.2663 10.392 9.92083 12.0465 9.92083C13.701 9.92083 15.0465 11.2663 15.0465 12.9208C15.0465 14.5753 13.7355 15.9538 12.081 15.9538ZM23.9925 12.7468C23.9834 12.7093 23.988 12.6688 23.9767 12.6321C23.9722 12.6163 23.9617 12.6073 23.9565 12.5938C23.9482 12.5728 23.9505 12.5473 23.9392 12.5271C21.7575 7.53208 17.0565 4.65808 12.0465 4.65808C7.03645 4.65808 2.24095 7.52758 0.0584512 12.5226C0.0494512 12.5436 0.0509512 12.5653 0.0427012 12.5893C0.0374512 12.6043 0.0269512 12.6118 0.0217012 12.6261C0.0104512 12.6636 0.0149512 12.7033 0.00745117 12.7416C-0.00604883 12.8091 -0.0187988 12.8751 -0.0187988 12.9433C-0.0187988 13.0116 -0.00604883 13.0761 0.00745117 13.1443C0.0149512 13.1818 0.00970117 13.2231 0.0217012 13.2583C0.0262012 13.2756 0.0374512 13.2823 0.0427012 13.2973C0.0502012 13.3176 0.0487012 13.3431 0.0584512 13.3641C2.24095 18.3576 6.98995 21.1851 12 21.1851C17.01 21.1851 21.7582 18.3636 23.94 13.3686C23.9512 13.3468 23.949 13.3251 23.9572 13.3011C23.9625 13.2883 23.9722 13.2786 23.9767 13.2636C23.988 13.2268 23.985 13.1871 23.9925 13.1481C24.006 13.0806 24.018 13.0153 24.018 12.9456C24.018 12.8796 24.0052 12.8143 23.9917 12.7461L23.9925 12.7468ZM12 19.6851C7.7512 19.6851 3.56845 17.4456 1.51345 12.9426C3.54895 8.45533 7.7872 6.15733 12.0465 6.15733C16.305 6.15733 20.4487 8.45758 22.485 12.9471C20.4502 17.4336 16.26 19.6851 12 19.6851Z" fill="#212131"/>
<path d="M12.081 8.45383C9.5962 8.45383 7.58095 10.4691 7.58095 12.9538C7.58095 15.4386 9.5962 17.4538 12.081 17.4538C14.5657 17.4538 16.581 15.4393 16.581 12.9538C16.581 10.4683 14.5665 8.45383 12.081 8.45383ZM12.081 15.9538C10.4265 15.9538 9.04645 14.5753 9.04645 12.9208C9.04645 11.2663 10.392 9.92083 12.0465 9.92083C13.701 9.92083 15.0465 11.2663 15.0465 12.9208C15.0465 14.5753 13.7355 15.9538 12.081 15.9538ZM23.9925 12.7468C23.9834 12.7093 23.988 12.6688 23.9767 12.6321C23.9722 12.6163 23.9617 12.6073 23.9565 12.5938C23.9482 12.5728 23.9505 12.5473 23.9392 12.5271C21.7575 7.53208 17.0565 4.65808 12.0465 4.65808C7.03645 4.65808 2.24095 7.52758 0.0584512 12.5226C0.0494512 12.5436 0.0509512 12.5653 0.0427012 12.5893C0.0374512 12.6043 0.0269512 12.6118 0.0217012 12.6261C0.0104512 12.6636 0.0149512 12.7033 0.00745117 12.7416C-0.00604883 12.8091 -0.0187988 12.8751 -0.0187988 12.9433C-0.0187988 13.0116 -0.00604883 13.0761 0.00745117 13.1443C0.0149512 13.1818 0.00970117 13.2231 0.0217012 13.2583C0.0262012 13.2756 0.0374512 13.2823 0.0427012 13.2973C0.0502012 13.3176 0.0487012 13.3431 0.0584512 13.3641C2.24095 18.3576 6.98995 21.1851 12 21.1851C17.01 21.1851 21.7582 18.3636 23.94 13.3686C23.9512 13.3468 23.949 13.3251 23.9572 13.3011C23.9625 13.2883 23.9722 13.2786 23.9767 13.2636C23.988 13.2268 23.985 13.1871 23.9925 13.1481C24.006 13.0806 24.018 13.0153 24.018 12.9456C24.018 12.8796 24.0052 12.8143 23.9917 12.7461L23.9925 12.7468ZM12 19.6851C7.7512 19.6851 3.56845 17.4456 1.51345 12.9426C3.54895 8.45533 7.7872 6.15733 12.0465 6.15733C16.305 6.15733 20.4487 8.45758 22.485 12.9471C20.4502 17.4336 16.26 19.6851 12 19.6851Z" fill="black" fill-opacity="0.2"/>
</g>
<defs>
<clipPath id="clip0_7959_5904">
<rect width="24" height="24" fill="white" transform="translate(0 0.920776)"/>
</clipPath>
</defs>
</svg>
