<svg width="40" height="41" viewBox="0 0 40 41" fill="none" xmlns="http://www.w3.org/2000/svg">
<rect y="0.579224" width="40" height="40" rx="12" fill="white"/>
<g clip-path="url(#clip0_83_11766)">
<path d="M29.2834 18.913L29.2835 18.913L29.2822 18.9075L29.2072 18.595L29.1704 18.4417H29.0127H28.7005H28.7002L20.4005 18.4292H20.4002H20.0002H19.8002V18.6292V22.7917V22.9917H20.0002H24.2608C23.5621 24.3699 22.2698 25.2917 20.4002 25.2917C17.795 25.2917 15.6877 23.1844 15.6877 20.5792C15.6877 17.974 17.795 15.8667 20.4002 15.8667C21.5699 15.8667 22.6322 16.2993 23.4576 17.0061L23.4576 17.0061L23.4603 17.0084L23.7478 17.2459L23.888 17.3617L24.0166 17.2331L26.7541 14.4956L26.7542 14.4957L26.7571 14.4926L27.0446 14.1926L27.1861 14.045L27.0353 13.9068L26.7353 13.6318L26.7349 13.6314C25.0651 12.1101 22.8363 11.1792 20.4002 11.1792C15.2132 11.1792 11.0002 15.3922 11.0002 20.5792C11.0002 25.7662 15.2132 29.9792 20.4002 29.9792C24.4398 29.9792 26.9286 28.115 28.2249 25.7891C29.5125 23.4787 29.6747 20.7706 29.2834 18.913ZM25.7377 21.7917H21.0002V19.6295L28.1659 19.6414C28.387 21.2103 28.1894 23.388 27.1755 25.2068C26.6182 26.2058 25.8362 27.0963 24.7431 27.738C23.6499 28.3797 22.2345 28.7792 20.4002 28.7792C15.8654 28.7792 12.2002 25.1125 12.2002 20.5792C12.2002 16.0459 15.8654 12.3792 20.4002 12.3792C22.3003 12.3792 24.0233 13.0459 25.4135 14.133L23.7671 15.7795C22.8138 15.1047 21.6671 14.6667 20.4002 14.6667C17.1413 14.6667 14.4877 17.3203 14.4877 20.5792C14.4877 23.8381 17.1413 26.4917 20.4002 26.4917C23.1133 26.4917 25.0714 24.8234 25.7661 22.5638C25.7662 22.5635 25.7663 22.5632 25.7664 22.563L25.9283 22.0522L26.0109 21.7917H25.7377Z" fill="#653EFF" stroke="#653EFF" stroke-width="0.4"/>
</g>
<defs>
<clipPath id="clip0_83_11766">
<rect width="20" height="20" fill="white" transform="translate(10 10.5792)"/>
</clipPath>
</defs>
</svg>
