<svg width="137" height="37" viewBox="0 0 137 37" fill="none" xmlns="http://www.w3.org/2000/svg">
<path d="M12.501 26.1972V23.9814C11.2051 25.5723 9.20495 26.3677 6.50059 26.3677C4.56881 26.3677 3.02316 25.8393 1.8638 24.7825C0.704762 23.7258 0.125244 22.3791 0.125244 20.7423C0.125244 19.0834 0.727379 17.7652 1.93198 16.7879C3.1369 15.8108 4.81875 15.3108 6.97784 15.288H12.4669V14.7426C12.4669 13.5832 12.0973 12.6853 11.3583 12.0489C10.6197 11.4126 9.54585 11.0944 8.13688 11.0944C6.38685 11.0944 4.60274 11.708 2.78421 12.9352L1.18201 10.2081C2.56869 9.38991 3.81311 8.80482 4.91544 8.45246C6.01761 8.10025 7.37544 7.92407 8.98911 7.92407C11.3075 7.92407 13.1031 8.48655 14.3759 9.61149C15.6485 10.7364 16.2962 12.2991 16.319 14.2994L16.353 26.1972H12.501ZM7.31874 23.2656C8.70492 23.2656 9.881 22.9417 10.847 22.294C11.8133 21.646 12.3531 20.8219 12.4669 19.8219V18.1515H7.55736C6.26197 18.1515 5.31304 18.339 4.71091 18.714C4.10861 19.089 3.80754 19.7083 3.80754 20.5718C3.80754 21.39 4.11992 22.0436 4.745 22.5326C5.36991 23.0214 6.22788 23.2656 7.31874 23.2656Z" fill="black"/>
<path d="M24.5102 0.491943C25.2147 0.491943 25.7942 0.713524 26.2488 1.15668C26.7033 1.59984 26.9306 2.17379 26.9306 2.87819C26.9306 3.55998 26.7033 4.12835 26.2488 4.58331C25.7942 5.03794 25.2147 5.2651 24.5102 5.2651C23.828 5.2651 23.2596 5.03794 22.8051 4.58331C22.3505 4.12835 22.1233 3.55998 22.1233 2.87819C22.1233 2.17379 22.3505 1.59984 22.8051 1.15668C23.2596 0.713524 23.828 0.491943 24.5102 0.491943ZM26.4533 8.06042V26.7086C26.4533 28.7311 25.8735 30.2822 24.7141 31.3617C23.5551 32.4416 22.1801 32.9816 20.5893 32.9816C19.1804 32.9816 17.9191 32.5726 16.8054 31.7544L18.1008 28.7198C18.8736 29.2652 19.6463 29.538 20.4189 29.538C21.0551 29.538 21.5722 29.3334 21.9699 28.9244C22.3675 28.5153 22.5665 27.9017 22.5665 27.0835V8.06042H26.4533Z" fill="black"/>
<path d="M43.2597 26.1972V23.9814C41.9639 25.5723 39.9637 26.3677 37.2594 26.3677C35.3276 26.3677 33.7819 25.8393 32.6226 24.7825C31.4636 23.7258 30.884 22.3791 30.884 20.7423C30.884 19.0834 31.4862 17.7652 32.6908 16.7879C33.8957 15.8108 35.5775 15.3108 37.7366 15.288H43.2257V14.7426C43.2257 13.5832 42.8561 12.6853 42.1171 12.0489C41.3784 11.4126 40.3046 11.0944 38.8957 11.0944C37.1456 11.0944 35.3615 11.708 33.543 12.9352L31.9408 10.2081C33.3275 9.38991 34.5719 8.80482 35.6742 8.45246C36.7764 8.10025 38.1342 7.92407 39.7479 7.92407C42.0663 7.92407 43.8619 8.48655 45.1347 9.61149C46.4073 10.7364 47.055 12.2991 47.0777 14.2994L47.1118 26.1972H43.2597ZM38.0775 23.2656C39.4637 23.2656 40.6398 22.9417 41.6058 22.294C42.5721 21.646 43.1119 20.8219 43.2257 19.8219V18.1515H38.3161C37.0208 18.1515 36.0718 18.339 35.4697 18.714C34.8674 19.089 34.5663 19.7083 34.5663 20.5718C34.5663 21.39 34.8787 22.0436 35.5038 22.5326C36.1287 23.0214 36.9867 23.2656 38.0775 23.2656Z" fill="black"/>
<path d="M59.7808 7.88989C62.2806 7.88989 64.3943 8.5035 66.122 9.73071L64.6903 12.6283C62.9626 11.5602 61.2238 11.0261 59.474 11.0261C57.7013 11.0261 56.815 11.6284 56.815 12.8328C56.815 13.4242 57.1444 13.913 57.8036 14.2993C58.4626 14.6858 59.2637 15.0096 60.2069 15.2709C61.1499 15.5323 62.0931 15.8391 63.0363 16.1913C63.9798 16.5436 64.7811 17.1174 65.4403 17.9128C66.0993 18.7083 66.4288 19.7195 66.4288 20.9467C66.4288 22.6971 65.7638 24.0325 64.434 24.9529C63.1045 25.8733 61.4512 26.3335 59.474 26.3335C58.1104 26.3335 56.775 26.1119 55.4678 25.6688C54.161 25.2256 53.0645 24.6064 52.1782 23.8109L53.5759 21.0149C54.3485 21.6972 55.2974 22.2428 56.4223 22.6519C57.5476 23.0609 58.6217 23.2655 59.6444 23.2655C60.5307 23.2655 61.2466 23.1065 61.7921 22.7882C62.3375 22.4701 62.6102 21.9812 62.6102 21.3217C62.6102 20.6399 62.2806 20.0945 61.6216 19.6854C60.9624 19.2764 60.1671 18.9469 59.2354 18.6968C58.3035 18.4469 57.3716 18.1514 56.4394 17.8105C55.5075 17.4696 54.7179 16.9072 54.0702 16.1231C53.4225 15.3391 53.0986 14.3446 53.0986 13.1396C53.0986 11.4126 53.7406 10.1057 55.0247 9.21937C56.3091 8.33305 57.8944 7.88989 59.7808 7.88989Z" fill="black"/>
<path d="M79.6543 22.0382L80.6435 25.0381C79.1431 25.9244 77.6543 26.3676 76.1772 26.3676C74.6999 26.3676 73.4838 25.9244 72.529 25.0381C71.5745 24.1518 71.0972 22.8334 71.0972 21.0831V11.6738H68.5405V8.74209H71.0972V3.7644H74.9841V8.74209H80.3367V11.6738H74.9841V20.3672C74.9841 21.2763 75.143 21.9128 75.4613 22.2768C75.7794 22.6405 76.268 22.8223 76.9271 22.8223C77.6543 22.8223 78.5634 22.561 79.6543 22.0382Z" fill="black"/>
<path d="M93.0285 7.92407C95.8241 7.92407 98.097 8.77073 99.847 10.4637C101.597 12.1569 102.472 14.3786 102.472 17.1288C102.472 19.856 101.597 22.0721 99.847 23.7769C98.097 25.4814 95.8241 26.3336 93.0285 26.3336C90.2104 26.3336 87.9263 25.4814 86.1759 23.7769C84.4259 22.0721 83.551 19.856 83.551 17.1288C83.551 14.3786 84.4259 12.1569 86.1759 10.4637C87.9263 8.77073 90.2104 7.92407 93.0285 7.92407ZM93.0285 11.2989C91.3922 11.2989 90.057 11.8447 89.023 12.9358C87.9889 14.0267 87.4719 15.4358 87.4719 17.1629C87.4719 18.9129 87.9889 20.3335 89.023 21.4247C90.057 22.5156 91.3922 23.061 93.0285 23.061C94.6651 23.061 95.9949 22.5156 97.0176 21.4247C98.0403 20.3335 98.5516 18.9129 98.5516 17.1629C98.5516 15.4358 98.0345 14.0267 97.0006 12.9358C95.9664 11.8447 94.6425 11.2989 93.0285 11.2989Z" fill="black"/>
<path d="M112.234 7.70435C114.734 7.70435 116.848 8.31795 118.575 9.54517L117.144 12.4428C115.416 11.3747 113.677 10.8406 111.927 10.8406C110.155 10.8406 109.268 11.4429 109.268 12.6473C109.268 13.2386 109.598 13.7275 110.257 14.1138C110.916 14.5002 111.717 14.8241 112.66 15.0853C113.603 15.3467 114.546 15.6535 115.49 16.0057C116.433 16.3581 117.234 16.9319 117.894 17.7272C118.553 18.5228 118.882 19.534 118.882 20.7612C118.882 22.5115 118.217 23.8469 116.887 24.7673C115.558 25.6877 113.905 26.1479 111.927 26.1479C110.564 26.1479 109.228 25.9264 107.921 25.4832C106.614 25.04 105.518 24.4209 104.632 23.6253L106.029 20.8294C106.802 21.5116 107.751 22.0572 108.876 22.4663C110.001 22.8754 111.075 23.0799 112.098 23.0799C112.984 23.0799 113.7 22.9209 114.245 22.6027C114.791 22.2846 115.064 21.7957 115.064 21.1362C115.064 20.4544 114.734 19.909 114.075 19.4999C113.416 19.0908 112.62 18.7614 111.689 18.5113C110.757 18.2614 109.825 17.9659 108.893 17.625C107.961 17.2841 107.171 16.7216 106.524 15.9376C105.876 15.1535 105.552 14.159 105.552 12.9541C105.552 11.227 106.194 9.92015 107.478 9.03383C108.762 8.14751 110.348 7.70435 112.234 7.70435Z" fill="black"/>
<path d="M135.483 24.0862C135.681 24.7758 135.902 25.4164 136.149 26.008C136.395 26.5992 136.42 27.2397 136.222 27.9298C136.124 28.5209 136.025 29.0875 135.927 29.6297C135.829 30.1719 135.681 30.7387 135.483 31.3296C135.385 31.6255 135.212 31.8226 134.966 31.921C134.72 32.0194 134.498 32.1675 134.3 32.3648H134.005C133.118 32.7591 132.675 33.3503 132.675 34.138C132.675 34.5324 132.379 34.8283 131.787 35.0256C131.394 34.6315 131.098 34.385 130.901 34.2866C130.014 34.0893 129.324 34.1877 128.831 34.5818C128.339 34.9761 127.846 35.0994 127.352 34.9513C126.86 34.8034 126.416 34.5818 126.022 34.2866C125.628 33.8925 125.233 33.4737 124.839 33.0304C124.445 32.5867 124.051 32.1677 123.657 31.7734C123.361 31.2809 123.213 30.8373 123.213 30.443C123.213 29.5561 122.918 28.9155 122.327 28.5212C121.833 28.028 121.833 27.5842 122.327 27.1898C122.524 26.993 122.696 26.7224 122.844 26.3775C122.992 26.0321 123.115 25.761 123.213 25.5642C123.213 23.2978 124.248 21.7703 126.318 20.9816C127.008 20.7843 127.674 20.6611 128.314 20.6121C128.955 20.5627 129.62 20.5378 130.309 20.5378C130.802 20.5378 131.27 20.7105 131.713 21.0559C132.157 21.4008 132.576 21.7206 132.97 22.0159C133.364 22.3118 133.709 22.6323 134.005 22.9777C134.301 23.3226 134.646 23.5932 135.04 23.79C135.237 23.9876 135.385 24.0862 135.483 24.0862Z" fill="#FFBD4A"/>
<path d="M30.789 31.8868C30.6764 31.8868 30.5829 31.9195 30.5089 31.9848C30.4346 32.0503 30.3977 32.1479 30.3977 32.2781V32.6205H31.1526V33.0879H30.3977V35.4032H29.7781V33.0879H29.3977V32.6205H29.7781V32.3381C29.7781 32.0192 29.8757 31.7739 30.0714 31.6022C30.2669 31.4301 30.5005 31.344 30.7722 31.344C31.0257 31.344 31.2433 31.4109 31.4247 31.5444L31.1855 32.0228C31.0621 31.9321 30.9299 31.8868 30.789 31.8868Z" fill="black"/>
<path d="M32.6754 31.4117C32.7442 31.3411 32.8309 31.3057 32.9358 31.3057C33.0412 31.3057 33.1282 31.3411 33.197 31.4117C33.2661 31.482 33.3009 31.5734 33.3009 31.6861C33.3009 31.7943 33.2661 31.8839 33.197 31.9545C33.1282 32.0253 33.0412 32.0606 32.9358 32.0606C32.8309 32.0606 32.7442 32.0253 32.6754 31.9545C32.6066 31.8839 32.5723 31.7943 32.5723 31.6861C32.5723 31.5734 32.6066 31.482 32.6754 31.4117ZM33.246 35.4029H32.6264V32.5119H33.246V35.4029Z" fill="black"/>
<path d="M35.0732 35.4032H34.4485V31.3711H35.0732V35.4032Z" fill="black"/>
<path d="M39.9926 32.4902C40.3222 32.4902 40.5811 32.5901 40.7695 32.7894C40.9582 32.9884 41.0526 33.2602 41.0526 33.6043V35.4031H40.4279V33.7784C40.4279 33.5575 40.3672 33.3847 40.2457 33.2598C40.1243 33.1345 39.9564 33.0718 39.7425 33.0718C39.5 33.0791 39.3072 33.1673 39.1638 33.3359C39.0208 33.5041 38.9495 33.7168 38.9495 33.9737V35.4031H38.324V33.7784C38.324 33.5575 38.2633 33.3847 38.1419 33.2598C38.0208 33.1345 37.8553 33.0718 37.6452 33.0718C37.3989 33.0791 37.203 33.1673 37.0578 33.3359C36.913 33.5041 36.8405 33.7168 36.8405 33.9737V35.4031H36.2209V32.5122H36.8405V33.0718C37.0326 32.6841 37.3822 32.4902 37.8895 32.4902C38.147 32.4902 38.3615 32.551 38.5333 32.6724C38.7054 32.7938 38.8261 32.965 38.8954 33.1859C39.0728 32.7221 39.4385 32.4902 39.9926 32.4902Z" fill="black"/>
<path d="M46.2671 34.6751L46.4251 35.1528C46.1855 35.2943 45.9481 35.3649 45.7126 35.3649C45.4774 35.3649 45.2836 35.2945 45.131 35.1535C44.9789 35.0121 44.9028 34.802 44.9028 34.5229V33.0226H44.4954V32.5552H44.9028V31.7622H45.5224V32.5552H46.3761V33.0226H45.5224V34.4088C45.5224 34.5537 45.5476 34.6552 45.5985 34.7131C45.6491 34.7713 45.7272 34.8002 45.8326 34.8002C45.9485 34.8002 46.0934 34.7585 46.2671 34.6751Z" fill="black"/>
<path d="M49.0336 32.425C49.5299 32.425 49.8896 32.5746 50.1126 32.8735C50.3353 33.1725 50.4268 33.5918 50.3869 34.1317H48.2026C48.2532 34.3561 48.3584 34.5325 48.5179 34.6613C48.6773 34.79 48.8712 34.8544 49.0994 34.8544C49.4251 34.8544 49.6967 34.7421 49.9143 34.5172L50.2457 34.8705C49.9487 35.1968 49.5502 35.3599 49.0504 35.3599C48.6046 35.3599 48.2467 35.2251 47.9765 34.9554C47.7068 34.6852 47.572 34.3328 47.572 33.8983C47.572 33.4634 47.7077 33.1101 47.9795 32.8384C48.251 32.5662 48.6024 32.4285 49.0336 32.425ZM48.1916 33.6752H49.8434C49.8326 33.4431 49.7549 33.2603 49.61 33.1266C49.4652 32.9925 49.275 32.9254 49.0394 32.9254C48.8112 32.9254 48.6217 32.9925 48.4711 33.1266C48.3207 33.2603 48.2276 33.4431 48.1916 33.6752Z" fill="black"/>
<path d="M53.0001 32.425C53.5219 32.425 53.9204 32.5827 54.1954 32.8976L53.8531 33.2999C53.636 33.079 53.3608 32.9704 53.0272 32.9737C52.7774 32.9737 52.5718 33.0598 52.4105 33.2319C52.2491 33.4042 52.1684 33.626 52.1684 33.8976C52.1684 34.1693 52.2491 34.3912 52.4105 34.5633C52.5718 34.7355 52.7774 34.8215 53.0272 34.8215C53.3968 34.8215 53.6812 34.7057 53.8802 34.474L54.2284 34.8215C53.9566 35.1805 53.5473 35.3599 53.0001 35.3599C52.5689 35.3599 52.2183 35.2251 51.9482 34.9554C51.6785 34.6852 51.5437 34.3327 51.5437 33.8976C51.5437 33.4592 51.6785 33.1043 51.9482 32.8325C52.2183 32.5609 52.5689 32.425 53.0001 32.425Z" fill="black"/>
<path d="M57.0709 32.4249C57.4078 32.4249 57.6715 32.5236 57.8617 32.7211C58.0519 32.9187 58.147 33.1913 58.147 33.539V35.3378H57.5222V33.7131C57.5222 33.4956 57.4604 33.3245 57.3372 33.1996C57.2143 33.0743 57.044 33.0116 56.8266 33.0116C56.5729 33.0156 56.3717 33.1019 56.2231 33.2705C56.0748 33.4388 56.0007 33.6535 56.0007 33.9142V35.3378H55.376V31.3057H56.0007V33.0116C56.2 32.6206 56.5568 32.4249 57.0709 32.4249Z" fill="black"/>
<path d="M60.985 32.425C61.3218 32.425 61.5855 32.5238 61.7757 32.7213C61.9659 32.9188 62.061 33.1915 62.061 33.5391V35.3379H61.4356V33.7132C61.4356 33.4958 61.3738 33.3246 61.2505 33.1997C61.1276 33.0745 60.9575 33.0117 60.7406 33.0117C60.5084 33.0157 60.3189 33.09 60.1723 33.2348C60.0254 33.3797 59.9413 33.5682 59.9199 33.8003V35.3379H59.2944V32.447H59.9199V33.0015C60.1154 32.6173 60.4703 32.425 60.985 32.425Z" fill="black"/>
<path d="M64.7193 32.425C65.165 32.425 65.5273 32.5602 65.8063 32.8303C66.0852 33.1001 66.2248 33.4541 66.2248 33.8925C66.2248 34.327 66.0852 34.6803 65.8063 34.9524C65.5273 35.2242 65.165 35.3599 64.7193 35.3599C64.2702 35.3599 63.9061 35.2242 63.6272 34.9524C63.3481 34.6803 63.2087 34.327 63.2087 33.8925C63.2087 33.4541 63.3481 33.1001 63.6272 32.8303C63.9061 32.5602 64.2702 32.425 64.7193 32.425ZM64.7193 32.9634C64.4583 32.9634 64.2455 33.0505 64.0807 33.2246C63.9157 33.3983 63.8335 33.6225 63.8335 33.8976C63.8335 34.1767 63.9157 34.4031 64.0807 34.5772C64.2455 34.7513 64.4583 34.8383 64.7193 34.8383C64.9801 34.8383 65.1921 34.7513 65.355 34.5772C65.5183 34.4031 65.6001 34.1767 65.6001 33.8976C65.6001 33.6225 65.5176 33.3983 65.3528 33.2246C65.1879 33.0505 64.9768 32.9634 64.7193 32.9634Z" fill="black"/>
<path d="M67.9965 35.3378H67.3718V31.3057H67.9965V35.3378Z" fill="black"/>
<path d="M70.6551 32.425C71.1008 32.425 71.4631 32.5602 71.7421 32.8303C72.021 33.1001 72.1606 33.4541 72.1606 33.8925C72.1606 34.327 72.021 34.6803 71.7421 34.9524C71.4631 35.2242 71.1008 35.3599 70.6551 35.3599C70.206 35.3599 69.8418 35.2242 69.563 34.9524C69.2839 34.6803 69.1445 34.327 69.1445 33.8925C69.1445 33.4541 69.2839 33.1001 69.563 32.8303C69.8418 32.5602 70.206 32.425 70.6551 32.425ZM70.6551 32.9634C70.3941 32.9634 70.1813 33.0505 70.0165 33.2246C69.8515 33.3983 69.7692 33.6225 69.7692 33.8976C69.7692 34.1767 69.8515 34.4031 70.0165 34.5772C70.1813 34.7513 70.3941 34.8383 70.6551 34.8383C70.9159 34.8383 71.1278 34.7513 71.2908 34.5772C71.4541 34.4031 71.5358 34.1767 71.5358 33.8976C71.5358 33.6225 71.4534 33.3983 71.2886 33.2246C71.1236 33.0505 70.9126 32.9634 70.6551 32.9634Z" fill="black"/>
<path d="M76.1878 32.4468V35.0554C76.1878 35.4683 76.052 35.7971 75.7804 36.0415C75.5086 36.2861 75.1447 36.4087 74.6882 36.4087C74.2605 36.4087 73.8602 36.2816 73.4871 36.0276L73.7534 35.5769C74.0361 35.7871 74.3387 35.8922 74.6612 35.8922C74.9362 35.8922 75.156 35.8178 75.321 35.6691C75.4858 35.5208 75.5682 35.3216 75.5682 35.0715V34.7072C75.3652 35.0334 75.0467 35.1966 74.6121 35.1966C74.221 35.1966 73.9057 35.0682 73.6663 34.8111C73.4273 34.5536 73.3079 34.2167 73.3079 33.8001C73.3079 33.3905 73.4256 33.0598 73.6612 32.8082C73.8967 32.5562 74.2063 32.4283 74.5902 32.4249C75.0324 32.4216 75.3585 32.5847 75.5682 32.9142V32.4468H76.1878ZM74.7372 34.7072C74.9801 34.7072 75.1793 34.6241 75.3349 34.4577C75.4903 34.2909 75.5682 34.0772 75.5682 33.8162C75.5682 33.5554 75.4911 33.3425 75.3371 33.1776C75.1835 33.0128 74.9834 32.9303 74.7372 32.9303C74.4909 32.9303 74.2897 33.0128 74.1337 33.1776C73.9781 33.3425 73.8984 33.5554 73.8945 33.8162C73.8984 34.0772 73.9772 34.2909 74.1308 34.4577C74.2848 34.6241 74.4871 34.7072 74.7372 34.7072Z" fill="black"/>
<path d="M80.2756 32.4468L78.9604 35.7342C78.7828 36.1907 78.4695 36.4189 78.0204 36.4189C77.7702 36.4189 77.5473 36.3373 77.3518 36.1746L77.6181 35.691C77.7486 35.785 77.8737 35.8322 77.9933 35.8322C78.1888 35.8322 78.3357 35.7254 78.4337 35.5118L78.531 35.2946L77.3357 32.4468H77.9824L78.8463 34.6369L79.6509 32.4468H80.2756Z" fill="black"/>
<path d="M84.3427 35.3378H83.718V31.3057H84.3427V35.3378Z" fill="black"/>
<path d="M87.4624 35.3379V34.9846C87.2561 35.2383 86.9374 35.365 86.5063 35.365C86.198 35.365 85.9515 35.2809 85.7667 35.1126C85.5824 34.944 85.4902 34.7291 85.4902 34.4682C85.4902 34.2039 85.5861 33.994 85.7777 33.8383C85.9697 33.6823 86.238 33.6026 86.5824 33.5991H87.4573V33.5121C87.4573 33.3274 87.3982 33.1842 87.2802 33.0827C87.1627 32.9814 86.9915 32.9305 86.7667 32.9305C86.4877 32.9305 86.2035 33.0284 85.9138 33.2239L85.6585 32.7893C85.8794 32.6588 86.0776 32.5653 86.2532 32.5092C86.4291 32.4532 86.6457 32.425 86.9028 32.425C87.2724 32.425 87.5586 32.5148 87.7616 32.6942C87.9644 32.8738 88.0675 33.1227 88.071 33.4411L88.0769 35.3379H87.4624ZM86.6365 34.8705C86.8574 34.8705 87.0449 34.8191 87.1991 34.7161C87.353 34.6128 87.4392 34.4813 87.4573 34.3219V34.0556H86.6746C86.4683 34.0556 86.317 34.0856 86.221 34.1456C86.1248 34.2052 86.0769 34.3036 86.0769 34.4411C86.0769 34.5719 86.1267 34.6763 86.2261 34.7542C86.326 34.8317 86.4628 34.8705 86.6365 34.8705Z" fill="black"/>
<path d="M90.86 32.4249C91.2691 32.4249 91.6014 32.5617 91.8571 32.8353C92.1126 33.1088 92.2404 33.4649 92.2404 33.9033C92.2404 34.3378 92.1153 34.6893 91.8651 34.9574C91.6153 35.2257 91.2839 35.3597 90.871 35.3597C90.4072 35.3597 90.0665 35.186 89.8491 34.8381V35.3378H89.2244V31.3057H89.8491V32.9464C90.0665 32.5988 90.4036 32.4249 90.86 32.4249ZM90.0963 34.5638C90.2611 34.7394 90.472 34.8272 90.7291 34.8272C90.9866 34.8272 91.1976 34.7394 91.3626 34.5638C91.5274 34.3879 91.6098 34.1604 91.6098 33.8813C91.6098 33.6097 91.5274 33.3861 91.3626 33.2105C91.1976 33.0346 90.9866 32.9464 90.7291 32.9464C90.472 32.9464 90.2611 33.0346 90.0963 33.2105C89.9314 33.3861 89.8491 33.6097 89.8491 33.8813C89.8491 34.1604 89.9314 34.3879 90.0963 34.5638Z" fill="black"/>
<path d="M94.6001 32.4199C94.9984 32.4199 95.3352 32.5178 95.6103 32.7133L95.382 33.1748C95.107 33.0048 94.8299 32.9195 94.551 32.9195C94.2681 32.9195 94.1268 33.0157 94.1268 33.2078C94.1268 33.3019 94.1791 33.38 94.284 33.4418C94.3894 33.5033 94.517 33.5549 94.6674 33.5962C94.818 33.6377 94.9684 33.6867 95.1187 33.7432C95.2688 33.7994 95.3963 33.8908 95.5013 34.0175C95.6066 34.1445 95.6593 34.3056 95.6593 34.5011C95.6593 34.7802 95.5532 34.993 95.3411 35.1397C95.1293 35.2865 94.866 35.3599 94.551 35.3599C94.3334 35.3599 94.1206 35.3246 93.9124 35.2538C93.7041 35.1832 93.5293 35.0845 93.3879 34.9575L93.6111 34.5121C93.7339 34.6209 93.885 34.7079 94.0646 34.7732C94.244 34.8381 94.4152 34.8705 94.5781 34.8705C94.7195 34.8705 94.8336 34.8453 94.9205 34.7944C95.0071 34.7438 95.0507 34.666 95.0507 34.5611C95.0507 34.4524 94.998 34.3654 94.8927 34.2999C94.7877 34.2346 94.661 34.1821 94.5123 34.1426C94.364 34.1028 94.2155 34.0556 94.0668 34.0015C93.9185 33.947 93.7926 33.8572 93.6893 33.7323C93.5864 33.607 93.535 33.4484 93.535 33.2568C93.535 32.9814 93.637 32.7731 93.8415 32.6321C94.0463 32.4907 94.299 32.4199 94.6001 32.4199Z" fill="black"/>
<path d="M100.738 31.9685C101.147 31.9685 101.479 32.1053 101.735 32.3789C101.99 32.6525 102.118 33.0085 102.118 33.4469C102.118 33.8814 101.993 34.2329 101.743 34.501C101.493 34.7693 101.162 34.9033 100.749 34.9033C100.285 34.9033 99.9442 34.7296 99.7268 34.3818V35.9355H99.1021V31.9905H99.7268V32.4901C99.9442 32.1424 100.281 31.9685 100.738 31.9685ZM99.974 34.1075C100.139 34.283 100.35 34.3708 100.607 34.3708C100.864 34.3708 101.075 34.283 101.24 34.1075C101.405 33.9315 101.488 33.704 101.488 33.4249C101.488 33.1534 101.405 32.9297 101.24 32.7542C101.075 32.5782 100.864 32.4901 100.607 32.4901C100.35 32.4901 100.139 32.5782 99.974 32.7542C99.8091 32.9297 99.7268 33.1534 99.7268 33.4249C99.7268 33.704 99.8091 33.9315 99.974 34.1075Z" fill="black"/>
<path d="M104.229 34.8814H103.582L102.462 31.9905H103.115L103.919 34.2677L104.712 31.9905H105.337L104.229 34.8814Z" fill="black"/>
<path d="M107.452 34.2186L107.61 34.6962C107.371 34.8378 107.133 34.9084 106.898 34.9084C106.663 34.9084 106.469 34.838 106.316 34.697C106.164 34.5556 106.088 34.3455 106.088 34.0664V32.5661H105.681V32.0986H106.088V31.3057H106.708V32.0986H107.561V32.5661H106.708V33.9523C106.708 34.0971 106.733 34.1986 106.784 34.2566C106.834 34.3147 106.913 34.3436 107.018 34.3436C107.134 34.3436 107.279 34.3019 107.452 34.2186Z" fill="black"/>
<path d="M111.678 35.3378H111.053V31.3057H111.678V35.3378Z" fill="black"/>
<path d="M114.597 34.6751L114.755 35.1528C114.516 35.2943 114.278 35.3649 114.043 35.3649C113.807 35.3649 113.614 35.2945 113.461 35.1535C113.309 35.0121 113.233 34.802 113.233 34.5229V33.0226H112.825V32.5552H113.233V31.7622H113.852V32.5552H114.706V33.0226H113.852V34.4088C113.852 34.5537 113.878 34.6552 113.929 34.7131C113.979 34.7713 114.057 34.8002 114.163 34.8002C114.279 34.8002 114.423 34.7585 114.597 34.6751Z" fill="black"/>
<path d="M118.93 31.3057V35.3378H118.305V34.8433C118.091 35.1911 117.752 35.3648 117.288 35.3648C116.876 35.3648 116.542 35.228 116.286 34.9545C116.03 34.6809 115.903 34.3232 115.903 33.8813C115.903 33.4468 116.03 33.0948 116.283 32.825C116.537 32.5549 116.868 32.4198 117.278 32.4198C117.741 32.4198 118.084 32.5953 118.305 32.9464V31.3057H118.93ZM116.781 34.5799C116.945 34.7555 117.158 34.8433 117.419 34.8433C117.68 34.8433 117.893 34.7555 118.058 34.5799C118.223 34.404 118.305 34.1783 118.305 33.9033C118.305 33.6244 118.223 33.3961 118.058 33.2186C117.893 33.0412 117.68 32.9523 117.419 32.9523C117.158 32.9523 116.945 33.0412 116.781 33.2186C116.616 33.3961 116.531 33.6244 116.528 33.9033C116.531 34.1783 116.616 34.404 116.781 34.5799Z" fill="black"/>
<path d="M120.81 34.7704C120.876 34.7031 120.957 34.6694 121.055 34.6694C121.153 34.6694 121.234 34.7031 121.3 34.7704C121.365 34.8373 121.398 34.9214 121.398 35.0228C121.398 35.1281 121.365 35.2151 121.3 35.2839C121.234 35.3527 121.153 35.387 121.055 35.387C120.957 35.387 120.876 35.3527 120.81 35.2839C120.746 35.2151 120.713 35.1281 120.713 35.0228C120.713 34.9214 120.746 34.8373 120.81 34.7704Z" fill="black"/>
</svg>
