<svg width="88" height="88" viewBox="0 0 88 88" fill="none" xmlns="http://www.w3.org/2000/svg">
<circle cx="44" cy="44" r="44" fill="#C7BAF7"/>
<circle cx="44" cy="44" r="32" fill="#6948EA"/>
<path fill-rule="evenodd" clip-rule="evenodd" d="M57.9013 42.2902H57.9062C58.7958 42.2902 59.5191 43.0335 59.5207 43.9518C59.5337 48.4035 57.8658 52.5952 54.8239 55.7518C51.7837 58.9085 47.7343 60.6535 43.4217 60.6668H43.3749C39.0785 60.6668 35.0372 58.9468 31.9905 55.8185C28.9325 52.6802 27.242 48.5002 27.2291 44.0485C27.2162 39.5952 28.884 35.4052 31.9259 32.2485C34.9662 29.0918 39.0155 27.3468 43.3281 27.3335C44.6117 27.3535 45.9195 27.4868 47.1724 27.7968C48.0378 28.0135 48.5723 28.9135 48.3624 29.8085C48.1541 30.7018 47.2774 31.2518 46.4152 31.0385C45.4125 30.7885 44.3485 30.6835 43.3378 30.6668C39.8874 30.6768 36.6469 32.0735 34.2154 34.5985C31.7822 37.1235 30.4486 40.4768 30.4582 44.0385C30.4679 47.6002 31.821 50.9435 34.267 53.4552C36.7051 55.9568 39.9375 57.3335 43.3749 57.3335H43.4121C46.8624 57.3235 50.1029 55.9268 52.5344 53.4018C54.9676 50.8752 56.3013 47.5235 56.2916 43.9618C56.29 43.0418 57.0101 42.2918 57.9013 42.2902ZM37.3897 42.8217C38.021 42.17 39.0414 42.17 39.6727 42.8217L43.2958 46.5617L53.4628 34.5683C54.0505 33.88 55.0693 33.8067 55.741 34.4133C56.4111 35.0183 56.4789 36.0717 55.8912 36.765L44.5891 50.0983C44.2952 50.445 43.8754 50.65 43.4282 50.6667H43.3749C42.947 50.6667 42.5369 50.4917 42.2334 50.1783L37.3897 45.1783C36.7583 44.5267 36.7583 43.4733 37.3897 42.8217Z" fill="#231F20"/>
<mask id="mask0_12_451" style="mask-type:luminance" maskUnits="userSpaceOnUse" x="27" y="27" width="33" height="34">
<path fill-rule="evenodd" clip-rule="evenodd" d="M57.9013 42.2902H57.9062C58.7958 42.2902 59.5191 43.0335 59.5207 43.9518C59.5337 48.4035 57.8658 52.5952 54.8239 55.7518C51.7837 58.9085 47.7343 60.6535 43.4217 60.6668H43.3749C39.0785 60.6668 35.0372 58.9468 31.9905 55.8185C28.9325 52.6802 27.242 48.5002 27.2291 44.0485C27.2162 39.5952 28.884 35.4052 31.9259 32.2485C34.9662 29.0918 39.0155 27.3468 43.3281 27.3335C44.6117 27.3535 45.9195 27.4868 47.1724 27.7968C48.0378 28.0135 48.5723 28.9135 48.3624 29.8085C48.1541 30.7018 47.2774 31.2518 46.4152 31.0385C45.4125 30.7885 44.3485 30.6835 43.3378 30.6668C39.8874 30.6768 36.6469 32.0735 34.2154 34.5985C31.7822 37.1235 30.4486 40.4768 30.4582 44.0385C30.4679 47.6002 31.821 50.9435 34.267 53.4552C36.7051 55.9568 39.9375 57.3335 43.3749 57.3335H43.4121C46.8624 57.3235 50.1029 55.9268 52.5344 53.4018C54.9676 50.8752 56.3013 47.5235 56.2916 43.9618C56.29 43.0418 57.0101 42.2918 57.9013 42.2902ZM37.3897 42.8217C38.021 42.17 39.0414 42.17 39.6727 42.8217L43.2958 46.5617L53.4628 34.5683C54.0505 33.88 55.0693 33.8067 55.741 34.4133C56.4111 35.0183 56.4789 36.0717 55.8912 36.765L44.5891 50.0983C44.2952 50.445 43.8754 50.65 43.4282 50.6667H43.3749C42.947 50.6667 42.5369 50.4917 42.2334 50.1783L37.3897 45.1783C36.7583 44.5267 36.7583 43.4733 37.3897 42.8217Z" fill="white"/>
</mask>
<g mask="url(#mask0_12_451)">
<rect x="24" y="24" width="40" height="40" fill="white"/>
</g>
</svg>
