<svg width="101" height="100" viewBox="0 0 101 100" fill="none" xmlns="http://www.w3.org/2000/svg">
<rect x="0.5" width="100" height="100" rx="16" fill="#939393" fill-opacity="0.15"/>
<rect x="1" y="0.5" width="99" height="99" rx="15.5" stroke="white" stroke-opacity="0.15"/>
<g clip-path="url(#clip0_3974_31659)">
<path d="M39.5631 65.7062L35.1881 61.329L32.1016 64.4133L39.5631 71.8749L52.6881 58.7499L49.6037 55.6655L39.5631 65.7062Z" fill="white"/>
<path d="M76.75 80.625H68V76.25H76.75V50H68V32.5C67.9974 30.1802 67.0747 27.9561 65.4343 26.3157C63.7939 24.6753 61.5698 23.7526 59.25 23.75V19.375C62.7298 19.3789 66.0659 20.7629 68.5265 23.2235C70.9871 25.6841 72.3711 29.0202 72.375 32.5V45.625H76.75C77.9099 45.6262 79.022 46.0875 79.8422 46.9077C80.6625 47.728 81.1238 48.8401 81.125 50V76.25C81.1238 77.41 80.6625 78.522 79.8422 79.3422C79.022 80.1625 77.9099 80.6238 76.75 80.625Z" fill="white"/>
<path d="M59.25 45.625H54.875V32.5C54.875 29.019 53.4922 25.6806 51.0308 23.2192C48.5694 20.7578 45.231 19.375 41.75 19.375C38.269 19.375 34.9306 20.7578 32.4692 23.2192C30.0078 25.6806 28.625 29.019 28.625 32.5V45.625H24.25C23.0897 45.625 21.9769 46.0859 21.1564 46.9064C20.3359 47.7269 19.875 48.8397 19.875 50V76.25C19.875 77.4103 20.3359 78.5231 21.1564 79.3436C21.9769 80.1641 23.0897 80.625 24.25 80.625H59.25C60.4103 80.625 61.5231 80.1641 62.3436 79.3436C63.1641 78.5231 63.625 77.4103 63.625 76.25V50C63.625 48.8397 63.1641 47.7269 62.3436 46.9064C61.5231 46.0859 60.4103 45.625 59.25 45.625ZM33 32.5C33 30.1794 33.9219 27.9538 35.5628 26.3128C37.2038 24.6719 39.4294 23.75 41.75 23.75C44.0706 23.75 46.2962 24.6719 47.9372 26.3128C49.5781 27.9538 50.5 30.1794 50.5 32.5V45.625H33V32.5ZM59.25 76.25H24.25V50H59.25V76.25Z" fill="white"/>
</g>
<defs>
<clipPath id="clip0_3974_31659">
<rect width="70" height="70" fill="white" transform="translate(15.5 15)"/>
</clipPath>
</defs>
</svg>
