<svg width="433" height="203" viewBox="0 0 433 203" fill="none" xmlns="http://www.w3.org/2000/svg">
<path d="M130.452 6.7168H24.4325C13.3518 6.7168 4.36914 15.6995 4.36914 26.7802V179.677C4.36914 190.758 13.3518 199.74 24.4325 199.74H130.452C141.533 199.74 150.515 190.758 150.515 179.677V26.7802C150.515 15.6995 141.533 6.7168 130.452 6.7168Z" fill="white"/>
<path d="M2.85742 179.881V167.654C2.8567 170.377 3.39238 173.073 4.43387 175.589C5.47536 178.105 7.00226 180.391 8.92736 182.317C10.8525 184.242 13.138 185.77 15.6536 186.812C18.1691 187.854 20.8653 188.391 23.5881 188.391H131.13C136.626 188.386 141.896 186.199 145.78 182.311C149.664 178.422 151.845 173.151 151.844 167.654V179.87C151.844 185.368 149.66 190.641 145.772 194.529C141.884 198.417 136.611 200.601 131.113 200.601H23.5716C18.0782 200.596 12.8112 198.412 8.92736 194.527C5.04349 190.642 2.86034 185.374 2.85742 179.881Z" fill="#E5E5E5"/>
<path d="M131.565 203H24.0231C17.6535 202.988 11.5482 200.452 7.04521 195.947C2.54221 191.442 0.00874687 185.335 0 178.966L0 24.0397C0.00729817 17.6662 2.54239 11.5559 7.04912 7.04912C11.5559 2.54239 17.6662 0.00729817 24.0397 0L131.581 0C137.955 0.00729817 144.065 2.54239 148.572 7.04912C153.079 11.5559 155.614 17.6662 155.621 24.0397V67.834H149.003V24.0397C148.999 19.4176 147.16 14.9864 143.89 11.7197C140.62 8.45292 136.187 6.61794 131.565 6.61795H24.0231C19.4068 6.6267 14.9823 8.46554 11.7196 11.7313C8.45695 14.9971 6.62232 19.4234 6.61795 24.0397V178.966C6.62233 183.585 8.45923 188.014 11.7255 191.28C14.9918 194.546 19.4205 196.383 24.0397 196.388H131.581C136.201 196.383 140.629 194.546 143.896 191.28C147.162 188.014 148.999 183.585 149.003 178.966V154.38H155.621V178.966C155.612 185.341 153.074 191.453 148.564 195.959C144.054 200.465 137.94 202.997 131.565 203Z" fill="#426572"/>
<path d="M33.5527 62.2413V51.4761C33.5527 48.1671 34.4535 45.7442 36.2551 44.2074C38.0566 42.6705 40.406 41.9058 43.3032 41.9131C46.2812 41.9131 48.7244 42.6301 50.6325 44.064C51.5562 44.7407 52.3001 45.6334 52.799 46.664C53.298 47.6946 53.5369 48.8317 53.4948 49.976C53.4948 51.1415 53.2503 51.9338 52.7613 52.3529C52.2723 52.7721 51.4598 52.9817 50.3237 52.9817C48.2391 52.9817 47.1839 52.3456 47.1581 51.0735C47.1613 50.755 47.1484 50.4366 47.1195 50.1194C47.0753 49.7932 46.9939 49.473 46.8769 49.1653C46.7705 48.8261 46.5809 48.519 46.3254 48.2719C45.997 48.0092 45.6231 47.8092 45.2224 47.6818C44.6898 47.5017 44.1299 47.4159 43.5679 47.4281C41.1303 47.4281 39.9115 48.7811 39.9115 51.4871V62.2468C39.9115 64.9565 41.1156 66.3095 43.5238 66.3058C45.932 66.3021 47.1508 64.9491 47.1802 62.2468V60.868H44.7646C44.4905 60.8748 44.2189 60.8134 43.9744 60.6892C43.7299 60.565 43.5201 60.382 43.3638 60.1566C43.0255 59.6517 42.8448 59.0576 42.8448 58.4497C42.8448 57.8419 43.0255 57.2478 43.3638 56.7429C43.511 56.511 43.7148 56.3204 43.956 56.1892C44.1973 56.058 44.468 55.9904 44.7426 55.9928H51.5866C51.8494 55.9798 52.1118 56.0261 52.3543 56.1282C52.5968 56.2304 52.8132 56.3858 52.9874 56.5829C53.3243 56.9709 53.5051 57.4701 53.4948 57.9837V62.2468C53.4948 65.5558 52.5885 67.9787 50.7759 69.5155C48.9634 71.0523 46.5405 71.8244 43.5072 71.8318C40.5034 71.8318 38.0934 71.0597 36.2771 69.5155C34.4609 67.9713 33.5527 65.5466 33.5527 62.2413Z" fill="#426572"/>
<path d="M57.1523 69.6758V43.8052C57.1603 43.5373 57.2333 43.2754 57.3649 43.0419C57.4965 42.8085 57.6828 42.6105 57.9079 42.465C58.4943 42.0706 59.193 41.877 59.8988 41.9135H67.0682C70.1015 41.9135 72.5244 42.6856 74.3369 44.2298C76.1495 45.774 77.0558 48.1969 77.0558 51.4985V62.0156C77.0558 65.3245 76.1495 67.7474 74.3369 69.2843C72.5244 70.8211 70.1015 71.5932 67.0682 71.6005H59.8988C59.193 71.6371 58.4943 71.4435 57.9079 71.0491C57.6783 70.9004 57.489 70.6972 57.3572 70.4576C57.2253 70.2179 57.155 69.9493 57.1523 69.6758ZM63.489 66.0635H67.1013C69.5389 66.0635 70.7577 64.7105 70.7577 62.0045V51.4765C70.7577 48.7705 69.5389 47.4175 67.1013 47.4175H63.489V66.0635Z" fill="#426572"/>
<path d="M81.1152 69.6311V43.8045C81.1165 43.5472 81.175 43.2935 81.2867 43.0616C81.3983 42.8298 81.5601 42.6258 81.7605 42.4644C82.2406 42.0758 82.8479 41.8792 83.4646 41.9129H91.8694C94.7666 41.9129 97.0884 42.6648 98.8348 44.1685C100.581 45.6722 101.462 48.0271 101.476 51.2332V51.4372C101.476 54.6579 100.557 57.0331 98.719 58.5625C96.8807 60.092 94.4633 60.8568 91.4668 60.8568H87.4464V69.6311C87.4464 69.9353 87.3585 70.2331 87.1931 70.4885C87.0277 70.7439 86.792 70.946 86.5144 71.0704C85.8172 71.4046 85.0539 71.5781 84.2808 71.5781C83.5077 71.5781 82.7444 71.4046 82.0473 71.0704C81.7696 70.946 81.5339 70.7439 81.3685 70.4885C81.2032 70.2331 81.1152 69.9353 81.1152 69.6311ZM87.4519 55.987H91.4723C93.9099 55.987 95.1287 54.634 95.1287 51.928V51.4813C95.1287 48.7753 93.9099 47.4223 91.4723 47.4223H87.4519V55.987Z" fill="#426572"/>
<path d="M104.235 69.6315V43.8049C104.237 43.5534 104.289 43.3048 104.387 43.0734C104.486 42.842 104.629 42.6323 104.809 42.4565C104.989 42.2807 105.202 42.1422 105.435 42.049C105.669 41.9558 105.919 41.9096 106.17 41.9133H114.575C121.237 41.9133 124.568 44.8105 124.568 50.6049C124.568 54.8293 122.93 57.5776 119.654 58.8497L124.618 67.8225C124.762 68.0393 124.833 68.2961 124.822 68.556C124.791 69.0008 124.66 69.4328 124.439 69.8197C124.217 70.2066 123.911 70.5382 123.542 70.7896C122.796 71.452 121.838 71.8256 120.84 71.843C120.423 71.8703 120.008 71.7732 119.647 71.5641C119.285 71.3549 118.994 71.0431 118.811 70.6683L113.246 59.8645H110.566V69.6535C110.566 69.9578 110.478 70.2555 110.312 70.5109C110.147 70.7663 109.911 70.9684 109.634 71.0929C108.936 71.4271 108.173 71.6006 107.4 71.6006C106.627 71.6006 105.864 71.4271 105.167 71.0929C104.885 70.9669 104.647 70.7614 104.482 70.5017C104.316 70.242 104.23 69.9395 104.235 69.6315ZM110.571 54.9727H114.592C115.576 55.0404 116.549 54.7286 117.31 54.1013C117.932 53.5204 118.243 52.5516 118.243 51.195C118.243 49.8383 117.932 48.8713 117.31 48.2941C116.544 47.6648 115.564 47.3547 114.575 47.4282H110.555L110.571 54.9727Z" fill="#426572"/>
<path d="M82.4271 89.5801H31.6895V96.198H82.4271V89.5801Z" fill="#426572"/>
<path d="M82.4271 105.551H31.6895V112.169H82.4271V105.551Z" fill="#426572"/>
<path d="M82.4271 121.526H31.6895V128.144H82.4271V121.526Z" fill="#426572"/>
<path d="M152.66 148.563C152.66 148.563 181.69 134.047 181.69 112.274V83.2489L152.66 75.9912L123.629 83.2489V112.28C123.634 134.047 152.66 148.563 152.66 148.563Z" fill="#FBC907"/>
<path d="M181.691 98.4854V110.618C181.691 132.391 152.66 146.907 152.66 146.907C152.66 146.907 123.635 132.391 123.635 110.618V98.4854C123.635 120.258 152.66 134.774 152.66 134.774C152.66 134.774 181.691 120.258 181.691 98.4854Z" fill="#F3A70F"/>
<path d="M152.661 150.364L151.183 149.625C149.925 148.996 120.299 133.924 120.299 110.38V78.7685L152.639 70.6836L184.978 78.7685V110.38C184.978 133.929 155.379 148.985 154.094 149.625L152.661 150.364ZM126.944 83.936V110.408C126.944 127.228 146.98 139.725 152.661 142.946C158.335 139.736 178.382 127.201 178.382 110.408V83.936L152.661 77.5056L126.944 83.936Z" fill="#426572"/>
<path d="M138.013 89.9335L146.561 88.279L152.434 87.1374C153.074 87.016 153.741 86.9333 154.37 86.7624C155.357 86.4976 154.921 86.9719 154.276 86.6355C155.148 87.1098 156.444 87.2477 157.392 87.5124L163.315 89.1669L171.874 91.5769C173.926 92.1284 174.803 88.9628 172.757 88.3837L163.933 85.902C161.12 85.1134 158.015 83.7402 155.109 83.4203C152.352 83.117 148.905 84.4516 146.213 84.97L137.13 86.7293C135.04 87.1319 135.928 90.325 138.013 89.9224V89.9335Z" fill="#F9F9F9"/>
<g opacity="0.5">
<path d="M20.9561 19.8295H40.1316C42.2603 19.8295 42.2659 16.5205 40.1316 16.5205H20.9561C18.8273 16.5205 18.8218 19.8295 20.9561 19.8295Z" fill="#7490A8"/>
<path d="M48.0733 19.8295H95.6894C97.8182 19.8295 97.8237 16.5205 95.6894 16.5205H48.0733C45.9445 16.5205 45.939 19.8295 48.0733 19.8295Z" fill="#7490A8"/>
</g>
<path fill-rule="evenodd" clip-rule="evenodd" d="M401.737 100.953L401.567 104.67L401.229 108.214L400.726 111.759L400.049 115.302L399.204 118.846L398.024 122.057L397.009 125.433L395.659 128.638L394.307 131.679L392.62 134.719L390.932 137.755L388.907 140.457L387.051 143.33L384.855 145.857L382.489 148.39L380.127 150.753L377.763 153.119L375.063 155.313L372.362 157.337L369.493 159.362L366.621 161.052L363.753 162.742L360.546 164.092L357.506 165.613L354.299 166.794L350.922 167.806L347.546 168.65L343.999 169.492L340.454 170L336.91 170.339L333.197 170.673H329.482V173.713H333.365L337.245 173.376L340.959 173.036L344.507 172.533L348.221 171.69L351.766 170.843L355.139 169.662L358.688 168.48L361.895 167.128L365.101 165.443L368.311 163.753L371.348 161.899L374.218 159.87L377.088 157.846L379.79 155.647L382.322 153.119L384.855 150.588L387.217 148.056L389.412 145.184L391.606 142.312L393.464 139.277L395.32 136.404L397.009 133.199L398.529 129.825L399.879 126.614L401.229 123.07L402.244 119.525L403.085 115.976L403.762 112.263L404.266 108.549L404.606 104.833L404.774 100.953H401.737Z" fill="#4B4A8D"/>
<path fill-rule="evenodd" clip-rule="evenodd" d="M332.016 29.5443H335.73L339.273 29.8841L342.987 30.3897L346.365 31.2327L349.91 32.0769L353.119 33.0893L356.494 34.1028L359.7 35.4526L362.739 36.9729L365.778 38.4909L368.816 40.1816L371.688 42.2041L374.218 44.0618L377.088 46.2581L379.623 48.4533L381.983 50.8167L384.178 53.3481L386.375 55.8808L388.398 58.5804L390.425 61.4494L392.113 64.3218L393.804 67.36L395.32 70.3983L396.672 73.4365L397.853 76.6452L398.865 80.0221L399.712 83.2273L400.552 86.7723L401.062 90.1492L401.399 93.6954L401.738 97.4097V100.954H404.775V97.2404L404.607 93.5272L404.1 89.8129L403.592 86.0997L402.919 82.5524L401.905 79.0074L400.726 75.8022L399.542 72.2549L398.19 69.0473L396.504 65.842L394.817 62.6322L392.958 59.7621L390.932 56.7238L388.907 54.0242L386.543 51.3223L384.178 48.7896L381.648 46.2581L378.944 43.8948L376.243 41.6984L373.376 39.5056L370.336 37.6478L367.468 35.7913L364.259 34.1028L360.881 32.5837L357.676 31.2327L354.129 29.8841L350.754 29.0364L347.04 28.0263L343.327 27.3514L339.612 26.8435L335.898 26.5072L332.016 26.3379V29.5443Z" fill="#4B4A8D"/>
<path fill-rule="evenodd" clip-rule="evenodd" d="M260.606 98.424L260.775 94.8778L261.111 91.3352L261.448 87.789L262.295 84.244L263.137 80.866L264.152 77.6596L265.334 74.2839L266.515 71.2422L268.033 68.2051L269.554 65.1657L271.241 62.2967L273.268 59.4278L275.124 56.7258L277.318 54.1932L279.511 51.4935L281.877 49.1313L284.407 46.935L286.94 44.7421L289.642 42.7128L292.513 40.6892L295.382 39.0008L298.42 37.3112L301.459 35.7932L304.499 34.4422L307.706 33.2606L311.082 32.2482L314.291 31.404L317.835 30.7291L321.38 30.053L324.926 29.7167L328.471 29.5463H332.016V26.3399H328.302L324.588 26.6762L320.873 27.0148L317.159 27.5192L313.782 28.3657L310.238 29.21L306.693 30.3916L303.315 31.571L300.11 32.9243L296.9 34.6115L293.862 36.3L290.655 38.1566L287.954 40.1836L285.086 42.206L282.383 44.5705L279.851 46.935L277.318 49.4676L274.955 51.9968L272.76 54.8692L270.733 57.5712L268.709 60.6094L266.852 63.4784L265.334 66.6859L263.644 69.8935L262.295 73.2715L261.111 76.6472L260.099 80.0241L259.255 83.7361L258.409 87.2822L257.906 90.9965L257.566 94.7097V98.424H260.606ZM329.484 170.675L325.939 170.51L322.394 170.172L318.846 169.495L315.473 168.99L312.095 167.979L308.72 166.962L305.509 165.951L302.304 164.599L299.265 163.252L296.228 161.562L293.188 159.704L290.487 157.848L287.784 155.824L285.086 153.796L282.551 151.432L280.19 149.07L277.993 146.537L275.797 144.005L273.775 141.303L271.748 138.435L270.06 135.565L268.373 132.523L267.019 129.488L265.501 126.448L264.32 123.072L263.477 119.862L262.462 116.488L261.787 112.942L261.281 109.398L260.775 105.684L260.606 102.138V98.424H257.566V102.308L257.735 106.018L258.073 109.902L258.749 113.446L259.424 116.996L260.266 120.71L261.448 124.084L262.632 127.46L263.984 130.835L265.671 134.045L267.358 137.081L269.216 140.121L271.241 143.163L273.268 146.028L275.461 148.731L277.993 151.264L280.526 153.796L283.059 156.159L285.758 158.357L288.63 160.381L291.668 162.406L294.537 164.265L297.745 165.951L300.953 167.47L304.328 168.821L307.706 170.003L311.253 171.184L314.797 172.031L318.341 172.705L322.055 173.209L325.769 173.548L329.484 173.716V170.675ZM428.748 107.539L428.409 112.603L427.567 117.668L426.724 122.564L425.542 127.29L424.022 131.851L422.501 136.407L420.645 140.799L418.787 145.186L416.423 149.409L414.062 153.457L411.36 157.51L408.658 161.223L405.622 164.768L402.58 168.313L399.373 171.692L395.83 174.728L392.284 177.77L388.736 180.641L384.686 183.338L380.803 185.701L376.752 188.064L372.363 190.093L368.144 191.948L363.754 193.637L359.195 194.988L354.637 196.17L349.742 197.182L345.015 198.029L340.12 198.532L335.225 198.701H325.094L324.926 201.743L330.158 202.077L335.393 201.909L340.455 201.569L345.52 201.065L350.417 200.387L355.141 199.21L360.04 198.029L364.597 196.508L369.324 194.818L373.714 192.96L378.104 190.766L382.324 188.572L386.543 185.871L390.426 183.168L394.308 180.302L398.025 177.261L401.4 173.885L404.945 170.51L408.154 166.962L411.193 163.083L414.062 159.199L416.762 155.146L419.127 150.929L421.489 146.537L423.514 142.15L425.369 137.59L427.061 132.863L428.579 128.137L429.761 123.072L430.604 118.176L431.449 112.942L431.956 107.708L428.748 107.539ZM338.598 3.38022L343.495 3.88583L348.562 4.56074L353.287 5.57311L358.182 6.75478L362.74 8.10805L367.299 9.79303L371.689 11.6496L376.077 13.6789L380.128 15.873L384.179 18.2352L388.061 20.9383L391.778 23.6391L395.492 26.6762L398.866 29.7167L402.245 33.0913L405.282 36.6386L408.32 40.1836L411.193 43.8968L413.724 47.7781L416.088 51.831L418.447 55.8828L420.309 60.2708L422.164 64.4907L423.854 68.88L425.203 73.4385L426.552 78.1675L427.396 82.893L428.242 87.789L428.748 92.6838L428.917 97.5798V102.644L428.748 107.539L431.956 107.708L432.296 102.644L432.122 97.4117L431.787 92.3452L431.281 87.2822L430.604 82.3874L429.591 77.4914L428.409 72.5954L426.724 68.0369L425.034 63.3091L423.176 58.9222L421.152 54.5329L418.956 50.1403L416.255 46.0908L413.724 42.0402L410.685 38.1566L407.645 34.4422L404.44 31.0677L401.062 27.5192L397.518 24.3151L393.805 21.2746L389.918 18.4045L385.866 15.7037L381.818 13.171L377.429 10.8077L373.038 8.78296L368.479 6.92638L363.754 5.0698L358.857 3.71653L353.962 2.53716L348.899 1.52249L343.833 0.847579L338.768 0.34082L338.598 3.38022Z" fill="#4B4A8D"/>
<path fill-rule="evenodd" clip-rule="evenodd" d="M234.268 94.3712L234.607 89.3047L235.45 84.4088L236.294 79.5139L237.645 74.7873L238.996 70.0594L240.518 65.502L242.374 61.1128L244.399 56.7236L246.762 52.6707L249.127 48.4531L251.827 44.5683L254.528 40.8563L257.566 37.309L260.774 33.597L263.983 30.3894L267.527 27.1796L271.072 24.1413L274.785 21.4417L278.836 18.7386L282.722 16.2071L286.772 14.013L290.992 11.9872L295.381 10.1294L299.938 8.44214L304.327 7.09232L309.056 5.9095L313.951 4.72783L318.677 4.05292L323.572 3.54731L328.47 3.21101H333.537L338.597 3.37801L338.767 0.338608L333.537 0L328.301 0.169304L323.236 0.338608L318.17 1.01467L313.276 1.69073L308.38 2.70195L303.652 4.05292L298.927 5.57089L294.369 7.26163L289.81 9.11821L285.421 11.3111L281.032 13.5074L276.979 16.0401L273.098 18.7386L269.215 21.778L265.333 24.8162L261.787 28.0261L258.409 31.5688L255.203 35.1161L252.164 38.8292L249.293 42.8799L246.593 46.9328L244.062 50.9857L241.698 55.3726L239.503 59.7618L237.645 64.4885L235.958 69.0471L234.437 73.9453L233.256 78.8402L232.244 83.9032L231.569 88.9673L231.062 94.1996L234.268 94.3712ZM325.093 198.699L320.031 198.192L315.133 197.348L310.237 196.506L305.508 195.155L300.783 193.804L296.394 192.284L291.834 190.425L287.618 188.4L283.396 186.207L279.344 183.675L275.291 181.141L271.577 178.271L268.032 175.404L264.489 172.194L261.111 168.988L258.072 165.443L255.034 161.73L252.164 158.016L249.63 154.132L247.1 150.079L244.734 146.026L242.88 141.81L240.854 137.417L239.163 133.03L237.815 128.469L236.632 123.742L235.622 119.017L234.774 114.29L234.268 109.226L234.101 104.331V99.4342L234.268 94.3712L231.062 94.1996L230.725 99.4342L230.893 104.499L231.23 109.566L231.736 114.799L232.58 119.695L233.592 124.421L234.774 129.316L236.294 134.042L237.984 138.6L240.009 143.161L242.035 147.546L244.399 151.77L246.931 155.821L249.63 159.87L252.501 163.753L255.709 167.468L258.918 171.012L262.295 174.387L265.837 177.768L269.72 180.804L273.603 183.675L277.654 186.377L281.876 188.908L286.096 191.103L290.655 193.296L295.214 195.155L299.938 196.845L304.666 198.36L309.731 199.542L314.627 200.559L319.858 201.233L324.925 201.741L325.093 198.699Z" fill="#4B4A8D"/>
<path fill-rule="evenodd" clip-rule="evenodd" d="M253.513 90.6564L255.369 88.9669L254.021 87.4466L251.995 89.1362L251.32 88.6283L249.97 88.2919L248.451 87.9556L246.256 87.7863H242.542L241.193 88.1226L240.009 88.4613L239.336 89.1362L238.658 89.8122L238.322 90.9927L238.152 92.1744V93.5254L238.322 94.5366L238.998 95.5501L239.84 96.3932L240.685 96.7318L242.035 97.2374L243.722 97.4067L245.748 97.5748H249.293L250.644 97.2385L251.826 96.9022L252.67 96.2273L253.345 95.382L253.681 94.198L253.85 93.0198V91.6688L253.681 91.1609L253.513 90.6564ZM251.655 92.1744V93.0198L251.488 93.6935L251.15 94.031L250.644 94.3696L249.969 94.5366L248.282 94.8729L245.916 94.7048L243.386 94.5354L241.529 94.1968L240.854 93.8605L240.518 93.5242L240.178 93.0186V92.3403L240.346 91.6676L240.685 91.3313L241.193 90.8234L242.035 90.6564L242.88 90.4848H243.891L246.593 90.6564L248.45 90.8234L249.969 91.1597L249.293 91.6676L250.644 93.1879L251.655 92.1744ZM239.671 79.0056L249.629 81.7075L250.813 81.8757L251.826 82.045L252.837 81.8757L253.682 81.7075L254.357 81.2019L255.033 80.3566L255.539 79.5123L255.875 78.3307L256.044 77.149V75.9673L255.708 74.9527L255.033 74.2801L254.528 73.604L253.852 73.2677L253.01 72.7598L251.994 72.5916L242.034 69.8897L241.359 72.4235L251.15 75.1243L252.331 75.4606L253.177 76.1366L253.513 76.3059L253.682 76.6434V77.149L253.513 77.6558L253.346 78.1637L253.177 78.6693L252.837 78.8386L252.331 79.1749H251.488L250.137 79.0056L240.344 76.3059L239.671 79.0056ZM257.904 70.5657L259.422 68.2001L256.215 65.8391L257.733 62.7985L261.447 63.979L262.8 61.2794L247.945 57.3958L246.089 60.9408L257.904 70.5657ZM254.357 64.4869L249.292 60.6056L255.539 62.2929L254.357 64.4869ZM264.488 57.3981L269.214 50.9841L267.19 49.6331L263.982 53.5145L254.021 46.087L252.501 48.2799L264.488 57.3981ZM271.746 47.438L273.773 45.4132L262.63 35.4508L260.604 37.4767L271.746 47.438ZM279.343 41.3603L281.366 39.5037L272.928 30.0492L275.29 28.0245L273.773 26.3361L266.85 32.4114L268.538 34.2691L270.903 32.0751L279.343 41.3603ZM289.64 33.4261L292.173 31.9058L288.797 26.3361L287.952 17.0509L285.252 18.4007L286.264 24.3113L281.366 20.764L278.668 22.2831L286.602 27.6859L289.64 33.4261ZM304.666 26.5054L307.368 25.66L307.029 21.7764L310.238 20.9345L311.925 24.4795L314.964 23.6364L307.704 10.1278L304.159 11.1414L304.666 26.5054ZM306.858 19.5823L306.354 13.1661L309.392 18.9063L306.858 19.5823ZM317.833 17.2202V17.7258L318 18.0621L318.17 19.2437L318.508 20.088L318.844 20.9345L319.352 21.6071L319.857 22.115L320.702 22.4536L321.715 22.6217H322.728L323.744 22.4536L324.586 22.2831L325.429 21.7764L325.937 21.2708L326.442 20.5947L326.781 19.9186L326.949 19.0767L327.118 18.0621L326.781 16.5441L326.609 16.0385L326.273 15.5329L325.768 15.0238L325.429 14.5182L323.911 13.6751L322.392 12.6616L321.715 12.3242L321.04 11.8186L320.702 11.3095L320.533 10.6369V10.1278L320.872 9.62223L321.378 9.28477L321.884 9.11662H322.728L323.235 9.62223L323.571 10.2971L323.744 11.3095V11.8186L326.442 11.6458V10.9732L326.273 9.96083L325.937 9.11662L325.601 8.27125L325.093 7.76565L324.417 7.26004L323.744 7.09074L322.728 6.92258L321.715 6.75098L320.872 6.92258L320.03 7.26004L319.352 7.59634L318.676 8.10425L318.339 8.60986L318 9.45292L317.833 10.1278V11.1425L318 12.4935L318.339 12.9991L318.676 13.5058L319.691 14.1808L321.04 15.1931L322.392 16.0385L323.235 16.7134L323.744 17.2202L324.08 17.7258L324.246 18.4007V19.2437L323.744 19.7516L323.235 20.088L322.392 20.2584L321.715 20.088L321.378 19.9186L321.211 19.7516L321.04 19.0767V17.8951L320.872 17.0509L317.833 17.2202ZM331.844 16.5441V17.0509L331.677 17.5565V18.5677L331.844 19.5823L332.183 20.4254L332.689 21.1003L333.196 21.7764L334.037 22.115L334.883 22.4536L335.897 22.6217H337.079L337.922 22.4536L338.597 22.115L339.271 21.6071L339.778 20.9345L340.284 20.2584L340.453 19.413L340.624 18.4007V16.8804L340.453 16.2055L340.118 15.6999L339.271 14.6864L338.259 13.6751L336.572 12.6616L335.897 12.1549L335.391 11.6458L335.052 10.9732V9.78923L335.391 9.28477L335.729 9.11662H337.244L337.754 9.62223L338.091 10.2971V11.8186L340.624 11.9856L340.792 11.6458L340.959 11.3095L340.792 10.2971L340.624 9.45292L340.284 8.60986L339.778 8.10425L339.271 7.59634L338.431 7.26004L337.584 6.92258L336.572 6.75098H335.729L334.883 6.92258L334.211 7.26004L333.536 7.59634L333.025 8.10425L332.689 8.77916L332.352 9.62223V11.9856L332.521 12.4935L332.859 12.9991L333.702 14.0114L334.883 14.8557L336.234 16.0385L337.079 16.7134L337.584 17.2202L337.922 17.7258V18.4007L337.754 19.2437L337.418 19.7516L336.739 20.088L335.897 20.2584L335.223 19.9186L335.052 19.7516L334.714 19.5823L334.546 18.737V17.7258L334.714 16.7134L331.844 16.5441ZM349.401 8.44056L346.531 18.2314L346.196 19.5823L346.026 20.5947L346.196 21.6071L346.364 22.2831L346.871 23.1274L347.545 23.6353L348.56 24.1397L349.741 24.4783L350.921 24.8146H351.934L352.946 24.4783L353.792 23.8023L354.466 23.4637L354.804 22.791L355.139 21.9457L355.479 21.1003L358.347 10.9732L355.816 10.1278L352.946 19.9186L352.611 21.2708L351.934 21.9457L351.598 22.2831L351.259 22.4536H350.921L350.416 22.2831L349.401 21.7764L349.063 21.6071L348.898 21.1003V20.088L349.233 18.737L351.934 9.28477L349.401 8.44056ZM358.855 26.8417L361.386 27.854L364.427 21.7764L365.1 22.2831L366.452 22.958L366.79 23.2967L366.958 23.6353L367.128 24.1397V24.4783L366.958 25.1532L366.79 25.6588L366.621 26.1679L365.949 27.5154L365.441 28.5301L365.101 29.5425L368.143 31.0627L367.975 29.8811L368.312 28.6971L369.155 27.1768L369.663 25.6588L369.83 24.6476V24.1397L369.663 23.8023L369.323 23.2967L368.816 22.791L369.83 22.958L370.336 22.791L370.676 22.6217L371.519 21.9457L372.194 20.9345L372.529 19.9198L372.701 19.0779V18.4018L372.529 17.7269L372.194 17.052L371.688 16.5464L371.013 15.8715L370.168 15.5352L365.441 13.1695L358.855 26.8417ZM365.1 20.088L367.129 16.2055L368.31 16.8804L369.153 17.386L369.493 17.7246L369.828 17.8939L369.998 18.2302V18.7358L369.661 19.7505L368.986 20.5936L368.476 21.0992L367.633 21.2685L366.62 20.9322L365.1 20.088ZM371.517 32.9205L378.102 36.9711L379.622 34.9452L375.229 32.2444L377.257 28.6982L381.307 31.0639L382.489 29.0345L378.607 26.6724L380.464 23.6353L384.684 26.3361L385.865 24.1397L379.622 20.2584L371.517 32.9205ZM381.307 40.6854L384.177 43.218L385.36 44.2304L386.372 45.0746L387.05 45.2428H388.06L388.735 45.0746L390.087 44.5667L391.267 43.5566L392.448 42.2034L393.802 40.6854L395.15 39.3344L395.995 38.1539L396.501 36.9722L396.669 36.2973V35.4531L396.501 34.7805L396.163 34.1044L395.488 33.4295L394.643 32.5853L391.435 29.5459L381.307 40.6854ZM384.854 40.8547L391.944 33.0875L392.788 33.5954L393.628 34.6077L393.801 35.2827L393.628 36.1246L393.293 37.3062L392.448 38.3198L391.435 39.5014L390.255 40.6831L389.243 41.5262L388.397 42.2011L387.554 42.5397L387.05 42.7078L386.542 42.5397L385.865 41.6955L384.854 40.8547ZM395.828 56.2153L397.344 58.4104L403.084 55.0347L405.28 59.0854L407.304 57.9037L404.943 53.8508L408.153 51.993L410.683 56.3857L412.708 55.0347L408.825 48.2799L395.828 56.2153ZM401.566 66.8526L402.918 69.3818L416.421 62.969L415.24 60.6056L401.566 66.8526ZM405.448 73.2677L406.123 75.8003L412.708 74.1107L413.048 74.9527L413.215 76.3059V76.8115L413.048 77.3172L412.879 77.6546L412.54 77.9932L411.359 78.3295L411.019 78.4988L409.501 78.8374L408.321 79.1737L407.306 79.8498L408.154 82.8881L408.491 82.5494L408.996 82.2131L410.179 81.5371L411.868 81.0315L413.216 80.5259L414.23 80.0203L414.568 79.8509L414.908 79.3453V78.1648L415.075 78.5011L415.414 79.0067L415.749 79.176L416.255 79.3453L417.27 79.5135L418.622 79.3453L419.463 79.0067L420.308 78.5011L420.814 78.1648L421.319 77.4899L421.487 76.815L421.654 76.1401L421.487 75.1277L421.318 74.2801L420.135 69.2159L405.448 73.2677ZM414.732 73.604L418.787 72.4235L419.126 73.7721L419.293 74.7868L419.126 75.631L418.956 75.9673L418.788 76.3059L417.607 76.6423L416.764 76.8115L415.921 76.6423L415.415 76.1366L414.91 75.1243L414.732 73.604ZM409.163 86.6035L409.333 89.3032L422.839 88.4601L409.5 92.0051L409.671 93.6935L423.175 95.8887L409.838 96.5636L410.008 99.2644L424.864 98.4202L424.693 94.031L414.732 92.513L424.527 89.9781L424.187 85.9275L409.163 86.6035Z" fill="#4B4A8D"/>
<path fill-rule="evenodd" clip-rule="evenodd" d="M327.625 167.468L344.17 139.277V151.601L327.625 179.283L314.627 162.064V151.601L327.625 167.468ZM309.731 188.401V187.728L309.562 187.22L309.056 186.88H297.745L297.408 187.22V189.413L297.576 189.753L298.081 189.921H311.925L312.769 190.091L313.615 190.259L314.121 190.764L314.627 191.104L314.796 191.61L315.134 192.453V193.131L315.302 199.373L314.963 200.559L314.627 201.063L314.291 201.402L313.782 201.741L313.109 201.907L311.589 202.243H295.718L294.536 202.075L293.524 201.567L292.68 201.063L292.174 200.385L291.834 199.542L291.667 198.53L291.498 197.348V195.998H297.408V197.011L297.576 197.348L297.913 197.519H309.223L309.562 197.348L309.731 196.845V194.986L309.562 194.816L309.223 194.647L308.72 194.477H293.693L293.018 194.309L292.513 193.975L292.174 193.635L291.834 192.958L291.667 192.453L291.498 191.776V185.195L291.667 184.352L291.834 183.675L292.007 183.166L292.513 182.832L292.849 182.493L293.355 182.324L294.536 182.155H311.082L312.769 182.324L313.445 182.663L313.951 183.166L314.458 183.506L314.796 184.183L315.134 185.025L315.302 186.037V188.401H309.731ZM359.194 188.401V187.728L359.026 187.22L358.689 186.88H347.375L347.04 187.22V189.413L347.209 189.753L347.547 189.921H361.559L362.402 190.091L363.077 190.259L363.754 190.764L364.089 191.104L364.429 191.61L364.597 192.453L364.764 193.131V199.373L364.429 200.559L364.26 201.063L363.921 201.402L363.416 201.741L362.739 201.907L361.05 202.243H345.182L344 202.075L343.158 201.567L342.315 201.063L341.805 200.385L341.3 199.542L341.133 198.53V195.998H347.04V197.348L347.547 197.519H358.857L359.026 197.348L359.194 196.845V194.986L359.026 194.816L358.857 194.647L358.349 194.477H343.327L342.652 194.309L342.143 193.975L341.805 193.635L341.468 192.958L341.133 192.453V184.352L341.3 183.675L341.637 183.166L341.975 182.832L342.48 182.493L342.987 182.324L344.17 182.155H360.546L362.236 182.324L362.909 182.663L363.583 183.166L364.089 183.506L364.429 184.183L364.764 185.025L364.934 186.037V188.401H359.194ZM322.055 196.672V187.559L322.224 187.05L322.393 186.88L322.56 186.716H334.038L334.212 187.05L334.378 188.57H339.948V186.208L339.78 185.195L339.444 184.352L339.273 183.675L338.767 183.166L338.092 182.832L337.42 182.493L335.73 182.155H319.183L318.002 182.493L317.665 182.663L317.159 183.001L316.821 183.336L316.653 184.014L316.145 185.365V198.361L316.317 199.038L316.653 199.882L316.989 200.559L317.329 201.063L317.835 201.402L318.678 201.741L319.354 202.075L320.198 202.243L336.74 202.075L338.092 201.741L338.767 201.402L339.105 200.894L339.444 200.559L339.613 200.05L339.948 198.53V190.595H328.132V194.477H333.703L334.038 194.647L334.378 194.816V196.845L334.212 197.348L333.703 197.519H322.898L322.393 197.18L322.055 196.672ZM307.537 92.1762L305.68 92.0069L304.836 91.6706L304.16 91.5001L303.652 90.9945L303.146 90.1492L302.809 89.3049V58.9201L303.146 57.9055L303.652 57.2294L304.327 56.7238L305.006 56.5545L305.849 56.3875L307.537 56.217V54.8672H289.642V56.217L291.331 56.3875L292.174 56.5545L292.849 56.7238L293.355 57.3998L293.861 58.0748L294.2 58.9201L294.369 60.2688V88.1233L294.2 89.3049L293.861 90.1492L293.524 90.9945L293.018 91.5001L292.344 91.6706L291.498 92.0069L289.642 92.1762V93.6953H307.537V92.1762ZM333.537 66.3453V53.8525H332.016L331.845 54.7002L331.509 55.2058L331.172 55.5421L330.325 55.7114H329.822L329.143 55.5421L327.458 54.8672L325.094 54.1911L323.745 54.0241L322.224 53.8525L320.534 54.0241L319.016 54.1911L317.665 54.7002L316.317 55.2058L315.302 55.8807L314.458 56.5545L313.615 57.3998L312.938 58.2441L312.433 59.0871L312.094 60.1018L311.42 61.9584L311.082 63.8138L310.913 65.3329L311.082 66.3453V67.6963L311.42 69.0472L312.094 70.5675L313.109 72.2548L313.951 73.0979L314.627 74.1125L315.809 74.9544L316.821 75.8021L318.171 76.6452L319.858 77.6575L323.236 79.5141L325.602 80.6946L326.444 81.3707L327.458 82.0468L327.962 82.891L328.471 83.9033L328.807 85.0839L328.976 86.2655L328.807 87.787L328.64 88.7982L328.132 89.8128L327.289 90.9945L326.782 91.5001L326.107 91.8387L325.43 92.1762L324.587 92.5148L323.573 92.6818L322.393 92.8511L321.213 92.6818L320.198 92.5148L319.183 92.1762L318.171 91.6706L317.329 91.1615L316.484 90.4855L315.809 89.6435L315.134 88.7982L313.951 86.9439L313.109 84.9146L312.433 82.7217L312.094 80.5276H310.576V94.8758H312.094V94.0328L312.264 93.5272L312.769 93.0216L313.109 92.8511H314.121L314.963 93.1897L316.653 93.6953L317.835 94.1998L319.183 94.5384L320.534 94.7077L322.224 94.8758L323.912 94.7077L325.602 94.5384L326.951 94.1998L328.302 93.6953L329.483 93.0216L330.497 92.3432L331.509 91.5001L332.184 90.6582L333.026 89.8128L333.537 88.7982L334.547 86.7723L335.053 84.7476L335.225 82.7217L335.053 80.5276L334.547 78.5018L333.872 76.8145L333.026 75.4624L332.016 74.2818L331.172 73.2695L330.158 72.4253L329.483 72.0878L321.716 67.8656L319.183 66.3453L318.171 65.5022L317.665 64.6603L317.159 63.982L316.821 63.14L316.653 62.2947L316.484 61.113L316.653 59.762L316.989 58.7508L317.665 57.7385L318.34 56.8931L319.183 56.3875L320.031 55.8807L321.041 55.7114L322.055 55.5421L323.236 55.7114L324.247 55.8807L325.263 56.217L326.107 56.7238L326.951 57.2294L327.625 57.9055L329.143 59.4257L330.158 61.113L331.172 62.9707L331.678 64.6603L332.184 66.3453H333.537ZM355.987 55.7114L357.339 55.8807L358.522 56.217L359.534 56.7238L360.546 57.3987L361.221 58.4111L362.062 59.4246L362.57 60.6063L363.245 61.7879L363.753 63.3059L364.088 64.6592L364.596 67.8656L364.933 71.0743V76.4747L364.763 79.346L364.428 82.3854L363.753 85.4236L363.245 86.9439L362.739 88.2926L362.062 89.4754L361.05 90.6571L360.04 91.499L358.857 92.1739L357.507 92.6795L355.987 92.8488L354.469 92.6795L353.119 92.1739L351.936 91.499L350.924 90.6571L350.081 89.4754L349.235 88.2926L348.73 86.9439L348.224 85.4236L347.716 83.9033L347.379 82.3854L347.044 79.346V76.4747L346.872 74.2818L347.04 71.0743L347.208 67.8656L347.885 64.6592L348.726 61.7879L349.232 60.6063L349.909 59.4246L350.752 58.4111L351.597 57.3987L352.61 56.7238L353.622 56.217L354.803 55.8807L355.987 55.7114ZM355.987 53.8525L354.129 54.0241L352.442 54.1911L350.586 54.7002L348.899 55.3728L347.376 56.0477L345.858 57.0624L344.509 58.2441L343.159 59.4257L341.976 60.7744L340.961 62.464L339.949 63.982L339.274 65.842L338.599 67.8656L338.093 69.8915L337.925 72.0878L337.755 74.2818L337.923 76.4747L338.091 78.6711L338.597 80.6946L339.102 82.5512L339.777 84.4078L340.792 86.0985L341.804 87.6177L342.985 89.1356L344.168 90.3173L345.518 91.499L347.038 92.5136L348.725 93.3555L350.415 94.0316L352.272 94.3702L354.125 94.7065L355.983 94.8747L358.01 94.7065L359.866 94.3702L361.555 94.0316L363.243 93.3555L364.932 92.5136L366.45 91.499L367.802 90.3173L368.985 89.1356L370.163 87.6177L371.178 86.0985L372.19 84.4078L372.865 82.5512L373.373 80.6946L373.879 78.6711L374.046 76.4747L374.218 74.2818L374.05 72.0878L373.883 69.8915L373.378 67.8656L372.703 65.842L372.026 63.982L371.013 62.464L370.001 60.7744L368.816 59.4257L367.468 58.2441L366.116 57.0624L364.598 56.0477L363.078 55.3728L361.388 54.7002L359.701 54.1911L357.843 54.0241L355.987 53.8525ZM284.07 136.914L286.771 136.406L289.473 135.901L291.833 135.055L294.199 134.043L296.226 132.692L298.08 131.51L299.77 129.991L301.29 128.47L302.469 126.786L303.651 125.095L304.666 123.242L305.508 121.382L306.016 119.527L306.354 117.499L306.691 115.645L306.858 113.62L306.691 111.252L306.521 108.889L306.185 107.035L305.678 105.176L305.003 103.49L304.326 102.137L303.483 100.956L302.641 99.9446L301.793 99.0992L300.783 98.2527L299.771 97.7471L298.756 97.2403L297.914 96.904L296.9 96.7347L295.043 96.5654H293.355L292.006 96.904L290.655 97.5766L289.475 98.0845L288.46 98.9287L287.449 99.773L286.603 100.784L285.927 101.797L284.916 103.991L284.24 106.185L283.904 108.044L283.734 109.394V111.249L284.071 112.938L284.24 114.289L284.747 115.471L285.255 116.651L285.759 117.495L286.436 118.51L287.111 119.184L287.784 119.692L288.629 120.196L290.149 120.874L291.834 121.209L293.188 121.377H294.536L295.718 121.209L296.733 120.874L298.081 120.367L297.408 122.391L296.733 124.081L296.057 125.771L295.382 127.117L294.538 128.468L293.694 129.65L292.85 130.667L292.008 131.508L290.994 132.351L289.981 133.028L288.122 134.04L286.098 134.883L284.072 135.39V136.914H284.07ZM291.667 106.186V103.148L291.834 101.631L292.006 100.449L292.512 99.4344L293.018 98.7594L293.86 98.2527L294.875 98.0857L295.886 98.2527L296.393 98.422L296.732 98.7594L297.068 99.2662L297.406 99.773L298.08 101.291L298.419 103.319L298.588 105.852L298.755 109.057V112.939L298.588 115.643L298.25 118.174V118.343L298.08 118.512L297.575 118.677L296.226 118.846H295.55L294.875 118.677L294.368 118.343L293.86 118.004L293.524 117.497L293.188 116.992L292.512 115.641L292.173 113.783L291.834 111.589L291.667 109.225V106.186ZM324.587 123.241V126.106L324.249 128.639L324.082 130.668L323.745 132.183V133.029L323.237 134.041L322.731 134.546L322.225 134.886L321.717 135.054L321.042 135.222L320.199 135.054L319.355 134.546L318.848 133.704L318.343 132.353L317.837 130.668L317.668 128.639L317.498 126.275V106.186L317.668 104.161L317.837 102.306L318.343 100.616L319.017 99.2662L319.355 98.7594L319.859 98.422L320.367 98.0857H321.041L321.885 98.2527L322.729 98.7594L323.236 99.6037L323.744 100.953L324.08 102.642L324.417 104.67L324.586 107.202L324.587 123.241ZM309.395 116.994L309.563 119.186L309.732 121.211L310.071 123.07L310.239 124.924L310.745 126.783L311.42 128.468L312.094 129.988L312.769 131.339L313.614 132.52L314.457 133.702L315.471 134.544L316.483 135.39L317.664 136.064L318.677 136.572L319.857 136.91H322.392L323.743 136.572L324.752 136.064L325.936 135.221L326.948 134.38L327.959 133.363L328.805 132.181L329.48 130.83L330.322 129.484L330.999 127.794L331.506 126.274L331.842 124.588L332.181 122.729L332.518 120.875L332.686 119.016V116.992L332.518 114.628L332.35 112.261L332.012 110.068L331.507 108.044L331.169 106.185L330.494 104.498L329.65 102.978L328.975 101.46L327.961 100.448L327.119 99.4332L326.106 98.4208L325.093 97.7459L324.08 97.2392L323.067 96.9029L322.055 96.5643H320.031L319.016 96.9029L318.002 97.2392L317.16 97.7459L315.979 98.4208L315.135 99.2651L314.123 100.108L313.277 101.459L312.435 102.64L311.759 104.159L311.084 105.849L310.579 107.703L310.072 109.727L309.733 112.095L309.564 114.459L309.395 116.994ZM350.417 123.241L350.246 126.106L350.079 128.639L349.742 130.668L349.574 132.183L349.234 133.029L348.899 134.041L348.562 134.546L348.054 134.886L347.376 135.054L346.872 135.222L345.857 135.054L345.014 134.546L344.509 133.704L344.001 132.353L343.663 130.668L343.328 128.639L343.16 126.275V106.186L343.328 104.161L343.663 102.306L344.001 100.616L344.678 99.2662L345.015 98.7594L345.521 98.422L346.198 98.0857H346.873L347.548 98.2527L348.393 98.7594L348.899 99.6037L349.403 100.953L349.911 102.642L350.079 104.67L350.246 107.202L350.417 110.239V123.241ZM335.225 116.994V119.186L335.393 121.211L335.56 123.07L336.065 124.924L336.573 126.783L337.079 128.468L337.754 129.988L338.597 131.339L339.272 132.52L340.284 133.702L341.132 134.544L342.142 135.39L343.156 136.064L344.337 136.572L345.518 136.91H348.05L349.4 136.572L350.583 136.064L351.597 135.221L352.778 134.38L353.621 133.363L354.464 132.181L355.309 130.83L355.982 129.484L356.657 127.794L357.163 126.274L357.502 124.588L358.008 122.729L358.176 120.875L358.343 119.016V114.628L358.176 112.261L357.836 110.068L357.332 108.044L356.655 106.185L356.149 104.498L355.308 102.978L354.631 101.46L353.788 100.448L352.776 99.4332L351.93 98.4208L350.918 97.7459L349.906 97.2392L348.893 96.9029L347.708 96.5643H345.853L344.843 96.9029L343.828 97.2392L342.813 97.7459L341.801 98.4208L340.789 99.2651L339.943 100.108L339.1 101.459L338.257 102.64L337.416 104.159L336.908 105.849L336.233 107.703L335.728 109.727L335.39 112.095L335.222 114.459V116.994H335.225ZM382.323 134.72L380.636 134.546L379.284 134.382L378.27 134.043L377.763 133.539L377.258 132.692L376.923 131.849L376.751 130.668V96.5654H375.908L363.077 102.811V104.331L365.441 103.319L366.454 103.148L367.131 102.979H367.806L368.478 103.319L368.649 103.822L368.988 104.331L369.154 105.512V131.341L368.816 132.353L368.478 133.199L367.634 133.873L366.454 134.382L364.934 134.546L363.077 134.72V136.067H382.323V134.72Z" fill="#4B4A8D"/>
</svg>
