<svg width="40" height="40" viewBox="0 0 40 40" fill="none" xmlns="http://www.w3.org/2000/svg">
<rect width="40" height="40" rx="12" fill="#212131"/>
<path fill-rule="evenodd" clip-rule="evenodd" d="M24.1668 18.3346C24.1668 17.8746 23.7935 17.5013 23.3335 17.5013C22.8735 17.5013 22.5002 17.8746 22.5002 18.3346C22.5002 18.7946 22.8735 19.168 23.3335 19.168C23.7935 19.168 24.1668 18.7946 24.1668 18.3346ZM20.0002 17.5013C20.4602 17.5013 20.8335 17.8746 20.8335 18.3346C20.8335 18.7946 20.4602 19.168 20.0002 19.168C19.5402 19.168 19.1668 18.7946 19.1668 18.3346C19.1668 17.8746 19.5402 17.5013 20.0002 17.5013ZM16.6668 17.5013C17.1268 17.5013 17.5002 17.8746 17.5002 18.3346C17.5002 18.7946 17.1268 19.168 16.6668 19.168C16.2068 19.168 15.8335 18.7946 15.8335 18.3346C15.8335 17.8746 16.2068 17.5013 16.6668 17.5013ZM13.3335 22.5013C13.3335 22.9605 13.7077 23.3346 14.1668 23.3346H22.8718C23.3243 23.3346 23.7693 23.458 24.1585 23.6913L26.6668 25.1963V14.168C26.6668 13.7088 26.2927 13.3346 25.8335 13.3346H14.1668C13.7077 13.3346 13.3335 13.7088 13.3335 14.168V22.5013ZM14.1668 11.668H25.8335C27.2118 11.668 28.3335 12.7896 28.3335 14.168V26.668C28.3335 26.968 28.1718 27.2455 27.911 27.393C27.7835 27.4655 27.6418 27.5013 27.5002 27.5013C27.3518 27.5013 27.2035 27.4621 27.071 27.3821L23.301 25.1205C23.171 25.0421 23.0227 25.0013 22.8718 25.0013H14.1668C12.7885 25.0013 11.6668 23.8796 11.6668 22.5013V14.168C11.6668 12.7896 12.7885 11.668 14.1668 11.668Z" fill="#231F20"/>
<mask id="mask0_5508_110947" style="mask-type:luminance" maskUnits="userSpaceOnUse" x="11" y="11" width="18" height="17">
<path fill-rule="evenodd" clip-rule="evenodd" d="M24.1668 18.3346C24.1668 17.8746 23.7935 17.5013 23.3335 17.5013C22.8735 17.5013 22.5002 17.8746 22.5002 18.3346C22.5002 18.7946 22.8735 19.168 23.3335 19.168C23.7935 19.168 24.1668 18.7946 24.1668 18.3346ZM20.0002 17.5013C20.4602 17.5013 20.8335 17.8746 20.8335 18.3346C20.8335 18.7946 20.4602 19.168 20.0002 19.168C19.5402 19.168 19.1668 18.7946 19.1668 18.3346C19.1668 17.8746 19.5402 17.5013 20.0002 17.5013ZM16.6668 17.5013C17.1268 17.5013 17.5002 17.8746 17.5002 18.3346C17.5002 18.7946 17.1268 19.168 16.6668 19.168C16.2068 19.168 15.8335 18.7946 15.8335 18.3346C15.8335 17.8746 16.2068 17.5013 16.6668 17.5013ZM13.3335 22.5013C13.3335 22.9605 13.7077 23.3346 14.1668 23.3346H22.8718C23.3243 23.3346 23.7693 23.458 24.1585 23.6913L26.6668 25.1963V14.168C26.6668 13.7088 26.2927 13.3346 25.8335 13.3346H14.1668C13.7077 13.3346 13.3335 13.7088 13.3335 14.168V22.5013ZM14.1668 11.668H25.8335C27.2118 11.668 28.3335 12.7896 28.3335 14.168V26.668C28.3335 26.968 28.1718 27.2455 27.911 27.393C27.7835 27.4655 27.6418 27.5013 27.5002 27.5013C27.3518 27.5013 27.2035 27.4621 27.071 27.3821L23.301 25.1205C23.171 25.0421 23.0227 25.0013 22.8718 25.0013H14.1668C12.7885 25.0013 11.6668 23.8796 11.6668 22.5013V14.168C11.6668 12.7896 12.7885 11.668 14.1668 11.668Z" fill="white"/>
</mask>
<g mask="url(#mask0_5508_110947)">
<rect width="20" height="20" transform="matrix(-1 0 0 1 30 10)" fill="white"/>
</g>
</svg>
