<svg width="188" height="64" viewBox="0 0 188 64" fill="none" xmlns="http://www.w3.org/2000/svg">
<path d="M59.8794 1.83375C59.9319 1.83375 59.9689 1.84608 59.9905 1.87075C60.0136 1.89388 60.0252 1.93397 60.0252 1.99103C60.0252 2.04808 60.0136 2.08894 59.9905 2.11361C59.9689 2.13674 59.9319 2.14831 59.8794 2.14831H59.7545L59.4353 4.47977C59.4276 4.53528 59.4076 4.57383 59.3752 4.59541C59.3444 4.61854 59.2981 4.63011 59.2364 4.63011C59.11 4.63011 59.0314 4.57999 59.0005 4.47977L58.5726 3.13594L58.1401 4.47977C58.1077 4.57999 58.0275 4.63011 57.8995 4.63011C57.8394 4.63011 57.7931 4.61854 57.7608 4.59541C57.7299 4.57228 57.7114 4.53374 57.7053 4.47977L57.3976 2.14831H57.2843C57.2319 2.14831 57.1941 2.13674 57.171 2.11361C57.1494 2.08894 57.1386 2.04808 57.1386 1.99103C57.1386 1.93397 57.1494 1.89388 57.171 1.87075C57.1941 1.84608 57.2319 1.83375 57.2843 1.83375H58.08C58.1324 1.83375 58.1694 1.84608 58.191 1.87075C58.2141 1.89388 58.2257 1.93397 58.2257 1.99103C58.2257 2.04808 58.2141 2.08894 58.191 2.11361C58.1694 2.13674 58.1324 2.14831 58.08 2.14831H57.7423L57.9736 4.00098L58.4084 2.64097C58.43 2.56849 58.4855 2.53226 58.5749 2.53226C58.6243 2.53226 58.662 2.53997 58.6883 2.55539C58.716 2.57081 58.7345 2.59394 58.7438 2.62478L59.1763 4.00098L59.4168 2.14831H59.13C59.0776 2.14831 59.0398 2.13674 59.0167 2.11361C58.9951 2.08894 58.9843 2.04808 58.9843 1.99103C58.9843 1.93397 58.9951 1.89388 59.0167 1.87075C59.0398 1.84608 59.0776 1.83375 59.13 1.83375H59.8794ZM62.1299 2.39117C62.2502 2.39117 62.3628 2.42201 62.4676 2.48369C62.5293 2.52069 62.5602 2.56849 62.5602 2.62709C62.5602 2.65484 62.5532 2.68723 62.5393 2.72423C62.507 2.81213 62.4622 2.85607 62.4052 2.85607C62.3821 2.85607 62.3605 2.8499 62.3404 2.83757C62.2649 2.79594 62.1839 2.77512 62.0976 2.77512C61.9588 2.77512 61.8192 2.82369 61.6789 2.92083C61.5386 3.01644 61.4229 3.14442 61.332 3.30479C61.2425 3.46515 61.1978 3.63554 61.1978 3.81595V4.26466H61.9773C62.0297 4.26466 62.0667 4.277 62.0883 4.30167C62.1114 4.3248 62.123 4.36489 62.123 4.42194C62.123 4.479 62.1114 4.51986 62.0883 4.54453C62.0667 4.56766 62.0297 4.57922 61.9773 4.57922H60.4877C60.4353 4.57922 60.3975 4.56766 60.3744 4.54453C60.3528 4.51986 60.342 4.479 60.342 4.42194C60.342 4.36489 60.3528 4.3248 60.3744 4.30167C60.3975 4.277 60.4353 4.26466 60.4877 4.26466H60.8509V2.75661H60.5571C60.5047 2.75661 60.4669 2.74505 60.4438 2.72192C60.4222 2.69725 60.4114 2.65639 60.4114 2.59933C60.4114 2.54228 60.4222 2.50219 60.4438 2.47906C60.4669 2.45439 60.5047 2.44205 60.5571 2.44205H61.029C61.0814 2.44205 61.1184 2.45439 61.14 2.47906C61.1631 2.50219 61.1747 2.54228 61.1747 2.59933V3.06655C61.2487 2.93086 61.3381 2.81213 61.443 2.71036C61.5478 2.60859 61.6596 2.52995 61.7784 2.47443C61.8971 2.41892 62.0143 2.39117 62.1299 2.39117ZM64.3458 2.44205C64.3982 2.44205 64.4352 2.45439 64.4568 2.47906C64.4799 2.50219 64.4915 2.54228 64.4915 2.59933V4.26466H65.2339C65.2864 4.26466 65.3234 4.277 65.3449 4.30167C65.3681 4.3248 65.3796 4.36489 65.3796 4.42194C65.3796 4.479 65.3681 4.51986 65.3449 4.54453C65.3234 4.56766 65.2864 4.57922 65.2339 4.57922H63.4206C63.3681 4.57922 63.3304 4.56766 63.3072 4.54453C63.2856 4.51986 63.2749 4.479 63.2749 4.42194C63.2749 4.36489 63.2856 4.3248 63.3072 4.30167C63.3304 4.277 63.3681 4.26466 63.4206 4.26466H64.1445V2.75661H63.5593C63.5069 2.75661 63.4691 2.74505 63.446 2.72192C63.4244 2.69725 63.4136 2.65639 63.4136 2.59933C63.4136 2.54228 63.4244 2.50219 63.446 2.47906C63.4691 2.45439 63.5069 2.44205 63.5593 2.44205H64.3458ZM64.2717 1.42667C64.3565 1.42667 64.4144 1.43823 64.4452 1.46136C64.476 1.48295 64.4915 1.5215 64.4915 1.57701V1.87769C64.4915 1.9332 64.476 1.97252 64.4452 1.99565C64.4144 2.01724 64.3565 2.02803 64.2717 2.02803C64.1869 2.02803 64.1291 2.01724 64.0983 1.99565C64.0674 1.97252 64.052 1.9332 64.052 1.87769V1.57701C64.052 1.5215 64.0674 1.48295 64.0983 1.46136C64.1291 1.43823 64.1869 1.42667 64.2717 1.42667ZM66.742 1.78286C66.8052 1.78286 66.8499 1.79443 66.8761 1.81756C66.9023 1.84068 66.9154 1.87923 66.9154 1.9332V2.62709H67.8661C67.9185 2.62709 67.9555 2.63943 67.9771 2.6641C68.0002 2.68723 68.0118 2.72732 68.0118 2.78437C68.0118 2.84142 68.0002 2.88229 67.9771 2.90696C67.9555 2.93009 67.9185 2.94165 67.8661 2.94165H66.9154V3.78357C66.9154 3.95935 66.9455 4.08811 67.0057 4.16983C67.0673 4.25155 67.1737 4.29242 67.3248 4.29242C67.4282 4.29242 67.5369 4.2716 67.651 4.22997C67.7651 4.18833 67.8753 4.13282 67.9817 4.06343C68.0033 4.04801 68.0272 4.04031 68.0534 4.04031C68.1058 4.04031 68.1506 4.07577 68.1876 4.1467C68.2076 4.18679 68.2176 4.22149 68.2176 4.25078C68.2176 4.30013 68.1922 4.34022 68.1413 4.37106C68.021 4.44661 67.8869 4.50906 67.7389 4.55841C67.5908 4.60621 67.4528 4.63011 67.3248 4.63011C67.0627 4.63011 66.8707 4.56226 66.7489 4.42657C66.6286 4.28933 66.5685 4.08502 66.5685 3.81364V2.94165H66.099C66.0465 2.94165 66.0088 2.93009 65.9856 2.90696C65.964 2.88229 65.9533 2.84142 65.9533 2.78437C65.9533 2.72732 65.964 2.68723 65.9856 2.6641C66.0088 2.63943 66.0465 2.62709 66.099 2.62709H66.5685V1.9332C66.5685 1.87923 66.5816 1.84068 66.6078 1.81756C66.634 1.79443 66.6788 1.78286 66.742 1.78286ZM69.9639 2.39117C70.1875 2.39117 70.3779 2.43666 70.5352 2.52763C70.694 2.61707 70.8159 2.74197 70.9007 2.90233C70.9855 3.06115 71.034 3.24465 71.0464 3.45281C71.0464 3.50524 71.0348 3.54225 71.0117 3.56384C70.9901 3.58542 70.9531 3.59622 70.9007 3.59622H69.2261C69.2369 3.82597 69.3047 4.00021 69.4296 4.11895C69.5561 4.23614 69.7342 4.29473 69.9639 4.29473C70.1058 4.29473 70.2461 4.277 70.3849 4.24153C70.5237 4.20452 70.6455 4.15595 70.7503 4.09582C70.7765 4.08194 70.8004 4.075 70.822 4.075C70.876 4.075 70.9199 4.11586 70.9539 4.19759C70.9677 4.22997 70.9747 4.25926 70.9747 4.28548C70.9747 4.34716 70.9408 4.39496 70.8729 4.42888C70.7542 4.48902 70.6139 4.53759 70.452 4.5746C70.29 4.61161 70.1274 4.63011 69.9639 4.63011C69.7311 4.63011 69.5322 4.58539 69.3672 4.49596C69.2022 4.40652 69.0765 4.27777 68.9902 4.10969C68.9038 3.94162 68.8606 3.74193 68.8606 3.51064C68.8606 3.29014 68.9077 3.09508 69.0017 2.92546C69.0958 2.75584 69.2261 2.62478 69.3926 2.53226C69.5592 2.4382 69.7496 2.39117 69.9639 2.39117ZM69.9639 2.72655C69.7743 2.72655 69.617 2.77512 69.4921 2.87226C69.3687 2.96786 69.2878 3.10125 69.2492 3.2724H70.6624C70.6301 3.09508 70.5553 2.96015 70.4381 2.86764C70.3224 2.77358 70.1644 2.72655 69.9639 2.72655ZM73.0147 3.89921C73.0409 3.89921 73.061 3.90692 73.0748 3.92234C73.0887 3.93622 73.0957 3.95473 73.0957 3.97786C73.0957 3.99944 73.0903 4.0218 73.0795 4.04493L72.5891 5.1644C72.5614 5.22762 72.4951 5.25923 72.3902 5.25923C72.2792 5.25923 72.2237 5.22068 72.2237 5.14358C72.2237 5.13742 72.2252 5.12508 72.2283 5.10658L72.4457 3.99173C72.4519 3.96244 72.465 3.94008 72.485 3.92466C72.5066 3.9077 72.5336 3.89921 72.566 3.89921H73.0147ZM79.3545 1.78286C79.4177 1.78286 79.4625 1.79443 79.4887 1.81756C79.5149 1.84068 79.528 1.87923 79.528 1.9332V2.69648C79.528 2.75045 79.5149 2.789 79.4887 2.81213C79.4625 2.83526 79.4177 2.84682 79.3545 2.84682C79.2913 2.84682 79.2466 2.83526 79.2204 2.81213C79.1942 2.789 79.181 2.75045 79.181 2.69648C79.181 2.59162 79.1571 2.49602 79.1093 2.40967C79.0631 2.32332 78.9914 2.2547 78.8942 2.20382C78.7971 2.15139 78.6768 2.12518 78.5334 2.12518C78.3669 2.12518 78.2189 2.16912 78.0893 2.25702C77.9613 2.34491 77.8611 2.47058 77.7886 2.63403C77.7177 2.79748 77.6823 2.98868 77.6823 3.20764C77.6823 3.4266 77.7162 3.61781 77.784 3.78125C77.8519 3.94316 77.9482 4.06806 78.0731 4.15595C78.198 4.24385 78.3438 4.28779 78.5103 4.28779C78.6629 4.28779 78.8087 4.26543 78.9474 4.22072C79.0862 4.176 79.2111 4.11124 79.3221 4.02643C79.3484 4.00484 79.3769 3.99405 79.4077 3.99405C79.454 3.99405 79.4948 4.02411 79.5303 4.08425C79.5581 4.13051 79.5719 4.17137 79.5719 4.20684C79.5719 4.2531 79.548 4.29319 79.5002 4.32711C79.3568 4.42734 79.2003 4.5029 79.0307 4.55378C78.8626 4.60467 78.6892 4.63011 78.5103 4.63011C78.2697 4.63011 78.0593 4.57151 77.8789 4.45432C77.7 4.33559 77.5612 4.16906 77.4625 3.95473C77.3654 3.74039 77.3168 3.49136 77.3168 3.20764C77.3168 2.92546 77.3669 2.6772 77.4671 2.46287C77.5674 2.24699 77.7077 2.07969 77.8881 1.96096C78.0701 1.84223 78.2775 1.78286 78.5103 1.78286C78.6552 1.78286 78.784 1.80753 78.8966 1.85688C79.0091 1.90622 79.1039 1.97638 79.181 2.06735V1.9332C79.181 1.87923 79.1942 1.84068 79.2204 1.81756C79.2466 1.79443 79.2913 1.78286 79.3545 1.78286ZM81.3043 2.39117C81.5156 2.39117 81.706 2.43897 81.8756 2.53457C82.0453 2.63017 82.1779 2.76355 82.2735 2.93471C82.3706 3.10433 82.4192 3.2963 82.4192 3.51064C82.4192 3.72497 82.3706 3.91772 82.2735 4.08888C82.1779 4.25849 82.0453 4.3911 81.8756 4.48671C81.706 4.58231 81.5156 4.63011 81.3043 4.63011C81.0931 4.63011 80.9027 4.58231 80.733 4.48671C80.5634 4.3911 80.43 4.25849 80.3329 4.08888C80.2373 3.91772 80.1895 3.72497 80.1895 3.51064C80.1895 3.2963 80.2373 3.10433 80.3329 2.93471C80.43 2.76355 80.5634 2.63017 80.733 2.53457C80.9027 2.43897 81.0931 2.39117 81.3043 2.39117ZM81.3043 2.73349C81.1548 2.73349 81.0229 2.76664 80.9088 2.83294C80.7963 2.89771 80.7091 2.98945 80.6475 3.10818C80.5858 3.22537 80.5549 3.35953 80.5549 3.51064C80.5549 3.66175 80.5858 3.79667 80.6475 3.91541C80.7091 4.0326 80.7963 4.12434 80.9088 4.19065C81.0229 4.25541 81.1548 4.28779 81.3043 4.28779C81.4539 4.28779 81.585 4.25541 81.6975 4.19065C81.8116 4.12434 81.8995 4.0326 81.9612 3.91541C82.0229 3.79667 82.0537 3.66175 82.0537 3.51064C82.0537 3.35953 82.0229 3.22537 81.9612 3.10818C81.8995 2.98945 81.8116 2.89771 81.6975 2.83294C81.585 2.76664 81.4539 2.73349 81.3043 2.73349ZM84.2048 1.54463C84.2572 1.54463 84.2942 1.55696 84.3158 1.58163C84.3389 1.60476 84.3505 1.64485 84.3505 1.70191V4.26466H85.093C85.1454 4.26466 85.1824 4.277 85.204 4.30167C85.2271 4.3248 85.2387 4.36489 85.2387 4.42194C85.2387 4.479 85.2271 4.51986 85.204 4.54453C85.1824 4.56766 85.1454 4.57922 85.093 4.57922H83.2796C83.2272 4.57922 83.1894 4.56766 83.1663 4.54453C83.1447 4.51986 83.1339 4.479 83.1339 4.42194C83.1339 4.36489 83.1447 4.3248 83.1663 4.30167C83.1894 4.277 83.2272 4.26466 83.2796 4.26466H84.0036V1.85919H83.3721C83.3197 1.85919 83.2819 1.84762 83.2588 1.82449C83.2372 1.79982 83.2264 1.75896 83.2264 1.70191C83.2264 1.64485 83.2372 1.60476 83.2588 1.58163C83.2819 1.55696 83.3197 1.54463 83.3721 1.54463H84.2048ZM87.0451 1.54463C87.0975 1.54463 87.1345 1.55696 87.1561 1.58163C87.1792 1.60476 87.1908 1.64485 87.1908 1.70191V4.26466H87.9333C87.9857 4.26466 88.0227 4.277 88.0443 4.30167C88.0674 4.3248 88.079 4.36489 88.079 4.42194C88.079 4.479 88.0674 4.51986 88.0443 4.54453C88.0227 4.56766 87.9857 4.57922 87.9333 4.57922H86.1199C86.0675 4.57922 86.0297 4.56766 86.0066 4.54453C85.985 4.51986 85.9742 4.479 85.9742 4.42194C85.9742 4.36489 85.985 4.3248 86.0066 4.30167C86.0297 4.277 86.0675 4.26466 86.1199 4.26466H86.8439V1.85919H86.2124C86.16 1.85919 86.1222 1.84762 86.0991 1.82449C86.0775 1.79982 86.0667 1.75896 86.0667 1.70191C86.0667 1.64485 86.0775 1.60476 86.0991 1.58163C86.1222 1.55696 86.16 1.54463 86.2124 1.54463H87.0451ZM89.8345 2.39117C90.1244 2.39117 90.3418 2.45593 90.4868 2.58546C90.6317 2.71498 90.7042 2.90696 90.7042 3.16138V4.08194C90.7042 4.20375 90.7551 4.26466 90.8568 4.26466H90.9378C90.9902 4.26466 91.0272 4.277 91.0488 4.30167C91.072 4.3248 91.0835 4.36489 91.0835 4.42194C91.0835 4.479 91.072 4.51986 91.0488 4.54453C91.0272 4.56766 90.9902 4.57922 90.9378 4.57922H90.7898C90.6895 4.57922 90.6032 4.55455 90.5307 4.50521C90.4598 4.45432 90.4135 4.38031 90.3919 4.28317C90.2655 4.39419 90.1283 4.47977 89.9802 4.5399C89.8337 4.60004 89.678 4.63011 89.513 4.63011C89.3573 4.63011 89.2193 4.6039 89.099 4.55147C88.9803 4.4975 88.887 4.41963 88.8191 4.31786C88.7513 4.21609 88.7174 4.09505 88.7174 3.95473C88.7174 3.71109 88.8045 3.53145 88.9787 3.41581C89.153 3.29862 89.3781 3.24002 89.6541 3.24002C89.8993 3.24002 90.1337 3.27934 90.3572 3.35798V3.16138C90.3572 3.01181 90.3148 2.90233 90.23 2.83294C90.1468 2.76201 90.0118 2.72655 89.8253 2.72655C89.7096 2.72655 89.5893 2.74274 89.4644 2.77512C89.3395 2.8075 89.2208 2.85222 89.1083 2.90927C89.082 2.92315 89.0581 2.93009 89.0365 2.93009C88.9857 2.93009 88.9433 2.89308 88.9093 2.81906C88.8924 2.78206 88.8839 2.75122 88.8839 2.72655C88.8839 2.67258 88.9124 2.63094 88.9695 2.60165C89.099 2.5338 89.2378 2.48214 89.3858 2.44668C89.5354 2.40967 89.6849 2.39117 89.8345 2.39117ZM89.6564 3.56615C89.4791 3.56615 89.3388 3.59699 89.2355 3.65867C89.1337 3.7188 89.0828 3.81518 89.0828 3.94779C89.0828 4.06035 89.1214 4.14824 89.1985 4.21146C89.2771 4.27314 89.3866 4.30398 89.5269 4.30398C89.8337 4.30398 90.1105 4.17677 90.3572 3.92234V3.67023C90.2524 3.63631 90.1398 3.61087 90.0196 3.5939C89.8993 3.5754 89.7782 3.56615 89.6564 3.56615ZM91.9139 1.54463C91.9663 1.54463 92.0033 1.55696 92.0249 1.58163C92.048 1.60476 92.0596 1.64485 92.0596 1.70191V2.77281C92.2585 2.51838 92.5029 2.39117 92.7928 2.39117C92.984 2.39117 93.1551 2.43666 93.3063 2.52763C93.4574 2.61707 93.5761 2.74659 93.6625 2.91621C93.7488 3.08428 93.792 3.28243 93.792 3.51064C93.792 3.73885 93.7488 3.93776 93.6625 4.10738C93.5761 4.27546 93.4574 4.40498 93.3063 4.49596C93.1551 4.58539 92.984 4.63011 92.7928 4.63011C92.6417 4.63011 92.5021 4.59619 92.3741 4.52834C92.2462 4.46049 92.1336 4.36335 92.0364 4.23691V4.42194C92.0364 4.479 92.0249 4.51986 92.0018 4.54453C91.9802 4.56766 91.9432 4.57922 91.8907 4.57922H91.523C91.4705 4.57922 91.4328 4.56766 91.4096 4.54453C91.3881 4.51986 91.3773 4.479 91.3773 4.42194C91.3773 4.36489 91.3881 4.3248 91.4096 4.30167C91.4328 4.277 91.4705 4.26466 91.523 4.26466H91.7126V1.85919H91.4767C91.4243 1.85919 91.3865 1.84762 91.3634 1.82449C91.3418 1.79982 91.331 1.75896 91.331 1.70191C91.331 1.64485 91.3418 1.60476 91.3634 1.58163C91.3865 1.55696 91.4243 1.54463 91.4767 1.54463H91.9139ZM92.7697 2.73349C92.6324 2.73349 92.5098 2.76432 92.4019 2.826C92.2955 2.88768 92.2115 2.97712 92.1498 3.09431C92.0896 3.2115 92.0596 3.35027 92.0596 3.51064C92.0596 3.671 92.0896 3.80978 92.1498 3.92697C92.2115 4.04416 92.2955 4.13359 92.4019 4.19527C92.5098 4.25695 92.6324 4.28779 92.7697 4.28779C92.9069 4.28779 93.0249 4.25541 93.1235 4.19065C93.2222 4.12434 93.297 4.0326 93.3479 3.91541C93.4003 3.79822 93.4265 3.66329 93.4265 3.51064C93.4265 3.35798 93.4003 3.22306 93.3479 3.10587C93.297 2.98868 93.2222 2.89771 93.1235 2.83294C93.0249 2.76664 92.9069 2.73349 92.7697 2.73349ZM95.5059 2.39117C95.7171 2.39117 95.9076 2.43897 96.0772 2.53457C96.2468 2.63017 96.3794 2.76355 96.475 2.93471C96.5722 3.10433 96.6207 3.2963 96.6207 3.51064C96.6207 3.72497 96.5722 3.91772 96.475 4.08888C96.3794 4.25849 96.2468 4.3911 96.0772 4.48671C95.9076 4.58231 95.7171 4.63011 95.5059 4.63011C95.2946 4.63011 95.1042 4.58231 94.9346 4.48671C94.765 4.3911 94.6316 4.25849 94.5344 4.08888C94.4388 3.91772 94.391 3.72497 94.391 3.51064C94.391 3.2963 94.4388 3.10433 94.5344 2.93471C94.6316 2.76355 94.765 2.63017 94.9346 2.53457C95.1042 2.43897 95.2946 2.39117 95.5059 2.39117ZM95.5059 2.73349C95.3563 2.73349 95.2245 2.76664 95.1104 2.83294C94.9978 2.89771 94.9107 2.98945 94.849 3.10818C94.7873 3.22537 94.7565 3.35953 94.7565 3.51064C94.7565 3.66175 94.7873 3.79667 94.849 3.91541C94.9107 4.0326 94.9978 4.12434 95.1104 4.19065C95.2245 4.25541 95.3563 4.28779 95.5059 4.28779C95.6555 4.28779 95.7865 4.25541 95.8991 4.19065C96.0132 4.12434 96.1011 4.0326 96.1628 3.91541C96.2244 3.79667 96.2553 3.66175 96.2553 3.51064C96.2553 3.35953 96.2244 3.22537 96.1628 3.10818C96.1011 2.98945 96.0132 2.89771 95.8991 2.83294C95.7865 2.76664 95.6555 2.73349 95.5059 2.73349ZM99.054 2.39117C99.1742 2.39117 99.2868 2.42201 99.3916 2.48369C99.4533 2.52069 99.4842 2.56849 99.4842 2.62709C99.4842 2.65484 99.4772 2.68723 99.4633 2.72423C99.431 2.81213 99.3863 2.85607 99.3292 2.85607C99.3061 2.85607 99.2845 2.8499 99.2644 2.83757C99.1889 2.79594 99.1079 2.77512 99.0216 2.77512C98.8828 2.77512 98.7432 2.82369 98.6029 2.92083C98.4626 3.01644 98.347 3.14442 98.256 3.30479C98.1666 3.46515 98.1218 3.63554 98.1218 3.81595V4.26466H98.9013C98.9537 4.26466 98.9907 4.277 99.0123 4.30167C99.0355 4.3248 99.047 4.36489 99.047 4.42194C99.047 4.479 99.0355 4.51986 99.0123 4.54453C98.9907 4.56766 98.9537 4.57922 98.9013 4.57922H97.4118C97.3593 4.57922 97.3216 4.56766 97.2984 4.54453C97.2768 4.51986 97.266 4.479 97.266 4.42194C97.266 4.36489 97.2768 4.3248 97.2984 4.30167C97.3216 4.277 97.3593 4.26466 97.4118 4.26466H97.7749V2.75661H97.4811C97.4287 2.75661 97.3909 2.74505 97.3678 2.72192C97.3462 2.69725 97.3354 2.65639 97.3354 2.59933C97.3354 2.54228 97.3462 2.50219 97.3678 2.47906C97.3909 2.45439 97.4287 2.44205 97.4811 2.44205H97.953C98.0054 2.44205 98.0424 2.45439 98.064 2.47906C98.0871 2.50219 98.0987 2.54228 98.0987 2.59933V3.06655C98.1727 2.93086 98.2622 2.81213 98.367 2.71036C98.4719 2.60859 98.5837 2.52995 98.7024 2.47443C98.8211 2.41892 98.9383 2.39117 99.054 2.39117ZM101.196 2.39117C101.486 2.39117 101.703 2.45593 101.848 2.58546C101.993 2.71498 102.065 2.90696 102.065 3.16138V4.08194C102.065 4.20375 102.116 4.26466 102.218 4.26466H102.299C102.351 4.26466 102.388 4.277 102.41 4.30167C102.433 4.3248 102.445 4.36489 102.445 4.42194C102.445 4.479 102.433 4.51986 102.41 4.54453C102.388 4.56766 102.351 4.57922 102.299 4.57922H102.151C102.051 4.57922 101.964 4.55455 101.892 4.50521C101.821 4.45432 101.775 4.38031 101.753 4.28317C101.627 4.39419 101.489 4.47977 101.341 4.5399C101.195 4.60004 101.039 4.63011 100.874 4.63011C100.719 4.63011 100.581 4.6039 100.46 4.55147C100.342 4.4975 100.248 4.41963 100.18 4.31786C100.113 4.21609 100.079 4.09505 100.079 3.95473C100.079 3.71109 100.166 3.53145 100.34 3.41581C100.514 3.29862 100.739 3.24002 101.015 3.24002C101.261 3.24002 101.495 3.27934 101.718 3.35798V3.16138C101.718 3.01181 101.676 2.90233 101.591 2.83294C101.508 2.76201 101.373 2.72655 101.187 2.72655C101.071 2.72655 100.951 2.74274 100.826 2.77512C100.701 2.8075 100.582 2.85222 100.469 2.90927C100.443 2.92315 100.419 2.93009 100.398 2.93009C100.347 2.93009 100.304 2.89308 100.271 2.81906C100.254 2.78206 100.245 2.75122 100.245 2.72655C100.245 2.67258 100.274 2.63094 100.331 2.60165C100.46 2.5338 100.599 2.48214 100.747 2.44668C100.897 2.40967 101.046 2.39117 101.196 2.39117ZM101.018 3.56615C100.84 3.56615 100.7 3.59699 100.597 3.65867C100.495 3.7188 100.444 3.81518 100.444 3.94779C100.444 4.06035 100.483 4.14824 100.56 4.21146C100.638 4.27314 100.748 4.30398 100.888 4.30398C101.195 4.30398 101.472 4.17677 101.718 3.92234V3.67023C101.614 3.63631 101.501 3.61087 101.381 3.5939C101.261 3.5754 101.139 3.56615 101.018 3.56615ZM103.666 1.78286C103.729 1.78286 103.774 1.79443 103.8 1.81756C103.826 1.84068 103.839 1.87923 103.839 1.9332V2.62709H104.79C104.843 2.62709 104.88 2.63943 104.901 2.6641C104.924 2.68723 104.936 2.72732 104.936 2.78437C104.936 2.84142 104.924 2.88229 104.901 2.90696C104.88 2.93009 104.843 2.94165 104.79 2.94165H103.839V3.78357C103.839 3.95935 103.87 4.08811 103.93 4.16983C103.991 4.25155 104.098 4.29242 104.249 4.29242C104.352 4.29242 104.461 4.2716 104.575 4.22997C104.689 4.18833 104.799 4.13282 104.906 4.06343C104.927 4.04801 104.951 4.04031 104.977 4.04031C105.03 4.04031 105.075 4.07577 105.112 4.1467C105.132 4.18679 105.142 4.22149 105.142 4.25078C105.142 4.30013 105.116 4.34022 105.065 4.37106C104.945 4.44661 104.811 4.50906 104.663 4.55841C104.515 4.60621 104.377 4.63011 104.249 4.63011C103.987 4.63011 103.795 4.56226 103.673 4.42657C103.553 4.28933 103.493 4.08502 103.493 3.81364V2.94165H103.023C102.971 2.94165 102.933 2.93009 102.91 2.90696C102.888 2.88229 102.877 2.84142 102.877 2.78437C102.877 2.72732 102.888 2.68723 102.91 2.6641C102.933 2.63943 102.971 2.62709 103.023 2.62709H103.493V1.9332C103.493 1.87923 103.506 1.84068 103.532 1.81756C103.558 1.79443 103.603 1.78286 103.666 1.78286ZM106.888 2.39117C107.112 2.39117 107.302 2.43666 107.459 2.52763C107.618 2.61707 107.74 2.74197 107.825 2.90233C107.909 3.06115 107.958 3.24465 107.97 3.45281C107.97 3.50524 107.959 3.54225 107.936 3.56384C107.914 3.58542 107.877 3.59622 107.825 3.59622H106.15C106.161 3.82597 106.229 4.00021 106.354 4.11895C106.48 4.23614 106.658 4.29473 106.888 4.29473C107.03 4.29473 107.17 4.277 107.309 4.24153C107.448 4.20452 107.569 4.15595 107.674 4.09582C107.701 4.08194 107.724 4.075 107.746 4.075C107.8 4.075 107.844 4.11586 107.878 4.19759C107.892 4.22997 107.899 4.25926 107.899 4.28548C107.899 4.34716 107.865 4.39496 107.797 4.42888C107.678 4.48902 107.538 4.53759 107.376 4.5746C107.214 4.61161 107.051 4.63011 106.888 4.63011C106.655 4.63011 106.456 4.58539 106.291 4.49596C106.126 4.40652 106.001 4.27777 105.914 4.10969C105.828 3.94162 105.785 3.74193 105.785 3.51064C105.785 3.29014 105.832 3.09508 105.926 2.92546C106.02 2.75584 106.15 2.62478 106.317 2.53226C106.483 2.4382 106.674 2.39117 106.888 2.39117ZM106.888 2.72655C106.698 2.72655 106.541 2.77512 106.416 2.87226C106.293 2.96786 106.212 3.10125 106.173 3.2724H107.586C107.554 3.09508 107.479 2.96015 107.362 2.86764C107.246 2.77358 107.088 2.72655 106.888 2.72655ZM109.939 3.89921C109.965 3.89921 109.985 3.90692 109.999 3.92234C110.013 3.93622 110.02 3.95473 110.02 3.97786C110.02 3.99944 110.014 4.0218 110.003 4.04493L109.513 5.1644C109.485 5.22762 109.419 5.25923 109.314 5.25923C109.203 5.25923 109.148 5.22068 109.148 5.14358C109.148 5.13742 109.149 5.12508 109.152 5.10658L109.37 3.99173C109.376 3.96244 109.389 3.94008 109.409 3.92466C109.431 3.9077 109.458 3.89921 109.49 3.89921H109.939ZM116.279 1.78286C116.342 1.78286 116.386 1.79443 116.413 1.81756C116.439 1.84068 116.452 1.87923 116.452 1.9332V2.69648C116.452 2.75045 116.439 2.789 116.413 2.81213C116.386 2.83526 116.342 2.84682 116.279 2.84682C116.215 2.84682 116.171 2.83526 116.144 2.81213C116.118 2.789 116.105 2.75045 116.105 2.69648C116.105 2.59162 116.081 2.49602 116.033 2.40967C115.987 2.32332 115.915 2.2547 115.818 2.20382C115.721 2.15139 115.601 2.12518 115.457 2.12518C115.291 2.12518 115.143 2.16912 115.013 2.25702C114.885 2.34491 114.785 2.47058 114.713 2.63403C114.642 2.79748 114.606 2.98868 114.606 3.20764C114.606 3.4266 114.64 3.61781 114.708 3.78125C114.776 3.94316 114.872 4.06806 114.997 4.15595C115.122 4.24385 115.268 4.28779 115.434 4.28779C115.587 4.28779 115.733 4.26543 115.871 4.22072C116.01 4.176 116.135 4.11124 116.246 4.02643C116.272 4.00484 116.301 3.99405 116.332 3.99405C116.378 3.99405 116.419 4.02411 116.454 4.08425C116.482 4.13051 116.496 4.17137 116.496 4.20684C116.496 4.2531 116.472 4.29319 116.424 4.32711C116.281 4.42734 116.124 4.5029 115.955 4.55378C115.787 4.60467 115.613 4.63011 115.434 4.63011C115.194 4.63011 114.983 4.57151 114.803 4.45432C114.624 4.33559 114.485 4.16906 114.387 3.95473C114.289 3.74039 114.241 3.49136 114.241 3.20764C114.241 2.92546 114.291 2.6772 114.391 2.46287C114.491 2.24699 114.632 2.07969 114.812 1.96096C114.994 1.84223 115.201 1.78286 115.434 1.78286C115.579 1.78286 115.708 1.80753 115.821 1.85688C115.933 1.90622 116.028 1.97638 116.105 2.06735V1.9332C116.105 1.87923 116.118 1.84068 116.144 1.81756C116.171 1.79443 116.215 1.78286 116.279 1.78286ZM118.936 2.39117C119.056 2.39117 119.169 2.42201 119.274 2.48369C119.335 2.52069 119.366 2.56849 119.366 2.62709C119.366 2.65484 119.359 2.68723 119.346 2.72423C119.313 2.81213 119.268 2.85607 119.211 2.85607C119.188 2.85607 119.167 2.8499 119.147 2.83757C119.071 2.79594 118.99 2.77512 118.904 2.77512C118.765 2.77512 118.625 2.82369 118.485 2.92083C118.345 3.01644 118.229 3.14442 118.138 3.30479C118.049 3.46515 118.004 3.63554 118.004 3.81595V4.26466H118.783C118.836 4.26466 118.873 4.277 118.894 4.30167C118.918 4.3248 118.929 4.36489 118.929 4.42194C118.929 4.479 118.918 4.51986 118.894 4.54453C118.873 4.56766 118.836 4.57922 118.783 4.57922H117.294C117.241 4.57922 117.204 4.56766 117.181 4.54453C117.159 4.51986 117.148 4.479 117.148 4.42194C117.148 4.36489 117.159 4.3248 117.181 4.30167C117.204 4.277 117.241 4.26466 117.294 4.26466H117.657V2.75661H117.363C117.311 2.75661 117.273 2.74505 117.25 2.72192C117.228 2.69725 117.218 2.65639 117.218 2.59933C117.218 2.54228 117.228 2.50219 117.25 2.47906C117.273 2.45439 117.311 2.44205 117.363 2.44205H117.835C117.888 2.44205 117.925 2.45439 117.946 2.47906C117.969 2.50219 117.981 2.54228 117.981 2.59933V3.06655C118.055 2.93086 118.144 2.81213 118.249 2.71036C118.354 2.60859 118.466 2.52995 118.585 2.47443C118.703 2.41892 118.82 2.39117 118.936 2.39117ZM121.089 2.39117C121.313 2.39117 121.504 2.43666 121.661 2.52763C121.82 2.61707 121.941 2.74197 122.026 2.90233C122.111 3.06115 122.16 3.24465 122.172 3.45281C122.172 3.50524 122.16 3.54225 122.137 3.56384C122.116 3.58542 122.079 3.59622 122.026 3.59622H120.352C120.362 3.82597 120.43 4.00021 120.555 4.11895C120.682 4.23614 120.86 4.29473 121.089 4.29473C121.231 4.29473 121.372 4.277 121.51 4.24153C121.649 4.20452 121.771 4.15595 121.876 4.09582C121.902 4.08194 121.926 4.075 121.948 4.075C122.002 4.075 122.046 4.11586 122.079 4.19759C122.093 4.22997 122.1 4.25926 122.1 4.28548C122.1 4.34716 122.066 4.39496 121.998 4.42888C121.88 4.48902 121.739 4.53759 121.578 4.5746C121.416 4.61161 121.253 4.63011 121.089 4.63011C120.857 4.63011 120.658 4.58539 120.493 4.49596C120.328 4.40652 120.202 4.27777 120.116 4.10969C120.029 3.94162 119.986 3.74193 119.986 3.51064C119.986 3.29014 120.033 3.09508 120.127 2.92546C120.221 2.75584 120.352 2.62478 120.518 2.53226C120.685 2.4382 120.875 2.39117 121.089 2.39117ZM121.089 2.72655C120.9 2.72655 120.743 2.77512 120.618 2.87226C120.494 2.96786 120.413 3.10125 120.375 3.2724H121.788C121.756 3.09508 121.681 2.96015 121.564 2.86764C121.448 2.77358 121.29 2.72655 121.089 2.72655ZM123.918 2.39117C124.208 2.39117 124.426 2.45593 124.57 2.58546C124.715 2.71498 124.788 2.90696 124.788 3.16138V4.08194C124.788 4.20375 124.839 4.26466 124.941 4.26466H125.022C125.074 4.26466 125.111 4.277 125.133 4.30167C125.156 4.3248 125.167 4.36489 125.167 4.42194C125.167 4.479 125.156 4.51986 125.133 4.54453C125.111 4.56766 125.074 4.57922 125.022 4.57922H124.873C124.773 4.57922 124.687 4.55455 124.614 4.50521C124.543 4.45432 124.497 4.38031 124.476 4.28317C124.349 4.39419 124.212 4.47977 124.064 4.5399C123.917 4.60004 123.762 4.63011 123.597 4.63011C123.441 4.63011 123.303 4.6039 123.183 4.55147C123.064 4.4975 122.971 4.41963 122.903 4.31786C122.835 4.21609 122.801 4.09505 122.801 3.95473C122.801 3.71109 122.888 3.53145 123.062 3.41581C123.237 3.29862 123.462 3.24002 123.738 3.24002C123.983 3.24002 124.217 3.27934 124.441 3.35798V3.16138C124.441 3.01181 124.399 2.90233 124.314 2.83294C124.23 2.76201 124.096 2.72655 123.909 2.72655C123.793 2.72655 123.673 2.74274 123.548 2.77512C123.423 2.8075 123.305 2.85222 123.192 2.90927C123.166 2.92315 123.142 2.93009 123.12 2.93009C123.069 2.93009 123.027 2.89308 122.993 2.81906C122.976 2.78206 122.968 2.75122 122.968 2.72655C122.968 2.67258 122.996 2.63094 123.053 2.60165C123.183 2.5338 123.321 2.48214 123.47 2.44668C123.619 2.40967 123.769 2.39117 123.918 2.39117ZM123.74 3.56615C123.563 3.56615 123.422 3.59699 123.319 3.65867C123.217 3.7188 123.167 3.81518 123.167 3.94779C123.167 4.06035 123.205 4.14824 123.282 4.21146C123.361 4.27314 123.47 4.30398 123.611 4.30398C123.917 4.30398 124.194 4.17677 124.441 3.92234V3.67023C124.336 3.63631 124.224 3.61087 124.103 3.5939C123.983 3.5754 123.862 3.56615 123.74 3.56615ZM126.388 1.78286C126.452 1.78286 126.496 1.79443 126.523 1.81756C126.549 1.84068 126.562 1.87923 126.562 1.9332V2.62709H127.513C127.565 2.62709 127.602 2.63943 127.624 2.6641C127.647 2.68723 127.658 2.72732 127.658 2.78437C127.658 2.84142 127.647 2.88229 127.624 2.90696C127.602 2.93009 127.565 2.94165 127.513 2.94165H126.562V3.78357C126.562 3.95935 126.592 4.08811 126.652 4.16983C126.714 4.25155 126.82 4.29242 126.971 4.29242C127.075 4.29242 127.183 4.2716 127.297 4.22997C127.412 4.18833 127.522 4.13282 127.628 4.06343C127.65 4.04801 127.674 4.04031 127.7 4.04031C127.752 4.04031 127.797 4.07577 127.834 4.1467C127.854 4.18679 127.864 4.22149 127.864 4.25078C127.864 4.30013 127.839 4.34022 127.788 4.37106C127.668 4.44661 127.533 4.50906 127.385 4.55841C127.237 4.60621 127.099 4.63011 126.971 4.63011C126.709 4.63011 126.517 4.56226 126.395 4.42657C126.275 4.28933 126.215 4.08502 126.215 3.81364V2.94165H125.745C125.693 2.94165 125.655 2.93009 125.632 2.90696C125.611 2.88229 125.6 2.84142 125.6 2.78437C125.6 2.72732 125.611 2.68723 125.632 2.6641C125.655 2.63943 125.693 2.62709 125.745 2.62709H126.215V1.9332C126.215 1.87923 126.228 1.84068 126.254 1.81756C126.281 1.79443 126.325 1.78286 126.388 1.78286ZM129.61 2.39117C129.834 2.39117 130.024 2.43666 130.182 2.52763C130.341 2.61707 130.462 2.74197 130.547 2.90233C130.632 3.06115 130.681 3.24465 130.693 3.45281C130.693 3.50524 130.681 3.54225 130.658 3.56384C130.637 3.58542 130.6 3.59622 130.547 3.59622H128.873C128.883 3.82597 128.951 4.00021 129.076 4.11895C129.203 4.23614 129.381 4.29473 129.61 4.29473C129.752 4.29473 129.893 4.277 130.031 4.24153C130.17 4.20452 130.292 4.15595 130.397 4.09582C130.423 4.08194 130.447 4.075 130.469 4.075C130.522 4.075 130.566 4.11586 130.6 4.19759C130.614 4.22997 130.621 4.25926 130.621 4.28548C130.621 4.34716 130.587 4.39496 130.519 4.42888C130.401 4.48902 130.26 4.53759 130.098 4.5746C129.937 4.61161 129.774 4.63011 129.61 4.63011C129.378 4.63011 129.179 4.58539 129.014 4.49596C128.849 4.40652 128.723 4.27777 128.637 4.10969C128.55 3.94162 128.507 3.74193 128.507 3.51064C128.507 3.29014 128.554 3.09508 128.648 2.92546C128.742 2.75584 128.873 2.62478 129.039 2.53226C129.206 2.4382 129.396 2.39117 129.61 2.39117ZM129.61 2.72655C129.421 2.72655 129.263 2.77512 129.139 2.87226C129.015 2.96786 128.934 3.10125 128.896 3.2724H130.309C130.277 3.09508 130.202 2.96015 130.085 2.86764C129.969 2.77358 129.811 2.72655 129.61 2.72655Z" fill="#080808"/>
<path fill-rule="evenodd" clip-rule="evenodd" d="M8.77514 14.553C6.17568 15.1057 3.47625 17.3419 2.15153 20.0805C1.40168 21.588 1.35169 21.8895 1.35169 24.3518C1.35169 26.7638 1.40168 27.1156 2.07654 28.3467C2.97635 30.0803 4.90095 32.1406 6.97552 33.5979C10.6997 36.2109 13.0243 38.0953 13.4992 38.8239C14.5489 40.5575 13.8991 42.8439 11.9745 44.1504C11.2246 44.6529 10.8747 44.7283 9.62497 44.6529C8.35023 44.5524 8.05029 44.4268 7.45042 43.7484C6.77556 42.9947 6.72557 42.7937 6.72557 40.7334C6.72557 37.6681 6.47562 37.4169 3.52624 37.4169C0.251923 37.4169 0.226929 37.4671 0.226929 41.261C0.226929 44.1253 0.276918 44.4268 0.976772 45.8841C2.82639 49.8287 7.00051 51.9392 11.6745 51.3111C14.099 50.9845 16.0986 50.0549 17.5733 48.5222C21.1975 44.8037 21.7474 38.8742 18.873 34.9295C17.9732 33.6984 16.7485 32.7185 11.6745 29.0251C10.1998 27.9698 8.77514 26.7889 8.52519 26.4121C6.97552 24.201 8.25025 21.4122 10.9497 21.1358C12.0745 21.0353 12.2494 21.0855 13.0742 21.8644C13.8491 22.593 14.024 22.9699 14.324 24.5528C14.4989 25.5829 14.8239 26.5628 15.0238 26.7638C15.4987 27.2663 19.5229 27.3417 20.0978 26.8643C20.3977 26.6131 20.4727 26.0101 20.4727 24.1257C20.4727 22.794 20.3477 21.3116 20.2227 20.8343C19.5479 18.3469 17.1484 15.759 14.7239 14.9047C13.3492 14.4273 10.2498 14.2515 8.77514 14.553Z" fill="black"/>
<path fill-rule="evenodd" clip-rule="evenodd" d="M30.2878 15.5948C29.5109 15.8463 28.3831 16.3494 27.7816 16.7015C26.1025 17.6825 23.8971 20.1727 22.9948 22.0843L22.1928 23.7947V32.3468V40.8988L22.9948 42.6093C25.1501 47.1871 30.363 49.7527 35.3504 48.7215C37.9317 48.1681 39.5357 47.338 41.0895 45.7282C42.7687 43.9927 43.2198 43.2632 43.8714 41.4019C44.9741 38.1823 44.4478 37.2516 41.4655 37.2516C39.4856 37.2516 39.3101 37.3774 38.4079 39.1381C36.6786 42.559 32.8442 43.5399 29.8618 41.3265C28.2578 40.1191 28.0824 39.3645 28.0824 32.5983C28.0824 29.0014 28.2077 26.1591 28.3581 25.5554C28.7591 24.0966 29.6362 23.0653 31.14 22.3107C33.7715 21.0027 36.7789 21.7573 38.5082 24.1469C39.5357 25.6058 39.9868 25.7818 42.1672 25.6309C44.0218 25.5051 44.4729 25.0524 44.2724 23.5432C43.8965 21.0279 41.3652 17.6574 38.9092 16.3997C36.3528 15.0918 32.8692 14.7648 30.2878 15.5948Z" fill="black"/>
<path fill-rule="evenodd" clip-rule="evenodd" d="M46.204 15.884C45.9536 16.1349 45.8785 19.573 45.8785 31.3427C45.8785 48.9095 45.5279 47.1528 48.9085 46.7262C50.0354 46.6007 51.1122 46.3497 51.2875 46.1992C51.5379 45.9984 51.638 44.8189 51.6881 41.4812C51.7632 37.8173 51.8133 37.0645 52.1138 37.0645C52.3392 37.0645 53.1405 38.52 54.2173 40.9542C55.1689 43.0873 56.1204 45.0448 56.3208 45.2706C56.8717 45.898 61.1538 45.9231 61.7548 45.3208C61.9801 45.1201 62.1554 44.8189 62.1554 44.6934C62.1554 44.568 61.304 42.6607 60.2773 40.4523C59.2506 38.2439 58.3992 36.3618 58.3992 36.2614C58.3992 36.1359 58.9501 35.5336 59.6262 34.8812C60.3024 34.2287 61.1287 33.1496 61.4292 32.4971C62.0052 31.3678 62.0302 31.0165 62.0302 26.6499C62.0302 22.0574 62.0302 21.9821 61.304 20.4513C60.4776 18.6445 58.9501 17.0886 57.1972 16.2855C56.1455 15.8087 55.4944 15.7334 51.2624 15.6581C47.6564 15.6079 46.4294 15.6581 46.204 15.884ZM54.7933 22.2582C55.9201 22.986 56.1455 23.6384 56.1705 26.2986C56.1956 29.1343 55.845 30.3138 54.7432 31.0918C53.8667 31.6941 52.7649 31.9952 52.1138 31.7944C51.6631 31.6439 51.638 31.3427 51.638 26.9008C51.638 22.6597 51.6881 22.1327 52.0888 21.8818C52.6146 21.5555 54.017 21.7312 54.7933 22.2582Z" fill="black"/>
<path fill-rule="evenodd" clip-rule="evenodd" d="M64.791 16.0986C64.4164 16.524 64.3664 17.8754 64.3664 30.2381C64.3664 40.4736 64.4413 44.0773 64.6661 44.5778L64.9659 45.2535L67.7383 45.0784C69.237 45.0033 73.1335 44.8531 76.3555 44.7781C81.1013 44.6529 82.3002 44.5278 82.6748 44.2275C83.0245 43.9272 83.0995 43.4267 83.0995 41.5497C83.0995 40.1233 82.9995 39.1723 82.7997 38.9721C82.5749 38.7469 80.9014 38.6718 76.7802 38.6718C73.3333 38.6718 70.8855 38.5717 70.5858 38.4215C70.1861 38.1963 70.1112 37.871 70.1112 36.1942C70.1112 34.8929 70.2111 34.1421 70.4359 33.967C70.6107 33.8168 71.6598 33.6666 72.7338 33.6416C75.7811 33.5415 75.856 33.4664 75.856 30.2131C75.856 28.4363 75.7561 27.4102 75.5563 27.21C75.3814 27.0348 74.4573 26.9097 73.1584 26.9097C70.2361 26.9097 70.1112 26.8096 70.1112 24.5573C70.1112 21.8295 69.9114 21.9046 76.5054 21.9046C83.3742 21.9046 83.0995 22.0297 83.0995 18.8764C83.0995 15.3228 84.0236 15.6481 73.8828 15.6481C65.7901 15.6481 65.1657 15.6732 64.791 16.0986Z" fill="black"/>
<path fill-rule="evenodd" clip-rule="evenodd" d="M85.8046 16.0986C85.4299 16.524 85.3799 17.8754 85.3799 30.2381C85.3799 40.4736 85.4549 44.0773 85.6797 44.5778L85.9794 45.2535L88.7519 45.0784C90.2505 45.0033 94.147 44.8531 97.3691 44.7781C102.115 44.6529 103.314 44.5278 103.688 44.2275C104.038 43.9272 104.113 43.4267 104.113 41.5497C104.113 40.1233 104.013 39.1723 103.813 38.9721C103.588 38.7469 101.915 38.6718 97.7937 38.6718C94.3468 38.6718 91.899 38.5717 91.5993 38.4215C91.1997 38.1963 91.1247 37.871 91.1247 36.1942C91.1247 34.8929 91.2247 34.1421 91.4495 33.967C91.6243 33.8168 92.6733 33.6666 93.7474 33.6416C96.7946 33.5415 96.8696 33.4664 96.8696 30.2131C96.8696 28.4363 96.7696 27.4102 96.5698 27.21C96.395 27.0348 95.4708 26.9097 94.172 26.9097C91.2496 26.9097 91.1247 26.8096 91.1247 24.5573C91.1247 21.8295 90.9249 21.9046 97.519 21.9046C104.388 21.9046 104.113 22.0297 104.113 18.8764C104.113 15.3228 105.037 15.6481 94.8963 15.6481C86.8037 15.6481 86.1792 15.6732 85.8046 16.0986Z" fill="black"/>
<path fill-rule="evenodd" clip-rule="evenodd" d="M125.712 16.0169C125.486 16.2679 125.41 19.0793 125.36 26.7354C125.285 40.0142 125.461 44.9342 125.963 45.2605C126.515 45.6119 130.583 45.5617 130.935 45.2103C131.136 45.0095 131.236 43.7042 131.236 40.9681C131.236 36.5502 131.136 36.7259 133.295 36.7259C135.932 36.7259 138.946 34.5922 140.327 31.7557C141.155 30.0739 141.155 30.0739 141.13 26.3086C141.13 23.0454 141.055 22.3676 140.578 21.1627C139.573 18.5773 137.715 16.6695 135.53 15.9416C135.003 15.7659 132.969 15.6403 130.357 15.6403C126.867 15.6403 125.963 15.7156 125.712 16.0169ZM133.722 22.1417C135.103 23.0956 135.38 23.7984 135.38 26.1329C135.355 29.4212 134.4 30.9274 132.316 30.9525H131.236V26.3337C131.236 22.1417 131.287 21.6899 131.688 21.5895C132.291 21.4389 133.019 21.6397 133.722 22.1417Z" fill="black"/>
<path fill-rule="evenodd" clip-rule="evenodd" d="M142.882 16.2904C142.732 16.6655 142.633 22.6412 142.633 31.4922C142.633 45.0688 142.658 46.094 143.081 46.444C143.354 46.694 144.274 46.9191 145.617 47.0191C146.786 47.1191 149.173 47.3941 150.963 47.6441C153.798 48.0442 154.245 48.0692 154.593 47.7442C154.817 47.5441 155.24 46.194 155.563 44.6188C156.309 41.0184 156.384 41.0934 152.281 40.8933C150.59 40.8183 149.073 40.6683 148.924 40.5683C148.675 40.4183 148.601 37.693 148.601 28.3919C148.601 17.8406 148.551 16.3904 148.203 16.0404C147.904 15.7404 147.283 15.6403 145.468 15.6403C143.18 15.6403 143.105 15.6653 142.882 16.2904Z" fill="black"/>
<path fill-rule="evenodd" clip-rule="evenodd" d="M157.23 16.088C156.879 16.4887 156.277 18.5673 153.542 28.9351C152.94 31.2641 151.51 37.4748 151.51 37.8254C151.51 37.8755 151.685 38.1009 151.911 38.3012C152.237 38.6268 152.99 38.7019 156.226 38.7019C158.384 38.7019 160.316 38.8021 160.492 38.9022C160.743 39.0775 161.32 41.3815 162.549 47.3668C162.7 48.093 163.026 48.8443 163.252 49.0447C163.728 49.4704 167.793 50.1215 168.42 49.8961C168.972 49.6708 168.922 49.1198 168.094 45.764C167.667 44.1613 167.115 41.657 166.814 40.2045C166.538 38.752 165.76 35.1458 165.083 32.1907C164.406 29.2356 163.327 24.5025 162.674 21.6726C162.022 18.8177 161.345 16.3635 161.119 16.1131C160.542 15.487 157.782 15.487 157.23 16.088ZM159.513 29.6864C159.789 30.8384 159.94 31.8902 159.89 31.9904C159.714 32.2658 157.782 32.2408 157.782 31.9653C157.782 31.6398 158.51 28.1337 158.66 27.708C158.861 27.1571 158.986 27.4325 159.513 29.6864Z" fill="black"/>
<path fill-rule="evenodd" clip-rule="evenodd" d="M163.57 16.0416C163.395 16.2417 163.319 16.617 163.395 16.8422C163.67 17.8179 166.653 25.5735 168.483 30.1768L170.414 35.0554L170.589 38.683C170.689 40.6845 170.79 44.0119 170.815 46.0884C170.84 49.3408 170.89 49.9162 171.291 50.2414C171.517 50.4666 172.72 50.7918 173.948 50.9669C176.029 51.2672 176.179 51.2672 176.505 50.8168C176.781 50.4416 176.856 48.8404 176.856 43.2113C176.881 36.9067 176.931 35.906 177.332 34.8052C177.984 33.0039 179.037 30.352 179.989 28.0503C180.441 26.9495 181.017 25.4734 181.243 24.7979C181.694 23.522 181.844 23.1718 183.599 19.344C185.204 15.8414 185.103 15.6663 181.443 15.6663C179.212 15.6663 178.811 15.7414 178.41 16.1667C178.16 16.4419 177.357 18.3683 176.605 20.4698C174.424 26.6993 174.324 26.9245 173.973 26.9245C173.497 26.9245 173.522 26.9745 171.567 21.3704C170.614 18.5934 169.687 16.1667 169.536 15.9915C169.135 15.4912 163.996 15.5412 163.57 16.0416Z" fill="black"/>
<path fill-rule="evenodd" clip-rule="evenodd" d="M182.811 40.9842C181.669 41.352 181.098 41.7688 180.353 42.7742C178.739 44.9564 179.956 48.0705 182.711 48.8306C184.424 49.2965 186.535 48.3402 187.304 46.7709C187.925 45.4959 187.925 44.4415 187.329 43.2646C186.758 42.1366 186.187 41.6217 184.996 41.1313C184.002 40.739 183.779 40.7145 182.811 40.9842Z" fill="black"/>
<path fill-rule="evenodd" clip-rule="evenodd" d="M82.2084 50.9762C81.9863 51.2028 81.9123 52.9399 81.9123 57.2449C81.9123 63.1359 81.9123 63.2366 82.4552 63.6142C83.2202 64.1681 84.2813 64.1177 84.8736 63.5135C85.3425 63.0352 85.3672 62.6828 85.3672 57.3204C85.3672 53.8965 85.2685 51.4545 85.1204 51.1524C84.923 50.7748 84.6022 50.6741 83.6891 50.6741C83.0228 50.6741 82.3812 50.8 82.2084 50.9762Z" fill="black"/>
<path fill-rule="evenodd" clip-rule="evenodd" d="M89.2733 51.1773C89.0959 51.5295 89.0199 53.6681 89.0706 57.4924C89.1466 62.9019 89.172 63.3296 89.6282 63.6567C90.3125 64.1347 91.6558 64.1096 92.0866 63.6063C92.3147 63.3296 92.4921 62.2729 92.5682 60.7633C92.6442 59.4046 92.7963 58.3479 92.9483 58.3479C93.1511 58.3731 94.4944 60.0588 96.8261 63.2289C97.1809 63.707 97.5357 63.8328 98.4735 63.8831C99.2592 63.8831 99.7914 63.7825 99.9942 63.5309C100.4 63.0528 100.577 52.3598 100.197 51.3534C99.9688 50.7496 99.8168 50.6741 98.7016 50.6741C98.0426 50.6741 97.3583 50.7999 97.1809 50.976C96.9782 51.1773 96.8768 52.2088 96.8768 53.9952C96.8768 55.5551 96.7754 56.7125 96.6233 56.7125C96.4966 56.7125 95.4575 55.3538 94.3423 53.6933L92.264 50.6741H90.8954C89.8056 50.6741 89.5015 50.7747 89.2733 51.1773Z" fill="black"/>
<path fill-rule="evenodd" clip-rule="evenodd" d="M104.502 51.0769C104.148 51.4042 104.098 52.3357 104.098 57.3456C104.098 63.1359 104.098 63.2366 104.654 63.6142C105.437 64.1681 106.523 64.1177 107.13 63.5135C107.534 63.1107 107.635 62.6827 107.635 61.1219C107.635 59.3092 107.66 59.2337 108.14 59.4855C108.393 59.6365 109.252 60.6435 110.061 61.7261C111.324 63.5135 111.576 63.7149 112.486 63.866C113.522 64.0422 114.709 63.5639 114.709 62.9849C114.709 62.859 113.8 61.3988 112.688 59.7372L110.642 56.7162L111.501 55.3819C111.981 54.677 112.688 53.7958 113.067 53.4434C113.446 53.0909 113.926 52.4867 114.128 52.1091C114.659 51.0769 114.229 50.6741 112.537 50.6741H111.197L109.606 52.6881C108.721 53.7958 107.938 54.7021 107.862 54.7021C107.761 54.7021 107.635 53.8965 107.585 52.9147C107.534 51.7314 107.382 51.0769 107.13 50.9258C106.523 50.5482 104.932 50.6489 104.502 51.0769Z" fill="black"/>
<path fill-rule="evenodd" clip-rule="evenodd" d="M65.6255 56.1776C64.9194 56.8932 64.9194 57.1153 65.6507 57.7816C66.2054 58.2999 66.4324 58.3245 71.5262 58.3245C77.2757 58.3245 77.9314 58.1765 77.9314 56.9673C77.9314 55.684 77.6036 55.61 71.6523 55.61C66.2559 55.61 66.155 55.61 65.6255 56.1776Z" fill="black"/>
<path fill-rule="evenodd" clip-rule="evenodd" d="M116.727 56.0048C116.044 56.4737 116.018 57.1894 116.676 57.831C117.157 58.2999 117.511 58.3245 122.469 58.3245H127.781L128.287 57.6829C128.945 56.8686 128.945 56.7205 128.313 56.1035C127.832 55.6347 127.478 55.61 122.545 55.61C118.194 55.61 117.207 55.684 116.727 56.0048Z" fill="black"/>
<path fill-rule="evenodd" clip-rule="evenodd" d="M107.341 15.9414C107.116 16.1673 107.041 19.6298 107.041 29.9671C107.041 42.111 107.091 43.7419 107.441 44.0931C107.916 44.595 111.766 44.6702 112.241 44.1935C112.466 43.9677 112.541 42.0106 112.541 36.9674C112.566 28.9384 112.391 29.0388 114.991 35.5874C117.317 41.4335 118.242 43.516 118.692 44.0179C119.042 44.3942 119.492 44.4946 121.042 44.4946C122.192 44.4946 123.067 44.3691 123.242 44.1935C123.717 43.7168 123.667 16.3178 123.192 15.9163C122.967 15.7156 122.017 15.6404 120.517 15.6905L118.167 15.7658L118.042 23.1675L117.917 30.5693L115.867 25.4257C114.741 22.5905 113.516 19.4792 113.166 18.5258C112.091 15.6153 112.116 15.6403 109.716 15.6403C108.441 15.6403 107.516 15.7658 107.341 15.9414Z" fill="black"/>
</svg>
