<svg width="40" height="40" viewBox="0 0 40 40" fill="none" xmlns="http://www.w3.org/2000/svg">
<rect x="0.5" y="0.5" width="39" height="39" rx="11.5" stroke="#FFC96F"/>
<path fill-rule="evenodd" clip-rule="evenodd" d="M27.5 28.5H12.5C11.122 28.5 10 27.409 10 26.068V13.932C10 12.591 11.122 11.5 12.5 11.5H17.101C17.4 11.5 17.685 11.635 17.875 11.867L20.474 15.046H27.5C28.878 15.046 30 16.137 30 17.478V26.068C30 27.409 28.878 28.5 27.5 28.5Z" fill="#231F20"/>
<mask id="mask0_6526_114755" style="mask-type:luminance" maskUnits="userSpaceOnUse" x="10" y="11" width="20" height="18">
<path fill-rule="evenodd" clip-rule="evenodd" d="M27.5 28.5H12.5C11.122 28.5 10 27.409 10 26.068V13.932C10 12.591 11.122 11.5 12.5 11.5H17.101C17.4 11.5 17.685 11.635 17.875 11.867L20.474 15.046H27.5C28.878 15.046 30 16.137 30 17.478V26.068C30 27.409 28.878 28.5 27.5 28.5Z" fill="white"/>
</mask>
<g mask="url(#mask0_6526_114755)">
<rect x="8" y="8" width="24" height="24" fill="#FFC96F"/>
</g>
</svg>
