<svg width="70" height="40" viewBox="0 0 44 32" fill="none" xmlns="http://www.w3.org/2000/svg">
<rect x="0.5" y="0.5" width="43" height="31" rx="5.5" fill="white"/>
<rect x="0.5" y="0.5" width="43" height="31" rx="5.5" stroke="#BABABF"/>
<path d="M24.6833 4.02773C24.4222 3.91804 24.1199 4.1272 23.605 4.77345C23.2761 5.1863 22.8642 5.77862 22.3809 6.53393C21.5618 7.81383 20.8074 9.14208 20.7998 9.15535C20.7617 9.22265 20.7601 9.30507 20.7957 9.3738L21.6128 10.9524L21.1917 11.9834H20.005C19.6187 11.9834 19.3044 12.3021 19.3044 12.6939C19.3044 13.0064 19.5045 13.2722 19.7814 13.3671V13.4195C19.7814 13.5612 19.6678 13.6765 19.528 13.6765H19.1777C18.84 13.6765 18.5182 13.8237 18.2948 14.0804C18.0713 14.3371 17.9672 14.6792 18.0091 15.0189L18.3207 17.5472C18.2041 17.555 18.1118 17.653 18.1118 17.7732C18.1118 17.8985 18.2119 18 18.3354 18H23.5828C23.7063 18 23.8064 17.8985 23.8064 17.7732C23.8064 17.653 23.7141 17.555 23.5975 17.5472L23.9091 15.0189C23.951 14.6792 23.8469 14.3371 23.6234 14.0804C23.4 13.8237 23.0782 13.6765 22.7405 13.6765H22.3902C22.2505 13.6765 22.1368 13.5612 22.1368 13.4195V13.3671C22.4137 13.2722 22.6138 13.0064 22.6138 12.6939C22.6138 12.3021 22.2995 11.9834 21.9132 11.9834H21.6757L22.1887 10.7277L23.3812 10.1769C23.434 10.1526 23.4753 10.1084 23.4966 10.0537C23.5019 10.0401 24.0292 8.67941 24.4528 7.2955C24.7033 6.47694 24.8696 5.80831 24.9472 5.3082C25.0264 4.79691 25.068 4.18936 24.6833 4.02773ZM22.3902 14.13H22.7405C22.95 14.13 23.1495 14.2213 23.2881 14.3805C23.4268 14.5398 23.4913 14.7519 23.4654 14.9626L23.1469 17.5465H18.7713L18.4528 14.9626C18.4269 14.7519 18.4914 14.5398 18.63 14.3805C18.7686 14.2213 18.9682 14.13 19.1776 14.13H19.528C19.9143 14.13 20.2286 13.8113 20.2286 13.4195V13.4044H21.6895V13.4195C21.6896 13.8113 22.0039 14.13 22.3902 14.13ZM22.1666 12.6939C22.1666 12.8356 22.0529 12.9509 21.9132 12.9509H20.005C19.8653 12.9509 19.7516 12.8356 19.7516 12.6939C19.7516 12.5522 19.8653 12.4369 20.005 12.4369H21.9132C22.0529 12.4369 22.1666 12.5522 22.1666 12.6939ZM23.9857 7.29072C23.6361 8.41483 23.2296 9.497 23.1131 9.80239L22.4395 10.1134L23.8915 6.55863C23.9388 6.44292 23.8846 6.31029 23.7705 6.26237C23.6564 6.21447 23.5256 6.26938 23.4784 6.38509L21.8355 10.407L21.249 9.27387C21.4349 8.95003 22.0173 7.94508 22.6565 6.93707C23.9223 4.94092 24.3821 4.54815 24.52 4.47153C24.5675 4.59108 24.6568 5.1323 23.9857 7.29072Z" fill="black" stroke="black" stroke-width="0.2"/>
<path d="M7.684 21.818V26H7.138V24.104H5.008V26H4.462V21.818H5.008V23.654H7.138V21.818H7.684ZM8.4123 24.344C8.4123 24.008 8.4803 23.714 8.6163 23.462C8.7523 23.206 8.9383 23.008 9.1743 22.868C9.4143 22.728 9.6803 22.658 9.9723 22.658C10.2603 22.658 10.5103 22.72 10.7223 22.844C10.9343 22.968 11.0923 23.124 11.1963 23.312V22.712H11.7483V26H11.1963V25.388C11.0883 25.58 10.9263 25.74 10.7103 25.868C10.4983 25.992 10.2503 26.054 9.9663 26.054C9.6743 26.054 9.4103 25.982 9.1743 25.838C8.9383 25.694 8.7523 25.492 8.6163 25.232C8.4803 24.972 8.4123 24.676 8.4123 24.344ZM11.1963 24.35C11.1963 24.102 11.1463 23.886 11.0463 23.702C10.9463 23.518 10.8103 23.378 10.6383 23.282C10.4703 23.182 10.2843 23.132 10.0803 23.132C9.8763 23.132 9.6903 23.18 9.5223 23.276C9.3543 23.372 9.2203 23.512 9.1203 23.696C9.0203 23.88 8.9703 24.096 8.9703 24.344C8.9703 24.596 9.0203 24.816 9.1203 25.004C9.2203 25.188 9.3543 25.33 9.5223 25.43C9.6903 25.526 9.8763 25.574 10.0803 25.574C10.2843 25.574 10.4703 25.526 10.6383 25.43C10.8103 25.33 10.9463 25.188 11.0463 25.004C11.1463 24.816 11.1963 24.598 11.1963 24.35ZM14.273 22.652C14.673 22.652 14.997 22.774 15.245 23.018C15.493 23.258 15.617 23.606 15.617 24.062V26H15.077V24.14C15.077 23.812 14.995 23.562 14.831 23.39C14.667 23.214 14.443 23.126 14.159 23.126C13.871 23.126 13.641 23.216 13.469 23.396C13.301 23.576 13.217 23.838 13.217 24.182V26H12.671V22.712H13.217V23.18C13.325 23.012 13.471 22.882 13.655 22.79C13.843 22.698 14.049 22.652 14.273 22.652ZM16.3049 24.344C16.3049 24.008 16.3729 23.714 16.5089 23.462C16.6449 23.206 16.8309 23.008 17.0669 22.868C17.3069 22.728 17.5749 22.658 17.8709 22.658C18.1269 22.658 18.3649 22.718 18.5849 22.838C18.8049 22.954 18.9729 23.108 19.0889 23.3V21.56H19.6409V26H19.0889V25.382C18.9809 25.578 18.8209 25.74 18.6089 25.868C18.3969 25.992 18.1489 26.054 17.8649 26.054C17.5729 26.054 17.3069 25.982 17.0669 25.838C16.8309 25.694 16.6449 25.492 16.5089 25.232C16.3729 24.972 16.3049 24.676 16.3049 24.344ZM19.0889 24.35C19.0889 24.102 19.0389 23.886 18.9389 23.702C18.8389 23.518 18.7029 23.378 18.5309 23.282C18.3629 23.182 18.1769 23.132 17.9729 23.132C17.7689 23.132 17.5829 23.18 17.4149 23.276C17.2469 23.372 17.1129 23.512 17.0129 23.696C16.9129 23.88 16.8629 24.096 16.8629 24.344C16.8629 24.596 16.9129 24.816 17.0129 25.004C17.1129 25.188 17.2469 25.33 17.4149 25.43C17.5829 25.526 17.7689 25.574 17.9729 25.574C18.1769 25.574 18.3629 25.526 18.5309 25.43C18.7029 25.33 18.8389 25.188 18.9389 25.004C19.0389 24.816 19.0889 24.598 19.0889 24.35ZM24.9436 22.712L23.9176 26H23.3536L22.5616 23.39L21.7696 26H21.2056L20.1736 22.712H20.7316L21.4876 25.472L22.3036 22.712H22.8616L23.6596 25.478L24.4036 22.712H24.9436ZM26.0314 23.246C26.1274 23.058 26.2634 22.912 26.4394 22.808C26.6194 22.704 26.8374 22.652 27.0934 22.652V23.216H26.9494C26.3374 23.216 26.0314 23.548 26.0314 24.212V26H25.4854V22.712H26.0314V23.246ZM28.0057 22.178C27.9017 22.178 27.8137 22.142 27.7417 22.07C27.6697 21.998 27.6337 21.91 27.6337 21.806C27.6337 21.702 27.6697 21.614 27.7417 21.542C27.8137 21.47 27.9017 21.434 28.0057 21.434C28.1057 21.434 28.1897 21.47 28.2577 21.542C28.3297 21.614 28.3657 21.702 28.3657 21.806C28.3657 21.91 28.3297 21.998 28.2577 22.07C28.1897 22.142 28.1057 22.178 28.0057 22.178ZM28.2697 22.712V26H27.7237V22.712H28.2697ZM29.8663 23.162V25.1C29.8663 25.26 29.9003 25.374 29.9683 25.442C30.0363 25.506 30.1543 25.538 30.3223 25.538H30.7243V26H30.2323C29.9283 26 29.7003 25.93 29.5483 25.79C29.3963 25.65 29.3203 25.42 29.3203 25.1V23.162H28.8943V22.712H29.3203V21.884H29.8663V22.712H30.7243V23.162H29.8663ZM31.6678 22.178C31.5638 22.178 31.4758 22.142 31.4038 22.07C31.3318 21.998 31.2958 21.91 31.2958 21.806C31.2958 21.702 31.3318 21.614 31.4038 21.542C31.4758 21.47 31.5638 21.434 31.6678 21.434C31.7678 21.434 31.8518 21.47 31.9198 21.542C31.9918 21.614 32.0278 21.702 32.0278 21.806C32.0278 21.91 31.9918 21.998 31.9198 22.07C31.8518 22.142 31.7678 22.178 31.6678 22.178ZM31.9318 22.712V26H31.3858V22.712H31.9318ZM34.4644 22.652C34.8644 22.652 35.1884 22.774 35.4364 23.018C35.6844 23.258 35.8084 23.606 35.8084 24.062V26H35.2684V24.14C35.2684 23.812 35.1864 23.562 35.0224 23.39C34.8584 23.214 34.6344 23.126 34.3504 23.126C34.0624 23.126 33.8324 23.216 33.6604 23.396C33.4924 23.576 33.4084 23.838 33.4084 24.182V26H32.8624V22.712H33.4084V23.18C33.5164 23.012 33.6624 22.882 33.8464 22.79C34.0344 22.698 34.2404 22.652 34.4644 22.652ZM38.0563 22.658C38.3403 22.658 38.5883 22.72 38.8003 22.844C39.0163 22.968 39.1763 23.124 39.2803 23.312V22.712H39.8323V26.072C39.8323 26.372 39.7683 26.638 39.6403 26.87C39.5123 27.106 39.3283 27.29 39.0883 27.422C38.8523 27.554 38.5763 27.62 38.2603 27.62C37.8283 27.62 37.4683 27.518 37.1803 27.314C36.8923 27.11 36.7223 26.832 36.6703 26.48H37.2103C37.2703 26.68 37.3943 26.84 37.5823 26.96C37.7703 27.084 37.9963 27.146 38.2603 27.146C38.5603 27.146 38.8043 27.052 38.9923 26.864C39.1843 26.676 39.2803 26.412 39.2803 26.072V25.382C39.1723 25.574 39.0123 25.734 38.8003 25.862C38.5883 25.99 38.3403 26.054 38.0563 26.054C37.7643 26.054 37.4983 25.982 37.2583 25.838C37.0223 25.694 36.8363 25.492 36.7003 25.232C36.5643 24.972 36.4963 24.676 36.4963 24.344C36.4963 24.008 36.5643 23.714 36.7003 23.462C36.8363 23.206 37.0223 23.008 37.2583 22.868C37.4983 22.728 37.7643 22.658 38.0563 22.658ZM39.2803 24.35C39.2803 24.102 39.2303 23.886 39.1303 23.702C39.0303 23.518 38.8943 23.378 38.7223 23.282C38.5543 23.182 38.3683 23.132 38.1643 23.132C37.9603 23.132 37.7743 23.18 37.6063 23.276C37.4383 23.372 37.3043 23.512 37.2043 23.696C37.1043 23.88 37.0543 24.096 37.0543 24.344C37.0543 24.596 37.1043 24.816 37.2043 25.004C37.3043 25.188 37.4383 25.33 37.6063 25.43C37.7743 25.526 37.9603 25.574 38.1643 25.574C38.3683 25.574 38.5543 25.526 38.7223 25.43C38.8943 25.33 39.0303 25.188 39.1303 25.004C39.2303 24.816 39.2803 24.598 39.2803 24.35Z" fill="black"/>
</svg>
