<svg width="21" height="20" viewBox="0 0 21 20" fill="none" xmlns="http://www.w3.org/2000/svg">
<g id="ink-bottle-svgrepo-com 1" clip-path="url(#clip0_7099_35616)">
<g id="Group">
<g id="Group_2">
<g id="Group_3">
<g id="Vector">
<path d="M14.0215 5.21273V3.34579C14.6718 3.09703 15.1337 2.46756 15.1337 1.72989C15.1336 0.774513 14.3591 0 13.4037 0H7.59604C6.64066 0 5.86609 0.774513 5.86609 1.72989C5.86609 2.46762 6.32797 3.09703 6.97821 3.34579V5.21273C4.64168 5.51401 2.83594 7.50947 2.83594 9.92805V15.244C2.83594 17.8707 4.96532 20 7.59207 20H13.4076C16.0344 20 18.1638 17.8706 18.1638 15.244V9.92805C18.1638 7.50947 16.3581 5.51401 14.0215 5.21273ZM13.2486 14.8016H7.75102C6.29062 14.8016 5.10668 13.6177 5.10668 12.1572C5.10668 10.6967 6.29062 9.51272 7.75108 9.51272H13.2486C14.709 9.51272 15.893 10.6967 15.893 12.1572C15.893 13.6177 14.709 14.8016 13.2486 14.8016Z" fill="#212131"/>
<path d="M14.0215 5.21273V3.34579C14.6718 3.09703 15.1337 2.46756 15.1337 1.72989C15.1336 0.774513 14.3591 0 13.4037 0H7.59604C6.64066 0 5.86609 0.774513 5.86609 1.72989C5.86609 2.46762 6.32797 3.09703 6.97821 3.34579V5.21273C4.64168 5.51401 2.83594 7.50947 2.83594 9.92805V15.244C2.83594 17.8707 4.96532 20 7.59207 20H13.4076C16.0344 20 18.1638 17.8706 18.1638 15.244V9.92805C18.1638 7.50947 16.3581 5.51401 14.0215 5.21273ZM13.2486 14.8016H7.75102C6.29062 14.8016 5.10668 13.6177 5.10668 12.1572C5.10668 10.6967 6.29062 9.51272 7.75108 9.51272H13.2486C14.709 9.51272 15.893 10.6967 15.893 12.1572C15.893 13.6177 14.709 14.8016 13.2486 14.8016Z" fill="black" fill-opacity="0.2"/>
</g>
<g id="Group_4">
<g id="Vector_2">
<path d="M7.21087 10.418H7.19349C6.98123 10.418 6.80859 10.5906 6.80859 10.8028V13.4453C6.80859 13.6575 6.98129 13.8302 7.19349 13.8302H7.21087C7.42307 13.8302 7.59571 13.6575 7.59571 13.4453V10.8028C7.59577 10.5906 7.42313 10.418 7.21087 10.418Z" fill="#212131"/>
<path d="M7.21087 10.418H7.19349C6.98123 10.418 6.80859 10.5906 6.80859 10.8028V13.4453C6.80859 13.6575 6.98129 13.8302 7.19349 13.8302H7.21087C7.42307 13.8302 7.59571 13.6575 7.59571 13.4453V10.8028C7.59577 10.5906 7.42313 10.418 7.21087 10.418Z" fill="black" fill-opacity="0.2"/>
</g>
<g id="Vector_3">
<path d="M10.5845 10.418H10.567C10.3548 10.418 10.1822 10.5906 10.1822 10.8028V12.3051L8.92718 10.5767C8.85491 10.4774 8.73847 10.418 8.61585 10.418H8.54511C8.33285 10.418 8.16016 10.5906 8.16016 10.8028V13.4453C8.16016 13.6575 8.33285 13.8302 8.54511 13.8302H8.56237C8.77463 13.8302 8.94733 13.6575 8.94733 13.4453V11.943L10.2022 13.6714C10.2744 13.7707 10.3909 13.8301 10.5137 13.8301H10.5845C10.7966 13.8301 10.9691 13.6574 10.9691 13.4453V10.8028C10.9693 10.5906 10.7967 10.418 10.5845 10.418Z" fill="#212131"/>
<path d="M10.5845 10.418H10.567C10.3548 10.418 10.1822 10.5906 10.1822 10.8028V12.3051L8.92718 10.5767C8.85491 10.4774 8.73847 10.418 8.61585 10.418H8.54511C8.33285 10.418 8.16016 10.5906 8.16016 10.8028V13.4453C8.16016 13.6575 8.33285 13.8302 8.54511 13.8302H8.56237C8.77463 13.8302 8.94733 13.6575 8.94733 13.4453V11.943L10.2022 13.6714C10.2744 13.7707 10.3909 13.8301 10.5137 13.8301H10.5845C10.7966 13.8301 10.9691 13.6574 10.9691 13.4453V10.8028C10.9693 10.5906 10.7967 10.418 10.5845 10.418Z" fill="black" fill-opacity="0.2"/>
</g>
<g id="Vector_4">
<path d="M14.1013 13.2025L13.1253 12.0021L13.9942 11.0645C14.0982 10.9521 14.1258 10.789 14.0647 10.6487C14.0034 10.5085 13.8649 10.418 13.7119 10.418H13.6854C13.5783 10.418 13.4753 10.4631 13.4026 10.5419L12.3184 11.7168V10.8028C12.3184 10.5906 12.1457 10.418 11.9335 10.418H11.9161C11.7039 10.418 11.5312 10.5906 11.5312 10.8028V13.4453C11.5312 13.6575 11.7039 13.8302 11.9161 13.8302H11.9335C12.1457 13.8302 12.3184 13.6575 12.3184 13.4453V12.8755L12.5843 12.5871L13.4766 13.6877C13.55 13.7784 13.659 13.8303 13.7757 13.8303H13.8028C13.9506 13.8303 14.0869 13.7441 14.1504 13.6108C14.2136 13.4772 14.1944 13.317 14.1013 13.2025Z" fill="#212131"/>
<path d="M14.1013 13.2025L13.1253 12.0021L13.9942 11.0645C14.0982 10.9521 14.1258 10.789 14.0647 10.6487C14.0034 10.5085 13.8649 10.418 13.7119 10.418H13.6854C13.5783 10.418 13.4753 10.4631 13.4026 10.5419L12.3184 11.7168V10.8028C12.3184 10.5906 12.1457 10.418 11.9335 10.418H11.9161C11.7039 10.418 11.5312 10.5906 11.5312 10.8028V13.4453C11.5312 13.6575 11.7039 13.8302 11.9161 13.8302H11.9335C12.1457 13.8302 12.3184 13.6575 12.3184 13.4453V12.8755L12.5843 12.5871L13.4766 13.6877C13.55 13.7784 13.659 13.8303 13.7757 13.8303H13.8028C13.9506 13.8303 14.0869 13.7441 14.1504 13.6108C14.2136 13.4772 14.1944 13.317 14.1013 13.2025Z" fill="black" fill-opacity="0.2"/>
</g>
</g>
</g>
</g>
</g>
</g>
<defs>
<clipPath id="clip0_7099_35616">
<rect width="20" height="20" fill="white" transform="translate(0.5)"/>
</clipPath>
</defs>
</svg>
