<svg width="70" height="40" viewBox="0 0 44 32" fill="none" xmlns="http://www.w3.org/2000/svg">
<rect x="0.5" y="0.5" width="43" height="31" rx="5.5" fill="white"/>
<rect x="0.5" y="0.5" width="43" height="31" rx="5.5" stroke="#BABABF"/>
<path d="M19.75 13.75H24.25M15.25 13.75H16.375M27.625 11.5H28.75M15.25 11.5H16.375M18.625 11.5H19.75M21.4375 11.5H22.5625M24.25 11.5H25.375M27.625 13.75H28.75M27.625 9.25H28.75M24.25 9.25H25.375M21.4375 9.25H22.5625M18.625 9.25H19.75M15.25 9.25H16.375M14.125 7H29.875C30.4963 7 31 7.50368 31 8.125V14.875C31 15.4963 30.4963 16 29.875 16H14.125C13.5037 16 13 15.4963 13 14.875V8.125C13 7.50368 13.5037 7 14.125 7Z" stroke="#212131" stroke-width="0.99" stroke-linecap="round" stroke-linejoin="round"/>
<path d="M19.75 13.75H24.25M15.25 13.75H16.375M27.625 11.5H28.75M15.25 11.5H16.375M18.625 11.5H19.75M21.4375 11.5H22.5625M24.25 11.5H25.375M27.625 13.75H28.75M27.625 9.25H28.75M24.25 9.25H25.375M21.4375 9.25H22.5625M18.625 9.25H19.75M15.25 9.25H16.375M14.125 7H29.875C30.4963 7 31 7.50368 31 8.125V14.875C31 15.4963 30.4963 16 29.875 16H14.125C13.5037 16 13 15.4963 13 14.875V8.125C13 7.50368 13.5037 7 14.125 7Z" stroke="black" stroke-opacity="0.2" stroke-width="0.99" stroke-linecap="round" stroke-linejoin="round"/>
<path d="M9.704 21.848V26H9.158V22.904L7.778 26H7.394L6.008 22.898V26H5.462V21.848H6.05L7.586 25.28L9.122 21.848H9.704ZM10.426 24.344C10.426 24.008 10.494 23.714 10.63 23.462C10.766 23.206 10.952 23.008 11.188 22.868C11.428 22.728 11.694 22.658 11.986 22.658C12.274 22.658 12.524 22.72 12.736 22.844C12.948 22.968 13.106 23.124 13.21 23.312V22.712H13.762V26H13.21V25.388C13.102 25.58 12.94 25.74 12.724 25.868C12.512 25.992 12.264 26.054 11.98 26.054C11.688 26.054 11.424 25.982 11.188 25.838C10.952 25.694 10.766 25.492 10.63 25.232C10.494 24.972 10.426 24.676 10.426 24.344ZM13.21 24.35C13.21 24.102 13.16 23.886 13.06 23.702C12.96 23.518 12.824 23.378 12.652 23.282C12.484 23.182 12.298 23.132 12.094 23.132C11.89 23.132 11.704 23.18 11.536 23.276C11.368 23.372 11.234 23.512 11.134 23.696C11.034 23.88 10.984 24.096 10.984 24.344C10.984 24.596 11.034 24.816 11.134 25.004C11.234 25.188 11.368 25.33 11.536 25.43C11.704 25.526 11.89 25.574 12.094 25.574C12.298 25.574 12.484 25.526 12.652 25.43C12.824 25.33 12.96 25.188 13.06 25.004C13.16 24.816 13.21 24.598 13.21 24.35ZM15.2307 21.56V26H14.6847V21.56H15.2307ZM15.9572 24.344C15.9572 24.008 16.0252 23.714 16.1612 23.462C16.2972 23.206 16.4832 23.008 16.7192 22.868C16.9592 22.728 17.2252 22.658 17.5172 22.658C17.8052 22.658 18.0552 22.72 18.2672 22.844C18.4792 22.968 18.6372 23.124 18.7412 23.312V22.712H19.2932V26H18.7412V25.388C18.6332 25.58 18.4712 25.74 18.2552 25.868C18.0432 25.992 17.7952 26.054 17.5112 26.054C17.2192 26.054 16.9552 25.982 16.7192 25.838C16.4832 25.694 16.2972 25.492 16.1612 25.232C16.0252 24.972 15.9572 24.676 15.9572 24.344ZM18.7412 24.35C18.7412 24.102 18.6912 23.886 18.5912 23.702C18.4912 23.518 18.3552 23.378 18.1832 23.282C18.0152 23.182 17.8292 23.132 17.6252 23.132C17.4212 23.132 17.2352 23.18 17.0672 23.276C16.8992 23.372 16.7652 23.512 16.6652 23.696C16.5652 23.88 16.5152 24.096 16.5152 24.344C16.5152 24.596 16.5652 24.816 16.6652 25.004C16.7652 25.188 16.8992 25.33 17.0672 25.43C17.2352 25.526 17.4212 25.574 17.6252 25.574C17.8292 25.574 18.0152 25.526 18.1832 25.43C18.3552 25.33 18.4912 25.188 18.5912 25.004C18.6912 24.816 18.7412 24.598 18.7412 24.35ZM23.0479 22.712L21.0679 27.548H20.5039L21.1519 25.964L19.8259 22.712H20.4319L21.4639 25.376L22.4839 22.712H23.0479ZM23.3928 24.344C23.3928 24.008 23.4608 23.714 23.5968 23.462C23.7328 23.206 23.9188 23.008 24.1548 22.868C24.3948 22.728 24.6608 22.658 24.9528 22.658C25.2408 22.658 25.4908 22.72 25.7028 22.844C25.9148 22.968 26.0728 23.124 26.1768 23.312V22.712H26.7288V26H26.1768V25.388C26.0688 25.58 25.9068 25.74 25.6908 25.868C25.4788 25.992 25.2308 26.054 24.9468 26.054C24.6548 26.054 24.3908 25.982 24.1548 25.838C23.9188 25.694 23.7328 25.492 23.5968 25.232C23.4608 24.972 23.3928 24.676 23.3928 24.344ZM26.1768 24.35C26.1768 24.102 26.1268 23.886 26.0268 23.702C25.9268 23.518 25.7908 23.378 25.6188 23.282C25.4508 23.182 25.2648 23.132 25.0608 23.132C24.8568 23.132 24.6708 23.18 24.5028 23.276C24.3348 23.372 24.2008 23.512 24.1008 23.696C24.0008 23.88 23.9508 24.096 23.9508 24.344C23.9508 24.596 24.0008 24.816 24.1008 25.004C24.2008 25.188 24.3348 25.33 24.5028 25.43C24.6708 25.526 24.8568 25.574 25.0608 25.574C25.2648 25.574 25.4508 25.526 25.6188 25.43C25.7908 25.33 25.9268 25.188 26.0268 25.004C26.1268 24.816 26.1768 24.598 26.1768 24.35ZM28.1975 21.56V26H27.6515V21.56H28.1975ZM28.924 24.344C28.924 24.008 28.992 23.714 29.128 23.462C29.264 23.206 29.45 23.008 29.686 22.868C29.926 22.728 30.192 22.658 30.484 22.658C30.772 22.658 31.022 22.72 31.234 22.844C31.446 22.968 31.604 23.124 31.708 23.312V22.712H32.26V26H31.708V25.388C31.6 25.58 31.438 25.74 31.222 25.868C31.01 25.992 30.762 26.054 30.478 26.054C30.186 26.054 29.922 25.982 29.686 25.838C29.45 25.694 29.264 25.492 29.128 25.232C28.992 24.972 28.924 24.676 28.924 24.344ZM31.708 24.35C31.708 24.102 31.658 23.886 31.558 23.702C31.458 23.518 31.322 23.378 31.15 23.282C30.982 23.182 30.796 23.132 30.592 23.132C30.388 23.132 30.202 23.18 30.034 23.276C29.866 23.372 29.732 23.512 29.632 23.696C29.532 23.88 29.482 24.096 29.482 24.344C29.482 24.596 29.532 24.816 29.632 25.004C29.732 25.188 29.866 25.33 30.034 25.43C30.202 25.526 30.388 25.574 30.592 25.574C30.796 25.574 30.982 25.526 31.15 25.43C31.322 25.33 31.458 25.188 31.558 25.004C31.658 24.816 31.708 24.598 31.708 24.35ZM37.1367 22.652C37.3927 22.652 37.6207 22.706 37.8207 22.814C38.0207 22.918 38.1787 23.076 38.2947 23.288C38.4107 23.5 38.4687 23.758 38.4687 24.062V26H37.9287V24.14C37.9287 23.812 37.8467 23.562 37.6827 23.39C37.5227 23.214 37.3047 23.126 37.0287 23.126C36.7447 23.126 36.5187 23.218 36.3507 23.402C36.1827 23.582 36.0987 23.844 36.0987 24.188V26H35.5587V24.14C35.5587 23.812 35.4767 23.562 35.3127 23.39C35.1527 23.214 34.9347 23.126 34.6587 23.126C34.3747 23.126 34.1487 23.218 33.9807 23.402C33.8127 23.582 33.7287 23.844 33.7287 24.188V26H33.1827V22.712H33.7287V23.186C33.8367 23.014 33.9807 22.882 34.1607 22.79C34.3447 22.698 34.5467 22.652 34.7667 22.652C35.0427 22.652 35.2867 22.714 35.4987 22.838C35.7107 22.962 35.8687 23.144 35.9727 23.384C36.0647 23.152 36.2167 22.972 36.4287 22.844C36.6407 22.716 36.8767 22.652 37.1367 22.652Z" fill="black"/>
</svg>
