<svg width="70" height="40" viewBox="0 0 44 32" fill="none" xmlns="http://www.w3.org/2000/svg">
<rect x="0.5" y="0.5" width="43" height="31" rx="5.5" fill="white"/>
<rect x="0.5" y="0.5" width="43" height="31" rx="5.5" stroke="#BABABF"/>
<path d="M26.7998 12H25.5998C25.4406 12 25.288 12.0632 25.1755 12.1757C25.063 12.2883 24.9998 12.4409 24.9998 12.6C24.9998 12.7591 25.063 12.9117 25.1755 13.0243C25.288 13.1368 25.4406 13.2 25.5998 13.2V14.4H24.8892C24.9603 14.2079 24.9977 14.0049 24.9998 13.8C24.9998 13.4037 24.8691 13.0186 24.6279 12.7042C24.3867 12.3898 24.0485 12.1638 23.6657 12.0613C23.283 11.9587 22.8771 11.9854 22.511 12.1371C22.145 12.2888 21.8392 12.5571 21.6412 12.9003C21.6014 12.9686 21.5755 13.044 21.565 13.1223C21.5544 13.2006 21.5595 13.2802 21.5798 13.3566C21.6001 13.433 21.6353 13.5045 21.6834 13.5673C21.7314 13.63 21.7914 13.6826 21.8599 13.722C21.9283 13.7615 22.0039 13.7871 22.0822 13.7973C22.1606 13.8074 22.2402 13.8021 22.3164 13.7814C22.3927 13.7607 22.4641 13.7252 22.5266 13.6769C22.5891 13.6285 22.6415 13.5683 22.6806 13.4997C22.7333 13.4086 22.809 13.333 22.9001 13.2804C22.9912 13.2278 23.0946 13.2001 23.1998 13.2C23.3589 13.2 23.5115 13.2632 23.624 13.3757C23.7366 13.4883 23.7998 13.6409 23.7998 13.8C23.7998 13.9591 23.7366 14.1117 23.624 14.2243C23.5115 14.3368 23.3589 14.4 23.1998 14.4C23.0406 14.4 22.888 14.4632 22.7755 14.5757C22.663 14.6883 22.5998 14.8409 22.5998 15C22.5998 15.1591 22.663 15.3117 22.7755 15.4243C22.888 15.5368 23.0406 15.6 23.1998 15.6C23.3589 15.6 23.5115 15.6632 23.624 15.7757C23.7366 15.8883 23.7998 16.0409 23.7998 16.2C23.7998 16.3591 23.7366 16.5117 23.624 16.6243C23.5115 16.7368 23.3589 16.8 23.1998 16.8C23.0946 16.7999 22.9912 16.7721 22.9001 16.7195C22.809 16.6669 22.7333 16.5913 22.6806 16.5003C22.6415 16.4317 22.5891 16.3715 22.5266 16.3231C22.4641 16.2748 22.3927 16.2392 22.3164 16.2186C22.2402 16.1979 22.1606 16.1925 22.0822 16.2027C22.0039 16.2129 21.9283 16.2385 21.8599 16.2779C21.7914 16.3174 21.7314 16.37 21.6834 16.4327C21.6353 16.4954 21.6001 16.567 21.5798 16.6434C21.5595 16.7197 21.5544 16.7993 21.565 16.8777C21.5755 16.956 21.6014 17.0314 21.6412 17.0997C21.8392 17.4429 22.145 17.7112 22.511 17.8629C22.8771 18.0146 23.283 18.0412 23.6657 17.9387C24.0485 17.8362 24.3867 17.6102 24.6279 17.2958C24.8691 16.9814 24.9998 16.5962 24.9998 16.2C24.9977 15.9951 24.9603 15.7921 24.8892 15.6H25.5998V17.4C25.5998 17.5591 25.663 17.7117 25.7755 17.8243C25.888 17.9368 26.0406 18 26.1998 18C26.3589 18 26.5115 17.9368 26.624 17.8243C26.7366 17.7117 26.7998 17.5591 26.7998 17.4V13.2C26.9589 13.2 27.1115 13.1368 27.224 13.0243C27.3366 12.9117 27.3998 12.7591 27.3998 12.6C27.3998 12.4409 27.3366 12.2883 27.224 12.1757C27.1115 12.0632 26.9589 12 26.7998 12ZM19.6179 11.5456C19.6566 11.6999 19.7549 11.8326 19.8913 11.9144C19.9589 11.9549 20.0337 11.9817 20.1116 11.9933C20.1896 12.0048 20.269 12.001 20.3454 11.9818C20.4218 11.9627 20.4937 11.9287 20.557 11.8818C20.6202 11.8349 20.6736 11.776 20.7142 11.7085C20.7547 11.6409 20.7815 11.566 20.793 11.4881C20.8046 11.4102 20.8007 11.3308 20.7816 11.2544L19.7275 7.03653C19.6535 6.74047 19.4827 6.47764 19.2422 6.28983C19.0016 6.10202 18.7052 6 18.4001 6C18.0949 6 17.7985 6.10202 17.558 6.28983C17.3175 6.47764 17.1466 6.74047 17.0726 7.03653L16.0179 11.2544C15.9793 11.4087 16.0036 11.572 16.0854 11.7085C16.1672 11.8449 16.2999 11.9432 16.4542 11.9818C16.6085 12.0205 16.7718 11.9962 16.9082 11.9144C17.0447 11.8326 17.143 11.6999 17.1816 11.5456L17.5181 10.2H19.2816L19.6179 11.5456ZM17.8182 9L18.2363 7.32774C18.249 7.29458 18.2714 7.26605 18.3007 7.24592C18.3299 7.2258 18.3646 7.21502 18.4001 7.21502C18.4356 7.21502 18.4702 7.2258 18.4995 7.24592C18.5287 7.26605 18.5512 7.29458 18.5638 7.32774L18.9818 9H17.8182ZM22.5998 9H23.1998C23.3589 9.00016 23.5114 9.06342 23.6239 9.17591C23.7363 9.2884 23.7996 9.44092 23.7998 9.6V10.2C23.7998 10.3591 23.863 10.5117 23.9755 10.6243C24.088 10.7368 24.2406 10.8 24.3998 10.8C24.5589 10.8 24.7115 10.7368 24.824 10.6243C24.9366 10.5117 24.9998 10.3591 24.9998 10.2V9.6C24.9992 9.12277 24.8094 8.66524 24.472 8.32778C24.1345 7.99033 23.677 7.80052 23.1998 7.8H22.5998C22.4406 7.8 22.288 7.86322 22.1755 7.97574C22.063 8.08826 21.9998 8.24087 21.9998 8.4C21.9998 8.55913 22.063 8.71174 22.1755 8.82426C22.288 8.93679 22.4406 9 22.5998 9ZM20.1998 14.4H19.5998C19.4407 14.3998 19.2882 14.3366 19.1757 14.2241C19.0632 14.1116 18.9999 13.9591 18.9998 13.8V13.2C18.9998 13.0409 18.9366 12.8883 18.824 12.7757C18.7115 12.6632 18.5589 12.6 18.3998 12.6C18.2406 12.6 18.088 12.6632 17.9755 12.7757C17.863 12.8883 17.7998 13.0409 17.7998 13.2V13.8C17.8003 14.2772 17.9901 14.7348 18.3276 15.0722C18.665 15.4097 19.1225 15.5995 19.5998 15.6H20.1998C20.3589 15.6 20.5115 15.5368 20.624 15.4243C20.7366 15.3117 20.7998 15.1591 20.7998 15C20.7998 14.8409 20.7366 14.6883 20.624 14.5757C20.5115 14.4632 20.3589 14.4 20.1998 14.4Z" fill="black" stroke="white" stroke-width="0.48"/>
<path d="M8.008 25.556H9.472V26H7.462V21.818H8.008V25.556ZM9.84784 24.344C9.84784 24.008 9.91584 23.714 10.0518 23.462C10.1878 23.206 10.3738 23.008 10.6098 22.868C10.8498 22.728 11.1158 22.658 11.4078 22.658C11.6958 22.658 11.9458 22.72 12.1578 22.844C12.3698 22.968 12.5278 23.124 12.6318 23.312V22.712H13.1838V26H12.6318V25.388C12.5238 25.58 12.3618 25.74 12.1458 25.868C11.9338 25.992 11.6858 26.054 11.4018 26.054C11.1098 26.054 10.8458 25.982 10.6098 25.838C10.3738 25.694 10.1878 25.492 10.0518 25.232C9.91584 24.972 9.84784 24.676 9.84784 24.344ZM12.6318 24.35C12.6318 24.102 12.5818 23.886 12.4818 23.702C12.3818 23.518 12.2458 23.378 12.0738 23.282C11.9058 23.182 11.7198 23.132 11.5158 23.132C11.3118 23.132 11.1258 23.18 10.9578 23.276C10.7898 23.372 10.6558 23.512 10.5558 23.696C10.4558 23.88 10.4058 24.096 10.4058 24.344C10.4058 24.596 10.4558 24.816 10.5558 25.004C10.6558 25.188 10.7898 25.33 10.9578 25.43C11.1258 25.526 11.3118 25.574 11.5158 25.574C11.7198 25.574 11.9058 25.526 12.0738 25.43C12.2458 25.33 12.3818 25.188 12.4818 25.004C12.5818 24.816 12.6318 24.598 12.6318 24.35ZM15.7085 22.652C16.1085 22.652 16.4325 22.774 16.6805 23.018C16.9285 23.258 17.0525 23.606 17.0525 24.062V26H16.5125V24.14C16.5125 23.812 16.4305 23.562 16.2665 23.39C16.1025 23.214 15.8785 23.126 15.5945 23.126C15.3065 23.126 15.0765 23.216 14.9045 23.396C14.7365 23.576 14.6525 23.838 14.6525 24.182V26H14.1065V22.712H14.6525V23.18C14.7605 23.012 14.9065 22.882 15.0905 22.79C15.2785 22.698 15.4845 22.652 15.7085 22.652ZM19.3004 22.658C19.5844 22.658 19.8324 22.72 20.0444 22.844C20.2604 22.968 20.4204 23.124 20.5244 23.312V22.712H21.0764V26.072C21.0764 26.372 21.0124 26.638 20.8844 26.87C20.7564 27.106 20.5724 27.29 20.3324 27.422C20.0964 27.554 19.8204 27.62 19.5044 27.62C19.0724 27.62 18.7124 27.518 18.4244 27.314C18.1364 27.11 17.9664 26.832 17.9144 26.48H18.4544C18.5144 26.68 18.6384 26.84 18.8264 26.96C19.0144 27.084 19.2404 27.146 19.5044 27.146C19.8044 27.146 20.0484 27.052 20.2364 26.864C20.4284 26.676 20.5244 26.412 20.5244 26.072V25.382C20.4164 25.574 20.2564 25.734 20.0444 25.862C19.8324 25.99 19.5844 26.054 19.3004 26.054C19.0084 26.054 18.7424 25.982 18.5024 25.838C18.2664 25.694 18.0804 25.492 17.9444 25.232C17.8084 24.972 17.7404 24.676 17.7404 24.344C17.7404 24.008 17.8084 23.714 17.9444 23.462C18.0804 23.206 18.2664 23.008 18.5024 22.868C18.7424 22.728 19.0084 22.658 19.3004 22.658ZM20.5244 24.35C20.5244 24.102 20.4744 23.886 20.3744 23.702C20.2744 23.518 20.1384 23.378 19.9664 23.282C19.7984 23.182 19.6124 23.132 19.4084 23.132C19.2044 23.132 19.0184 23.18 18.8504 23.276C18.6824 23.372 18.5484 23.512 18.4484 23.696C18.3484 23.88 18.2984 24.096 18.2984 24.344C18.2984 24.596 18.3484 24.816 18.4484 25.004C18.5484 25.188 18.6824 25.33 18.8504 25.43C19.0184 25.526 19.2044 25.574 19.4084 25.574C19.6124 25.574 19.7984 25.526 19.9664 25.43C20.1384 25.33 20.2744 25.188 20.3744 25.004C20.4744 24.816 20.5244 24.598 20.5244 24.35ZM24.9151 22.712V26H24.3691V25.514C24.2651 25.682 24.1191 25.814 23.9311 25.91C23.7471 26.002 23.5431 26.048 23.3191 26.048C23.0631 26.048 22.8331 25.996 22.6291 25.892C22.4251 25.784 22.2631 25.624 22.1431 25.412C22.0271 25.2 21.9691 24.942 21.9691 24.638V22.712H22.5091V24.566C22.5091 24.89 22.5911 25.14 22.7551 25.316C22.9191 25.488 23.1431 25.574 23.4271 25.574C23.7191 25.574 23.9491 25.484 24.1171 25.304C24.2851 25.124 24.3691 24.862 24.3691 24.518V22.712H24.9151ZM25.633 24.344C25.633 24.008 25.701 23.714 25.837 23.462C25.973 23.206 26.159 23.008 26.395 22.868C26.635 22.728 26.901 22.658 27.193 22.658C27.481 22.658 27.731 22.72 27.943 22.844C28.155 22.968 28.313 23.124 28.417 23.312V22.712H28.969V26H28.417V25.388C28.309 25.58 28.147 25.74 27.931 25.868C27.719 25.992 27.471 26.054 27.187 26.054C26.895 26.054 26.631 25.982 26.395 25.838C26.159 25.694 25.973 25.492 25.837 25.232C25.701 24.972 25.633 24.676 25.633 24.344ZM28.417 24.35C28.417 24.102 28.367 23.886 28.267 23.702C28.167 23.518 28.031 23.378 27.859 23.282C27.691 23.182 27.505 23.132 27.301 23.132C27.097 23.132 26.911 23.18 26.743 23.276C26.575 23.372 26.441 23.512 26.341 23.696C26.241 23.88 26.191 24.096 26.191 24.344C26.191 24.596 26.241 24.816 26.341 25.004C26.441 25.188 26.575 25.33 26.743 25.43C26.911 25.526 27.097 25.574 27.301 25.574C27.505 25.574 27.691 25.526 27.859 25.43C28.031 25.33 28.167 25.188 28.267 25.004C28.367 24.816 28.417 24.598 28.417 24.35ZM31.2477 22.658C31.5317 22.658 31.7797 22.72 31.9917 22.844C32.2077 22.968 32.3677 23.124 32.4717 23.312V22.712H33.0237V26.072C33.0237 26.372 32.9597 26.638 32.8317 26.87C32.7037 27.106 32.5197 27.29 32.2797 27.422C32.0437 27.554 31.7677 27.62 31.4517 27.62C31.0197 27.62 30.6597 27.518 30.3717 27.314C30.0837 27.11 29.9137 26.832 29.8617 26.48H30.4017C30.4617 26.68 30.5857 26.84 30.7737 26.96C30.9617 27.084 31.1877 27.146 31.4517 27.146C31.7517 27.146 31.9957 27.052 32.1837 26.864C32.3757 26.676 32.4717 26.412 32.4717 26.072V25.382C32.3637 25.574 32.2037 25.734 31.9917 25.862C31.7797 25.99 31.5317 26.054 31.2477 26.054C30.9557 26.054 30.6897 25.982 30.4497 25.838C30.2137 25.694 30.0277 25.492 29.8917 25.232C29.7557 24.972 29.6877 24.676 29.6877 24.344C29.6877 24.008 29.7557 23.714 29.8917 23.462C30.0277 23.206 30.2137 23.008 30.4497 22.868C30.6897 22.728 30.9557 22.658 31.2477 22.658ZM32.4717 24.35C32.4717 24.102 32.4217 23.886 32.3217 23.702C32.2217 23.518 32.0857 23.378 31.9137 23.282C31.7457 23.182 31.5597 23.132 31.3557 23.132C31.1517 23.132 30.9657 23.18 30.7977 23.276C30.6297 23.372 30.4957 23.512 30.3957 23.696C30.2957 23.88 30.2457 24.096 30.2457 24.344C30.2457 24.596 30.2957 24.816 30.3957 25.004C30.4957 25.188 30.6297 25.33 30.7977 25.43C30.9657 25.526 31.1517 25.574 31.3557 25.574C31.5597 25.574 31.7457 25.526 31.9137 25.43C32.0857 25.33 32.2217 25.188 32.3217 25.004C32.4217 24.816 32.4717 24.598 32.4717 24.35ZM36.9464 24.23C36.9464 24.334 36.9404 24.444 36.9284 24.56H34.3004C34.3204 24.884 34.4304 25.138 34.6304 25.322C34.8344 25.502 35.0804 25.592 35.3684 25.592C35.6044 25.592 35.8004 25.538 35.9564 25.43C36.1164 25.318 36.2284 25.17 36.2924 24.986H36.8804C36.7924 25.302 36.6164 25.56 36.3524 25.76C36.0884 25.956 35.7604 26.054 35.3684 26.054C35.0564 26.054 34.7764 25.984 34.5284 25.844C34.2844 25.704 34.0924 25.506 33.9524 25.25C33.8124 24.99 33.7424 24.69 33.7424 24.35C33.7424 24.01 33.8104 23.712 33.9464 23.456C34.0824 23.2 34.2724 23.004 34.5164 22.868C34.7644 22.728 35.0484 22.658 35.3684 22.658C35.6804 22.658 35.9564 22.726 36.1964 22.862C36.4364 22.998 36.6204 23.186 36.7484 23.426C36.8804 23.662 36.9464 23.93 36.9464 24.23ZM36.3824 24.116C36.3824 23.908 36.3364 23.73 36.2444 23.582C36.1524 23.43 36.0264 23.316 35.8664 23.24C35.7104 23.16 35.5364 23.12 35.3444 23.12C35.0684 23.12 34.8324 23.208 34.6364 23.384C34.4444 23.56 34.3344 23.804 34.3064 24.116H36.3824Z" fill="black"/>
</svg>
