<svg width="77" height="77" viewBox="0 0 77 77" fill="none" xmlns="http://www.w3.org/2000/svg">
<g filter="url(#filter0_d_2943_160998)">
<circle cx="38.5" cy="33.5" r="23.5" fill="white"/>
<circle cx="38.5" cy="33.5" r="22" stroke="#BABABF" stroke-width="3"/>
</g>
<rect x="22" y="18" width="32" height="32" stroke="#6A6A75"/>
<path fill-rule="evenodd" clip-rule="evenodd" d="M47.0239 26.8544L41.0559 34.0157L46.8093 41.1651C47.2706 41.7384 47.1799 42.5771 46.6066 43.0397C46.3599 43.2384 46.0639 43.3344 45.7706 43.3344C45.3813 43.3344 44.9946 43.1637 44.7306 42.8371L38.2933 34.8371C37.8959 34.3424 37.9013 33.6344 38.3079 33.1477L44.9746 25.1477C45.4466 24.5811 46.2866 24.5064 46.8533 24.9771C47.4186 25.4477 47.4946 26.2891 47.0239 26.8544ZM35.6421 25.1473C36.1127 24.582 36.9527 24.506 37.5194 24.9767C38.0847 25.4487 38.1607 26.2887 37.6901 26.854L31.7221 34.0153L37.4754 41.1647C37.9367 41.738 37.8461 42.578 37.2727 43.0393C37.0261 43.238 36.7314 43.334 36.4367 43.334C36.0474 43.334 35.6607 43.1647 35.3981 42.8367L28.9607 34.8367C28.5621 34.342 28.5687 33.6353 28.9754 33.1473L35.6421 25.1473Z" fill="#231F20"/>
<mask id="mask0_2943_160998" style="mask-type:luminance" maskUnits="userSpaceOnUse" x="28" y="24" width="20" height="20">
<path fill-rule="evenodd" clip-rule="evenodd" d="M47.0239 26.8544L41.0559 34.0157L46.8093 41.1651C47.2706 41.7384 47.1799 42.5771 46.6066 43.0397C46.3599 43.2384 46.0639 43.3344 45.7706 43.3344C45.3813 43.3344 44.9946 43.1637 44.7306 42.8371L38.2933 34.8371C37.8959 34.3424 37.9013 33.6344 38.3079 33.1477L44.9746 25.1477C45.4466 24.5811 46.2866 24.5064 46.8533 24.9771C47.4186 25.4477 47.4946 26.2891 47.0239 26.8544ZM35.6421 25.1473C36.1127 24.582 36.9527 24.506 37.5194 24.9767C38.0847 25.4487 38.1607 26.2887 37.6901 26.854L31.7221 34.0153L37.4754 41.1647C37.9367 41.738 37.8461 42.578 37.2727 43.0393C37.0261 43.238 36.7314 43.334 36.4367 43.334C36.0474 43.334 35.6607 43.1647 35.3981 42.8367L28.9607 34.8367C28.5621 34.342 28.5687 33.6353 28.9754 33.1473L35.6421 25.1473Z" fill="white"/>
</mask>
<g mask="url(#mask0_2943_160998)">
<rect x="22" y="18" width="32" height="32" fill="#0D1C2E"/>
</g>
<defs>
<filter id="filter0_d_2943_160998" x="0" y="0" width="77" height="77" filterUnits="userSpaceOnUse" color-interpolation-filters="sRGB">
<feFlood flood-opacity="0" result="BackgroundImageFix"/>
<feColorMatrix in="SourceAlpha" type="matrix" values="0 0 0 0 0 0 0 0 0 0 0 0 0 0 0 0 0 0 127 0" result="hardAlpha"/>
<feOffset dy="5"/>
<feGaussianBlur stdDeviation="7.5"/>
<feColorMatrix type="matrix" values="0 0 0 0 0.613542 0 0 0 0 0.652729 0 0 0 0 0.791667 0 0 0 0.25 0"/>
<feBlend mode="normal" in2="BackgroundImageFix" result="effect1_dropShadow_2943_160998"/>
<feBlend mode="normal" in="SourceGraphic" in2="effect1_dropShadow_2943_160998" result="shape"/>
</filter>
</defs>
</svg>
