<svg width="101" height="100" viewBox="0 0 101 100" fill="none" xmlns="http://www.w3.org/2000/svg">
<rect x="0.5" width="100" height="100" rx="16" fill="#939393" fill-opacity="0.15"/>
<rect x="1" y="0.5" width="99" height="99" rx="15.5" stroke="white" stroke-opacity="0.15"/>
<path d="M73.8346 44.1668V34.8335C73.8346 29.933 73.8346 27.4828 72.8809 25.6111C72.042 23.9647 70.7036 22.6261 69.0571 21.7872C67.1852 20.8335 64.7352 20.8335 59.8346 20.8335H41.168C36.2675 20.8335 33.8173 20.8335 31.9456 21.7872C30.2991 22.6261 28.9606 23.9647 28.1217 25.6111C27.168 27.4828 27.168 29.933 27.168 34.8335V65.1668C27.168 70.0674 27.168 72.5174 28.1217 74.3893C28.9606 76.0358 30.2991 77.3742 31.9456 78.2131C33.8173 79.1668 36.2675 79.1668 41.168 79.1668H46.1263M71.6471 64.5835V59.4793C71.6471 56.6604 69.3619 54.3752 66.543 54.3752C63.724 54.3752 61.4388 56.6604 61.4388 59.4793V64.5835M61.0013 76.2502H72.0846C73.7183 76.2502 74.5349 76.2502 75.1588 75.9322C75.7077 75.6525 76.1537 75.2066 76.4334 74.6577C76.7513 74.0338 76.7513 73.2171 76.7513 71.5835V69.2502C76.7513 67.6165 76.7513 66.7999 76.4334 66.176C76.1537 65.6271 75.7077 65.1811 75.1588 64.9014C74.5349 64.5835 73.7183 64.5835 72.0846 64.5835H61.0013C59.3677 64.5835 58.551 64.5835 57.9271 64.9014C57.3782 65.1811 56.9323 65.6271 56.6525 66.176C56.3346 66.7999 56.3346 67.6165 56.3346 69.2502V71.5835C56.3346 73.2171 56.3346 74.0338 56.6525 74.6577C56.9323 75.2066 57.3782 75.6525 57.9271 75.9322C58.551 76.2502 59.3677 76.2502 61.0013 76.2502Z" stroke="white" stroke-width="4" stroke-linecap="round" stroke-linejoin="round"/>
</svg>
