<svg width="12" height="16" viewBox="0 0 12 16" fill="none" xmlns="http://www.w3.org/2000/svg">
<path d="M11.5053 2.25002L10.7595 2.24584C10.759 2.24584 10.7586 2.24584 10.7581 2.24584C10.7567 2.24584 10.7553 2.24604 10.7539 2.24604V1.74998C10.7539 1.61191 10.642 1.49996 10.504 1.49996H9.75396V1.00002C9.75396 0.861943 9.64205 0.750029 9.50397 0.750029H3.28024C3.24844 0.33114 2.8977 0 2.47084 0C2.04396 0 1.69325 0.33114 1.66145 0.749996H0.503894C0.365821 0.749996 0.253906 0.861911 0.253906 0.999984V13.75C0.253906 13.8881 0.365821 14 0.503894 14H1.00387V14.75C1.00387 14.8881 1.11578 15 1.25386 15H1.75387V15.75C1.75387 15.8881 1.86578 16 2.00385 16H11.5039C11.642 16 11.7539 15.8881 11.7539 15.75V2.50001C11.754 2.36249 11.6429 2.25077 11.5053 2.25002ZM2.47084 0.500008C2.62165 0.500008 2.74777 0.60758 2.77661 0.749996H2.16508C2.19388 0.60758 2.32 0.500008 2.47084 0.500008ZM0.753914 13.5001V1.25H1.65887V3.05994C1.65887 3.5077 2.02312 3.87195 2.47084 3.87195C2.9186 3.87195 3.28282 3.50767 3.28282 3.05994V1.93596C3.28282 1.79789 3.17091 1.68597 3.0328 1.68597C2.89473 1.68597 2.78282 1.79789 2.78282 1.93596V3.05994C2.78282 3.23198 2.64285 3.37194 2.47081 3.37194C2.29878 3.37194 2.15884 3.23198 2.15884 3.05994V1.25H9.25389V13.5001H0.753914ZM1.50384 14.5001V14.0001H9.50391C9.64198 14.0001 9.7539 13.8882 9.7539 13.7501V2H10.2539V14.5001H1.50384ZM2.25391 15.5001V15.0001H10.5039C10.642 15.0001 10.7539 14.8882 10.7539 14.7501V2.74572C10.7549 2.74575 10.7557 2.74588 10.7567 2.74588L11.2539 2.74866V15.5001H2.25391Z" fill="black"/>
<path d="M6.75402 5.5H3.25393C3.11585 5.5 3.00391 5.61191 3.00391 5.75002C3.00394 5.88806 3.11585 6.00001 3.25393 6.00001H6.75402C6.89209 6.00001 7.004 5.88809 7.004 5.75002C7.004 5.61195 6.89209 5.5 6.75402 5.5Z" fill="black"/>
<path d="M6.75402 6.5H3.25393C3.11585 6.5 3.00391 6.61192 3.00391 6.75002C3.00394 6.88806 3.11585 7.00001 3.25393 7.00001H6.75402C6.89209 7.00001 7.004 6.88809 7.004 6.75002C7.004 6.61195 6.89209 6.5 6.75402 6.5Z" fill="black"/>
<path d="M5.75392 7.5H4.25389C4.11582 7.5 4.00391 7.61191 4.00391 7.75002C4.00391 7.88809 4.11582 8.00001 4.25389 8.00001H5.75392C5.89199 8.00001 6.00391 7.88809 6.00391 7.75002C6.00391 7.61195 5.89202 7.5 5.75392 7.5Z" fill="black"/>
</svg>
