<svg width="44" height="20" viewBox="0 0 44 20" fill="none" xmlns="http://www.w3.org/2000/svg">
<g clip-path="url(#clip0_4288_25398)">
<path fill-rule="evenodd" clip-rule="evenodd" d="M26.7813 0.934814C26.8765 2.6804 27.6098 4.55783 29.5493 6.0225C31.5145 7.50654 34.8151 8.63908 40.174 8.63908V9.59559V10.5521V11.5086C34.8151 11.5086 31.5145 12.6412 29.5493 14.1252C27.6098 15.5899 26.8765 17.4673 26.7813 19.2129L24.8711 19.1087C24.9932 16.8688 25.9556 14.4419 28.3965 12.5986C29.1889 12.0001 30.1267 11.4711 31.2267 11.0304H3.82617V9.11733H31.2267C30.1267 8.67661 29.1889 8.14759 28.3965 7.54914C25.9556 5.70585 24.9932 3.27893 24.8711 1.03901L26.7813 0.934814Z" fill="#FEF4F5"/>
</g>
<defs>
<clipPath id="clip0_4288_25398">
<rect width="44" height="19" fill="white" transform="translate(0 0.5)"/>
</clipPath>
</defs>
</svg>
