<svg width="18" height="18" viewBox="0 0 18 18" fill="none" xmlns="http://www.w3.org/2000/svg">
<path d="M14.5451 13.6626L16.9864 16.1026C17.1002 16.2205 17.1632 16.3784 17.1618 16.5422C17.1603 16.7061 17.0946 16.8629 16.9787 16.9787C16.8629 17.0946 16.7061 17.1603 16.5422 17.1618C16.3784 17.1632 16.2205 17.1002 16.1026 16.9864L13.6614 14.5451C12.0661 15.9119 10.0034 16.6077 7.90612 16.4865C5.80887 16.3652 3.8401 15.4364 2.41291 13.8949C0.985729 12.3534 0.211076 10.319 0.251507 8.21863C0.291937 6.11827 1.14431 4.11521 2.62976 2.62976C4.11521 1.14431 6.11827 0.291937 8.21863 0.251507C10.319 0.211076 12.3534 0.985729 13.8949 2.41291C15.4364 3.8401 16.3652 5.80887 16.4865 7.90612C16.6077 10.0034 15.9119 12.0661 14.5451 13.6614V13.6626ZM8.3751 15.2501C10.1985 15.2501 11.9471 14.5258 13.2365 13.2365C14.5258 11.9471 15.2501 10.1985 15.2501 8.3751C15.2501 6.55174 14.5258 4.80305 13.2365 3.51374C11.9471 2.22443 10.1985 1.5001 8.3751 1.5001C6.55174 1.5001 4.80305 2.22443 3.51374 3.51374C2.22443 4.80305 1.5001 6.55174 1.5001 8.3751C1.5001 10.1985 2.22443 11.9471 3.51374 13.2365C4.80305 14.5258 6.55174 15.2501 8.3751 15.2501ZM5.8751 7.7501H10.8751C11.0409 7.7501 11.1998 7.81595 11.317 7.93316C11.4343 8.05037 11.5001 8.20934 11.5001 8.3751C11.5001 8.54086 11.4343 8.69983 11.317 8.81704C11.1998 8.93425 11.0409 9.0001 10.8751 9.0001H5.8751C5.70934 9.0001 5.55037 8.93425 5.43316 8.81704C5.31595 8.69983 5.2501 8.54086 5.2501 8.3751C5.2501 8.20934 5.31595 8.05037 5.43316 7.93316C5.55037 7.81595 5.70934 7.7501 5.8751 7.7501Z" fill="black"/>
</svg>
