<svg width="40" height="41" viewBox="0 0 40 41" fill="none" xmlns="http://www.w3.org/2000/svg">
<path fill-rule="evenodd" clip-rule="evenodd" d="M28.6839 35.5013C28.4303 35.5013 28.1752 35.4397 27.9408 35.313L19.7576 30.873L11.576 35.313C11.0336 35.6047 10.3788 35.5547 9.8877 35.1813C9.3934 34.808 9.14786 34.1763 9.25217 33.5513L10.8105 24.1713L4.19845 17.5297C3.75871 17.088 3.59983 16.4247 3.7876 15.818C3.97537 15.2147 4.4777 14.773 5.08433 14.683L14.2321 13.303L18.3213 4.75967C18.8637 3.62633 20.6531 3.62633 21.1956 4.75967L25.2848 13.303L34.4325 14.683C35.0392 14.773 35.5415 15.2147 35.7293 15.818C35.917 16.4247 35.7581 17.088 35.3184 17.5297L28.7064 24.1713L30.2647 33.5513C30.369 34.1763 30.1219 34.808 29.6292 35.1813C29.3499 35.3947 29.0177 35.5013 28.6839 35.5013" fill="#E9E9EA"/>
<mask id="mask0_6413_19136" style="mask-type:luminance" maskUnits="userSpaceOnUse" x="3" y="3" width="33" height="33">
<path fill-rule="evenodd" clip-rule="evenodd" d="M28.6839 35.5013C28.4303 35.5013 28.1752 35.4397 27.9408 35.313L19.7576 30.873L11.576 35.313C11.0336 35.6047 10.3788 35.5547 9.8877 35.1813C9.3934 34.808 9.14786 34.1763 9.25217 33.5513L10.8105 24.1713L4.19845 17.5297C3.75871 17.088 3.59983 16.4247 3.7876 15.818C3.97537 15.2147 4.4777 14.773 5.08433 14.683L14.2321 13.303L18.3213 4.75967C18.8637 3.62633 20.6531 3.62633 21.1956 4.75967L25.2848 13.303L34.4325 14.683C35.0392 14.773 35.5415 15.2147 35.7293 15.818C35.917 16.4247 35.7581 17.088 35.3184 17.5297L28.7064 24.1713L30.2647 33.5513C30.369 34.1763 30.1219 34.808 29.6292 35.1813C29.3499 35.3947 29.0177 35.5013 28.6839 35.5013" fill="white"/>
</mask>
<g mask="url(#mask0_6413_19136)">
<rect x="0.5" y="0.5" width="38.5168" height="40" fill="#FFEE00"/>
</g>
</svg>
