<svg width="14" height="15" viewBox="0 0 14 15" fill="none" xmlns="http://www.w3.org/2000/svg">
<path fill-rule="evenodd" clip-rule="evenodd" d="M10.4096 6.10286C10.4096 5.78145 10.158 5.51953 9.84791 5.51953C9.53785 5.51953 9.28621 5.78145 9.28621 6.10286C9.28621 6.42428 9.53785 6.6862 9.84791 6.6862C10.158 6.6862 10.4096 6.42428 10.4096 6.10286ZM11.533 6.10286C11.533 7.0677 10.777 7.85286 9.84791 7.85286C8.91885 7.85286 8.1628 7.0677 8.1628 6.10286C8.1628 5.13803 8.91885 4.35286 9.84791 4.35286C10.777 4.35286 11.533 5.13803 11.533 6.10286ZM6.47769 4.35286C6.47769 3.70945 5.97384 3.1862 5.35429 3.1862C4.73473 3.1862 4.23088 3.70945 4.23088 4.35286C4.23088 4.99628 4.73473 5.51953 5.35429 5.51953C5.97384 5.51953 6.47769 4.99628 6.47769 4.35286ZM7.6011 4.35286C7.6011 5.6397 6.5934 6.6862 5.35429 6.6862C4.11517 6.6862 3.10747 5.6397 3.10747 4.35286C3.10747 3.06603 4.11517 2.01953 5.35429 2.01953C6.5934 2.01953 7.6011 3.06603 7.6011 4.35286ZM8.1291 9.04636C8.61722 8.65436 9.21824 8.4362 9.84791 8.4362C11.3965 8.4362 12.6564 9.74461 12.6564 11.3529C12.6564 11.6749 12.4053 11.9362 12.0947 11.9362C11.7841 11.9362 11.533 11.6749 11.533 11.3529C11.533 10.388 10.777 9.60286 9.84791 9.60286C9.46427 9.60286 9.09972 9.73936 8.80539 9.98145C9.11096 10.5624 9.28621 11.2286 9.28621 11.9362C9.28621 12.2582 9.03513 12.5195 8.72451 12.5195C8.41388 12.5195 8.1628 12.2582 8.1628 11.9362C8.1628 10.3279 6.9029 9.01953 5.35429 9.01953C3.80567 9.01953 2.54577 10.3279 2.54577 11.9362C2.54577 12.2582 2.29469 12.5195 1.98407 12.5195C1.67344 12.5195 1.42236 12.2582 1.42236 11.9362C1.42236 9.68453 3.18667 7.85286 5.35429 7.85286C6.43669 7.85286 7.41742 8.30961 8.1291 9.04636Z" fill="#212131"/>
<mask id="mask0_13_66095" style="mask-type:luminance" maskUnits="userSpaceOnUse" x="1" y="2" width="12" height="11">
<path fill-rule="evenodd" clip-rule="evenodd" d="M10.4096 6.10286C10.4096 5.78145 10.158 5.51953 9.84791 5.51953C9.53785 5.51953 9.28621 5.78145 9.28621 6.10286C9.28621 6.42428 9.53785 6.6862 9.84791 6.6862C10.158 6.6862 10.4096 6.42428 10.4096 6.10286ZM11.533 6.10286C11.533 7.0677 10.777 7.85286 9.84791 7.85286C8.91885 7.85286 8.1628 7.0677 8.1628 6.10286C8.1628 5.13803 8.91885 4.35286 9.84791 4.35286C10.777 4.35286 11.533 5.13803 11.533 6.10286ZM6.47769 4.35286C6.47769 3.70945 5.97384 3.1862 5.35429 3.1862C4.73473 3.1862 4.23088 3.70945 4.23088 4.35286C4.23088 4.99628 4.73473 5.51953 5.35429 5.51953C5.97384 5.51953 6.47769 4.99628 6.47769 4.35286ZM7.6011 4.35286C7.6011 5.6397 6.5934 6.6862 5.35429 6.6862C4.11517 6.6862 3.10747 5.6397 3.10747 4.35286C3.10747 3.06603 4.11517 2.01953 5.35429 2.01953C6.5934 2.01953 7.6011 3.06603 7.6011 4.35286ZM8.1291 9.04636C8.61722 8.65436 9.21824 8.4362 9.84791 8.4362C11.3965 8.4362 12.6564 9.74461 12.6564 11.3529C12.6564 11.6749 12.4053 11.9362 12.0947 11.9362C11.7841 11.9362 11.533 11.6749 11.533 11.3529C11.533 10.388 10.777 9.60286 9.84791 9.60286C9.46427 9.60286 9.09972 9.73936 8.80539 9.98145C9.11096 10.5624 9.28621 11.2286 9.28621 11.9362C9.28621 12.2582 9.03513 12.5195 8.72451 12.5195C8.41388 12.5195 8.1628 12.2582 8.1628 11.9362C8.1628 10.3279 6.9029 9.01953 5.35429 9.01953C3.80567 9.01953 2.54577 10.3279 2.54577 11.9362C2.54577 12.2582 2.29469 12.5195 1.98407 12.5195C1.67344 12.5195 1.42236 12.2582 1.42236 11.9362C1.42236 9.68453 3.18667 7.85286 5.35429 7.85286C6.43669 7.85286 7.41742 8.30961 8.1291 9.04636Z" fill="white"/>
</mask>
<g mask="url(#mask0_13_66095)">
<rect x="0.299072" y="0.269531" width="13.4809" height="14" fill="#212131"/>
</g>
</svg>
