<svg width="134" height="31" viewBox="0 0 134 31" fill="none" xmlns="http://www.w3.org/2000/svg">
<circle cx="16.201" cy="15.5" r="12.2646" stroke="#E1E1E1" stroke-width="5.44302"/>
<mask id="path-2-inside-1_3215_124042" fill="white">
<path d="M15.6771 0.523006C18.1401 0.436996 20.5862 0.959738 22.7989 2.04493C25.0116 3.13011 26.9226 4.74425 28.3624 6.74436C29.8023 8.74447 30.7267 11.0688 31.0537 13.5115C31.3807 15.9542 31.1002 18.4398 30.2372 20.7482C29.3741 23.0567 27.955 25.1166 26.1057 26.7456C24.2563 28.3746 22.0338 29.5223 19.6349 30.0872C17.236 30.652 14.7349 30.6166 12.353 29.9839C9.97108 29.3512 7.78198 28.1409 5.97957 26.4602L9.1607 23.0488C10.4021 24.2064 11.9099 25.04 13.5504 25.4758C15.1909 25.9115 16.9136 25.936 18.5658 25.5469C20.218 25.1579 21.7488 24.3674 23.0226 23.2454C24.2963 22.1234 25.2737 20.7047 25.8681 19.1147C26.4626 17.5248 26.6557 15.8128 26.4305 14.1304C26.2053 12.448 25.5686 10.8471 24.5769 9.46955C23.5852 8.09198 22.269 6.98024 20.745 6.23282C19.221 5.48539 17.5362 5.12535 15.8399 5.18459L15.6771 0.523006Z"/>
</mask>
<path d="M15.6771 0.523006C18.1401 0.436996 20.5862 0.959738 22.7989 2.04493C25.0116 3.13011 26.9226 4.74425 28.3624 6.74436C29.8023 8.74447 30.7267 11.0688 31.0537 13.5115C31.3807 15.9542 31.1002 18.4398 30.2372 20.7482C29.3741 23.0567 27.955 25.1166 26.1057 26.7456C24.2563 28.3746 22.0338 29.5223 19.6349 30.0872C17.236 30.652 14.7349 30.6166 12.353 29.9839C9.97108 29.3512 7.78198 28.1409 5.97957 26.4602L9.1607 23.0488C10.4021 24.2064 11.9099 25.04 13.5504 25.4758C15.1909 25.9115 16.9136 25.936 18.5658 25.5469C20.218 25.1579 21.7488 24.3674 23.0226 23.2454C24.2963 22.1234 25.2737 20.7047 25.8681 19.1147C26.4626 17.5248 26.6557 15.8128 26.4305 14.1304C26.2053 12.448 25.5686 10.8471 24.5769 9.46955C23.5852 8.09198 22.269 6.98024 20.745 6.23282C19.221 5.48539 17.5362 5.12535 15.8399 5.18459L15.6771 0.523006Z" stroke="black" stroke-width="10.886" mask="url(#path-2-inside-1_3215_124042)"/>
<mask id="path-3-inside-2_3215_124042" fill="white">
<path d="M16.3336 0.516314C18.798 0.538188 21.2189 1.16749 23.382 2.34849C25.5451 3.52948 27.3835 5.22571 28.7345 7.28692C30.0854 9.34814 30.9072 11.7107 31.127 14.1654C31.3468 16.62 30.9578 19.091 29.9945 21.3594C29.0312 23.6279 27.5233 25.6237 25.6045 27.1702C23.6856 28.7167 21.415 29.7661 18.9937 30.2254C16.5724 30.6847 14.0751 30.5398 11.7232 29.8035C9.3713 29.0672 7.23727 27.7622 5.51015 26.0042L8.83754 22.7353C10.0271 23.9462 11.4969 24.845 13.1168 25.3521C14.7367 25.8592 16.4566 25.959 18.1243 25.6427C19.792 25.3263 21.3559 24.6036 22.6775 23.5384C23.9991 22.4733 25.0377 21.0986 25.7011 19.5363C26.3646 17.9739 26.6325 16.272 26.4811 14.5814C26.3298 12.8907 25.7638 11.2635 24.8333 9.84382C23.9028 8.42416 22.6366 7.25588 21.1468 6.44247C19.657 5.62906 17.9895 5.19562 16.2922 5.18056L16.3336 0.516314Z"/>
</mask>
<path d="M16.3336 0.516314C18.798 0.538188 21.2189 1.16749 23.382 2.34849C25.5451 3.52948 27.3835 5.22571 28.7345 7.28692C30.0854 9.34814 30.9072 11.7107 31.127 14.1654C31.3468 16.62 30.9578 19.091 29.9945 21.3594C29.0312 23.6279 27.5233 25.6237 25.6045 27.1702C23.6856 28.7167 21.415 29.7661 18.9937 30.2254C16.5724 30.6847 14.0751 30.5398 11.7232 29.8035C9.3713 29.0672 7.23727 27.7622 5.51015 26.0042L8.83754 22.7353C10.0271 23.9462 11.4969 24.845 13.1168 25.3521C14.7367 25.8592 16.4566 25.959 18.1243 25.6427C19.792 25.3263 21.3559 24.6036 22.6775 23.5384C23.9991 22.4733 25.0377 21.0986 25.7011 19.5363C26.3646 17.9739 26.6325 16.272 26.4811 14.5814C26.3298 12.8907 25.7638 11.2635 24.8333 9.84382C23.9028 8.42416 22.6366 7.25588 21.1468 6.44247C19.657 5.62906 17.9895 5.19562 16.2922 5.18056L16.3336 0.516314Z" stroke="#ADD9F6" stroke-width="10.886" mask="url(#path-3-inside-2_3215_124042)"/>
<circle cx="50.3023" cy="15.5021" r="11.6513" stroke="#E1E1E1" stroke-width="4.90353"/>
<mask id="path-5-inside-3_3215_124042" fill="white">
<path d="M51.2854 1.43127C53.5991 1.59305 55.8371 2.32293 57.8012 3.55624C59.7654 4.78955 61.3951 6.48823 62.5459 8.50182C63.6968 10.5154 64.3333 12.7817 64.3991 15.1001C64.4648 17.4184 63.9578 19.7172 62.923 21.7928C61.8881 23.8684 60.3574 25.6567 58.4663 26.9994C56.5752 28.3421 54.3822 29.1976 52.0815 29.4903C49.7807 29.783 47.4433 29.5038 45.2763 28.6774C43.1093 27.8509 41.1795 26.5028 39.6579 24.7525L42.3189 22.4393C43.46 23.7521 44.9074 24.7632 46.5326 25.383C48.1579 26.0028 49.911 26.2123 51.6365 25.9927C53.362 25.7732 55.0068 25.1315 56.4251 24.1245C57.8434 23.1175 58.9915 21.7763 59.7677 20.2196C60.5438 18.6629 60.924 16.9388 60.8747 15.2C60.8254 13.4613 60.348 11.7616 59.4849 10.2514C58.6217 8.74117 57.3995 7.46716 55.9263 6.54218C54.4532 5.6172 52.7747 5.06979 51.0395 4.94845L51.2854 1.43127Z"/>
</mask>
<path d="M51.2854 1.43127C53.5991 1.59305 55.8371 2.32293 57.8012 3.55624C59.7654 4.78955 61.3951 6.48823 62.5459 8.50182C63.6968 10.5154 64.3333 12.7817 64.3991 15.1001C64.4648 17.4184 63.9578 19.7172 62.923 21.7928C61.8881 23.8684 60.3574 25.6567 58.4663 26.9994C56.5752 28.3421 54.3822 29.1976 52.0815 29.4903C49.7807 29.783 47.4433 29.5038 45.2763 28.6774C43.1093 27.8509 41.1795 26.5028 39.6579 24.7525L42.3189 22.4393C43.46 23.7521 44.9074 24.7632 46.5326 25.383C48.1579 26.0028 49.911 26.2123 51.6365 25.9927C53.362 25.7732 55.0068 25.1315 56.4251 24.1245C57.8434 23.1175 58.9915 21.7763 59.7677 20.2196C60.5438 18.6629 60.924 16.9388 60.8747 15.2C60.8254 13.4613 60.348 11.7616 59.4849 10.2514C58.6217 8.74117 57.3995 7.46716 55.9263 6.54218C54.4532 5.6172 52.7747 5.06979 51.0395 4.94845L51.2854 1.43127Z" stroke="black" stroke-width="9.80707" mask="url(#path-5-inside-3_3215_124042)"/>
<mask id="path-6-inside-4_3215_124042" fill="white">
<path d="M50.431 1.40119C52.7502 1.42178 55.0285 2.014 57.0641 3.12541C59.0997 4.23681 60.8298 5.83309 62.1012 7.77285C63.3725 9.71261 64.1459 11.936 64.3527 14.246C64.5595 16.556 64.1935 18.8814 63.287 21.0162C62.3804 23.1509 60.9614 25.0292 59.1556 26.4845C57.3498 27.9399 55.213 28.9274 52.9343 29.3597C50.6557 29.792 48.3056 29.6556 46.0923 28.9627C43.879 28.2697 41.8707 27.0417 40.2453 25.3872L43.3767 22.311C44.4961 23.4505 45.8793 24.2963 47.4038 24.7736C48.9282 25.2508 50.5468 25.3447 52.1162 25.047C53.6856 24.7493 55.1574 24.0691 56.4011 23.0668C57.6449 22.0644 58.6222 20.7707 59.2466 19.3004C59.871 17.8301 60.1231 16.2285 59.9806 14.6375C59.8382 13.0464 59.3055 11.5151 58.4299 10.1791C57.5542 8.84307 56.3626 7.74364 54.9606 6.97816C53.5585 6.21267 51.9894 5.80478 50.392 5.7906L50.431 1.40119Z"/>
</mask>
<path d="M50.431 1.40119C52.7502 1.42178 55.0285 2.014 57.0641 3.12541C59.0997 4.23681 60.8298 5.83309 62.1012 7.77285C63.3725 9.71261 64.1459 11.936 64.3527 14.246C64.5595 16.556 64.1935 18.8814 63.287 21.0162C62.3804 23.1509 60.9614 25.0292 59.1556 26.4845C57.3498 27.9399 55.213 28.9274 52.9343 29.3597C50.6557 29.792 48.3056 29.6556 46.0923 28.9627C43.879 28.2697 41.8707 27.0417 40.2453 25.3872L43.3767 22.311C44.4961 23.4505 45.8793 24.2963 47.4038 24.7736C48.9282 25.2508 50.5468 25.3447 52.1162 25.047C53.6856 24.7493 55.1574 24.0691 56.4011 23.0668C57.6449 22.0644 58.6222 20.7707 59.2466 19.3004C59.871 17.8301 60.1231 16.2285 59.9806 14.6375C59.8382 13.0464 59.3055 11.5151 58.4299 10.1791C57.5542 8.84307 56.3626 7.74364 54.9606 6.97816C53.5585 6.21267 51.9894 5.80478 50.392 5.7906L50.431 1.40119Z" stroke="#F5E8A3" stroke-width="9.80707" mask="url(#path-6-inside-4_3215_124042)"/>
<circle cx="84.4002" cy="15.4997" r="12.8561" stroke="#E1E1E1" stroke-width="4.26014"/>
<mask id="path-8-inside-5_3215_124042" fill="white">
<path d="M83.8763 0.523006C86.3393 0.436996 88.7855 0.959738 90.9982 2.04493C93.2109 3.13011 95.1218 4.74425 96.5616 6.74436C98.0015 8.74447 98.9259 11.0688 99.2529 13.5115C99.5799 15.9542 99.2995 18.4398 98.4364 20.7482C97.5733 23.0567 96.1542 25.1166 94.3049 26.7456C92.4555 28.3746 90.233 29.5223 87.8341 30.0872C85.4352 30.652 82.9341 30.6166 80.5522 29.9839C78.1703 29.3512 75.9812 28.1409 74.1788 26.4602L77.3599 23.0488C78.6013 24.2064 80.1091 25.04 81.7496 25.4758C83.3901 25.9115 85.1128 25.936 86.765 25.5469C88.4173 25.1579 89.948 24.3674 91.2218 23.2454C92.4955 22.1234 93.4729 20.7047 94.0673 19.1147C94.6618 17.5248 94.855 15.8128 94.6297 14.1304C94.4045 12.448 93.7678 10.8471 92.7761 9.46955C91.7844 8.09198 90.4683 6.98024 88.9443 6.23282C87.4203 5.48539 85.7355 5.12535 84.0391 5.18459L83.8763 0.523006Z"/>
</mask>
<path d="M83.8763 0.523006C86.3393 0.436996 88.7855 0.959738 90.9982 2.04493C93.2109 3.13011 95.1218 4.74425 96.5616 6.74436C98.0015 8.74447 98.9259 11.0688 99.2529 13.5115C99.5799 15.9542 99.2995 18.4398 98.4364 20.7482C97.5733 23.0567 96.1542 25.1166 94.3049 26.7456C92.4555 28.3746 90.233 29.5223 87.8341 30.0872C85.4352 30.652 82.9341 30.6166 80.5522 29.9839C78.1703 29.3512 75.9812 28.1409 74.1788 26.4602L77.3599 23.0488C78.6013 24.2064 80.1091 25.04 81.7496 25.4758C83.3901 25.9115 85.1128 25.936 86.765 25.5469C88.4173 25.1579 89.948 24.3674 91.2218 23.2454C92.4955 22.1234 93.4729 20.7047 94.0673 19.1147C94.6618 17.5248 94.855 15.8128 94.6297 14.1304C94.4045 12.448 93.7678 10.8471 92.7761 9.46955C91.7844 8.09198 90.4683 6.98024 88.9443 6.23282C87.4203 5.48539 85.7355 5.12535 84.0391 5.18459L83.8763 0.523006Z" stroke="black" stroke-width="8.52028" mask="url(#path-8-inside-5_3215_124042)"/>
<mask id="path-9-inside-6_3215_124042" fill="white">
<path d="M84.5328 0.516314C86.9972 0.538188 89.4181 1.16749 91.5812 2.34849C93.7443 3.52948 95.5827 5.22571 96.9337 7.28692C98.2847 9.34814 99.1064 11.7107 99.3262 14.1654C99.546 16.62 99.157 19.091 98.1937 21.3594C97.2304 23.6279 95.7226 25.6237 93.8037 27.1702C91.8848 28.7167 89.6142 29.7661 87.1929 30.2254C84.7716 30.6847 82.2744 30.5398 79.9224 29.8035C77.5705 29.0672 75.4365 27.7622 73.7094 26.0042L77.0368 22.7353C78.2263 23.9462 79.6961 24.845 81.316 25.3521C82.9359 25.8592 84.6559 25.959 86.3235 25.6427C87.9912 25.3263 89.5551 24.6036 90.8767 23.5384C92.1984 22.4733 93.2369 21.0986 93.9004 19.5363C94.5638 17.9739 94.8317 16.272 94.6804 14.5814C94.529 12.8907 93.963 11.2635 93.0325 9.84382C92.1021 8.42416 90.8358 7.25588 89.346 6.44247C87.8562 5.62906 86.1887 5.19562 84.4914 5.18056L84.5328 0.516314Z"/>
</mask>
<path d="M84.5328 0.516314C86.9972 0.538188 89.4181 1.16749 91.5812 2.34849C93.7443 3.52948 95.5827 5.22571 96.9337 7.28692C98.2847 9.34814 99.1064 11.7107 99.3262 14.1654C99.546 16.62 99.157 19.091 98.1937 21.3594C97.2304 23.6279 95.7226 25.6237 93.8037 27.1702C91.8848 28.7167 89.6142 29.7661 87.1929 30.2254C84.7716 30.6847 82.2744 30.5398 79.9224 29.8035C77.5705 29.0672 75.4365 27.7622 73.7094 26.0042L77.0368 22.7353C78.2263 23.9462 79.6961 24.845 81.316 25.3521C82.9359 25.8592 84.6559 25.959 86.3235 25.6427C87.9912 25.3263 89.5551 24.6036 90.8767 23.5384C92.1984 22.4733 93.2369 21.0986 93.9004 19.5363C94.5638 17.9739 94.8317 16.272 94.6804 14.5814C94.529 12.8907 93.963 11.2635 93.0325 9.84382C92.1021 8.42416 90.8358 7.25588 89.346 6.44247C87.8562 5.62906 86.1887 5.19562 84.4914 5.18056L84.5328 0.516314Z" stroke="#B3B1E7" stroke-width="8.52028" mask="url(#path-9-inside-6_3215_124042)"/>
<circle cx="118.502" cy="15.5" r="12.5009" stroke="#E1E1E1" stroke-width="4.97047"/>
<mask id="path-11-inside-7_3215_124042" fill="white">
<path d="M117.978 0.523006C120.441 0.436996 122.887 0.959738 125.1 2.04493C127.312 3.13011 129.223 4.74425 130.663 6.74436C132.103 8.74447 133.027 11.0688 133.354 13.5115C133.681 15.9542 133.401 18.4398 132.538 20.7482C131.675 23.0567 130.256 25.1166 128.406 26.7456C126.557 28.3746 124.335 29.5223 121.936 30.0872C119.537 30.652 117.036 30.6166 114.654 29.9839C112.272 29.3512 110.083 28.1409 108.28 26.4602L111.461 23.0488C112.703 24.2064 114.211 25.04 115.851 25.4758C117.492 25.9115 119.214 25.936 120.867 25.5469C122.519 25.1579 124.05 24.3674 125.323 23.2454C126.597 22.1234 127.574 20.7047 128.169 19.1147C128.763 17.5248 128.957 15.8128 128.731 14.1304C128.506 12.448 127.869 10.8471 126.878 9.46955C125.886 8.09198 124.57 6.98024 123.046 6.23282C121.522 5.48539 119.837 5.12535 118.141 5.18459L117.978 0.523006Z"/>
</mask>
<path d="M117.978 0.523006C120.441 0.436996 122.887 0.959738 125.1 2.04493C127.312 3.13011 129.223 4.74425 130.663 6.74436C132.103 8.74447 133.027 11.0688 133.354 13.5115C133.681 15.9542 133.401 18.4398 132.538 20.7482C131.675 23.0567 130.256 25.1166 128.406 26.7456C126.557 28.3746 124.335 29.5223 121.936 30.0872C119.537 30.652 117.036 30.6166 114.654 29.9839C112.272 29.3512 110.083 28.1409 108.28 26.4602L111.461 23.0488C112.703 24.2064 114.211 25.04 115.851 25.4758C117.492 25.9115 119.214 25.936 120.867 25.5469C122.519 25.1579 124.05 24.3674 125.323 23.2454C126.597 22.1234 127.574 20.7047 128.169 19.1147C128.763 17.5248 128.957 15.8128 128.731 14.1304C128.506 12.448 127.869 10.8471 126.878 9.46955C125.886 8.09198 124.57 6.98024 123.046 6.23282C121.522 5.48539 119.837 5.12535 118.141 5.18459L117.978 0.523006Z" stroke="black" stroke-width="9.94094" mask="url(#path-11-inside-7_3215_124042)"/>
<mask id="path-12-inside-8_3215_124042" fill="white">
<path d="M118.634 0.516314C121.099 0.538188 123.52 1.16749 125.683 2.34849C127.846 3.52948 129.684 5.22571 131.035 7.28692C132.386 9.34814 133.208 11.7107 133.428 14.1654C133.648 16.62 133.259 19.091 132.295 21.3594C131.332 23.6279 129.824 25.6237 127.905 27.1702C125.986 28.7167 123.716 29.7661 121.294 30.2254C118.873 30.6847 116.376 30.5398 114.024 29.8035C111.672 29.0672 109.538 27.7622 107.811 26.0042L111.138 22.7353C112.328 23.9462 113.798 24.845 115.418 25.3521C117.037 25.8592 118.757 25.959 120.425 25.6427C122.093 25.3263 123.657 24.6036 124.978 23.5384C126.3 22.4733 127.338 21.0986 128.002 19.5363C128.665 17.9739 128.933 16.272 128.782 14.5814C128.631 12.8907 128.065 11.2635 127.134 9.84382C126.204 8.42416 124.937 7.25588 123.448 6.44247C121.958 5.62906 120.29 5.19562 118.593 5.18056L118.634 0.516314Z"/>
</mask>
<path d="M118.634 0.516314C121.099 0.538188 123.52 1.16749 125.683 2.34849C127.846 3.52948 129.684 5.22571 131.035 7.28692C132.386 9.34814 133.208 11.7107 133.428 14.1654C133.648 16.62 133.259 19.091 132.295 21.3594C131.332 23.6279 129.824 25.6237 127.905 27.1702C125.986 28.7167 123.716 29.7661 121.294 30.2254C118.873 30.6847 116.376 30.5398 114.024 29.8035C111.672 29.0672 109.538 27.7622 107.811 26.0042L111.138 22.7353C112.328 23.9462 113.798 24.845 115.418 25.3521C117.037 25.8592 118.757 25.959 120.425 25.6427C122.093 25.3263 123.657 24.6036 124.978 23.5384C126.3 22.4733 127.338 21.0986 128.002 19.5363C128.665 17.9739 128.933 16.272 128.782 14.5814C128.631 12.8907 128.065 11.2635 127.134 9.84382C126.204 8.42416 124.937 7.25588 123.448 6.44247C121.958 5.62906 120.29 5.19562 118.593 5.18056L118.634 0.516314Z" stroke="#F2B8A6" stroke-width="9.94094" mask="url(#path-12-inside-8_3215_124042)"/>
</svg>
