<svg width="24" height="24" viewBox="0 0 24 24" fill="none" xmlns="http://www.w3.org/2000/svg">
<path fill-rule="evenodd" clip-rule="evenodd" d="M11.5568 16C11.3372 16 11.1186 15.923 10.9405 15.768L5.16297 10.768C4.75469 10.415 4.69884 9.78398 5.03972 9.35998C5.37963 8.93598 5.98627 8.87898 6.39551 9.23198L11.5673 13.708L16.7305 9.39298C17.1446 9.04698 17.7512 9.11498 18.0844 9.54498C18.4176 9.97498 18.3521 10.604 17.938 10.951L12.1605 15.779C11.9843 15.926 11.7705 16 11.5568 16Z" fill="white"/>
<mask id="mask0_3215_124006" style="mask-type:luminance" maskUnits="userSpaceOnUse" x="4" y="9" width="15" height="7">
<path fill-rule="evenodd" clip-rule="evenodd" d="M11.5568 16C11.3372 16 11.1186 15.923 10.9405 15.768L5.16297 10.768C4.75469 10.415 4.69884 9.78398 5.03972 9.35998C5.37963 8.93598 5.98627 8.87898 6.39551 9.23198L11.5673 13.708L16.7305 9.39298C17.1446 9.04698 17.7512 9.11498 18.0844 9.54498C18.4176 9.97498 18.3521 10.604 17.938 10.951L12.1605 15.779C11.9843 15.926 11.7705 16 11.5568 16Z" fill="white"/>
</mask>
<g mask="url(#mask0_3215_124006)">
<rect width="23.1101" height="24" fill="white"/>
</g>
</svg>
