<svg width="33" height="32" viewBox="0 0 33 32" fill="none" xmlns="http://www.w3.org/2000/svg">
<path d="M20.4609 29.9739H12.6609C5.60194 29.9739 2.58594 26.9579 2.58594 19.8989V12.0989C2.58594 5.03993 5.60194 2.02393 12.6609 2.02393H20.4609C27.5199 2.02393 30.5359 5.03993 30.5359 12.0989V19.8989C30.5359 26.9579 27.5199 29.9739 20.4609 29.9739ZM12.6609 3.97393C6.66794 3.97393 4.53594 6.10593 4.53594 12.0989V19.8989C4.53594 25.8919 6.66794 28.0239 12.6609 28.0239H20.4609C26.4539 28.0239 28.5859 25.8919 28.5859 19.8989V12.0989C28.5859 6.10593 26.4539 3.97393 20.4609 3.97393H12.6609Z" fill="white"/>
<path d="M18.8463 23.4742H14.2573C12.8273 23.4742 11.6963 22.7722 11.0593 21.4982L9.90231 19.1712C9.62931 18.6122 9.07031 18.2742 8.44631 18.2742H3.54531C3.01231 18.2742 2.57031 17.8322 2.57031 17.2992C2.57031 16.7662 3.02531 16.3242 3.55831 16.3242H8.44631C9.81131 16.3242 11.0333 17.0782 11.6443 18.3002L12.8013 20.6272C13.1003 21.2252 13.5813 21.5242 14.2573 21.5242H18.8463C19.4703 21.5242 20.0293 21.1862 20.3023 20.6272L21.4593 18.3002C22.0703 17.0782 23.2923 16.3242 24.6573 16.3242H29.5193C30.0523 16.3242 30.4943 16.7662 30.4943 17.2992C30.4943 17.8322 30.0523 18.2742 29.5193 18.2742H24.6573C24.0333 18.2742 23.4743 18.6122 23.2013 19.1712L22.0443 21.4982C21.4333 22.7202 20.2113 23.4742 18.8463 23.4742Z" fill="white"/>
</svg>
