<svg width="15" height="15" viewBox="0 0 15 15" fill="none" xmlns="http://www.w3.org/2000/svg">
<path fill-rule="evenodd" clip-rule="evenodd" d="M5.95624 8.47983L6.38149 6.05665H8.64191L8.21666 8.47983H5.95624ZM11.9657 8.47983H9.45624L9.88149 6.05665H11.9657C12.2866 6.05665 12.5491 5.78404 12.5491 5.45085C12.5491 5.11766 12.2866 4.84505 11.9657 4.84505H10.0932L10.4981 2.53636C10.5564 2.20439 10.3336 1.88392 10.0028 1.82577C9.67207 1.767 9.35416 1.99115 9.29582 2.32373L8.85366 4.84505H6.59324L6.99807 2.53636C7.05641 2.20439 6.83357 1.88392 6.50282 1.82577C6.17207 1.767 5.85416 1.99115 5.79582 2.32373L5.35366 4.84505H2.63241C2.31157 4.84505 2.04907 5.11766 2.04907 5.45085C2.04907 5.78404 2.31157 6.05665 2.63241 6.05665H5.14191L4.71666 8.47983H2.63241C2.31157 8.47983 2.04907 8.75244 2.04907 9.08563C2.04907 9.41882 2.31157 9.69143 2.63241 9.69143H4.50432L4.09949 12.0001C4.04174 12.3321 4.26457 12.6526 4.59532 12.7107C4.92549 12.7695 5.24399 12.5453 5.30174 12.2127L5.74391 9.69143H8.00432L7.59949 12.0001C7.54174 12.3321 7.76457 12.6526 8.09532 12.7107C8.42549 12.7695 8.74399 12.5453 8.80174 12.2127L9.24391 9.69143H11.9657C12.2866 9.69143 12.5491 9.41882 12.5491 9.08563C12.5491 8.75244 12.2866 8.47983 11.9657 8.47983Z" fill="#212131"/>
<mask id="mask0_13_66094" style="mask-type:luminance" maskUnits="userSpaceOnUse" x="2" y="1" width="11" height="12">
<path fill-rule="evenodd" clip-rule="evenodd" d="M5.95624 8.47983L6.38149 6.05665H8.64191L8.21666 8.47983H5.95624ZM11.9657 8.47983H9.45624L9.88149 6.05665H11.9657C12.2866 6.05665 12.5491 5.78404 12.5491 5.45085C12.5491 5.11766 12.2866 4.84505 11.9657 4.84505H10.0932L10.4981 2.53636C10.5564 2.20439 10.3336 1.88392 10.0028 1.82577C9.67207 1.767 9.35416 1.99115 9.29582 2.32373L8.85366 4.84505H6.59324L6.99807 2.53636C7.05641 2.20439 6.83357 1.88392 6.50282 1.82577C6.17207 1.767 5.85416 1.99115 5.79582 2.32373L5.35366 4.84505H2.63241C2.31157 4.84505 2.04907 5.11766 2.04907 5.45085C2.04907 5.78404 2.31157 6.05665 2.63241 6.05665H5.14191L4.71666 8.47983H2.63241C2.31157 8.47983 2.04907 8.75244 2.04907 9.08563C2.04907 9.41882 2.31157 9.69143 2.63241 9.69143H4.50432L4.09949 12.0001C4.04174 12.3321 4.26457 12.6526 4.59532 12.7107C4.92549 12.7695 5.24399 12.5453 5.30174 12.2127L5.74391 9.69143H8.00432L7.59949 12.0001C7.54174 12.3321 7.76457 12.6526 8.09532 12.7107C8.42549 12.7695 8.74399 12.5453 8.80174 12.2127L9.24391 9.69143H11.9657C12.2866 9.69143 12.5491 9.41882 12.5491 9.08563C12.5491 8.75244 12.2866 8.47983 11.9657 8.47983Z" fill="white"/>
</mask>
<g mask="url(#mask0_13_66094)">
<rect x="0.299072" width="14" height="14.5391" fill="#212131"/>
</g>
</svg>
