<svg width="20" height="20" viewBox="0 0 20 20" fill="none" xmlns="http://www.w3.org/2000/svg">
<path fill-rule="evenodd" clip-rule="evenodd" d="M6.67794 8.33333C7.34235 8.33333 7.88159 7.77333 7.88159 7.08333C7.88159 6.39333 7.34235 5.83333 6.67794 5.83333C6.01352 5.83333 5.47429 6.39333 5.47429 7.08333C5.47429 7.77333 6.01352 8.33333 6.67794 8.33333ZM14.7023 15.8333H5.52324L11.1443 10.9625C11.3417 10.7883 11.6996 10.7892 11.893 10.9617L15.5047 14.1617V15C15.5047 15.46 15.1452 15.8333 14.7023 15.8333ZM5.07307 4.16667H14.7023C15.1452 4.16667 15.5047 4.54 15.5047 5V11.97L12.9345 9.69333C12.1401 8.99167 10.8971 8.99167 10.1099 9.68833L4.27064 14.7483V5C4.27064 4.54 4.63013 4.16667 5.07307 4.16667ZM14.7023 2.5H5.07307C3.74585 2.5 2.66577 3.62167 2.66577 5V15C2.66577 16.3783 3.74585 17.5 5.07307 17.5H14.7023C16.0295 17.5 17.1096 16.3783 17.1096 15V5C17.1096 3.62167 16.0295 2.5 14.7023 2.5Z" fill="#6A6A75"/>
<mask id="mask0_13_48005" style="mask-type:luminance" maskUnits="userSpaceOnUse" x="2" y="2" width="16" height="16">
<path fill-rule="evenodd" clip-rule="evenodd" d="M6.67794 8.33333C7.34235 8.33333 7.88159 7.77333 7.88159 7.08333C7.88159 6.39333 7.34235 5.83333 6.67794 5.83333C6.01352 5.83333 5.47429 6.39333 5.47429 7.08333C5.47429 7.77333 6.01352 8.33333 6.67794 8.33333ZM14.7023 15.8333H5.52324L11.1443 10.9625C11.3417 10.7883 11.6996 10.7892 11.893 10.9617L15.5047 14.1617V15C15.5047 15.46 15.1452 15.8333 14.7023 15.8333ZM5.07307 4.16667H14.7023C15.1452 4.16667 15.5047 4.54 15.5047 5V11.97L12.9345 9.69333C12.1401 8.99167 10.8971 8.99167 10.1099 9.68833L4.27064 14.7483V5C4.27064 4.54 4.63013 4.16667 5.07307 4.16667ZM14.7023 2.5H5.07307C3.74585 2.5 2.66577 3.62167 2.66577 5V15C2.66577 16.3783 3.74585 17.5 5.07307 17.5H14.7023C16.0295 17.5 17.1096 16.3783 17.1096 15V5C17.1096 3.62167 16.0295 2.5 14.7023 2.5Z" fill="white"/>
</mask>
<g mask="url(#mask0_13_48005)">
<rect x="0.258423" width="19.2584" height="20" fill="#6A6A75"/>
</g>
</svg>
