<svg width="32" height="32" viewBox="0 0 32 32" fill="none" xmlns="http://www.w3.org/2000/svg">
<rect x="0.5" y="0.5" width="31" height="31" rx="7.5" stroke="black" stroke-opacity="0.1"/>
<path fill-rule="evenodd" clip-rule="evenodd" d="M17.761 23C17.4798 23 17.2006 22.873 17.0099 22.627L12.3609 16.627C12.074 16.256 12.0778 15.726 12.3715 15.36L17.1861 9.35998C17.526 8.93598 18.1336 8.87898 18.5429 9.23198C18.9511 9.58498 19.006 10.216 18.6652 10.64L14.3561 16.011L18.5111 21.373C18.8443 21.803 18.7788 22.433 18.3638 22.779C18.1866 22.928 17.9728 23 17.761 23Z" fill="#231F20"/>
<mask id="mask0_3215_123984" style="mask-type:luminance" maskUnits="userSpaceOnUse" x="12" y="9" width="7" height="14">
<path fill-rule="evenodd" clip-rule="evenodd" d="M17.761 23C17.4798 23 17.2006 22.873 17.0099 22.627L12.3609 16.627C12.074 16.256 12.0778 15.726 12.3715 15.36L17.1861 9.35998C17.526 8.93598 18.1336 8.87898 18.5429 9.23198C18.9511 9.58498 19.006 10.216 18.6652 10.64L14.3561 16.011L18.5111 21.373C18.8443 21.803 18.7788 22.433 18.3638 22.779C18.1866 22.928 17.9728 23 17.761 23Z" fill="white"/>
</mask>
<g mask="url(#mask0_3215_123984)">
<rect x="4.44531" y="4" width="23.1101" height="24" fill="#0D1C2E"/>
</g>
</svg>
