<svg width="56" height="56" viewBox="0 0 56 56" fill="none" xmlns="http://www.w3.org/2000/svg">
<rect y="0.0649414" width="56" height="55.87" rx="16" fill="#212131"/>
<g clip-path="url(#clip0_3215_124007)">
<path d="M36.4062 16.3956C36.3367 16.3253 36.2586 16.2608 36.1728 16.2036L36.0849 16.1853C36.0389 16.1653 36.0022 16.1324 35.9782 16.0927C35.8408 16.0278 35.697 15.986 35.5507 15.9651C35.4244 15.9476 35.3356 15.8303 35.354 15.7031C35.371 15.5759 35.4892 15.4872 35.6155 15.5047C35.7602 15.526 35.9052 15.5627 36.0444 15.6173C36.067 15.5158 36.0797 15.4121 36.0797 15.3076C36.0793 15.0788 36.0256 14.848 35.9112 14.6308C35.7806 14.3825 35.5891 14.1887 35.365 14.0565C35.1687 13.9405 34.9469 13.8713 34.719 13.8551C34.7024 14.0629 34.6529 14.2698 34.5667 14.4704C34.5155 14.5881 34.3794 14.6423 34.2612 14.5915C34.1434 14.5412 34.0888 14.4047 34.1396 14.2869C34.2224 14.0936 34.2612 13.8948 34.2621 13.6976L34.2591 13.6136C34.2433 13.3405 34.1529 13.0768 33.9988 12.852C33.8448 12.6275 33.6289 12.4436 33.3601 12.3271C33.1672 12.2447 32.9675 12.2059 32.7708 12.2059C32.394 12.2059 32.0292 12.3511 31.7536 12.607C31.8052 12.7824 31.8346 12.9671 31.8346 13.1592C31.8346 13.2872 31.7297 13.3913 31.6017 13.3913C31.4736 13.3913 31.3691 13.2872 31.3691 13.1592C31.3691 12.971 31.3346 12.7926 31.2714 12.6267H31.2718C31.1647 12.3472 30.9753 12.1065 30.7325 11.9367C30.4906 11.7669 30.1974 11.6675 29.8783 11.6675C29.6014 11.6675 29.3432 11.743 29.1213 11.8736C28.9438 11.9785 28.7907 12.1202 28.6704 12.2866C28.9055 12.6087 29.0445 13.0069 29.0445 13.4361C29.0445 13.5641 28.94 13.6678 28.8116 13.6678C28.6835 13.6678 28.579 13.5641 28.579 13.4361C28.579 13.059 28.4403 12.7159 28.2095 12.4534C27.9356 12.1407 27.5358 11.9449 27.0878 11.9449C26.7767 11.9449 26.4904 12.0392 26.251 12.2013C26.0125 12.3635 25.8226 12.593 25.7104 12.8627C25.6379 13.0389 25.5964 13.233 25.5964 13.4361C25.5964 13.5641 25.4927 13.6678 25.3643 13.6678C25.2359 13.6678 25.1322 13.5641 25.1322 13.4361C25.1322 13.2475 25.1596 13.0658 25.209 12.8925C25.0341 12.8217 24.8447 12.7824 24.6501 12.7824C24.5396 12.7824 24.4287 12.7952 24.316 12.8204C23.9849 12.8968 23.708 13.0752 23.5053 13.3167C23.3593 13.4908 23.2552 13.6977 23.201 13.92C23.6811 13.9285 24.1606 14.1141 24.5311 14.4768C24.6224 14.5668 24.6241 14.7136 24.5345 14.8049C24.4445 14.8971 24.2976 14.898 24.2059 14.8087C23.9149 14.525 23.5399 14.3829 23.1627 14.3825C23.0953 14.3825 23.0278 14.3871 22.9604 14.3957H22.9596H22.9591C22.643 14.4396 22.3383 14.5838 22.0964 14.8305C21.8122 15.1206 21.6713 15.4953 21.671 15.8733C21.671 16.0888 21.7179 16.306 21.8117 16.5057C21.8847 16.6631 21.9871 16.8099 22.1194 16.9388V16.9392C22.2687 17.086 22.4411 17.1943 22.6251 17.2652C22.7441 17.3117 22.8043 17.4461 22.7573 17.5655C22.7109 17.6859 22.5768 17.7456 22.457 17.6987C22.2168 17.6056 21.9898 17.4632 21.7934 17.2707C21.7077 17.1862 21.6313 17.0962 21.5635 17.0007C21.3881 17.252 21.293 17.5527 21.293 17.8591C21.293 18.0964 21.3497 18.3358 21.4696 18.5606C21.6044 18.8124 21.7995 19.0087 22.029 19.1426C22.2103 19.2489 22.413 19.3159 22.6221 19.3394L22.6217 19.3253C22.6217 19.2023 22.6332 19.082 22.6541 18.9651C22.678 18.8388 22.7996 18.7564 22.9251 18.7791C23.0514 18.8025 23.1346 18.9237 23.112 19.05C23.0953 19.1391 23.0864 19.2317 23.0864 19.3252L23.0902 19.4332L23.1026 19.542V19.5433L23.103 19.5454C23.2097 20.2742 23.8395 20.819 24.5768 20.819L24.6839 20.8148H24.6843C25.0112 20.7913 25.3047 20.665 25.5377 20.4683C25.7011 20.3305 25.8351 20.1577 25.9268 19.9631C25.981 19.8466 26.1205 19.7971 26.2362 19.8521C26.3522 19.9068 26.4018 20.045 26.3471 20.1611C26.2477 20.3706 26.112 20.5596 25.9491 20.7204C26.0403 21.0012 26.2119 21.2423 26.4359 21.4215C26.692 21.6268 27.0149 21.7479 27.3639 21.7479L27.4715 21.7437H27.4719C27.6929 21.7279 27.8973 21.6643 28.0787 21.5653C28.0505 21.4318 28.0344 21.2953 28.0344 21.157C28.0344 20.8719 28.0979 20.5814 28.2293 20.3083C28.2852 20.1927 28.4239 20.1444 28.5391 20.2003C28.6547 20.2554 28.7038 20.3945 28.6479 20.5101C28.5468 20.7196 28.4994 20.9398 28.4994 21.157C28.4994 21.3089 28.5229 21.4604 28.5681 21.6041H28.5686C28.6876 21.9835 28.9565 22.315 29.3434 22.501C29.5525 22.6022 29.7727 22.6495 29.9894 22.6495C30.3338 22.6495 30.6705 22.5292 30.9376 22.3112L30.9384 22.3107C31.1006 22.1771 31.2363 22.0082 31.334 21.8063L31.3344 21.8055C31.4253 21.6169 31.4731 21.4194 31.4811 21.2222C31.4871 21.0942 31.5951 20.9944 31.7239 21.0003C31.8519 21.0059 31.9509 21.1142 31.9454 21.2422C31.9342 21.5008 31.8715 21.7619 31.7525 22.0081V22.0077C31.6569 22.207 31.5311 22.3824 31.3834 22.5321C31.6573 22.9255 32.1131 23.1734 32.6059 23.173C32.6972 23.173 32.7902 23.1645 32.8837 23.1465C33.2425 23.0792 33.545 22.8892 33.7601 22.6281C33.9747 22.3665 34.0998 22.0341 34.0998 21.6834L34.0993 21.6519V21.6501C34.0977 21.5712 34.0895 21.4884 34.0742 21.4052C34.0371 21.2076 33.9615 21.0284 33.8579 20.8701C33.7077 20.7378 33.5409 20.565 33.3834 20.373C33.2157 20.1682 33.0613 19.9442 32.9576 19.7185C32.8893 19.5674 32.8407 19.4147 32.8398 19.2538C32.8398 19.1826 32.8496 19.1088 32.8765 19.038C32.9025 18.9658 32.9452 18.8976 33.0023 18.8412C33.0928 18.7512 33.2396 18.7512 33.3305 18.8412C33.4209 18.9325 33.4209 19.0801 33.3305 19.1702L33.3129 19.198L33.304 19.2539C33.3031 19.3124 33.3275 19.4114 33.3799 19.5252C33.432 19.6388 33.5092 19.7663 33.6001 19.8922C33.7802 20.1444 34.0136 20.3919 34.1894 20.5429L34.2133 20.5634L34.2308 20.5894C34.3746 20.8036 34.48 21.0503 34.5307 21.3195V21.3199L34.5474 21.4351L34.617 21.4381C34.9114 21.4377 35.2079 21.3506 35.4686 21.1676C35.676 21.0216 35.8339 20.8343 35.9406 20.6239C36.0476 20.4132 36.1035 20.1802 36.1035 19.9455C36.1035 19.7258 36.054 19.5052 35.955 19.2999C35.8633 19.3294 35.7702 19.3529 35.676 19.3691C35.5497 19.3917 35.4298 19.3059 35.4072 19.1796C35.3858 19.0529 35.4712 18.9334 35.5975 18.9112C36.0088 18.8404 36.3856 18.6006 36.6185 18.2157C36.7662 17.9738 36.8357 17.7075 36.8357 17.4443C36.8357 17.0564 36.6859 16.6771 36.4069 16.3959L36.4062 16.3956ZM25.7616 14.6232C25.9835 14.3607 26.2779 14.1743 26.5945 14.0522C26.9124 13.9302 27.2529 13.8717 27.5798 13.8717C27.8977 13.8722 28.2032 13.9259 28.4626 14.0463C28.5786 14.0991 28.6294 14.2378 28.5756 14.3543C28.5223 14.4704 28.3845 14.5216 28.2672 14.4679C28.088 14.3838 27.8426 14.3356 27.5798 14.3356C27.3092 14.3356 27.0209 14.3855 26.7618 14.4862C26.5028 14.5856 26.2754 14.7341 26.1153 14.9227C26.0334 15.0209 25.8862 15.0337 25.7881 14.95C25.6904 14.8673 25.678 14.7209 25.7616 14.6232ZM31.0492 20.1163C30.7791 20.1163 30.5341 20.0856 30.3105 20.034C30.3165 20.098 30.3208 20.1692 30.3208 20.2448C30.3208 20.3963 30.3041 20.5694 30.2568 20.7512C30.209 20.9326 30.1284 21.1233 30.0012 21.3064C29.9283 21.4122 29.7836 21.4382 29.6782 21.3652C29.5724 21.2922 29.5468 21.148 29.6189 21.0418C29.7127 20.9065 29.7712 20.7682 29.807 20.6321C29.8429 20.4961 29.8561 20.3637 29.8561 20.2447C29.8566 20.0805 29.8314 19.9452 29.8135 19.868C29.7 19.8167 29.5954 19.7591 29.4977 19.6947C29.1086 19.4429 28.8484 19.1106 28.6849 18.7944C28.5753 18.5823 28.5086 18.3775 28.4728 18.1996C28.4523 18.098 28.4421 18.0059 28.4421 17.9222C28.4421 17.7933 28.5462 17.6892 28.6747 17.6892C28.8031 17.6892 28.9072 17.7933 28.9072 17.9222C28.9068 17.9896 28.9213 18.1027 28.958 18.2311C28.9947 18.36 29.0531 18.5064 29.1376 18.6535C29.307 18.9497 29.5762 19.2462 29.9918 19.4387C30.2696 19.5675 30.6152 19.6511 31.0492 19.6511C31.1776 19.6511 31.2817 19.7553 31.2817 19.8837C31.2817 20.0123 31.1776 20.1163 31.0492 20.1163ZM32.6851 18.4198C32.6373 18.5385 32.502 18.5965 32.3826 18.5491C32.2635 18.5013 32.2064 18.3669 32.2533 18.2478V18.2474L32.2546 18.244L32.2614 18.2235L32.2853 18.1399C32.3029 18.0665 32.3208 17.9628 32.3208 17.8489L32.3203 17.8327C32.0012 17.9411 31.7051 17.9897 31.4324 17.9897C31.0203 17.9905 30.6636 17.8775 30.3734 17.706C30.0828 17.5345 29.8567 17.3075 29.6877 17.0766C29.4957 16.815 29.2439 16.5804 28.9555 16.4144C28.6662 16.248 28.3428 16.149 27.9993 16.1481C27.6985 16.149 27.3785 16.2241 27.0444 16.4076C26.7273 16.5816 26.5234 16.8133 26.3915 17.0676C26.2606 17.3224 26.2051 17.6005 26.2055 17.854C26.2046 18.0887 26.2542 18.3011 26.3186 18.4352C26.3736 18.5512 26.3237 18.6895 26.2081 18.7445C26.0924 18.7996 25.9537 18.7496 25.8987 18.634C25.7976 18.4198 25.7413 18.1501 25.7404 17.854C25.7408 17.5596 25.7993 17.2378 25.9431 16.9302C25.6547 16.9955 25.3868 17.0246 25.1427 17.0246C25.0108 17.0246 24.8866 17.016 24.7684 17.0007L24.7253 17.0877L24.7249 17.0885L24.7215 17.092L24.7091 17.1078L24.6596 17.1752C24.6173 17.2358 24.5589 17.3241 24.4953 17.4367C24.3686 17.6599 24.2235 17.9748 24.1531 18.3285C24.1279 18.4544 24.0059 18.5367 23.88 18.5111C23.7541 18.4859 23.6722 18.3639 23.6982 18.2372C23.7818 17.8177 23.947 17.461 24.0908 17.2071C24.1659 17.0757 24.2346 16.9717 24.2849 16.9008C24.0955 16.8441 23.9316 16.7745 23.7977 16.7036C23.4918 16.541 23.3325 16.3781 23.3189 16.3648C23.2302 16.2722 23.2327 16.1254 23.3249 16.0363C23.4175 15.9475 23.5638 15.9501 23.653 16.0414L23.6556 16.0439L23.6692 16.0572L23.7358 16.113C23.7963 16.1608 23.8898 16.2266 24.0148 16.2931C24.2657 16.4254 24.6404 16.5594 25.1426 16.5602C25.4954 16.5602 25.9114 16.4929 26.3949 16.3068C26.5173 16.1929 26.6585 16.0888 26.8207 16C27.2184 15.782 27.619 15.6839 27.9992 15.6839C28.4336 15.6839 28.8376 15.8102 29.1875 16.0116C29.5374 16.2138 29.834 16.4907 30.0622 16.8022C30.2009 16.9903 30.3831 17.1726 30.6088 17.3052C30.8358 17.4384 31.1042 17.525 31.4323 17.5254C31.6572 17.5254 31.9106 17.4836 32.1974 17.3829C32.1274 17.2707 32.0233 17.1623 31.8518 17.0641C31.74 17.0006 31.7003 16.8589 31.7634 16.7476C31.827 16.6353 31.9683 16.5969 32.08 16.6592C32.3548 16.8141 32.5387 17.0193 32.6454 17.234C32.7533 17.4477 32.7853 17.6645 32.7853 17.8489C32.7841 18.1707 32.6915 18.4032 32.6851 18.4198ZM32.5981 15.5734C32.0553 15.5734 31.5804 15.427 31.1964 15.2056C31.1422 15.2807 31.0697 15.375 30.9762 15.4774C30.7659 15.7082 30.4569 15.9792 30.0435 16.1277C29.9219 16.1703 29.7896 16.1081 29.7465 15.9869C29.7034 15.8657 29.767 15.733 29.8869 15.6903C30.192 15.5815 30.4471 15.3678 30.6238 15.1745C30.7057 15.0861 30.7693 15.0025 30.8154 14.9385C30.5863 14.7448 30.4054 14.5242 30.2812 14.2972C30.1635 14.0796 30.0952 13.8552 30.0943 13.6371C30.0943 13.5091 30.1985 13.405 30.3269 13.405C30.4549 13.405 30.559 13.5091 30.559 13.6371C30.5581 13.7545 30.5991 13.9111 30.6895 14.0754C30.7787 14.24 30.9144 14.4115 31.0919 14.5652C31.4469 14.8729 31.9593 15.1083 32.5981 15.1083C32.7265 15.1083 32.8302 15.2129 32.8302 15.3413C32.8302 15.4693 32.7265 15.5734 32.5981 15.5734ZM34.4294 18.8448C34.3479 18.943 34.2011 18.9574 34.1021 18.8751C34.0032 18.7936 33.9895 18.6468 34.0705 18.5483C34.324 18.2406 34.4175 17.9308 34.4183 17.6343C34.4191 17.3642 34.3363 17.1035 34.2066 16.8838C34.0786 16.6644 33.9016 16.4887 33.7313 16.391C33.617 16.3253 33.5094 16.2958 33.4241 16.2958C33.2956 16.2958 33.192 16.1922 33.192 16.0637C33.192 15.9353 33.2957 15.8312 33.4241 15.8312C33.5653 15.8312 33.7036 15.8657 33.835 15.9238C33.966 15.981 34.0898 16.0624 34.2049 16.1619C34.4349 16.3607 34.6303 16.6312 34.7533 16.9483C34.8343 17.1599 34.8838 17.392 34.8838 17.6344C34.8842 18.0328 34.7481 18.4595 34.4294 18.8448Z" fill="white"/>
<path d="M23.457 30.484L23.4729 30.4981C23.4724 30.4977 23.4724 30.4977 23.472 30.4972L23.457 30.484Z" fill="white"/>
<path d="M37.4037 11.6888C35.6751 9.66758 33.0753 8.29111 29.7441 8.09009C29.4732 8.07343 29.2035 8.06494 28.9364 8.06494C26.1348 8.06494 23.5575 8.97464 21.6682 10.6447C19.7776 12.3105 18.6003 14.7494 18.6046 17.6706C18.6046 17.7367 18.605 17.8028 18.6063 17.8694L18.6033 18.2218L16.1985 22.4686C16.0692 22.6977 16.0039 22.9533 16.0039 23.209C16.0039 23.4222 16.0492 23.6365 16.1409 23.8362C16.335 24.2599 16.7169 24.5645 17.1692 24.6695L17.1683 24.6733L18.2743 24.978L18.7112 29.1924L18.7146 29.1919C18.7454 29.8059 19.0193 30.3824 19.4844 30.7869C19.8979 31.147 20.4257 31.3424 20.9685 31.3424C21.0234 31.3424 21.0777 31.3373 21.1323 31.3335L22.3855 31.4329L22.4482 31.4261L22.4683 31.4252C22.5165 31.4252 22.5613 31.4423 22.5959 31.4735L22.5979 31.4756C22.6377 31.5114 22.6611 31.5639 22.6611 31.6177V35.9349H34.3622V35.2796C34.3622 35.2796 34.3622 33.5042 34.3622 32.7959C34.3609 32.5108 34.4176 31.9472 34.5295 31.4036C34.5849 31.131 34.6536 30.8591 34.7313 30.6241C34.8081 30.3894 34.8969 30.1897 34.9711 30.0732C35.7494 28.8187 36.8498 27.7896 37.8576 26.3342C38.8642 24.88 39.7222 22.9936 39.9573 20.1314C39.9872 19.7726 40.0022 19.4137 40.0022 19.0566C40.0022 16.3431 39.1351 13.7083 37.4037 11.6888ZM38.6508 20.022C38.4234 22.6825 37.6793 24.2744 36.7781 25.5908C35.8782 26.9058 34.7654 27.9397 33.8595 29.3781C33.7017 29.6324 33.586 29.914 33.4866 30.2135C33.339 30.662 33.2336 31.151 33.1615 31.6063C33.0898 32.0628 33.0519 32.4767 33.0514 32.7959C33.0514 33.2507 33.0514 33.9385 33.0514 34.6242H23.9719V31.6178C23.9719 31.1906 23.7901 30.784 23.4718 30.4986C23.194 30.249 22.8356 30.1141 22.4682 30.1141C22.4413 30.1141 22.4153 30.1171 22.3889 30.1188L21.137 30.019L21.0755 30.0258L20.9685 30.0318C20.7406 30.0318 20.5187 29.9494 20.345 29.7984C20.1445 29.6239 20.0258 29.373 20.0182 29.1063L20.0178 29.0816L19.4861 23.9528L17.4935 23.4032L17.4696 23.3986C17.409 23.3866 17.3583 23.3465 17.3322 23.2901L17.3147 23.2091L17.3394 23.1144L19.9115 18.5723L19.917 17.8627V17.8532C19.9158 17.7918 19.9153 17.7312 19.9153 17.6707C19.9196 15.0986 20.9193 13.0624 22.5365 11.6266C24.1553 10.1942 26.416 9.37581 28.9364 9.37581C29.1766 9.37581 29.419 9.38349 29.6631 9.39846L29.7036 8.74433L29.6635 9.39846C32.6814 9.58832 34.9028 10.7924 36.4086 12.5423C37.9118 14.2934 38.6914 16.6192 38.6914 19.0566C38.6914 19.3769 38.6782 19.699 38.6508 20.022Z" fill="white"/>
</g>
<path d="M16.29 45.9349L14.75 43.2149H14.09V45.9349H12.69V38.9549H15.31C15.85 38.9549 16.31 39.0516 16.69 39.2449C17.07 39.4316 17.3533 39.6883 17.54 40.0149C17.7333 40.3349 17.83 40.6949 17.83 41.0949C17.83 41.5549 17.6967 41.9716 17.43 42.3449C17.1633 42.7116 16.7667 42.9649 16.24 43.1049L17.91 45.9349H16.29ZM14.09 42.1649H15.26C15.64 42.1649 15.9233 42.0749 16.11 41.8949C16.2967 41.7083 16.39 41.4516 16.39 41.1249C16.39 40.8049 16.2967 40.5583 16.11 40.3849C15.9233 40.2049 15.64 40.1149 15.26 40.1149H14.09V42.1649ZM24.4463 43.0449C24.4463 43.2449 24.4329 43.4249 24.4063 43.5849H20.3562C20.3896 43.9849 20.5296 44.2983 20.7762 44.5249C21.0229 44.7516 21.3262 44.8649 21.6863 44.8649C22.2062 44.8649 22.5762 44.6416 22.7963 44.1949H24.3063C24.1463 44.7283 23.8396 45.1683 23.3862 45.5149C22.9329 45.8549 22.3763 46.0249 21.7163 46.0249C21.1829 46.0249 20.7029 45.9083 20.2762 45.6749C19.8562 45.4349 19.5262 45.0983 19.2862 44.6649C19.0529 44.2316 18.9362 43.7316 18.9362 43.1649C18.9362 42.5916 19.0529 42.0883 19.2862 41.6549C19.5196 41.2216 19.8462 40.8883 20.2662 40.6549C20.6862 40.4216 21.1696 40.3049 21.7163 40.3049C22.2429 40.3049 22.7129 40.4183 23.1263 40.6449C23.5463 40.8716 23.8696 41.1949 24.0963 41.6149C24.3296 42.0283 24.4463 42.5049 24.4463 43.0449ZM22.9962 42.6449C22.9896 42.2849 22.8596 41.9983 22.6062 41.7849C22.3529 41.5649 22.0429 41.4549 21.6762 41.4549C21.3296 41.4549 21.0363 41.5616 20.7962 41.7749C20.5629 41.9816 20.4196 42.2716 20.3662 42.6449H22.9962ZM25.3081 43.1649C25.3081 42.5916 25.4248 42.0916 25.6581 41.6649C25.8915 41.2316 26.2148 40.8983 26.6281 40.6649C27.0415 40.4249 27.5148 40.3049 28.0481 40.3049C28.7348 40.3049 29.3015 40.4783 29.7481 40.8249C30.2015 41.1649 30.5048 41.6449 30.6581 42.2649H29.1481C29.0681 42.0249 28.9315 41.8383 28.7381 41.7049C28.5515 41.5649 28.3181 41.4949 28.0381 41.4949C27.6381 41.4949 27.3215 41.6416 27.0881 41.9349C26.8548 42.2216 26.7381 42.6316 26.7381 43.1649C26.7381 43.6916 26.8548 44.1016 27.0881 44.3949C27.3215 44.6816 27.6381 44.8249 28.0381 44.8249C28.6048 44.8249 28.9748 44.5716 29.1481 44.0649H30.6581C30.5048 44.6649 30.2015 45.1416 29.7481 45.4949C29.2948 45.8483 28.7281 46.0249 28.0481 46.0249C27.5148 46.0249 27.0415 45.9083 26.6281 45.6749C26.2148 45.4349 25.8915 45.1016 25.6581 44.6749C25.4248 44.2416 25.3081 43.7383 25.3081 43.1649ZM31.5238 43.1449C31.5238 42.5849 31.6338 42.0883 31.8538 41.6549C32.0804 41.2216 32.3838 40.8883 32.7638 40.6549C33.1504 40.4216 33.5804 40.3049 34.0538 40.3049C34.4671 40.3049 34.8271 40.3883 35.1338 40.5549C35.4471 40.7216 35.6971 40.9316 35.8838 41.1849V40.3949H37.2938V45.9349H35.8838V45.1249C35.7038 45.3849 35.4538 45.6016 35.1338 45.7749C34.8204 45.9416 34.4571 46.0249 34.0438 46.0249C33.5771 46.0249 33.1504 45.9049 32.7638 45.6649C32.3838 45.4249 32.0804 45.0883 31.8538 44.6549C31.6338 44.2149 31.5238 43.7116 31.5238 43.1449ZM35.8838 43.1649C35.8838 42.8249 35.8171 42.5349 35.6838 42.2949C35.5504 42.0483 35.3704 41.8616 35.1438 41.7349C34.9171 41.6016 34.6738 41.5349 34.4138 41.5349C34.1538 41.5349 33.9138 41.5983 33.6938 41.7249C33.4738 41.8516 33.2938 42.0383 33.1538 42.2849C33.0204 42.5249 32.9538 42.8116 32.9538 43.1449C32.9538 43.4783 33.0204 43.7716 33.1538 44.0249C33.2938 44.2716 33.4738 44.4616 33.6938 44.5949C33.9204 44.7283 34.1604 44.7949 34.4138 44.7949C34.6738 44.7949 34.9171 44.7316 35.1438 44.6049C35.3704 44.4716 35.5504 44.2849 35.6838 44.0449C35.8171 43.7983 35.8838 43.5049 35.8838 43.1649ZM40.2611 38.5349V45.9349H38.8611V38.5349H40.2611ZM43.2443 38.5349V45.9349H41.8443V38.5349H43.2443Z" fill="white"/>
<defs>
<clipPath id="clip0_3215_124007">
<rect width="27.87" height="27.87" fill="white" transform="translate(14.0664 8.06494)"/>
</clipPath>
</defs>
</svg>
