<svg width="44" height="44" viewBox="0 0 44 44" fill="none" xmlns="http://www.w3.org/2000/svg">
<rect x="0.5" y="0.5" width="43" height="43" rx="7.5" stroke="black" stroke-opacity="0.1"/>
<path fill-rule="evenodd" clip-rule="evenodd" d="M26.4152 18.999L29.0002 19C29.5522 19 30.0002 19.448 30.0002 20.001C29.9992 20.553 29.5512 21 29.0002 21H28.9992L24.0243 20.997C23.4742 20.997 23.0272 20.552 23.0243 20.002L23.0002 15.005C22.9972 14.453 23.4422 14.003 23.9952 14H24.0002C24.5503 14 24.9972 14.444 25.0002 14.995L25.0122 17.573L28.2922 14.293C28.6832 13.902 29.3162 13.902 29.7072 14.293C30.0972 14.684 30.0972 15.316 29.7072 15.707L26.4152 18.999ZM15.0043 23.0004L20.0012 23.0254C20.5512 23.0284 20.9963 23.4744 20.9963 24.0244L21.0002 28.9994C21.0002 29.5514 20.5522 30.0004 20.0002 30.0004C19.4472 30.0004 19.0002 29.5524 19.0002 29.0014L18.9983 26.4164L15.7072 29.7074C15.5113 29.9024 15.2552 30.0004 15.0002 30.0004C14.7442 30.0004 14.4882 29.9024 14.2932 29.7074C13.9022 29.3164 13.9022 28.6834 14.2932 28.2934L17.5722 25.0134L14.9952 25.0004C14.4423 24.9974 13.9973 24.5464 14.0003 23.9954C14.0023 23.4444 14.4502 23.0004 15.0002 23.0004H15.0043Z" fill="#0D1C2E"/>
<mask id="mask0_3215_123991" style="mask-type:luminance" maskUnits="userSpaceOnUse" x="14" y="13" width="16" height="18">
<path fill-rule="evenodd" clip-rule="evenodd" d="M26.4152 18.999L29.0002 19C29.5522 19 30.0002 19.448 30.0002 20.001C29.9992 20.553 29.5512 21 29.0002 21H28.9992L24.0243 20.997C23.4742 20.997 23.0272 20.552 23.0243 20.002L23.0002 15.005C22.9972 14.453 23.4422 14.003 23.9952 14H24.0002C24.5503 14 24.9972 14.444 25.0002 14.995L25.0122 17.573L28.2922 14.293C28.6832 13.902 29.3162 13.902 29.7072 14.293C30.0972 14.684 30.0972 15.316 29.7072 15.707L26.4152 18.999ZM15.0043 23.0004L20.0012 23.0254C20.5512 23.0284 20.9963 23.4744 20.9963 24.0244L21.0002 28.9994C21.0002 29.5514 20.5522 30.0004 20.0002 30.0004C19.4472 30.0004 19.0002 29.5524 19.0002 29.0014L18.9983 26.4164L15.7072 29.7074C15.5113 29.9024 15.2552 30.0004 15.0002 30.0004C14.7442 30.0004 14.4882 29.9024 14.2932 29.7074C13.9022 29.3164 13.9022 28.6834 14.2932 28.2934L17.5722 25.0134L14.9952 25.0004C14.4423 24.9974 13.9973 24.5464 14.0003 23.9954C14.0023 23.4444 14.4502 23.0004 15.0002 23.0004H15.0043Z" fill="white"/>
</mask>
<g mask="url(#mask0_3215_123991)">
<rect x="10" y="10" width="24" height="24" fill="#0D1C2E"/>
</g>
</svg>
