<svg width="32" height="32" viewBox="0 0 32 32" fill="none" xmlns="http://www.w3.org/2000/svg">
<rect x="0.5" y="0.5" width="31" height="31" rx="7.5" stroke="black" stroke-opacity="0.1"/>
<path fill-rule="evenodd" clip-rule="evenodd" d="M14.0757 23C13.8581 23 13.6395 22.924 13.4594 22.768C13.0512 22.415 12.9963 21.7839 13.3362 21.36L17.6462 15.989L13.4912 10.627C13.1581 10.197 13.2235 9.56695 13.6376 9.22095C14.0526 8.87495 14.6583 8.94295 14.9924 9.37295L19.6414 15.373C19.9283 15.744 19.9245 16.274 19.6308 16.64L14.8162 22.6399C14.6255 22.877 14.3521 23 14.0757 23Z" fill="#231F20"/>
<mask id="mask0_3215_123986" style="mask-type:luminance" maskUnits="userSpaceOnUse" x="13" y="9" width="7" height="14">
<path fill-rule="evenodd" clip-rule="evenodd" d="M14.0757 23C13.8581 23 13.6395 22.924 13.4594 22.768C13.0512 22.415 12.9963 21.7839 13.3362 21.36L17.6462 15.989L13.4912 10.627C13.1581 10.197 13.2235 9.56695 13.6376 9.22095C14.0526 8.87495 14.6583 8.94295 14.9924 9.37295L19.6414 15.373C19.9283 15.744 19.9245 16.274 19.6308 16.64L14.8162 22.6399C14.6255 22.877 14.3521 23 14.0757 23Z" fill="white"/>
</mask>
<g mask="url(#mask0_3215_123986)">
<rect x="4.44531" y="4" width="23.1101" height="24" fill="#0D1C2E"/>
</g>
</svg>
