<svg width="20" height="20" viewBox="0 0 20 20" fill="none" xmlns="http://www.w3.org/2000/svg">
<path fill-rule="evenodd" clip-rule="evenodd" d="M10.3704 13.3753C10.498 13.3753 10.6256 13.407 10.7419 13.4695L13.7663 15.1112L13.191 11.647C13.1452 11.3753 13.2327 11.0987 13.4237 10.9062L15.8598 8.45949L12.4872 7.94949C12.2264 7.91033 12.0009 7.74116 11.8838 7.49616L10.3704 4.33449L8.85701 7.49616C8.73986 7.74116 8.51438 7.91033 8.25358 7.94949L4.88096 8.45949L7.31715 10.9062C7.50812 11.0987 7.59559 11.3753 7.54985 11.647L6.97451 15.1112L9.99888 13.4695C10.1152 13.407 10.2428 13.3753 10.3704 13.3753M14.8335 17.4628C14.706 17.4628 14.5784 17.432 14.462 17.3687L10.3704 15.1487L6.2788 17.3687C6.00757 17.5153 5.68018 17.4895 5.43544 17.3028C5.18829 17.1162 5.06552 16.8003 5.11687 16.4878L5.89684 11.7978L2.59081 8.47699C2.37014 8.25616 2.29151 7.92449 2.38539 7.62199C2.47847 7.31949 2.73044 7.09949 3.03295 7.05366L7.60763 6.36366L9.65142 2.09199C9.92265 1.52533 10.8182 1.52533 11.0894 2.09199L13.1332 6.36366L17.7079 7.05366C18.0104 7.09949 18.2623 7.31949 18.3554 7.62199C18.4493 7.92449 18.3707 8.25616 18.15 8.47699L14.844 11.7978L15.6239 16.4878C15.6753 16.8003 15.5525 17.1162 15.3054 17.3028C15.1665 17.4095 15.0004 17.4628 14.8335 17.4628" fill="#6A6A75"/>
<mask id="mask0_13_48012" style="mask-type:luminance" maskUnits="userSpaceOnUse" x="2" y="1" width="17" height="17">
<path fill-rule="evenodd" clip-rule="evenodd" d="M10.3704 13.3753C10.498 13.3753 10.6256 13.407 10.7419 13.4695L13.7663 15.1112L13.191 11.647C13.1452 11.3753 13.2327 11.0987 13.4237 10.9062L15.8598 8.45949L12.4872 7.94949C12.2264 7.91033 12.0009 7.74116 11.8838 7.49616L10.3704 4.33449L8.85701 7.49616C8.73986 7.74116 8.51438 7.91033 8.25358 7.94949L4.88096 8.45949L7.31715 10.9062C7.50812 11.0987 7.59559 11.3753 7.54985 11.647L6.97451 15.1112L9.99888 13.4695C10.1152 13.407 10.2428 13.3753 10.3704 13.3753M14.8335 17.4628C14.706 17.4628 14.5784 17.432 14.462 17.3687L10.3704 15.1487L6.2788 17.3687C6.00757 17.5153 5.68018 17.4895 5.43544 17.3028C5.18829 17.1162 5.06552 16.8003 5.11687 16.4878L5.89684 11.7978L2.59081 8.47699C2.37014 8.25616 2.29151 7.92449 2.38539 7.62199C2.47847 7.31949 2.73044 7.09949 3.03295 7.05366L7.60763 6.36366L9.65142 2.09199C9.92265 1.52533 10.8182 1.52533 11.0894 2.09199L13.1332 6.36366L17.7079 7.05366C18.0104 7.09949 18.2623 7.31949 18.3554 7.62199C18.4493 7.92449 18.3707 8.25616 18.15 8.47699L14.844 11.7978L15.6239 16.4878C15.6753 16.8003 15.5525 17.1162 15.3054 17.3028C15.1665 17.4095 15.0004 17.4628 14.8335 17.4628" fill="white"/>
</mask>
<g mask="url(#mask0_13_48012)">
<rect x="0.741577" width="19.2584" height="20" fill="#6A6A75"/>
</g>
</svg>
