<svg width="20" height="20" viewBox="0 0 20 20" fill="none" xmlns="http://www.w3.org/2000/svg">
<path fill-rule="evenodd" clip-rule="evenodd" d="M3.14893 9.99967C3.14893 9.07967 3.86791 8.33301 4.75379 8.33301C5.63968 8.33301 6.35866 9.07967 6.35866 9.99967C6.35866 10.9197 5.63968 11.6663 4.75379 11.6663C3.86791 11.6663 3.14893 10.9197 3.14893 9.99967ZM10.3708 8.33301C9.48494 8.33301 8.76596 9.07967 8.76596 9.99967C8.76596 10.9197 9.48494 11.6663 10.3708 11.6663C11.2567 11.6663 11.9757 10.9197 11.9757 9.99967C11.9757 9.07967 11.2567 8.33301 10.3708 8.33301ZM15.9879 8.33301C15.102 8.33301 14.383 9.07967 14.383 9.99967C14.383 10.9197 15.102 11.6663 15.9879 11.6663C16.8737 11.6663 17.5927 10.9197 17.5927 9.99967C17.5927 9.07967 16.8737 8.33301 15.9879 8.33301Z" fill="#231F20"/>
<mask id="mask0_13_48156" style="mask-type:luminance" maskUnits="userSpaceOnUse" x="3" y="8" width="15" height="4">
<path fill-rule="evenodd" clip-rule="evenodd" d="M3.14893 9.99967C3.14893 9.07967 3.86791 8.33301 4.75379 8.33301C5.63968 8.33301 6.35866 9.07967 6.35866 9.99967C6.35866 10.9197 5.63968 11.6663 4.75379 11.6663C3.86791 11.6663 3.14893 10.9197 3.14893 9.99967ZM10.3708 8.33301C9.48494 8.33301 8.76596 9.07967 8.76596 9.99967C8.76596 10.9197 9.48494 11.6663 10.3708 11.6663C11.2567 11.6663 11.9757 10.9197 11.9757 9.99967C11.9757 9.07967 11.2567 8.33301 10.3708 8.33301ZM15.9879 8.33301C15.102 8.33301 14.383 9.07967 14.383 9.99967C14.383 10.9197 15.102 11.6663 15.9879 11.6663C16.8737 11.6663 17.5927 10.9197 17.5927 9.99967C17.5927 9.07967 16.8737 8.33301 15.9879 8.33301Z" fill="white"/>
</mask>
<g mask="url(#mask0_13_48156)">
<rect x="0.741699" width="19.2584" height="20" fill="#8E897C"/>
</g>
</svg>
