<svg width="44" height="44" viewBox="0 0 44 44" fill="none" xmlns="http://www.w3.org/2000/svg">
<rect x="1.39062" y="0.5" width="42.1101" height="43" rx="7.5" stroke="black" stroke-opacity="0.1"/>
<path fill-rule="evenodd" clip-rule="evenodd" d="M22.4454 17C23.5084 17 24.3712 16.104 24.3712 15C24.3712 13.896 23.5084 13 22.4454 13C21.3823 13 20.5195 13.896 20.5195 15C20.5195 16.104 21.3823 17 22.4454 17ZM22.4454 20C21.3823 20 20.5195 20.896 20.5195 22C20.5195 23.104 21.3823 24 22.4454 24C23.5084 24 24.3712 23.104 24.3712 22C24.3712 20.896 23.5084 20 22.4454 20ZM20.5195 29C20.5195 27.896 21.3823 27 22.4454 27C23.5084 27 24.3712 27.896 24.3712 29C24.3712 30.104 23.5084 31 22.4454 31C21.3823 31 20.5195 30.104 20.5195 29Z" fill="#231F20"/>
<mask id="mask0_3215_123989" style="mask-type:luminance" maskUnits="userSpaceOnUse" x="20" y="13" width="5" height="18">
<path fill-rule="evenodd" clip-rule="evenodd" d="M22.4454 17C23.5084 17 24.3712 16.104 24.3712 15C24.3712 13.896 23.5084 13 22.4454 13C21.3823 13 20.5195 13.896 20.5195 15C20.5195 16.104 21.3823 17 22.4454 17ZM22.4454 20C21.3823 20 20.5195 20.896 20.5195 22C20.5195 23.104 21.3823 24 22.4454 24C23.5084 24 24.3712 23.104 24.3712 22C24.3712 20.896 23.5084 20 22.4454 20ZM20.5195 29C20.5195 27.896 21.3823 27 22.4454 27C23.5084 27 24.3712 27.896 24.3712 29C24.3712 30.104 23.5084 31 22.4454 31C21.3823 31 20.5195 30.104 20.5195 29Z" fill="white"/>
</mask>
<g mask="url(#mask0_3215_123989)">
<rect x="10.8906" y="10" width="23.1101" height="24" fill="#0D1C2E"/>
</g>
</svg>
