<svg width="17" height="16" viewBox="0 0 17 16" fill="none" xmlns="http://www.w3.org/2000/svg">
<path fill-rule="evenodd" clip-rule="evenodd" d="M10.2342 8.8343H7.02445C6.58311 8.8343 6.22201 9.2093 6.22201 9.66764C6.22201 10.126 6.58311 10.501 7.02445 10.501H10.2342C10.6755 10.501 11.0366 10.126 11.0366 9.66764C11.0366 9.2093 10.6755 8.8343 10.2342 8.8343M15.0488 13.058C15.0488 13.2563 14.869 13.418 14.6476 13.418H2.61106C2.38959 13.418 2.20985 13.2563 2.20985 13.058V9.4638V2.9438C2.20985 2.74547 2.38959 2.58464 2.61106 2.58464H5.9219L8.00823 5.23297C8.16069 5.42714 8.38858 5.53964 8.62931 5.53964H14.6476C14.869 5.53964 15.0488 5.70047 15.0488 5.89964V13.058ZM14.6476 3.87297H9.00967L6.92414 1.2238C6.77168 1.02964 6.54299 0.917969 6.30306 0.917969H2.61106C1.50531 0.917969 0.60498 1.8263 0.60498 2.9438V13.058C0.60498 14.1755 1.50531 15.0846 2.61106 15.0846H14.6476C15.7533 15.0846 16.6536 14.1755 16.6536 13.058V5.89964C16.6536 4.7813 15.7533 3.87297 14.6476 3.87297V3.87297Z" fill="#231F20"/>
</svg>
