<svg width="27" height="26" viewBox="0 0 27 26" fill="none" xmlns="http://www.w3.org/2000/svg">
<path fill-rule="evenodd" clip-rule="evenodd" d="M4.21484 4.33333C4.21484 3.73503 4.69987 3.25 5.29818 3.25H9.63151C10.2298 3.25 10.7148 3.73503 10.7148 4.33333C10.7148 4.93164 10.2298 5.41667 9.63151 5.41667H7.91357L11.4809 8.98396C11.9039 9.40704 11.9039 10.093 11.4809 10.516C11.0578 10.9391 10.3719 10.9391 9.94881 10.516L6.38151 6.94873V8.66667C6.38151 9.26497 5.89648 9.75 5.29818 9.75C4.69987 9.75 4.21484 9.26497 4.21484 8.66667V4.33333ZM18.2982 3.25H22.6315C23.2298 3.25 23.7148 3.73503 23.7148 4.33333V8.66667C23.7148 9.26497 23.2298 9.75 22.6315 9.75C22.0332 9.75 21.5482 9.26497 21.5482 8.66667V6.94873L17.9809 10.516C17.5578 10.9391 16.8719 10.9391 16.4488 10.516C16.0258 10.093 16.0258 9.40704 16.4488 8.98396L20.0161 5.41667H18.2982C17.6999 5.41667 17.2148 4.93164 17.2148 4.33333C17.2148 3.73503 17.6999 3.25 18.2982 3.25ZM11.4809 15.484C11.9039 15.907 11.9039 16.593 11.4809 17.016L7.91357 20.5833H9.63151C10.2298 20.5833 10.7148 21.0683 10.7148 21.6667C10.7148 22.265 10.2298 22.75 9.63151 22.75H5.29818C4.69987 22.75 4.21484 22.265 4.21484 21.6667V17.3333C4.21484 16.735 4.69987 16.25 5.29818 16.25C5.89648 16.25 6.38151 16.735 6.38151 17.3333V19.0513L9.94881 15.484C10.3719 15.0609 11.0578 15.0609 11.4809 15.484ZM16.4488 15.484C16.8719 15.0609 17.5578 15.0609 17.9809 15.484L21.5482 19.0513V17.3333C21.5482 16.735 22.0332 16.25 22.6315 16.25C23.2298 16.25 23.7148 16.735 23.7148 17.3333V21.6667C23.7148 22.265 23.2298 22.75 22.6315 22.75H18.2982C17.6999 22.75 17.2148 22.265 17.2148 21.6667C17.2148 21.0683 17.6999 20.5833 18.2982 20.5833H20.0161L16.4488 17.016C16.0258 16.593 16.0258 15.907 16.4488 15.484Z" fill="white"/>
</svg>
