<svg width="48" height="49" viewBox="0 0 48 49" fill="none" xmlns="http://www.w3.org/2000/svg">
<rect y="0.5" width="48" height="48" rx="6" fill="#F0ECFF"/>
<rect x="0.5" y="1" width="47" height="47" rx="5.5" stroke="#B9A6FF" stroke-opacity="0.5"/>
<path fill-rule="evenodd" clip-rule="evenodd" d="M19.0636 21.5224C16.7808 24.0879 16.8291 28.1549 19.2085 30.6738C20.3701 31.9069 21.9137 32.5871 23.5584 32.5883H23.564C25.212 32.5883 26.7612 31.9081 27.9284 30.6738C30.3505 28.1094 30.346 23.9386 27.9183 21.3778L24.5638 17.8183C24.2245 20.7139 23.1786 23.2549 21.316 23.2549C20.7453 23.2549 19.8152 22.9913 19.0636 21.5224V21.5224ZM23.564 34.9216H23.5561C21.3026 34.9193 19.1883 33.9918 17.6032 32.3059C14.3296 28.8409 14.3251 23.2024 17.5931 19.7433L18.6974 18.5836C18.9827 18.2873 19.3973 18.1729 19.7893 18.2791C20.1791 18.3888 20.4825 18.7073 20.5836 19.1133C20.842 20.1504 21.1498 20.6603 21.3194 20.8539C21.7182 20.4176 22.4394 18.6548 22.4394 15.6716C22.4394 15.5001 22.4394 15.3379 22.4305 15.1758C22.4091 14.8316 22.5361 14.4944 22.7765 14.2564C23.2225 13.8166 23.9369 13.8166 24.365 14.2739L29.5214 19.7444C32.8017 23.2024 32.8074 28.8409 29.5326 32.3071C27.9385 33.9941 25.8198 34.9216 23.564 34.9216V34.9216Z" fill="#653EFF"/>
<mask id="mask0_12505_110665" style="mask-type:luminance" maskUnits="userSpaceOnUse" x="15" y="13" width="17" height="22">
<path fill-rule="evenodd" clip-rule="evenodd" d="M19.0636 21.5224C16.7808 24.0879 16.8291 28.1549 19.2085 30.6738C20.3701 31.9069 21.9137 32.5871 23.5584 32.5883H23.564C25.212 32.5883 26.7612 31.9081 27.9284 30.6738C30.3505 28.1094 30.346 23.9386 27.9183 21.3778L24.5638 17.8183C24.2245 20.7139 23.1786 23.2549 21.316 23.2549C20.7453 23.2549 19.8152 22.9913 19.0636 21.5224V21.5224ZM23.564 34.9216H23.5561C21.3026 34.9193 19.1883 33.9918 17.6032 32.3059C14.3296 28.8409 14.3251 23.2024 17.5931 19.7433L18.6974 18.5836C18.9827 18.2873 19.3973 18.1729 19.7893 18.2791C20.1791 18.3888 20.4825 18.7073 20.5836 19.1133C20.842 20.1504 21.1498 20.6603 21.3194 20.8539C21.7182 20.4176 22.4394 18.6548 22.4394 15.6716C22.4394 15.5001 22.4394 15.3379 22.4305 15.1758C22.4091 14.8316 22.5361 14.4944 22.7765 14.2564C23.2225 13.8166 23.9369 13.8166 24.365 14.2739L29.5214 19.7444C32.8017 23.2024 32.8074 28.8409 29.5326 32.3071C27.9385 33.9941 25.8198 34.9216 23.564 34.9216V34.9216Z" fill="white"/>
</mask>
<g mask="url(#mask0_12505_110665)">
<rect x="10.6436" y="10.4199" width="26.9618" height="28" fill="#653EFF"/>
</g>
</svg>
