<svg width="40" height="41" viewBox="0 0 40 41" fill="none" xmlns="http://www.w3.org/2000/svg">
<rect x="0.5" y="1" width="39" height="39" rx="5.5" fill="#FCEDF0" stroke="#F6C6CF"/>
<path fill-rule="evenodd" clip-rule="evenodd" d="M15.2172 18.0167C13.2605 20.2157 13.3019 23.7017 15.3414 25.8607C16.3371 26.9177 17.6601 27.5007 19.0698 27.5017H19.0746C20.4872 27.5017 21.8151 26.9187 22.8156 25.8607C24.8916 23.6627 24.8878 20.0877 22.8069 17.8927L19.9316 14.8417C19.6408 17.3237 18.7444 19.5017 17.1478 19.5017C16.6587 19.5017 15.8614 19.2757 15.2172 18.0167V18.0167ZM19.0746 29.5017H19.0679C17.1363 29.4997 15.3241 28.7047 13.9654 27.2597C11.1594 24.2897 11.1556 19.4567 13.9567 16.4917L14.9033 15.4977C15.1479 15.2437 15.5032 15.1457 15.8392 15.2367C16.1734 15.3307 16.4334 15.6037 16.52 15.9517C16.7415 16.8407 17.0053 17.2777 17.1507 17.4437C17.4926 17.0697 18.1108 15.5587 18.1108 13.0017C18.1108 12.8547 18.1108 12.7157 18.1031 12.5767C18.0848 12.2817 18.1936 11.9927 18.3996 11.7887C18.7819 11.4117 19.3943 11.4117 19.7612 11.8037L24.181 16.4927C26.9927 19.4567 26.9975 24.2897 24.1906 27.2607C22.8243 28.7067 21.0082 29.5017 19.0746 29.5017V29.5017Z" fill="#E24665"/>
<mask id="mask0_12505_110413" style="mask-type:luminance" maskUnits="userSpaceOnUse" x="11" y="11" width="16" height="19">
<path fill-rule="evenodd" clip-rule="evenodd" d="M15.2172 18.0167C13.2605 20.2157 13.3019 23.7017 15.3414 25.8607C16.3371 26.9177 17.6601 27.5007 19.0698 27.5017H19.0746C20.4872 27.5017 21.8151 26.9187 22.8156 25.8607C24.8916 23.6627 24.8878 20.0877 22.8069 17.8927L19.9316 14.8417C19.6408 17.3237 18.7444 19.5017 17.1478 19.5017C16.6587 19.5017 15.8614 19.2757 15.2172 18.0167V18.0167ZM19.0746 29.5017H19.0679C17.1363 29.4997 15.3241 28.7047 13.9654 27.2597C11.1594 24.2897 11.1556 19.4567 13.9567 16.4917L14.9033 15.4977C15.1479 15.2437 15.5032 15.1457 15.8392 15.2367C16.1734 15.3307 16.4334 15.6037 16.52 15.9517C16.7415 16.8407 17.0053 17.2777 17.1507 17.4437C17.4926 17.0697 18.1108 15.5587 18.1108 13.0017C18.1108 12.8547 18.1108 12.7157 18.1031 12.5767C18.0848 12.2817 18.1936 11.9927 18.3996 11.7887C18.7819 11.4117 19.3943 11.4117 19.7612 11.8037L24.181 16.4927C26.9927 19.4567 26.9975 24.2897 24.1906 27.2607C22.8243 28.7067 21.0082 29.5017 19.0746 29.5017V29.5017Z" fill="white"/>
</mask>
<g mask="url(#mask0_12505_110413)">
<rect x="8" y="8.5" width="23.1101" height="24" fill="#E24665"/>
</g>
</svg>
