<svg width="49" height="48" viewBox="0 0 49 48" fill="none" xmlns="http://www.w3.org/2000/svg">
<rect x="0.5" width="48" height="48" rx="6" fill="#F0ECFF"/>
<rect x="1" y="0.5" width="47" height="47" rx="5.5" stroke="#B9A6FF" stroke-opacity="0.5"/>
<path fill-rule="evenodd" clip-rule="evenodd" d="M25.2499 13.208C19.2898 13.208 14.4583 18.0396 14.4583 23.9997C14.4583 29.9597 19.2898 34.7913 25.2499 34.7913C31.21 34.7913 36.0416 29.9597 36.0416 23.9997C36.0416 18.0396 31.21 13.208 25.2499 13.208ZM12.7083 23.9997C12.7083 17.0731 18.3233 11.458 25.2499 11.458C32.1765 11.458 37.7916 17.0731 37.7916 23.9997C37.7916 30.9263 32.1765 36.5413 25.2499 36.5413C18.3233 36.5413 12.7083 30.9263 12.7083 23.9997ZM25.2499 16.1247C25.7332 16.1247 26.1249 16.5164 26.1249 16.9997V17.3692C28.0271 17.7098 29.6249 19.1389 29.6249 21.083C29.6249 21.5663 29.2332 21.958 28.7499 21.958C28.2667 21.958 27.8749 21.5663 27.8749 21.083C27.8749 20.098 26.8558 19.0413 25.2499 19.0413C23.644 19.0413 22.6249 20.098 22.6249 21.083C22.6249 22.068 23.644 23.1247 25.2499 23.1247C27.51 23.1247 29.6249 24.6796 29.6249 26.9163C29.6249 28.8605 28.0271 30.2895 26.1249 30.6302V30.9997C26.1249 31.4829 25.7332 31.8747 25.2499 31.8747C24.7667 31.8747 24.3749 31.4829 24.3749 30.9997V30.6302C22.4727 30.2895 20.8749 28.8605 20.8749 26.9163C20.8749 26.4331 21.2667 26.0413 21.7499 26.0413C22.2332 26.0413 22.6249 26.4331 22.6249 26.9163C22.6249 27.9014 23.644 28.958 25.2499 28.958C26.8558 28.958 27.8749 27.9014 27.8749 26.9163C27.8749 25.9313 26.8558 24.8747 25.2499 24.8747C22.9899 24.8747 20.8749 23.3197 20.8749 21.083C20.8749 19.1389 22.4727 17.7098 24.3749 17.3692V16.9997C24.3749 16.5164 24.7667 16.1247 25.2499 16.1247Z" fill="#653EFF"/>
</svg>
