<svg width="40" height="41" viewBox="0 0 40 41" fill="none" xmlns="http://www.w3.org/2000/svg">
<rect x="0.5" y="1" width="39" height="39" rx="5.5" fill="#F7FCED" stroke="#FFE2B0"/>
<g clip-path="url(#clip0_12505_110423)">
<path fill-rule="evenodd" clip-rule="evenodd" d="M19.059 31.5768C18.726 31.4688 18.534 31.2768 18.441 30.9633C18.3885 30.7878 18.3795 30.3798 18.3795 28.2498C18.3795 25.4283 18.3765 25.4643 18.6645 25.1763C19.05 24.7923 19.95 24.7923 20.3355 25.1763C20.6235 25.4643 20.6205 25.4283 20.6205 28.2498C20.6205 30.9798 20.616 31.0278 20.394 31.2918C20.208 31.5123 20.0085 31.5858 19.56 31.5978C19.3395 31.6038 19.1145 31.5948 19.059 31.5768ZM11.6295 28.6128C11.3925 28.5048 11.043 28.1628 10.9215 27.9198C10.7955 27.6663 10.7895 27.3843 10.9035 27.1323C11.0145 26.8848 14.5005 23.3868 14.775 23.2473C15.1635 23.0478 15.5625 23.1453 15.9645 23.5383C16.3605 23.9253 16.4655 24.3453 16.2645 24.7368C16.125 25.0113 12.627 28.4973 12.3795 28.6083C12.1515 28.7118 11.8515 28.7133 11.6295 28.6128ZM26.7795 28.5888C26.595 28.5033 26.28 28.2078 24.777 26.7003C23.3955 25.3158 22.974 24.8688 22.9065 24.7218C22.7925 24.4743 22.794 24.1878 22.908 23.9448C23.013 23.7198 23.358 23.3658 23.5905 23.2443C23.826 23.1213 24.1755 23.1228 24.42 23.2473C24.6705 23.3763 28.1355 26.8413 28.2645 27.0918C28.389 27.3348 28.3905 27.6858 28.269 27.9183C28.146 28.1538 27.828 28.4658 27.588 28.5873C27.3195 28.7238 27.072 28.7238 26.7795 28.5888ZM8.54846 21.0738C8.10596 20.9343 7.88696 20.5818 7.88696 20.0133C7.88846 19.4328 8.10446 19.0848 8.54696 18.9528C8.72396 18.9003 9.11846 18.8913 11.262 18.8913C13.4955 18.8913 13.794 18.8988 13.977 18.9588C14.247 19.0458 14.466 19.2648 14.553 19.5348C14.682 19.9323 14.6175 20.4963 14.412 20.7753C14.367 20.8353 14.238 20.9358 14.1255 20.9973L13.92 21.1113L11.3205 21.1203C9.22796 21.1263 8.68646 21.1173 8.54846 21.0738ZM25.1175 21.0948C24.933 21.0498 24.678 20.8953 24.588 20.7738C24.3825 20.4963 24.318 19.9323 24.447 19.5348C24.534 19.2648 24.753 19.0458 25.023 18.9588C25.206 18.8988 25.5045 18.8913 27.738 18.8913C29.8815 18.8913 30.276 18.9003 30.453 18.9528C30.8955 19.0848 31.1115 19.4328 31.113 20.0133C31.113 20.5908 30.8925 20.9373 30.435 21.0753C30.2805 21.1218 29.796 21.1308 27.744 21.1278C26.367 21.1248 25.185 21.1098 25.1175 21.0948ZM14.7795 16.5888C14.595 16.5033 14.28 16.2078 12.777 14.7003C11.3955 13.3158 10.974 12.8688 10.9065 12.7218C10.7925 12.4743 10.794 12.1878 10.908 11.9448C11.013 11.7198 11.358 11.3658 11.5905 11.2443C11.826 11.1213 12.1755 11.1228 12.42 11.2473C12.6705 11.3763 16.1355 14.8413 16.2645 15.0918C16.389 15.3348 16.3905 15.6858 16.269 15.9183C16.146 16.1538 15.828 16.4658 15.588 16.5873C15.3195 16.7238 15.072 16.7238 14.7795 16.5888ZM23.6295 16.6128C23.3925 16.5048 23.043 16.1628 22.9215 15.9198C22.7955 15.6663 22.7895 15.3843 22.9035 15.1323C23.0145 14.8848 26.5005 11.3868 26.775 11.2473C27.1635 11.0478 27.5625 11.1453 27.9645 11.5383C28.3605 11.9253 28.4655 12.3453 28.2645 12.7368C28.125 13.0113 24.627 16.4973 24.3795 16.6083C24.1515 16.7118 23.8515 16.7133 23.6295 16.6128ZM19.1175 15.0963C18.93 15.0483 18.6765 14.8938 18.588 14.7738C18.381 14.4948 18.3795 14.4753 18.3795 11.7783C18.3795 9.63026 18.3885 9.23576 18.441 9.05876C18.573 8.61626 18.9225 8.40026 19.5 8.40026C20.0775 8.40026 20.427 8.61626 20.559 9.05876C20.652 9.37676 20.6505 14.1993 20.556 14.4768C20.466 14.7408 20.3625 14.8668 20.13 14.9928C19.965 15.0828 19.869 15.1053 19.5855 15.1158C19.395 15.1233 19.185 15.1143 19.1175 15.0963Z" fill="#F2BA00"/>
</g>
<rect x="0.0175" y="-0.0175" width="23.965" height="23.965" transform="matrix(1 0 0 -1 7.5 31.9767)" stroke="#FFE2B0" stroke-width="0.035"/>
<defs>
<clipPath id="clip0_12505_110423">
<rect width="24" height="24" transform="matrix(1 0 0 -1 7.5 32.0117)" fill="white"/>
</clipPath>
</defs>
</svg>
