<svg width="49" height="48" viewBox="0 0 49 48" fill="none" xmlns="http://www.w3.org/2000/svg">
<rect x="0.5" width="48" height="48" rx="6" fill="#F0ECFF"/>
<rect x="1" y="0.5" width="47" height="47" rx="5.5" stroke="#B9A6FF" stroke-opacity="0.5"/>
<path fill-rule="evenodd" clip-rule="evenodd" d="M17.9954 28.3115L19.321 26.9325C19.7457 26.4915 19.9794 25.9058 19.9794 25.2828V19.8263C19.9794 18.2432 20.6422 16.73 21.7993 15.6777C22.9654 14.616 24.4505 14.1493 25.9974 14.3605C28.6116 14.721 30.5832 17.1757 30.5832 20.0713V25.2828C30.5832 25.9058 30.8169 26.4915 31.2404 26.9313L32.5671 28.3115H17.9954ZM27.5275 31.0427C27.5275 32.0915 26.4985 32.9782 25.2807 32.9782C24.0629 32.9782 23.0339 32.0915 23.0339 31.0427V30.6448H27.5275V31.0427ZM34.8533 27.3875L32.83 25.2828V20.0713C32.83 16.0102 30.0192 12.5603 26.2918 12.0482C24.1326 11.7495 21.9532 12.4343 20.3186 13.923C18.674 15.4187 17.7325 17.57 17.7325 19.8263L17.7314 25.2828L15.7082 27.3875C15.1813 27.9358 15.0251 28.7513 15.3105 29.4665C15.5969 30.1828 16.2631 30.6448 17.0091 30.6448H20.7871V31.0427C20.7871 33.397 22.8025 35.3115 25.2807 35.3115C27.7589 35.3115 29.7743 33.397 29.7743 31.0427V30.6448H33.5524C34.2983 30.6448 34.9634 30.1828 35.2487 29.4677C35.5352 28.7513 35.3801 27.9347 34.8533 27.3875V27.3875Z" fill="#653EFF"/>
<mask id="mask0_12505_110276" style="mask-type:luminance" maskUnits="userSpaceOnUse" x="15" y="11" width="21" height="25">
<path fill-rule="evenodd" clip-rule="evenodd" d="M17.9954 28.3115L19.321 26.9325C19.7457 26.4915 19.9794 25.9058 19.9794 25.2828V19.8263C19.9794 18.2432 20.6422 16.73 21.7993 15.6777C22.9654 14.616 24.4505 14.1493 25.9974 14.3605C28.6116 14.721 30.5832 17.1757 30.5832 20.0713V25.2828C30.5832 25.9058 30.8169 26.4915 31.2404 26.9313L32.5671 28.3115H17.9954ZM27.5275 31.0427C27.5275 32.0915 26.4985 32.9782 25.2807 32.9782C24.0629 32.9782 23.0339 32.0915 23.0339 31.0427V30.6448H27.5275V31.0427ZM34.8533 27.3875L32.83 25.2828V20.0713C32.83 16.0102 30.0192 12.5603 26.2918 12.0482C24.1326 11.7495 21.9532 12.4343 20.3186 13.923C18.674 15.4187 17.7325 17.57 17.7325 19.8263L17.7314 25.2828L15.7082 27.3875C15.1813 27.9358 15.0251 28.7513 15.3105 29.4665C15.5969 30.1828 16.2631 30.6448 17.0091 30.6448H20.7871V31.0427C20.7871 33.397 22.8025 35.3115 25.2807 35.3115C27.7589 35.3115 29.7743 33.397 29.7743 31.0427V30.6448H33.5524C34.2983 30.6448 34.9634 30.1828 35.2487 29.4677C35.5352 28.7513 35.3801 27.9347 34.8533 27.3875V27.3875Z" fill="white"/>
</mask>
<g mask="url(#mask0_12505_110276)">
<rect x="11.8003" y="9.64453" width="26.9618" height="28" fill="#653EFF"/>
</g>
</svg>
