<svg width="40" height="41" viewBox="0 0 40 41" fill="none" xmlns="http://www.w3.org/2000/svg">
<rect x="0.5" y="1" width="39" height="39" rx="5.5" fill="#F0ECFF" stroke="#987EFF"/>
<path d="M24.65 17.6117L22.4 15.3617L26.15 11.6117C25.475 11.2367 24.65 11.0117 23.75 11.0117C20.825 11.0117 18.5 13.3367 18.5 16.2617C18.5 16.5617 18.5 16.8617 18.575 17.1617C16.4 19.3367 12.35 23.3867 11.9 23.8367C10.7 25.0367 10.7 26.9117 11.9 28.1117C13.1 29.3117 14.975 29.3117 16.175 28.1117C16.625 27.6617 20.675 23.6117 22.85 21.4367C23.15 21.5117 23.45 21.5117 23.75 21.5117C26.675 21.5117 29 19.1867 29 16.2617C29 15.3617 28.775 14.5367 28.4 13.8617L24.65 17.6117Z" stroke="#653EFF" stroke-width="1.5" stroke-miterlimit="10"/>
</svg>
