<svg width="48" height="48" viewBox="0 0 48 48" fill="none" xmlns="http://www.w3.org/2000/svg">
<rect width="48" height="48" rx="6" fill="#F0ECFF"/>
<rect x="0.5" y="0.5" width="47" height="47" rx="5.5" stroke="#B9A6FF" stroke-opacity="0.5"/>
<path fill-rule="evenodd" clip-rule="evenodd" d="M31.2213 21.6667C31.2213 21.0238 30.718 20.5 30.0979 20.5C29.4778 20.5 28.9745 21.0238 28.9745 21.6667C28.9745 22.3095 29.4778 22.8333 30.0979 22.8333C30.718 22.8333 31.2213 22.3095 31.2213 21.6667ZM33.4681 21.6667C33.4681 23.5963 31.956 25.1667 30.0979 25.1667C28.2398 25.1667 26.7277 23.5963 26.7277 21.6667C26.7277 19.737 28.2398 18.1667 30.0979 18.1667C31.956 18.1667 33.4681 19.737 33.4681 21.6667ZM23.3575 18.1667C23.3575 16.8798 22.3498 15.8333 21.1107 15.8333C19.8716 15.8333 18.8639 16.8798 18.8639 18.1667C18.8639 19.4535 19.8716 20.5 21.1107 20.5C22.3498 20.5 23.3575 19.4535 23.3575 18.1667ZM25.6043 18.1667C25.6043 20.7403 23.5889 22.8333 21.1107 22.8333C18.6324 22.8333 16.617 20.7403 16.617 18.1667C16.617 15.593 18.6324 13.5 21.1107 13.5C23.5889 13.5 25.6043 15.593 25.6043 18.1667ZM26.6603 27.5537C27.6365 26.7697 28.8386 26.3333 30.0979 26.3333C33.1952 26.3333 35.715 28.9502 35.715 32.1667C35.715 32.8107 35.2128 33.3333 34.5915 33.3333C33.9703 33.3333 33.4681 32.8107 33.4681 32.1667C33.4681 30.237 31.956 28.6667 30.0979 28.6667C29.3306 28.6667 28.6015 28.9397 28.0129 29.4238C28.624 30.5858 28.9745 31.9182 28.9745 33.3333C28.9745 33.9773 28.4724 34.5 27.8511 34.5C27.2299 34.5 26.7277 33.9773 26.7277 33.3333C26.7277 30.1168 24.2079 27.5 21.1107 27.5C18.0134 27.5 15.4936 30.1168 15.4936 33.3333C15.4936 33.9773 14.9915 34.5 14.3702 34.5C13.749 34.5 13.2468 33.9773 13.2468 33.3333C13.2468 28.83 16.7754 25.1667 21.1107 25.1667C23.2755 25.1667 25.2369 26.0802 26.6603 27.5537Z" fill="#231F20"/>
<mask id="mask0_12505_110239" style="mask-type:luminance" maskUnits="userSpaceOnUse" x="13" y="13" width="23" height="22">
<path fill-rule="evenodd" clip-rule="evenodd" d="M31.2213 21.6667C31.2213 21.0238 30.718 20.5 30.0979 20.5C29.4778 20.5 28.9745 21.0238 28.9745 21.6667C28.9745 22.3095 29.4778 22.8333 30.0979 22.8333C30.718 22.8333 31.2213 22.3095 31.2213 21.6667ZM33.4681 21.6667C33.4681 23.5963 31.956 25.1667 30.0979 25.1667C28.2398 25.1667 26.7277 23.5963 26.7277 21.6667C26.7277 19.737 28.2398 18.1667 30.0979 18.1667C31.956 18.1667 33.4681 19.737 33.4681 21.6667ZM23.3575 18.1667C23.3575 16.8798 22.3498 15.8333 21.1107 15.8333C19.8716 15.8333 18.8639 16.8798 18.8639 18.1667C18.8639 19.4535 19.8716 20.5 21.1107 20.5C22.3498 20.5 23.3575 19.4535 23.3575 18.1667ZM25.6043 18.1667C25.6043 20.7403 23.5889 22.8333 21.1107 22.8333C18.6324 22.8333 16.617 20.7403 16.617 18.1667C16.617 15.593 18.6324 13.5 21.1107 13.5C23.5889 13.5 25.6043 15.593 25.6043 18.1667ZM26.6603 27.5537C27.6365 26.7697 28.8386 26.3333 30.0979 26.3333C33.1952 26.3333 35.715 28.9502 35.715 32.1667C35.715 32.8107 35.2128 33.3333 34.5915 33.3333C33.9703 33.3333 33.4681 32.8107 33.4681 32.1667C33.4681 30.237 31.956 28.6667 30.0979 28.6667C29.3306 28.6667 28.6015 28.9397 28.0129 29.4238C28.624 30.5858 28.9745 31.9182 28.9745 33.3333C28.9745 33.9773 28.4724 34.5 27.8511 34.5C27.2299 34.5 26.7277 33.9773 26.7277 33.3333C26.7277 30.1168 24.2079 27.5 21.1107 27.5C18.0134 27.5 15.4936 30.1168 15.4936 33.3333C15.4936 33.9773 14.9915 34.5 14.3702 34.5C13.749 34.5 13.2468 33.9773 13.2468 33.3333C13.2468 28.83 16.7754 25.1667 21.1107 25.1667C23.2755 25.1667 25.2369 26.0802 26.6603 27.5537Z" fill="white"/>
</mask>
<g mask="url(#mask0_12505_110239)">
<rect x="11" y="10" width="26.9618" height="28" fill="#653EFF"/>
</g>
</svg>
