<svg width="17" height="17" viewBox="0 0 17 17" fill="none" xmlns="http://www.w3.org/2000/svg">
<rect x="0.0117188" y="0.0292969" width="16" height="16" rx="8" fill="#DADCFF"/>
<path fill-rule="evenodd" clip-rule="evenodd" d="M6.98314 11.0292C6.85026 11.0292 6.72315 10.9722 6.63215 10.8717L4.29082 8.28223C4.10834 8.08123 4.11845 7.76473 4.312 7.57573C4.50603 7.38673 4.81079 7.39673 4.9923 7.59773L6.97832 9.79323L11.0264 5.19223C11.2065 4.98773 11.5108 4.97423 11.7072 5.16023C11.9032 5.34623 11.9167 5.66273 11.7376 5.86623L7.33846 10.8662C7.24842 10.9692 7.12036 11.0282 6.98651 11.0292H6.98314Z" fill="#43479B"/>
<mask id="mask0_5411_127501" style="mask-type:luminance" maskUnits="userSpaceOnUse" x="4" y="5" width="8" height="7">
<path fill-rule="evenodd" clip-rule="evenodd" d="M6.98314 11.0292C6.85026 11.0292 6.72315 10.9722 6.63215 10.8717L4.29082 8.28223C4.10834 8.08123 4.11845 7.76473 4.312 7.57573C4.50603 7.38673 4.81079 7.39673 4.9923 7.59773L6.97832 9.79323L11.0264 5.19223C11.2065 4.98773 11.5108 4.97423 11.7072 5.16023C11.9032 5.34623 11.9167 5.66273 11.7376 5.86623L7.33846 10.8662C7.24842 10.9692 7.12036 11.0282 6.98651 11.0292H6.98314Z" fill="white"/>
</mask>
<g mask="url(#mask0_5411_127501)">
<rect x="2.23438" y="2.0293" width="11.555" height="12" fill="#43479B"/>
</g>
</svg>
