<svg width="112" height="24" viewBox="0 0 112 24" fill="none" xmlns="http://www.w3.org/2000/svg">
<g clip-path="url(#clip0_9970_19792)">
<g filter="url(#filter0_d_9970_19792)">
<path d="M112 0H1L10.4872 12L1 24H112V0Z" fill="url(#paint0_linear_9970_19792)"/>
<path d="M10.8794 12.3101L2.03268 23.5H111.5V0.5H2.03268L10.8794 11.6899L11.1246 12L10.8794 12.3101Z" stroke="#F04B7B"/>
</g>
<path d="M111 0H-3.57628e-07L9.48718 12L-3.57628e-07 24H111V0Z" fill="url(#paint1_linear_9970_19792)"/>
<path d="M18.407 12.161C18.407 11.413 18.5793 10.742 18.924 10.148C19.276 9.554 19.749 9.092 20.343 8.762C20.9443 8.42467 21.6007 8.256 22.312 8.256C23.126 8.256 23.8483 8.45767 24.479 8.861C25.117 9.257 25.579 9.82167 25.865 10.555H24.358C24.16 10.1517 23.885 9.851 23.533 9.653C23.181 9.455 22.774 9.356 22.312 9.356C21.806 9.356 21.355 9.46967 20.959 9.697C20.563 9.92433 20.2513 10.2507 20.024 10.676C19.804 11.1013 19.694 11.5963 19.694 12.161C19.694 12.7257 19.804 13.2207 20.024 13.646C20.2513 14.0713 20.563 14.4013 20.959 14.636C21.355 14.8633 21.806 14.977 22.312 14.977C22.774 14.977 23.181 14.878 23.533 14.68C23.885 14.482 24.16 14.1813 24.358 13.778H25.865C25.579 14.5113 25.117 15.076 24.479 15.472C23.8483 15.868 23.126 16.066 22.312 16.066C21.5933 16.066 20.937 15.901 20.343 15.571C19.749 15.2337 19.276 14.768 18.924 14.174C18.5793 13.58 18.407 12.909 18.407 12.161ZM30.8198 16.077C30.1085 16.077 29.4521 15.912 28.8508 15.582C28.2568 15.2447 27.7838 14.779 27.4318 14.185C27.0871 13.5837 26.9148 12.909 26.9148 12.161C26.9148 11.413 27.0871 10.742 27.4318 10.148C27.7838 9.554 28.2568 9.092 28.8508 8.762C29.4521 8.42467 30.1085 8.256 30.8198 8.256C31.5385 8.256 32.1948 8.42467 32.7888 8.762C33.3901 9.092 33.8631 9.554 34.2078 10.148C34.5525 10.742 34.7248 11.413 34.7248 12.161C34.7248 12.909 34.5525 13.5837 34.2078 14.185C33.8631 14.779 33.3901 15.2447 32.7888 15.582C32.1948 15.912 31.5385 16.077 30.8198 16.077ZM30.8198 14.988C31.3258 14.988 31.7768 14.8743 32.1728 14.647C32.5688 14.4123 32.8768 14.0823 33.0968 13.657C33.3241 13.2243 33.4378 12.7257 33.4378 12.161C33.4378 11.5963 33.3241 11.1013 33.0968 10.676C32.8768 10.2507 32.5688 9.92433 32.1728 9.697C31.7768 9.46967 31.3258 9.356 30.8198 9.356C30.3138 9.356 29.8628 9.46967 29.4668 9.697C29.0708 9.92433 28.7591 10.2507 28.5318 10.676C28.3118 11.1013 28.2018 11.5963 28.2018 12.161C28.2018 12.7257 28.3118 13.2243 28.5318 13.657C28.7591 14.0823 29.0708 14.4123 29.4668 14.647C29.8628 14.8743 30.3138 14.988 30.8198 14.988ZM44.0108 8.355V16H42.7568V10.764L40.4248 16H39.5558L37.2128 10.764V16H35.9588V8.355H37.3118L39.9958 14.35L42.6688 8.355H44.0108ZM46.913 8.355V16H45.659V8.355H46.913ZM54.8404 16H53.5864L49.8134 10.291V16H48.5594V8.344H49.8134L53.5864 14.042V8.344H54.8404V16ZM62.0201 10.555C61.8221 10.1737 61.5471 9.88767 61.1951 9.697C60.8431 9.499 60.4361 9.4 59.9741 9.4C59.4681 9.4 59.0171 9.51367 58.6211 9.741C58.2251 9.96833 57.9134 10.291 57.6861 10.709C57.4661 11.127 57.3561 11.611 57.3561 12.161C57.3561 12.711 57.4661 13.1987 57.6861 13.624C57.9134 14.042 58.2251 14.3647 58.6211 14.592C59.0171 14.8193 59.4681 14.933 59.9741 14.933C60.6561 14.933 61.2098 14.7423 61.6351 14.361C62.0604 13.9797 62.3208 13.4627 62.4161 12.81H59.5451V11.809H63.7581V12.788C63.6774 13.382 63.4648 13.9283 63.1201 14.427C62.7828 14.9257 62.3391 15.3253 61.7891 15.626C61.2464 15.9193 60.6414 16.066 59.9741 16.066C59.2554 16.066 58.5991 15.901 58.0051 15.571C57.4111 15.2337 56.9381 14.768 56.5861 14.174C56.2414 13.58 56.0691 12.909 56.0691 12.161C56.0691 11.413 56.2414 10.742 56.5861 10.148C56.9381 9.554 57.4111 9.092 58.0051 8.762C58.6064 8.42467 59.2628 8.256 59.9741 8.256C60.7881 8.256 61.5104 8.45767 62.1411 8.861C62.7791 9.257 63.2411 9.82167 63.5271 10.555H62.0201ZM70.3713 16.077C69.858 16.077 69.396 15.989 68.9853 15.813C68.5747 15.6297 68.252 15.373 68.0173 15.043C67.7827 14.713 67.6653 14.328 67.6653 13.888H69.0073C69.0367 14.218 69.165 14.4893 69.3923 14.702C69.627 14.9147 69.9533 15.021 70.3713 15.021C70.804 15.021 71.1413 14.9183 71.3833 14.713C71.6253 14.5003 71.7463 14.229 71.7463 13.899C71.7463 13.6423 71.6693 13.4333 71.5153 13.272C71.3687 13.1107 71.1817 12.986 70.9543 12.898C70.7343 12.81 70.4263 12.7147 70.0303 12.612C69.5317 12.48 69.1247 12.348 68.8093 12.216C68.5013 12.0767 68.2373 11.864 68.0173 11.578C67.7973 11.292 67.6873 10.9107 67.6873 10.434C67.6873 9.994 67.7973 9.609 68.0173 9.279C68.2373 8.949 68.5453 8.696 68.9413 8.52C69.3373 8.344 69.7957 8.256 70.3163 8.256C71.057 8.256 71.662 8.443 72.1313 8.817C72.608 9.18367 72.872 9.68967 72.9233 10.335H71.5373C71.5153 10.0563 71.3833 9.818 71.1413 9.62C70.8993 9.422 70.5803 9.323 70.1843 9.323C69.825 9.323 69.5317 9.41467 69.3043 9.598C69.077 9.78133 68.9633 10.0453 68.9633 10.39C68.9633 10.6247 69.033 10.819 69.1723 10.973C69.319 11.1197 69.5023 11.237 69.7223 11.325C69.9423 11.413 70.243 11.5083 70.6243 11.611C71.1303 11.7503 71.541 11.8897 71.8563 12.029C72.179 12.1683 72.4503 12.3847 72.6703 12.678C72.8977 12.964 73.0113 13.349 73.0113 13.833C73.0113 14.2217 72.905 14.5883 72.6923 14.933C72.487 15.2777 72.1827 15.5563 71.7793 15.769C71.3833 15.9743 70.914 16.077 70.3713 16.077ZM77.978 16.077C77.2667 16.077 76.6103 15.912 76.009 15.582C75.415 15.2447 74.942 14.779 74.59 14.185C74.2453 13.5837 74.073 12.909 74.073 12.161C74.073 11.413 74.2453 10.742 74.59 10.148C74.942 9.554 75.415 9.092 76.009 8.762C76.6103 8.42467 77.2667 8.256 77.978 8.256C78.6967 8.256 79.353 8.42467 79.947 8.762C80.5483 9.092 81.0213 9.554 81.366 10.148C81.7107 10.742 81.883 11.413 81.883 12.161C81.883 12.909 81.7107 13.5837 81.366 14.185C81.0213 14.779 80.5483 15.2447 79.947 15.582C79.353 15.912 78.6967 16.077 77.978 16.077ZM77.978 14.988C78.484 14.988 78.935 14.8743 79.331 14.647C79.727 14.4123 80.035 14.0823 80.255 13.657C80.4823 13.2243 80.596 12.7257 80.596 12.161C80.596 11.5963 80.4823 11.1013 80.255 10.676C80.035 10.2507 79.727 9.92433 79.331 9.697C78.935 9.46967 78.484 9.356 77.978 9.356C77.472 9.356 77.021 9.46967 76.625 9.697C76.229 9.92433 75.9173 10.2507 75.69 10.676C75.47 11.1013 75.36 11.5963 75.36 12.161C75.36 12.7257 75.47 13.2243 75.69 13.657C75.9173 14.0823 76.229 14.4123 76.625 14.647C77.021 14.8743 77.472 14.988 77.978 14.988ZM86.604 16.077C85.8927 16.077 85.2363 15.912 84.635 15.582C84.041 15.2447 83.568 14.779 83.216 14.185C82.8713 13.5837 82.699 12.909 82.699 12.161C82.699 11.413 82.8713 10.742 83.216 10.148C83.568 9.554 84.041 9.092 84.635 8.762C85.2363 8.42467 85.8927 8.256 86.604 8.256C87.3227 8.256 87.979 8.42467 88.573 8.762C89.1743 9.092 89.6473 9.554 89.992 10.148C90.3367 10.742 90.509 11.413 90.509 12.161C90.509 12.909 90.3367 13.5837 89.992 14.185C89.6473 14.779 89.1743 15.2447 88.573 15.582C87.979 15.912 87.3227 16.077 86.604 16.077ZM86.604 14.988C87.11 14.988 87.561 14.8743 87.957 14.647C88.353 14.4123 88.661 14.0823 88.881 13.657C89.1083 13.2243 89.222 12.7257 89.222 12.161C89.222 11.5963 89.1083 11.1013 88.881 10.676C88.661 10.2507 88.353 9.92433 87.957 9.697C87.561 9.46967 87.11 9.356 86.604 9.356C86.098 9.356 85.647 9.46967 85.251 9.697C84.855 9.92433 84.5433 10.2507 84.316 10.676C84.096 11.1013 83.986 11.5963 83.986 12.161C83.986 12.7257 84.096 13.2243 84.316 13.657C84.5433 14.0823 84.855 14.4123 85.251 14.647C85.647 14.8743 86.098 14.988 86.604 14.988ZM98.024 16H96.77L92.997 10.291V16H91.743V8.344H92.997L96.77 14.042V8.344H98.024V16Z" fill="white"/>
</g>
<defs>
<filter id="filter0_d_9970_19792" x="-49" y="-25" width="211" height="124" filterUnits="userSpaceOnUse" color-interpolation-filters="sRGB">
<feFlood flood-opacity="0" result="BackgroundImageFix"/>
<feColorMatrix in="SourceAlpha" type="matrix" values="0 0 0 0 0 0 0 0 0 0 0 0 0 0 0 0 0 0 127 0" result="hardAlpha"/>
<feOffset dy="25"/>
<feGaussianBlur stdDeviation="25"/>
<feColorMatrix type="matrix" values="0 0 0 0 0.611765 0 0 0 0 0.65098 0 0 0 0 0.792157 0 0 0 0.4 0"/>
<feBlend mode="normal" in2="BackgroundImageFix" result="effect1_dropShadow_9970_19792"/>
<feBlend mode="normal" in="SourceGraphic" in2="effect1_dropShadow_9970_19792" result="shape"/>
</filter>
<linearGradient id="paint0_linear_9970_19792" x1="112" y1="0" x2="7.50001" y2="29.5" gradientUnits="userSpaceOnUse">
<stop stop-color="#EF4375"/>
<stop offset="0.360526" stop-color="#F66C94" stop-opacity="0.8"/>
<stop offset="0.761139" stop-color="#FF9AB7"/>
<stop offset="1" stop-color="#F1507F" stop-opacity="0.4"/>
</linearGradient>
<linearGradient id="paint1_linear_9970_19792" x1="111" y1="0" x2="6.50001" y2="29.5" gradientUnits="userSpaceOnUse">
<stop stop-color="#EF4375"/>
<stop offset="0.360526" stop-color="#F66C94" stop-opacity="0.8"/>
<stop offset="0.761139" stop-color="#FF9AB7"/>
<stop offset="1" stop-color="#F1507F" stop-opacity="0.4"/>
</linearGradient>
<clipPath id="clip0_9970_19792">
<rect width="112" height="24" fill="white"/>
</clipPath>
</defs>
</svg>
