<svg width="57" height="56" viewBox="0 0 57 56" fill="none" xmlns="http://www.w3.org/2000/svg">
<rect x="4.5" y="4" width="48" height="48" rx="24" fill="#FFD5CC"/>
<rect x="4.5" y="4" width="48" height="48" rx="24" stroke="#FFEEEA" stroke-width="8"/>
<g clip-path="url(#clip0_21_4029)">
<path d="M28.5 33.833H22.6667C22.2246 33.833 21.8007 33.6574 21.4882 33.3449C21.1756 33.0323 21 32.6084 21 32.1663V22.9997C21 22.5576 21.1756 22.1337 21.4882 21.8212C21.8007 21.5086 22.2246 21.333 22.6667 21.333H26L28.5 23.833H34.3333C34.7754 23.833 35.1993 24.0086 35.5118 24.3212C35.8244 24.6337 36 25.0576 36 25.4997V28.4163" stroke="black" stroke-width="1.5" stroke-linecap="round" stroke-linejoin="round"/>
<path d="M31.8281 33.833H36.8281" stroke="black" stroke-width="1.5" stroke-linecap="round" stroke-linejoin="round"/>
<path d="M34.3281 31.333V36.333" stroke="black" stroke-width="1.5" stroke-linecap="round" stroke-linejoin="round"/>
</g>
<defs>
<clipPath id="clip0_21_4029">
<rect width="20" height="20" fill="white" transform="translate(18.5 18)"/>
</clipPath>
</defs>
</svg>
