<svg width="18" height="18" viewBox="0 0 18 18" fill="none" xmlns="http://www.w3.org/2000/svg">
<path fill-rule="evenodd" clip-rule="evenodd" d="M14.7603 12.5398L9.00033 15.8468L3.24033 12.5398L4.93433 11.8188L8.50233 13.8668C8.65633 13.9558 8.82833 13.9998 9.00033 13.9998C9.17233 13.9998 9.34333 13.9558 9.49833 13.8668L13.0663 11.8178L14.7603 12.5398ZM8.50233 9.86676C8.65633 9.95576 8.82833 9.99976 9.00033 9.99976C9.17233 9.99976 9.34333 9.95576 9.49833 9.86676L13.0663 7.81776L14.7603 8.53976L9.00033 11.8468L3.24033 8.53976L4.93433 7.81776L8.50233 9.86676ZM9.00033 2.08676L14.7603 4.53976L9.00033 7.84676L3.24033 4.53976L9.00033 2.08676ZM17.9983 8.34776C17.9753 7.96876 17.7403 7.63576 17.3913 7.48676L15.2393 6.57076L17.4983 5.27376C17.8273 5.08576 18.0203 4.72676 17.9983 4.34776C17.9753 3.96976 17.7403 3.63576 17.3913 3.48676L9.39133 0.0797617C9.14133 -0.0272383 8.85833 -0.0272383 8.60833 0.0797617L0.608329 3.48676C0.259329 3.63576 0.024329 3.96976 0.00232901 4.34776C-0.020671 4.72676 0.173329 5.08576 0.502329 5.27376L2.76033 6.57076L0.608329 7.48676C0.259329 7.63576 0.024329 7.96876 0.00232901 8.34776C-0.020671 8.72676 0.173329 9.08576 0.502329 9.27376L2.76033 10.5708L0.608329 11.4868C0.259329 11.6358 0.024329 11.9688 0.00232901 12.3478C-0.020671 12.7268 0.173329 13.0858 0.502329 13.2738L8.50233 17.8668C8.65633 17.9558 8.82833 17.9998 9.00033 17.9998C9.17233 17.9998 9.34333 17.9558 9.49833 17.8668L17.4983 13.2738C17.8273 13.0858 18.0203 12.7268 17.9983 12.3478C17.9753 11.9698 17.7403 11.6358 17.3923 11.4868L15.2403 10.5698L17.4983 9.27376C17.8273 9.08576 18.0203 8.72676 17.9983 8.34776V8.34776Z" fill="#9999A0"/>
</svg>
