<svg width="21" height="18" viewBox="0 0 21 18" fill="#9999A0" xmlns="http://www.w3.org/2000/svg">
<path fill-rule="evenodd" clip-rule="evenodd" d="M18.2583 11C18.2583 11.551 17.8269 12 17.2954 12H10.6388H10.4712H3.81454C3.28301 12 2.85162 11.551 2.85162 11V3C2.85162 2.449 3.28301 2 3.81454 2H17.2954C17.8269 2 18.2583 2.449 18.2583 3V11ZM17.2954 0H3.81454C2.22187 0 0.925781 1.346 0.925781 3V11C0.925781 12.654 2.22187 14 3.81454 14H9.59206V16H5.74038C5.21077 16 4.77746 16.45 4.77746 17C4.77746 17.55 5.21077 18 5.74038 18H15.3696C15.8992 18 16.3325 17.55 16.3325 17C16.3325 16.45 15.8992 16 15.3696 16H11.5179V14H17.2954C18.8881 14 20.1842 12.654 20.1842 11V3C20.1842 1.346 18.8881 0 17.2954 0V0Z" fill="#9999A0"/>
</svg>
