<svg width="20" height="20" viewBox="0 0 20 20" fill="none" xmlns="http://www.w3.org/2000/svg">
<path fill-rule="evenodd" clip-rule="evenodd" d="M6.55576 14C6.24976 14 5.99976 13.751 5.99976 13.444V6H13.4448C13.7508 6 13.9998 6.249 13.9998 6.556V14H6.55576ZM18.9998 14H15.9998V6.556C15.9998 5.146 14.8538 4 13.4448 4H5.99976V1C5.99976 0.447 5.55276 0 4.99976 0C4.44776 0 3.99976 0.447 3.99976 1V4H0.999756C0.447756 4 -0.000244141 4.447 -0.000244141 5C-0.000244141 5.553 0.447756 6 0.999756 6H3.99976V13.444C3.99976 14.854 5.14676 16 6.55576 16H13.9998V19C13.9998 19.553 14.4478 20 14.9998 20C15.5528 20 15.9998 19.553 15.9998 19V16H18.9998C19.5528 16 19.9998 15.553 19.9998 15C19.9998 14.447 19.5528 14 18.9998 14V14Z" fill="#9999A0"/>
</svg>
