<svg width="24" height="24" viewBox="0 0 24 24" fill="none" xmlns="http://www.w3.org/2000/svg">
<path fill-rule="evenodd" clip-rule="evenodd" d="M7.5 3.75L8.25 3H11.25L12 3.75V20.25L11.25 21H8.25L7.5 20.25V3.75ZM9 4.5V19.5H10.5V4.5H9ZM13.7565 5.0175L14.205 4.056L17.025 3.03L17.985 3.4785L23.628 18.9825L23.1795 19.944L20.361 20.97L19.401 20.5215L13.7565 5.0175ZM15.4215 5.2095L20.5515 19.3035L21.9615 18.792L16.8315 4.6965L15.4215 5.2095ZM1.5 3.75L2.25 3H5.25L6 3.75V20.25L5.25 21H2.25L1.5 20.25V3.75ZM3 4.5V19.5H4.5V4.5H3Z" fill="#9999A0"/>
</svg>
