<svg width="20" height="20" viewBox="0 0 20 20" fill="none" xmlns="http://www.w3.org/2000/svg">
<path d="M17.7086 3.14967C18.4848 3.64255 19.0001 4.51114 19.0001 5.5001V14.5001C19.0001 16.9854 16.9854 19.0001 14.5001 19.0001H5.5001C4.51114 19.0001 3.64255 18.4848 3.14821 17.708L3.25291 17.7129L3.35725 17.7144H14.5001C16.2753 17.7144 17.7144 16.2753 17.7144 14.5001V3.35725C17.7144 3.28758 17.7124 3.21837 17.7086 3.14967ZM14.0715 0.571533C15.61 0.571533 16.8572 1.81874 16.8572 3.35725V14.0715C16.8572 15.61 15.61 16.8572 14.0715 16.8572H3.35725C1.81874 16.8572 0.571533 15.61 0.571533 14.0715V3.35725C0.571533 1.81874 1.81874 0.571533 3.35725 0.571533H14.0715ZM14.57 15.4867L9.16403 10.1913C8.93682 9.96882 8.58577 9.94859 8.33605 10.1307L8.26439 10.1913L2.85878 15.4867C3.01473 15.5417 3.1825 15.5715 3.35725 15.5715H14.0715C14.2463 15.5715 14.414 15.5417 14.57 15.4867ZM14.0715 1.85725H3.35725C2.52882 1.85725 1.85725 2.52882 1.85725 3.35725V14.0715C1.85725 14.2498 1.88836 14.4209 1.94545 14.5795L7.36476 9.2728C8.07883 8.57343 9.20068 8.54013 9.95359 9.17289L10.0637 9.2728L15.483 14.5804C15.5403 14.4215 15.5715 14.2502 15.5715 14.0715V3.35725C15.5715 2.52882 14.9 1.85725 14.0715 1.85725ZM11.7148 4.64396C12.3062 4.64396 12.7856 5.12338 12.7856 5.71477C12.7856 6.30617 12.3062 6.78559 11.7148 6.78559C11.1234 6.78559 10.644 6.30617 10.644 5.71477C10.644 5.12338 11.1234 4.64396 11.7148 4.64396Z" fill="#9999A0" stroke="#9999A0" stroke-width="0.4" stroke-linejoin="round"/>
</svg>
