<svg width="24" height="24" viewBox="0 0 24 24" fill="none" xmlns="http://www.w3.org/2000/svg">
<g clip-path="url(#clip0_9994_19809)">
<path d="M24 9.75V23.25C24 23.4489 23.921 23.6397 23.7803 23.7803C23.6397 23.921 23.4489 24 23.25 24H12.75C12.5511 24 12.3603 23.921 12.2197 23.7803C12.079 23.6397 12 23.4489 12 23.25V21.75C12 21.5511 12.079 21.3603 12.2197 21.2197C12.3603 21.079 12.5511 21 12.75 21C12.9489 21 13.1397 21.079 13.2803 21.2197C13.421 21.3603 13.5 21.5511 13.5 21.75V22.5H22.5V10.5H20.25C20.0511 10.5 19.8603 10.421 19.7197 10.2803C19.579 10.1397 19.5 9.94891 19.5 9.75C19.5 9.55109 19.579 9.36032 19.7197 9.21967C19.8603 9.07902 20.0511 9 20.25 9H23.25C23.4489 9 23.6397 9.07902 23.7803 9.21967C23.921 9.36032 24 9.55109 24 9.75ZM20.25 19.5C20.4489 19.5 20.6397 19.421 20.7803 19.2803C20.921 19.1397 21 18.9489 21 18.75C21 18.5511 20.921 18.3603 20.7803 18.2197C20.6397 18.079 20.4489 18 20.25 18H18V16.5H20.25C20.4489 16.5 20.6397 16.421 20.7803 16.2803C20.921 16.1397 21 15.9489 21 15.75C21 15.5511 20.921 15.3603 20.7803 15.2197C20.6397 15.079 20.4489 15 20.25 15H18V13.5H20.25C20.4489 13.5 20.6397 13.421 20.7803 13.2803C20.921 13.1397 21 12.9489 21 12.75C21 12.5511 20.921 12.3603 20.7803 12.2197C20.6397 12.079 20.4489 12 20.25 12H18V5.25C18 5.05109 17.921 4.86032 17.7803 4.71967C17.6397 4.57902 17.4489 4.5 17.25 4.5H14.25C14.0511 4.5 13.8603 4.57902 13.7197 4.71967C13.579 4.86032 13.5 5.05109 13.5 5.25C13.5 5.44891 13.579 5.63968 13.7197 5.78033C13.8603 5.92098 14.0511 6 14.25 6H16.5V18H7.5V17.25C7.5 17.0511 7.42098 16.8603 7.28033 16.7197C7.13968 16.579 6.94891 16.5 6.75 16.5C6.55109 16.5 6.36032 16.579 6.21967 16.7197C6.07902 16.8603 6 17.0511 6 17.25V18.75C6 18.9489 6.07902 19.1397 6.21967 19.2803C6.36032 19.421 6.55109 19.5 6.75 19.5H20.25ZM11.25 15H0.75C0.551088 15 0.360322 14.921 0.219669 14.7803C0.0790171 14.6397 0 14.4489 0 14.25V0.75C0 0.551088 0.0790171 0.360322 0.219669 0.21967C0.360322 0.0790176 0.551088 0 0.75 0L11.25 0C11.4489 0 11.6397 0.0790176 11.7803 0.21967C11.921 0.360322 12 0.551088 12 0.75V7.5H14.25C14.4489 7.5 14.6397 7.57902 14.7803 7.71967C14.921 7.86032 15 8.05109 15 8.25C15 8.44891 14.921 8.63968 14.7803 8.78033C14.6397 8.92098 14.4489 9 14.25 9H12V10.5H14.25C14.4489 10.5 14.6397 10.579 14.7803 10.7197C14.921 10.8603 15 11.0511 15 11.25C15 11.4489 14.921 11.6397 14.7803 11.7803C14.6397 11.921 14.4489 12 14.25 12H12V13.5H14.25C14.4489 13.5 14.6397 13.579 14.7803 13.7197C14.921 13.8603 15 14.0511 15 14.25C15 14.4489 14.921 14.6397 14.7803 14.7803C14.6397 14.921 14.4489 15 14.25 15H11.25ZM1.5 13.5H10.5V1.5H1.5V13.5ZM8.25 9H3.75C3.55109 9 3.36032 9.07902 3.21967 9.21967C3.07902 9.36032 3 9.55109 3 9.75C3 9.94891 3.07902 10.1397 3.21967 10.2803C3.36032 10.421 3.55109 10.5 3.75 10.5H8.25C8.44891 10.5 8.63968 10.421 8.78033 10.2803C8.92098 10.1397 9 9.94891 9 9.75C9 9.55109 8.92098 9.36032 8.78033 9.21967C8.63968 9.07902 8.44891 9 8.25 9ZM8.25 6H3.75C3.55109 6 3.36032 6.07902 3.21967 6.21967C3.07902 6.36032 3 6.55109 3 6.75C3 6.94891 3.07902 7.13968 3.21967 7.28033C3.36032 7.42098 3.55109 7.5 3.75 7.5H8.25C8.44891 7.5 8.63968 7.42098 8.78033 7.28033C8.92098 7.13968 9 6.94891 9 6.75C9 6.55109 8.92098 6.36032 8.78033 6.21967C8.63968 6.07902 8.44891 6 8.25 6ZM8.25 3H3.75C3.55109 3 3.36032 3.07902 3.21967 3.21967C3.07902 3.36032 3 3.55109 3 3.75C3 3.94891 3.07902 4.13968 3.21967 4.28033C3.36032 4.42098 3.55109 4.5 3.75 4.5H8.25C8.44891 4.5 8.63968 4.42098 8.78033 4.28033C8.92098 4.13968 9 3.94891 9 3.75C9 3.55109 8.92098 3.36032 8.78033 3.21967C8.63968 3.07902 8.44891 3 8.25 3Z" fill="#9999A0"/>
</g>
<defs>
<clipPath id="clip0_9994_19809">
<rect width="24" height="24" fill="white"/>
</clipPath>
</defs>
</svg>
