<svg width="24" height="24" viewBox="0 0 24 24" fill="none" xmlns="http://www.w3.org/2000/svg">
<path d="M6 20.25H20.25C21.075 20.25 21.75 19.575 21.75 18.75V8.25C21.75 7.425 21.075 6.75 20.25 6.75H13.125" stroke="#9999A0" stroke-width="1.7" stroke-miterlimit="10" stroke-linecap="round" stroke-linejoin="round"/>
<path d="M21.375 19.725L13.125 6.75L11.25 3.75H9.375H3.75C2.925 3.75 2.25 4.425 2.25 5.25V16.5" stroke="#9999A0" stroke-width="1.7" stroke-miterlimit="10" stroke-linecap="round" stroke-linejoin="round"/>
<path d="M6.7499 19.5L5.6249 20.625C4.5749 21.675 2.9249 21.675 1.8749 20.625C0.824902 19.575 0.824902 17.925 1.8749 16.875L2.9999 15.75" stroke="#9999A0" stroke-width="1.7" stroke-miterlimit="10" stroke-linecap="round" stroke-linejoin="round"/>
<path d="M4.5 14.2499L5.625 13.1249C6.675 12.0749 8.325 12.0749 9.375 13.1249C10.425 14.1749 10.425 15.8249 9.375 16.8749L8.25 17.9999" stroke="#9999A0" stroke-width="1.7" stroke-miterlimit="10" stroke-linecap="round" stroke-linejoin="round"/>
<path d="M4.5 18L6.75 15.75" stroke="#9999A0" stroke-width="1.7" stroke-miterlimit="10" stroke-linecap="round" stroke-linejoin="round"/>
</svg>
