<svg width="20" height="20" viewBox="0 0 20 20" fill="none" xmlns="http://www.w3.org/2000/svg">
<path fill-rule="evenodd" clip-rule="evenodd" d="M2.5 3.33333C2.5 2.8731 2.8731 2.5 3.33333 2.5H6.66667C7.1269 2.5 7.5 2.8731 7.5 3.33333C7.5 3.79357 7.1269 4.16667 6.66667 4.16667H5.34517L8.08926 6.91074C8.41467 7.23618 8.41467 7.76382 8.08926 8.08926C7.76382 8.41467 7.23618 8.41467 6.91074 8.08926L4.16667 5.34517V6.66667C4.16667 7.1269 3.79357 7.5 3.33333 7.5C2.8731 7.5 2.5 7.1269 2.5 6.66667V3.33333ZM13.3333 2.5H16.6667C17.1269 2.5 17.5 2.8731 17.5 3.33333V6.66667C17.5 7.1269 17.1269 7.5 16.6667 7.5C16.2064 7.5 15.8333 7.1269 15.8333 6.66667V5.34517L13.0892 8.08926C12.7638 8.41467 12.2362 8.41467 11.9107 8.08926C11.5853 7.76382 11.5853 7.23618 11.9107 6.91074L14.6548 4.16667H13.3333C12.8731 4.16667 12.5 3.79357 12.5 3.33333C12.5 2.8731 12.8731 2.5 13.3333 2.5ZM8.08926 11.9107C8.41467 12.2362 8.41467 12.7638 8.08926 13.0892L5.34517 15.8333H6.66667C7.1269 15.8333 7.5 16.2064 7.5 16.6667C7.5 17.1269 7.1269 17.5 6.66667 17.5H3.33333C2.8731 17.5 2.5 17.1269 2.5 16.6667V13.3333C2.5 12.8731 2.8731 12.5 3.33333 12.5C3.79357 12.5 4.16667 12.8731 4.16667 13.3333V14.6548L6.91074 11.9107C7.23618 11.5853 7.76382 11.5853 8.08926 11.9107ZM11.9107 11.9107C12.2362 11.5853 12.7638 11.5853 13.0892 11.9107L15.8333 14.6548V13.3333C15.8333 12.8731 16.2064 12.5 16.6667 12.5C17.1269 12.5 17.5 12.8731 17.5 13.3333V16.6667C17.5 17.1269 17.1269 17.5 16.6667 17.5H13.3333C12.8731 17.5 12.5 17.1269 12.5 16.6667C12.5 16.2064 12.8731 15.8333 13.3333 15.8333H14.6548L11.9107 13.0892C11.5853 12.7638 11.5853 12.2362 11.9107 11.9107Z" fill="white"/>
</svg>
