<svg width="20" height="20" viewBox="0 0 20 20" fill="none" xmlns="http://www.w3.org/2000/svg">
<path fill-rule="evenodd" clip-rule="evenodd" d="M19.0259 2.8544L13.0579 10.0157L18.8112 17.1651C19.2726 17.7384 19.1819 18.5771 18.6086 19.0397C18.3619 19.2384 18.0659 19.3344 17.7726 19.3344C17.3832 19.3344 16.9966 19.1637 16.7326 18.8371L10.2952 10.8371C9.89789 10.3424 9.90322 9.6344 10.3099 9.14773L16.9766 1.14773C17.4486 0.581064 18.2886 0.506397 18.8552 0.977064C19.4206 1.44773 19.4966 2.28906 19.0259 2.8544ZM7.64402 1.14732C8.11469 0.581989 8.95469 0.505989 9.52135 0.976655C10.0867 1.44866 10.1627 2.28866 9.69202 2.85399L3.72402 10.0153L9.47736 17.1647C9.93869 17.738 9.84802 18.578 9.27469 19.0393C9.02802 19.238 8.73335 19.334 8.43869 19.334C8.04935 19.334 7.66269 19.1647 7.40002 18.8367L0.962688 10.8367C0.564022 10.342 0.570688 9.63532 0.977355 9.14732L7.64402 1.14732Z" fill="#231F20"/>
</svg>
