<svg width="20" height="20" viewBox="0 0 20 20" fill="none" xmlns="http://www.w3.org/2000/svg">
<path fill-rule="evenodd" clip-rule="evenodd" d="M14.1654 8.33268C14.1654 7.87268 13.792 7.49935 13.332 7.49935C12.872 7.49935 12.4987 7.87268 12.4987 8.33268C12.4987 8.79268 12.872 9.16602 13.332 9.16602C13.792 9.16602 14.1654 8.79268 14.1654 8.33268ZM9.9987 7.49935C10.4587 7.49935 10.832 7.87268 10.832 8.33268C10.832 8.79268 10.4587 9.16602 9.9987 9.16602C9.5387 9.16602 9.16537 8.79268 9.16537 8.33268C9.16537 7.87268 9.5387 7.49935 9.9987 7.49935ZM6.66537 7.49935C7.12537 7.49935 7.4987 7.87268 7.4987 8.33268C7.4987 8.79268 7.12537 9.16602 6.66537 9.16602C6.20537 9.16602 5.83203 8.79268 5.83203 8.33268C5.83203 7.87268 6.20537 7.49935 6.66537 7.49935ZM3.33203 12.4993C3.33203 12.9585 3.7062 13.3327 4.16536 13.3327H12.8704C13.3229 13.3327 13.7679 13.456 14.157 13.6893L16.6654 15.1943V4.16602C16.6654 3.70685 16.2912 3.33268 15.832 3.33268H4.16536C3.7062 3.33268 3.33203 3.70685 3.33203 4.16602V12.4993ZM4.16536 1.66602H15.832C17.2104 1.66602 18.332 2.78768 18.332 4.16602V16.666C18.332 16.966 18.1704 17.2435 17.9095 17.391C17.782 17.4635 17.6404 17.4993 17.4987 17.4993C17.3504 17.4993 17.202 17.4602 17.0695 17.3802L13.2995 15.1185C13.1695 15.0402 13.0212 14.9993 12.8704 14.9993H4.16536C2.78703 14.9993 1.66536 13.8777 1.66536 12.4993V4.16602C1.66536 2.78768 2.78703 1.66602 4.16536 1.66602Z" fill="#231F20"/>
<mask id="mask0_5093_157935" style="mask-type:luminance" maskUnits="userSpaceOnUse" x="1" y="1" width="18" height="17">
<path fill-rule="evenodd" clip-rule="evenodd" d="M14.1654 8.33268C14.1654 7.87268 13.792 7.49935 13.332 7.49935C12.872 7.49935 12.4987 7.87268 12.4987 8.33268C12.4987 8.79268 12.872 9.16602 13.332 9.16602C13.792 9.16602 14.1654 8.79268 14.1654 8.33268ZM9.9987 7.49935C10.4587 7.49935 10.832 7.87268 10.832 8.33268C10.832 8.79268 10.4587 9.16602 9.9987 9.16602C9.5387 9.16602 9.16537 8.79268 9.16537 8.33268C9.16537 7.87268 9.5387 7.49935 9.9987 7.49935ZM6.66537 7.49935C7.12537 7.49935 7.4987 7.87268 7.4987 8.33268C7.4987 8.79268 7.12537 9.16602 6.66537 9.16602C6.20537 9.16602 5.83203 8.79268 5.83203 8.33268C5.83203 7.87268 6.20537 7.49935 6.66537 7.49935ZM3.33203 12.4993C3.33203 12.9585 3.7062 13.3327 4.16536 13.3327H12.8704C13.3229 13.3327 13.7679 13.456 14.157 13.6893L16.6654 15.1943V4.16602C16.6654 3.70685 16.2912 3.33268 15.832 3.33268H4.16536C3.7062 3.33268 3.33203 3.70685 3.33203 4.16602V12.4993ZM4.16536 1.66602H15.832C17.2104 1.66602 18.332 2.78768 18.332 4.16602V16.666C18.332 16.966 18.1704 17.2435 17.9095 17.391C17.782 17.4635 17.6404 17.4993 17.4987 17.4993C17.3504 17.4993 17.202 17.4602 17.0695 17.3802L13.2995 15.1185C13.1695 15.0402 13.0212 14.9993 12.8704 14.9993H4.16536C2.78703 14.9993 1.66536 13.8777 1.66536 12.4993V4.16602C1.66536 2.78768 2.78703 1.66602 4.16536 1.66602Z" fill="white"/>
</mask>
<g mask="url(#mask0_5093_157935)">
<rect width="20" height="20" transform="matrix(-1 0 0 1 20 0)" fill="white"/>
</g>
</svg>
