<svg width="20" height="20" viewBox="0 0 20 20" fill="none" xmlns="http://www.w3.org/2000/svg">
<g clip-path="url(#clip0_5099_159593)">
<path d="M9.16406 9.99935C9.16406 10.2204 9.25186 10.4323 9.40814 10.5886C9.56442 10.7449 9.77638 10.8327 9.9974 10.8327C10.2184 10.8327 10.4304 10.7449 10.5867 10.5886C10.7429 10.4323 10.8307 10.2204 10.8307 9.99935C10.8307 9.77834 10.7429 9.56637 10.5867 9.41009C10.4304 9.25381 10.2184 9.16602 9.9974 9.16602C9.77638 9.16602 9.56442 9.25381 9.40814 9.41009C9.25186 9.56637 9.16406 9.77834 9.16406 9.99935Z" stroke="black" stroke-width="1.66667" stroke-linecap="round" stroke-linejoin="round"/>
<path d="M9.16406 15.8333C9.16406 16.0543 9.25186 16.2663 9.40814 16.4226C9.56442 16.5789 9.77638 16.6667 9.9974 16.6667C10.2184 16.6667 10.4304 16.5789 10.5867 16.4226C10.7429 16.2663 10.8307 16.0543 10.8307 15.8333C10.8307 15.6123 10.7429 15.4004 10.5867 15.2441C10.4304 15.0878 10.2184 15 9.9974 15C9.77638 15 9.56442 15.0878 9.40814 15.2441C9.25186 15.4004 9.16406 15.6123 9.16406 15.8333Z" stroke="black" stroke-width="1.66667" stroke-linecap="round" stroke-linejoin="round"/>
<path d="M9.16406 4.16732C9.16406 4.38833 9.25186 4.60029 9.40814 4.75657C9.56442 4.91285 9.77638 5.00065 9.9974 5.00065C10.2184 5.00065 10.4304 4.91285 10.5867 4.75657C10.7429 4.60029 10.8307 4.38833 10.8307 4.16732C10.8307 3.9463 10.7429 3.73434 10.5867 3.57806C10.4304 3.42178 10.2184 3.33398 9.9974 3.33398C9.77638 3.33398 9.56442 3.42178 9.40814 3.57806C9.25186 3.73434 9.16406 3.9463 9.16406 4.16732Z" stroke="black" stroke-width="1.66667" stroke-linecap="round" stroke-linejoin="round"/>
</g>
<defs>
<clipPath id="clip0_5099_159593">
<rect width="20" height="20" fill="white"/>
</clipPath>
</defs>
</svg>
