<svg width="19" height="19" viewBox="0 0 19 19" fill="none" xmlns="http://www.w3.org/2000/svg">
<path fill-rule="evenodd" clip-rule="evenodd" d="M0.310049 16.4776L6.27805 9.3163L0.524717 2.16697C0.0633831 1.59363 0.154051 0.754967 0.727383 0.292301C0.974051 0.0936337 1.27005 -0.00236701 1.56338 -0.00236701C1.95272 -0.00236701 2.33938 0.168301 2.60338 0.494967L9.04072 8.49497C9.43805 8.98963 9.43272 9.69763 9.02605 10.1843L2.35938 18.1843C1.88738 18.751 1.04738 18.8256 0.480717 18.355C-0.0846157 17.8843 -0.160616 17.043 0.310049 16.4776ZM11.6919 18.1847C11.2212 18.75 10.3812 18.826 9.81458 18.3554C9.24925 17.8834 9.17325 17.0434 9.64392 16.478L15.6119 9.31671L9.85858 2.16738C9.39725 1.59404 9.48792 0.754044 10.0612 0.292709C10.3079 0.0940437 10.6026 -0.00195693 10.8972 -0.00195693C11.2866 -0.00195693 11.6732 0.167377 11.9359 0.495377L18.3732 8.49538C18.7719 8.99004 18.7652 9.69671 18.3586 10.1847L11.6919 18.1847Z" fill="#231F20"/>
</svg>
