<svg width="16" height="16" viewBox="0 0 16 16" fill="none" xmlns="http://www.w3.org/2000/svg">
<path d="M8.40187 4.9054H7.19505V9.66023L11.0166 11.9188L11.6201 10.944L8.40187 9.06588V4.9054ZM12.2935 0L16 3.04705L14.9702 4.2635L11.2612 1.21803L12.2935 0ZM3.70574 0L4.73716 1.21724L1.02982 4.2635L0 3.04626L3.70574 0ZM7.9996 1.73551C4.00101 1.73551 0.758687 4.92917 0.758687 8.86776C0.758687 12.8063 4.00101 16 7.9996 16C11.9982 16 15.2405 12.8063 15.2405 8.86776C15.2405 4.92917 11.9982 1.73551 7.9996 1.73551ZM7.9996 14.4151C4.89405 14.4151 2.36778 11.9267 2.36778 8.86776C2.36778 5.80882 4.89405 3.32046 7.9996 3.32046C11.1051 3.32046 13.6314 5.80882 13.6314 8.86776C13.6314 11.9267 11.1051 14.4151 7.9996 14.4151Z" fill="white"/>
</svg>
