<svg width="16" height="16" viewBox="0 0 16 16" fill="none" xmlns="http://www.w3.org/2000/svg">
<path fill-rule="evenodd" clip-rule="evenodd" d="M13.332 9.73398L11.4594 8.00065L13.332 6.26798V9.73398ZM9.9987 10.6673C9.9987 11.0353 9.70003 11.334 9.33203 11.334H3.33203C2.96403 11.334 2.66536 11.0353 2.66536 10.6673V5.33398C2.66536 4.96665 2.96403 4.66732 3.33203 4.66732H9.33203C9.70003 4.66732 9.9987 4.96665 9.9987 5.33398V10.6673ZM14.0067 4.76465C13.5894 4.58265 13.1054 4.66198 12.7727 4.96865L11.332 6.30198V5.33398C11.332 4.23132 10.4347 3.33398 9.33203 3.33398H3.33203C2.22936 3.33398 1.33203 4.23132 1.33203 5.33398V10.6673C1.33203 11.7707 2.22936 12.6673 3.33203 12.6673H9.33203C10.4347 12.6673 11.332 11.7707 11.332 10.6673V9.69998L12.7727 11.0327C12.986 11.2307 13.2627 11.334 13.5447 11.334C13.7007 11.334 13.8574 11.3027 14.0067 11.2373C14.4127 11.06 14.6654 10.6807 14.6654 10.248V5.75398C14.6654 5.32132 14.4127 4.94198 14.0067 4.76465Z" fill="#231F20"/>
<mask id="mask0_5104_114729" style="mask-type:luminance" maskUnits="userSpaceOnUse" x="1" y="3" width="14" height="10">
<path fill-rule="evenodd" clip-rule="evenodd" d="M13.332 9.73398L11.4594 8.00065L13.332 6.26798V9.73398ZM9.9987 10.6673C9.9987 11.0353 9.70003 11.334 9.33203 11.334H3.33203C2.96403 11.334 2.66536 11.0353 2.66536 10.6673V5.33398C2.66536 4.96665 2.96403 4.66732 3.33203 4.66732H9.33203C9.70003 4.66732 9.9987 4.96665 9.9987 5.33398V10.6673ZM14.0067 4.76465C13.5894 4.58265 13.1054 4.66198 12.7727 4.96865L11.332 6.30198V5.33398C11.332 4.23132 10.4347 3.33398 9.33203 3.33398H3.33203C2.22936 3.33398 1.33203 4.23132 1.33203 5.33398V10.6673C1.33203 11.7707 2.22936 12.6673 3.33203 12.6673H9.33203C10.4347 12.6673 11.332 11.7707 11.332 10.6673V9.69998L12.7727 11.0327C12.986 11.2307 13.2627 11.334 13.5447 11.334C13.7007 11.334 13.8574 11.3027 14.0067 11.2373C14.4127 11.06 14.6654 10.6807 14.6654 10.248V5.75398C14.6654 5.32132 14.4127 4.94198 14.0067 4.76465Z" fill="white"/>
</mask>
<g mask="url(#mask0_5104_114729)">
<rect width="16" height="16" fill="white"/>
</g>
</svg>
