<svg width="83" height="82" viewBox="0 0 83 82" fill="none" xmlns="http://www.w3.org/2000/svg">
<rect x="1.5" y="1" width="80" height="80" rx="40" fill="white"/>
<rect x="1.5" y="1" width="80" height="80" rx="40" stroke="#4D4D5A" stroke-width="2"/>
<path d="M38.6665 44.3333H41.9998M41.9998 44.3333H45.3332M41.9998 44.3333V47.6667M41.9998 44.3333V41" stroke="#212131" stroke-width="2.5" stroke-linecap="round"/>
<path d="M38.6665 44.3333H41.9998M41.9998 44.3333H45.3332M41.9998 44.3333V47.6667M41.9998 44.3333V41" stroke="black" stroke-opacity="0.2" stroke-width="2.5" stroke-linecap="round"/>
<path d="M25.3335 32.5831C25.3335 31.1122 25.3335 30.3767 25.4491 29.7641C25.9579 27.0673 28.0673 24.9579 30.7641 24.4491C31.3767 24.3335 32.1122 24.3335 33.5831 24.3335C34.2275 24.3335 34.5498 24.3335 34.8594 24.3625C36.1946 24.4873 37.461 25.0119 38.4934 25.8677C38.7328 26.0662 38.9607 26.294 39.4163 26.7497L40.3335 27.6668C41.6932 29.0265 42.373 29.7063 43.187 30.1592C43.6342 30.408 44.1087 30.6045 44.6008 30.7448C45.4967 31.0002 46.458 31.0002 48.3808 31.0002H49.0037C53.391 31.0002 55.5845 31.0002 57.0105 32.2826C57.1417 32.4006 57.2665 32.5254 57.3843 32.6565C58.6668 34.0824 58.6668 36.2761 58.6668 40.6633V44.3335C58.6668 50.6188 58.6668 53.7617 56.7142 55.7142C54.7617 57.6668 51.6188 57.6668 45.3335 57.6668H38.6668C32.3814 57.6668 29.2387 57.6668 27.2861 55.7142C25.3335 53.7617 25.3335 50.6188 25.3335 44.3335V32.5831Z" stroke="#212131" stroke-width="2.5"/>
<path d="M25.3335 32.5831C25.3335 31.1122 25.3335 30.3767 25.4491 29.7641C25.9579 27.0673 28.0673 24.9579 30.7641 24.4491C31.3767 24.3335 32.1122 24.3335 33.5831 24.3335C34.2275 24.3335 34.5498 24.3335 34.8594 24.3625C36.1946 24.4873 37.461 25.0119 38.4934 25.8677C38.7328 26.0662 38.9607 26.294 39.4163 26.7497L40.3335 27.6668C41.6932 29.0265 42.373 29.7063 43.187 30.1592C43.6342 30.408 44.1087 30.6045 44.6008 30.7448C45.4967 31.0002 46.458 31.0002 48.3808 31.0002H49.0037C53.391 31.0002 55.5845 31.0002 57.0105 32.2826C57.1417 32.4006 57.2665 32.5254 57.3843 32.6565C58.6668 34.0824 58.6668 36.2761 58.6668 40.6633V44.3335C58.6668 50.6188 58.6668 53.7617 56.7142 55.7142C54.7617 57.6668 51.6188 57.6668 45.3335 57.6668H38.6668C32.3814 57.6668 29.2387 57.6668 27.2861 55.7142C25.3335 53.7617 25.3335 50.6188 25.3335 44.3335V32.5831Z" stroke="black" stroke-opacity="0.2" stroke-width="2.5"/>
</svg>
