<svg width="101" height="100" viewBox="0 0 101 100" fill="none" xmlns="http://www.w3.org/2000/svg">
<rect x="0.5" width="100" height="100" rx="16" fill="#939393" fill-opacity="0.15"/>
<rect x="1" y="0.5" width="99" height="99" rx="15.5" stroke="white" stroke-opacity="0.15"/>
<path d="M52.881 52.7135C53.4767 52.5185 54.1177 52.4122 54.7857 52.4122C55.4405 52.4122 56.0692 52.5142 56.655 52.702M56.655 52.702C58.893 53.4195 60.5 55.389 60.5 57.7065C60.5 60.6302 57.9417 63.0005 54.7857 63.0005H44.7857C42.4188 63.0005 40.5 61.2227 40.5 59.03C40.5 56.837 42.4188 55.0592 44.7857 55.0592C45.0698 55.0592 45.3475 55.085 45.6163 55.1337M56.655 52.702C56.337 50.057 53.916 48.0005 50.9762 48.0005C47.8202 48.0005 45.2619 50.3707 45.2619 53.2945C45.2619 53.9412 45.3871 54.561 45.6163 55.1337M45.6163 55.1337C46.1805 55.2365 46.7053 55.4417 47.1668 55.728" stroke="white" stroke-width="4.4375" stroke-linecap="round"/>
<path d="M75.5 52.4943C75.5 45.9134 75.5 42.6229 73.5762 40.4841C73.3995 40.2874 73.2122 40.1001 73.0155 39.9232C70.8765 37.9995 67.5862 37.9995 61.0052 37.9995H60.071C57.1867 37.9995 55.7447 37.9995 54.401 37.6165C53.6627 37.406 52.951 37.1113 52.2802 36.7381C51.0592 36.0587 50.0395 35.039 48 32.9995L46.6242 31.6239C45.9407 30.9403 45.599 30.5985 45.2398 30.3008C43.6913 29.0171 41.7916 28.2302 39.7889 28.043C39.3244 27.9995 38.841 27.9995 37.8744 27.9995C35.668 27.9995 34.5649 27.9995 33.646 28.1729C29.6008 28.9361 26.4366 32.1003 25.6734 36.1455C25.5 37.0644 25.5 38.1676 25.5 40.3739M75.4782 62.9995C75.3885 69.1985 74.9287 72.7128 72.571 75.0705C69.6422 77.9995 64.928 77.9995 55.5 77.9995H45.5C36.0719 77.9995 31.3579 77.9995 28.4289 75.0705C25.5 72.1418 25.5 67.4275 25.5 57.9995V50.4995" stroke="white" stroke-width="4.4375" stroke-linecap="round"/>
</svg>
