<svg width="70" height="40" viewBox="0 0 44 32" fill="none" xmlns="http://www.w3.org/2000/svg">
<rect x="0.5" y="0.5" width="43" height="31" rx="5.5" fill="white"/>
<rect x="0.5" y="0.5" width="43" height="31" rx="5.5" stroke="#BABABF"/>
<path d="M9.764 21.818C10.22 21.818 10.614 21.904 10.946 22.076C11.282 22.244 11.538 22.486 11.714 22.802C11.894 23.118 11.984 23.49 11.984 23.918C11.984 24.346 11.894 24.718 11.714 25.034C11.538 25.346 11.282 25.586 10.946 25.754C10.614 25.918 10.22 26 9.764 26H8.462V21.818H9.764ZM9.764 25.55C10.304 25.55 10.716 25.408 11 25.124C11.284 24.836 11.426 24.434 11.426 23.918C11.426 23.398 11.282 22.992 10.994 22.7C10.71 22.408 10.3 22.262 9.764 22.262H9.008V25.55H9.764ZM12.9862 22.178C12.8822 22.178 12.7942 22.142 12.7222 22.07C12.6502 21.998 12.6142 21.91 12.6142 21.806C12.6142 21.702 12.6502 21.614 12.7222 21.542C12.7942 21.47 12.8822 21.434 12.9862 21.434C13.0862 21.434 13.1702 21.47 13.2382 21.542C13.3102 21.614 13.3462 21.702 13.3462 21.806C13.3462 21.91 13.3102 21.998 13.2382 22.07C13.1702 22.142 13.0862 22.178 12.9862 22.178ZM13.2502 22.712V26H12.7042V22.712H13.2502ZM13.9768 24.35C13.9768 24.01 14.0448 23.714 14.1808 23.462C14.3168 23.206 14.5048 23.008 14.7448 22.868C14.9888 22.728 15.2668 22.658 15.5788 22.658C15.9828 22.658 16.3148 22.756 16.5748 22.952C16.8388 23.148 17.0128 23.42 17.0968 23.768H16.5088C16.4528 23.568 16.3428 23.41 16.1788 23.294C16.0188 23.178 15.8188 23.12 15.5788 23.12C15.2668 23.12 15.0148 23.228 14.8228 23.444C14.6308 23.656 14.5348 23.958 14.5348 24.35C14.5348 24.746 14.6308 25.052 14.8228 25.268C15.0148 25.484 15.2668 25.592 15.5788 25.592C15.8188 25.592 16.0188 25.536 16.1788 25.424C16.3388 25.312 16.4488 25.152 16.5088 24.944H17.0968C17.0088 25.28 16.8328 25.55 16.5688 25.754C16.3048 25.954 15.9748 26.054 15.5788 26.054C15.2668 26.054 14.9888 25.984 14.7448 25.844C14.5048 25.704 14.3168 25.506 14.1808 25.25C14.0448 24.994 13.9768 24.694 13.9768 24.35ZM18.4913 23.162V25.1C18.4913 25.26 18.5253 25.374 18.5933 25.442C18.6613 25.506 18.7793 25.538 18.9473 25.538H19.3493V26H18.8573C18.5533 26 18.3253 25.93 18.1733 25.79C18.0213 25.65 17.9453 25.42 17.9453 25.1V23.162H17.5193V22.712H17.9453V21.884H18.4913V22.712H19.3493V23.162H18.4913ZM19.8068 24.344C19.8068 24.008 19.8748 23.714 20.0108 23.462C20.1468 23.206 20.3328 23.008 20.5688 22.868C20.8088 22.728 21.0748 22.658 21.3668 22.658C21.6548 22.658 21.9048 22.72 22.1168 22.844C22.3288 22.968 22.4868 23.124 22.5908 23.312V22.712H23.1428V26H22.5908V25.388C22.4828 25.58 22.3208 25.74 22.1048 25.868C21.8928 25.992 21.6448 26.054 21.3608 26.054C21.0688 26.054 20.8048 25.982 20.5688 25.838C20.3328 25.694 20.1468 25.492 20.0108 25.232C19.8748 24.972 19.8068 24.676 19.8068 24.344ZM22.5908 24.35C22.5908 24.102 22.5408 23.886 22.4408 23.702C22.3408 23.518 22.2048 23.378 22.0328 23.282C21.8648 23.182 21.6788 23.132 21.4748 23.132C21.2708 23.132 21.0848 23.18 20.9168 23.276C20.7488 23.372 20.6148 23.512 20.5148 23.696C20.4148 23.88 20.3648 24.096 20.3648 24.344C20.3648 24.596 20.4148 24.816 20.5148 25.004C20.6148 25.188 20.7488 25.33 20.9168 25.43C21.0848 25.526 21.2708 25.574 21.4748 25.574C21.6788 25.574 21.8648 25.526 22.0328 25.43C22.2048 25.33 22.3408 25.188 22.4408 25.004C22.5408 24.816 22.5908 24.598 22.5908 24.35ZM24.7315 23.162V25.1C24.7315 25.26 24.7655 25.374 24.8335 25.442C24.9015 25.506 25.0195 25.538 25.1875 25.538H25.5895V26H25.0975C24.7935 26 24.5655 25.93 24.4135 25.79C24.2615 25.65 24.1855 25.42 24.1855 25.1V23.162H23.7595V22.712H24.1855V21.884H24.7315V22.712H25.5895V23.162H24.7315ZM26.5331 22.178C26.4291 22.178 26.3411 22.142 26.2691 22.07C26.1971 21.998 26.1611 21.91 26.1611 21.806C26.1611 21.702 26.1971 21.614 26.2691 21.542C26.3411 21.47 26.4291 21.434 26.5331 21.434C26.6331 21.434 26.7171 21.47 26.7851 21.542C26.8571 21.614 26.8931 21.702 26.8931 21.806C26.8931 21.91 26.8571 21.998 26.7851 22.07C26.7171 22.142 26.6331 22.178 26.5331 22.178ZM26.7971 22.712V26H26.2511V22.712H26.7971ZM29.1616 26.054C28.8536 26.054 28.5736 25.984 28.3216 25.844C28.0736 25.704 27.8776 25.506 27.7336 25.25C27.5936 24.99 27.5236 24.69 27.5236 24.35C27.5236 24.014 27.5956 23.718 27.7396 23.462C27.8876 23.202 28.0876 23.004 28.3396 22.868C28.5916 22.728 28.8736 22.658 29.1856 22.658C29.4976 22.658 29.7796 22.728 30.0316 22.868C30.2836 23.004 30.4816 23.2 30.6256 23.456C30.7736 23.712 30.8476 24.01 30.8476 24.35C30.8476 24.69 30.7716 24.99 30.6196 25.25C30.4716 25.506 30.2696 25.704 30.0136 25.844C29.7576 25.984 29.4736 26.054 29.1616 26.054ZM29.1616 25.574C29.3576 25.574 29.5416 25.528 29.7136 25.436C29.8856 25.344 30.0236 25.206 30.1276 25.022C30.2356 24.838 30.2896 24.614 30.2896 24.35C30.2896 24.086 30.2376 23.862 30.1336 23.678C30.0296 23.494 29.8936 23.358 29.7256 23.27C29.5576 23.178 29.3756 23.132 29.1796 23.132C28.9796 23.132 28.7956 23.178 28.6276 23.27C28.4636 23.358 28.3316 23.494 28.2316 23.678C28.1316 23.862 28.0816 24.086 28.0816 24.35C28.0816 24.618 28.1296 24.844 28.2256 25.028C28.3256 25.212 28.4576 25.35 28.6216 25.442C28.7856 25.53 28.9656 25.574 29.1616 25.574ZM33.1675 22.652C33.5675 22.652 33.8915 22.774 34.1395 23.018C34.3875 23.258 34.5115 23.606 34.5115 24.062V26H33.9715V24.14C33.9715 23.812 33.8895 23.562 33.7255 23.39C33.5615 23.214 33.3375 23.126 33.0535 23.126C32.7655 23.126 32.5355 23.216 32.3635 23.396C32.1955 23.576 32.1115 23.838 32.1115 24.182V26H31.5655V22.712H32.1115V23.18C32.2195 23.012 32.3655 22.882 32.5495 22.79C32.7375 22.698 32.9435 22.652 33.1675 22.652Z" fill="black"/>
<path fill-rule="evenodd" clip-rule="evenodd" d="M23.4999 10.5C23.4999 11.603 22.6029 12.5 21.4999 12.5C20.3969 12.5 19.4999 11.603 19.4999 10.5V8C19.4999 6.897 20.3969 6 21.4999 6C22.6029 6 23.4999 6.897 23.4999 8V10.5ZM21.5 6.99976C20.9485 6.99976 20.5 7.44826 20.5 7.99976V10.4998C20.5 11.0513 20.9485 11.4998 21.5 11.4998C22.0515 11.4998 22.5 11.0513 22.5 10.4998V7.99976C22.5 7.44826 22.0515 6.99976 21.5 6.99976Z" fill="#0D1C2E"/>
<path d="M24.5 10.0002C24.7765 10.0002 25 10.2242 25 10.5002C25 12.2602 23.6935 13.7162 22 13.9602V15.0002H23.0525C23.299 15.0002 23.5 15.2012 23.5 15.4477V15.5527C23.5 15.7992 23.299 16.0002 23.0525 16.0002H19.9475C19.701 16.0002 19.5 15.7992 19.5 15.5527V15.4477C19.5 15.2012 19.701 15.0002 19.9475 15.0002H21V13.9602C19.3065 13.7162 18 12.2602 18 10.5002C18 10.2242 18.2235 10.0002 18.5 10.0002C18.7765 10.0002 19 10.2242 19 10.5002C19 11.8787 20.1215 13.0002 21.5 13.0002C22.8785 13.0002 24 11.8787 24 10.5002C24 10.2242 24.2235 10.0002 24.5 10.0002Z" fill="#0D1C2E"/>
<path fill-rule="evenodd" clip-rule="evenodd" d="M23.4999 10.5C23.4999 11.603 22.6029 12.5 21.4999 12.5C20.3969 12.5 19.4999 11.603 19.4999 10.5V8C19.4999 6.897 20.3969 6 21.4999 6C22.6029 6 23.4999 6.897 23.4999 8V10.5ZM21.5 6.99976C20.9485 6.99976 20.5 7.44826 20.5 7.99976V10.4998C20.5 11.0513 20.9485 11.4998 21.5 11.4998C22.0515 11.4998 22.5 11.0513 22.5 10.4998V7.99976C22.5 7.44826 22.0515 6.99976 21.5 6.99976Z" fill="#0D1C2E"/>
<path d="M24.5 10.0002C24.7765 10.0002 25 10.2242 25 10.5002C25 12.2602 23.6935 13.7162 22 13.9602V15.0002H23.0525C23.299 15.0002 23.5 15.2012 23.5 15.4477V15.5527C23.5 15.7992 23.299 16.0002 23.0525 16.0002H19.9475C19.701 16.0002 19.5 15.7992 19.5 15.5527V15.4477C19.5 15.2012 19.701 15.0002 19.9475 15.0002H21V13.9602C19.3065 13.7162 18 12.2602 18 10.5002C18 10.2242 18.2235 10.0002 18.5 10.0002C18.7765 10.0002 19 10.2242 19 10.5002C19 11.8787 20.1215 13.0002 21.5 13.0002C22.8785 13.0002 24 11.8787 24 10.5002C24 10.2242 24.2235 10.0002 24.5 10.0002Z" fill="#0D1C2E"/>
</svg>
