<svg width="101" height="100" viewBox="0 0 101 100" fill="none" xmlns="http://www.w3.org/2000/svg">
<rect x="0.5" width="100" height="100" rx="16" fill="#939393" fill-opacity="0.15"/>
<rect x="1" y="0.5" width="99" height="99" rx="15.5" stroke="white" stroke-opacity="0.15"/>
<path d="M47.5833 23.2498H47.0833V23.7498V38.3332C47.0833 39.6679 46.0014 40.7498 44.6667 40.7498H30.0833H29.5833V41.2498V73.3332C29.5833 75.2202 31.113 76.7498 33 76.7498H41.75C43.0847 76.7498 44.1667 77.8318 44.1667 79.1665C44.1667 80.5012 43.0847 81.5832 41.75 81.5832H33C28.4437 81.5832 24.75 77.8897 24.75 73.3332V38.3332C24.75 37.6922 25.0046 37.0775 25.4578 36.6243L42.9578 19.1243C43.411 18.6711 44.0257 18.4165 44.6667 18.4165H68C72.5565 18.4165 76.25 22.1102 76.25 26.6665V41.2498C76.25 42.5845 75.1681 43.6665 73.8333 43.6665C72.4986 43.6665 71.4167 42.5845 71.4167 41.2498V26.6665C71.4167 24.7796 69.887 23.2498 68 23.2498H47.5833ZM33.8546 35.063L33.001 35.9165H34.2081H41.75H42.25V35.4165V27.8746V26.6675L41.3964 27.5211L33.8546 35.063ZM45.73 60.7457L45.73 60.7457L50.1604 68.8529C51.0829 70.541 53.2166 71.1353 54.8786 70.1666L58.0334 68.3285L58.0335 68.3285C59.0685 67.7253 60.3895 67.9716 61.1377 68.9073L63.819 72.2611L64.1277 72.6473L64.5173 72.343L65.0542 71.9236C65.0542 71.9236 65.0542 71.9236 65.0542 71.9235C65.5595 71.529 66.2008 71.3513 66.8371 71.4296C67.4735 71.5081 68.0526 71.8361 68.447 72.3414C68.447 72.3414 68.447 72.3414 68.447 72.3414L71.8049 76.6449L72.1991 76.3373L71.8049 76.6449C73.474 78.7838 76.85 78.2176 77.7304 75.6517L77.7304 75.6517L78.0145 74.8233L78.1192 74.5183L77.8844 74.2972L66.3429 63.4256C65.5246 62.6547 65.346 61.4212 65.912 60.45L65.912 60.45L67.8496 57.1244C68.7953 55.5011 68.2531 53.4183 66.6353 52.4627L59.1756 48.0559C56.7936 46.6486 53.7739 46.9504 51.7175 48.8013L47.0511 53.001C44.8693 54.9647 44.3227 58.17 45.73 60.7457ZM69.0938 48.3014L69.3481 47.871L69.0938 48.3015C72.9998 50.609 74.3097 55.6376 72.0255 59.5577L72.0255 59.5578L71.2549 60.8808L71.055 61.2241L71.3441 61.4964L82.568 72.069C83.2589 72.7198 83.5048 73.7148 83.1968 74.6127L82.302 77.2204L82.775 77.3827L82.302 77.2204C80.1763 83.4164 72.0245 84.7826 67.9946 79.6184L66.4316 77.6153L66.1238 77.2209L65.7296 77.5288L65.2196 77.9271C64.176 78.7419 62.6714 78.5656 61.8447 77.5316L61.8446 77.5315L58.9341 73.8915L58.6646 73.5546L58.2918 73.7718L57.3119 74.3429C53.2985 76.6812 48.1464 75.2468 45.9189 71.1707L41.4887 63.0633L41.0499 63.303L41.4887 63.0633C39.0071 58.5221 39.9709 52.8707 43.8176 49.4084C43.8176 49.4084 43.8176 49.4084 43.8176 49.4084L48.4842 45.2087L48.4842 45.2087C52.1101 41.9454 57.4343 41.4133 61.6341 43.8944L69.0938 48.3014ZM58.75 57.2915C58.75 59.4315 57.015 61.1665 54.875 61.1665C52.735 61.1665 51 59.4315 51 57.2915C51 55.1515 52.735 53.4165 54.875 53.4165C57.015 53.4165 58.75 55.1515 58.75 57.2915Z" fill="white" stroke="#3C3B5D"/>
</svg>
