<svg width="24" height="25" viewBox="0 0 24 25" fill="none" xmlns="http://www.w3.org/2000/svg">
<path d="M24 12.7144C24 6.08623 18.6281 0.714355 12 0.714355C5.37188 0.714355 0 6.08623 0 12.7144C0 18.3394 3.87656 23.0644 9.10312 24.3628V16.38H6.62812V12.7144H9.10312V11.1347C9.10312 7.05186 10.95 5.15811 14.9625 5.15811C15.7219 5.15811 17.0344 5.30811 17.5734 5.45811V8.77686C17.2922 8.74873 16.8 8.72998 16.1859 8.72998C14.2172 8.72998 13.4578 9.47529 13.4578 11.4112V12.7144H17.3766L16.7016 16.38H13.4531V24.6253C19.3969 23.9081 24 18.8503 24 12.7144Z" fill="black"/>
</svg>
