<svg width="80" height="81" viewBox="0 0 80 81" fill="none" xmlns="http://www.w3.org/2000/svg">
<rect y="0.5" width="80" height="80" rx="16" fill="#F09BA9" fill-opacity="0.5"/>
<rect x="0.5" y="1" width="79" height="79" rx="15.5" stroke="white" stroke-opacity="0.15"/>
<path d="M41.9048 42.6705C42.3814 42.5145 42.8942 42.4295 43.4286 42.4295C43.9524 42.4295 44.4554 42.5111 44.924 42.6613M44.924 42.6613C46.7144 43.2353 48 44.8109 48 46.6649C48 49.0039 45.9534 50.9001 43.4286 50.9001H35.4286C33.535 50.9001 32 49.4779 32 47.7237C32 45.9693 33.535 44.5471 35.4286 44.5471C35.6559 44.5471 35.878 44.5677 36.093 44.6067M44.924 42.6613C44.6696 40.5453 42.7328 38.9001 40.381 38.9001C37.8562 38.9001 35.8095 40.7963 35.8095 43.1353C35.8095 43.6527 35.9096 44.1485 36.093 44.6067M36.093 44.6067C36.5444 44.6889 36.9642 44.8531 37.3334 45.0821" stroke="white" stroke-width="4.4375" stroke-linecap="round"/>
<path d="M60 42.4955C60 37.2307 60 34.5984 58.461 32.8873C58.3196 32.7299 58.1698 32.5801 58.0124 32.4386C56.3012 30.8997 53.669 30.8997 48.4042 30.8997H47.6568C45.3494 30.8997 44.1958 30.8997 43.1208 30.5932C42.5302 30.4249 41.9608 30.1891 41.4242 29.8905C40.4474 29.347 39.6316 28.5312 38 26.8997L36.8994 25.7992C36.3526 25.2523 36.0792 24.9789 35.7919 24.7407C34.553 23.7137 33.0333 23.0842 31.4311 22.9344C31.0595 22.8997 30.6728 22.8997 29.8995 22.8997C28.1344 22.8997 27.2519 22.8997 26.5168 23.0384C23.2806 23.6489 20.7493 26.1803 20.1387 29.4164C20 30.1516 20 31.0341 20 32.7992M59.9826 50.8997C59.9108 55.8589 59.543 58.6703 57.6568 60.5565C55.3138 62.8997 51.5424 62.8997 44 62.8997H36C28.4575 62.8997 24.6863 62.8997 22.3431 60.5565C20 58.2135 20 54.4421 20 46.8997V40.8997" stroke="white" stroke-width="4.4375" stroke-linecap="round"/>
</svg>
