<svg width="24" height="25" viewBox="0 0 24 25" fill="none" xmlns="http://www.w3.org/2000/svg">
<path d="M12.0055 6.55374C8.59833 6.55374 5.85011 9.30195 5.85011 12.7091C5.85011 16.1162 8.59833 18.8645 12.0055 18.8645C15.4126 18.8645 18.1608 16.1162 18.1608 12.7091C18.1608 9.30195 15.4126 6.55374 12.0055 6.55374ZM12.0055 16.7109C9.80368 16.7109 8.00368 14.9162 8.00368 12.7091C8.00368 10.502 9.79833 8.70731 12.0055 8.70731C14.2126 8.70731 16.0073 10.502 16.0073 12.7091C16.0073 14.9162 14.2073 16.7109 12.0055 16.7109ZM19.8483 6.30195C19.8483 7.10017 19.2055 7.73767 18.4126 7.73767C17.6144 7.73767 16.9769 7.09481 16.9769 6.30195C16.9769 5.5091 17.6198 4.86624 18.4126 4.86624C19.2055 4.86624 19.8483 5.5091 19.8483 6.30195ZM23.9251 7.7591C23.834 5.83588 23.3948 4.13231 21.9858 2.72874C20.5823 1.32517 18.8787 0.885882 16.9555 0.789453C14.9733 0.676953 9.03225 0.676953 7.05011 0.789453C5.13225 0.880525 3.42868 1.31981 2.01975 2.72338C0.610826 4.12695 0.176897 5.83052 0.0804687 7.75374C-0.0320313 9.73588 -0.0320313 15.677 0.0804687 17.6591C0.17154 19.5823 0.610826 21.2859 2.01975 22.6895C3.42868 24.093 5.1269 24.5323 7.05011 24.6287C9.03225 24.7412 14.9733 24.7412 16.9555 24.6287C18.8787 24.5377 20.5823 24.0984 21.9858 22.6895C23.3894 21.2859 23.8287 19.5823 23.9251 17.6591C24.0376 15.677 24.0376 9.74124 23.9251 7.7591ZM21.3644 19.7859C20.9465 20.8359 20.1376 21.6448 19.0823 22.068C17.5019 22.6948 13.7519 22.5502 12.0055 22.5502C10.259 22.5502 6.50368 22.6895 4.92868 22.068C3.87868 21.6502 3.06975 20.8412 2.64654 19.7859C2.01975 18.2055 2.1644 14.4555 2.1644 12.7091C2.1644 10.9627 2.02511 7.20731 2.64654 5.63231C3.0644 4.58231 3.87333 3.77338 4.92868 3.35017C6.50904 2.72338 10.259 2.86802 12.0055 2.86802C13.7519 2.86802 17.5073 2.72874 19.0823 3.35017C20.1323 3.76802 20.9412 4.57695 21.3644 5.63231C21.9912 7.21267 21.8465 10.9627 21.8465 12.7091C21.8465 14.4555 21.9912 18.2109 21.3644 19.7859Z" fill="black"/>
</svg>
