<svg width="24" height="25" viewBox="0 0 24 25" fill="none" xmlns="http://www.w3.org/2000/svg">
<path d="M22.2857 0.713867H1.70893C0.766071 0.713867 0 1.49065 0 2.44422V22.9835C0 23.9371 0.766071 24.7139 1.70893 24.7139H22.2857C23.2286 24.7139 24 23.9371 24 22.9835V2.44422C24 1.49065 23.2286 0.713867 22.2857 0.713867ZM7.25357 21.2853H3.69643V9.83172H7.25893V21.2853H7.25357ZM5.475 8.26744C4.33393 8.26744 3.4125 7.34065 3.4125 6.20494C3.4125 5.06922 4.33393 4.14244 5.475 4.14244C6.61071 4.14244 7.5375 5.06922 7.5375 6.20494C7.5375 7.34601 6.61607 8.26744 5.475 8.26744ZM20.5875 21.2853H17.0304V15.7139C17.0304 14.3853 17.0036 12.6764 15.1821 12.6764C13.3286 12.6764 13.0446 14.1228 13.0446 15.6174V21.2853H9.4875V9.83172H12.9V11.396H12.9482C13.425 10.496 14.5875 9.5478 16.3179 9.5478C19.9179 9.5478 20.5875 11.921 20.5875 15.0067V21.2853Z" fill="black"/>
</svg>
