<svg width="135" height="50" viewBox="0 0 135 50" fill="none" xmlns="http://www.w3.org/2000/svg">
<path d="M30.4019 4.85254C30.4572 4.85254 30.4963 4.86556 30.519 4.8916C30.5435 4.91602 30.5557 4.95833 30.5557 5.01855C30.5557 5.07878 30.5435 5.12191 30.519 5.14795C30.4963 5.17236 30.4572 5.18457 30.4019 5.18457H30.27L29.9331 7.64551C29.925 7.7041 29.9038 7.74479 29.8696 7.76758C29.8371 7.79199 29.7882 7.8042 29.7231 7.8042C29.5897 7.8042 29.5067 7.7513 29.4741 7.64551L29.0225 6.22705L28.5659 7.64551C28.5317 7.7513 28.4471 7.8042 28.312 7.8042C28.2485 7.8042 28.1997 7.79199 28.1655 7.76758C28.133 7.74316 28.1134 7.70247 28.1069 7.64551L27.7822 5.18457H27.6626C27.6073 5.18457 27.5674 5.17236 27.543 5.14795C27.5202 5.12191 27.5088 5.07878 27.5088 5.01855C27.5088 4.95833 27.5202 4.91602 27.543 4.8916C27.5674 4.86556 27.6073 4.85254 27.6626 4.85254H28.5024C28.5578 4.85254 28.5968 4.86556 28.6196 4.8916C28.644 4.91602 28.6562 4.95833 28.6562 5.01855C28.6562 5.07878 28.644 5.12191 28.6196 5.14795C28.5968 5.17236 28.5578 5.18457 28.5024 5.18457H28.146L28.3901 7.14014L28.8491 5.70459C28.8719 5.62809 28.9305 5.58984 29.0249 5.58984C29.077 5.58984 29.1169 5.59798 29.1445 5.61426C29.1738 5.63053 29.1934 5.65495 29.2031 5.6875L29.6597 7.14014L29.9136 5.18457H29.6108C29.5555 5.18457 29.5156 5.17236 29.4912 5.14795C29.4684 5.12191 29.457 5.07878 29.457 5.01855C29.457 4.95833 29.4684 4.91602 29.4912 4.8916C29.5156 4.86556 29.5555 4.85254 29.6108 4.85254H30.4019ZM32.7773 5.44092C32.9043 5.44092 33.0231 5.47347 33.1338 5.53857C33.1989 5.57764 33.2314 5.62809 33.2314 5.68994C33.2314 5.71924 33.2241 5.75342 33.2095 5.79248C33.1753 5.88525 33.1281 5.93164 33.0679 5.93164C33.0435 5.93164 33.0207 5.92513 32.9995 5.91211C32.9198 5.86816 32.8343 5.84619 32.7432 5.84619C32.5967 5.84619 32.4494 5.89746 32.3013 6C32.1532 6.10091 32.0311 6.236 31.9351 6.40527C31.8407 6.57454 31.7935 6.75439 31.7935 6.94482V7.41846H32.6162C32.6715 7.41846 32.7106 7.43148 32.7334 7.45752C32.7578 7.48193 32.77 7.52425 32.77 7.58447C32.77 7.64469 32.7578 7.68783 32.7334 7.71387C32.7106 7.73828 32.6715 7.75049 32.6162 7.75049H31.0439C30.9886 7.75049 30.9487 7.73828 30.9243 7.71387C30.9015 7.68783 30.8901 7.64469 30.8901 7.58447C30.8901 7.52425 30.9015 7.48193 30.9243 7.45752C30.9487 7.43148 30.9886 7.41846 31.0439 7.41846H31.4272V5.82666H31.1172C31.0618 5.82666 31.022 5.81445 30.9976 5.79004C30.9748 5.764 30.9634 5.72087 30.9634 5.66064C30.9634 5.60042 30.9748 5.55811 30.9976 5.53369C31.022 5.50765 31.0618 5.49463 31.1172 5.49463H31.6152C31.6706 5.49463 31.7096 5.50765 31.7324 5.53369C31.7568 5.55811 31.769 5.60042 31.769 5.66064V6.15381C31.8472 6.01058 31.9416 5.88525 32.0522 5.77783C32.1629 5.67041 32.2809 5.5874 32.4062 5.52881C32.5316 5.47021 32.6553 5.44092 32.7773 5.44092ZM35.1162 5.49463C35.1715 5.49463 35.2106 5.50765 35.2334 5.53369C35.2578 5.55811 35.27 5.60042 35.27 5.66064V7.41846H36.0537C36.109 7.41846 36.1481 7.43148 36.1709 7.45752C36.1953 7.48193 36.2075 7.52425 36.2075 7.58447C36.2075 7.64469 36.1953 7.68783 36.1709 7.71387C36.1481 7.73828 36.109 7.75049 36.0537 7.75049H34.1396C34.0843 7.75049 34.0444 7.73828 34.02 7.71387C33.9972 7.68783 33.9858 7.64469 33.9858 7.58447C33.9858 7.52425 33.9972 7.48193 34.02 7.45752C34.0444 7.43148 34.0843 7.41846 34.1396 7.41846H34.9038V5.82666H34.2861C34.2308 5.82666 34.1909 5.81445 34.1665 5.79004C34.1437 5.764 34.1323 5.72087 34.1323 5.66064C34.1323 5.60042 34.1437 5.55811 34.1665 5.53369C34.1909 5.50765 34.2308 5.49463 34.2861 5.49463H35.1162ZM35.0381 4.42285C35.1276 4.42285 35.1886 4.43506 35.2212 4.45947C35.2537 4.48226 35.27 4.52295 35.27 4.58154V4.89893C35.27 4.95752 35.2537 4.99902 35.2212 5.02344C35.1886 5.04622 35.1276 5.05762 35.0381 5.05762C34.9486 5.05762 34.8875 5.04622 34.855 5.02344C34.8224 4.99902 34.8061 4.95752 34.8061 4.89893V4.58154C34.8061 4.52295 34.8224 4.48226 34.855 4.45947C34.8875 4.43506 34.9486 4.42285 35.0381 4.42285ZM37.6455 4.79883C37.7122 4.79883 37.7594 4.81103 37.7871 4.83545C37.8148 4.85986 37.8286 4.90055 37.8286 4.95752V5.68994H38.832C38.8874 5.68994 38.9264 5.70296 38.9492 5.729C38.9736 5.75342 38.9858 5.79574 38.9858 5.85596C38.9858 5.91618 38.9736 5.95931 38.9492 5.98535C38.9264 6.00977 38.8874 6.02197 38.832 6.02197H37.8286V6.91064C37.8286 7.09619 37.8603 7.2321 37.9238 7.31836C37.9889 7.40462 38.1012 7.44775 38.2607 7.44775C38.3698 7.44775 38.4845 7.42578 38.605 7.38184C38.7254 7.33789 38.8418 7.2793 38.9541 7.20605C38.9769 7.18978 39.0021 7.18164 39.0298 7.18164C39.0851 7.18164 39.1323 7.21908 39.1714 7.29395C39.1925 7.33626 39.2031 7.37288 39.2031 7.40381C39.2031 7.45589 39.1763 7.49821 39.1226 7.53076C38.9956 7.61051 38.854 7.67643 38.6978 7.72852C38.5415 7.77897 38.3958 7.8042 38.2607 7.8042C37.984 7.8042 37.7814 7.73258 37.6528 7.58936C37.5259 7.4445 37.4624 7.22884 37.4624 6.94238V6.02197H36.9668C36.9115 6.02197 36.8716 6.00977 36.8472 5.98535C36.8244 5.95931 36.813 5.91618 36.813 5.85596C36.813 5.79574 36.8244 5.75342 36.8472 5.729C36.8716 5.70296 36.9115 5.68994 36.9668 5.68994H37.4624V4.95752C37.4624 4.90055 37.4762 4.85986 37.5039 4.83545C37.5316 4.81103 37.5788 4.79883 37.6455 4.79883ZM41.0464 5.44092C41.2824 5.44092 41.4834 5.48893 41.6494 5.58496C41.8171 5.67936 41.9456 5.8112 42.0352 5.98047C42.1247 6.14811 42.1759 6.3418 42.189 6.56152C42.189 6.61686 42.1768 6.65592 42.1523 6.67871C42.1296 6.7015 42.0905 6.71289 42.0352 6.71289H40.2676C40.279 6.9554 40.3506 7.13932 40.4824 7.26465C40.6159 7.38835 40.8039 7.4502 41.0464 7.4502C41.1961 7.4502 41.3442 7.43148 41.4907 7.39404C41.6372 7.35498 41.7658 7.30371 41.8765 7.24023C41.9041 7.22559 41.9294 7.21826 41.9521 7.21826C42.0091 7.21826 42.0555 7.26139 42.0913 7.34766C42.106 7.38184 42.1133 7.41276 42.1133 7.44043C42.1133 7.50553 42.0775 7.55599 42.0059 7.5918C41.8805 7.65527 41.7324 7.70654 41.5615 7.74561C41.3906 7.78467 41.2189 7.8042 41.0464 7.8042C40.8006 7.8042 40.5907 7.757 40.4165 7.6626C40.2423 7.5682 40.1097 7.43229 40.0186 7.25488C39.9274 7.07747 39.8818 6.8667 39.8818 6.62256C39.8818 6.38981 39.9315 6.18392 40.0308 6.00488C40.13 5.82585 40.2676 5.6875 40.4434 5.58984C40.6191 5.49056 40.8201 5.44092 41.0464 5.44092ZM41.0464 5.79492C40.8462 5.79492 40.6802 5.84619 40.5483 5.94873C40.4181 6.04964 40.3327 6.19043 40.292 6.37109H41.7837C41.7495 6.18392 41.6706 6.0415 41.5469 5.94385C41.4248 5.84456 41.258 5.79492 41.0464 5.79492ZM44.2666 7.03271C44.2943 7.03271 44.3154 7.04085 44.3301 7.05713C44.3447 7.07178 44.352 7.09131 44.352 7.11572C44.352 7.13851 44.3464 7.16211 44.335 7.18652L43.8174 8.36816C43.7881 8.4349 43.7181 8.46826 43.6074 8.46826C43.4902 8.46826 43.4316 8.42757 43.4316 8.34619C43.4316 8.33968 43.4333 8.32666 43.4365 8.30713L43.666 7.13037C43.6725 7.09945 43.6864 7.07585 43.7075 7.05957C43.7303 7.04167 43.7588 7.03271 43.793 7.03271H44.2666ZM50.9585 4.79883C51.0252 4.79883 51.0724 4.81103 51.1001 4.83545C51.1278 4.85986 51.1416 4.90055 51.1416 4.95752V5.76318C51.1416 5.82015 51.1278 5.86084 51.1001 5.88525C51.0724 5.90967 51.0252 5.92187 50.9585 5.92187C50.8918 5.92187 50.8446 5.90967 50.8169 5.88525C50.7892 5.86084 50.7754 5.82015 50.7754 5.76318C50.7754 5.65251 50.7502 5.55159 50.6997 5.46045C50.6509 5.3693 50.5752 5.29687 50.4727 5.24316C50.3701 5.18783 50.2432 5.16016 50.0918 5.16016C49.916 5.16016 49.7598 5.20654 49.623 5.29932C49.488 5.39209 49.3822 5.52474 49.3057 5.69727C49.2308 5.86979 49.1934 6.07161 49.1934 6.30273C49.1934 6.53385 49.2292 6.73568 49.3008 6.9082C49.3724 7.0791 49.4741 7.21094 49.606 7.30371C49.7378 7.39648 49.8916 7.44287 50.0674 7.44287C50.2285 7.44287 50.3823 7.41927 50.5288 7.37207C50.6753 7.32487 50.8071 7.25651 50.9243 7.16699C50.952 7.14421 50.9821 7.13281 51.0146 7.13281C51.0635 7.13281 51.1066 7.16455 51.144 7.22803C51.1733 7.27686 51.188 7.31999 51.188 7.35742C51.188 7.40625 51.1628 7.44857 51.1123 7.48437C50.9609 7.59017 50.7957 7.66992 50.6167 7.72363C50.4393 7.77734 50.2562 7.8042 50.0674 7.8042C49.8135 7.8042 49.5913 7.74235 49.4009 7.61865C49.2121 7.49333 49.0656 7.31755 48.9614 7.09131C48.8589 6.86507 48.8076 6.60221 48.8076 6.30273C48.8076 6.00488 48.8605 5.74284 48.9663 5.5166C49.0721 5.28874 49.2202 5.11214 49.4106 4.98682C49.6027 4.86149 49.8216 4.79883 50.0674 4.79883C50.2204 4.79883 50.3563 4.82487 50.4751 4.87695C50.5939 4.92904 50.694 5.00309 50.7754 5.09912V4.95752C50.7754 4.90055 50.7892 4.85986 50.8169 4.83545C50.8446 4.81103 50.8918 4.79883 50.9585 4.79883ZM53.0166 5.44092C53.2396 5.44092 53.4406 5.49137 53.6196 5.59228C53.7987 5.6932 53.9386 5.83398 54.0395 6.01465C54.1421 6.19368 54.1934 6.39632 54.1934 6.62256C54.1934 6.8488 54.1421 7.05225 54.0395 7.23291C53.9386 7.41195 53.7987 7.55192 53.6196 7.65283C53.4406 7.75374 53.2396 7.8042 53.0166 7.8042C52.7936 7.8042 52.5926 7.75374 52.4136 7.65283C52.2345 7.55192 52.0937 7.41195 51.9912 7.23291C51.8903 7.05225 51.8398 6.8488 51.8398 6.62256C51.8398 6.39632 51.8903 6.19368 51.9912 6.01465C52.0937 5.83398 52.2345 5.6932 52.4136 5.59228C52.5926 5.49137 52.7936 5.44092 53.0166 5.44092ZM53.0166 5.80225C52.8587 5.80225 52.7196 5.83724 52.5991 5.90723C52.4803 5.97559 52.3883 6.07243 52.3232 6.19775C52.2581 6.32145 52.2256 6.46305 52.2256 6.62256C52.2256 6.78206 52.2581 6.92448 52.3232 7.0498C52.3883 7.1735 52.4803 7.27035 52.5991 7.34033C52.7196 7.40869 52.8587 7.44287 53.0166 7.44287C53.1745 7.44287 53.3128 7.40869 53.4316 7.34033C53.5521 7.27035 53.6449 7.1735 53.71 7.0498C53.7751 6.92448 53.8076 6.78206 53.8076 6.62256C53.8076 6.46305 53.7751 6.32145 53.71 6.19775C53.6449 6.07243 53.5521 5.97559 53.4316 5.90723C53.3128 5.83724 53.1745 5.80225 53.0166 5.80225ZM56.0781 4.54736C56.1335 4.54736 56.1725 4.56038 56.1953 4.58643C56.2197 4.61084 56.2319 4.65316 56.2319 4.71338V7.41846H57.0156C57.071 7.41846 57.11 7.43148 57.1328 7.45752C57.1572 7.48193 57.1694 7.52425 57.1694 7.58447C57.1694 7.64469 57.1572 7.68783 57.1328 7.71387C57.11 7.73828 57.071 7.75049 57.0156 7.75049H55.1016C55.0462 7.75049 55.0063 7.73828 54.9819 7.71387C54.9591 7.68783 54.9478 7.64469 54.9478 7.58447C54.9478 7.52425 54.9591 7.48193 54.9819 7.45752C55.0063 7.43148 55.0462 7.41846 55.1016 7.41846H55.8657V4.87939H55.1992C55.1439 4.87939 55.104 4.86719 55.0796 4.84277C55.0568 4.81673 55.0454 4.7736 55.0454 4.71338C55.0454 4.65316 55.0568 4.61084 55.0796 4.58643C55.104 4.56038 55.1439 4.54736 55.1992 4.54736H56.0781ZM59.0762 4.54736C59.1315 4.54736 59.1706 4.56038 59.1934 4.58643C59.2178 4.61084 59.23 4.65316 59.23 4.71338V7.41846H60.0137C60.069 7.41846 60.1081 7.43148 60.1309 7.45752C60.1553 7.48193 60.1675 7.52425 60.1675 7.58447C60.1675 7.64469 60.1553 7.68783 60.1309 7.71387C60.1081 7.73828 60.069 7.75049 60.0137 7.75049H58.0996C58.0443 7.75049 58.0044 7.73828 57.98 7.71387C57.9572 7.68783 57.9458 7.64469 57.9458 7.58447C57.9458 7.52425 57.9572 7.48193 57.98 7.45752C58.0044 7.43148 58.0443 7.41846 58.0996 7.41846H58.8638V4.87939H58.1973C58.1419 4.87939 58.102 4.86719 58.0776 4.84277C58.0548 4.81673 58.0435 4.7736 58.0435 4.71338C58.0435 4.65316 58.0548 4.61084 58.0776 4.58643C58.102 4.56038 58.1419 4.54736 58.1973 4.54736H59.0762ZM62.0205 5.44092C62.3265 5.44092 62.556 5.50928 62.709 5.646C62.862 5.78271 62.9385 5.98535 62.9385 6.25391V7.22559C62.9385 7.35417 62.9922 7.41846 63.0996 7.41846H63.1851C63.2404 7.41846 63.2795 7.43148 63.3022 7.45752C63.3267 7.48193 63.3389 7.52425 63.3389 7.58447C63.3389 7.64469 63.3267 7.68783 63.3022 7.71387C63.2795 7.73828 63.2404 7.75049 63.1851 7.75049H63.0288C62.923 7.75049 62.8319 7.72445 62.7554 7.67236C62.6805 7.61865 62.6317 7.54053 62.6089 7.43799C62.4754 7.55518 62.3306 7.64551 62.1743 7.70898C62.0197 7.77246 61.8553 7.8042 61.6812 7.8042C61.5168 7.8042 61.3711 7.77653 61.2441 7.72119C61.1188 7.66423 61.0203 7.58203 60.9487 7.47461C60.8771 7.36719 60.8413 7.23942 60.8413 7.09131C60.8413 6.83415 60.9333 6.64453 61.1172 6.52246C61.3011 6.39876 61.5387 6.33691 61.8301 6.33691C62.0889 6.33691 62.3363 6.37842 62.5723 6.46143V6.25391C62.5723 6.09603 62.5275 5.98047 62.438 5.90723C62.3501 5.83236 62.2077 5.79492 62.0107 5.79492C61.8887 5.79492 61.7617 5.81201 61.6299 5.84619C61.498 5.88037 61.3727 5.92757 61.2539 5.98779C61.2262 6.00244 61.201 6.00977 61.1782 6.00977C61.1245 6.00977 61.0798 5.9707 61.0439 5.89258C61.026 5.85352 61.0171 5.82096 61.0171 5.79492C61.0171 5.73796 61.0472 5.69401 61.1074 5.66309C61.2441 5.59147 61.3906 5.53695 61.5469 5.49951C61.7048 5.46045 61.8626 5.44092 62.0205 5.44092ZM61.8325 6.68115C61.6453 6.68115 61.4972 6.7137 61.3882 6.77881C61.2808 6.84229 61.2271 6.94401 61.2271 7.08398C61.2271 7.2028 61.2677 7.29557 61.3491 7.3623C61.4321 7.42741 61.5477 7.45996 61.6958 7.45996C62.0197 7.45996 62.3118 7.32568 62.5723 7.05713V6.79102C62.4616 6.75521 62.3428 6.72835 62.2158 6.71045C62.0889 6.69092 61.9611 6.68115 61.8325 6.68115ZM64.2153 4.54736C64.2707 4.54736 64.3097 4.56038 64.3325 4.58643C64.3569 4.61084 64.3691 4.65316 64.3691 4.71338V5.84375C64.5791 5.5752 64.8371 5.44092 65.1431 5.44092C65.3449 5.44092 65.5256 5.48893 65.6851 5.58496C65.8446 5.67936 65.9699 5.81608 66.061 5.99512C66.1522 6.17253 66.1978 6.38167 66.1978 6.62256C66.1978 6.86344 66.1522 7.0734 66.061 7.25244C65.9699 7.42985 65.8446 7.56657 65.6851 7.6626C65.5256 7.757 65.3449 7.8042 65.1431 7.8042C64.9836 7.8042 64.8363 7.76839 64.7012 7.69678C64.5661 7.62516 64.4473 7.52262 64.3447 7.38916V7.58447C64.3447 7.64469 64.3325 7.68783 64.3081 7.71387C64.2853 7.73828 64.2463 7.75049 64.1909 7.75049H63.8027C63.7474 7.75049 63.7075 7.73828 63.6831 7.71387C63.6603 7.68783 63.6489 7.64469 63.6489 7.58447C63.6489 7.52425 63.6603 7.48193 63.6831 7.45752C63.7075 7.43148 63.7474 7.41846 63.8027 7.41846H64.0029V4.87939H63.7539C63.6986 4.87939 63.6587 4.86719 63.6343 4.84277C63.6115 4.81673 63.6001 4.7736 63.6001 4.71338C63.6001 4.65316 63.6115 4.61084 63.6343 4.58643C63.6587 4.56038 63.6986 4.54736 63.7539 4.54736H64.2153ZM65.1187 5.80225C64.9738 5.80225 64.8444 5.8348 64.7305 5.8999C64.6182 5.96501 64.5295 6.05941 64.4644 6.18311C64.4009 6.3068 64.3691 6.45329 64.3691 6.62256C64.3691 6.79183 64.4009 6.93831 64.4644 7.06201C64.5295 7.18571 64.6182 7.28011 64.7305 7.34521C64.8444 7.41032 64.9738 7.44287 65.1187 7.44287C65.2635 7.44287 65.388 7.40869 65.4922 7.34033C65.5964 7.27035 65.6753 7.1735 65.729 7.0498C65.7843 6.92611 65.812 6.78369 65.812 6.62256C65.812 6.46143 65.7843 6.31901 65.729 6.19531C65.6753 6.07161 65.5964 5.97559 65.4922 5.90723C65.388 5.83724 65.2635 5.80225 65.1187 5.80225ZM68.0068 5.44092C68.2298 5.44092 68.4308 5.49137 68.6099 5.59228C68.7889 5.6932 68.9289 5.83398 69.0298 6.01465C69.1323 6.19368 69.1836 6.39632 69.1836 6.62256C69.1836 6.8488 69.1323 7.05225 69.0298 7.23291C68.9289 7.41195 68.7889 7.55192 68.6099 7.65283C68.4308 7.75374 68.2298 7.8042 68.0068 7.8042C67.7839 7.8042 67.5828 7.75374 67.4038 7.65283C67.2248 7.55192 67.084 7.41195 66.9814 7.23291C66.8805 7.05225 66.8301 6.8488 66.8301 6.62256C66.8301 6.39632 66.8805 6.19368 66.9814 6.01465C67.084 5.83398 67.2248 5.6932 67.4038 5.59228C67.5828 5.49137 67.7839 5.44092 68.0068 5.44092ZM68.0068 5.80225C67.849 5.80225 67.7098 5.83724 67.5894 5.90723C67.4705 5.97559 67.3786 6.07243 67.3135 6.19775C67.2484 6.32145 67.2158 6.46305 67.2158 6.62256C67.2158 6.78206 67.2484 6.92448 67.3135 7.0498C67.3786 7.1735 67.4705 7.27035 67.5894 7.34033C67.7098 7.40869 67.849 7.44287 68.0068 7.44287C68.1647 7.44287 68.3031 7.40869 68.4219 7.34033C68.5423 7.27035 68.6351 7.1735 68.7002 7.0498C68.7653 6.92448 68.7979 6.78206 68.7979 6.62256C68.7979 6.46305 68.7653 6.32145 68.7002 6.19775C68.6351 6.07243 68.5423 5.97559 68.4219 5.90723C68.3031 5.83724 68.1647 5.80225 68.0068 5.80225ZM71.752 5.44092C71.8789 5.44092 71.9977 5.47347 72.1084 5.53857C72.1735 5.57764 72.2061 5.62809 72.2061 5.68994C72.2061 5.71924 72.1987 5.75342 72.1841 5.79248C72.1499 5.88525 72.1027 5.93164 72.0425 5.93164C72.0181 5.93164 71.9953 5.92513 71.9741 5.91211C71.8944 5.86816 71.8089 5.84619 71.7178 5.84619C71.5713 5.84619 71.424 5.89746 71.2759 6C71.1278 6.10091 71.0057 6.236 70.9097 6.40527C70.8153 6.57454 70.7681 6.75439 70.7681 6.94482V7.41846H71.5908C71.6462 7.41846 71.6852 7.43148 71.708 7.45752C71.7324 7.48193 71.7446 7.52425 71.7446 7.58447C71.7446 7.64469 71.7324 7.68783 71.708 7.71387C71.6852 7.73828 71.6462 7.75049 71.5908 7.75049H70.0186C69.9632 7.75049 69.9233 7.73828 69.8989 7.71387C69.8761 7.68783 69.8647 7.64469 69.8647 7.58447C69.8647 7.52425 69.8761 7.48193 69.8989 7.45752C69.9233 7.43148 69.9632 7.41846 70.0186 7.41846H70.4019V5.82666H70.0918C70.0365 5.82666 69.9966 5.81445 69.9722 5.79004C69.9494 5.764 69.938 5.72087 69.938 5.66064C69.938 5.60042 69.9494 5.55811 69.9722 5.53369C69.9966 5.50765 70.0365 5.49463 70.0918 5.49463H70.5898C70.6452 5.49463 70.6842 5.50765 70.707 5.53369C70.7314 5.55811 70.7437 5.60042 70.7437 5.66064V6.15381C70.8218 6.01058 70.9162 5.88525 71.0269 5.77783C71.1375 5.67041 71.2555 5.5874 71.3809 5.52881C71.5062 5.47021 71.6299 5.44092 71.752 5.44092ZM74.0127 5.44092C74.3187 5.44092 74.5482 5.50928 74.7012 5.646C74.8542 5.78271 74.9307 5.98535 74.9307 6.25391V7.22559C74.9307 7.35417 74.9844 7.41846 75.0918 7.41846H75.1772C75.2326 7.41846 75.2716 7.43148 75.2944 7.45752C75.3188 7.48193 75.3311 7.52425 75.3311 7.58447C75.3311 7.64469 75.3188 7.68783 75.2944 7.71387C75.2716 7.73828 75.2326 7.75049 75.1772 7.75049H75.021C74.9152 7.75049 74.8241 7.72445 74.7476 7.67236C74.6727 7.61865 74.6239 7.54053 74.6011 7.43799C74.4676 7.55518 74.3228 7.64551 74.1665 7.70898C74.0119 7.77246 73.8475 7.8042 73.6733 7.8042C73.509 7.8042 73.3633 7.77653 73.2363 7.72119C73.111 7.66423 73.0125 7.58203 72.9409 7.47461C72.8693 7.36719 72.8335 7.23942 72.8335 7.09131C72.8335 6.83415 72.9255 6.64453 73.1094 6.52246C73.2933 6.39876 73.5309 6.33691 73.8223 6.33691C74.0811 6.33691 74.3285 6.37842 74.5645 6.46143V6.25391C74.5645 6.09603 74.5197 5.98047 74.4302 5.90723C74.3423 5.83236 74.1999 5.79492 74.0029 5.79492C73.8809 5.79492 73.7539 5.81201 73.6221 5.84619C73.4902 5.88037 73.3649 5.92757 73.2461 5.98779C73.2184 6.00244 73.1932 6.00977 73.1704 6.00977C73.1167 6.00977 73.0719 5.9707 73.0361 5.89258C73.0182 5.85352 73.0093 5.82096 73.0093 5.79492C73.0093 5.73796 73.0394 5.69401 73.0996 5.66309C73.2363 5.59147 73.3828 5.53695 73.5391 5.49951C73.6969 5.46045 73.8548 5.44092 74.0127 5.44092ZM73.8247 6.68115C73.6375 6.68115 73.4894 6.7137 73.3804 6.77881C73.2729 6.84229 73.2192 6.94401 73.2192 7.08398C73.2192 7.2028 73.2599 7.29557 73.3413 7.3623C73.4243 7.42741 73.5399 7.45996 73.688 7.45996C74.0119 7.45996 74.304 7.32568 74.5645 7.05713V6.79102C74.4538 6.75521 74.335 6.72835 74.208 6.71045C74.0811 6.69092 73.9533 6.68115 73.8247 6.68115ZM76.6201 4.79883C76.6868 4.79883 76.734 4.81103 76.7617 4.83545C76.7894 4.85986 76.8032 4.90055 76.8032 4.95752V5.68994H77.8066C77.862 5.68994 77.901 5.70296 77.9238 5.729C77.9482 5.75342 77.9604 5.79574 77.9604 5.85596C77.9604 5.91618 77.9482 5.95931 77.9238 5.98535C77.901 6.00977 77.862 6.02197 77.8066 6.02197H76.8032V6.91064C76.8032 7.09619 76.835 7.2321 76.8984 7.31836C76.9635 7.40462 77.0758 7.44775 77.2354 7.44775C77.3444 7.44775 77.4591 7.42578 77.5796 7.38184C77.7 7.33789 77.8164 7.2793 77.9287 7.20605C77.9515 7.18978 77.9767 7.18164 78.0044 7.18164C78.0597 7.18164 78.1069 7.21908 78.146 7.29395C78.1672 7.33626 78.1777 7.37288 78.1777 7.40381C78.1777 7.45589 78.1509 7.49821 78.0972 7.53076C77.9702 7.61051 77.8286 7.67643 77.6724 7.72852C77.5161 7.77897 77.3704 7.8042 77.2354 7.8042C76.9587 7.8042 76.756 7.73258 76.6274 7.58936C76.5005 7.4445 76.437 7.22884 76.437 6.94238V6.02197H75.9414C75.8861 6.02197 75.8462 6.00977 75.8218 5.98535C75.799 5.95931 75.7876 5.91618 75.7876 5.85596C75.7876 5.79574 75.799 5.75342 75.8218 5.729C75.8462 5.70296 75.8861 5.68994 75.9414 5.68994H76.437V4.95752C76.437 4.90055 76.4508 4.85986 76.4785 4.83545C76.5062 4.81103 76.5534 4.79883 76.6201 4.79883ZM80.021 5.44092C80.257 5.44092 80.458 5.48893 80.624 5.58496C80.7917 5.67936 80.9202 5.8112 81.0098 5.98047C81.0993 6.14811 81.1506 6.3418 81.1636 6.56152C81.1636 6.61686 81.1514 6.65592 81.127 6.67871C81.1042 6.7015 81.0651 6.71289 81.0098 6.71289H79.2422C79.2536 6.9554 79.3252 7.13932 79.457 7.26465C79.5905 7.38835 79.7785 7.4502 80.021 7.4502C80.1707 7.4502 80.3188 7.43148 80.4653 7.39404C80.6118 7.35498 80.7404 7.30371 80.8511 7.24023C80.8787 7.22559 80.904 7.21826 80.9268 7.21826C80.9837 7.21826 81.0301 7.26139 81.0659 7.34766C81.0806 7.38184 81.0879 7.41276 81.0879 7.44043C81.0879 7.50553 81.0521 7.55599 80.9805 7.5918C80.8551 7.65527 80.707 7.70654 80.5361 7.74561C80.3652 7.78467 80.1935 7.8042 80.021 7.8042C79.7752 7.8042 79.5653 7.757 79.3911 7.6626C79.217 7.5682 79.0843 7.43229 78.9932 7.25488C78.902 7.07747 78.8564 6.8667 78.8564 6.62256C78.8564 6.38981 78.9061 6.18392 79.0054 6.00488C79.1047 5.82585 79.2422 5.6875 79.418 5.58984C79.5938 5.49056 79.7948 5.44092 80.021 5.44092ZM80.021 5.79492C79.8208 5.79492 79.6548 5.84619 79.5229 5.94873C79.3927 6.04964 79.3073 6.19043 79.2666 6.37109H80.7583C80.7241 6.18392 80.6452 6.0415 80.5215 5.94385C80.3994 5.84456 80.2326 5.79492 80.021 5.79492ZM83.2412 7.03271C83.2689 7.03271 83.29 7.04085 83.3047 7.05713C83.3193 7.07178 83.3267 7.09131 83.3267 7.11572C83.3267 7.13851 83.321 7.16211 83.3096 7.18652L82.792 8.36816C82.7627 8.4349 82.6927 8.46826 82.582 8.46826C82.4648 8.46826 82.4063 8.42757 82.4063 8.34619C82.4063 8.33968 82.4079 8.32666 82.4111 8.30713L82.6406 7.13037C82.6471 7.09945 82.661 7.07585 82.6821 7.05957C82.7049 7.04167 82.7334 7.03271 82.7676 7.03271H83.2412ZM89.9331 4.79883C89.9998 4.79883 90.047 4.81103 90.0747 4.83545C90.1024 4.85986 90.1162 4.90055 90.1162 4.95752V5.76318C90.1162 5.82015 90.1024 5.86084 90.0747 5.88525C90.047 5.90967 89.9998 5.92187 89.9331 5.92187C89.8664 5.92187 89.8192 5.90967 89.7915 5.88525C89.7638 5.86084 89.75 5.82015 89.75 5.76318C89.75 5.65251 89.7248 5.55159 89.6743 5.46045C89.6255 5.3693 89.5498 5.29687 89.4473 5.24316C89.3447 5.18783 89.2178 5.16016 89.0664 5.16016C88.8906 5.16016 88.7344 5.20654 88.5977 5.29932C88.4626 5.39209 88.3568 5.52474 88.2803 5.69727C88.2054 5.86979 88.168 6.07161 88.168 6.30273C88.168 6.53385 88.2038 6.73568 88.2754 6.9082C88.347 7.0791 88.4487 7.21094 88.5806 7.30371C88.7124 7.39648 88.8662 7.44287 89.042 7.44287C89.2031 7.44287 89.3569 7.41927 89.5034 7.37207C89.6499 7.32487 89.7817 7.25651 89.8989 7.16699C89.9266 7.14421 89.9567 7.13281 89.9893 7.13281C90.0381 7.13281 90.0812 7.16455 90.1187 7.22803C90.1479 7.27686 90.1626 7.31999 90.1626 7.35742C90.1626 7.40625 90.1374 7.44857 90.0869 7.48437C89.9355 7.59017 89.7703 7.66992 89.5913 7.72363C89.4139 7.77734 89.2308 7.8042 89.042 7.8042C88.7881 7.8042 88.5659 7.74235 88.3755 7.61865C88.1867 7.49333 88.0402 7.31755 87.936 7.09131C87.8335 6.86507 87.7822 6.60221 87.7822 6.30273C87.7822 6.00488 87.8351 5.74284 87.9409 5.5166C88.0467 5.28874 88.1948 5.11214 88.3853 4.98682C88.5773 4.86149 88.7962 4.79883 89.042 4.79883C89.195 4.79883 89.3309 4.82487 89.4497 4.87695C89.5685 4.92904 89.6686 5.00309 89.75 5.09912V4.95752C89.75 4.90055 89.7638 4.85986 89.7915 4.83545C89.8192 4.81103 89.8664 4.79883 89.9331 4.79883ZM92.7383 5.44092C92.8652 5.44092 92.984 5.47347 93.0947 5.53857C93.1598 5.57764 93.1924 5.62809 93.1924 5.68994C93.1924 5.71924 93.1851 5.75342 93.1704 5.79248C93.1362 5.88525 93.089 5.93164 93.0288 5.93164C93.0044 5.93164 92.9816 5.92513 92.9604 5.91211C92.8807 5.86816 92.7952 5.84619 92.7041 5.84619C92.5576 5.84619 92.4103 5.89746 92.2622 6C92.1141 6.10091 91.992 6.236 91.896 6.40527C91.8016 6.57454 91.7544 6.75439 91.7544 6.94482V7.41846H92.5771C92.6325 7.41846 92.6715 7.43148 92.6943 7.45752C92.7188 7.48193 92.731 7.52425 92.731 7.58447C92.731 7.64469 92.7188 7.68783 92.6943 7.71387C92.6715 7.73828 92.6325 7.75049 92.5771 7.75049H91.0049C90.9495 7.75049 90.9097 7.73828 90.8853 7.71387C90.8625 7.68783 90.8511 7.64469 90.8511 7.58447C90.8511 7.52425 90.8625 7.48193 90.8853 7.45752C90.9097 7.43148 90.9495 7.41846 91.0049 7.41846H91.3882V5.82666H91.0781C91.0228 5.82666 90.9829 5.81445 90.9585 5.79004C90.9357 5.764 90.9243 5.72087 90.9243 5.66064C90.9243 5.60042 90.9357 5.55811 90.9585 5.53369C90.9829 5.50765 91.0228 5.49463 91.0781 5.49463H91.5762C91.6315 5.49463 91.6706 5.50765 91.6934 5.53369C91.7178 5.55811 91.73 5.60042 91.73 5.66064V6.15381C91.8081 6.01058 91.9025 5.88525 92.0132 5.77783C92.1239 5.67041 92.2419 5.5874 92.3672 5.52881C92.4925 5.47021 92.6162 5.44092 92.7383 5.44092ZM95.0112 5.44092C95.2472 5.44092 95.4482 5.48893 95.6143 5.58496C95.7819 5.67936 95.9105 5.8112 96 5.98047C96.0895 6.14811 96.1408 6.3418 96.1538 6.56152C96.1538 6.61686 96.1416 6.65592 96.1172 6.67871C96.0944 6.7015 96.0553 6.71289 96 6.71289H94.2324C94.2438 6.9554 94.3154 7.13932 94.4473 7.26465C94.5807 7.38835 94.7687 7.4502 95.0112 7.4502C95.161 7.4502 95.3091 7.43148 95.4556 7.39404C95.6021 7.35498 95.7306 7.30371 95.8413 7.24023C95.869 7.22559 95.8942 7.21826 95.917 7.21826C95.974 7.21826 96.0203 7.26139 96.0562 7.34766C96.0708 7.38184 96.0781 7.41276 96.0781 7.44043C96.0781 7.50553 96.0423 7.55599 95.9707 7.5918C95.8454 7.65527 95.6973 7.70654 95.5264 7.74561C95.3555 7.78467 95.1838 7.8042 95.0112 7.8042C94.7655 7.8042 94.5555 7.757 94.3813 7.6626C94.2072 7.5682 94.0745 7.43229 93.9834 7.25488C93.8923 7.07747 93.8467 6.8667 93.8467 6.62256C93.8467 6.38981 93.8963 6.18392 93.9956 6.00488C94.0949 5.82585 94.2324 5.6875 94.4082 5.58984C94.584 5.49056 94.785 5.44092 95.0112 5.44092ZM95.0112 5.79492C94.811 5.79492 94.645 5.84619 94.5132 5.94873C94.383 6.04964 94.2975 6.19043 94.2568 6.37109H95.7485C95.7144 6.18392 95.6354 6.0415 95.5117 5.94385C95.3896 5.84456 95.2228 5.79492 95.0112 5.79492ZM97.9971 5.44092C98.3031 5.44092 98.5326 5.50928 98.6855 5.646C98.8385 5.78271 98.915 5.98535 98.915 6.25391V7.22559C98.915 7.35417 98.9688 7.41846 99.0762 7.41846H99.1616C99.217 7.41846 99.256 7.43148 99.2788 7.45752C99.3032 7.48193 99.3154 7.52425 99.3154 7.58447C99.3154 7.64469 99.3032 7.68783 99.2788 7.71387C99.256 7.73828 99.217 7.75049 99.1616 7.75049H99.0054C98.8996 7.75049 98.8084 7.72445 98.7319 7.67236C98.6571 7.61865 98.6082 7.54053 98.5854 7.43799C98.452 7.55518 98.3071 7.64551 98.1509 7.70898C97.9963 7.77246 97.8319 7.8042 97.6577 7.8042C97.4933 7.8042 97.3477 7.77653 97.2207 7.72119C97.0954 7.66423 96.9969 7.58203 96.9253 7.47461C96.8537 7.36719 96.8179 7.23942 96.8179 7.09131C96.8179 6.83415 96.9098 6.64453 97.0938 6.52246C97.2777 6.39876 97.5153 6.33691 97.8066 6.33691C98.0654 6.33691 98.3128 6.37842 98.5488 6.46143V6.25391C98.5488 6.09603 98.5041 5.98047 98.4146 5.90723C98.3267 5.83236 98.1842 5.79492 97.9873 5.79492C97.8652 5.79492 97.7383 5.81201 97.6064 5.84619C97.4746 5.88037 97.3493 5.92757 97.2305 5.98779C97.2028 6.00244 97.1776 6.00977 97.1548 6.00977C97.1011 6.00977 97.0563 5.9707 97.0205 5.89258C97.0026 5.85352 96.9937 5.82096 96.9937 5.79492C96.9937 5.73796 97.0238 5.69401 97.084 5.66309C97.2207 5.59147 97.3672 5.53695 97.5234 5.49951C97.6813 5.46045 97.8392 5.44092 97.9971 5.44092ZM97.8091 6.68115C97.6219 6.68115 97.4738 6.7137 97.3647 6.77881C97.2573 6.84229 97.2036 6.94401 97.2036 7.08398C97.2036 7.2028 97.2443 7.29557 97.3257 7.3623C97.4087 7.42741 97.5243 7.45996 97.6724 7.45996C97.9963 7.45996 98.2884 7.32568 98.5488 7.05713V6.79102C98.4382 6.75521 98.3193 6.72835 98.1924 6.71045C98.0654 6.69092 97.9377 6.68115 97.8091 6.68115ZM100.604 4.79883C100.671 4.79883 100.718 4.81103 100.746 4.83545C100.774 4.85986 100.788 4.90055 100.788 4.95752V5.68994H101.791C101.846 5.68994 101.885 5.70296 101.908 5.729C101.933 5.75342 101.945 5.79574 101.945 5.85596C101.945 5.91618 101.933 5.95931 101.908 5.98535C101.885 6.00977 101.846 6.02197 101.791 6.02197H100.788V6.91064C100.788 7.09619 100.819 7.2321 100.883 7.31836C100.948 7.40462 101.06 7.44775 101.22 7.44775C101.329 7.44775 101.444 7.42578 101.564 7.38184C101.684 7.33789 101.801 7.2793 101.913 7.20605C101.936 7.18978 101.961 7.18164 101.989 7.18164C102.044 7.18164 102.091 7.21908 102.13 7.29395C102.152 7.33626 102.162 7.37288 102.162 7.40381C102.162 7.45589 102.135 7.49821 102.082 7.53076C101.955 7.61051 101.813 7.67643 101.657 7.72852C101.5 7.77897 101.355 7.8042 101.22 7.8042C100.943 7.8042 100.74 7.73258 100.612 7.58936C100.485 7.4445 100.421 7.22884 100.421 6.94238V6.02197H99.9258C99.8704 6.02197 99.8306 6.00977 99.8062 5.98535C99.7834 5.95931 99.772 5.91618 99.772 5.85596C99.772 5.79574 99.7834 5.75342 99.8062 5.729C99.8306 5.70296 99.8704 5.68994 99.9258 5.68994H100.421V4.95752C100.421 4.90055 100.435 4.85986 100.463 4.83545C100.491 4.81103 100.538 4.79883 100.604 4.79883ZM104.005 5.44092C104.241 5.44092 104.442 5.48893 104.608 5.58496C104.776 5.67936 104.905 5.8112 104.994 5.98047C105.084 6.14811 105.135 6.3418 105.148 6.56152C105.148 6.61686 105.136 6.65592 105.111 6.67871C105.089 6.7015 105.049 6.71289 104.994 6.71289H103.227C103.238 6.9554 103.31 7.13932 103.441 7.26465C103.575 7.38835 103.763 7.4502 104.005 7.4502C104.155 7.4502 104.303 7.43148 104.45 7.39404C104.596 7.35498 104.725 7.30371 104.835 7.24023C104.863 7.22559 104.888 7.21826 104.911 7.21826C104.968 7.21826 105.014 7.26139 105.05 7.34766C105.065 7.38184 105.072 7.41276 105.072 7.44043C105.072 7.50553 105.036 7.55599 104.965 7.5918C104.84 7.65527 104.691 7.70654 104.521 7.74561C104.35 7.78467 104.178 7.8042 104.005 7.8042C103.76 7.8042 103.55 7.757 103.375 7.6626C103.201 7.5682 103.069 7.43229 102.978 7.25488C102.886 7.07747 102.841 6.8667 102.841 6.62256C102.841 6.38981 102.89 6.18392 102.99 6.00488C103.089 5.82585 103.227 5.6875 103.402 5.58984C103.578 5.49056 103.779 5.44092 104.005 5.44092ZM104.005 5.79492C103.805 5.79492 103.639 5.84619 103.507 5.94873C103.377 6.04964 103.292 6.19043 103.251 6.37109H104.743C104.708 6.18392 104.63 6.0415 104.506 5.94385C104.384 5.84456 104.217 5.79492 104.005 5.79492Z" fill="#080808"/>
<path fill-rule="evenodd" clip-rule="evenodd" d="M9.56129 12.1354C7.79411 12.5167 5.95897 14.0593 5.05839 15.9485C4.54863 16.9884 4.51464 17.1964 4.51464 18.8949C4.51464 20.5588 4.54863 20.8014 5.00741 21.6507C5.61913 22.8466 6.92752 24.2678 8.33786 25.2731C10.8697 27.0756 12.4499 28.3755 12.7728 28.8781C13.4865 30.074 13.0447 31.6513 11.7363 32.5525C11.2265 32.8992 10.9886 32.9512 10.139 32.8992C9.27243 32.8298 9.06852 32.7432 8.66071 32.2752C8.20192 31.7553 8.16794 31.6166 8.16794 30.1954C8.16794 28.0809 7.99802 27.9075 5.99295 27.9075C3.76699 27.9075 3.75 27.9422 3.75 30.5593C3.75 32.5352 3.78398 32.7432 4.25976 33.7484C5.51718 36.4696 8.35485 37.9254 11.5324 37.4921C13.1806 37.2668 14.54 36.6255 15.5425 35.5683C18.0064 33.0032 18.3802 28.9128 16.4261 26.1917C15.8144 25.3424 14.9818 24.6665 11.5324 22.1187C10.5298 21.3907 9.56129 20.5761 9.39137 20.3161C8.33786 18.7909 9.20446 16.8671 11.0396 16.6764C11.8042 16.6071 11.9232 16.6418 12.4839 17.179C13.0107 17.6817 13.1296 17.9416 13.3335 19.0336C13.4525 19.7442 13.6734 20.4201 13.8093 20.5588C14.1322 20.9054 16.8679 20.9574 17.2587 20.6281C17.4626 20.4548 17.5136 20.0388 17.5136 18.7389C17.5136 17.8203 17.4286 16.7977 17.3437 16.4684C16.8849 14.7526 15.2536 12.9674 13.6054 12.3781C12.6708 12.0488 10.5638 11.9274 9.56129 12.1354Z" fill="black"/>
<path fill-rule="evenodd" clip-rule="evenodd" d="M24.1751 12.8574C23.6469 13.0309 22.8802 13.3779 22.4713 13.6208C21.3298 14.2975 19.8304 16.0153 19.2171 17.334L18.6719 18.5139V24.4133V30.3128L19.2171 31.4926C20.6823 34.6506 24.2262 36.4204 27.6167 35.709C29.3716 35.3273 30.462 34.7547 31.5183 33.6442C32.6599 32.447 32.9665 31.9438 33.4095 30.6598C34.1592 28.4388 33.8014 27.7968 31.7739 27.7968C30.4279 27.7968 30.3086 27.8836 29.6953 29.0982C28.5197 31.4579 25.9129 32.1347 23.8854 30.6077C22.795 29.7749 22.6757 29.2543 22.6757 24.5868C22.6757 22.1056 22.7609 20.1449 22.8632 19.7285C23.1358 18.7221 23.7321 18.0107 24.7543 17.4902C26.5433 16.5879 28.5878 17.1084 29.7634 18.7568C30.462 19.7632 30.7687 19.8846 32.2509 19.7805C33.5117 19.6938 33.8184 19.3815 33.6821 18.3404C33.4266 16.6053 31.7057 14.2802 30.036 13.4126C28.2982 12.5104 25.9299 12.2848 24.1751 12.8574Z" fill="black"/>
<path fill-rule="evenodd" clip-rule="evenodd" d="M35.0135 13.0523C34.8433 13.2255 34.7922 15.5971 34.7922 23.7162C34.7922 35.8342 34.5539 34.6224 36.8521 34.3281C37.6181 34.2415 38.3502 34.0684 38.4693 33.9646C38.6396 33.8261 38.7077 33.0124 38.7417 30.71C38.7928 28.1825 38.8268 27.6632 39.0311 27.6632C39.1843 27.6632 39.7291 28.6672 40.4611 30.3465C41.108 31.8179 41.7549 33.1682 41.8911 33.324C42.2656 33.7568 45.1767 33.7741 45.5853 33.3587C45.7385 33.2202 45.8576 33.0124 45.8576 32.9259C45.8576 32.8393 45.2788 31.5236 44.5809 30.0002C43.8829 28.4768 43.3041 27.1785 43.3041 27.1092C43.3041 27.0227 43.6786 26.6072 44.1382 26.1571C44.5979 25.707 45.1597 24.9626 45.364 24.5125C45.7555 23.7335 45.7725 23.4911 45.7725 20.4789C45.7725 17.311 45.7725 17.259 45.2788 16.203C44.717 14.9566 43.6786 13.8833 42.4869 13.3293C41.7719 13.0004 41.3293 12.9485 38.4523 12.8965C36.0009 12.8619 35.1667 12.8965 35.0135 13.0523ZM40.8527 17.4494C41.6187 17.9515 41.7719 18.4016 41.789 20.2366C41.806 22.1928 41.5676 23.0064 40.8186 23.5431C40.2228 23.9585 39.4737 24.1663 39.0311 24.0278C38.7247 23.9239 38.7077 23.7162 38.7077 20.6521C38.7077 17.7264 38.7417 17.3629 39.0141 17.1898C39.3716 16.9647 40.3249 17.0859 40.8527 17.4494Z" fill="black"/>
<path fill-rule="evenodd" clip-rule="evenodd" d="M47.6559 13.2004C47.4012 13.4939 47.3672 14.4261 47.3672 22.9542C47.3672 30.0149 47.4181 32.5008 47.571 32.8461L47.7747 33.3122L49.6595 33.1914C50.6783 33.1396 53.3273 33.036 55.5177 32.9842C58.744 32.8979 59.559 32.8116 59.8137 32.6044C60.0514 32.3973 60.1024 32.052 60.1024 30.7573C60.1024 29.7732 60.0345 29.1172 59.8986 28.9791C59.7458 28.8238 58.6081 28.772 55.8064 28.772C53.4631 28.772 51.799 28.7029 51.5953 28.5993C51.3236 28.444 51.2726 28.2195 51.2726 27.0629C51.2726 26.1652 51.3406 25.6473 51.4934 25.5264C51.6123 25.4229 52.3254 25.3193 53.0556 25.302C55.1272 25.233 55.1781 25.1812 55.1781 22.9369C55.1781 21.7112 55.1102 21.0034 54.9743 20.8653C54.8555 20.7445 54.2272 20.6582 53.3442 20.6582C51.3576 20.6582 51.2726 20.5891 51.2726 19.0354C51.2726 17.1537 51.1368 17.2055 55.6196 17.2055C60.2892 17.2055 60.1024 17.2918 60.1024 15.1166C60.1024 12.6652 60.7307 12.8897 53.8367 12.8897C48.3351 12.8897 47.9106 12.9069 47.6559 13.2004Z" fill="black"/>
<path fill-rule="evenodd" clip-rule="evenodd" d="M61.9098 13.2004C61.6551 13.4939 61.6211 14.4261 61.6211 22.9542C61.6211 30.0149 61.672 32.5008 61.8249 32.8461L62.0286 33.3122L63.9134 33.1914C64.9322 33.1396 67.5812 33.036 69.7716 32.9842C72.9979 32.8979 73.8129 32.8116 74.0676 32.6044C74.3054 32.3973 74.3563 32.052 74.3563 30.7573C74.3563 29.7732 74.2884 29.1172 74.1525 28.9791C73.9997 28.8238 72.862 28.772 70.0603 28.772C67.717 28.772 66.0529 28.7029 65.8492 28.5993C65.5775 28.444 65.5266 28.2195 65.5266 27.0629C65.5266 26.1652 65.5945 25.6473 65.7473 25.5264C65.8662 25.4229 66.5793 25.3193 67.3095 25.302C69.3811 25.233 69.432 25.1812 69.432 22.9369C69.432 21.7112 69.3641 21.0034 69.2283 20.8653C69.1094 20.7445 68.4811 20.6582 67.5982 20.6582C65.6115 20.6582 65.5266 20.5891 65.5266 19.0354C65.5266 17.1537 65.3907 17.2055 69.8735 17.2055C74.5431 17.2055 74.3563 17.2918 74.3563 15.1166C74.3563 12.6652 74.9846 12.8897 68.0906 12.8897C62.589 12.8897 62.1645 12.9069 61.9098 13.2004Z" fill="black"/>
<path fill-rule="evenodd" clip-rule="evenodd" d="M89.0707 13.144C88.917 13.3172 88.8658 15.2566 88.8317 20.5379C88.7805 29.698 88.9 33.0919 89.2414 33.317C89.617 33.5595 92.3825 33.5248 92.6215 33.2824C92.7581 33.1439 92.8264 32.2435 92.8264 30.356C92.8264 27.3084 92.7581 27.4296 94.2263 27.4296C96.0188 27.4296 98.0674 25.9578 99.0063 24.0011C99.5696 22.8409 99.5697 22.8409 99.5526 20.2435C99.5526 17.9925 99.5014 17.5249 99.177 16.6938C98.4941 14.9102 97.2308 13.5942 95.7456 13.0921C95.3871 12.9709 94.0043 12.8843 92.2289 12.8843C89.856 12.8843 89.2414 12.9362 89.0707 13.144ZM94.5165 17.3691C95.4554 18.0271 95.6432 18.5119 95.6432 20.1223C95.6261 22.3907 94.9774 23.4297 93.5605 23.447H92.8264V20.2609C92.8264 17.3691 92.8605 17.0574 93.1337 16.9881C93.5434 16.8843 94.0385 17.0228 94.5165 17.3691Z" fill="black"/>
<path fill-rule="evenodd" clip-rule="evenodd" d="M100.724 13.3327C100.622 13.5914 100.555 17.7136 100.555 23.8193C100.555 33.1848 100.572 33.892 100.859 34.1334C101.045 34.3059 101.67 34.4611 102.583 34.5301C103.378 34.5991 105.001 34.7888 106.218 34.9613C108.145 35.2373 108.449 35.2545 108.686 35.0303C108.838 34.8923 109.125 33.961 109.345 32.8744C109.852 30.3907 109.903 30.4424 107.114 30.3044C105.964 30.2527 104.933 30.1492 104.831 30.0802C104.662 29.9767 104.612 28.0967 104.612 21.6806C104.612 14.4021 104.578 13.4017 104.341 13.1602C104.138 12.9533 103.716 12.8843 102.482 12.8843C100.927 12.8843 100.876 12.9015 100.724 13.3327Z" fill="black"/>
<path fill-rule="evenodd" clip-rule="evenodd" d="M110.49 13.1931C110.252 13.4695 109.842 14.9034 107.983 22.0554C107.574 23.662 106.602 27.9462 106.602 28.1881C106.602 28.2227 106.721 28.3781 106.874 28.5163C107.096 28.7409 107.608 28.7927 109.808 28.7927C111.275 28.7927 112.588 28.8618 112.708 28.9309C112.878 29.0519 113.271 30.6412 114.106 34.77C114.209 35.271 114.43 35.7892 114.584 35.9275C114.908 36.2211 117.671 36.6703 118.098 36.5148C118.473 36.3593 118.439 35.9793 117.876 33.6644C117.586 32.5588 117.211 30.8312 117.006 29.8293C116.818 28.8273 116.29 26.3396 115.829 24.3012C115.369 22.2627 114.635 18.9976 114.192 17.0455C113.748 15.0761 113.288 13.3831 113.134 13.2104C112.742 12.7785 110.866 12.7785 110.49 13.1931ZM112.043 22.5736C112.23 23.3683 112.333 24.0938 112.298 24.1629C112.179 24.353 110.866 24.3357 110.866 24.1457C110.866 23.9211 111.36 21.5025 111.463 21.2089C111.599 20.8288 111.684 21.0188 112.043 22.5736Z" fill="black"/>
<path fill-rule="evenodd" clip-rule="evenodd" d="M114.784 13.1611C114.664 13.2991 114.613 13.558 114.664 13.7133C114.852 14.3864 116.88 19.7364 118.124 22.9119L119.436 26.2773L119.555 28.7797C119.623 30.1604 119.692 32.4557 119.709 33.8881C119.726 36.1317 119.76 36.5286 120.032 36.753C120.186 36.9083 121.004 37.1327 121.839 37.2535C123.253 37.4606 123.355 37.4606 123.577 37.1499C123.764 36.8911 123.816 35.7865 123.816 31.9034C123.833 27.5544 123.867 26.8641 124.139 26.1047C124.582 24.8621 125.298 23.0327 125.946 21.445C126.253 20.6856 126.645 19.6674 126.798 19.2014C127.105 18.3213 127.207 18.0796 128.4 15.4391C129.49 13.023 129.422 12.9022 126.934 12.9022C125.418 12.9022 125.145 12.954 124.872 13.2473C124.702 13.4372 124.156 14.7661 123.645 16.2158C122.163 20.513 122.094 20.6684 121.856 20.6684C121.532 20.6684 121.549 20.7029 120.22 16.837C119.572 14.9214 118.942 13.2473 118.839 13.1265C118.567 12.7814 115.073 12.8159 114.784 13.1611Z" fill="black"/>
<path fill-rule="evenodd" clip-rule="evenodd" d="M127.866 30.3715C127.089 30.6252 126.701 30.9127 126.195 31.6062C125.098 33.1116 125.925 35.2598 127.798 35.7841C128.963 36.1055 130.398 35.4458 130.921 34.3633C131.343 33.4837 131.343 32.7564 130.938 31.9445C130.549 31.1664 130.161 30.8112 129.351 30.4729C128.676 30.2023 128.524 30.1854 127.866 30.3715Z" fill="black"/>
<path fill-rule="evenodd" clip-rule="evenodd" d="M59.4748 37.2655C59.3238 37.4218 59.2734 38.6201 59.2734 41.5898C59.2734 45.6536 59.2734 45.7231 59.6425 45.9836C60.1626 46.3657 60.884 46.3309 61.2866 45.9141C61.6054 45.5842 61.6221 45.341 61.6221 41.6419C61.6221 39.2801 61.555 37.5955 61.4544 37.3871C61.3202 37.1266 61.1021 37.0571 60.4813 37.0571C60.0284 37.0571 59.5922 37.144 59.4748 37.2655Z" fill="black"/>
<path fill-rule="evenodd" clip-rule="evenodd" d="M64.2889 37.4043C64.1683 37.6472 64.1166 39.1225 64.1511 41.7606C64.2028 45.4922 64.22 45.7872 64.5302 46.0128C64.9954 46.3426 65.9086 46.3253 66.2015 45.9781C66.3565 45.7872 66.4772 45.0583 66.5288 44.0169C66.5805 43.0797 66.6839 42.3507 66.7873 42.3507C66.9251 42.3681 67.8383 43.5309 69.4235 45.7178C69.6647 46.0476 69.9059 46.1343 70.5434 46.1691C71.0776 46.1691 71.4394 46.0996 71.5772 45.9261C71.8529 45.5963 71.9735 38.22 71.7151 37.5257C71.56 37.1092 71.4566 37.0571 70.6985 37.0571C70.2505 37.0571 69.7853 37.1439 69.6647 37.2654C69.5269 37.4043 69.4579 38.1159 69.4579 39.3481C69.4579 40.4242 69.389 41.2226 69.2856 41.2226C69.1995 41.2226 68.4931 40.2854 67.7349 39.1399L66.3221 37.0571H65.3917C64.6508 37.0571 64.444 37.1266 64.2889 37.4043Z" fill="black"/>
<path fill-rule="evenodd" clip-rule="evenodd" d="M74.6615 37.335C74.4211 37.5608 74.3867 38.2033 74.3867 41.6593C74.3867 45.6536 74.3867 45.7231 74.7646 45.9836C75.297 46.3657 76.0356 46.3309 76.4478 45.9141C76.7226 45.6363 76.7913 45.341 76.7913 44.2643C76.7913 43.0139 76.8085 42.9618 77.1349 43.1355C77.3066 43.2397 77.8906 43.9343 78.4402 44.6811C79.299 45.9141 79.4708 46.0531 80.0891 46.1573C80.7933 46.2788 81.6006 45.9489 81.6006 45.5494C81.6006 45.4626 80.9823 44.4553 80.2265 43.3091L78.8353 41.2251L79.4193 40.3047C79.7456 39.8184 80.2265 39.2106 80.4842 38.9675C80.7418 38.7243 81.0682 38.3075 81.2056 38.047C81.5663 37.335 81.2743 37.0571 80.1235 37.0571H79.2132L78.1311 38.4465C77.5299 39.2106 76.9975 39.8358 76.9459 39.8358C76.8772 39.8358 76.7913 39.2801 76.757 38.6028C76.7226 37.7865 76.6196 37.335 76.4478 37.2308C76.0356 36.9703 74.9535 37.0398 74.6615 37.335Z" fill="black"/>
<path fill-rule="evenodd" clip-rule="evenodd" d="M48.2329 40.8549C47.7529 41.3486 47.7529 41.5018 48.25 41.9614C48.6272 42.3189 48.7815 42.3359 52.2444 42.3359C56.1531 42.3359 56.5988 42.2338 56.5988 41.3997C56.5988 40.5144 56.3759 40.4634 52.3301 40.4634C48.6615 40.4634 48.5929 40.4634 48.2329 40.8549Z" fill="black"/>
<path fill-rule="evenodd" clip-rule="evenodd" d="M82.9608 40.7357C82.4965 41.0592 82.4793 41.5529 82.9264 41.9955C83.2532 42.3189 83.494 42.3359 86.8646 42.3359H90.4761L90.82 41.8933C91.2672 41.3316 91.2672 41.2294 90.8372 40.8038C90.5105 40.4804 90.2697 40.4634 86.9162 40.4634C83.9583 40.4634 83.2876 40.5144 82.9608 40.7357Z" fill="black"/>
<path fill-rule="evenodd" clip-rule="evenodd" d="M76.5985 13.092C76.4455 13.2478 76.3945 15.6363 76.3945 22.7673C76.3945 31.1444 76.4285 32.2694 76.6665 32.5118C76.9894 32.8579 79.6071 32.9098 79.93 32.581C80.083 32.4252 80.134 31.0752 80.134 27.5962C80.151 22.0576 80.032 22.1268 81.7997 26.6443C83.3805 30.6771 84.0094 32.1137 84.3154 32.4598C84.5533 32.7194 84.8593 32.7887 85.9131 32.7887C86.695 32.7887 87.2899 32.7021 87.4089 32.581C87.7318 32.2521 87.6979 13.3516 87.3749 13.0747C87.2219 12.9362 86.576 12.8843 85.5562 12.9189L83.9584 12.9708L83.8734 18.0767L83.7884 23.1826L82.3946 19.6345C81.6298 17.6786 80.7969 15.5324 80.5589 14.8747C79.828 12.867 79.845 12.8843 78.2133 12.8843C77.3464 12.8843 76.7175 12.9708 76.5985 13.092Z" fill="black"/>
</svg>
