<svg width="40" height="41" viewBox="0 0 40 41" fill="none" xmlns="http://www.w3.org/2000/svg">
<rect y="0.579224" width="39.2584" height="40" rx="12" fill="white"/>
<path fill-rule="evenodd" clip-rule="evenodd" d="M15.2957 13.9126C14.145 13.9126 13.2094 14.8842 13.2094 16.0792C13.2094 22.2359 18.0328 27.2459 23.962 27.2459C25.1118 27.2459 26.0483 26.2742 26.0483 25.0792C26.0483 24.9867 26.0427 24.8959 26.0314 24.8059L22.3242 23.9226C22.2504 24.0692 22.1693 24.2284 22.0955 24.3767C21.7296 25.1017 21.4648 25.6284 20.7891 25.3459C18.1363 24.3792 15.9705 22.1292 15.0277 19.3409C14.7412 18.6867 15.2869 18.3901 15.9786 18.0151C16.119 17.9384 16.2706 17.8559 16.4095 17.7809L15.5589 13.9301C15.4698 13.9184 15.3832 13.9126 15.2957 13.9126ZM23.962 28.9126C17.1477 28.9126 11.6045 23.1559 11.6045 16.0792C11.6045 13.9651 13.2599 12.2459 15.2957 12.2459C15.5043 12.2459 15.7105 12.2642 15.9103 12.3001C16.1053 12.3326 16.3011 12.3842 16.4921 12.4526C16.7529 12.5467 16.9495 12.7742 17.0113 13.0542L18.1098 18.0242C18.1708 18.2976 18.0946 18.5842 17.9068 18.7876C17.7977 18.9059 17.7953 18.9084 16.8002 19.4492C17.6059 21.2609 19.0061 22.7101 20.7153 23.5184C21.2369 22.4842 21.2401 22.4809 21.3541 22.3676C21.5498 22.1726 21.8275 22.0967 22.0891 22.1567L26.8756 23.2976C27.1444 23.3617 27.3635 23.5651 27.4534 23.8359C27.5191 24.0326 27.5689 24.2359 27.6018 24.4451C27.6355 24.6509 27.6532 24.8642 27.6532 25.0792C27.6532 27.1934 25.9969 28.9126 23.962 28.9126Z" fill="#231F20"/>
<mask id="mask0_83_11771" style="mask-type:luminance" maskUnits="userSpaceOnUse" x="11" y="12" width="17" height="17">
<path fill-rule="evenodd" clip-rule="evenodd" d="M15.2957 13.9126C14.145 13.9126 13.2094 14.8842 13.2094 16.0792C13.2094 22.2359 18.0328 27.2459 23.962 27.2459C25.1118 27.2459 26.0483 26.2742 26.0483 25.0792C26.0483 24.9867 26.0427 24.8959 26.0314 24.8059L22.3242 23.9226C22.2504 24.0692 22.1693 24.2284 22.0955 24.3767C21.7296 25.1017 21.4648 25.6284 20.7891 25.3459C18.1363 24.3792 15.9705 22.1292 15.0277 19.3409C14.7412 18.6867 15.2869 18.3901 15.9786 18.0151C16.119 17.9384 16.2706 17.8559 16.4095 17.7809L15.5589 13.9301C15.4698 13.9184 15.3832 13.9126 15.2957 13.9126ZM23.962 28.9126C17.1477 28.9126 11.6045 23.1559 11.6045 16.0792C11.6045 13.9651 13.2599 12.2459 15.2957 12.2459C15.5043 12.2459 15.7105 12.2642 15.9103 12.3001C16.1053 12.3326 16.3011 12.3842 16.4921 12.4526C16.7529 12.5467 16.9495 12.7742 17.0113 13.0542L18.1098 18.0242C18.1708 18.2976 18.0946 18.5842 17.9068 18.7876C17.7977 18.9059 17.7953 18.9084 16.8002 19.4492C17.6059 21.2609 19.0061 22.7101 20.7153 23.5184C21.2369 22.4842 21.2401 22.4809 21.3541 22.3676C21.5498 22.1726 21.8275 22.0967 22.0891 22.1567L26.8756 23.2976C27.1444 23.3617 27.3635 23.5651 27.4534 23.8359C27.5191 24.0326 27.5689 24.2359 27.6018 24.4451C27.6355 24.6509 27.6532 24.8642 27.6532 25.0792C27.6532 27.1934 25.9969 28.9126 23.962 28.9126Z" fill="white"/>
</mask>
<g mask="url(#mask0_83_11771)">
<rect x="10" y="10.5792" width="19.2584" height="20" fill="#653EFF"/>
</g>
</svg>
