<svg width="17" height="17" viewBox="0 0 17 17" fill="none" xmlns="http://www.w3.org/2000/svg">
<g id="ink-bottle-svgrepo-com 1" clip-path="url(#clip0_7099_35632)">
<g id="Group">
<g id="Group_2">
<g id="Group_3">
<g id="Vector">
<path d="M11.3157 4.67019V3.17664C11.8359 2.97762 12.2054 2.47405 12.2054 1.88392C12.2053 1.11961 11.5857 0.5 10.8214 0.5H6.17527C5.41097 0.5 4.79131 1.11961 4.79131 1.88392C4.79131 2.4741 5.16081 2.97762 5.68101 3.17664V4.67019C3.81178 4.91121 2.36719 6.50758 2.36719 8.44244V12.6952C2.36719 14.7966 4.0707 16.5 6.17209 16.5H10.8245C12.926 16.5 14.6295 14.7965 14.6295 12.6952V8.44244C14.6295 6.50758 13.1849 4.91121 11.3157 4.67019ZM10.6973 12.3413H6.29926C5.13093 12.3413 4.18378 11.3942 4.18378 10.2257C4.18378 9.05732 5.13093 8.11017 6.2993 8.11017H10.6973C11.8657 8.11017 12.8128 9.05732 12.8128 10.2257C12.8128 11.3942 11.8657 12.3413 10.6973 12.3413Z" fill="#F28C99"/>
<path d="M11.3157 4.67019V3.17664C11.8359 2.97762 12.2054 2.47405 12.2054 1.88392C12.2053 1.11961 11.5857 0.5 10.8214 0.5H6.17527C5.41097 0.5 4.79131 1.11961 4.79131 1.88392C4.79131 2.4741 5.16081 2.97762 5.68101 3.17664V4.67019C3.81178 4.91121 2.36719 6.50758 2.36719 8.44244V12.6952C2.36719 14.7966 4.0707 16.5 6.17209 16.5H10.8245C12.926 16.5 14.6295 14.7965 14.6295 12.6952V8.44244C14.6295 6.50758 13.1849 4.91121 11.3157 4.67019ZM10.6973 12.3413H6.29926C5.13093 12.3413 4.18378 11.3942 4.18378 10.2257C4.18378 9.05732 5.13093 8.11017 6.2993 8.11017H10.6973C11.8657 8.11017 12.8128 9.05732 12.8128 10.2257C12.8128 11.3942 11.8657 12.3413 10.6973 12.3413Z" fill="black" fill-opacity="0.2"/>
</g>
<g id="Group_4">
<g id="Vector_2">
<path d="M5.86869 8.83423H5.8548C5.68498 8.83423 5.54688 8.97234 5.54688 9.1421V11.2561C5.54688 11.4259 5.68503 11.564 5.8548 11.564H5.86869C6.03846 11.564 6.17657 11.4259 6.17657 11.2561V9.1421C6.17661 8.97234 6.0385 8.83423 5.86869 8.83423Z" fill="#F28C99"/>
<path d="M5.86869 8.83423H5.8548C5.68498 8.83423 5.54688 8.97234 5.54688 9.1421V11.2561C5.54688 11.4259 5.68503 11.564 5.8548 11.564H5.86869C6.03846 11.564 6.17657 11.4259 6.17657 11.2561V9.1421C6.17661 8.97234 6.0385 8.83423 5.86869 8.83423Z" fill="black" fill-opacity="0.2"/>
</g>
<g id="Vector_3">
<path d="M8.5684 8.83423H8.55436C8.38464 8.83423 8.24658 8.97234 8.24658 9.1421V10.3439L7.24252 8.96121C7.18471 8.88173 7.09156 8.83423 6.99346 8.83423H6.93687C6.76706 8.83423 6.62891 8.97234 6.62891 9.1421V11.2561C6.62891 11.4259 6.76706 11.564 6.93687 11.564H6.95068C7.12049 11.564 7.25864 11.4259 7.25864 11.2561V10.0543L8.26256 11.437C8.32033 11.5165 8.41353 11.5639 8.51176 11.5639H8.56835C8.73807 11.5639 8.87609 11.4258 8.87609 11.2561V9.14206C8.87622 8.97234 8.73812 8.83423 8.5684 8.83423Z" fill="#F28C99"/>
<path d="M8.5684 8.83423H8.55436C8.38464 8.83423 8.24658 8.97234 8.24658 9.1421V10.3439L7.24252 8.96121C7.18471 8.88173 7.09156 8.83423 6.99346 8.83423H6.93687C6.76706 8.83423 6.62891 8.97234 6.62891 9.1421V11.2561C6.62891 11.4259 6.76706 11.564 6.93687 11.564H6.95068C7.12049 11.564 7.25864 11.4259 7.25864 11.2561V10.0543L8.26256 11.437C8.32033 11.5165 8.41353 11.5639 8.51176 11.5639H8.56835C8.73807 11.5639 8.87609 11.4258 8.87609 11.2561V9.14206C8.87622 8.97234 8.73812 8.83423 8.5684 8.83423Z" fill="black" fill-opacity="0.2"/>
</g>
<g id="Vector_4">
<path d="M11.3802 11.0619L10.5995 10.1015L11.2946 9.35143C11.3777 9.26155 11.3999 9.13102 11.351 9.0188C11.3019 8.90667 11.1911 8.83423 11.0687 8.83423H11.0476C10.9618 8.83423 10.8794 8.87033 10.8213 8.93337L9.95391 9.8733V9.1421C9.95391 8.97234 9.8158 8.83423 9.64604 8.83423H9.63209C9.46233 8.83423 9.32422 8.97234 9.32422 9.1421V11.2561C9.32422 11.4259 9.46233 11.564 9.63209 11.564H9.64604C9.8158 11.564 9.95391 11.4259 9.95391 11.2561V10.8003L10.1666 10.5695L10.8805 11.4501C10.9392 11.5225 11.0265 11.5641 11.1198 11.5641H11.1414C11.2597 11.5641 11.3688 11.4952 11.4196 11.3885C11.4701 11.2816 11.4547 11.1534 11.3802 11.0619Z" fill="#F28C99"/>
<path d="M11.3802 11.0619L10.5995 10.1015L11.2946 9.35143C11.3777 9.26155 11.3999 9.13102 11.351 9.0188C11.3019 8.90667 11.1911 8.83423 11.0687 8.83423H11.0476C10.9618 8.83423 10.8794 8.87033 10.8213 8.93337L9.95391 9.8733V9.1421C9.95391 8.97234 9.8158 8.83423 9.64604 8.83423H9.63209C9.46233 8.83423 9.32422 8.97234 9.32422 9.1421V11.2561C9.32422 11.4259 9.46233 11.564 9.63209 11.564H9.64604C9.8158 11.564 9.95391 11.4259 9.95391 11.2561V10.8003L10.1666 10.5695L10.8805 11.4501C10.9392 11.5225 11.0265 11.5641 11.1198 11.5641H11.1414C11.2597 11.5641 11.3688 11.4952 11.4196 11.3885C11.4701 11.2816 11.4547 11.1534 11.3802 11.0619Z" fill="black" fill-opacity="0.2"/>
</g>
</g>
</g>
</g>
</g>
</g>
<defs>
<clipPath id="clip0_7099_35632">
<rect width="16" height="16" fill="white" transform="translate(0.5 0.5)"/>
</clipPath>
</defs>
</svg>
