<svg width="40" height="40" viewBox="0 0 40 40" fill="none" xmlns="http://www.w3.org/2000/svg">
<rect width="40" height="40" rx="12" fill="#212131"/>
<path d="M20.4019 16.9054H19.1951V21.6602L23.0166 23.9188L23.6201 22.944L20.4019 21.0659V16.9054ZM24.2935 12L28 15.0471L26.9702 16.2635L23.2612 13.218L24.2935 12ZM15.7057 12L16.7372 13.2172L13.0298 16.2635L12 15.0463L15.7057 12ZM19.9996 13.7355C16.001 13.7355 12.7587 16.9292 12.7587 20.8678C12.7587 24.8063 16.001 28 19.9996 28C23.9982 28 27.2405 24.8063 27.2405 20.8678C27.2405 16.9292 23.9982 13.7355 19.9996 13.7355ZM19.9996 26.4151C16.8941 26.4151 14.3678 23.9267 14.3678 20.8678C14.3678 17.8088 16.8941 15.3205 19.9996 15.3205C23.1051 15.3205 25.6314 17.8088 25.6314 20.8678C25.6314 23.9267 23.1051 26.4151 19.9996 26.4151Z" fill="white"/>
</svg>
