<svg width="70" height="40" viewBox="0 0 44 32" fill="none" xmlns="http://www.w3.org/2000/svg">
<rect x="0.5" y="0.5" width="43" height="31" rx="5.5" fill="white"/>
<rect x="0.5" y="0.5" width="43" height="31" rx="5.5" stroke="#BABABF"/>
<path d="M7.204 22.262V21.818H10.036V22.262H8.896V26H8.35V22.262H7.204ZM10.7081 26V22.712H11.2541V26H10.7081ZM10.9901 22.178C10.7801 22.178 10.6181 22.016 10.6181 21.806C10.6181 21.596 10.7801 21.434 10.9901 21.434C11.1881 21.434 11.3501 21.596 11.3501 21.806C11.3501 22.016 11.1881 22.178 10.9901 22.178ZM12.3047 25.1V23.162H11.8787V22.712H12.3047V21.884H12.8507V22.712H13.7087V23.162H12.8507V25.1C12.8507 25.424 12.9707 25.538 13.3067 25.538H13.7087V26H13.2167C12.6347 26 12.3047 25.76 12.3047 25.1ZM14.3702 26V21.56H14.9162V26H14.3702ZM17.2448 23.12C16.7108 23.12 16.2668 23.474 16.2068 24.116H18.2828C18.2888 23.474 17.8088 23.12 17.2448 23.12ZM18.7808 24.986C18.6128 25.586 18.0848 26.054 17.2688 26.054C16.3328 26.054 15.6428 25.394 15.6428 24.35C15.6428 23.312 16.3088 22.658 17.2688 22.658C18.2228 22.658 18.8468 23.33 18.8468 24.23C18.8468 24.35 18.8408 24.446 18.8288 24.56H16.2008C16.2428 25.226 16.7108 25.592 17.2688 25.592C17.7608 25.592 18.0728 25.34 18.1928 24.986H18.7808ZM21.7131 23.804H22.5171C23.1411 23.804 23.4051 23.51 23.4051 23.042C23.4051 22.556 23.1411 22.268 22.5171 22.268H21.7131V23.804ZM23.9631 23.042C23.9631 23.678 23.5551 24.254 22.5171 24.254H21.7131V26H21.1671V21.818H22.5171C23.5011 21.818 23.9631 22.358 23.9631 23.042ZM24.4377 24.344C24.4377 23.318 25.1157 22.658 25.9977 22.658C26.6097 22.658 27.0297 22.97 27.2217 23.312V22.712H27.7737V26H27.2217V25.388C27.0237 25.742 26.5977 26.054 25.9917 26.054C25.1157 26.054 24.4377 25.364 24.4377 24.344ZM27.2217 24.35C27.2217 23.588 26.7057 23.132 26.1057 23.132C25.5057 23.132 24.9957 23.57 24.9957 24.344C24.9957 25.118 25.5057 25.574 26.1057 25.574C26.7057 25.574 27.2217 25.124 27.2217 24.35ZM28.4924 24.344C28.4924 23.318 29.1704 22.658 30.0524 22.658C30.6524 22.658 31.0844 22.958 31.2764 23.312V22.712H31.8284V26.072C31.8284 26.978 31.2224 27.62 30.2564 27.62C29.3924 27.62 28.7744 27.182 28.6664 26.48H29.2064C29.3264 26.876 29.7164 27.146 30.2564 27.146C30.8384 27.146 31.2764 26.774 31.2764 26.072V25.382C31.0784 25.736 30.6524 26.054 30.0524 26.054C29.1704 26.054 28.4924 25.364 28.4924 24.344ZM31.2764 24.35C31.2764 23.588 30.7604 23.132 30.1604 23.132C29.5604 23.132 29.0504 23.57 29.0504 24.344C29.0504 25.118 29.5604 25.574 30.1604 25.574C30.7604 25.574 31.2764 25.124 31.2764 24.35ZM34.1491 23.12C33.6151 23.12 33.1711 23.474 33.1111 24.116H35.1871C35.1931 23.474 34.7131 23.12 34.1491 23.12ZM35.6851 24.986C35.5171 25.586 34.9891 26.054 34.1731 26.054C33.2371 26.054 32.5471 25.394 32.5471 24.35C32.5471 23.312 33.2131 22.658 34.1731 22.658C35.1271 22.658 35.7511 23.33 35.7511 24.23C35.7511 24.35 35.7451 24.446 35.7331 24.56H33.1051C33.1471 25.226 33.6151 25.592 34.1731 25.592C34.6651 25.592 34.9771 25.34 35.0971 24.986H35.6851Z" fill="black"/>
<path d="M25.1006 6.73047L25.2031 8.9043H24.9434C24.8932 8.52148 24.8249 8.24805 24.7383 8.08398C24.597 7.81966 24.4079 7.62598 24.1709 7.50293C23.9385 7.37533 23.6309 7.31152 23.248 7.31152H21.9424V14.3936C21.9424 14.9632 22.0039 15.3187 22.127 15.46C22.3001 15.6514 22.5667 15.7471 22.9268 15.7471H23.248V16H19.3174V15.7471H19.6455C20.0374 15.7471 20.3154 15.6286 20.4795 15.3916C20.5798 15.2458 20.6299 14.9131 20.6299 14.3936V7.31152H19.5156C19.0827 7.31152 18.7751 7.34342 18.5928 7.40723C18.3558 7.49382 18.153 7.66016 17.9844 7.90625C17.8158 8.15234 17.7155 8.48503 17.6836 8.9043H17.4238L17.5332 6.73047H25.1006Z" fill="black"/>
</svg>
