<svg width="24" height="24" viewBox="0 0 24 24" fill="none" xmlns="http://www.w3.org/2000/svg">
<rect x="0.375" y="0.375" width="23.25" height="23.25" rx="2.625" stroke="black" stroke-opacity="0.1" stroke-width="0.75"/>
<path d="M5.75 17.6525H10.75C10.9158 17.6525 11.0747 17.5867 11.1919 17.4695C11.3092 17.3523 11.375 17.1933 11.375 17.0275C11.375 16.8618 11.3092 16.7028 11.1919 16.5856C11.0747 16.4684 10.9158 16.4025 10.75 16.4025H6.41937C6.57104 15.3618 7.09196 14.4103 7.88703 13.7219C8.6821 13.0334 9.69827 12.6538 10.75 12.6525C11.4859 12.6589 12.2009 12.4076 12.771 11.9422C13.3411 11.4768 13.7304 10.8266 13.8714 10.1043C14.0124 9.38197 13.8963 8.63308 13.5432 7.9874C13.19 7.34171 12.6221 6.83993 11.9378 6.56902C11.2535 6.29811 10.4961 6.27514 9.79662 6.50409C9.09719 6.73303 8.4999 7.19948 8.10826 7.82257C7.71663 8.44567 7.55534 9.18614 7.65234 9.91567C7.74935 10.6452 8.09853 11.3178 8.63937 11.8169C7.602 12.2377 6.7136 12.9582 6.08763 13.8863C5.46165 14.8144 5.12651 15.9081 5.125 17.0275C5.125 17.1933 5.19085 17.3523 5.30806 17.4695C5.42527 17.5867 5.58424 17.6525 5.75 17.6525ZM10.75 7.65254C11.1208 7.65254 11.4834 7.76251 11.7917 7.96853C12.1 8.17456 12.3404 8.4674 12.4823 8.81001C12.6242 9.15262 12.6613 9.52962 12.589 9.89333C12.5166 10.257 12.338 10.5911 12.0758 10.8534C11.8136 11.1156 11.4795 11.2942 11.1158 11.3665C10.7521 11.4389 10.3751 11.4017 10.0325 11.2598C9.68986 11.1179 9.39702 10.8776 9.19099 10.5692C8.98497 10.2609 8.875 9.89838 8.875 9.52754C8.875 9.03026 9.07254 8.55334 9.42417 8.20171C9.7758 7.85008 10.2527 7.65254 10.75 7.65254ZM18.5912 14.2775H18.1494C18.0912 14.2764 18.0347 14.258 17.987 14.2246C17.9394 14.1912 17.9028 14.1444 17.8819 14.09V14.0863C17.8579 14.0331 17.8503 13.974 17.8602 13.9165C17.8702 13.859 17.8971 13.8058 17.9375 13.7638L18.25 13.4513C18.2764 13.4249 18.2974 13.3936 18.3117 13.3591C18.326 13.3246 18.3334 13.2877 18.3334 13.2504C18.3334 13.213 18.326 13.1761 18.3117 13.1416C18.2974 13.1071 18.2764 13.0758 18.25 13.0494L17.8562 12.6557C17.8299 12.6292 17.7986 12.6082 17.7641 12.5939C17.7296 12.5796 17.6926 12.5723 17.6553 12.5723C17.618 12.5723 17.581 12.5796 17.5465 12.5939C17.5121 12.6082 17.4807 12.6292 17.4544 12.6557L17.1419 12.9682C17.0998 13.0086 17.0466 13.0355 16.9892 13.0454C16.9317 13.0553 16.8725 13.0478 16.8194 13.0238H16.8156C16.7613 13.0029 16.7145 12.9663 16.6811 12.9187C16.6477 12.871 16.6292 12.8145 16.6281 12.7563V12.3144C16.6285 12.2766 16.6214 12.2391 16.6071 12.2041C16.5929 12.1691 16.5718 12.1374 16.545 12.1106C16.5183 12.0839 16.4865 12.0628 16.4515 12.0485C16.4165 12.0343 16.379 12.0271 16.3412 12.0275H15.7837C15.7465 12.0275 15.7096 12.0349 15.6752 12.0491C15.6407 12.0634 15.6095 12.0843 15.5831 12.1106C15.5568 12.137 15.5359 12.1683 15.5216 12.2027C15.5073 12.2371 15.5 12.274 15.5 12.3113V12.7532C15.4989 12.8113 15.4805 12.8679 15.4471 12.9155C15.4137 12.9632 15.3668 12.9998 15.3125 13.0207H15.3087C15.2556 13.0447 15.1965 13.0522 15.139 13.0423C15.0815 13.0324 15.0283 13.0055 14.9862 12.965L14.6737 12.6525C14.6474 12.6261 14.6161 12.6051 14.5816 12.5908C14.5471 12.5765 14.5101 12.5691 14.4728 12.5691C14.4355 12.5691 14.3985 12.5765 14.364 12.5908C14.3296 12.6051 14.2982 12.6261 14.2719 12.6525L13.8781 13.0463C13.8517 13.0726 13.8307 13.104 13.8164 13.1384C13.8021 13.1729 13.7947 13.2099 13.7947 13.2472C13.7947 13.2846 13.8021 13.3215 13.8164 13.356C13.8307 13.3905 13.8517 13.4218 13.8781 13.4482L14.1906 13.7607C14.2311 13.8027 14.258 13.8559 14.2679 13.9134C14.2778 13.9709 14.2703 14.03 14.2462 14.0832V14.0869C14.2254 14.1412 14.1888 14.1881 14.1411 14.2215C14.0935 14.2549 14.0369 14.2733 13.9787 14.2744H13.5369C13.4616 14.2744 13.3894 14.3043 13.3362 14.3575C13.283 14.4107 13.2531 14.4829 13.2531 14.5582V15.1157C13.2531 15.1909 13.283 15.2631 13.3362 15.3163C13.3894 15.3695 13.4616 15.3994 13.5369 15.3994H13.9787C14.0369 15.4005 14.0935 15.4189 14.1411 15.4523C14.1888 15.4857 14.2254 15.5326 14.2462 15.5869V15.5907C14.2703 15.6438 14.2778 15.703 14.2679 15.7604C14.258 15.8179 14.2311 15.8711 14.1906 15.9132L13.8781 16.2257C13.8517 16.252 13.8307 16.2833 13.8164 16.3178C13.8021 16.3523 13.7947 16.3893 13.7947 16.4266C13.7947 16.4639 13.8021 16.5009 13.8164 16.5354C13.8307 16.5699 13.8517 16.6012 13.8781 16.6275L14.2719 17.0213C14.2982 17.0477 14.3296 17.0687 14.364 17.083C14.3985 17.0973 14.4355 17.1047 14.4728 17.1047C14.5101 17.1047 14.5471 17.0973 14.5816 17.083C14.6161 17.0687 14.6474 17.0477 14.6737 17.0213L14.9862 16.7088C15.0283 16.6684 15.0815 16.6414 15.139 16.6315C15.1965 16.6216 15.2556 16.6291 15.3087 16.6532H15.3125C15.3668 16.674 15.4137 16.7106 15.4471 16.7583C15.4805 16.806 15.4989 16.8625 15.5 16.9207V17.3625C15.5 17.3998 15.5073 17.4367 15.5216 17.4711C15.5359 17.5056 15.5568 17.5368 15.5831 17.5632C15.6095 17.5895 15.6407 17.6104 15.6752 17.6247C15.7096 17.6389 15.7465 17.6463 15.7837 17.6463H16.3412C16.3785 17.6463 16.4154 17.6389 16.4498 17.6247C16.4843 17.6104 16.5155 17.5895 16.5419 17.5632C16.5682 17.5368 16.5891 17.5056 16.6034 17.4711C16.6177 17.4367 16.625 17.3998 16.625 17.3625V16.9207C16.6261 16.8625 16.6445 16.806 16.6779 16.7583C16.7113 16.7106 16.7582 16.674 16.8125 16.6532H16.8162C16.8694 16.6291 16.9285 16.6216 16.986 16.6315C17.0435 16.6414 17.0967 16.6684 17.1387 16.7088L17.4512 17.0213C17.4776 17.0477 17.5089 17.0687 17.5434 17.083C17.5779 17.0973 17.6149 17.1047 17.6522 17.1047C17.6895 17.1047 17.7265 17.0973 17.761 17.083C17.7954 17.0687 17.8268 17.0477 17.8531 17.0213L18.2469 16.6275C18.2733 16.6012 18.2943 16.5699 18.3086 16.5354C18.3229 16.5009 18.3303 16.4639 18.3303 16.4266C18.3303 16.3893 18.3229 16.3523 18.3086 16.3178C18.2943 16.2833 18.2733 16.252 18.2469 16.2257L17.9344 15.9132C17.8939 15.8711 17.867 15.8179 17.8571 15.7604C17.8472 15.703 17.8547 15.6438 17.8787 15.5907V15.5869C17.8996 15.5326 17.9362 15.4857 17.9839 15.4523C18.0315 15.4189 18.0881 15.4005 18.1462 15.3994H18.5881C18.6254 15.3998 18.6624 15.3929 18.6969 15.379C18.7315 15.3651 18.763 15.3446 18.7897 15.3185C18.8163 15.2925 18.8376 15.2614 18.8522 15.2271C18.8668 15.1929 18.8746 15.1561 18.875 15.1188V14.5613C18.875 14.486 18.8451 14.4139 18.7919 14.3606C18.7387 14.3074 18.6665 14.2775 18.5912 14.2775ZM16.0625 15.6838C15.8956 15.6838 15.7325 15.6343 15.5937 15.5416C15.455 15.4489 15.3468 15.3171 15.283 15.1629C15.2191 15.0088 15.2024 14.8391 15.235 14.6754C15.2675 14.5118 15.3479 14.3614 15.4659 14.2434C15.5839 14.1254 15.7342 14.0451 15.8979 14.0125C16.0616 13.9799 16.2312 13.9967 16.3854 14.0605C16.5396 14.1244 16.6713 14.2325 16.7641 14.3713C16.8568 14.51 16.9062 14.6732 16.9062 14.84C16.9063 14.9509 16.8846 15.0606 16.8422 15.163C16.7998 15.2654 16.7377 15.3585 16.6593 15.4368C16.5809 15.5152 16.4879 15.5774 16.3855 15.6197C16.2831 15.6621 16.1733 15.6839 16.0625 15.6838Z" fill="#212131"/>
<path d="M5.75 17.6525H10.75C10.9158 17.6525 11.0747 17.5867 11.1919 17.4695C11.3092 17.3523 11.375 17.1933 11.375 17.0275C11.375 16.8618 11.3092 16.7028 11.1919 16.5856C11.0747 16.4684 10.9158 16.4025 10.75 16.4025H6.41937C6.57104 15.3618 7.09196 14.4103 7.88703 13.7219C8.6821 13.0334 9.69827 12.6538 10.75 12.6525C11.4859 12.6589 12.2009 12.4076 12.771 11.9422C13.3411 11.4768 13.7304 10.8266 13.8714 10.1043C14.0124 9.38197 13.8963 8.63308 13.5432 7.9874C13.19 7.34171 12.6221 6.83993 11.9378 6.56902C11.2535 6.29811 10.4961 6.27514 9.79662 6.50409C9.09719 6.73303 8.4999 7.19948 8.10826 7.82257C7.71663 8.44567 7.55534 9.18614 7.65234 9.91567C7.74935 10.6452 8.09853 11.3178 8.63937 11.8169C7.602 12.2377 6.7136 12.9582 6.08763 13.8863C5.46165 14.8144 5.12651 15.9081 5.125 17.0275C5.125 17.1933 5.19085 17.3523 5.30806 17.4695C5.42527 17.5867 5.58424 17.6525 5.75 17.6525ZM10.75 7.65254C11.1208 7.65254 11.4834 7.76251 11.7917 7.96853C12.1 8.17456 12.3404 8.4674 12.4823 8.81001C12.6242 9.15262 12.6613 9.52962 12.589 9.89333C12.5166 10.257 12.338 10.5911 12.0758 10.8534C11.8136 11.1156 11.4795 11.2942 11.1158 11.3665C10.7521 11.4389 10.3751 11.4017 10.0325 11.2598C9.68986 11.1179 9.39702 10.8776 9.19099 10.5692C8.98497 10.2609 8.875 9.89838 8.875 9.52754C8.875 9.03026 9.07254 8.55334 9.42417 8.20171C9.7758 7.85008 10.2527 7.65254 10.75 7.65254ZM18.5912 14.2775H18.1494C18.0912 14.2764 18.0347 14.258 17.987 14.2246C17.9394 14.1912 17.9028 14.1444 17.8819 14.09V14.0863C17.8579 14.0331 17.8503 13.974 17.8602 13.9165C17.8702 13.859 17.8971 13.8058 17.9375 13.7638L18.25 13.4513C18.2764 13.4249 18.2974 13.3936 18.3117 13.3591C18.326 13.3246 18.3334 13.2877 18.3334 13.2504C18.3334 13.213 18.326 13.1761 18.3117 13.1416C18.2974 13.1071 18.2764 13.0758 18.25 13.0494L17.8562 12.6557C17.8299 12.6292 17.7986 12.6082 17.7641 12.5939C17.7296 12.5796 17.6926 12.5723 17.6553 12.5723C17.618 12.5723 17.581 12.5796 17.5465 12.5939C17.5121 12.6082 17.4807 12.6292 17.4544 12.6557L17.1419 12.9682C17.0998 13.0086 17.0466 13.0355 16.9892 13.0454C16.9317 13.0553 16.8725 13.0478 16.8194 13.0238H16.8156C16.7613 13.0029 16.7145 12.9663 16.6811 12.9187C16.6477 12.871 16.6292 12.8145 16.6281 12.7563V12.3144C16.6285 12.2766 16.6214 12.2391 16.6071 12.2041C16.5929 12.1691 16.5718 12.1374 16.545 12.1106C16.5183 12.0839 16.4865 12.0628 16.4515 12.0485C16.4165 12.0343 16.379 12.0271 16.3412 12.0275H15.7837C15.7465 12.0275 15.7096 12.0349 15.6752 12.0491C15.6407 12.0634 15.6095 12.0843 15.5831 12.1106C15.5568 12.137 15.5359 12.1683 15.5216 12.2027C15.5073 12.2371 15.5 12.274 15.5 12.3113V12.7532C15.4989 12.8113 15.4805 12.8679 15.4471 12.9155C15.4137 12.9632 15.3668 12.9998 15.3125 13.0207H15.3087C15.2556 13.0447 15.1965 13.0522 15.139 13.0423C15.0815 13.0324 15.0283 13.0055 14.9862 12.965L14.6737 12.6525C14.6474 12.6261 14.6161 12.6051 14.5816 12.5908C14.5471 12.5765 14.5101 12.5691 14.4728 12.5691C14.4355 12.5691 14.3985 12.5765 14.364 12.5908C14.3296 12.6051 14.2982 12.6261 14.2719 12.6525L13.8781 13.0463C13.8517 13.0726 13.8307 13.104 13.8164 13.1384C13.8021 13.1729 13.7947 13.2099 13.7947 13.2472C13.7947 13.2846 13.8021 13.3215 13.8164 13.356C13.8307 13.3905 13.8517 13.4218 13.8781 13.4482L14.1906 13.7607C14.2311 13.8027 14.258 13.8559 14.2679 13.9134C14.2778 13.9709 14.2703 14.03 14.2462 14.0832V14.0869C14.2254 14.1412 14.1888 14.1881 14.1411 14.2215C14.0935 14.2549 14.0369 14.2733 13.9787 14.2744H13.5369C13.4616 14.2744 13.3894 14.3043 13.3362 14.3575C13.283 14.4107 13.2531 14.4829 13.2531 14.5582V15.1157C13.2531 15.1909 13.283 15.2631 13.3362 15.3163C13.3894 15.3695 13.4616 15.3994 13.5369 15.3994H13.9787C14.0369 15.4005 14.0935 15.4189 14.1411 15.4523C14.1888 15.4857 14.2254 15.5326 14.2462 15.5869V15.5907C14.2703 15.6438 14.2778 15.703 14.2679 15.7604C14.258 15.8179 14.2311 15.8711 14.1906 15.9132L13.8781 16.2257C13.8517 16.252 13.8307 16.2833 13.8164 16.3178C13.8021 16.3523 13.7947 16.3893 13.7947 16.4266C13.7947 16.4639 13.8021 16.5009 13.8164 16.5354C13.8307 16.5699 13.8517 16.6012 13.8781 16.6275L14.2719 17.0213C14.2982 17.0477 14.3296 17.0687 14.364 17.083C14.3985 17.0973 14.4355 17.1047 14.4728 17.1047C14.5101 17.1047 14.5471 17.0973 14.5816 17.083C14.6161 17.0687 14.6474 17.0477 14.6737 17.0213L14.9862 16.7088C15.0283 16.6684 15.0815 16.6414 15.139 16.6315C15.1965 16.6216 15.2556 16.6291 15.3087 16.6532H15.3125C15.3668 16.674 15.4137 16.7106 15.4471 16.7583C15.4805 16.806 15.4989 16.8625 15.5 16.9207V17.3625C15.5 17.3998 15.5073 17.4367 15.5216 17.4711C15.5359 17.5056 15.5568 17.5368 15.5831 17.5632C15.6095 17.5895 15.6407 17.6104 15.6752 17.6247C15.7096 17.6389 15.7465 17.6463 15.7837 17.6463H16.3412C16.3785 17.6463 16.4154 17.6389 16.4498 17.6247C16.4843 17.6104 16.5155 17.5895 16.5419 17.5632C16.5682 17.5368 16.5891 17.5056 16.6034 17.4711C16.6177 17.4367 16.625 17.3998 16.625 17.3625V16.9207C16.6261 16.8625 16.6445 16.806 16.6779 16.7583C16.7113 16.7106 16.7582 16.674 16.8125 16.6532H16.8162C16.8694 16.6291 16.9285 16.6216 16.986 16.6315C17.0435 16.6414 17.0967 16.6684 17.1387 16.7088L17.4512 17.0213C17.4776 17.0477 17.5089 17.0687 17.5434 17.083C17.5779 17.0973 17.6149 17.1047 17.6522 17.1047C17.6895 17.1047 17.7265 17.0973 17.761 17.083C17.7954 17.0687 17.8268 17.0477 17.8531 17.0213L18.2469 16.6275C18.2733 16.6012 18.2943 16.5699 18.3086 16.5354C18.3229 16.5009 18.3303 16.4639 18.3303 16.4266C18.3303 16.3893 18.3229 16.3523 18.3086 16.3178C18.2943 16.2833 18.2733 16.252 18.2469 16.2257L17.9344 15.9132C17.8939 15.8711 17.867 15.8179 17.8571 15.7604C17.8472 15.703 17.8547 15.6438 17.8787 15.5907V15.5869C17.8996 15.5326 17.9362 15.4857 17.9839 15.4523C18.0315 15.4189 18.0881 15.4005 18.1462 15.3994H18.5881C18.6254 15.3998 18.6624 15.3929 18.6969 15.379C18.7315 15.3651 18.763 15.3446 18.7897 15.3185C18.8163 15.2925 18.8376 15.2614 18.8522 15.2271C18.8668 15.1929 18.8746 15.1561 18.875 15.1188V14.5613C18.875 14.486 18.8451 14.4139 18.7919 14.3606C18.7387 14.3074 18.6665 14.2775 18.5912 14.2775ZM16.0625 15.6838C15.8956 15.6838 15.7325 15.6343 15.5937 15.5416C15.455 15.4489 15.3468 15.3171 15.283 15.1629C15.2191 15.0088 15.2024 14.8391 15.235 14.6754C15.2675 14.5118 15.3479 14.3614 15.4659 14.2434C15.5839 14.1254 15.7342 14.0451 15.8979 14.0125C16.0616 13.9799 16.2312 13.9967 16.3854 14.0605C16.5396 14.1244 16.6713 14.2325 16.7641 14.3713C16.8568 14.51 16.9062 14.6732 16.9062 14.84C16.9063 14.9509 16.8846 15.0606 16.8422 15.163C16.7998 15.2654 16.7377 15.3585 16.6593 15.4368C16.5809 15.5152 16.4879 15.5774 16.3855 15.6197C16.2831 15.6621 16.1733 15.6839 16.0625 15.6838Z" fill="black" fill-opacity="0.2"/>
</svg>
