<svg width="20" height="20" viewBox="0 0 20 20" fill="none" xmlns="http://www.w3.org/2000/svg">
<path d="M15.5451 14.6626L17.9864 17.1026C18.1002 17.2205 18.1632 17.3784 18.1618 17.5422C18.1603 17.7061 18.0946 17.8629 17.9787 17.9787C17.8629 18.0946 17.7061 18.1603 17.5422 18.1618C17.3784 18.1632 17.2205 18.1002 17.1026 17.9864L14.6614 15.5451C13.0661 16.9119 11.0034 17.6077 8.90612 17.4865C6.80887 17.3652 4.8401 16.4364 3.41291 14.8949C1.98573 13.3534 1.21108 11.319 1.25151 9.21863C1.29194 7.11827 2.14431 5.11521 3.62976 3.62976C5.11521 2.14431 7.11827 1.29194 9.21863 1.25151C11.319 1.21108 13.3534 1.98573 14.8949 3.41291C16.4364 4.8401 17.3652 6.80887 17.4865 8.90612C17.6077 11.0034 16.9119 13.0661 15.5451 14.6614V14.6626ZM9.3751 16.2501C11.1985 16.2501 12.9471 15.5258 14.2365 14.2365C15.5258 12.9471 16.2501 11.1985 16.2501 9.3751C16.2501 7.55174 15.5258 5.80305 14.2365 4.51374C12.9471 3.22443 11.1985 2.5001 9.3751 2.5001C7.55174 2.5001 5.80305 3.22443 4.51374 4.51374C3.22443 5.80305 2.5001 7.55174 2.5001 9.3751C2.5001 11.1985 3.22443 12.9471 4.51374 14.2365C5.80305 15.5258 7.55174 16.2501 9.3751 16.2501ZM8.7501 8.7501V6.8751C8.7501 6.70934 8.81595 6.55037 8.93316 6.43316C9.05037 6.31595 9.20934 6.2501 9.3751 6.2501C9.54086 6.2501 9.69983 6.31595 9.81704 6.43316C9.93425 6.55037 10.0001 6.70934 10.0001 6.8751V8.7501H11.8751C12.0409 8.7501 12.1998 8.81595 12.317 8.93316C12.4343 9.05037 12.5001 9.20934 12.5001 9.3751C12.5001 9.54086 12.4343 9.69983 12.317 9.81704C12.1998 9.93425 12.0409 10.0001 11.8751 10.0001H10.0001V11.8751C10.0001 12.0409 9.93425 12.1998 9.81704 12.317C9.69983 12.4343 9.54086 12.5001 9.3751 12.5001C9.20934 12.5001 9.05037 12.4343 8.93316 12.317C8.81595 12.1998 8.7501 12.0409 8.7501 11.8751V10.0001H6.8751C6.70934 10.0001 6.55037 9.93425 6.43316 9.81704C6.31595 9.69983 6.2501 9.54086 6.2501 9.3751C6.2501 9.20934 6.31595 9.05037 6.43316 8.93316C6.55037 8.81595 6.70934 8.7501 6.8751 8.7501H8.7501Z" fill="black"/>
</svg>
