<svg width="370" height="370" viewBox="0 0 370 370" fill="none" xmlns="http://www.w3.org/2000/svg">
<path d="M319.435 87.1645C321.195 86.3876 322.687 85.112 323.729 83.4956C324.771 81.8792 325.315 79.9928 325.296 78.0699C325.296 72.6383 321.204 68.2205 316.113 68.1983C311.022 68.1761 306.878 72.5569 306.855 77.9885C306.819 79.9272 307.358 81.8332 308.404 83.4662C309.449 85.0992 310.955 86.386 312.731 87.1645C298.545 89.3031 299.189 104.725 299.189 104.725L332.733 104.88C332.733 104.88 333.503 89.2883 319.435 87.1645Z" fill="#F5F5F5"/>
<path d="M121.227 29.5408L99.301 21.7856L77.5894 29.4372C74.8218 30.7248 72.4094 31.4944 72.4094 34.04V46.7014C72.3822 55.594 74.8623 64.3142 79.5652 71.8614C84.2987 79.5542 91.27 85.6166 99.5452 89.2366C108.425 86.395 115.041 78.8322 119.096 72.3572C123.793 64.8079 126.271 56.0887 126.244 47.1972V35.8086C126.215 32.1826 124.261 30.414 121.227 29.5408Z" fill="#F5F5F5"/>
<path d="M106.56 49.9795C106.566 48.8496 106.255 47.7406 105.664 46.7776C105.073 45.8145 104.225 45.0356 103.215 44.5286C102.206 44.0215 101.074 43.8065 99.9488 43.9077C98.8235 44.0089 97.7487 44.4223 96.8456 45.1014C95.9425 45.7804 95.2469 46.6982 94.8372 47.7512C94.4275 48.8042 94.32 49.9508 94.5268 51.0616C94.7335 52.1725 95.2463 53.2035 96.0074 54.0386C96.7685 54.8738 97.7477 55.4798 98.8347 55.7885V64.8683H102.15V55.7885C103.417 55.4324 104.534 54.6724 105.33 53.624C106.126 52.5755 106.558 51.2959 106.56 49.9795Z" fill="#EBEBEB"/>
<path d="M307.648 146.883L311.385 148.91L309.705 151.722L305.931 149.502L306.005 153.654H302.778V149.465L299.041 151.7L297.391 148.888L301.128 146.861L297.391 144.803L299.041 141.991L302.808 144.3V140.112H306.034L305.96 144.3L309.734 142.036L311.414 144.848L307.648 146.883Z" fill="#E0E0E0"/>
<path d="M323.217 146.882L326.954 148.91L325.275 151.722L321.501 149.502L321.575 153.653H318.348L318.385 149.465L314.611 151.729L312.961 148.917L316.698 146.89L312.961 144.832L314.611 142.02L318.385 144.285L318.348 140.096H321.575L321.501 144.285L325.275 142.02L326.954 144.832L323.217 146.882Z" fill="#E0E0E0"/>
<path d="M338.787 146.883L342.531 148.91L340.851 151.722L337.077 149.502L337.144 153.654H333.917L333.954 149.465L330.18 151.73L328.53 148.918L332.275 146.89L328.56 144.825L330.21 142.013L333.984 144.278L333.947 140.089H337.173L337.107 144.278L340.881 142.013L342.561 144.825L338.787 146.883Z" fill="#E0E0E0"/>
<path d="M180.367 324.016V347.001H213.978H251.052V324.016H180.367Z" fill="#F5F5F5"/>
<path d="M177.4 317.586V324.016H253.524V317.586H213.979H177.4Z" fill="#EBEBEB"/>
<path d="M215.459 347.001H251.053V324.016H253.524V317.586H213.979V323.417L215.459 347.001Z" fill="#EBEBEB"/>
<path d="M204.588 327.716H190.254V331.179H204.588V327.716Z" fill="#E0E0E0"/>
<path d="M206.815 335.509H188.404V342.812H206.815V335.509Z" fill="white"/>
<path d="M191.238 294.631V317.615H224.856H261.93V294.631H191.238Z" fill="#F5F5F5"/>
<path d="M188.271 288.2V294.631H264.402V288.2H224.857H188.271Z" fill="#EBEBEB"/>
<path d="M226.336 317.615H261.93V294.631H264.402V288.2H224.856V294.039L226.336 317.615Z" fill="#EBEBEB"/>
<path d="M215.459 298.338H201.125V301.802H215.459V298.338Z" fill="#E0E0E0"/>
<path d="M217.693 306.123H199.282V313.427H217.693V306.123Z" fill="white"/>
<path d="M343.412 347.179C343.412 347.282 272.482 347.371 185.007 347.371C97.5317 347.371 26.5879 347.282 26.5879 347.179C26.5879 347.075 97.5021 346.986 185.007 346.986C272.512 346.986 343.412 347.06 343.412 347.179Z" fill="#263238"/>
<path d="M295.104 181.833H184.829C182.222 181.833 180.108 183.947 180.108 186.554V243.638C180.108 246.245 182.222 248.359 184.829 248.359H295.104C297.711 248.359 299.825 246.245 299.825 243.638V186.554C299.825 183.947 297.711 181.833 295.104 181.833Z" fill="white"/>
<path d="M295.112 248.359C295.112 248.359 295.43 248.359 296.037 248.248C296.937 248.053 297.761 247.603 298.412 246.953C298.887 246.474 299.253 245.898 299.485 245.265C299.618 244.9 299.708 244.52 299.752 244.133C299.752 243.734 299.752 243.304 299.752 242.86C299.752 241.084 299.752 239.035 299.752 236.733C299.752 227.505 299.715 214.171 299.693 197.691C299.693 195.626 299.693 193.517 299.693 191.364V188.093C299.693 186.99 299.804 185.873 299.352 184.852C299.041 184.078 298.524 183.405 297.857 182.904C297.191 182.403 296.4 182.094 295.571 182.01C295.023 181.973 294.416 182.01 293.839 182.01H286.698H255.751H184.845C184.089 182.009 183.346 182.196 182.681 182.555C182.017 182.915 181.453 183.434 181.041 184.067C180.621 184.694 180.367 185.417 180.301 186.169C180.264 186.909 180.301 187.723 180.301 188.493V215.858C180.301 221.778 180.301 227.599 180.301 233.322V241.787C180.301 242.483 180.301 243.186 180.301 243.867C180.335 244.533 180.512 245.184 180.819 245.776C181.134 246.357 181.571 246.863 182.1 247.261C182.629 247.658 183.237 247.936 183.883 248.077C184.541 248.183 185.208 248.218 185.873 248.181H214.785H241.751L280.793 248.24L291.405 248.277L280.793 248.314L241.751 248.373H214.785H185.873C185.183 248.409 184.491 248.372 183.809 248.262C183.111 248.112 182.455 247.812 181.885 247.382C181.315 246.953 180.845 246.405 180.508 245.776C180.168 245.141 179.974 244.438 179.938 243.719C179.938 242.979 179.938 242.328 179.938 241.625C179.938 238.835 179.938 236.008 179.938 233.159V215.858C179.938 209.938 179.938 203.907 179.938 197.765V188.515C179.938 187.73 179.938 186.976 179.938 186.162C179.994 185.352 180.248 184.569 180.678 183.882C181.128 183.199 181.738 182.635 182.454 182.24C183.179 181.854 183.987 181.648 184.808 181.64H255.714H286.661H293.802C294.394 181.64 294.957 181.64 295.563 181.64C296.157 181.702 296.734 181.873 297.265 182.143C298.322 182.679 299.149 183.578 299.596 184.674C299.813 185.211 299.928 185.783 299.937 186.361C299.937 186.916 299.937 187.471 299.937 188.026V191.297C299.937 193.448 299.937 195.557 299.937 197.624C299.937 214.104 299.885 227.439 299.87 236.667C299.87 238.968 299.87 241.018 299.87 242.794C299.87 243.238 299.87 243.66 299.87 244.074C299.823 244.469 299.729 244.856 299.589 245.228C299.35 245.872 298.974 246.455 298.486 246.938C297.82 247.593 296.976 248.038 296.059 248.218C295.83 248.261 295.597 248.286 295.364 248.292L295.112 248.359Z" fill="#263238"/>
<path d="M221.822 205.342V206.171H218.359V201.731H221.733V202.56H219.387V203.5H221.459V204.306H219.387V205.342H221.822Z" fill="#263238"/>
<path d="M226.75 201.702V206.142H225.899L223.679 203.426V206.142H222.658V201.702H223.48L225.7 204.418V201.702H226.75Z" fill="#263238"/>
<path d="M228.741 202.545H227.305V201.702H231.205V202.545H229.769V206.171H228.741V202.545Z" fill="#263238"/>
<path d="M235.223 205.342V206.171H231.76V201.731H235.142V202.56H232.788V203.5H234.868V204.306H232.788V205.342H235.223Z" fill="#263238"/>
<path d="M238.901 206.171L238.035 204.928H237.088V206.171H236.06V201.731H237.998C239.19 201.731 239.937 202.345 239.937 203.352C239.946 203.653 239.863 203.949 239.699 204.202C239.535 204.454 239.298 204.651 239.02 204.765L240.019 206.201L238.901 206.171ZM237.932 202.545H237.088V204.099H237.932C238.561 204.099 238.879 203.811 238.879 203.322C238.879 202.834 238.561 202.545 237.932 202.545Z" fill="#263238"/>
<path d="M242.276 203.937C242.305 203.454 242.475 202.991 242.765 202.605C243.055 202.219 243.452 201.926 243.907 201.764C244.362 201.601 244.855 201.576 245.324 201.691C245.793 201.807 246.218 202.057 246.546 202.412L245.88 203.026C245.741 202.863 245.569 202.731 245.375 202.64C245.181 202.549 244.969 202.502 244.755 202.501C244.393 202.527 244.054 202.689 243.807 202.955C243.56 203.221 243.422 203.57 243.422 203.933C243.422 204.296 243.56 204.645 243.807 204.911C244.054 205.177 244.393 205.339 244.755 205.365C244.97 205.368 245.183 205.322 245.378 205.231C245.573 205.14 245.744 205.006 245.88 204.839L246.546 205.454C246.22 205.812 245.795 206.065 245.326 206.183C244.856 206.301 244.363 206.277 243.906 206.115C243.45 205.953 243.052 205.66 242.762 205.272C242.472 204.884 242.303 204.42 242.276 203.937Z" fill="#263238"/>
<path d="M246.871 203.936C246.845 203.447 246.966 202.961 247.218 202.54C247.471 202.12 247.844 201.786 248.289 201.58C248.734 201.374 249.231 201.307 249.714 201.386C250.198 201.466 250.647 201.689 251.003 202.026C251.358 202.363 251.605 202.8 251.71 203.279C251.815 203.758 251.774 204.257 251.592 204.712C251.41 205.168 251.095 205.558 250.689 205.832C250.283 206.107 249.804 206.253 249.313 206.253C248.998 206.271 248.683 206.224 248.387 206.116C248.091 206.008 247.82 205.84 247.591 205.623C247.362 205.406 247.181 205.144 247.057 204.854C246.933 204.564 246.87 204.252 246.871 203.936ZM250.712 203.936C250.706 203.661 250.619 203.394 250.462 203.168C250.305 202.941 250.084 202.767 249.828 202.666C249.572 202.564 249.292 202.541 249.023 202.598C248.753 202.655 248.507 202.791 248.314 202.987C248.122 203.184 247.991 203.433 247.94 203.704C247.888 203.974 247.918 204.254 248.024 204.508C248.131 204.762 248.31 204.978 248.539 205.131C248.769 205.283 249.038 205.364 249.313 205.365C249.501 205.369 249.687 205.335 249.86 205.264C250.034 205.193 250.191 205.088 250.322 204.954C250.453 204.82 250.556 204.66 250.623 204.485C250.69 204.31 250.72 204.124 250.712 203.936Z" fill="#263238"/>
<path d="M252.547 201.702H254.56C255.149 201.702 255.713 201.936 256.13 202.352C256.546 202.768 256.78 203.333 256.78 203.922C256.78 204.511 256.546 205.075 256.13 205.492C255.713 205.908 255.149 206.142 254.56 206.142H252.532L252.547 201.702ZM254.523 205.32C254.89 205.32 255.242 205.175 255.501 204.915C255.761 204.656 255.907 204.304 255.907 203.937C255.907 203.57 255.761 203.218 255.501 202.958C255.242 202.699 254.89 202.553 254.523 202.553H253.583V205.32H254.523Z" fill="#263238"/>
<path d="M261.286 205.342V206.171H257.823V201.731H261.22V202.56H258.852V203.5H260.931V204.306H258.852V205.342H261.286Z" fill="#263238"/>
<path d="M204.846 213.312H193.976C192.361 213.312 191.053 214.621 191.053 216.235V233.159C191.053 234.773 192.361 236.082 193.976 236.082H204.846C206.461 236.082 207.769 234.773 207.769 233.159V216.235C207.769 214.621 206.461 213.312 204.846 213.312Z" fill="#EBEBEB"/>
<path d="M225.722 213.312H214.852C213.237 213.312 211.929 214.621 211.929 216.235V233.159C211.929 234.773 213.237 236.082 214.852 236.082H225.722C227.337 236.082 228.645 234.773 228.645 233.159V216.235C228.645 214.621 227.337 213.312 225.722 213.312Z" fill="#EBEBEB"/>
<path d="M246.597 213.312H235.727C234.112 213.312 232.804 214.621 232.804 216.235V233.159C232.804 234.773 234.112 236.082 235.727 236.082H246.597C248.212 236.082 249.52 234.773 249.52 233.159V216.235C249.52 214.621 248.212 213.312 246.597 213.312Z" fill="#EBEBEB"/>
<path d="M267.465 213.312H256.594C254.98 213.312 253.671 214.621 253.671 216.235V233.159C253.671 234.773 254.98 236.082 256.594 236.082H267.465C269.079 236.082 270.388 234.773 270.388 233.159V216.235C270.388 214.621 269.079 213.312 267.465 213.312Z" fill="#EBEBEB"/>
<path d="M288.341 213.312H277.47C275.856 213.312 274.547 214.621 274.547 216.235V233.159C274.547 234.773 275.856 236.082 277.47 236.082H288.341C289.955 236.082 291.264 234.773 291.264 233.159V216.235C291.264 214.621 289.955 213.312 288.341 213.312Z" fill="#EBEBEB"/>
<path d="M203.056 226.44C203.056 228.06 201.798 229.119 200.096 229.119C197.757 229.119 196.521 227.439 196.521 224.679C196.521 221.674 198.127 220.12 200.473 220.12C201.175 220.089 201.873 220.247 202.493 220.579L202.227 221.097C201.691 220.803 201.084 220.662 200.473 220.69C198.482 220.69 197.173 222 197.173 224.582C197.172 224.939 197.197 225.295 197.247 225.648C197.455 225.076 197.845 224.587 198.356 224.257C198.868 223.927 199.474 223.774 200.081 223.82C201.857 223.82 203.056 224.856 203.056 226.44ZM202.404 226.44C202.404 225.174 201.494 224.346 199.992 224.346C199.689 224.312 199.382 224.341 199.09 224.431C198.798 224.522 198.528 224.671 198.297 224.87C198.066 225.07 197.878 225.315 197.746 225.59C197.613 225.865 197.539 226.164 197.528 226.469C197.528 227.513 198.401 228.549 200.066 228.549C200.362 228.581 200.661 228.551 200.944 228.459C201.227 228.368 201.487 228.218 201.708 228.018C201.929 227.819 202.105 227.576 202.225 227.304C202.345 227.032 202.406 226.737 202.404 226.44Z" fill="#653EFF"/>
<path d="M223.702 226.61H221.837V229.075H221.201V226.61H216.132V226.144L220.957 220.187H221.697L216.961 226.041H221.23V223.872H221.852V226.041H223.717L223.702 226.61Z" fill="#653EFF"/>
<path d="M245.228 230.34C242.652 230.596 240.057 230.596 237.48 230.34C240.057 230.083 242.652 230.083 245.228 230.34Z" fill="#653EFF"/>
<path d="M187.708 190.291C188.709 190.291 189.521 189.48 189.521 188.478C189.521 187.477 188.709 186.665 187.708 186.665C186.707 186.665 185.895 187.477 185.895 188.478C185.895 189.48 186.707 190.291 187.708 190.291Z" fill="#263238"/>
<path d="M194.746 188.478C194.746 188.837 194.639 189.187 194.44 189.486C194.241 189.784 193.958 190.016 193.626 190.153C193.295 190.29 192.931 190.326 192.579 190.256C192.227 190.187 191.904 190.014 191.651 189.76C191.397 189.507 191.224 189.184 191.154 188.832C191.085 188.48 191.12 188.116 191.258 187.784C191.395 187.453 191.627 187.17 191.925 186.971C192.224 186.772 192.574 186.665 192.933 186.665C193.413 186.665 193.875 186.856 194.215 187.196C194.555 187.536 194.746 187.997 194.746 188.478Z" fill="#263238"/>
<path d="M198.061 190.291C199.062 190.291 199.874 189.48 199.874 188.478C199.874 187.477 199.062 186.665 198.061 186.665C197.06 186.665 196.248 187.477 196.248 188.478C196.248 189.48 197.06 190.291 198.061 190.291Z" fill="#263238"/>
<path d="M300.01 193.584C300.01 193.687 273.2 193.776 240.144 193.776C207.089 193.776 180.278 193.687 180.278 193.584C180.278 193.48 207.074 193.391 240.144 193.391C273.215 193.391 300.01 193.473 300.01 193.584Z" fill="#263238"/>
<path d="M278.025 35.7349H145.831C143.15 35.7349 140.977 37.9083 140.977 40.5893V162.208C140.977 164.889 143.15 167.063 145.831 167.063H278.025C280.706 167.063 282.879 164.889 282.879 162.208V40.5893C282.879 37.9083 280.706 35.7349 278.025 35.7349Z" fill="white"/>
<path d="M278.025 167.062H278.373C278.716 167.034 279.056 166.969 279.387 166.87C280.032 166.672 280.629 166.342 281.138 165.9C281.648 165.457 282.06 164.913 282.347 164.302C282.745 163.385 282.903 162.382 282.805 161.386C282.805 160.284 282.805 159.07 282.805 157.761C282.805 155.141 282.805 152.114 282.805 148.71C282.805 135.094 282.768 115.41 282.739 91.0495C282.739 78.8765 282.739 65.5491 282.739 51.2301C282.739 47.6584 282.739 44.025 282.739 40.3299C282.683 39.4265 282.367 38.5585 281.829 37.831C281.29 37.1034 280.552 36.5474 279.705 36.2303C278.823 35.9515 277.895 35.8509 276.974 35.9343H250.564H145.846C144.735 35.9407 143.662 36.342 142.82 37.0665C141.949 37.8016 141.38 38.8317 141.221 39.9599C141.17 40.5257 141.153 41.094 141.169 41.6619V87.2237C141.169 104.74 141.169 121.634 141.169 137.729C141.169 145.78 141.169 153.621 141.169 161.253C141.169 161.727 141.169 162.215 141.169 162.667C141.212 163.121 141.319 163.567 141.488 163.991C141.83 164.841 142.414 165.572 143.167 166.093C143.913 166.613 144.796 166.902 145.706 166.922H159.403H199.222L256.883 166.988H272.556L256.883 167.025L199.222 167.085H159.403H145.698C144.721 167.06 143.771 166.75 142.968 166.192C142.165 165.635 141.542 164.854 141.177 163.947C140.995 163.492 140.878 163.014 140.829 162.526C140.792 162.023 140.829 161.564 140.829 161.083C140.829 153.451 140.829 145.61 140.829 137.559C140.829 121.464 140.829 104.569 140.829 87.0535C140.829 78.2919 140.829 69.3848 140.829 60.3321V41.6249C140.809 41.0396 140.828 40.4537 140.888 39.8711C141.051 38.6676 141.652 37.5663 142.575 36.7779C143.482 35.9847 144.641 35.539 145.846 35.5199H250.564H276.93C277.892 35.4369 278.86 35.5476 279.779 35.8455C280.686 36.1852 281.476 36.7803 282.052 37.559C282.629 38.3377 282.967 39.2667 283.027 40.2337C283.027 43.9337 283.027 47.5745 283.027 51.1561C283.027 65.4751 283.027 78.8025 283.027 90.9755C283.027 115.322 282.983 135.02 282.968 148.636C282.968 152.04 282.968 155.067 282.968 157.687C282.968 158.996 282.968 160.21 282.968 161.313C283.062 162.325 282.894 163.344 282.48 164.273C282.108 165.05 281.536 165.715 280.822 166.198C280.108 166.68 279.277 166.964 278.417 167.018L278.025 167.062Z" fill="#263238"/>
<path d="M151.7 44.8364C151.7 45.3227 151.556 45.798 151.286 46.2021C151.015 46.6063 150.631 46.9212 150.182 47.1069C149.733 47.2927 149.238 47.3409 148.761 47.2455C148.285 47.1501 147.847 46.9154 147.504 46.571C147.16 46.2267 146.927 45.7883 146.833 45.3112C146.739 44.8341 146.789 44.3399 146.976 43.8911C147.163 43.4423 147.479 43.0592 147.884 42.7901C148.289 42.521 148.765 42.3782 149.251 42.3796C149.573 42.3796 149.892 42.4432 150.19 42.5668C150.488 42.6904 150.758 42.8714 150.985 43.0997C151.213 43.3279 151.393 43.5988 151.516 43.8968C151.639 44.1949 151.701 44.5142 151.7 44.8364Z" fill="#263238"/>
<path d="M156.4 47.286C157.752 47.286 158.849 46.1894 158.849 44.8366C158.849 43.4838 157.752 42.3872 156.4 42.3872C155.047 42.3872 153.95 43.4838 153.95 44.8366C153.95 46.1894 155.047 47.286 156.4 47.286Z" fill="#263238"/>
<path d="M163.562 47.286C164.915 47.286 166.012 46.1894 166.012 44.8366C166.012 43.4838 164.915 42.3872 163.562 42.3872C162.209 42.3872 161.113 43.4838 161.113 44.8366C161.113 46.1894 162.209 47.286 163.562 47.286Z" fill="#263238"/>
<path d="M282.879 51.7998C282.879 51.9108 251.111 51.9922 211.928 51.9922C172.745 51.9922 140.977 51.9108 140.977 51.7998C140.977 51.6888 172.738 51.6074 211.928 51.6074C251.119 51.6074 282.879 51.6888 282.879 51.7998Z" fill="#263238"/>
<path d="M231.974 101.269C231.974 101.269 232.026 101.188 232.145 101.04L232.241 100.914L232.337 100.744C232.419 100.606 232.491 100.462 232.552 100.314C232.552 100.233 232.626 100.144 232.655 100.048L232.744 99.7372C232.776 99.623 232.801 99.5068 232.818 99.3894C232.818 99.2636 232.862 99.1378 232.87 99.0046C232.918 98.3891 232.888 97.77 232.781 97.162C232.469 95.4978 231.9 93.8925 231.094 92.4038C230.054 90.4168 228.838 88.5272 227.46 86.7576C225.802 84.6053 223.995 82.5727 222.051 80.6748C219.826 78.4903 217.449 76.4651 214.94 74.6142C213.615 73.6374 212.216 72.6902 210.744 71.8022C209.242 70.885 207.682 70.0668 206.074 69.3528C204.422 68.5983 202.682 68.0515 200.894 67.7248C199.981 67.562 199.047 67.5396 198.127 67.6582C197.665 67.7238 197.214 67.8533 196.787 68.043C196.369 68.2484 195.991 68.5265 195.67 68.8644C195.364 69.2188 195.128 69.6281 194.974 70.0706C194.835 70.5167 194.758 70.9798 194.745 71.447C194.733 72.3758 194.86 73.3013 195.122 74.1924C195.653 75.9357 196.399 77.6062 197.342 79.1652C198.232 80.6818 199.221 82.1378 200.302 83.5238C201.353 84.8854 202.456 86.173 203.573 87.3792C205.699 89.6622 207.984 91.7914 210.411 93.7506C212.517 95.4678 214.743 97.0331 217.071 98.4348C218.986 99.5995 221.002 100.59 223.094 101.395C224.667 102.022 226.327 102.407 228.015 102.534C228.63 102.565 229.246 102.522 229.851 102.409C229.984 102.409 230.102 102.342 230.221 102.312C230.336 102.282 230.45 102.245 230.561 102.201L230.857 102.076L231.116 101.942C231.257 101.866 231.391 101.777 231.516 101.676L231.671 101.565L231.789 101.454C231.923 101.321 231.997 101.262 231.997 101.262L231.797 101.461L231.678 101.572L231.53 101.691C231.404 101.793 231.268 101.882 231.123 101.957L230.879 102.12L230.576 102.246C230.468 102.292 230.357 102.329 230.243 102.357C230.119 102.399 229.993 102.434 229.865 102.46C229.257 102.585 228.635 102.63 228.015 102.594C226.322 102.479 224.657 102.102 223.08 101.476C220.98 100.672 218.956 99.6817 217.034 98.5162C214.706 97.1143 212.48 95.5489 210.374 93.832C207.94 91.8752 205.65 89.7459 203.521 87.4606C202.404 86.2544 201.301 84.9668 200.243 83.6052C199.164 82.2121 198.175 80.7513 197.283 79.2318C196.338 77.6656 195.593 75.9876 195.063 74.2368C194.794 73.3344 194.664 72.396 194.678 71.4544C194.694 70.9796 194.774 70.5092 194.915 70.0558C195.083 69.5971 195.334 69.1732 195.655 68.8052C195.983 68.4535 196.375 68.1673 196.81 67.9616C197.246 67.767 197.706 67.6326 198.179 67.562C199.111 67.4433 200.057 67.4657 200.983 67.6286C202.783 67.958 204.536 68.5098 206.2 69.2714C207.812 69.9863 209.374 70.807 210.877 71.7282C212.357 72.6162 213.756 73.5634 215.08 74.5476C217.594 76.4017 219.97 78.4346 222.192 80.6304C224.14 82.5315 225.95 84.5692 227.608 86.728C228.982 88.5026 230.193 90.3972 231.227 92.389C232.031 93.8856 232.598 95.4984 232.907 97.1694C233.01 97.7829 233.035 98.407 232.981 99.0268C232.969 99.1538 232.95 99.2798 232.922 99.4042C232.91 99.5225 232.885 99.6391 232.848 99.752L232.759 100.07C232.728 100.161 232.69 100.25 232.648 100.337C232.592 100.488 232.517 100.633 232.426 100.766C232.4 100.826 232.367 100.883 232.33 100.936L232.233 101.062L231.974 101.269Z" fill="#653EFF"/>
<path d="M238.687 85.048V84.7668V84.6113C238.687 84.5521 238.687 84.493 238.65 84.419C238.624 84.2596 238.582 84.1034 238.524 83.9527C238.524 83.8713 238.465 83.7751 238.428 83.6863L238.28 83.3904C238.232 83.2831 238.172 83.1813 238.102 83.087C238.039 82.9759 237.967 82.8695 237.888 82.7688C237.519 82.2741 237.086 81.8311 236.6 81.4516C235.254 80.4181 233.757 79.5994 232.16 79.0244C230.063 78.2314 227.898 77.6296 225.693 77.2262C223.007 76.7221 220.29 76.4105 217.56 76.2938C214.444 76.1419 211.321 76.2087 208.214 76.4936C206.578 76.649 204.906 76.8784 203.211 77.1966C201.48 77.5088 199.772 77.9365 198.098 78.4768C196.358 79.0037 194.692 79.7497 193.14 80.6968C192.349 81.1819 191.638 81.7859 191.031 82.4876C190.731 82.8434 190.482 83.2394 190.291 83.6641C190.108 84.0956 190.008 84.5574 189.995 85.0258C190.01 85.4932 190.107 85.9542 190.284 86.3874C190.477 86.8106 190.726 87.2063 191.024 87.564C191.635 88.2661 192.348 88.8723 193.14 89.3622C194.694 90.3049 196.36 91.0506 198.098 91.5822C199.774 92.1155 201.482 92.5431 203.211 92.8624C204.906 93.1806 206.578 93.4026 208.214 93.558C211.32 93.8487 214.444 93.9179 217.56 93.7652C220.29 93.656 223.01 93.3593 225.7 92.8772C227.906 92.4737 230.07 91.8719 232.168 91.079C233.761 90.498 235.258 89.6797 236.608 88.6518C237.092 88.2703 237.525 87.8275 237.895 87.3345C237.974 87.2313 238.046 87.1224 238.11 87.009C238.18 86.9146 238.239 86.8129 238.287 86.7056L238.435 86.417C238.472 86.3208 238.502 86.232 238.532 86.1432C238.59 85.9928 238.633 85.8365 238.657 85.677C238.657 85.6104 238.657 85.5512 238.694 85.492V85.3366V85.048C238.694 85.048 238.694 85.1442 238.694 85.3366V85.492C238.694 85.5512 238.694 85.6104 238.694 85.6844C238.672 85.8435 238.632 85.9998 238.576 86.1505C238.576 86.2394 238.517 86.3282 238.48 86.4244L238.339 86.7204C238.287 86.8277 238.227 86.9315 238.162 87.0312C238.096 87.1411 238.024 87.2474 237.947 87.3494C237.579 87.8489 237.146 88.2969 236.659 88.6813C235.316 89.7234 233.818 90.5498 232.219 91.1308C230.121 91.9326 227.953 92.5419 225.744 92.9512C223.057 93.4569 220.337 93.7734 217.604 93.8984C214.486 94.0564 211.36 93.9921 208.251 93.7059C206.608 93.5506 204.928 93.3286 203.234 93.0104C201.499 92.6903 199.787 92.2627 198.105 91.7302C196.359 91.2017 194.686 90.4559 193.125 89.5102C192.324 89.0181 191.603 88.4067 190.987 87.6972C190.687 87.3304 190.438 86.9246 190.247 86.4909C190.047 86.0492 189.943 85.5698 189.943 85.085C189.943 84.6001 190.047 84.1207 190.247 83.679C190.44 83.2467 190.689 82.8413 190.987 82.4727C191.61 81.7641 192.335 81.1529 193.14 80.6598C194.704 79.7153 196.379 78.9696 198.128 78.4398C199.804 77.9003 201.515 77.4726 203.248 77.1595C204.95 76.8413 206.623 76.6194 208.266 76.464C211.354 76.1635 214.46 76.0819 217.56 76.2198C220.293 76.3433 223.013 76.6623 225.7 77.1744C227.909 77.5799 230.076 78.1867 232.175 78.9874C233.773 79.5683 235.271 80.3947 236.615 81.4368C237.1 81.8231 237.533 82.2708 237.903 82.7688C237.982 82.872 238.053 82.9809 238.117 83.0944C238.185 83.193 238.244 83.2969 238.295 83.4052L238.435 83.6938C238.472 83.79 238.502 83.8862 238.532 83.9676C238.588 84.1208 238.627 84.2796 238.65 84.4412C238.65 84.5078 238.65 84.5744 238.65 84.6262V84.789C238.687 84.9518 238.687 85.048 238.687 85.048Z" fill="#653EFF"/>
<path d="M229.792 64.8684L229.548 64.713L229.415 64.6242C229.36 64.5928 229.303 64.5655 229.245 64.5428C229.104 64.4657 228.955 64.4037 228.801 64.3578C228.712 64.3578 228.623 64.2912 228.527 64.269L228.209 64.2024C228.094 64.1773 227.978 64.16 227.861 64.1506C227.733 64.143 227.604 64.143 227.476 64.1506C226.858 64.1427 226.242 64.2124 225.641 64.3578C224.003 64.7925 222.441 65.4737 221.008 66.378C219.096 67.5478 217.296 68.8904 215.629 70.3888C213.595 72.191 211.691 74.1347 209.931 76.2052C207.902 78.5738 206.045 81.0838 204.373 83.7162C203.5 85.1 202.642 86.58 201.857 88.06C201.044 89.6197 200.334 91.2315 199.733 92.8848C199.097 94.5901 198.672 96.367 198.468 98.1758C198.369 99.0993 198.412 100.033 198.594 100.943C198.695 101.399 198.857 101.84 199.075 102.253C199.304 102.661 199.608 103.023 199.97 103.319C200.347 103.593 200.771 103.796 201.221 103.918C201.674 104.028 202.139 104.075 202.605 104.059C203.534 104.007 204.449 103.815 205.32 103.489C207.023 102.843 208.639 101.988 210.13 100.943C211.581 99.9494 212.965 98.8618 214.274 97.6874C215.562 96.5404 216.768 95.3564 217.893 94.1576C220.022 91.8788 221.988 89.453 223.776 86.8982C225.344 84.6792 226.754 82.3523 227.994 79.9348C229.028 77.9463 229.88 75.8683 230.54 73.7262C231.057 72.1115 231.324 70.4269 231.331 68.7312C231.329 68.1159 231.245 67.5036 231.08 66.9108C231.08 66.7776 230.998 66.6592 230.961 66.5408C230.924 66.4224 230.88 66.3188 230.828 66.2152L230.688 65.9266C230.636 65.8378 230.577 65.7564 230.532 65.6824C230.448 65.5435 230.349 65.4144 230.236 65.2976L230.118 65.1496L229.999 65.046L229.792 64.8536L230.007 65.0386L230.125 65.1422C230.171 65.1857 230.213 65.2327 230.251 65.2828C230.363 65.4006 230.462 65.5296 230.547 65.6676C230.599 65.749 230.658 65.823 230.71 65.9118L230.85 66.2078C230.908 66.3116 230.955 66.4206 230.991 66.5334C231.028 66.6518 231.08 66.7702 231.109 66.9034C231.28 67.4979 231.37 68.1127 231.376 68.7312C231.379 70.4313 231.116 72.1215 230.599 73.741C229.942 75.889 229.095 77.9742 228.068 79.9718C226.828 82.3942 225.419 84.7261 223.85 86.95C222.066 89.5128 220.1 91.9438 217.967 94.2242C216.842 95.4304 215.636 96.6218 214.341 97.7688C213.029 98.9452 211.643 100.035 210.19 101.032C208.693 102.085 207.069 102.945 205.357 103.593C204.477 103.922 203.551 104.116 202.612 104.17C202.134 104.186 201.657 104.139 201.191 104.029C200.728 103.899 200.292 103.685 199.904 103.4C199.53 103.096 199.216 102.725 198.979 102.305C198.755 101.882 198.588 101.432 198.483 100.966C198.303 100.044 198.263 99.1014 198.364 98.1684C198.565 96.3486 198.992 94.5612 199.637 92.8478C200.238 91.1921 200.948 89.5779 201.761 88.0156C202.553 86.4764 203.404 85.0112 204.284 83.62C205.966 80.9887 207.831 78.4789 209.864 76.109C211.627 74.0388 213.536 72.0975 215.577 70.3C217.253 68.8032 219.061 67.4609 220.979 66.2892C222.419 65.3889 223.989 64.715 225.633 64.2912C226.236 64.1422 226.855 64.0725 227.476 64.084C227.609 64.084 227.735 64.084 227.861 64.084C227.98 64.0929 228.099 64.1102 228.216 64.1358L228.534 64.2024L228.808 64.2986C228.962 64.3468 229.111 64.4113 229.252 64.491C229.311 64.5137 229.368 64.541 229.422 64.5724L229.555 64.6686L229.792 64.8684Z" fill="#653EFF"/>
<path d="M189.698 95.105C189.824 95.2315 189.909 95.3923 189.944 95.5673C189.978 95.7423 189.96 95.9236 189.892 96.0883C189.823 96.253 189.707 96.3937 189.559 96.4927C189.411 96.5916 189.236 96.6445 189.058 96.6445C188.88 96.6445 188.705 96.5916 188.557 96.4927C188.409 96.3937 188.293 96.253 188.224 96.0883C188.156 95.9236 188.138 95.7423 188.172 95.5673C188.207 95.3923 188.292 95.2315 188.418 95.105C188.502 95.0207 188.602 94.9537 188.711 94.9081C188.821 94.8624 188.939 94.8389 189.058 94.8389C189.177 94.8389 189.295 94.8624 189.405 94.9081C189.515 94.9537 189.614 95.0207 189.698 95.105Z" fill="#653EFF"/>
<path d="M240.751 67.0662C240.752 67.2465 240.7 67.4232 240.601 67.5738C240.502 67.7245 240.36 67.8423 240.194 67.9123C240.028 67.9824 239.845 68.0014 239.668 67.9672C239.491 67.9329 239.328 67.8468 239.2 67.7198C239.072 67.5928 238.984 67.4306 238.949 67.2539C238.913 67.0771 238.931 66.8937 238.999 66.727C239.068 66.5602 239.185 66.4176 239.334 66.3173C239.484 66.2169 239.66 66.1634 239.841 66.1634C239.96 66.1624 240.078 66.185 240.189 66.2299C240.299 66.2749 240.399 66.3412 240.484 66.4251C240.569 66.5091 240.636 66.6089 240.682 66.719C240.727 66.829 240.751 66.947 240.751 67.0662Z" fill="#653EFF"/>
<path d="M195.412 98.0795C195.412 98.1249 195.398 98.1692 195.373 98.2069C195.348 98.2447 195.312 98.2741 195.27 98.2914C195.228 98.3088 195.182 98.3133 195.138 98.3045C195.093 98.2956 195.052 98.2738 195.02 98.2417C194.988 98.2096 194.966 98.1688 194.958 98.1243C194.949 98.0798 194.953 98.0336 194.971 97.9917C194.988 97.9498 195.017 97.914 195.055 97.8888C195.093 97.8636 195.137 97.8501 195.183 97.8501C195.243 97.8501 195.302 97.8743 195.345 97.9173C195.388 97.9603 195.412 98.0187 195.412 98.0795Z" fill="#653EFF"/>
<path d="M200.318 72.7272C200.318 72.7726 200.304 72.8169 200.279 72.8546C200.254 72.8924 200.218 72.9218 200.176 72.9391C200.134 72.9565 200.088 72.961 200.044 72.9522C199.999 72.9433 199.958 72.9215 199.926 72.8894C199.894 72.8573 199.872 72.8165 199.863 72.772C199.854 72.7275 199.859 72.6813 199.876 72.6394C199.894 72.5975 199.923 72.5617 199.961 72.5365C199.999 72.5113 200.043 72.4978 200.088 72.4978C200.149 72.4978 200.207 72.522 200.25 72.565C200.294 72.608 200.318 72.6664 200.318 72.7272Z" fill="#653EFF"/>
<path d="M236.2 85.048C236.2 85.1088 236.176 85.1672 236.133 85.2102C236.09 85.2532 236.032 85.2774 235.971 85.2774C235.91 85.2774 235.852 85.2532 235.809 85.2102C235.766 85.1672 235.742 85.1088 235.742 85.048C235.742 84.9872 235.766 84.9288 235.809 84.8858C235.852 84.8428 235.91 84.8186 235.971 84.8186C236.032 84.8186 236.09 84.8428 236.133 84.8858C236.176 84.9288 236.2 84.9872 236.2 85.048Z" fill="#653EFF"/>
<path d="M239.397 74.3329C239.397 74.3938 239.373 74.4521 239.33 74.4951C239.287 74.5381 239.228 74.5623 239.167 74.5623C239.107 74.5623 239.048 74.5381 239.005 74.4951C238.962 74.4521 238.938 74.3938 238.938 74.3329C238.938 74.2721 238.962 74.2137 239.005 74.1707C239.048 74.1277 239.107 74.1035 239.167 74.1035C239.228 74.1035 239.287 74.1277 239.33 74.1707C239.373 74.2137 239.397 74.2721 239.397 74.3329Z" fill="#653EFF"/>
<path d="M223.902 90.1026H221.061V74.6292C221.061 72.8766 220.364 71.1958 219.125 69.9565C217.886 68.7173 216.205 68.021 214.452 68.021C212.7 68.021 211.019 68.7173 209.78 69.9565C208.54 71.1958 207.844 72.8766 207.844 74.6292V90.1026H204.98V74.6292C204.98 72.123 205.976 69.7194 207.748 67.9472C209.52 66.175 211.924 65.1794 214.43 65.1794C216.937 65.1794 219.34 66.175 221.112 67.9472C222.884 69.7194 223.88 72.123 223.88 74.6292L223.902 90.1026Z" fill="#653EFF"/>
<g opacity="0.3">
<path d="M223.902 90.1026H221.061V74.6292C221.061 72.8766 220.364 71.1958 219.125 69.9565C217.886 68.7173 216.205 68.021 214.452 68.021C212.7 68.021 211.019 68.7173 209.78 69.9565C208.54 71.1958 207.844 72.8766 207.844 74.6292V90.1026H204.98V74.6292C204.98 72.123 205.976 69.7194 207.748 67.9472C209.52 66.175 211.924 65.1794 214.43 65.1794C216.937 65.1794 219.34 66.175 221.112 67.9472C222.884 69.7194 223.88 72.123 223.88 74.6292L223.902 90.1026Z" fill="black"/>
</g>
<path d="M225.522 83.2205H203.381C202.462 83.2205 201.716 83.9659 201.716 84.8855V97.8947C201.716 98.8142 202.462 99.5597 203.381 99.5597H225.522C226.442 99.5597 227.187 98.8142 227.187 97.8947V84.8855C227.187 83.9659 226.442 83.2205 225.522 83.2205Z" fill="#653EFF"/>
<g opacity="0.3">
<path d="M216.583 89.2659C216.586 88.8686 216.478 88.4783 216.271 88.1391C216.064 87.7999 215.766 87.5254 215.411 87.3465C215.056 87.1675 214.659 87.0914 214.263 87.1265C213.867 87.1617 213.489 87.3068 213.171 87.5455C212.854 87.7842 212.609 88.107 212.465 88.4773C212.321 88.8477 212.284 89.2509 212.357 89.6415C212.43 90.0321 212.611 90.3944 212.879 90.6876C213.147 90.9808 213.492 91.1933 213.874 91.3009V94.4829H215.029V91.3009C215.474 91.178 215.868 90.9125 216.148 90.5451C216.429 90.1776 216.581 89.7283 216.583 89.2659Z" fill="black"/>
</g>
<path d="M203.078 98.0131C203.019 98.0131 202.967 95.2899 202.967 91.9303C202.967 88.5707 203.019 85.8401 203.078 85.8401C203.137 85.8401 203.182 88.5633 203.182 91.9303C203.182 95.2973 203.13 98.0131 203.078 98.0131Z" fill="#FAFAFA"/>
<path d="M212.787 91.9892C212.787 91.9892 212.683 91.9892 212.535 91.8486C212.325 91.6924 212.141 91.5053 211.987 91.2936C211.718 90.9447 211.53 90.54 211.436 90.1091C211.343 89.6781 211.348 89.2318 211.449 88.8027C211.55 88.3737 211.746 87.9727 212.023 87.629C212.299 87.2854 212.648 87.0078 213.046 86.8166C213.277 86.6923 213.527 86.6049 213.786 86.5576C213.881 86.5397 213.979 86.5397 214.074 86.5576C213.747 86.6686 213.428 86.8021 213.12 86.9572C212.758 87.1564 212.443 87.429 212.193 87.7574C211.943 88.0858 211.765 88.4627 211.67 88.8641C211.574 89.2654 211.564 89.6823 211.639 90.0879C211.714 90.4936 211.873 90.879 212.106 91.2196C212.312 91.494 212.539 91.7513 212.787 91.9892Z" fill="#FAFAFA"/>
<path d="M252.266 113.568H173.848C170.039 113.568 166.951 116.656 166.951 120.465V121.308C166.951 125.117 170.039 128.205 173.848 128.205H252.266C256.075 128.205 259.163 125.117 259.163 121.308V120.465C259.163 116.656 256.075 113.568 252.266 113.568Z" fill="#F5F5F5"/>
<path d="M252.94 133.637H174.522C170.713 133.637 167.625 136.725 167.625 140.534V141.377C167.625 145.186 170.713 148.274 174.522 148.274H252.94C256.749 148.274 259.836 145.186 259.836 141.377V140.534C259.836 136.725 256.749 133.637 252.94 133.637Z" fill="#F5F5F5"/>
<path d="M181.521 120.768V118.652H182.402V120.738C182.402 121.478 182.713 121.752 183.246 121.752C183.778 121.752 184.089 121.456 184.089 120.738V118.652H184.955V120.768C184.955 121.223 184.774 121.66 184.452 121.982C184.13 122.304 183.694 122.485 183.238 122.485C182.783 122.485 182.346 122.304 182.024 121.982C181.702 121.66 181.521 121.223 181.521 120.768Z" fill="#263238"/>
<path d="M185.481 122.166L185.755 121.56C186.062 121.742 186.412 121.839 186.769 121.841C187.161 121.841 187.301 121.737 187.301 121.574C187.301 121.101 185.548 121.574 185.548 120.427C185.548 119.872 186.043 119.48 186.894 119.48C187.282 119.474 187.666 119.563 188.012 119.739L187.731 120.339C187.476 120.194 187.187 120.119 186.894 120.124C186.517 120.124 186.354 120.242 186.354 120.39C186.354 120.886 188.108 120.39 188.108 121.552C188.108 122.092 187.612 122.477 186.739 122.477C186.299 122.487 185.865 122.38 185.481 122.166Z" fill="#263238"/>
<path d="M191.468 121.219H189.248C189.293 121.401 189.403 121.561 189.557 121.668C189.71 121.775 189.898 121.824 190.084 121.804C190.22 121.81 190.356 121.788 190.483 121.74C190.61 121.691 190.726 121.617 190.824 121.523L191.275 122.011C191.121 122.171 190.934 122.295 190.727 122.375C190.52 122.456 190.298 122.491 190.077 122.477C189.867 122.504 189.655 122.485 189.453 122.422C189.252 122.36 189.066 122.255 188.908 122.115C188.751 121.975 188.625 121.803 188.539 121.61C188.453 121.417 188.41 121.208 188.412 120.997C188.411 120.796 188.452 120.598 188.531 120.413C188.61 120.229 188.726 120.062 188.871 119.924C189.016 119.785 189.188 119.678 189.377 119.608C189.565 119.538 189.765 119.507 189.966 119.517C190.163 119.512 190.36 119.547 190.543 119.619C190.727 119.691 190.895 119.799 191.036 119.937C191.178 120.075 191.29 120.24 191.367 120.422C191.443 120.604 191.483 120.8 191.483 120.997C191.483 121.056 191.468 121.145 191.468 121.219ZM189.248 120.723H190.676C190.633 120.567 190.54 120.428 190.411 120.33C190.282 120.231 190.124 120.178 189.962 120.178C189.8 120.178 189.642 120.231 189.513 120.33C189.383 120.428 189.29 120.567 189.248 120.723Z" fill="#263238"/>
<path d="M193.88 119.481V120.265H193.687C193.583 120.264 193.481 120.286 193.386 120.327C193.291 120.369 193.206 120.43 193.136 120.507C193.066 120.584 193.013 120.674 192.981 120.773C192.948 120.871 192.937 120.976 192.947 121.079V122.448H192.104V119.54H192.91V119.88C193.029 119.742 193.179 119.634 193.347 119.565C193.516 119.495 193.698 119.466 193.88 119.481Z" fill="#263238"/>
<path d="M197.328 120.768V122.433H196.485V120.901C196.485 120.427 196.27 120.213 195.893 120.213C195.515 120.213 195.197 120.464 195.197 120.997V122.433H194.354V119.524H195.16V119.88C195.285 119.752 195.435 119.652 195.601 119.586C195.766 119.52 195.944 119.489 196.122 119.495C196.289 119.484 196.457 119.51 196.612 119.571C196.768 119.632 196.909 119.727 197.024 119.848C197.139 119.97 197.226 120.115 197.279 120.274C197.331 120.433 197.348 120.601 197.328 120.768Z" fill="#263238"/>
<path d="M200.666 120.776V122.433H199.874V122.1C199.777 122.242 199.643 122.354 199.486 122.426C199.33 122.498 199.157 122.526 198.986 122.507C198.305 122.507 197.898 122.13 197.898 121.627C197.898 121.124 198.261 120.754 199.149 120.754H199.8C199.8 120.398 199.586 120.184 199.127 120.184C198.826 120.183 198.533 120.279 198.291 120.458L197.987 119.866C198.361 119.624 198.8 119.5 199.245 119.51C200.148 119.481 200.666 119.88 200.666 120.776ZM199.822 121.516V121.22H199.245C198.846 121.22 198.727 121.368 198.727 121.56C198.727 121.753 198.905 121.915 199.201 121.915C199.33 121.919 199.457 121.883 199.564 121.811C199.672 121.74 199.754 121.636 199.8 121.516H199.822Z" fill="#263238"/>
<path d="M206.342 120.768V122.433H205.498V120.901C205.498 120.427 205.291 120.213 204.951 120.213C204.61 120.213 204.307 120.457 204.307 120.953V122.433H203.5V120.901C203.5 120.427 203.3 120.213 202.945 120.213C202.59 120.213 202.309 120.457 202.309 120.953V122.433H201.428V119.525H202.235V119.88C202.349 119.753 202.49 119.653 202.647 119.587C202.804 119.52 202.974 119.489 203.145 119.495C203.333 119.486 203.52 119.526 203.689 119.61C203.857 119.695 204.001 119.82 204.107 119.976C204.233 119.82 204.393 119.695 204.575 119.611C204.758 119.528 204.957 119.488 205.158 119.495C205.324 119.485 205.49 119.511 205.644 119.573C205.799 119.635 205.937 119.73 206.051 119.852C206.164 119.973 206.249 120.119 206.299 120.277C206.349 120.435 206.364 120.603 206.342 120.768Z" fill="#263238"/>
<path d="M209.967 121.219H207.747C207.785 121.404 207.892 121.567 208.046 121.676C208.2 121.784 208.39 121.83 208.576 121.804C208.712 121.809 208.848 121.787 208.975 121.739C209.102 121.691 209.218 121.617 209.316 121.523L209.76 122.011C209.606 122.171 209.419 122.296 209.212 122.377C209.005 122.457 208.783 122.492 208.561 122.477C208.353 122.502 208.141 122.483 207.94 122.42C207.74 122.357 207.555 122.252 207.398 122.112C207.241 121.972 207.116 121.8 207.031 121.608C206.946 121.416 206.902 121.207 206.904 120.997C206.904 120.796 206.944 120.598 207.023 120.413C207.102 120.229 207.218 120.062 207.363 119.924C207.509 119.785 207.681 119.678 207.869 119.608C208.057 119.538 208.257 119.507 208.458 119.517C208.85 119.517 209.227 119.673 209.504 119.951C209.782 120.228 209.938 120.605 209.938 120.997C209.982 121.056 209.975 121.145 209.967 121.219ZM207.747 120.723H209.183C209.159 120.548 209.069 120.389 208.932 120.277C208.794 120.166 208.619 120.111 208.443 120.124C208.274 120.121 208.111 120.181 207.984 120.291C207.856 120.402 207.775 120.556 207.755 120.723H207.747Z" fill="#263238"/>
<path d="M215.547 120.953C215.547 121.922 215.103 122.477 214.437 122.477C214.28 122.488 214.123 122.448 213.989 122.362C213.856 122.277 213.754 122.152 213.697 122.004C213.599 122.158 213.462 122.283 213.299 122.366C213.136 122.449 212.955 122.488 212.772 122.477C212.434 122.442 212.12 122.283 211.892 122.03C211.665 121.777 211.538 121.449 211.538 121.108C211.538 120.768 211.665 120.44 211.892 120.187C212.12 119.934 212.434 119.775 212.772 119.739C212.929 119.732 213.085 119.761 213.229 119.824C213.373 119.887 213.5 119.982 213.601 120.102V119.784H214.341V121.53C214.341 121.789 214.452 121.878 214.6 121.878C214.748 121.878 215 121.589 215 120.968C215.003 120.71 214.952 120.454 214.85 120.216C214.748 119.979 214.597 119.766 214.407 119.591C214.217 119.416 213.993 119.283 213.748 119.2C213.503 119.117 213.244 119.087 212.987 119.11C212.467 119.11 211.968 119.317 211.6 119.685C211.233 120.053 211.026 120.551 211.026 121.071C211.026 121.592 211.233 122.09 211.6 122.458C211.968 122.826 212.467 123.032 212.987 123.032C213.355 123.032 213.719 122.951 214.053 122.796L214.223 123.291C213.835 123.469 213.413 123.557 212.987 123.55C212.651 123.569 212.314 123.518 211.998 123.402C211.681 123.286 211.392 123.107 211.147 122.875C210.902 122.644 210.708 122.365 210.574 122.055C210.441 121.746 210.373 121.412 210.373 121.075C210.373 120.738 210.441 120.405 210.574 120.095C210.708 119.786 210.902 119.507 211.147 119.275C211.392 119.043 211.681 118.864 211.998 118.748C212.314 118.632 212.651 118.581 212.987 118.6C213.312 118.573 213.64 118.614 213.949 118.721C214.258 118.827 214.541 118.996 214.782 119.217C215.022 119.438 215.214 119.706 215.346 120.005C215.478 120.304 215.546 120.626 215.547 120.953ZM213.616 121.108C213.627 121.014 213.617 120.918 213.587 120.827C213.557 120.737 213.509 120.653 213.444 120.583C213.38 120.513 213.301 120.458 213.213 120.421C213.125 120.384 213.03 120.366 212.935 120.368C212.739 120.368 212.551 120.446 212.412 120.585C212.273 120.724 212.195 120.912 212.195 121.108C212.195 121.305 212.273 121.493 212.412 121.632C212.551 121.771 212.739 121.848 212.935 121.848C213.03 121.851 213.125 121.833 213.213 121.796C213.301 121.759 213.38 121.704 213.444 121.634C213.509 121.564 213.557 121.48 213.587 121.39C213.617 121.299 213.627 121.203 213.616 121.108Z" fill="#263238"/>
<path d="M221.06 120.768V122.433H220.216V120.901C220.216 120.427 220.009 120.213 219.669 120.213C219.328 120.213 219.025 120.457 219.025 120.953V122.433H218.181V120.901C218.181 120.427 217.982 120.213 217.626 120.213C217.271 120.213 216.99 120.457 216.99 120.953V122.433H216.146V119.525H216.953V119.88C217.068 119.753 217.208 119.653 217.366 119.587C217.523 119.52 217.693 119.489 217.863 119.495C218.051 119.486 218.239 119.526 218.407 119.61C218.575 119.695 218.719 119.82 218.825 119.976C218.95 119.82 219.109 119.695 219.29 119.612C219.471 119.528 219.669 119.488 219.869 119.495C220.035 119.484 220.202 119.509 220.357 119.571C220.513 119.632 220.653 119.727 220.767 119.849C220.881 119.97 220.966 120.116 221.017 120.275C221.068 120.434 221.082 120.602 221.06 120.768Z" fill="#263238"/>
<path d="M224.391 120.776V122.433H223.606V122.1C223.509 122.242 223.374 122.354 223.218 122.426C223.062 122.498 222.889 122.526 222.718 122.507C222.037 122.507 221.63 122.13 221.63 121.627C221.63 121.124 221.993 120.754 222.881 120.754H223.547C223.547 120.398 223.332 120.184 222.881 120.184C222.58 120.18 222.286 120.276 222.045 120.458L221.741 119.866C222.113 119.625 222.549 119.501 222.992 119.51C223.88 119.481 224.391 119.88 224.391 120.776ZM223.547 121.516V121.22H222.97C222.578 121.22 222.452 121.368 222.452 121.56C222.452 121.753 222.629 121.915 222.925 121.915C223.058 121.924 223.19 121.89 223.302 121.818C223.414 121.746 223.5 121.64 223.547 121.516Z" fill="#263238"/>
<path d="M225.056 118.652C225.056 118.585 225.071 118.52 225.098 118.459C225.126 118.398 225.165 118.344 225.215 118.3C225.264 118.255 225.322 118.221 225.385 118.201C225.448 118.18 225.515 118.172 225.581 118.178C225.672 118.188 225.758 118.224 225.829 118.282C225.899 118.34 225.952 118.417 225.98 118.503C226.008 118.59 226.01 118.684 225.987 118.772C225.963 118.86 225.914 118.939 225.846 119.001C225.778 119.062 225.694 119.102 225.604 119.116C225.514 119.131 225.422 119.119 225.338 119.082C225.254 119.045 225.183 118.985 225.133 118.909C225.083 118.832 225.056 118.743 225.056 118.652ZM225.159 119.525H225.995V122.433H225.159V119.525Z" fill="#263238"/>
<path d="M226.788 118.4H227.631V122.411H226.788V118.4Z" fill="#263238"/>
<path d="M228.208 121.952C228.208 121.813 228.264 121.679 228.362 121.581C228.461 121.482 228.595 121.427 228.734 121.427C228.873 121.427 229.007 121.482 229.105 121.581C229.204 121.679 229.259 121.813 229.259 121.952C229.259 122.092 229.204 122.225 229.105 122.324C229.007 122.422 228.873 122.478 228.734 122.478C228.595 122.478 228.461 122.422 228.362 122.324C228.264 122.225 228.208 122.092 228.208 121.952Z" fill="#263238"/>
<path d="M229.577 120.983C229.576 120.776 229.619 120.571 229.702 120.382C229.785 120.193 229.907 120.023 230.059 119.883C230.212 119.744 230.392 119.638 230.588 119.572C230.784 119.507 230.992 119.483 231.198 119.503C231.464 119.48 231.731 119.539 231.964 119.671C232.196 119.803 232.383 120.002 232.5 120.243L231.849 120.591C231.774 120.48 231.672 120.391 231.553 120.332C231.433 120.272 231.301 120.245 231.168 120.251C231.035 120.258 230.905 120.299 230.793 120.37C230.68 120.441 230.587 120.54 230.524 120.657C230.46 120.774 230.428 120.905 230.43 121.039C230.432 121.172 230.468 121.303 230.535 121.418C230.602 121.533 230.697 121.629 230.812 121.697C230.927 121.764 231.057 121.801 231.191 121.804C231.326 121.804 231.46 121.767 231.576 121.697C231.692 121.626 231.787 121.525 231.849 121.405L232.5 121.76C232.382 121.999 232.194 122.197 231.962 122.329C231.73 122.461 231.464 122.52 231.198 122.5C230.989 122.52 230.778 122.495 230.579 122.427C230.381 122.36 230.199 122.251 230.045 122.107C229.892 121.964 229.771 121.789 229.69 121.595C229.61 121.401 229.571 121.193 229.577 120.983Z" fill="#263238"/>
<path d="M232.737 120.983C232.713 120.663 232.786 120.343 232.947 120.065C233.107 119.787 233.348 119.564 233.637 119.424C233.926 119.285 234.251 119.236 234.568 119.284C234.886 119.331 235.181 119.473 235.417 119.691C235.652 119.91 235.817 120.193 235.889 120.506C235.96 120.819 235.937 121.146 235.82 121.445C235.703 121.744 235.499 122.001 235.234 122.183C234.969 122.364 234.656 122.462 234.335 122.463C234.131 122.479 233.926 122.453 233.732 122.386C233.539 122.319 233.362 122.212 233.211 122.073C233.061 121.934 232.941 121.766 232.86 121.578C232.778 121.39 232.736 121.187 232.737 120.983ZM235.075 120.983C235.062 120.84 235.008 120.704 234.919 120.591C234.831 120.479 234.711 120.394 234.575 120.348C234.439 120.302 234.293 120.297 234.154 120.332C234.015 120.368 233.89 120.443 233.793 120.549C233.696 120.655 233.632 120.786 233.608 120.928C233.585 121.069 233.603 121.214 233.66 121.346C233.718 121.477 233.812 121.589 233.932 121.668C234.052 121.746 234.192 121.789 234.335 121.789C234.438 121.79 234.54 121.769 234.635 121.727C234.729 121.686 234.814 121.625 234.883 121.55C234.953 121.474 235.006 121.384 235.039 121.286C235.072 121.189 235.084 121.085 235.075 120.983Z" fill="#263238"/>
<path d="M241.41 120.768V122.433H240.567V120.901C240.567 120.427 240.352 120.213 240.012 120.213C239.671 120.213 239.368 120.457 239.368 120.953V122.433H238.524V120.901C238.524 120.427 238.324 120.213 237.977 120.213C237.629 120.213 237.34 120.457 237.34 120.953V122.433H236.497V119.525H237.296V119.88C237.412 119.753 237.554 119.653 237.712 119.586C237.871 119.52 238.042 119.489 238.213 119.495C238.401 119.486 238.587 119.525 238.754 119.609C238.922 119.694 239.064 119.82 239.168 119.976C239.294 119.82 239.455 119.696 239.637 119.613C239.819 119.529 240.018 119.489 240.219 119.495C240.385 119.484 240.552 119.509 240.708 119.571C240.863 119.632 241.003 119.727 241.117 119.849C241.231 119.97 241.316 120.116 241.367 120.275C241.418 120.434 241.433 120.602 241.41 120.768Z" fill="#263238"/>
<path d="M192.822 141.036L194.191 141.776L193.576 142.805L192.193 141.991V143.515H191.009V141.976L189.669 142.82L189.062 141.791L190.439 141.051L189.062 140.311L189.669 139.283L191.053 140.111V138.58H192.237V140.111L193.621 139.283L194.235 140.311L192.822 141.036Z" fill="#263238"/>
<path d="M198.527 141.036L199.896 141.776L199.282 142.82L197.898 142.006V143.53H196.722V141.991L195.36 142.82L194.753 141.791L196.122 141.051L194.753 140.311L195.36 139.283L196.744 140.111V138.58H197.921V140.111L199.304 139.283L199.919 140.311L198.527 141.036Z" fill="#263238"/>
<path d="M204.24 141.036L205.609 141.776L204.98 142.82L203.603 142.006V143.53H202.419V141.991L201.073 142.82L200.473 141.791L201.842 141.051L200.473 140.311L201.073 139.283L202.456 140.111V138.58H203.64V140.111L205.017 139.283L205.638 140.311L204.24 141.036Z" fill="#263238"/>
<path d="M209.931 141.036L211.3 141.776L210.685 142.805L209.302 141.991V143.515H208.118V141.976L206.778 142.82L206.171 141.791L207.548 141.051L206.171 140.311L206.778 139.283L208.162 140.111V138.58H209.346V140.111L210.73 139.283L211.344 140.311L209.931 141.036Z" fill="#263238"/>
<path d="M215.636 141.036L217.005 141.776L216.39 142.805L215.007 141.991V143.515H213.86V141.976L212.483 142.82L211.876 141.791L213.245 141.051L211.876 140.311L212.483 139.283L213.86 140.082V138.55H215.036V140.082L216.42 139.253L217.034 140.282L215.636 141.036Z" fill="#263238"/>
<path d="M221.341 141.036L222.71 141.776L222.096 142.805L220.712 141.991V143.515H219.528V141.976L218.181 142.82L217.582 141.791L218.951 141.051L217.582 140.311L218.181 139.283L219.565 140.111V138.58H220.749V140.111L222.133 139.283L222.747 140.311L221.341 141.036Z" fill="#263238"/>
<path d="M227.039 141.036L228.408 141.776L227.794 142.805L226.41 141.991V143.515H225.226V141.976L223.887 142.82L223.28 141.791L224.657 141.051L223.28 140.311L223.887 139.283L225.271 140.111V138.58H226.44V140.111L227.824 139.283L228.438 140.311L227.039 141.036Z" fill="#263238"/>
<path d="M232.745 141.036L234.114 141.776L233.499 142.805L232.116 141.991V143.515H230.939V141.976L229.592 142.82L228.985 141.791L230.354 141.051L228.985 140.311L229.592 139.283L230.976 140.111V138.58H232.153V140.111L233.536 139.283L234.151 140.311L232.745 141.036Z" fill="#263238"/>
<path d="M165.537 100.159H107.891C107.497 100.159 107.107 100.237 106.743 100.388C106.379 100.539 106.048 100.761 105.769 101.04C105.491 101.319 105.27 101.65 105.12 102.014C104.97 102.379 104.893 102.769 104.894 103.164V129.419C104.889 129.814 104.963 130.206 105.112 130.572C105.261 130.937 105.482 131.27 105.761 131.549C106.04 131.828 106.373 132.049 106.739 132.198C107.104 132.347 107.496 132.421 107.891 132.416H132.074L137.21 139.009L141.495 132.416H165.537C165.931 132.416 166.321 132.338 166.684 132.188C167.048 132.037 167.378 131.816 167.656 131.538C167.935 131.26 168.156 130.929 168.306 130.566C168.457 130.202 168.534 129.812 168.534 129.419V103.164C168.534 102.368 168.219 101.605 167.657 101.042C167.095 100.479 166.333 100.161 165.537 100.159Z" fill="white"/>
<path d="M165.537 100.159H165.818C166.099 100.184 166.375 100.246 166.64 100.344C167.072 100.499 167.462 100.753 167.779 101.084C168.233 101.572 168.511 102.197 168.571 102.86C168.63 105.717 168.615 109.875 168.638 115.144C168.638 117.779 168.638 120.687 168.638 123.839C168.638 125.423 168.638 127.058 168.638 128.76C168.658 129.195 168.638 129.631 168.578 130.063C168.488 130.512 168.301 130.936 168.031 131.306C167.754 131.685 167.395 131.998 166.982 132.221C166.568 132.444 166.11 132.571 165.641 132.593H141.457L141.605 132.519C140.259 134.584 138.808 136.826 137.328 139.105L137.188 139.32L137.025 139.12L131.889 132.534L132.037 132.608H108.779C108.357 132.608 107.965 132.608 107.514 132.608C106.857 132.53 106.24 132.25 105.749 131.808C105.257 131.365 104.915 130.782 104.768 130.137C104.694 129.722 104.667 129.3 104.687 128.879V118.038C104.687 114.885 104.687 111.795 104.687 108.765V103.164C104.687 102.774 104.76 102.387 104.901 102.024C105.176 101.302 105.701 100.703 106.381 100.337C106.721 100.163 107.09 100.053 107.469 100.011C107.834 99.993 108.2 99.993 108.564 100.011H114.862H122.839H137.151L157.871 100.07L163.502 100.107L157.871 100.144L137.151 100.204H122.839H108.624C108.268 100.204 107.884 100.204 107.565 100.204C107.229 100.242 106.903 100.343 106.603 100.5C105.991 100.813 105.515 101.339 105.264 101.98C105.137 102.303 105.072 102.646 105.072 102.993V104.103C105.072 105.583 105.072 107.063 105.072 108.595V117.867C105.072 121.015 105.072 124.222 105.072 127.487V128.716C105.048 129.109 105.071 129.504 105.138 129.892C105.269 130.459 105.571 130.972 106.004 131.36C106.438 131.748 106.98 131.993 107.558 132.061C107.935 132.098 108.372 132.061 108.779 132.061H132.163L132.222 132.135L137.358 138.721H137.054L141.339 132.135L141.391 132.053H141.494H165.663C166.088 132.039 166.505 131.928 166.881 131.728C167.257 131.527 167.582 131.244 167.831 130.899C168.081 130.567 168.253 130.182 168.334 129.774C168.391 129.36 168.411 128.941 168.393 128.523C168.393 126.821 168.393 125.186 168.393 123.602C168.393 120.45 168.393 117.542 168.393 114.907C168.393 109.653 168.393 105.495 168.43 102.631C168.365 102.012 168.106 101.429 167.69 100.966C167.387 100.626 167.01 100.361 166.588 100.189C166.241 100.129 165.887 100.119 165.537 100.159Z" fill="#263238"/>
<path d="M125.918 107.574V108.543H125.289V107.566L124.224 105.82H124.897L125.637 107.034L126.377 105.82H126.999L125.918 107.574Z" fill="#263238"/>
<path d="M126.969 107.174C126.955 106.879 127.031 106.587 127.185 106.335C127.34 106.083 127.566 105.883 127.835 105.76C128.104 105.638 128.403 105.599 128.695 105.648C128.986 105.698 129.256 105.833 129.469 106.037C129.683 106.241 129.831 106.505 129.894 106.794C129.956 107.082 129.931 107.383 129.821 107.658C129.712 107.932 129.522 108.167 129.278 108.333C129.033 108.499 128.744 108.587 128.449 108.588C128.258 108.597 128.067 108.567 127.887 108.5C127.708 108.433 127.544 108.33 127.406 108.198C127.268 108.066 127.158 107.907 127.082 107.731C127.007 107.555 126.969 107.366 126.969 107.174ZM129.322 107.174C129.321 107.005 129.269 106.84 129.174 106.699C129.079 106.559 128.944 106.45 128.787 106.387C128.63 106.323 128.458 106.307 128.292 106.341C128.126 106.375 127.973 106.457 127.854 106.577C127.735 106.698 127.654 106.851 127.621 107.017C127.589 107.183 127.606 107.355 127.671 107.512C127.736 107.668 127.846 107.802 127.987 107.896C128.128 107.99 128.294 108.04 128.464 108.04C128.578 108.043 128.691 108.023 128.797 107.98C128.903 107.938 129 107.874 129.08 107.793C129.161 107.712 129.224 107.615 129.265 107.509C129.307 107.402 129.326 107.288 129.322 107.174Z" fill="#263238"/>
<path d="M130.425 107.337V105.82H131.061V107.3C131.061 107.818 131.291 108.04 131.668 108.04C132.045 108.04 132.282 107.825 132.282 107.3V105.82H132.911V107.352C132.911 107.682 132.78 107.998 132.547 108.231C132.314 108.464 131.998 108.595 131.668 108.595C131.338 108.595 131.022 108.464 130.789 108.231C130.556 107.998 130.425 107.682 130.425 107.352V107.337Z" fill="#263238"/>
<path d="M135.286 108.543L134.761 107.803H134.176V108.543H133.54V105.82H134.724C135.464 105.82 135.915 106.197 135.915 106.812C135.924 106.997 135.874 107.179 135.773 107.335C135.672 107.49 135.525 107.61 135.353 107.677L135.967 108.558L135.286 108.543ZM134.694 106.323H134.176V107.3H134.694C135.079 107.3 135.272 107.115 135.272 106.819C135.272 106.523 135.079 106.316 134.68 106.316L134.694 106.323Z" fill="#263238"/>
<path d="M137.358 107.174C137.361 106.871 137.457 106.576 137.632 106.328C137.808 106.081 138.056 105.894 138.342 105.792C138.628 105.69 138.938 105.679 139.231 105.759C139.524 105.84 139.784 106.008 139.978 106.242L139.571 106.619C139.487 106.516 139.381 106.433 139.261 106.377C139.14 106.32 139.008 106.292 138.875 106.294C138.657 106.314 138.453 106.415 138.305 106.577C138.157 106.739 138.075 106.951 138.075 107.171C138.075 107.39 138.157 107.602 138.305 107.764C138.453 107.926 138.657 108.028 138.875 108.048C139.008 108.051 139.139 108.024 139.26 107.969C139.38 107.914 139.487 107.832 139.571 107.729L139.978 108.099C139.785 108.333 139.525 108.501 139.233 108.582C138.941 108.662 138.631 108.652 138.346 108.551C138.06 108.45 137.812 108.264 137.636 108.018C137.459 107.772 137.362 107.477 137.358 107.174Z" fill="#263238"/>
<path d="M140.178 107.174C140.164 106.879 140.24 106.587 140.394 106.335C140.549 106.083 140.775 105.883 141.044 105.76C141.313 105.638 141.612 105.599 141.904 105.648C142.195 105.698 142.465 105.833 142.678 106.037C142.892 106.241 143.04 106.505 143.103 106.794C143.165 107.082 143.14 107.383 143.03 107.658C142.921 107.932 142.731 108.167 142.487 108.333C142.242 108.499 141.953 108.587 141.658 108.588C141.467 108.597 141.276 108.567 141.096 108.5C140.917 108.433 140.753 108.33 140.615 108.198C140.477 108.066 140.367 107.907 140.291 107.731C140.216 107.555 140.178 107.366 140.178 107.174ZM142.531 107.174C142.528 107.005 142.475 106.841 142.379 106.701C142.283 106.562 142.148 106.455 141.991 106.392C141.834 106.329 141.662 106.314 141.496 106.349C141.331 106.384 141.179 106.467 141.061 106.587C140.942 106.708 140.862 106.861 140.83 107.027C140.798 107.193 140.816 107.365 140.881 107.521C140.946 107.677 141.056 107.81 141.197 107.904C141.338 107.997 141.503 108.047 141.673 108.047C141.787 108.051 141.902 108.03 142.008 107.987C142.115 107.944 142.211 107.88 142.292 107.798C142.372 107.716 142.435 107.618 142.476 107.511C142.518 107.404 142.536 107.289 142.531 107.174Z" fill="#263238"/>
<path d="M143.656 105.82H144.906C145.098 105.8 145.292 105.821 145.475 105.881C145.658 105.94 145.827 106.038 145.97 106.167C146.114 106.296 146.228 106.454 146.306 106.63C146.385 106.806 146.425 106.997 146.425 107.189C146.425 107.382 146.385 107.573 146.306 107.749C146.228 107.925 146.114 108.083 145.97 108.212C145.827 108.341 145.658 108.438 145.475 108.498C145.292 108.558 145.098 108.578 144.906 108.558H143.656V105.82ZM144.869 108.04C145.095 108.04 145.312 107.951 145.471 107.791C145.631 107.632 145.72 107.415 145.72 107.189C145.72 106.964 145.631 106.747 145.471 106.588C145.312 106.428 145.095 106.338 144.869 106.338H144.3V108.04H144.869Z" fill="#263238"/>
<path d="M149.021 108.04V108.551H146.897V105.82H148.969V106.323H147.526V106.923H148.799V107.418H147.526V108.04H149.021Z" fill="#263238"/>
<path d="M159.913 111.422H113.523C112.072 111.422 110.896 112.598 110.896 114.049V123.847C110.896 125.298 112.072 126.474 113.523 126.474H159.913C161.364 126.474 162.54 125.298 162.54 123.847V114.049C162.54 112.598 161.364 111.422 159.913 111.422Z" fill="#F5F5F5"/>
<path d="M121.359 119.88C121.361 120.19 121.297 120.497 121.173 120.781C121.049 121.064 120.866 121.319 120.638 121.528C120.409 121.737 120.139 121.896 119.846 121.995C119.552 122.093 119.241 122.129 118.932 122.1C117.023 122.1 116.009 120.724 116.009 118.445C116.009 115.973 117.319 114.708 119.25 114.708C119.824 114.683 120.393 114.81 120.901 115.078L120.686 115.507C120.247 115.266 119.75 115.151 119.25 115.174C117.615 115.174 116.542 116.247 116.542 118.363C116.54 118.655 116.56 118.947 116.601 119.236C116.775 118.771 117.096 118.374 117.515 118.107C117.934 117.84 118.429 117.717 118.925 117.756C120.412 117.705 121.359 118.556 121.359 119.88ZM120.827 119.88C120.827 118.837 120.087 118.163 118.851 118.163C118.603 118.138 118.352 118.163 118.114 118.238C117.876 118.313 117.656 118.435 117.467 118.598C117.277 118.761 117.124 118.961 117.014 119.185C116.905 119.409 116.842 119.653 116.831 119.902C116.831 120.753 117.571 121.612 118.917 121.612C119.162 121.643 119.41 121.62 119.645 121.547C119.88 121.474 120.097 121.351 120.281 121.187C120.464 121.023 120.611 120.821 120.71 120.596C120.809 120.371 120.859 120.127 120.856 119.88H120.827Z" fill="#653EFF"/>
<path d="M131.061 119.999H129.537V122.019H129.011V119.999H124.86V119.614L128.819 114.73H129.411L125.526 119.525H129.026V117.749H129.537V119.525H131.061V119.999Z" fill="#653EFF"/>
<path d="M139.156 119.962C139.156 121.175 138.283 122.071 136.603 122.071C136.131 122.089 135.66 122.011 135.219 121.842C134.777 121.673 134.375 121.416 134.036 121.086L134.302 120.679C134.604 120.978 134.964 121.211 135.36 121.365C135.756 121.519 136.179 121.59 136.603 121.575C137.913 121.575 138.616 120.953 138.616 119.962C138.616 118.97 137.95 118.348 136.492 118.348H136.034V117.964L138.187 115.203H134.302V114.7H138.875V115.07L136.655 117.875C138.379 117.941 139.156 118.778 139.156 119.962Z" fill="#653EFF"/>
<path d="M148 114.7V115.07L144.87 121.989H144.285L147.386 115.174H143.293V116.572H142.775V114.7H148Z" fill="#653EFF"/>
<path d="M151.7 118.4C151.7 116.121 152.877 114.7 154.549 114.7C156.222 114.7 157.406 116.114 157.406 118.4C157.406 120.687 156.229 122.1 154.549 122.1C152.869 122.1 151.7 120.62 151.7 118.4ZM156.88 118.4C156.88 116.373 155.933 115.196 154.557 115.196C153.18 115.196 152.233 116.373 152.233 118.4C152.233 120.428 153.18 121.604 154.557 121.604C155.933 121.604 156.88 120.398 156.88 118.4Z" fill="#653EFF"/>
<path d="M310.356 308.965C320.043 304.851 331.261 296.763 336.256 286.839C325.507 291.301 316.442 299.045 310.356 308.965Z" fill="#263238"/>
<path d="M312.421 293.565C322.107 289.458 333.326 281.37 338.321 271.447C327.57 275.902 318.504 283.644 312.421 293.565Z" fill="#263238"/>
<path d="M315.24 278.595C324.934 274.481 336.145 266.393 341.14 256.477C330.389 260.933 321.324 268.675 315.24 278.595Z" fill="#263238"/>
<path d="M318.733 262.922C327.872 257.52 338.062 247.9 341.88 237.407C331.725 243.323 323.647 252.235 318.755 262.922" fill="#263238"/>
<path d="M322.492 250.927C329.152 242.217 335.36 229.252 335.279 218.019C327.876 227.494 323.429 238.939 322.492 250.927Z" fill="#263238"/>
<path d="M320.627 256.632C319.28 244.851 314.707 230.044 306.922 221.208C308.237 234.03 312.97 246.264 320.627 256.632Z" fill="#263238"/>
<path d="M317.497 269.516C315.129 257.372 309.135 242.35 300.299 233.833C302.718 247.058 308.659 259.385 317.497 269.516Z" fill="#263238"/>
<path d="M313.9 285.226C311.54 273.06 305.531 258.06 296.74 249.543C299.159 262.767 305.1 275.094 313.937 285.226" fill="#263238"/>
<path d="M311.014 304.518C308.639 292.374 302.645 277.352 293.816 268.835C296.235 282.059 302.177 294.386 311.014 304.518Z" fill="#263238"/>
<path d="M322.943 248.64C322.907 248.697 322.882 248.759 322.869 248.825C322.817 248.966 322.758 249.143 322.684 249.365C322.521 249.876 322.292 250.579 322.011 251.467C321.426 253.295 320.642 255.951 319.717 259.252C318.792 262.552 317.77 266.496 316.72 270.899C315.669 275.302 314.633 280.179 313.656 285.315C312.679 290.45 311.917 295.379 311.273 299.863C310.629 304.347 310.171 308.403 309.838 311.807C309.505 315.211 309.268 317.978 309.149 319.895C309.09 320.827 309.046 321.56 309.009 322.115C309.009 322.352 309.009 322.537 309.009 322.692C308.999 322.756 308.999 322.821 309.009 322.884C309.031 322.823 309.044 322.758 309.046 322.692C309.046 322.544 309.046 322.352 309.105 322.122C309.157 321.589 309.231 320.857 309.32 319.902C309.482 318 309.756 315.24 310.126 311.836C310.496 308.432 311.007 304.392 311.643 299.915C312.28 295.438 313.123 290.524 314.056 285.389C314.988 280.253 316.068 275.391 317.082 270.981C318.096 266.57 319.102 262.626 319.998 259.318C320.893 256.011 321.633 253.347 322.173 251.511L322.78 249.388C322.839 249.166 322.884 248.981 322.928 248.833C322.942 248.769 322.946 248.705 322.943 248.64Z" fill="#263238"/>
<path d="M305.62 315.373C309.727 306.774 312.716 294.653 310.704 285.233C306.111 294.571 304.344 305.046 305.62 315.373Z" fill="#455A64"/>
<path d="M298.805 304.236C302.912 295.63 305.901 283.516 303.881 274.096C299.287 283.433 297.523 293.909 298.805 304.236Z" fill="#455A64"/>
<path d="M292.677 292.907C296.784 284.301 299.774 272.187 297.754 262.767C293.16 272.104 291.395 282.58 292.677 292.907Z" fill="#455A64"/>
<path d="M286.639 280.69C289.696 271.588 291.227 259.17 288.119 250.091C284.671 259.931 284.157 270.562 286.639 280.69Z" fill="#455A64"/>
<path d="M282.68 270.685C282.376 260.998 279.527 248.862 273.511 241.706C273.646 252.058 276.835 262.14 282.68 270.685Z" fill="#455A64"/>
<path d="M284.522 275.487C277.396 268.768 266.563 262.086 256.824 261.213C264.441 268.607 274.081 273.575 284.522 275.487Z" fill="#455A64"/>
<path d="M289.34 285.684C281.355 279.35 269.485 273.415 259.229 273.393C267.827 280.382 278.307 284.66 289.34 285.684Z" fill="#455A64"/>
<path d="M295.334 297.976C287.349 291.649 275.487 285.707 265.23 285.685C273.826 292.673 284.303 296.951 295.334 297.976Z" fill="#455A64"/>
<path d="M303.703 312.125C295.719 305.79 283.849 299.856 273.593 299.826C282.188 306.82 292.669 311.101 303.703 312.125Z" fill="#455A64"/>
<path d="M281.777 268.931C281.777 268.931 281.777 268.983 281.821 269.086L281.984 269.545L282.65 271.284C283.235 272.764 284.13 274.984 285.262 277.633C287.541 282.954 290.923 290.213 295.119 298.013C297.221 301.898 299.33 305.553 301.298 308.832C303.266 312.11 305.139 315.026 306.744 317.438C308.35 319.85 309.704 321.782 310.622 323.099L311.717 324.579L312.006 324.964C312.072 325.053 312.109 325.097 312.117 325.089C312.093 325.038 312.066 324.989 312.035 324.941L311.776 324.534C311.517 324.157 311.177 323.639 310.74 322.988C309.823 321.648 308.52 319.695 306.959 317.268C305.398 314.84 303.555 311.91 301.587 308.632C299.618 305.354 297.539 301.691 295.437 297.806C291.241 290.08 287.86 282.828 285.499 277.5C284.33 274.851 283.405 272.697 282.783 271.203L282.043 269.486L281.843 269.042C281.825 269.003 281.803 268.966 281.777 268.931Z" fill="#263238"/>
<path d="M286.07 316.417H326.888V324.283H322.692L319.163 346.72H293.929L290.295 324.283H286.07V316.417Z" fill="#653EFF"/>
<path d="M286.07 324.12C286.07 324.016 295.142 323.927 306.331 323.927C317.52 323.927 326.592 324.016 326.592 324.12C326.592 324.223 317.527 324.305 306.331 324.305C295.135 324.305 286.07 324.223 286.07 324.12Z" fill="#263238"/>
<path d="M52.2512 346.734H45.6282L43.1714 316.905H50.971L52.2512 346.734Z" fill="#263238"/>
<path d="M109.675 346.734H116.298L118.755 316.905H110.955L109.675 346.734Z" fill="#263238"/>
<path d="M123.306 320.686L38.0285 322.684L35.4385 267.606C35.3774 266.328 35.5764 265.051 36.0234 263.853C36.4704 262.654 37.1561 261.559 38.039 260.633C38.9218 259.707 39.9835 258.97 41.1595 258.467C42.3356 257.964 43.6017 257.704 44.8809 257.705H117.542C118.838 257.705 120.121 257.971 121.311 258.488C122.5 259.005 123.57 259.761 124.455 260.709C125.34 261.657 126.021 262.777 126.454 263.999C126.888 265.221 127.066 266.519 126.977 267.813L123.306 320.686Z" fill="#653EFF"/>
<path d="M127.679 267.421H127.443H126.74L124.053 267.465H114.167C105.82 267.465 94.2907 267.391 81.5627 267.687C68.8273 268.109 57.2833 268.035 48.9435 267.909C44.7699 267.843 41.3881 267.761 39.0571 267.687L36.3709 267.598H35.6753C35.5967 267.609 35.5171 267.609 35.4385 267.598H35.6753H36.3709H39.0571L48.9435 267.695C57.2907 267.754 68.8199 267.783 81.5553 267.354C94.2907 267.066 105.82 267.199 114.167 267.258L124.053 267.339L126.74 267.376H127.443L127.679 267.421Z" fill="#263238"/>
<path d="M66.5408 258.563C64.624 258.844 62.7589 259.405 61.0056 260.228C59.3077 261.162 57.7589 262.344 56.4102 263.736C56.6817 263.22 57.0396 262.754 57.4684 262.359C59.4354 260.336 62.0162 259.019 64.8092 258.615C65.3788 258.496 65.965 258.478 66.5408 258.563Z" fill="#263238"/>
<path d="M101.616 158.419L112.036 177.459L127.28 168.92L134.68 171.369C134.68 171.369 116.002 191.66 112.961 192.718C109.919 193.776 104.162 193.946 100.876 189.825C97.9164 186.073 89.1548 166.389 89.1548 166.389L101.616 158.419Z" fill="#FFBE9D"/>
<path d="M144.529 145.987C144.395 145.823 144.222 145.696 144.025 145.618C143.828 145.54 143.614 145.514 143.404 145.543L136.16 146.52C135.845 146.567 135.544 146.681 135.277 146.854C135.01 147.028 134.784 147.257 134.613 147.526L119.51 170.725L120.664 171.369L128.701 171.117L144.759 146.275L144.529 145.987Z" fill="#263238"/>
<path d="M139.386 148.999C139.444 149.091 139.529 149.162 139.63 149.203C139.731 149.243 139.842 149.251 139.947 149.226C140.053 149.2 140.147 149.141 140.218 149.059C140.289 148.976 140.331 148.874 140.34 148.765C140.349 148.657 140.324 148.549 140.268 148.456C140.212 148.363 140.129 148.289 140.029 148.246C139.929 148.204 139.818 148.193 139.712 148.217C139.606 148.24 139.51 148.296 139.438 148.377C139.353 148.455 139.3 148.563 139.29 148.678C139.281 148.793 139.315 148.908 139.386 148.999Z" fill="white"/>
<path d="M144.758 146.275C144.298 146.404 143.828 146.496 143.352 146.549L139.504 147.149L136.848 147.533C136.623 147.554 136.405 147.624 136.21 147.739C136.015 147.854 135.849 148.012 135.723 148.199L134.865 149.531C133.673 151.359 132.378 153.365 131.017 155.451C128.271 159.655 125.77 163.451 123.935 166.189L121.752 169.46C121.498 169.866 121.214 170.251 120.901 170.614C121.109 170.178 121.357 169.762 121.641 169.371L123.713 166.07C125.481 163.288 127.938 159.47 130.684 155.266C132.06 153.172 133.37 151.174 134.561 149.346C134.865 148.895 135.161 148.451 135.442 148.014C135.6 147.788 135.805 147.599 136.045 147.46C136.284 147.322 136.55 147.239 136.826 147.215L139.497 146.875L143.367 146.416C143.827 146.332 144.292 146.285 144.758 146.275Z" fill="#455A64"/>
<path d="M136.7 154.556C136.7 154.556 136.056 154.445 135.701 156.214C135.346 157.983 134.221 163.059 134.221 163.059L130.832 161.261L126.584 161.816C126.584 161.816 125.659 162.667 126.34 163.133C127.021 163.599 129.7 164.073 129.7 164.073L131.676 166.922L126 164.184C126 164.184 124.105 164.68 124.66 165.834C125.215 166.988 129.041 170.607 129.041 170.607L126.2 170.392L122.84 168.335C122.84 168.335 121.804 168.387 122.189 169.268C122.574 170.148 126.096 173.345 126.096 173.345L130.358 175.417C130.358 175.417 132.689 175.232 132.911 174.544C133.062 174.002 133.156 173.447 133.193 172.886C133.193 172.886 134.428 172.553 134.673 171.954C134.808 171.45 134.836 170.923 134.754 170.407C134.754 170.407 136.693 170.748 136.937 169.667C137.106 168.321 137.051 166.955 136.774 165.627C136.582 164.791 137.603 157.058 137.514 156.828C137.425 156.599 137.921 154.046 136.7 154.556Z" fill="#FFBE9D"/>
<path d="M133.022 174.558C132.685 174.76 132.304 174.877 131.912 174.899C130.021 175.173 128.097 174.715 126.532 173.619C125.948 173.197 125.659 172.879 125.696 172.812C125.733 172.745 127.124 173.87 129.196 174.351C131.268 174.832 133 174.425 133.022 174.558Z" fill="#EB996E"/>
<path d="M132.015 173.027C131.949 173.123 131.187 172.731 130.38 172.065C129.573 171.399 129.041 170.74 129.122 170.659C129.203 170.577 129.862 171.08 130.661 171.732C131.46 172.383 132.082 172.923 132.015 173.027Z" fill="#EB996E"/>
<path d="M134.257 169.349C134.191 169.445 133.436 169.06 132.681 168.357C131.926 167.654 131.482 166.944 131.571 166.877C131.66 166.811 132.252 167.373 132.977 168.046C133.702 168.72 134.324 169.245 134.257 169.349Z" fill="#EB996E"/>
<path d="M136.618 166.381C136.5 166.433 136.07 165.641 135.397 164.761C134.724 163.88 134.065 163.281 134.139 163.162C134.213 163.044 135.027 163.562 135.737 164.494C136.224 165.013 136.533 165.675 136.618 166.381Z" fill="#EB996E"/>
<path d="M139.497 303.622C139.554 303.391 139.554 303.15 139.497 302.919C139.377 302.28 139.125 301.672 138.757 301.136C138.637 300.95 138.495 300.778 138.335 300.625C138.231 300.526 138.101 300.457 137.96 300.426C137.819 300.395 137.673 300.402 137.536 300.447C137.456 300.475 137.382 300.521 137.322 300.581C137.262 300.642 137.216 300.715 137.188 300.795C137.136 300.949 137.136 301.115 137.188 301.269C137.289 301.526 137.413 301.774 137.558 302.009C137.832 302.475 138.062 302.934 138.417 303.489C138.52 303.638 138.662 303.756 138.828 303.83C138.994 303.905 139.176 303.932 139.357 303.911C139.687 303.852 139.999 303.715 140.267 303.511C140.757 303.152 141.204 302.737 141.599 302.275C141.789 302.056 141.967 301.826 142.132 301.587C142.311 301.353 142.445 301.087 142.524 300.803C142.568 300.635 142.552 300.458 142.479 300.301C142.406 300.144 142.281 300.018 142.124 299.944C141.978 299.901 141.823 299.896 141.674 299.93C141.525 299.963 141.387 300.035 141.273 300.137C140.935 300.432 140.636 300.77 140.385 301.143C140.013 301.666 139.716 302.239 139.505 302.845C139.407 303.059 139.357 303.291 139.357 303.526C139.707 302.748 140.131 302.004 140.622 301.306C140.873 300.973 141.161 300.67 141.48 300.403C141.651 300.285 141.858 300.203 141.984 300.27C142.057 300.313 142.113 300.38 142.142 300.459C142.172 300.539 142.173 300.626 142.146 300.706C142.07 300.938 141.952 301.153 141.799 301.343C141.643 301.565 141.473 301.779 141.295 301.994C140.912 302.424 140.486 302.814 140.023 303.156C139.806 303.323 139.552 303.434 139.283 303.481C139.172 303.495 139.06 303.477 138.959 303.43C138.859 303.383 138.773 303.308 138.713 303.215C138.424 302.793 138.143 302.268 137.869 301.831C137.743 301.602 137.588 301.38 137.514 301.195C137.44 301.01 137.514 300.862 137.625 300.803C137.943 300.677 138.261 301.039 138.476 301.343C138.957 302.031 139.303 302.805 139.497 303.622Z" fill="#263238"/>
<path d="M121.316 304.243L112.288 323.816L97.7173 317.082L107.056 292.862L121.316 304.243Z" fill="#FFBE9D"/>
<path d="M113.959 322.507L108.683 332.571C108.683 332.571 122.188 346.534 120.923 349.657L89.1768 334.435L97.894 314.256L113.959 322.507Z" fill="#455A64"/>
<path d="M99.5589 326.488C99.21 326.444 98.8568 326.525 98.5626 326.718C98.2684 326.91 98.0523 327.201 97.9531 327.539C97.8861 327.886 97.9556 328.246 98.1472 328.544C98.3387 328.841 98.6376 329.054 98.9817 329.137C99.3523 329.193 99.7305 329.11 100.043 328.903C100.356 328.697 100.582 328.382 100.676 328.019C100.708 327.649 100.594 327.281 100.36 326.992C100.125 326.704 99.7875 326.518 99.4183 326.473" fill="#E0E0E0"/>
<g opacity="0.6">
<path d="M89.207 334.436L90.5242 331.905L120.472 347.445C120.472 347.445 121.589 348.732 120.953 349.665L89.207 334.436Z" fill="white"/>
</g>
<path d="M109.305 332.652C109.231 332.807 108.417 332.504 107.418 332.652C106.419 332.8 105.693 333.244 105.582 333.111C105.471 332.978 106.13 332.201 107.344 332.06C108.557 331.919 109.408 332.526 109.305 332.652Z" fill="#263238"/>
<path d="M111.977 335.627C111.977 335.797 111.14 335.738 110.304 336.137C109.468 336.537 108.98 337.166 108.824 337.084C108.669 337.003 108.994 336.078 110.053 335.604C111.111 335.131 112.043 335.479 111.977 335.627Z" fill="#263238"/>
<path d="M111.954 340.518C111.799 340.518 111.954 339.608 112.761 338.949C113.567 338.291 114.455 338.298 114.455 338.461C114.455 338.624 113.797 338.861 113.138 339.408C112.48 339.956 112.117 340.577 111.954 340.518Z" fill="#263238"/>
<path d="M110.822 328.782C110.689 328.893 110.082 328.338 109.18 327.975C108.277 327.613 107.455 327.561 107.441 327.391C107.426 327.22 108.343 326.984 109.402 327.391C110.46 327.798 110.956 328.693 110.822 328.782Z" fill="#263238"/>
<path d="M116.964 319.894L140.77 260.332C140.77 260.332 140.23 250.164 138.358 246.96C136.485 243.756 79.7865 225.026 79.7865 225.026C79.7865 225.026 65.3491 221.548 55.7143 225.026C46.0795 228.504 38.8645 240.566 40.1743 247.226C41.4841 253.886 47.1525 258.822 47.1525 258.822L88.8515 260.065L111.577 268.353L96.2737 312.213L116.964 319.894Z" fill="#263238"/>
<path d="M138.135 279.194L138.675 300.736L122.625 301.135L120.316 275.28L138.135 279.194Z" fill="#FFBE9D"/>
<path d="M139.63 298.812L139.334 310.171C139.334 310.171 157.612 316.735 157.834 320.102L122.632 320.457L121.544 298.501L139.63 298.812Z" fill="#455A64"/>
<path d="M128.434 308.757C128.097 308.864 127.81 309.091 127.63 309.395C127.45 309.7 127.388 310.06 127.457 310.408C127.552 310.749 127.773 311.041 128.075 311.224C128.378 311.407 128.74 311.467 129.085 311.392C129.442 311.277 129.744 311.035 129.932 310.711C130.121 310.387 130.183 310.005 130.107 309.638C129.974 309.291 129.711 309.01 129.373 308.854C129.036 308.698 128.652 308.679 128.301 308.802" fill="#E0E0E0"/>
<g opacity="0.6">
<path d="M122.655 320.457L122.721 317.6L156.451 318.34C156.451 318.34 158.019 319.006 157.857 320.116L122.655 320.457Z" fill="white"/>
</g>
<path d="M139.904 309.986C139.904 310.156 139.038 310.245 138.202 310.807C137.366 311.37 136.915 312.095 136.759 312.028C136.604 311.962 136.848 310.963 137.877 310.304C138.905 309.646 139.941 309.831 139.904 309.986Z" fill="#263238"/>
<path d="M143.611 311.473C143.656 311.643 142.908 311.939 142.331 312.672C141.754 313.405 141.591 314.152 141.428 314.152C141.266 314.152 141.132 313.175 141.872 312.272C142.612 311.37 143.604 311.31 143.611 311.473Z" fill="#263238"/>
<path d="M145.779 315.876C145.624 315.913 145.38 315.055 145.779 314.108C146.179 313.161 147.015 312.783 147.089 312.924C147.163 313.064 146.667 313.575 146.349 314.352C146.031 315.129 145.92 315.854 145.779 315.876Z" fill="#263238"/>
<path d="M139.549 305.842C139.483 305.997 138.691 305.768 137.722 305.842C136.752 305.916 135.997 306.234 135.901 306.086C135.805 305.938 136.53 305.346 137.677 305.25C138.824 305.154 139.638 305.701 139.549 305.842Z" fill="#263238"/>
<path d="M128.76 219.373C128.76 219.373 138.38 218.633 139.446 229.037C140.511 239.442 141.562 288.148 141.562 288.148L119.14 290.021L115.662 240.27L79.8237 225.026C79.8237 225.026 122.344 218.041 128.76 219.373Z" fill="#263238"/>
<path d="M89.1402 205.298C89.1402 205.298 94.9714 221.659 93.8614 223.48C92.7514 225.3 77.7516 232.804 77.7516 232.804L40.204 247.226C40.204 247.226 36.3486 241.092 36.3486 231.686C36.3486 222.281 49.4096 205.313 49.4096 205.313L89.1402 205.298Z" fill="#263238"/>
<path d="M78.0107 224.22C78.0664 224.258 78.126 224.29 78.1883 224.316L78.7211 224.56L80.8005 225.485L88.6075 228.889L115.551 240.485L115.425 240.315C115.766 245.228 116.165 250.534 116.513 256.025C117.431 268.864 118.274 280.697 118.94 290.065V290.235H119.11L135.479 288.8L139.986 288.378L141.162 288.259L141.562 288.2C141.427 288.189 141.29 288.189 141.155 288.2L139.978 288.274L135.464 288.607L119.081 289.895L119.266 290.05C118.622 280.689 117.786 268.849 116.927 256.01C116.543 250.519 116.187 245.214 115.817 240.3V240.182L115.706 240.13L88.7037 228.66L80.8523 225.374L78.7507 224.508L78.2031 224.294C78.141 224.264 78.0767 224.239 78.0107 224.22Z" fill="#455A64"/>
<path d="M48.1509 225.825C48.5126 225.769 48.8673 225.675 49.2091 225.544L52.0359 224.627C55.1211 223.584 58.2831 222.785 61.4931 222.236C64.7045 221.712 67.9829 221.755 71.1797 222.362C73.6217 222.873 75.0277 223.568 75.0573 223.487C74.7539 223.281 74.4257 223.115 74.0805 222.991C73.1635 222.605 72.2154 222.298 71.2463 222.074C68.0159 221.37 64.6813 221.284 61.4191 221.822C58.1833 222.369 55.005 223.213 51.9249 224.345C50.7409 224.767 49.7937 225.13 49.1351 225.389C48.7956 225.507 48.4664 225.653 48.1509 225.825Z" fill="#455A64"/>
<path d="M53.4575 217.205C54.5517 217.138 55.6489 217.138 56.7431 217.205C57.7569 217.271 58.9631 217.427 60.2951 217.582C61.6271 217.737 63.0997 217.922 64.6241 218.211C67.2324 218.626 69.7324 219.554 71.9797 220.942C72.8765 221.566 73.7295 222.251 74.5327 222.991C74.3854 222.732 74.2009 222.495 73.9851 222.288C73.4302 221.691 72.8125 221.155 72.1425 220.69C69.896 219.205 67.3577 218.219 64.6981 217.797C63.1589 217.508 61.6789 217.338 60.3395 217.197C59.0001 217.057 57.7865 216.938 56.7579 216.909C55.9474 216.873 55.1353 216.908 54.3307 217.012C54.0319 217.034 53.7379 217.099 53.4575 217.205Z" fill="#455A64"/>
<path d="M70.0401 85.7507C65.7259 85.0107 61.9001 86.6757 58.2815 89.1103C54.578 91.7136 51.7556 95.3835 50.1903 99.6312C48.625 103.879 48.3912 108.503 49.5199 112.887C50.1448 115.114 51.2145 117.193 52.6643 118.996C54.1142 120.8 55.9142 122.291 57.9559 123.38C63.5725 126.229 70.7579 125.237 75.7899 121.434C80.8219 117.63 83.6857 111.347 83.9299 105.05C84.1629 100.683 83.0189 96.3521 80.6591 92.6697C79.4627 90.8505 77.9043 89.2972 76.0812 88.1068C74.258 86.9164 72.2091 86.1143 70.0623 85.7507" fill="#263238"/>
<path d="M57.7572 100.44C58.3936 98.7823 58.142 96.9398 58.3936 95.186C58.9486 91.3306 62.0936 88.2373 65.6456 86.7351C68.9904 85.3365 73.0456 85.6399 77.1008 86.9423C79.898 87.7901 82.3956 89.4176 84.301 91.6339C85.5136 93.1377 86.3479 94.9102 86.7342 96.8029C87.1205 98.6956 87.0474 100.653 86.521 102.512L66.7926 99.6407C64.9426 101.165 63.0482 102.727 60.806 103.578C60.1597 103.861 59.4511 103.973 58.7488 103.903C58.399 103.862 58.0685 103.72 57.7969 103.496C57.5252 103.271 57.3239 102.973 57.217 102.638C57.0394 101.89 57.4834 101.158 57.7572 100.44Z" fill="#263238"/>
<path d="M77.5216 92.3888L60.2944 96.0444C59.496 96.0974 58.746 96.4458 58.1905 97.0218C57.6351 97.5978 57.314 98.36 57.29 99.1598L57.4972 136.448C57.5147 138.994 58.3674 141.464 59.9244 143.478L61.5672 145.595C65.319 150.427 72.904 149.939 75.7678 144.537C75.943 144.23 76.0774 143.901 76.1674 143.56C76.2192 143.227 76.308 143.005 76.3228 142.724L76.6558 139.083C76.8186 135.768 76.8482 132.423 76.8482 132.423C76.8482 132.423 83.9004 131.535 85.7282 122.448C86.6236 117.934 86.6828 110.467 86.5348 104.362C86.3794 98.8934 83.0124 92.0262 77.5216 92.3888Z" fill="#FFBE9D"/>
<path d="M83.8941 111.392C83.8845 111.697 83.7561 111.986 83.5362 112.198C83.3164 112.409 83.0226 112.526 82.7175 112.524C82.5677 112.531 82.4181 112.508 82.2774 112.456C82.1368 112.404 82.0081 112.324 81.899 112.221C81.7899 112.118 81.7027 111.994 81.6424 111.857C81.5822 111.72 81.5502 111.572 81.5483 111.422C81.5598 111.117 81.6886 110.828 81.9078 110.616C82.127 110.403 82.4198 110.284 82.7249 110.282C82.8751 110.276 83.0249 110.3 83.1656 110.353C83.3063 110.406 83.4349 110.487 83.5439 110.59C83.6529 110.694 83.74 110.818 83.8002 110.956C83.8603 111.093 83.8923 111.242 83.8941 111.392Z" fill="#263238"/>
<path d="M84.7522 108.203C84.5968 108.351 83.7384 107.662 82.473 107.618C81.2076 107.574 80.253 108.166 80.1346 108.003C80.0162 107.84 80.2234 107.662 80.6378 107.389C81.1989 107.028 81.8587 106.852 82.5248 106.885C83.1791 106.908 83.8091 107.138 84.323 107.544C84.7004 107.862 84.8262 108.143 84.7522 108.203Z" fill="#263238"/>
<path d="M72.5869 111.103C72.5792 111.409 72.4516 111.7 72.2315 111.914C72.0115 112.127 71.7166 112.245 71.4103 112.243C71.2611 112.249 71.1123 112.225 70.9725 112.172C70.8328 112.12 70.7049 112.04 70.5966 111.937C70.4883 111.834 70.4017 111.711 70.3419 111.574C70.2822 111.437 70.2504 111.29 70.2485 111.14C70.2563 110.835 70.3828 110.545 70.6013 110.333C70.8197 110.12 71.1127 110.001 71.4177 110.001C71.5673 109.995 71.7165 110.019 71.8567 110.071C71.9969 110.124 72.1252 110.204 72.234 110.306C72.3429 110.409 72.4302 110.532 72.4908 110.669C72.5514 110.806 72.5841 110.954 72.5869 111.103Z" fill="#263238"/>
<path d="M72.7717 107.899C72.6163 108.047 71.7579 107.352 70.4925 107.307C69.2271 107.263 68.2725 107.855 68.1541 107.7C68.0357 107.544 68.2429 107.359 68.6647 107.078C69.2255 106.723 69.8812 106.547 70.5443 106.575C71.2013 106.601 71.8331 106.834 72.3499 107.241C72.7199 107.552 72.8457 107.833 72.7717 107.899Z" fill="#263238"/>
<path d="M76.5527 117.489C77.2278 117.316 77.9204 117.219 78.6173 117.201C78.9429 117.201 79.2463 117.127 79.3129 116.912C79.3509 116.581 79.2891 116.246 79.1353 115.95C78.8615 115.158 78.5729 114.33 78.2769 113.456C77.0855 109.912 76.2419 107.004 76.3825 106.959C76.5231 106.915 77.6109 109.749 78.7949 113.294C79.0761 114.167 79.3499 114.996 79.6089 115.795C79.799 116.191 79.841 116.643 79.7273 117.068C79.6751 117.179 79.5989 117.277 79.5042 117.355C79.4095 117.433 79.2987 117.489 79.1797 117.519C78.9996 117.556 78.816 117.574 78.6321 117.571C77.9384 117.636 77.2392 117.609 76.5527 117.489Z" fill="#263238"/>
<path d="M76.8487 132.46C72.5423 132.362 68.3482 131.068 64.7349 128.723C64.7349 128.723 67.5617 135.168 76.7451 134.643L76.8487 132.46Z" fill="#EB996E"/>
<path d="M75.901 120.509C75.6727 120.198 75.3686 119.95 75.0176 119.789C74.6666 119.629 74.2804 119.56 73.8956 119.591C73.6113 119.606 73.3332 119.68 73.0786 119.807C72.8239 119.934 72.5983 120.113 72.4156 120.331C72.2424 120.533 72.1341 120.782 72.1051 121.046C72.076 121.31 72.1275 121.577 72.2528 121.811C72.4471 122.044 72.7063 122.214 72.9975 122.3C73.2886 122.386 73.5987 122.383 73.8882 122.292C74.4937 122.106 75.0551 121.799 75.5384 121.389C75.6863 121.297 75.8145 121.176 75.9158 121.034C75.9623 120.964 75.9871 120.882 75.9871 120.797C75.9871 120.713 75.9623 120.631 75.9158 120.561" fill="#EB996E"/>
<path d="M72.8084 118.222C73.0156 118.222 72.9638 119.584 74.096 120.605C75.2282 121.626 76.6934 121.53 76.7008 121.722C76.7008 121.804 76.3604 121.974 75.7462 121.967C74.9425 121.946 74.172 121.642 73.5706 121.108C72.999 120.604 72.6438 119.899 72.579 119.14C72.5198 118.54 72.7122 118.207 72.8084 118.222Z" fill="#263238"/>
<path d="M72.6974 104.155C72.5642 104.495 71.3062 104.281 69.8188 104.399C68.3314 104.517 67.1252 104.88 66.9402 104.562C66.8588 104.414 67.0734 104.096 67.5692 103.785C68.2265 103.396 68.9674 103.17 69.73 103.126C70.4872 103.062 71.2487 103.181 71.95 103.474C72.5198 103.711 72.7566 103.992 72.6974 104.155Z" fill="#263238"/>
<path d="M84.5967 102.675C84.3673 102.956 83.5089 102.623 82.4655 102.564C81.4221 102.505 80.5267 102.682 80.3343 102.379C80.2455 102.231 80.4009 101.95 80.7931 101.691C81.3242 101.377 81.94 101.237 82.5543 101.291C83.1667 101.324 83.7536 101.546 84.2341 101.927C84.5893 102.238 84.7003 102.542 84.5967 102.675Z" fill="#263238"/>
<path d="M54.5973 97.7757C56.3881 92.5291 64.2173 85.3807 69.7081 85.8765L78.4401 91.3451C78.1223 92.8468 77.4043 94.2345 76.3621 95.3613C75.3199 96.4882 73.9924 97.3122 72.5201 97.7461C70.9439 98.1901 69.0643 98.2863 68.0801 99.6109C67.0959 100.936 67.6213 102.971 66.7111 104.362C65.4457 106.301 62.1083 106.138 61.1463 108.239C60.7319 109.157 60.9169 110.267 60.4803 111.199C59.9031 112.413 56.7803 113.9 55.5001 113.471C54.2199 113.042 54.2643 110.859 53.8721 109.705C53.3673 108.406 53.3307 106.972 53.7685 105.649C54.4049 103.052 53.7463 100.277 54.5973 97.7757Z" fill="#263238"/>
<path d="M59.2886 114.603C59.2886 113.923 58.5486 112.287 57.9196 112.154C56.1362 111.806 52.895 111.828 52.6878 116.387C52.4066 122.618 58.7188 121.611 58.741 121.434C58.7632 121.256 59.1998 116.957 59.2886 114.603Z" fill="#FFBE9D"/>
<path d="M56.9796 118.992C56.9796 118.992 56.8686 119.058 56.6762 119.132C56.4174 119.236 56.1284 119.236 55.8696 119.132C55.2184 118.859 54.7152 117.786 54.73 116.668C54.7421 116.131 54.8709 115.604 55.1074 115.122C55.1758 114.93 55.2896 114.758 55.4391 114.62C55.5886 114.482 55.7693 114.382 55.9658 114.33C56.0912 114.301 56.2227 114.318 56.3367 114.378C56.4506 114.438 56.5395 114.536 56.5874 114.655C56.6614 114.833 56.5874 114.959 56.654 114.966C56.7206 114.974 56.7872 114.87 56.7502 114.611C56.7269 114.455 56.648 114.313 56.5282 114.211C56.446 114.141 56.3507 114.088 56.2478 114.055C56.1449 114.022 56.0365 114.01 55.9288 114.019C55.671 114.06 55.4277 114.165 55.2219 114.326C55.016 114.486 54.8544 114.696 54.7522 114.937C54.4646 115.464 54.3097 116.053 54.3008 116.653C54.3008 117.911 54.8706 119.118 55.7808 119.421C55.9457 119.476 56.1208 119.494 56.2936 119.474C56.4663 119.453 56.6324 119.395 56.7798 119.303C56.9204 119.14 56.9796 118.999 56.9796 118.992Z" fill="#EB996E"/>
<path d="M53.2794 96.1999C53.2794 94.2463 50.867 92.9735 48.9652 92.4999C47.0248 92.1665 45.0294 92.5477 43.3486 93.5729C42.3496 94.1205 41.3432 94.9049 41.1286 96.0223C40.914 97.1397 41.9796 98.4717 43.0452 98.0721C42.5244 98.2424 42.048 98.5263 41.6503 98.9033C41.2526 99.2802 40.9436 99.7408 40.7456 100.252C40.5476 100.763 40.4656 101.311 40.5054 101.858C40.5452 102.404 40.7059 102.935 40.9759 103.412C41.2459 103.889 41.6184 104.299 42.0666 104.615C42.5147 104.93 43.0273 105.142 43.5673 105.235C44.1073 105.328 44.6612 105.3 45.189 105.153C45.7168 105.006 46.2054 104.743 46.6194 104.384C46.0788 106.192 44.9347 107.759 43.3782 108.824C44.9883 109.055 46.631 108.858 48.1406 108.252C49.6503 107.647 50.9737 106.654 51.9775 105.374C52.9814 104.094 53.6303 102.572 53.8588 100.961C54.0874 99.3509 53.8875 97.7086 53.2794 96.1999Z" fill="#263238"/>
<path d="M48.9431 106.072C48.7579 105.466 48.6778 104.832 48.7063 104.199C48.6815 101.121 49.6928 98.1235 51.5775 95.6893C51.9333 95.1659 52.3793 94.7099 52.8947 94.3425C51.5933 96.0042 50.555 97.8561 49.8163 99.8333C48.6693 103.163 49.0837 106.079 48.9431 106.072Z" fill="#653EFF"/>
<path d="M76.6196 89.466C77.1894 92.0042 81.0596 95.2528 82.7394 97.2286C85.9658 100.995 86.6022 102.246 86.5726 110.674C88.097 107.766 89.2662 104.91 89.1478 101.632C89.076 98.3109 87.7915 95.1312 85.5366 92.6924C84.4083 91.5025 83.0185 90.5915 81.4773 90.0315C79.936 89.4715 78.2856 89.2779 76.6566 89.466" fill="#263238"/>
<path d="M103.045 158.789C103.045 158.789 96.3253 147.593 94.4605 145.329C92.9632 143.578 91.0815 142.198 88.9624 141.296C88.1254 140.934 87.2485 140.673 86.3502 140.519L76.6857 138.38C76.6857 138.38 76.6857 144.973 69.7667 145.38C62.8477 145.787 57.0461 136.16 57.0461 136.16C57.0461 136.16 45.8795 137.892 43.2155 139.268C40.5515 140.644 36.3483 142.383 34.0395 153.92L32.4189 165.227L51.6589 167.003L53.5015 195.597L63.0401 202.257C63.0401 202.257 89.4952 209.131 91.1602 209.583C92.8252 210.034 93.3802 167.018 93.3802 167.018C93.3802 167.018 100.233 162.645 103.045 158.789Z" fill="#263238"/>
<path d="M90.376 153.979C90.5319 154.24 90.6585 154.518 90.7534 154.808C90.968 155.348 91.2492 156.14 91.56 157.131C93.1776 162.327 93.8445 167.772 93.5284 173.204C93.4692 174.24 93.3878 175.076 93.299 175.653C93.2794 175.954 93.2273 176.252 93.1436 176.541C93.1082 176.241 93.1082 175.938 93.1436 175.639C93.1806 175.061 93.225 174.225 93.2472 173.189C93.3193 170.495 93.1956 167.799 92.8772 165.123C92.5435 162.451 92.0142 159.807 91.2936 157.213C91.0198 156.214 90.7756 155.407 90.598 154.859C90.4932 154.574 90.4188 154.279 90.376 153.979Z" fill="#455A64"/>
<path d="M89.5398 200.814L53.2798 192.925L51.6074 167.025L35.4976 165.545C35.4976 165.545 36.097 183.246 36.7112 188.485C37.6066 196.055 42.0762 206.386 44.6958 208.465C47.3154 210.545 91.1308 209.597 91.1308 209.597L89.5398 200.814Z" fill="#FFBE9D"/>
<path d="M110.119 205.505C109.999 205.756 109.806 205.964 109.566 206.104C109.326 206.244 109.05 206.308 108.773 206.29C108.654 206.282 108.538 206.259 108.425 206.223C107.618 205.964 107.685 204.329 107.685 204.329L103.852 203.707C103.852 203.707 98.8566 206.926 97.0806 209.057C95.3046 211.189 90.7758 209.464 90.7758 209.464L89.207 201.28L96.274 194.894C96.274 194.894 95.8448 195.271 96.3332 194.08C96.8216 192.888 99.0342 193.34 99.0342 193.34C99.382 192.748 100.832 192.541 100.832 192.541L107.034 193.281C107.664 193.354 108.269 193.567 108.806 193.905C109.342 194.243 109.796 194.697 110.134 195.234L112.761 199.386C112.761 199.386 114.145 202.346 113.923 203.086C113.824 203.383 113.617 203.632 113.342 203.782C113.068 203.933 112.747 203.975 112.443 203.9C112.443 203.9 112.14 205.868 111.622 205.935C111.093 205.907 110.573 205.782 110.09 205.565L110.119 205.505Z" fill="#FFBE9D"/>
<path d="M96.9395 199.63C96.9395 199.696 97.7683 199.63 99.0929 199.674C100.813 199.757 102.514 200.076 104.147 200.621C105.046 200.923 105.92 201.297 106.759 201.739C107.499 202.16 108.284 202.479 108.528 203.048C108.583 203.167 108.606 203.297 108.594 203.427C108.582 203.557 108.537 203.682 108.461 203.788C108.349 203.963 108.186 204.1 107.995 204.181C107.819 204.242 107.633 204.27 107.447 204.262C107.447 204.262 107.64 204.432 108.039 204.329C108.281 204.263 108.492 204.117 108.639 203.914C108.745 203.779 108.815 203.619 108.841 203.449C108.867 203.279 108.848 203.105 108.787 202.945C108.629 202.589 108.372 202.286 108.047 202.072C107.706 201.857 107.351 201.628 106.959 201.413C106.109 200.947 105.22 200.556 104.302 200.244C102.634 199.68 100.884 199.392 99.1225 199.393C98.3869 199.356 97.6501 199.436 96.9395 199.63Z" fill="#EB996E"/>
<path d="M96.4956 203.581C96.4956 203.699 99.0264 203.581 102.127 203.773C105.228 203.966 107.714 204.336 107.736 204.217C107.219 204.014 106.676 203.882 106.123 203.825C104.808 203.602 103.481 203.454 102.149 203.381C100.816 203.307 99.4792 203.307 98.1458 203.381C97.5892 203.371 97.0338 203.439 96.4956 203.581Z" fill="#EB996E"/>
<path d="M110.082 205.35C110.137 205.134 110.164 204.913 110.164 204.691C110.201 204.085 110.201 203.477 110.164 202.871C110.143 202.447 110.086 202.026 109.993 201.613C109.882 201.128 109.676 200.67 109.387 200.266C108.776 199.329 107.986 198.522 107.063 197.89C106.152 197.259 105.155 196.761 104.103 196.41C103.23 196.164 102.331 196.027 101.424 196.003C100.684 196.003 100.048 196.003 99.6186 196.003C99.3945 195.989 99.1694 196.011 98.9526 196.07C99.7669 196.187 100.587 196.256 101.409 196.277C102.288 196.336 103.157 196.495 103.999 196.751C105.009 197.119 105.967 197.617 106.848 198.231C107.721 198.843 108.474 199.61 109.068 200.495C109.555 201.215 109.834 202.055 109.875 202.922C110.038 204.395 110.001 205.35 110.082 205.35Z" fill="#EB996E"/>
<path d="M101.136 194.102C101.136 194.161 102.061 194.191 103.541 194.361C105.021 194.531 107.241 194.679 108.551 196.648C109.811 198.116 110.862 199.752 111.673 201.509C111.942 202.264 112.14 203.042 112.265 203.833C112.309 203.616 112.309 203.392 112.265 203.174C112.227 202.573 112.105 201.98 111.903 201.413C111.153 199.587 110.11 197.895 108.817 196.403C108.472 195.947 108.069 195.536 107.618 195.182C107.174 194.861 106.671 194.63 106.138 194.502C105.279 194.271 104.399 194.13 103.511 194.08C102.721 193.993 101.924 194.001 101.136 194.102Z" fill="#EB996E"/>
<path d="M98.4203 207.74C98.5514 207.657 98.6752 207.563 98.7903 207.459L99.8263 206.623C101.13 205.609 102.491 204.673 103.904 203.818H103.815L107.648 204.469L107.515 204.306C107.503 204.621 107.527 204.937 107.589 205.246C107.639 205.591 107.791 205.913 108.025 206.171C108.166 206.298 108.341 206.381 108.529 206.408C108.707 206.441 108.89 206.441 109.069 206.408C109.442 206.353 109.781 206.164 110.023 205.875C110.088 205.808 110.145 205.733 110.194 205.653L110.231 205.587L110.009 205.668L110.127 205.712C110.29 205.779 110.453 205.838 110.623 205.89C110.793 205.942 110.963 205.986 111.148 206.023C111.244 206.031 111.341 206.031 111.437 206.023C111.559 206.031 111.681 206.008 111.792 205.957C111.96 205.824 112.089 205.647 112.162 205.446C112.24 205.276 112.305 205.101 112.354 204.921C112.459 204.563 112.54 204.2 112.599 203.833L112.377 203.988C112.637 204.042 112.906 204.026 113.158 203.94C113.409 203.854 113.633 203.702 113.805 203.5C113.976 203.291 114.07 203.03 114.071 202.76C114.051 202.509 114.006 202.262 113.938 202.02C113.648 201.077 113.294 200.155 112.88 199.26L111.481 197.04L110.593 195.641C110.323 195.151 109.998 194.694 109.624 194.279C109.227 193.88 108.754 193.566 108.233 193.354C107.725 193.166 107.19 193.056 106.649 193.029L100.81 192.37H100.766C100.415 192.426 100.07 192.518 99.7375 192.644C99.3823 192.75 99.0709 192.968 98.8495 193.266L99.0641 193.199C98.7485 193.053 98.402 192.987 98.0549 193.006C97.7079 193.026 97.3708 193.13 97.0735 193.31C96.5556 193.687 96.2031 194.249 96.0893 194.879L96.1337 194.797L91.2645 199.178L89.9547 200.384C89.7932 200.516 89.6468 200.665 89.5181 200.828C89.6917 200.714 89.8551 200.586 90.0065 200.444L91.3755 199.297L96.3261 195.019H96.3631V194.968C96.4689 194.418 96.7781 193.93 97.2289 193.599C97.4833 193.454 97.7685 193.373 98.0607 193.362C98.3529 193.35 98.6436 193.408 98.9087 193.532L99.0419 193.584L99.1233 193.465C99.3163 193.236 99.5743 193.071 99.8633 192.992C100.173 192.879 100.492 192.797 100.818 192.748H100.766L106.605 193.436C107.111 193.466 107.609 193.57 108.085 193.747C108.557 193.936 108.985 194.22 109.343 194.583C109.696 194.979 110.004 195.413 110.26 195.878L111.148 197.284C111.629 198.024 112.103 198.764 112.547 199.504C112.959 200.376 113.307 201.276 113.59 202.197C113.656 202.412 113.698 202.633 113.716 202.856C113.72 203.048 113.654 203.234 113.531 203.381C113.405 203.529 113.242 203.639 113.058 203.7C112.874 203.762 112.677 203.772 112.488 203.729H112.288V203.914C112.231 204.266 112.155 204.614 112.058 204.958C111.996 205.263 111.858 205.547 111.659 205.786C111.607 205.794 111.555 205.794 111.503 205.786H111.267C111.111 205.786 110.948 205.712 110.786 205.668L110.312 205.505L110.201 205.461L109.972 205.542V205.587C109.936 205.65 109.894 205.709 109.846 205.764C109.658 205.989 109.395 206.139 109.106 206.186C108.967 206.216 108.823 206.216 108.684 206.186C108.553 206.174 108.43 206.122 108.329 206.038C108.004 205.569 107.857 205 107.914 204.432V204.292H107.781L103.933 203.692H103.889H103.852C102.444 204.573 101.097 205.547 99.8189 206.608C99.3749 206.985 99.0419 207.289 98.8199 207.496C98.6783 207.563 98.5443 207.644 98.4203 207.74Z" fill="#EB996E"/>
<path d="M157.116 181.699L109.408 182.091C107.854 182.091 106.382 182.831 106.145 184.363L100.965 219.143H76.3526C75.9906 219.169 75.652 219.331 75.4047 219.597C75.1575 219.863 75.02 220.212 75.02 220.575C75.02 220.938 75.1575 221.287 75.4047 221.553C75.652 221.819 75.9906 221.981 76.3526 222.007H154.852L160.217 185.303C160.284 184.857 160.254 184.401 160.129 183.968C160.004 183.534 159.787 183.133 159.492 182.79C159.198 182.448 158.834 182.174 158.423 181.986C158.013 181.797 157.567 181.7 157.116 181.699Z" fill="#E0E0E0"/>
<path d="M157.116 181.699C157.365 181.689 157.614 181.714 157.856 181.773C158.491 181.924 159.064 182.267 159.496 182.756C159.928 183.245 160.198 183.855 160.269 184.504C160.287 185.162 160.227 185.821 160.091 186.465L159.403 191.312C158.352 198.601 156.842 209.109 154.963 222.029V222.155H154.837L78.6837 222.2H76.6339C76.2613 222.235 75.8865 222.163 75.5535 221.992C75.2988 221.853 75.0864 221.647 74.9384 221.397C74.7905 221.147 74.7124 220.862 74.7124 220.572C74.7124 220.281 74.7905 219.996 74.9384 219.746C75.0864 219.496 75.2988 219.29 75.5535 219.151C75.8876 218.984 76.2621 218.915 76.6339 218.951H100.935L100.75 219.114C102.623 206.66 104.376 195.042 105.93 184.615C105.982 183.919 106.3 183.269 106.818 182.802C107.336 182.365 107.968 182.086 108.639 181.995C109.278 181.933 109.921 181.911 110.563 181.929H112.435L119.62 181.884L132.385 181.803L150.56 181.707H157.101C157.101 181.707 156.961 181.707 156.68 181.707H155.422L150.56 181.773L132.385 181.973L119.62 182.106L112.435 182.173H110.563C109.938 182.161 109.313 182.184 108.691 182.24C108.076 182.321 107.498 182.578 107.026 182.98C106.795 183.187 106.608 183.437 106.475 183.716C106.342 183.996 106.265 184.298 106.249 184.608C104.695 195.034 102.963 206.652 101.069 219.106V219.269H76.6487C76.3446 219.231 76.0359 219.282 75.7607 219.417C75.5102 219.561 75.3169 219.787 75.2132 220.056C75.1094 220.326 75.1015 220.623 75.1909 220.897C75.2967 221.175 75.4954 221.408 75.7533 221.556C76.0313 221.69 76.3415 221.744 76.6487 221.711H78.6985L154.852 221.756L154.704 221.881C156.62 208.968 158.174 198.468 159.255 191.179C159.529 189.366 159.773 187.745 159.995 186.347C160.132 185.712 160.199 185.064 160.195 184.415C160.133 183.782 159.877 183.183 159.463 182.699C159.048 182.216 158.495 181.872 157.878 181.714C157.625 181.696 157.37 181.691 157.116 181.699Z" fill="#263238"/>
<path d="M131.239 204.403C132.89 204.403 134.229 203.064 134.229 201.413C134.229 199.762 132.89 198.423 131.239 198.423C129.588 198.423 128.25 199.762 128.25 201.413C128.25 203.064 129.588 204.403 131.239 204.403Z" fill="white"/>
<path d="M102.86 221.682C102.927 221.682 104.444 212.839 106.249 201.909C108.055 190.979 109.468 182.099 109.402 182.092C109.335 182.084 107.811 190.935 106.005 201.864C104.2 212.794 102.801 221.674 102.86 221.682Z" fill="#263238"/>
</svg>
