<svg width="240" height="240" viewBox="0 0 240 240" fill="none" xmlns="http://www.w3.org/2000/svg">
<path d="M226.171 126.077C221.04 145.224 208.853 166.584 189.571 174.408C160.44 186.235 159.173 210.749 105.25 213.653C97.3786 214.111 89.4811 213.714 81.696 212.467C77.8894 211.846 74.1264 210.982 70.4304 209.88C37.8336 200.16 18.7872 173.76 14.6256 144.638C9.14879 106.315 34.248 85.3967 50.6736 72.9839C67.0992 60.5711 84.1536 16.9247 137.141 13.6559C145.231 13.1313 153.356 13.542 161.352 14.8799C179.592 17.9855 198.667 26.8799 210.658 41.4431C211.557 42.5375 212.424 43.6575 213.259 44.8031C229.589 67.2815 233.17 99.9695 226.171 126.077Z" fill="#653EFF"/>
<path opacity="0.7" d="M226.171 126.077C221.04 145.224 208.853 166.584 189.571 174.408C160.44 186.235 159.173 210.749 105.25 213.653C97.3786 214.111 89.4811 213.714 81.696 212.467C77.8894 211.846 74.1264 210.982 70.4304 209.88C37.8336 200.16 18.7872 173.76 14.6256 144.638C9.14879 106.315 34.248 85.3967 50.6736 72.9839C67.0992 60.5711 84.1536 16.9247 137.141 13.6559C145.231 13.1313 153.356 13.542 161.352 14.8799C179.592 17.9855 198.667 26.8799 210.658 41.4431C211.557 42.5375 212.424 43.6575 213.259 44.8031C229.589 67.2815 233.17 99.9695 226.171 126.077Z" fill="white"/>
<path opacity="0.3" d="M42.4128 53.1503V50.4287C42.4128 45.0623 38.8416 43.1615 35.2128 43.1615C34.2596 43.1446 33.3129 43.322 32.4305 43.6829C31.5481 44.0437 30.7483 44.5805 30.0801 45.2604C29.4118 45.9403 28.889 46.7492 28.5435 47.6378C28.198 48.5263 28.037 49.4759 28.0704 50.4287V53.1503H27.0336V68.2127H43.3536V53.1503H42.4128ZM35.6736 61.4399V64.1711H34.128V61.4399C33.6851 61.2606 33.3184 60.9328 33.0906 60.5128C32.8628 60.0927 32.7882 59.6066 32.8796 59.1376C32.9709 58.6685 33.2225 58.2459 33.5913 57.942C33.96 57.6382 34.423 57.472 34.9008 57.472C35.3786 57.472 35.8416 57.6382 36.2103 57.942C36.5791 58.2459 36.8307 58.6685 36.922 59.1376C37.0134 59.6066 36.9388 60.0927 36.711 60.5128C36.4832 60.9328 36.1165 61.2606 35.6736 61.4399ZM40.152 53.1647H30.24V50.4431C30.2374 49.1276 30.7572 47.8649 31.6852 46.9325C32.6131 46 33.8733 45.4741 35.1888 45.4703C37.9248 45.4703 40.152 47.3423 40.152 50.4287V53.1647Z" stroke="black" stroke-width="0.48" stroke-miterlimit="10"/>
<path opacity="0.3" d="M99.9792 24.7822H53.736C50.1625 24.7822 47.2656 27.6781 47.2656 31.2502C47.2656 34.8224 50.1625 37.7182 53.736 37.7182H99.9792C103.553 37.7182 106.45 34.8224 106.45 31.2502C106.45 27.6781 103.553 24.7822 99.9792 24.7822Z" stroke="black" stroke-width="0.48" stroke-miterlimit="10"/>
<g opacity="0.3">
<path d="M59.5728 30.6479L60.9216 32.1359L60.2736 32.6159L59.2656 30.8447L58.272 32.6399L57.624 32.1599L58.9632 30.6719L56.9904 30.2399L57.2304 29.4623L59.088 30.2783L58.8576 28.2671H59.6736L59.4576 30.2783L61.3152 29.4767L61.5552 30.2543L59.5728 30.6479Z" fill="black"/>
<path d="M64.5983 30.6479L65.9471 32.1359L65.2799 32.6399L64.2767 30.8687L63.2975 32.6399L62.6495 32.1599L63.9839 30.6719L62.0111 30.2399L62.2559 29.4623L64.1135 30.2783L63.8831 28.2671H64.6991L64.4831 30.2783L66.3407 29.4767L66.5807 30.2543L64.5983 30.6479Z" fill="black"/>
<path d="M69.5999 30.6479L70.9487 32.1359L70.3007 32.6159L69.2975 30.8447L68.3231 32.6399L67.6799 32.1599L69.0143 30.6719L67.0367 30.2399L67.2815 29.4623L69.1391 30.2783L68.9087 28.2671H69.7247L69.5087 30.2783L71.3663 29.4767L71.6063 30.2543L69.5999 30.6479Z" fill="black"/>
<path d="M74.6447 30.6479L75.9935 32.1359L75.3599 32.6399L74.3519 30.8687L73.3487 32.6399L72.7007 32.1599L74.0351 30.6719L72.0623 30.2399L72.3023 29.4623L74.1599 30.2783L73.9199 28.2671H74.7311L74.5151 30.2783L76.3727 29.4767L76.6175 30.2543L74.6447 30.6479Z" fill="black"/>
<path d="M79.68 30.6479L81.0288 32.1359L80.3808 32.6159L79.3728 30.8447L78.3744 32.6399L77.7216 32.1599L79.0608 30.6719L77.088 30.2399L77.328 29.4623L79.1856 30.2783L78.9552 28.2671H79.7712L79.5552 30.2783L81.4128 29.4767L81.6528 30.2543L79.68 30.6479Z" fill="black"/>
<path d="M84.696 30.6479L86.0448 32.1359L85.392 32.6159L84.3888 30.8447L83.3952 32.6399L82.7472 32.1599L84.0816 30.6719L82.1088 30.2399L82.3536 29.4623L84.2112 30.2783L84 28.2671H84.816L84.6 30.2783L86.4576 29.4767L86.6976 30.2543L84.696 30.6479Z" fill="black"/>
<path d="M89.7167 30.6479L91.0655 32.1359L90.4175 32.6159L89.4143 30.8447L88.4207 32.6399L87.7727 32.1599L89.1071 30.6719L87.1343 30.2399L87.3791 29.4623L89.2367 30.2783L89.0063 28.2671H89.8223L89.6063 30.2783L91.4639 29.4767L91.7039 30.2543L89.7167 30.6479Z" fill="black"/>
<path d="M94.7423 30.6479L96.0911 32.1359L95.4431 32.6159L94.4351 30.8447L93.4463 32.6399L92.7983 32.1599L94.1327 30.6719L92.1599 30.2399L92.3999 29.4623L94.2575 30.2783L94.0319 28.2671H94.8431L94.6271 30.2783L96.4799 29.4767L96.7247 30.2543L94.7423 30.6479Z" fill="black"/>
</g>
<path opacity="0.3" d="M40.1808 113.011C40.0333 112.688 39.8029 112.409 39.5129 112.203C39.2229 111.998 38.8837 111.872 38.5296 111.84H37.44V110.88C38.2814 109.82 38.7337 108.504 38.7216 107.15C38.7216 104.702 37.248 102.715 35.4288 102.715C33.6096 102.715 32.16 104.702 32.16 107.15C32.1499 108.455 32.5662 109.728 33.3456 110.774V111.84H31.9056C31.5474 111.868 31.2029 111.99 30.9064 112.193C30.6099 112.396 30.3719 112.673 30.216 112.997L28.2432 116.318H42.1008L40.1808 113.011Z" stroke="black" stroke-width="0.48" stroke-miterlimit="10"/>
<path opacity="0.3" d="M44.7892 114.437C46.9724 109.167 44.4695 103.124 39.1989 100.941C33.9283 98.7579 27.8858 101.261 25.7026 106.531C23.5195 111.802 26.0223 117.845 31.293 120.028C36.5636 122.211 42.6061 119.708 44.7892 114.437Z" stroke="black" stroke-width="0.48" stroke-miterlimit="10"/>
<g opacity="0.2">
<path d="M112.478 155.4C100.291 148.626 90.9315 137.713 86.0946 124.635C81.2577 111.558 81.2629 97.1803 86.1094 84.1063C90.9559 71.0323 100.323 60.1256 112.516 53.3608C124.708 46.5959 138.92 44.4201 152.578 47.2271L151.09 52.2191L167.678 48.2687L155.966 35.8799L154.526 40.6463C150.025 39.6829 145.435 39.2002 140.832 39.2063C104.875 39.2063 75.6192 68.4575 75.6192 104.414C75.6288 116.382 78.9284 128.118 85.1573 138.337C91.3861 148.556 100.305 156.867 110.938 162.36L106.824 155.52L112.478 155.4Z" fill="black"/>
<path d="M164.909 43.7954L170.03 49.2146L163.742 50.7122C177.48 56.5642 188.452 67.4585 194.402 81.1539C200.352 94.8492 200.826 110.304 195.728 124.339C190.63 138.373 180.347 149.921 166.995 156.605C153.643 163.289 138.236 164.601 123.946 160.272L125.971 156.6L108.926 156.931L117.734 171.528L120.576 166.383C127.119 168.527 133.961 169.617 140.846 169.613C176.803 169.613 206.059 140.362 206.059 104.4C206.044 91.3424 202.115 78.589 194.78 67.7861C187.445 56.9833 177.04 48.6268 164.909 43.7954Z" fill="black"/>
</g>
<path d="M217.92 33.2306L206.928 31.133V31.1714C206.381 32.2802 205.488 32.8946 204.658 32.7362L204.178 32.645C203.347 32.4914 202.738 31.5842 202.642 30.3506V30.3122L191.65 28.2146C190.922 28.0747 190.174 28.0797 189.448 28.2294C188.722 28.3792 188.033 28.6706 187.42 29.087C186.807 29.5034 186.282 30.0367 185.875 30.6563C185.468 31.2759 185.188 31.9696 185.05 32.6978L170.784 105.039C170.624 105.883 170.805 106.756 171.289 107.466C171.772 108.176 172.518 108.665 173.362 108.826L204.374 114.744C204.792 114.824 205.221 114.821 205.638 114.735C206.054 114.649 206.45 114.482 206.801 114.243C207.153 114.004 207.454 113.698 207.688 113.343C207.921 112.987 208.082 112.589 208.162 112.171L222.418 39.8402C222.558 39.1107 222.553 38.3607 222.403 37.6332C222.253 36.9057 221.96 36.215 221.542 35.6008C221.124 34.9867 220.589 34.4611 219.968 34.0543C219.346 33.6476 218.65 33.3676 217.92 33.2306Z" fill="#653EFF" stroke="#263238" stroke-width="0.48" stroke-linecap="round" stroke-linejoin="round"/>
<path d="M222.11 41.4434L222.418 39.8306C222.557 39.1018 222.551 38.3528 222.4 37.6263C222.249 36.8999 221.956 36.2104 221.538 35.5973C221.12 34.9842 220.586 34.4596 219.965 34.0535C219.344 33.6473 218.649 33.3677 217.92 33.2306L206.928 31.133V31.1714C206.381 32.2802 205.488 32.8946 204.658 32.7362L204.178 32.645C203.347 32.4914 202.738 31.5842 202.642 30.3506V30.3122L191.65 28.2146C190.922 28.0747 190.174 28.0797 189.448 28.2294C188.722 28.3792 188.033 28.6706 187.42 29.087C186.807 29.5034 186.282 30.0367 185.875 30.6563C185.468 31.2759 185.188 31.9696 185.05 32.6978L184.738 34.3154L222.11 41.4434Z" fill="white" stroke="#263238" stroke-width="0.48" stroke-linecap="round" stroke-linejoin="round"/>
<path d="M219.701 64.608L221.04 57.6L220.406 57.48L224.405 38.88C224.683 37.4098 224.367 35.8892 223.526 34.6519C222.684 33.4146 221.386 32.5615 219.917 32.28L190.157 26.5968C188.686 26.3171 187.165 26.6327 185.928 27.4743C184.69 28.3159 183.837 29.6146 183.557 31.0848L168.888 105.528C168.748 106.256 168.753 107.004 168.903 107.73C169.053 108.456 169.344 109.145 169.76 109.758C170.177 110.371 170.71 110.896 171.33 111.303C171.949 111.709 172.643 111.99 173.371 112.128L203.131 117.811C203.861 117.954 204.612 117.951 205.34 117.803C206.069 117.655 206.761 117.364 207.377 116.947C207.993 116.531 208.521 115.996 208.93 115.375C209.339 114.754 209.621 114.058 209.76 113.328L217.92 70.4736L218.554 70.5984L219.346 66.4464L218.712 66.3264L219.062 64.488L219.701 64.608ZM208.762 109.037C208.479 110.507 207.625 111.804 206.387 112.645C205.148 113.485 203.627 113.8 202.157 113.52L175.867 108.504C174.398 108.223 173.1 107.369 172.26 106.132C171.419 104.894 171.104 103.374 171.384 101.904L185.045 32.6976C185.183 31.9695 185.463 31.2758 185.87 30.6562C186.277 30.0366 186.802 29.5033 187.415 29.0869C188.028 28.6704 188.717 28.379 189.443 28.2293C190.169 28.0796 190.917 28.0745 191.645 28.2144L202.637 30.312V30.3504C202.742 31.584 203.342 32.4912 204.173 32.6448L204.653 32.736C205.478 32.8944 206.376 32.256 206.923 31.1712V31.1328L217.92 33.2304C218.65 33.3675 219.346 33.6474 219.968 34.0542C220.589 34.461 221.124 34.9865 221.542 35.6007C221.96 36.2148 222.253 36.9055 222.403 37.633C222.553 38.3605 222.558 39.1106 222.418 39.84L208.762 109.037Z" fill="#707070" stroke="#263238" stroke-width="0.48" stroke-linecap="round" stroke-linejoin="round"/>
<path d="M218.798 32.8753L190.958 27.5617C189.401 27.265 187.789 27.5989 186.478 28.49C185.167 29.3811 184.263 30.7564 183.965 32.3137L169.738 104.559C169.59 105.33 169.596 106.123 169.755 106.892C169.914 107.661 170.223 108.391 170.664 109.04C171.106 109.69 171.671 110.246 172.327 110.677C172.983 111.108 173.718 111.405 174.49 111.552L202.33 116.861C203.101 117.009 203.894 117.003 204.663 116.844C205.432 116.685 206.162 116.376 206.811 115.934C207.461 115.493 208.017 114.928 208.448 114.272C208.879 113.615 209.176 112.88 209.323 112.109L223.55 39.8641C223.847 38.3072 223.513 36.6962 222.622 35.3856C221.731 34.0749 220.355 33.172 218.798 32.8753ZM208.762 109.037C208.479 110.507 207.625 111.804 206.387 112.645C205.148 113.485 203.627 113.8 202.157 113.52L175.867 108.504C174.398 108.223 173.1 107.369 172.26 106.132C171.419 104.894 171.104 103.374 171.384 101.904L185.045 32.6977C185.183 31.9696 185.464 31.2759 185.87 30.6563C186.277 30.0367 186.802 29.5034 187.415 29.087C188.028 28.6705 188.717 28.3791 189.443 28.2294C190.169 28.0797 190.917 28.0746 191.645 28.2145L202.637 30.3121V30.3505C202.742 31.5841 203.342 32.4913 204.173 32.6449L204.653 32.7361C205.478 32.8945 206.376 32.2561 206.923 31.1713V31.1329L217.92 33.2305C218.65 33.3676 219.346 33.6476 219.968 34.0543C220.589 34.4611 221.124 34.9866 221.542 35.6008C221.96 36.2149 222.253 36.9056 222.403 37.6331C222.553 38.3606 222.558 39.1107 222.418 39.8401L208.762 109.037Z" fill="#263238" stroke="#263238" stroke-width="0.48" stroke-linecap="round" stroke-linejoin="round"/>
<path d="M205.142 31.0657C205.162 30.9632 205.151 30.8571 205.111 30.7608C205.071 30.6645 205.003 30.5823 204.916 30.5247C204.828 30.4671 204.726 30.4366 204.622 30.437C204.517 30.4375 204.415 30.4689 204.329 30.5273C204.242 30.5856 204.175 30.6684 204.135 30.765C204.096 30.8617 204.086 30.9679 204.107 31.0702C204.128 31.1725 204.178 31.2664 204.252 31.3399C204.326 31.4134 204.421 31.4633 204.523 31.4833C204.591 31.4972 204.662 31.4974 204.73 31.4839C204.798 31.4703 204.863 31.4433 204.921 31.4044C204.978 31.3656 205.027 31.3156 205.066 31.2574C205.104 31.1992 205.13 31.1341 205.142 31.0657Z" fill="#707070"/>
<path d="M188.99 30.0483C188.89 30.5763 188.261 30.6531 188.184 31.0515V31.0803L188.755 31.1907L188.722 31.3683L187.954 31.2003L187.982 31.0515C188.088 30.4899 188.702 30.4899 188.794 30.0003C188.827 29.8227 188.794 29.7123 188.645 29.6883C188.496 29.6643 188.419 29.7507 188.39 29.9043L188.362 30.0579L188.179 30.0243V29.8803C188.232 29.6163 188.386 29.4627 188.659 29.5107C188.721 29.5151 188.78 29.534 188.833 29.566C188.886 29.598 188.93 29.642 188.963 29.6946C188.995 29.7471 189.014 29.8066 189.019 29.8681C189.024 29.9296 189.014 29.9914 188.99 30.0483Z" fill="#263238"/>
<path d="M189.946 30.2402V30.2834C189.938 30.3594 189.907 30.4311 189.856 30.4881C189.805 30.545 189.737 30.5843 189.662 30.6002C189.727 30.6426 189.776 30.7049 189.802 30.7777C189.828 30.8505 189.83 30.9297 189.806 31.0034L189.782 31.1378C189.73 31.4066 189.571 31.5554 189.302 31.5074C189.034 31.4594 188.942 31.2578 188.995 30.989V30.869L189.178 30.9026L189.149 31.037C189.12 31.1954 189.149 31.301 189.307 31.325C189.466 31.349 189.528 31.2722 189.562 31.0946L189.59 30.9602C189.619 30.7922 189.59 30.6962 189.418 30.6626H189.312L189.346 30.4898H189.461C189.491 30.4953 189.522 30.4943 189.552 30.4869C189.582 30.4794 189.61 30.4657 189.634 30.4466C189.658 30.4275 189.678 30.4035 189.692 30.3762C189.706 30.3489 189.714 30.3189 189.715 30.2882V30.2066C189.749 30.029 189.715 29.9234 189.562 29.8994C189.408 29.8754 189.336 29.957 189.307 30.1154V30.2018L189.125 30.1682V30.0866C189.173 29.8226 189.331 29.6738 189.605 29.7218C189.878 29.7698 189.998 29.9618 189.946 30.2402Z" fill="#263238"/>
<path d="M190.301 30.4323L190.253 30.6771L190.066 30.6387L190.114 30.3987L190.301 30.4323ZM190.118 31.3923L190.07 31.6371L189.883 31.5987L189.931 31.3587L190.118 31.3923Z" fill="#263238"/>
<path d="M190.666 30.6673C190.698 30.6255 190.743 30.5942 190.793 30.5771C190.843 30.5601 190.897 30.5581 190.949 30.5713C191.174 30.6145 191.242 30.7969 191.194 31.0513L191.131 31.3921C191.078 31.6609 190.92 31.8097 190.651 31.7569C190.382 31.7041 190.296 31.5121 190.344 31.2433L190.368 31.1233L190.55 31.1617L190.526 31.2913C190.493 31.4449 190.526 31.5553 190.68 31.5793C190.834 31.6033 190.906 31.5265 190.934 31.3681L190.997 31.0273C191.03 30.8737 190.997 30.7633 190.843 30.7393C190.818 30.7329 190.792 30.7317 190.766 30.7359C190.74 30.74 190.716 30.7493 190.694 30.7632C190.672 30.7771 190.653 30.7954 190.638 30.8168C190.623 30.8383 190.613 30.8625 190.608 30.8881V30.9265L190.426 30.8929L190.656 29.9329L191.347 30.0625L191.314 30.2353L190.8 30.1393L190.666 30.6673Z" fill="#263238"/>
<path d="M192.274 30.6723V30.7203L192.091 30.6867V30.6435C192.12 30.4851 192.091 30.3795 191.928 30.3555C191.765 30.3315 191.698 30.4083 191.664 30.5955L191.587 30.9843C191.619 30.9307 191.668 30.889 191.726 30.8656C191.784 30.8423 191.848 30.8384 191.909 30.8547C192.13 30.8979 192.202 31.0755 192.154 31.3347L192.101 31.5987C192.099 31.6564 192.084 31.7129 192.058 31.7642C192.031 31.8154 191.993 31.8602 191.947 31.8951C191.902 31.93 191.848 31.9543 191.792 31.9661C191.735 31.9779 191.677 31.977 191.621 31.9635C191.563 31.9553 191.508 31.9346 191.46 31.9027C191.411 31.8708 191.37 31.8285 191.34 31.779C191.31 31.7294 191.291 31.6738 191.285 31.6161C191.278 31.5583 191.285 31.4999 191.304 31.4451L191.477 30.5571C191.53 30.2787 191.688 30.1299 191.957 30.1827C192.012 30.1901 192.064 30.2093 192.111 30.239C192.158 30.2686 192.198 30.3081 192.228 30.3546C192.258 30.4011 192.278 30.4536 192.286 30.5084C192.293 30.5632 192.289 30.6191 192.274 30.6723ZM191.549 31.2003L191.496 31.4595C191.467 31.6179 191.496 31.7235 191.654 31.7523C191.813 31.7811 191.88 31.6995 191.914 31.5411L191.962 31.2771C191.99 31.1235 191.962 31.0131 191.803 30.9891C191.645 30.9651 191.578 31.0515 191.549 31.2003Z" fill="#263238"/>
<path d="M211.325 34.3924L210.83 34.2979L210.595 35.5284L211.09 35.6229L211.325 34.3924Z" fill="#263238"/>
<path d="M212.034 34.2614L211.539 34.167L211.257 35.6475L211.752 35.7419L212.034 34.2614Z" fill="#263238"/>
<path d="M212.723 34.2058L212.228 34.1113L211.913 35.7663L212.408 35.8607L212.723 34.2058Z" fill="#263238"/>
<path d="M213.446 34.0312L212.951 33.9368L212.577 35.8982L213.072 35.9926L213.446 34.0312Z" fill="#263238"/>
<path d="M219.173 37.1234L216.216 36.5618L216.557 34.7522L219.518 35.3186L219.173 37.1234ZM216.408 36.4274L219.038 36.9074L219.322 35.4242L216.691 34.9442L216.408 36.4274Z" fill="#263238"/>
<path d="M218.47 35.4598L216.91 35.1621L216.695 36.2843L218.256 36.582L218.47 35.4598Z" fill="#263238"/>
<path d="M219.058 36.553L218.687 36.481L218.605 36.9043L218.976 36.9764L219.058 36.553Z" fill="#263238"/>
<path d="M215.203 35.9619C215.183 35.9572 215.165 35.9473 215.15 35.9331C215.025 35.7967 214.859 35.7034 214.677 35.6663C214.496 35.6293 214.307 35.6504 214.138 35.7267C214.125 35.7345 214.111 35.7397 214.096 35.742C214.082 35.7443 214.067 35.7436 214.053 35.74C214.038 35.7364 214.025 35.73 214.013 35.7211C214.001 35.7123 213.991 35.7011 213.984 35.6883C213.976 35.6758 213.971 35.6618 213.969 35.6472C213.966 35.6326 213.967 35.6178 213.971 35.6034C213.974 35.5891 213.981 35.5757 213.99 35.5639C213.998 35.5521 214.01 35.5422 214.022 35.5347C214.232 35.4312 214.469 35.3977 214.699 35.4392C214.929 35.4807 215.139 35.5949 215.299 35.7651C215.31 35.7754 215.318 35.7877 215.324 35.8014C215.33 35.815 215.333 35.8296 215.333 35.8443C215.333 35.8591 215.33 35.8737 215.324 35.8873C215.318 35.9009 215.31 35.9133 215.299 35.9235C215.287 35.937 215.272 35.9475 215.256 35.9541C215.239 35.9608 215.221 35.9635 215.203 35.9619Z" fill="#263238"/>
<path d="M215.52 35.6306C215.503 35.6351 215.485 35.6351 215.467 35.6306C215.287 35.4382 215.052 35.3066 214.794 35.2542C214.536 35.2017 214.268 35.2309 214.027 35.3378C214.015 35.3454 214.001 35.3504 213.986 35.3525C213.972 35.3547 213.957 35.354 213.942 35.3504C213.928 35.3468 213.915 35.3405 213.903 35.3318C213.891 35.323 213.881 35.312 213.874 35.2994C213.866 35.2868 213.861 35.2728 213.859 35.2583C213.857 35.2437 213.857 35.2289 213.861 35.2146C213.865 35.2004 213.871 35.187 213.88 35.1751C213.888 35.1633 213.899 35.1534 213.912 35.1458C214.196 35.011 214.515 34.969 214.825 35.0259C215.134 35.0828 215.418 35.2356 215.635 35.4626C215.646 35.4729 215.654 35.4852 215.66 35.4988C215.666 35.5124 215.669 35.527 215.669 35.5418C215.669 35.5566 215.666 35.5712 215.66 35.5848C215.654 35.5984 215.646 35.6107 215.635 35.621C215.619 35.6336 215.599 35.6413 215.579 35.643C215.559 35.6447 215.538 35.6404 215.52 35.6306Z" fill="#263238"/>
<path d="M215.784 35.2419C215.763 35.2362 215.744 35.2264 215.726 35.2131C215.496 34.9613 215.19 34.79 214.855 34.7243C214.52 34.6587 214.173 34.7021 213.864 34.8483C213.838 34.8623 213.807 34.8656 213.779 34.8575C213.75 34.8495 213.726 34.8307 213.71 34.8051C213.703 34.7925 213.698 34.7785 213.695 34.7639C213.693 34.7494 213.694 34.7345 213.697 34.7201C213.701 34.7058 213.707 34.6924 213.716 34.6806C213.725 34.6688 213.736 34.6589 213.749 34.6515C214.1 34.4854 214.494 34.4341 214.876 34.5047C215.257 34.5754 215.607 34.7644 215.875 35.0451C215.886 35.0553 215.894 35.0677 215.9 35.0813C215.906 35.0949 215.909 35.1095 215.909 35.1243C215.909 35.139 215.906 35.1536 215.9 35.1672C215.894 35.1809 215.886 35.1932 215.875 35.2035C215.864 35.2168 215.85 35.2273 215.834 35.234C215.819 35.2407 215.801 35.2434 215.784 35.2419Z" fill="#263238"/>
<path d="M214.834 36.0818C214.827 36.1181 214.814 36.1529 214.794 36.184C214.774 36.2151 214.748 36.2419 214.718 36.2629C214.687 36.2839 214.653 36.2987 214.617 36.3063C214.581 36.3139 214.544 36.3143 214.507 36.3074C214.433 36.2934 214.368 36.2506 214.326 36.1885C214.284 36.1264 214.268 36.05 214.282 35.9762C214.296 35.9023 214.338 35.8371 214.401 35.7948C214.463 35.7525 214.539 35.7366 214.613 35.7506C214.649 35.7574 214.684 35.7715 214.715 35.792C214.746 35.8124 214.772 35.8389 214.793 35.8697C214.813 35.9006 214.828 35.9352 214.835 35.9716C214.842 36.008 214.841 36.0455 214.834 36.0818Z" fill="#263238"/>
<path d="M212.394 61.4046L186.348 56.4361C184.958 56.1708 183.616 57.0831 183.35 58.4736L179.18 80.337C178.914 81.7275 179.827 83.0698 181.217 83.3351L207.263 88.3035C208.653 88.5688 209.996 87.6565 210.261 86.266L214.432 64.4027C214.697 63.0121 213.785 61.6698 212.394 61.4046Z" fill="white" stroke="#263238" stroke-width="0.48" stroke-miterlimit="10"/>
<path d="M191.155 53.1794L190.819 50.6162L191.256 50.6978L191.486 52.6562L192.446 50.9234L192.845 50.9954L191.568 53.2802L191.314 54.629L190.896 54.5522L191.155 53.1794Z" fill="#263238"/>
<path d="M192.845 51.9411C192.854 51.8169 192.89 51.6961 192.949 51.5866C193.008 51.4771 193.09 51.3814 193.189 51.3057C193.288 51.2301 193.402 51.1762 193.523 51.1476C193.644 51.119 193.77 51.1164 193.892 51.1399C194.015 51.1634 194.13 51.2125 194.232 51.284C194.334 51.3555 194.42 51.4477 194.484 51.5546C194.548 51.6616 194.588 51.7808 194.603 51.9045C194.617 52.0282 194.605 52.1535 194.568 52.2723L194.198 54.1923C194.189 54.3165 194.154 54.4373 194.094 54.5468C194.035 54.6563 193.953 54.752 193.854 54.8277C193.755 54.9034 193.642 54.9573 193.52 54.9858C193.399 55.0144 193.273 55.017 193.151 54.9935C193.029 54.97 192.913 54.9209 192.811 54.8494C192.709 54.778 192.623 54.6857 192.559 54.5788C192.495 54.4719 192.455 54.3526 192.44 54.2289C192.426 54.1053 192.438 53.9799 192.475 53.8611L192.845 51.9411ZM192.883 53.9859C192.816 54.3315 192.926 54.5571 193.224 54.6147C193.522 54.6723 193.704 54.4995 193.776 54.1347L194.155 52.1475C194.218 51.8067 194.117 51.5763 193.814 51.5187C193.512 51.4611 193.334 51.6387 193.262 51.9987L192.883 53.9859Z" fill="#263238"/>
<path d="M194.99 54.3891C194.928 54.7299 195.019 54.9555 195.326 55.0179C195.634 55.0803 195.806 54.8931 195.869 54.5379L196.416 51.6579L196.81 51.7347L196.262 54.5859C196.152 55.1571 195.816 55.4883 195.24 55.3731C194.664 55.2579 194.472 54.8355 194.582 54.2643L195.125 51.4131L195.538 51.4899L194.99 54.3891Z" fill="#263238"/>
<path d="M198.062 51.9939C198.181 52 198.297 52.034 198.401 52.0932C198.504 52.1525 198.592 52.2352 198.658 52.3348C198.723 52.4344 198.764 52.548 198.777 52.6664C198.791 52.7848 198.776 52.9047 198.734 53.0163L198.677 53.3235C198.595 53.7363 198.403 53.9667 198.062 54.0051C198.211 54.0891 198.324 54.223 198.383 54.383C198.442 54.5429 198.442 54.7186 198.384 54.8787L198.274 55.4643C198.233 55.6218 198.233 55.7869 198.274 55.9443L197.851 55.8675C197.812 55.7099 197.812 55.5452 197.851 55.3875L197.962 54.7971C198.043 54.3699 197.87 54.1971 197.52 54.1299L197.227 54.0771L196.92 55.6803L196.498 55.6035L197.218 51.8403L198.062 51.9939ZM197.616 53.7603C197.947 53.8227 198.168 53.7603 198.245 53.3427L198.312 52.9827C198.379 52.6467 198.312 52.4451 197.976 52.3827L197.568 52.3059L197.304 53.6979L197.616 53.7603Z" fill="#263238"/>
<path d="M201.658 53.6258L201.595 53.9618L201.197 53.885L201.264 53.525C201.331 53.189 201.235 52.9586 200.928 52.901C200.621 52.8434 200.448 53.021 200.386 53.381L200.006 55.3682C199.939 55.709 200.04 55.9394 200.342 55.997C200.645 56.0546 200.822 55.877 200.885 55.517L200.981 55.037L201.379 55.109L201.288 55.589C201.178 56.1554 200.842 56.4818 200.261 56.3714C199.68 56.261 199.488 55.8338 199.598 55.2626L199.968 53.3426C200.074 52.7762 200.414 52.4498 200.99 52.5602C201.108 52.5783 201.221 52.6216 201.321 52.6872C201.42 52.7528 201.505 52.8391 201.568 52.9402C201.631 53.0413 201.672 53.1549 201.688 53.2732C201.703 53.3915 201.693 53.5118 201.658 53.6258Z" fill="#263238"/>
<path d="M202.008 53.6882C202.02 53.5663 202.058 53.4482 202.118 53.3416C202.179 53.2349 202.261 53.142 202.359 53.0688C202.457 52.9955 202.57 52.9436 202.689 52.9162C202.809 52.8888 202.933 52.8865 203.053 52.9096C203.173 52.9327 203.288 52.9805 203.389 53.0502C203.489 53.1198 203.575 53.2097 203.639 53.3141C203.703 53.4185 203.745 53.5351 203.762 53.6566C203.778 53.778 203.77 53.9016 203.736 54.0194L203.362 55.9394C203.346 56.0581 203.307 56.1723 203.246 56.2752C203.184 56.378 203.103 56.4673 203.006 56.5375C202.909 56.6077 202.799 56.6574 202.682 56.6836C202.565 56.7097 202.445 56.7116 202.327 56.6894C202.21 56.6671 202.098 56.6211 201.999 56.5541C201.899 56.4871 201.815 56.4005 201.751 56.2997C201.686 56.1989 201.643 56.086 201.624 55.968C201.604 55.8499 201.609 55.7291 201.638 55.613L202.008 53.6882ZM202.046 55.7378C201.984 56.0786 202.09 56.3042 202.392 56.3618C202.694 56.4194 202.872 56.2514 202.939 55.8818L203.318 53.8946C203.386 53.5538 203.285 53.3234 202.978 53.2658C202.67 53.2082 202.498 53.3858 202.426 53.7458L202.046 55.7378Z" fill="#263238"/>
<path d="M205.186 53.3571C205.309 53.3705 205.428 53.4119 205.533 53.4781C205.637 53.5443 205.726 53.6335 205.791 53.7391C205.856 53.8446 205.897 53.9636 205.909 54.087C205.921 54.2105 205.905 54.3351 205.862 54.4515L205.502 56.3715C205.392 56.9427 205.056 57.2499 204.47 57.1347L203.587 56.9667L204.307 53.2083L205.186 53.3571ZM204.538 56.7171C204.84 56.7747 205.018 56.6115 205.085 56.2659L205.454 54.3459C205.517 54.0003 205.411 53.7843 205.104 53.7267L204.653 53.6403L204.082 56.6403L204.538 56.7171Z" fill="#263238"/>
<path d="M207.456 55.5171L207.384 55.8915L206.462 55.7139L206.208 57.0531L207.336 57.2691L207.264 57.6483L205.718 57.3555L206.434 53.5923L207.984 53.8899L207.907 54.2691L206.779 54.0531L206.534 55.3395L207.456 55.5171Z" fill="#263238"/>
<path d="M188.266 68.4145C188.405 68.2479 188.588 68.1236 188.794 68.0557C189 67.9879 189.221 67.9791 189.432 68.0305C190.344 68.2033 190.622 68.9521 190.426 69.9505L190.162 71.3377C189.955 72.4225 189.302 73.0321 188.218 72.8257C187.133 72.6193 186.778 71.8129 186.97 70.7281L187.061 70.2481L187.8 70.3873L187.699 70.9153C187.579 71.5537 187.766 71.9905 188.333 72.0961C188.899 72.2017 189.24 71.8705 189.36 71.2321L189.624 69.8545C189.749 69.2161 189.557 68.7793 188.99 68.6737C188.887 68.646 188.78 68.64 188.675 68.6559C188.569 68.6719 188.468 68.7094 188.378 68.7662C188.288 68.823 188.211 68.8978 188.151 68.986C188.091 69.0741 188.05 69.1737 188.03 69.2785L187.997 69.4417L187.258 69.3025L188.218 65.3953L191.016 65.9281L190.882 66.6385L188.794 66.2401L188.266 68.4145Z" fill="#263238"/>
<path d="M194.803 68.4339V68.5683L194.064 68.4243L194.098 68.2419C194.222 67.6035 194.03 67.1811 193.45 67.0707C192.869 66.9603 192.49 67.2915 192.37 68.0307L192.067 69.6243C192.194 69.4052 192.388 69.2335 192.621 69.1355C192.855 69.0375 193.114 69.0187 193.358 69.0819C194.27 69.2547 194.549 69.9891 194.352 71.0019L194.15 72.0771C193.944 73.1619 193.267 73.7667 192.187 73.5603C191.107 73.3539 190.69 72.5379 190.896 71.4531L191.587 67.8339C191.798 66.7107 192.442 66.1059 193.565 66.3219C194.688 66.5379 195.01 67.3491 194.803 68.4339ZM191.856 70.6275L191.654 71.6883C191.53 72.3267 191.722 72.7635 192.298 72.8739C192.874 72.9843 193.214 72.6483 193.334 72.0099L193.536 70.9443C193.661 70.3059 193.459 69.8691 192.893 69.7635C192.326 69.6579 192 69.9891 191.856 70.6275Z" fill="#263238"/>
<path d="M198.749 69.1875L198.725 69.3219L197.981 69.1779L198.019 68.9955C198.139 68.3571 197.947 67.9347 197.371 67.8243C196.795 67.7139 196.435 68.0451 196.291 68.7843L195.984 70.3731C196.112 70.156 196.307 69.9862 196.54 69.8893C196.773 69.7924 197.031 69.7735 197.275 69.8355C198.187 70.0083 198.47 70.7427 198.274 71.7555L198.067 72.8259C197.861 73.9107 197.189 74.5203 196.104 74.3139C195.019 74.1075 194.606 73.2915 194.813 72.2067L195.504 68.6403C195.72 67.5171 196.358 66.9123 197.486 67.1283C198.614 67.3443 198.955 68.1027 198.749 69.1875ZM195.797 71.3763L195.595 72.4419C195.475 73.0803 195.662 73.5171 196.243 73.6275C196.824 73.7379 197.155 73.4019 197.28 72.7635L197.482 71.6979C197.602 71.0595 197.405 70.6227 196.834 70.5123C196.262 70.4019 195.922 70.7379 195.797 71.3763Z" fill="#263238"/>
<path d="M202.69 69.9506L201.998 73.5698C201.782 74.693 201.144 75.3074 200.006 75.0914C198.869 74.8754 198.538 74.0834 198.744 73.0034L198.773 72.869L199.512 73.0082L199.474 73.1954C199.354 73.8338 199.555 74.261 200.122 74.3666C200.688 74.4722 201.082 74.1506 201.211 73.4066L201.514 71.8178C201.386 72.0339 201.191 72.2025 200.959 72.2978C200.727 72.3931 200.47 72.4099 200.227 72.3458C199.315 72.173 199.032 71.4482 199.229 70.4258L199.435 69.341C199.642 68.2562 200.304 67.6562 201.398 67.8626C202.493 68.069 202.896 68.8658 202.69 69.9506ZM200.222 69.437L200.021 70.5026C199.901 71.141 200.098 71.5778 200.669 71.6882C201.24 71.7986 201.581 71.4626 201.701 70.8242L201.907 69.7586C202.032 69.1106 201.84 68.6834 201.259 68.573C200.678 68.4626 200.347 68.789 200.222 69.437Z" fill="#263238"/>
<path d="M206.707 70.685L206.664 70.9106C206.53 71.6306 206.184 72.1058 205.574 72.2162C206.122 72.557 206.237 73.1762 206.102 73.8674L206.002 74.3954C205.79 75.4898 205.094 76.061 203.99 75.8354C202.886 75.6098 202.445 74.837 202.656 73.7426L202.757 73.2146C202.891 72.4946 203.237 72.0002 203.866 71.8706C203.328 71.5394 203.184 70.9778 203.323 70.2578L203.362 70.0322C203.573 68.9378 204.274 68.3906 205.373 68.5922C206.472 68.7938 206.918 69.6002 206.707 70.685ZM204.139 70.205L204.077 70.5458C203.942 71.237 204.221 71.6066 204.778 71.7122C205.334 71.8178 205.738 71.5778 205.858 70.8866L205.92 70.5602C206.059 69.8306 205.79 69.4322 205.229 69.3266C204.667 69.221 204.278 69.485 204.139 70.2194V70.205ZM203.554 73.2722L203.438 73.8722C203.299 74.6018 203.558 75.0098 204.125 75.1154C204.691 75.221 205.085 74.9426 205.224 74.213L205.339 73.613C205.469 72.9266 205.229 72.533 204.643 72.4226C204.058 72.3122 203.688 72.6002 203.554 73.2866V73.2722Z" fill="#263238"/>
<path d="M181.138 89.5249L205.646 94.2001" stroke="#263238" stroke-width="0.48" stroke-miterlimit="10"/>
<path d="M180.226 94.3057L204.73 98.9809" stroke="#263238" stroke-width="0.48" stroke-miterlimit="10"/>
<path d="M220.877 71.5106L226.805 70.5986" stroke="#263238" stroke-width="0.48" stroke-miterlimit="10"/>
<path d="M219.965 78.3506L223.157 79.2626" stroke="#263238" stroke-width="0.48" stroke-miterlimit="10"/>
<path d="M218.141 84.2786L224.069 88.3826" stroke="#263238" stroke-width="0.48" stroke-miterlimit="10"/>
<path d="M164.05 82.8961C164.358 82.8961 164.653 82.7737 164.871 82.5558C165.089 82.338 165.211 82.0425 165.211 81.7345V72.1345C165.211 71.8264 165.089 71.5309 164.871 71.3131C164.653 71.0952 164.358 70.9729 164.05 70.9729H164.002V67.2193C164.001 66.6106 163.88 66.008 163.647 65.4459C163.413 64.8839 163.071 64.3734 162.64 63.9436C162.209 63.5139 161.697 63.1733 161.134 62.9414C160.572 62.7095 159.969 62.5908 159.36 62.5921H58.08C56.8515 62.5921 55.6733 63.0801 54.8047 63.9487C53.936 64.8174 53.448 65.9956 53.448 67.2241V137.194C53.4493 138.421 53.9378 139.598 54.8064 140.466C55.6749 141.333 56.8523 141.821 58.08 141.821H159.36C160.588 141.821 161.765 141.333 162.634 140.466C163.502 139.598 163.991 138.421 163.992 137.194V112.09H164.04C164.348 112.09 164.644 111.967 164.861 111.749C165.079 111.532 165.202 111.236 165.202 110.928V101.328C165.202 101.02 165.079 100.725 164.861 100.507C164.644 100.289 164.348 100.166 164.04 100.166H163.992V98.9521H164.04C164.348 98.9521 164.644 98.8297 164.861 98.6118C165.079 98.394 165.202 98.0985 165.202 97.7905V88.1905C165.202 87.8824 165.079 87.5869 164.861 87.3691C164.644 87.1512 164.348 87.0289 164.04 87.0289H163.992V82.8961H164.05Z" fill="#263238"/>
<path d="M159.874 65.6787H57.5904V138.735H159.874V65.6787Z" fill="#653EFF" stroke="#263238" stroke-width="0.48" stroke-miterlimit="10"/>
<path d="M137.501 75.0723H80.2992V121.013H137.501V75.0723Z" fill="#E3E3E3" stroke="#263238" stroke-width="0.48" stroke-miterlimit="10"/>
<path d="M101.822 108.283V108.571H101.122V109.594H101.981V109.882H100.8V107.002H101.981V107.29H101.122V108.274L101.822 108.283Z" fill="#B2B2B2"/>
<path d="M102.562 109.882H102.274V107.002H102.677L103.344 109.075V107.002H103.627V109.882H103.296L102.562 107.559V109.882Z" fill="#B2B2B2"/>
<path d="M104.371 109.882V107.299H103.838V107.011H105.216V107.299H104.688V109.882H104.371Z" fill="#B2B2B2"/>
<path d="M106.454 108.283V108.571H105.754V109.594H106.613V109.882H105.432V107.002H106.613V107.29H105.754V108.274L106.454 108.283Z" fill="#B2B2B2"/>
<path d="M107.549 107.011C108 107.011 108.192 107.237 108.192 107.664V107.899C108.192 108.216 108.082 108.413 107.832 108.49C108.096 108.571 108.197 108.783 108.197 109.09V109.536C108.185 109.654 108.205 109.774 108.254 109.882H107.928C107.882 109.773 107.864 109.654 107.875 109.536V109.085C107.875 108.759 107.722 108.658 107.458 108.658H107.232V109.882H106.91V107.002L107.549 107.011ZM107.467 108.365C107.722 108.365 107.875 108.283 107.875 107.971V107.693C107.875 107.439 107.779 107.299 107.544 107.299H107.232V108.365H107.467Z" fill="#B2B2B2"/>
<path d="M110.434 107.703V107.962H110.126V107.688C110.126 107.429 110.026 107.271 109.79 107.271C109.555 107.271 109.454 107.429 109.454 107.688V109.205C109.454 109.464 109.56 109.623 109.79 109.623C110.021 109.623 110.126 109.464 110.126 109.205V108.831H110.434V109.191C110.434 109.623 110.227 109.911 109.781 109.911C109.334 109.911 109.138 109.623 109.138 109.191V107.703C109.138 107.266 109.344 106.983 109.781 106.983C110.218 106.983 110.434 107.266 110.434 107.703Z" fill="#B2B2B2"/>
<path d="M110.698 107.703C110.698 107.266 110.914 106.983 111.355 106.983C111.449 106.977 111.543 106.992 111.63 107.027C111.717 107.062 111.795 107.115 111.858 107.185C111.922 107.254 111.969 107.336 111.997 107.426C112.024 107.515 112.031 107.61 112.018 107.703V109.191C112.032 109.284 112.025 109.379 111.998 109.469C111.972 109.559 111.925 109.642 111.862 109.712C111.799 109.782 111.721 109.837 111.634 109.873C111.548 109.909 111.454 109.925 111.36 109.92C110.918 109.92 110.702 109.632 110.702 109.2L110.698 107.703ZM111.014 109.205C111.014 109.469 111.125 109.623 111.355 109.623C111.586 109.623 111.696 109.469 111.696 109.205V107.688C111.696 107.429 111.59 107.271 111.355 107.271C111.12 107.271 111.014 107.429 111.014 107.688V109.205Z" fill="#B2B2B2"/>
<path d="M112.992 107.011C113.438 107.011 113.645 107.28 113.645 107.722V109.162C113.645 109.603 113.438 109.872 112.992 109.872H112.32V106.992L112.992 107.011ZM112.992 109.594C113.222 109.594 113.333 109.45 113.333 109.186V107.707C113.333 107.443 113.222 107.299 112.987 107.299H112.646V109.594H112.992Z" fill="#B2B2B2"/>
<path d="M114.965 108.283V108.571H114.264V109.594H115.128V109.882H113.942V107.002H115.128V107.29H114.264V108.274L114.965 108.283Z" fill="#B2B2B2"/>
<path d="M132.984 90.2449H84.7152V95.6929H132.984V90.2449Z" fill="white" stroke="#263238" stroke-width="0.48" stroke-miterlimit="10"/>
<path d="M132.984 98.885H84.7152V104.333H132.984V98.885Z" fill="white" stroke="#263238" stroke-width="0.48" stroke-miterlimit="10"/>
<path d="M115.67 111.173H111.115V116.621H115.67V111.173Z" fill="white" stroke="#263238" stroke-width="0.48" stroke-miterlimit="10"/>
<path d="M109.867 111.173H105.312V116.621H109.867V111.173Z" fill="white" stroke="#263238" stroke-width="0.48" stroke-miterlimit="10"/>
<path d="M104.069 111.173H99.5136V116.621H104.069V111.173Z" fill="white" stroke="#263238" stroke-width="0.48" stroke-miterlimit="10"/>
<path d="M98.2703 111.173H93.9216V116.621H98.2703V111.173Z" fill="white" stroke="#263238" stroke-width="0.48" stroke-miterlimit="10"/>
<path d="M121.637 111.173H116.914V116.621H121.637V111.173Z" fill="white" stroke="#263238" stroke-width="0.48" stroke-miterlimit="10"/>
<path d="M111.202 81.3074V80.261C111.17 79.4654 110.832 78.7128 110.258 78.161C109.684 77.6092 108.919 77.301 108.122 77.301C107.326 77.301 106.561 77.6092 105.987 78.161C105.413 78.7128 105.075 79.4654 105.043 80.261V81.3074H104.986V87.0962H111.259V81.3074H111.202ZM108.322 84.4898V85.5362H107.712V84.4802C107.542 84.4112 107.401 84.2851 107.313 84.1235C107.226 83.962 107.197 83.775 107.232 83.5947C107.267 83.4143 107.364 83.2518 107.506 83.135C107.648 83.0181 107.826 82.9543 108.01 82.9543C108.193 82.9543 108.371 83.0181 108.513 83.135C108.655 83.2518 108.752 83.4143 108.787 83.5947C108.822 83.775 108.793 83.962 108.706 84.1235C108.618 84.2851 108.477 84.4112 108.307 84.4802L108.322 84.4898ZM110.045 81.3074H106.229V80.261C106.281 79.7919 106.505 79.3586 106.857 79.0439C107.209 78.7293 107.665 78.5553 108.137 78.5553C108.609 78.5553 109.064 78.7293 109.416 79.0439C109.768 79.3586 109.992 79.7919 110.045 80.261V81.3074Z" fill="#263238"/>
<path d="M101.376 93.6339C101.376 93.8931 101.477 94.0467 101.712 94.0467C101.947 94.0467 102.043 93.8931 102.043 93.6339V91.4355H102.346V93.6003C102.346 94.0371 102.144 94.3299 101.698 94.3299C101.251 94.3299 101.059 94.0371 101.059 93.6003V91.4211H101.376V93.6339Z" fill="#B2B2B2"/>
<path d="M103.906 92.1265V92.2033H103.598V92.1073C103.598 91.8529 103.502 91.6993 103.272 91.6993C103.042 91.6993 102.946 91.8529 102.946 92.1073C102.946 92.7505 103.906 92.8129 103.906 93.6193C103.906 94.0561 103.694 94.3393 103.253 94.3393C102.811 94.3393 102.61 94.0561 102.61 93.6193V93.4561H102.912V93.6385C102.912 93.8929 103.018 94.0465 103.248 94.0465C103.478 94.0465 103.584 93.8929 103.584 93.6385C103.584 92.9953 102.624 92.9329 102.624 92.1265C102.624 91.6801 102.826 91.4065 103.258 91.4065C103.69 91.4065 103.906 91.6801 103.906 92.1265Z" fill="#B2B2B2"/>
<path d="M105.211 92.7075V92.9955H104.506V94.0179H105.37V94.3107H104.189V91.4307H105.37V91.7235H104.506V92.6835L105.211 92.7075Z" fill="#B2B2B2"/>
<path d="M106.306 91.4355C106.757 91.4355 106.944 91.6659 106.944 92.0931V92.3283C106.944 92.6451 106.834 92.8419 106.589 92.9187C106.853 92.9955 106.949 93.2115 106.949 93.5187V93.9651C106.94 94.0832 106.96 94.2017 107.006 94.3107H106.685C106.637 94.2004 106.617 94.08 106.627 93.9603V93.5091C106.627 93.1827 106.478 93.0819 106.21 93.0819H105.984V94.3107H105.662V91.4307L106.306 91.4355ZM106.224 92.7891C106.478 92.7891 106.627 92.7075 106.627 92.3955V92.1219C106.627 91.8627 106.536 91.7283 106.296 91.7283H105.984V92.7891H106.224Z" fill="#B2B2B2"/>
<path d="M108.202 94.3107H107.914V91.4307H108.322L108.984 93.5091V91.4307H109.267V94.3107H108.96L108.226 91.9875L108.202 94.3107Z" fill="#B2B2B2"/>
<path d="M109.92 93.7299L109.81 94.3107H109.512L110.064 91.4307H110.544L111.091 94.3107H110.774L110.659 93.7299H109.92ZM109.963 93.4563H110.602L110.28 91.7955L109.963 93.4563Z" fill="#B2B2B2"/>
<path d="M112.387 94.3059H112.08L111.6 92.0211V94.3107H111.322V91.4307H111.768L112.248 93.7251L112.704 91.4307H113.15V94.3107H112.848V91.9971L112.387 94.3059Z" fill="#B2B2B2"/>
<path d="M114.494 92.7075V92.9955H113.794V94.0179H114.658V94.3107H113.477V91.4307H114.658V91.7235H113.794V92.6835L114.494 92.7075Z" fill="#B2B2B2"/>
<path d="M101.813 101.338L102.25 101.818L102.038 101.971L101.717 101.4L101.395 101.971L101.189 101.818L101.616 101.338L100.982 101.203L101.059 100.954L101.659 101.218L101.587 100.57H101.846L101.779 101.218L102.379 100.959L102.456 101.208L101.813 101.338Z" fill="#B2B2B2"/>
<path d="M103.435 101.338L103.872 101.818L103.661 101.971L103.339 101.4L103.018 101.971L102.806 101.818L103.238 101.338L102.605 101.203L102.682 100.954L103.282 101.218L103.205 100.57H103.469L103.397 101.218L103.997 100.959L104.078 101.208L103.435 101.338Z" fill="#B2B2B2"/>
<path d="M105.058 101.338L105.494 101.818L105.283 101.971L104.957 101.4L104.64 101.971L104.429 101.818L104.861 101.338L104.222 101.203L104.304 100.954L104.899 101.218L104.827 100.57H105.091L105.019 101.218L105.619 100.959L105.696 101.208L105.058 101.338Z" fill="#B2B2B2"/>
<path d="M106.68 101.338L107.112 101.818L106.906 101.971L106.579 101.4L106.258 101.971L106.051 101.818L106.483 101.338L105.845 101.203L105.922 100.954L106.522 101.218L106.45 100.57H106.709L106.642 101.218L107.242 100.959L107.318 101.208L106.68 101.338Z" fill="#B2B2B2"/>
<path d="M108.298 101.338L108.734 101.818L108.523 101.971L108.202 101.4L107.88 101.971L107.674 101.818L108.101 101.338L107.467 101.203L107.544 100.954L108.144 101.218L108.067 100.57H108.331L108.264 101.218L108.864 100.959L108.941 101.208L108.298 101.338Z" fill="#B2B2B2"/>
<path d="M109.92 101.338L110.357 101.818L110.146 101.971L109.824 101.4L109.502 101.971L109.291 101.818L109.723 101.338L109.085 101.203L109.166 100.954L109.766 101.218L109.69 100.57H109.954L109.882 101.218L110.482 100.959L110.563 101.208L109.92 101.338Z" fill="#B2B2B2"/>
<path d="M111.542 101.338L111.979 101.818L111.768 101.971L111.442 101.4L111.125 101.971L110.914 101.818L111.346 101.338L110.707 101.203L110.784 100.954L111.384 101.218L111.312 100.57H111.576L111.504 101.218L112.104 100.959L112.181 101.208L111.542 101.338Z" fill="#B2B2B2"/>
<path d="M113.165 101.338L113.597 101.818L113.39 101.971L113.064 101.4L112.742 101.971L112.536 101.818L112.968 101.338L112.33 101.203L112.406 100.954L113.006 101.218L112.934 100.57H113.194L113.126 101.218L113.726 100.959L113.803 101.208L113.165 101.338Z" fill="#B2B2B2"/>
<path d="M113.741 232.181C130.699 232.181 144.446 219.263 144.446 203.328C144.446 187.393 130.699 174.475 113.741 174.475C96.7825 174.475 83.0351 187.393 83.0351 203.328C83.0351 219.263 96.7825 232.181 113.741 232.181Z" fill="#263238"/>
<path d="M113.093 230.678C130.051 230.678 143.798 217.76 143.798 201.825C143.798 185.891 130.051 172.973 113.093 172.973C96.1345 172.973 82.3871 185.891 82.3871 201.825C82.3871 217.76 96.1345 230.678 113.093 230.678Z" fill="white" stroke="#263238" stroke-width="0.48" stroke-miterlimit="10"/>
<path d="M113.093 226.733C127.729 226.733 139.593 215.582 139.593 201.826C139.593 188.07 127.729 176.918 113.093 176.918C98.4567 176.918 86.5919 188.07 86.5919 201.826C86.5919 215.582 98.4567 226.733 113.093 226.733Z" fill="white" stroke="#263238" stroke-width="0.48" stroke-miterlimit="10"/>
<path d="M120.437 185.059C109.8 185.059 101.174 195.893 101.174 209.261C101.174 217.901 104.769 225.447 110.169 229.733C111.062 229.81 111.965 229.853 112.877 229.853C124.061 229.853 133.809 224.131 139.017 215.635C139.463 213.546 139.685 211.416 139.68 209.28C139.68 195.893 131.073 185.059 120.437 185.059Z" fill="#263238"/>
<path d="M101.4 198.345H88.8575V201.345H101.4V198.345Z" fill="white" stroke="#263238" stroke-width="0.48" stroke-miterlimit="10"/>
<path d="M117.518 217.661C128.085 217.661 136.651 209.613 136.651 199.685C136.651 189.757 128.085 181.709 117.518 181.709C106.952 181.709 98.3855 189.757 98.3855 199.685C98.3855 209.613 106.952 217.661 117.518 217.661Z" fill="white" stroke="#263238" stroke-width="0.48" stroke-miterlimit="10"/>
<path d="M117.518 214.694C126.338 214.694 133.488 207.974 133.488 199.685C133.488 191.395 126.338 184.675 117.518 184.675C108.698 184.675 101.549 191.395 101.549 199.685C101.549 207.974 108.698 214.694 117.518 214.694Z" fill="#263238" stroke="#263238" stroke-width="0.48" stroke-miterlimit="10"/>
<path d="M110.827 185.918C110.725 185.667 110.607 185.424 110.472 185.189C108.84 182.352 109.032 178.747 110.265 175.397" stroke="#263238" stroke-width="0.48" stroke-miterlimit="10"/>
<path d="M111.081 191.885C111.081 191.885 111.936 188.64 110.827 185.918" stroke="white" stroke-width="0.48" stroke-miterlimit="10"/>
<path d="M116.779 185.189C115.152 182.352 115.339 178.747 116.577 175.397" stroke="#263238" stroke-width="0.48" stroke-miterlimit="10"/>
<path d="M117.389 191.885C117.389 191.885 118.406 188.021 116.779 185.189" stroke="white" stroke-width="0.48" stroke-miterlimit="10"/>
<path d="M123.293 185.568C123.23 185.438 123.163 185.314 123.091 185.189C121.464 182.352 121.651 178.747 122.885 175.397" stroke="#263238" stroke-width="0.48" stroke-miterlimit="10"/>
<path d="M123.701 191.885C123.701 191.885 124.632 188.357 123.293 185.568" stroke="white" stroke-width="0.48" stroke-miterlimit="10"/>
<path d="M184.387 172.915C184.387 172.915 183.907 172.944 182.99 173.04C182.146 170.16 179.602 161.645 177.931 157.243C175.906 151.896 173.131 144.336 171.298 141.202C169.464 138.067 169.637 136.224 166.133 133.277C162.629 130.33 159.494 131.616 159.494 131.616C159.494 131.616 158.942 129.403 155.438 128.299C151.934 127.195 147.144 129.403 147.144 129.403C147.144 129.403 146.405 128.112 142.901 128.482C141.868 128.608 140.885 128.996 140.045 129.61C139.205 130.223 138.536 131.041 138.101 131.986C138.101 131.986 130.901 117.586 128.146 116.496C125.39 115.406 122.611 118.157 123.72 120.739C124.829 123.322 133.123 137.702 134.227 141.019C135.331 144.336 137.731 149.87 137.731 149.87C137.731 149.87 129.802 144.154 127.406 143.602C125.011 143.05 121.507 142.68 119.477 144.893C117.446 147.106 122.242 147.658 126.115 151.162C129.989 154.666 136.258 162.773 139.205 167.938C142.152 173.102 148.426 174.024 151.205 176.971C153.149 179.05 155.918 181.944 157.387 183.48C156.89 183.983 156.427 184.519 156 185.083L162.082 200.016C162.082 200.016 163.373 197.99 168.538 193.934C173.702 189.878 189.739 184.901 189.739 184.901L184.387 172.915Z" fill="#263238" stroke="#263238" stroke-width="0.48" stroke-miterlimit="10"/>
<path d="M158.165 180.672C158.165 180.672 153.739 176.064 150.965 173.117C148.19 170.17 141.931 169.243 138.965 164.078C135.998 158.914 129.744 150.806 125.875 147.302C122.006 143.798 117.211 143.246 119.237 141.034C121.262 138.821 124.8 139.2 127.2 139.742C129.6 140.285 137.525 146.011 137.525 146.011C137.525 146.011 135.125 140.482 134.021 137.165C132.917 133.848 124.608 119.462 123.504 116.88C122.4 114.298 125.16 111.533 127.925 112.642C130.69 113.75 137.885 128.126 137.885 128.126C138.319 127.181 138.988 126.363 139.828 125.75C140.669 125.138 141.652 124.751 142.685 124.627C146.189 124.258 146.928 125.549 146.928 125.549C146.928 125.549 151.728 123.336 155.222 124.44C158.717 125.544 159.278 127.762 159.278 127.762C159.278 127.762 162.413 126.47 165.917 129.418C169.421 132.365 169.234 134.218 171.077 137.347C172.92 140.477 175.69 148.042 177.715 153.389C179.741 158.736 183.062 170.165 183.062 170.165L159.269 183.072L158.165 180.672Z" fill="white" stroke="#263238" stroke-width="0.48" stroke-miterlimit="10"/>
<path d="M137.885 128.126L144.336 137.717" stroke="#263238" stroke-width="0.48" stroke-miterlimit="10"/>
<path d="M146.918 125.549L152.818 134.765" stroke="#263238" stroke-width="0.48" stroke-miterlimit="10"/>
<path d="M159.269 127.761L163.325 134.952" stroke="#263238" stroke-width="0.48" stroke-miterlimit="10"/>
<path d="M140.357 154.258L141.202 156.706" stroke="#263238" stroke-width="0.48" stroke-miterlimit="10"/>
<path d="M137.515 146.011L139.771 152.558" stroke="#263238" stroke-width="0.48" stroke-miterlimit="10"/>
<path d="M147.84 139.93L149.314 141.955" stroke="#263238" stroke-width="0.48" stroke-miterlimit="10"/>
<path d="M154.661 137.899L156.322 140.112" stroke="#263238" stroke-width="0.48" stroke-miterlimit="10"/>
<path d="M163.694 136.795L164.798 140.299" stroke="#263238" stroke-width="0.48" stroke-miterlimit="10"/>
<path d="M155.765 181.229C155.765 181.229 160.008 175.33 168.672 172.378C173.678 170.633 178.881 169.519 184.162 169.061L189.509 181.061C189.509 181.061 173.467 186.019 168.302 190.08C163.138 194.141 161.851 196.166 161.851 196.166L155.765 181.229Z" fill="white" stroke="#263238" stroke-width="0.48" stroke-miterlimit="10"/>
<path d="M170.333 221.05C170.333 221.05 163.325 203.534 161.482 199.848C159.638 196.162 162.59 194.318 162.59 194.318C162.59 194.318 166.829 188.602 177.893 184.176C188.957 179.75 189.893 179.568 192.638 182.702C195.384 185.837 213.547 221.102 213.547 221.102" fill="white"/>
<path d="M170.333 221.05C170.333 221.05 163.325 203.534 161.482 199.848C159.638 196.162 162.59 194.318 162.59 194.318C162.59 194.318 166.829 188.602 177.893 184.176C188.957 179.75 189.893 179.568 192.638 182.702C195.384 185.837 213.547 221.102 213.547 221.102" stroke="#263238" stroke-width="0.48" stroke-miterlimit="10"/>
<path d="M55.2383 202.623C57.1415 199.019 60.0987 196.082 63.7151 194.203C69.6815 191.16 73.5599 189.85 79.2719 184.215C84.9839 178.579 94.3967 173.549 98.2751 172.858C102.154 172.167 103.445 170.491 101.774 168.591C100.104 166.69 95.5343 166.579 91.4783 167.952C87.4223 169.325 83.6591 171.005 83.6591 171.005C85.7183 166.954 87.0863 162.072 89.1119 158.007C90.5519 155.127 92.9087 150.355 94.3103 147.447C95.2223 145.551 97.9391 142.392 96.7103 140.319C95.4815 138.245 92.5871 139.623 91.1135 141.6C88.7711 144.749 77.3135 162.024 77.3135 162.024L83.8463 148.2C87.1535 141.197 88.7279 137.856 88.2623 138.85C89.2223 136.805 91.1039 134.05 89.9567 131.712C89.6969 131.165 89.2951 130.698 88.793 130.359C88.2909 130.02 87.7071 129.822 87.1025 129.786C86.4979 129.749 85.8946 129.876 85.3556 130.152C84.8166 130.429 84.3617 130.845 84.0383 131.357C82.4447 133.949 70.2671 156.994 70.2671 156.994C70.2671 156.994 77.8895 137.218 78.8639 134.943C80.0543 132.168 79.3439 129.744 77.5967 129.759C75.0431 129.759 73.8383 132.605 72.8399 134.525L73.3967 133.714C70.9967 136.896 69.4079 141.072 67.4111 144.523C65.0911 148.562 62.6847 152.547 60.1919 156.48C60.6719 152.405 62.3183 148.584 64.3439 145.047C65.5679 142.915 70.6607 137.679 69.7871 135.106C69.0383 132.888 63.4559 137.055 60.1871 141.6C58.4207 144.077 53.7791 150.835 52.5071 155.587C51.2351 160.339 42.2927 176.53 39.9071 181.027C37.5215 185.525 34.6559 193.507 34.6559 193.507L55.2383 202.623Z" fill="#263238" stroke="#263238" stroke-width="0.48" stroke-miterlimit="10"/>
<path d="M62.0495 198.274C62.0495 198.274 57.4511 192.648 48.6095 190.238C43.5064 188.807 38.2454 188.016 32.9471 187.882L28.3583 200.16C28.3583 200.16 44.6783 204.144 50.0783 207.874C55.4783 211.603 56.8943 213.547 56.8943 213.547L62.0495 198.274Z" fill="#263238" stroke="#263238" stroke-width="0.48" stroke-miterlimit="10"/>
<path d="M54.6336 200.491C56.5367 196.89 59.492 193.955 63.1056 192.077C69.072 189.029 72.9552 187.718 78.6624 182.088C84.3696 176.458 93.7872 171.422 97.6704 170.726C101.554 170.03 102.84 168.365 101.165 166.459C99.4895 164.554 94.9247 164.453 90.8687 165.826C86.8128 167.198 83.04 168.874 83.04 168.874C85.0992 164.822 86.4672 159.945 88.4928 155.875C89.9328 152.995 92.2944 148.229 93.6912 145.315C94.6032 143.419 97.3199 140.261 96.0911 138.192C94.8623 136.123 91.9727 137.491 90.4991 139.474C88.1567 142.622 76.6992 159.893 76.6992 159.893C78.8719 155.285 81.048 150.678 83.2271 146.074C86.5344 139.07 88.1135 135.729 87.6432 136.718C88.6031 134.678 90.4896 131.942 89.3424 129.586C89.0823 129.038 88.6802 128.571 88.178 128.231C87.6758 127.892 87.0919 127.694 86.487 127.657C85.8821 127.62 85.2785 127.746 84.7389 128.022C84.1993 128.298 83.7436 128.714 83.4191 129.226C81.8256 131.822 69.648 154.867 69.648 154.867C69.648 154.867 77.2703 135.086 78.2448 132.816C79.4352 130.037 78.7248 127.617 76.9776 127.632C74.424 127.632 73.2192 130.473 72.2208 132.398L72.7775 131.587C70.3775 134.765 68.7887 138.946 66.792 142.397C64.4623 146.429 62.0496 150.413 59.5536 154.349C60.0336 150.274 61.68 146.458 63.7056 142.92C64.9296 140.789 70.0224 135.552 69.1536 132.974C68.4048 130.762 62.8176 134.923 59.5536 139.474C57.7824 141.95 53.1456 148.704 51.8736 153.461C50.6016 158.217 41.6592 174.398 39.2736 178.901C36.888 183.403 34.0224 191.381 34.0224 191.381L54.6336 200.491Z" fill="white" stroke="#263238" stroke-width="0.48" stroke-miterlimit="10"/>
<path d="M69.6768 154.872L67.4736 159.322" stroke="#263238" stroke-width="0.48" stroke-miterlimit="10"/>
<path d="M76.728 159.898L75.0096 162.125" stroke="#263238" stroke-width="0.48" stroke-miterlimit="10"/>
<path d="M83.0495 168.874L80.8415 172.09" stroke="#263238" stroke-width="0.48" stroke-miterlimit="10"/>
<path d="M71.6352 166.761L71.4576 168.677" stroke="#263238" stroke-width="0.48" stroke-miterlimit="10"/>
<path d="M66.1344 163.272L66.144 165.12" stroke="#263238" stroke-width="0.48" stroke-miterlimit="10"/>
<path d="M58.0416 159.418L58.488 162.562" stroke="#263238" stroke-width="0.48" stroke-miterlimit="10"/>
<path d="M61.4399 196.147C61.4399 196.147 56.8415 190.522 47.9999 188.112C42.9012 186.684 37.6451 185.894 32.3519 185.76L27.7535 198.048C27.7535 198.048 44.0735 202.027 49.4735 205.757C54.8735 209.486 56.2895 211.435 56.2895 211.435L61.4399 196.147Z" fill="white" stroke="#263238" stroke-width="0.48" stroke-miterlimit="10"/>
<path d="M54.1248 222.72C54.1248 222.72 55.272 218.88 56.8848 215.083C58.4976 211.286 55.4448 209.63 55.4448 209.63C55.4448 209.63 50.8559 204.187 39.5424 200.453C28.2288 196.718 27.2976 196.589 24.7296 199.886C22.1616 203.184 13.92 223.018 13.92 223.018" fill="white"/>
<path d="M54.1248 222.72C54.1248 222.72 55.272 218.88 56.8848 215.083C58.4976 211.286 55.4448 209.63 55.4448 209.63C55.4448 209.63 50.856 204.187 39.5424 200.453C28.2288 196.718 27.2976 196.589 24.7296 199.886C22.1616 203.184 13.92 223.018 13.92 223.018" stroke="#263238" stroke-width="0.48" stroke-miterlimit="10"/>
</svg>
