<svg width="705" height="72" viewBox="0 0 705 72" fill="none" xmlns="http://www.w3.org/2000/svg">
<rect x="73" y="0.5" width="39" height="39" rx="19.5" fill="#653EFF"/>
<rect x="73" y="0.5" width="39" height="39" rx="19.5" stroke="#653EFF"/>
<path d="M99.1667 15L90 24.1667L85.8333 20" stroke="white" stroke-width="2" stroke-linecap="round" stroke-linejoin="round"/>
<path d="M37.832 55.88C41.4 55.88 43.736 58.04 43.736 61.48C43.736 64.904 41.4 67 37.832 67H34.2V55.88H37.832ZM36.024 65.512H37.832C40.456 65.512 41.864 64.008 41.864 61.48C41.864 58.936 40.456 57.368 37.832 57.368H36.024V65.512ZM53.9438 62.584C53.9438 65.352 51.8958 67.144 49.3678 67.144C46.8558 67.144 44.9518 65.352 44.9518 62.584C44.9518 59.816 46.9358 58.04 49.4478 58.04C51.9598 58.04 53.9438 59.816 53.9438 62.584ZM46.8078 62.584C46.8078 64.584 47.9918 65.56 49.3678 65.56C50.7278 65.56 52.0718 64.584 52.0718 62.584C52.0718 60.584 50.7758 59.624 49.4158 59.624C48.0398 59.624 46.8078 60.584 46.8078 62.584ZM57.4589 67L54.7069 58.184H56.5629L58.4029 65.272L60.2749 58.184H62.1789L63.9709 65.24L65.7949 58.184H67.5869L64.8509 67H62.9309L61.1549 60.488L59.3789 67H57.4589ZM75.206 67V62.072C75.206 60.456 74.326 59.624 72.998 59.624C71.654 59.624 70.774 60.456 70.774 62.072V67H68.95V58.184H70.774V59.192C71.366 58.472 72.342 58.04 73.398 58.04C75.462 58.04 77.014 59.336 77.014 61.8V67H75.206ZM79.3406 67V55.16H81.1646V67H79.3406ZM91.9594 62.584C91.9594 65.352 89.9114 67.144 87.3834 67.144C84.8714 67.144 82.9674 65.352 82.9674 62.584C82.9674 59.816 84.9514 58.04 87.4634 58.04C89.9754 58.04 91.9594 59.816 91.9594 62.584ZM84.8234 62.584C84.8234 64.584 86.0074 65.56 87.3834 65.56C88.7434 65.56 90.0874 64.584 90.0874 62.584C90.0874 60.584 88.7914 59.624 87.4314 59.624C86.0554 59.624 84.8234 60.584 84.8234 62.584ZM93.1545 62.552C93.1545 59.832 94.9945 58.04 97.3145 58.04C98.8025 58.04 99.8265 58.744 100.371 59.464V58.184H102.211V67H100.371V65.688C99.8105 66.44 98.7545 67.144 97.2825 67.144C94.9945 67.144 93.1545 65.272 93.1545 62.552ZM100.371 62.584C100.371 60.696 99.0745 59.624 97.6985 59.624C96.3385 59.624 95.0265 60.648 95.0265 62.552C95.0265 64.456 96.3385 65.56 97.6985 65.56C99.0745 65.56 100.371 64.488 100.371 62.584ZM103.998 62.552C103.998 59.832 105.838 58.04 108.174 58.04C109.326 58.04 110.542 58.584 111.214 59.416V55.16H113.054V67H111.214V65.672C110.654 66.472 109.598 67.144 108.158 67.144C105.838 67.144 103.998 65.272 103.998 62.552ZM111.214 62.584C111.214 60.696 109.918 59.624 108.542 59.624C107.182 59.624 105.87 60.648 105.87 62.552C105.87 64.456 107.182 65.56 108.542 65.56C109.918 65.56 111.214 64.488 111.214 62.584ZM127.11 67L126.31 64.728H121.654L120.854 67H118.95L122.934 55.864H125.046L129.03 67H127.11ZM125.798 63.24L123.99 58.072L122.166 63.24H125.798ZM132.587 59.48C133.147 58.744 134.219 58.04 135.659 58.04C137.979 58.04 139.803 59.832 139.803 62.552C139.803 65.272 137.979 67.144 135.659 67.144C134.203 67.144 133.163 66.408 132.587 65.72V71.192H130.763V58.184H132.587V59.48ZM137.947 62.552C137.947 60.648 136.635 59.624 135.259 59.624C133.899 59.624 132.587 60.696 132.587 62.584C132.587 64.488 133.899 65.56 135.259 65.56C136.635 65.56 137.947 64.456 137.947 62.552ZM143.43 59.48C143.99 58.744 145.062 58.04 146.502 58.04C148.822 58.04 150.646 59.832 150.646 62.552C150.646 65.272 148.822 67.144 146.502 67.144C145.046 67.144 144.006 66.408 143.43 65.72V71.192H141.606V58.184H143.43V59.48ZM148.79 62.552C148.79 60.648 147.478 59.624 146.102 59.624C144.742 59.624 143.43 60.696 143.43 62.584C143.43 64.488 144.742 65.56 146.102 65.56C147.478 65.56 148.79 64.456 148.79 62.552Z" fill="#653EFF"/>
<rect x="333" y="0.5" width="39" height="39" rx="19.5" fill="#653EFF"/>
<rect x="333" y="0.5" width="39" height="39" rx="19.5" stroke="#653EFF"/>
<path d="M359.167 15L350 24.1667L345.833 20" stroke="white" stroke-width="2" stroke-linecap="round" stroke-linejoin="round"/>
<path d="M299.864 67.112C299.117 67.112 298.445 66.984 297.848 66.728C297.251 66.4613 296.781 66.088 296.44 65.608C296.099 65.128 295.928 64.568 295.928 63.928H297.88C297.923 64.408 298.109 64.8027 298.44 65.112C298.781 65.4213 299.256 65.576 299.864 65.576C300.493 65.576 300.984 65.4267 301.336 65.128C301.688 64.8187 301.864 64.424 301.864 63.944C301.864 63.5707 301.752 63.2667 301.528 63.032C301.315 62.7973 301.043 62.616 300.712 62.488C300.392 62.36 299.944 62.2213 299.368 62.072C298.643 61.88 298.051 61.688 297.592 61.496C297.144 61.2933 296.76 60.984 296.44 60.568C296.12 60.152 295.96 59.5973 295.96 58.904C295.96 58.264 296.12 57.704 296.44 57.224C296.76 56.744 297.208 56.376 297.784 56.12C298.36 55.864 299.027 55.736 299.784 55.736C300.861 55.736 301.741 56.008 302.424 56.552C303.117 57.0853 303.501 57.8213 303.576 58.76H301.56C301.528 58.3547 301.336 58.008 300.984 57.72C300.632 57.432 300.168 57.288 299.592 57.288C299.069 57.288 298.643 57.4213 298.312 57.688C297.981 57.9547 297.816 58.3387 297.816 58.84C297.816 59.1813 297.917 59.464 298.12 59.688C298.333 59.9013 298.6 60.072 298.92 60.2C299.24 60.328 299.677 60.4667 300.232 60.616C300.968 60.8187 301.565 61.0213 302.024 61.224C302.493 61.4267 302.888 61.7413 303.208 62.168C303.539 62.584 303.704 63.144 303.704 63.848C303.704 64.4133 303.549 64.9467 303.24 65.448C302.941 65.9493 302.499 66.3547 301.912 66.664C301.336 66.9627 300.653 67.112 299.864 67.112ZM305.248 62.584C305.248 61.6773 305.43 60.8827 305.792 60.2C306.166 59.5067 306.678 58.9733 307.328 58.6C307.979 58.2267 308.726 58.04 309.568 58.04C310.635 58.04 311.515 58.296 312.208 58.808C312.912 59.3093 313.387 60.0293 313.632 60.968H311.664C311.504 60.5307 311.248 60.1893 310.896 59.944C310.544 59.6987 310.102 59.576 309.568 59.576C308.822 59.576 308.224 59.8427 307.776 60.376C307.339 60.8987 307.12 61.6347 307.12 62.584C307.12 63.5333 307.339 64.2747 307.776 64.808C308.224 65.3413 308.822 65.608 309.568 65.608C310.624 65.608 311.323 65.144 311.664 64.216H313.632C313.376 65.112 312.896 65.8267 312.192 66.36C311.488 66.8827 310.614 67.144 309.568 67.144C308.726 67.144 307.979 66.9573 307.328 66.584C306.678 66.2 306.166 65.6667 305.792 64.984C305.43 64.2907 305.248 63.4907 305.248 62.584ZM314.842 62.552C314.842 61.6667 315.023 60.8827 315.386 60.2C315.759 59.5173 316.261 58.9893 316.89 58.616C317.53 58.232 318.234 58.04 319.002 58.04C319.695 58.04 320.298 58.1787 320.81 58.456C321.333 58.7227 321.749 59.0587 322.058 59.464V58.184H323.898V67H322.058V65.688C321.749 66.104 321.327 66.4507 320.794 66.728C320.261 67.0053 319.653 67.144 318.97 67.144C318.213 67.144 317.519 66.952 316.89 66.568C316.261 66.1733 315.759 65.6293 315.386 64.936C315.023 64.232 314.842 63.4373 314.842 62.552ZM322.058 62.584C322.058 61.976 321.93 61.448 321.674 61C321.429 60.552 321.103 60.2107 320.698 59.976C320.293 59.7413 319.855 59.624 319.386 59.624C318.917 59.624 318.479 59.7413 318.074 59.976C317.669 60.2 317.338 60.536 317.082 60.984C316.837 61.4213 316.714 61.944 316.714 62.552C316.714 63.16 316.837 63.6933 317.082 64.152C317.338 64.6107 317.669 64.9627 318.074 65.208C318.49 65.4427 318.927 65.56 319.386 65.56C319.855 65.56 320.293 65.4427 320.698 65.208C321.103 64.9733 321.429 64.632 321.674 64.184C321.93 63.7253 322.058 63.192 322.058 62.584ZM330.742 58.04C331.435 58.04 332.054 58.184 332.598 58.472C333.152 58.76 333.584 59.1867 333.894 59.752C334.203 60.3173 334.358 61 334.358 61.8V67H332.55V62.072C332.55 61.2827 332.352 60.68 331.958 60.264C331.563 59.8373 331.024 59.624 330.342 59.624C329.659 59.624 329.115 59.8373 328.71 60.264C328.315 60.68 328.118 61.2827 328.118 62.072V67H326.294V58.184H328.118V59.192C328.416 58.8293 328.795 58.5467 329.254 58.344C329.723 58.1413 330.219 58.04 330.742 58.04ZM349.449 69.016L347.497 66.904C347.017 67.0427 346.489 67.112 345.913 67.112C344.878 67.112 343.923 66.872 343.049 66.392C342.185 65.9013 341.497 65.224 340.985 64.36C340.483 63.4853 340.233 62.504 340.233 61.416C340.233 60.328 340.483 59.352 340.985 58.488C341.497 57.624 342.185 56.952 343.049 56.472C343.923 55.9813 344.878 55.736 345.913 55.736C346.958 55.736 347.913 55.9813 348.777 56.472C349.651 56.952 350.339 57.624 350.841 58.488C351.342 59.352 351.593 60.328 351.593 61.416C351.593 62.44 351.369 63.368 350.921 64.2C350.483 65.0213 349.875 65.6827 349.097 66.184L351.769 69.016H349.449ZM342.105 61.416C342.105 62.2373 342.265 62.9627 342.585 63.592C342.915 64.2107 343.369 64.6907 343.945 65.032C344.521 65.3627 345.177 65.528 345.913 65.528C346.649 65.528 347.305 65.3627 347.881 65.032C348.457 64.6907 348.905 64.2107 349.225 63.592C349.555 62.9627 349.721 62.2373 349.721 61.416C349.721 60.5947 349.555 59.8747 349.225 59.256C348.905 58.6373 348.457 58.1627 347.881 57.832C347.305 57.5013 346.649 57.336 345.913 57.336C345.177 57.336 344.521 57.5013 343.945 57.832C343.369 58.1627 342.915 58.6373 342.585 59.256C342.265 59.8747 342.105 60.5947 342.105 61.416ZM359.21 67L356.65 62.552H355.258V67H353.434V55.88H357.274C358.128 55.88 358.848 56.0293 359.434 56.328C360.032 56.6267 360.474 57.0267 360.762 57.528C361.061 58.0293 361.21 58.5893 361.21 59.208C361.21 59.9333 360.997 60.5947 360.57 61.192C360.154 61.7787 359.509 62.1787 358.634 62.392L361.386 67H359.21ZM355.258 61.096H357.274C357.957 61.096 358.469 60.9253 358.81 60.584C359.162 60.2427 359.338 59.784 359.338 59.208C359.338 58.632 359.168 58.184 358.826 57.864C358.485 57.5333 357.968 57.368 357.274 57.368H355.258V61.096ZM367.092 61.416C367.092 60.328 367.343 59.352 367.844 58.488C368.356 57.624 369.044 56.952 369.908 56.472C370.783 55.9813 371.737 55.736 372.772 55.736C373.956 55.736 375.007 56.0293 375.924 56.616C376.852 57.192 377.524 58.0133 377.94 59.08H375.748C375.46 58.4933 375.06 58.056 374.548 57.768C374.036 57.48 373.444 57.336 372.772 57.336C372.036 57.336 371.38 57.5013 370.804 57.832C370.228 58.1627 369.775 58.6373 369.444 59.256C369.124 59.8747 368.964 60.5947 368.964 61.416C368.964 62.2373 369.124 62.9573 369.444 63.576C369.775 64.1947 370.228 64.6747 370.804 65.016C371.38 65.3467 372.036 65.512 372.772 65.512C373.444 65.512 374.036 65.368 374.548 65.08C375.06 64.792 375.46 64.3547 375.748 63.768H377.94C377.524 64.8347 376.852 65.656 375.924 66.232C375.007 66.808 373.956 67.096 372.772 67.096C371.727 67.096 370.772 66.856 369.908 66.376C369.044 65.8853 368.356 65.208 367.844 64.344C367.343 63.48 367.092 62.504 367.092 61.416ZM383.899 67.144C383.067 67.144 382.315 66.9573 381.643 66.584C380.971 66.2 380.443 65.6667 380.059 64.984C379.675 64.2907 379.483 63.4907 379.483 62.584C379.483 61.688 379.68 60.8933 380.075 60.2C380.47 59.5067 381.008 58.9733 381.691 58.6C382.374 58.2267 383.136 58.04 383.979 58.04C384.822 58.04 385.584 58.2267 386.267 58.6C386.95 58.9733 387.488 59.5067 387.883 60.2C388.278 60.8933 388.475 61.688 388.475 62.584C388.475 63.48 388.272 64.2747 387.867 64.968C387.462 65.6613 386.907 66.2 386.203 66.584C385.51 66.9573 384.742 67.144 383.899 67.144ZM383.899 65.56C384.368 65.56 384.806 65.448 385.211 65.224C385.627 65 385.963 64.664 386.219 64.216C386.475 63.768 386.603 63.224 386.603 62.584C386.603 61.944 386.48 61.4053 386.235 60.968C385.99 60.52 385.664 60.184 385.259 59.96C384.854 59.736 384.416 59.624 383.947 59.624C383.478 59.624 383.04 59.736 382.635 59.96C382.24 60.184 381.926 60.52 381.691 60.968C381.456 61.4053 381.339 61.944 381.339 62.584C381.339 63.5333 381.579 64.2693 382.059 64.792C382.55 65.304 383.163 65.56 383.899 65.56ZM389.67 62.552C389.67 61.6667 389.851 60.8827 390.214 60.2C390.587 59.5173 391.089 58.9893 391.718 58.616C392.358 58.232 393.067 58.04 393.846 58.04C394.422 58.04 394.987 58.168 395.542 58.424C396.107 58.6693 396.555 59 396.886 59.416V55.16H398.726V67H396.886V65.672C396.587 66.0987 396.171 66.4507 395.638 66.728C395.115 67.0053 394.513 67.144 393.83 67.144C393.062 67.144 392.358 66.952 391.718 66.568C391.089 66.1733 390.587 65.6293 390.214 64.936C389.851 64.232 389.67 63.4373 389.67 62.552ZM396.886 62.584C396.886 61.976 396.758 61.448 396.502 61C396.257 60.552 395.931 60.2107 395.526 59.976C395.121 59.7413 394.683 59.624 394.214 59.624C393.745 59.624 393.307 59.7413 392.902 59.976C392.497 60.2 392.166 60.536 391.91 60.984C391.665 61.4213 391.542 61.944 391.542 62.552C391.542 63.16 391.665 63.6933 391.91 64.152C392.166 64.6107 392.497 64.9627 392.902 65.208C393.318 65.4427 393.755 65.56 394.214 65.56C394.683 65.56 395.121 65.4427 395.526 65.208C395.931 64.9733 396.257 64.632 396.502 64.184C396.758 63.7253 396.886 63.192 396.886 62.584ZM409.202 62.376C409.202 62.7067 409.181 63.0053 409.138 63.272H402.402C402.455 63.976 402.717 64.5413 403.186 64.968C403.655 65.3947 404.231 65.608 404.914 65.608C405.895 65.608 406.589 65.1973 406.994 64.376H408.962C408.695 65.1867 408.21 65.8533 407.506 66.376C406.813 66.888 405.949 67.144 404.914 67.144C404.071 67.144 403.314 66.9573 402.642 66.584C401.981 66.2 401.458 65.6667 401.074 64.984C400.701 64.2907 400.514 63.4907 400.514 62.584C400.514 61.6773 400.695 60.8827 401.058 60.2C401.431 59.5067 401.949 58.9733 402.61 58.6C403.282 58.2267 404.05 58.04 404.914 58.04C405.746 58.04 406.487 58.2213 407.138 58.584C407.789 58.9467 408.295 59.4587 408.658 60.12C409.021 60.7707 409.202 61.5227 409.202 62.376ZM407.298 61.8C407.287 61.128 407.047 60.5893 406.578 60.184C406.109 59.7787 405.527 59.576 404.834 59.576C404.205 59.576 403.666 59.7787 403.218 60.184C402.77 60.5787 402.503 61.1173 402.418 61.8H407.298Z" fill="#653EFF"/>
<rect x="593" y="0.5" width="39" height="39" rx="19.5" fill="#F0ECFF"/>
<rect x="593" y="0.5" width="39" height="39" rx="19.5" stroke="#663EFF"/>
<path d="M608.472 17.116C608.515 15.9747 608.888 15.0947 609.592 14.476C610.296 13.8573 611.251 13.548 612.456 13.548C613.256 13.548 613.939 13.6867 614.504 13.964C615.08 14.2413 615.512 14.62 615.8 15.1C616.099 15.58 616.248 16.1187 616.248 16.716C616.248 17.42 616.072 17.996 615.72 18.444C615.368 18.8813 614.958 19.18 614.488 19.34V19.404C615.096 19.6067 615.576 19.9427 615.928 20.412C616.28 20.8813 616.456 21.484 616.456 22.22C616.456 22.8813 616.302 23.468 615.992 23.98C615.694 24.4813 615.251 24.876 614.664 25.164C614.088 25.452 613.4 25.596 612.6 25.596C611.32 25.596 610.296 25.2813 609.528 24.652C608.771 24.0227 608.371 23.0733 608.328 21.804H610.984C610.995 22.2733 611.128 22.6467 611.384 22.924C611.64 23.1907 612.014 23.324 612.504 23.324C612.92 23.324 613.24 23.2067 613.464 22.972C613.699 22.7267 613.816 22.4067 613.816 22.012C613.816 21.5 613.651 21.132 613.32 20.908C613 20.6733 612.483 20.556 611.768 20.556H611.256V18.332H611.768C612.312 18.332 612.75 18.2413 613.08 18.06C613.422 17.868 613.592 17.532 613.592 17.052C613.592 16.668 613.486 16.3693 613.272 16.156C613.059 15.9427 612.766 15.836 612.392 15.836C611.987 15.836 611.683 15.9587 611.48 16.204C611.288 16.4493 611.176 16.7533 611.144 17.116H608.472Z" fill="#653EFF"/>
<path d="M523.024 57.352V60.616H526.864V62.104H523.024V65.512H527.344V67H521.2V55.864H527.344V57.352H523.024ZM534.039 58.04C534.732 58.04 535.351 58.184 535.895 58.472C536.449 58.76 536.881 59.1867 537.191 59.752C537.5 60.3173 537.655 61 537.655 61.8V67H535.847V62.072C535.847 61.2827 535.649 60.68 535.255 60.264C534.86 59.8373 534.321 59.624 533.639 59.624C532.956 59.624 532.412 59.8373 532.007 60.264C531.612 60.68 531.415 61.2827 531.415 62.072V67H529.591V58.184H531.415V59.192C531.713 58.8293 532.092 58.5467 532.551 58.344C533.02 58.1413 533.516 58.04 534.039 58.04ZM542.109 59.672V64.552C542.109 64.8827 542.184 65.1227 542.333 65.272C542.493 65.4107 542.76 65.48 543.133 65.48H544.253V67H542.813C541.992 67 541.363 66.808 540.925 66.424C540.488 66.04 540.269 65.416 540.269 64.552V59.672H539.229V58.184H540.269V55.992H542.109V58.184H544.253V59.672H542.109ZM554.014 62.376C554.014 62.7067 553.993 63.0053 553.95 63.272H547.214C547.268 63.976 547.529 64.5413 547.998 64.968C548.468 65.3947 549.044 65.608 549.726 65.608C550.708 65.608 551.401 65.1973 551.806 64.376H553.774C553.508 65.1867 553.022 65.8533 552.318 66.376C551.625 66.888 550.761 67.144 549.726 67.144C548.884 67.144 548.126 66.9573 547.454 66.584C546.793 66.2 546.27 65.6667 545.886 64.984C545.513 64.2907 545.326 63.4907 545.326 62.584C545.326 61.6773 545.508 60.8827 545.87 60.2C546.244 59.5067 546.761 58.9733 547.422 58.6C548.094 58.2267 548.862 58.04 549.726 58.04C550.558 58.04 551.3 58.2213 551.95 58.584C552.601 58.9467 553.108 59.4587 553.47 60.12C553.833 60.7707 554.014 61.5227 554.014 62.376ZM552.11 61.8C552.1 61.128 551.86 60.5893 551.39 60.184C550.921 59.7787 550.34 59.576 549.646 59.576C549.017 59.576 548.478 59.7787 548.03 60.184C547.582 60.5787 547.316 61.1173 547.23 61.8H552.11ZM557.633 59.464C557.9 59.016 558.252 58.6693 558.689 58.424C559.137 58.168 559.665 58.04 560.273 58.04V59.928H559.809C559.095 59.928 558.551 60.1093 558.177 60.472C557.815 60.8347 557.633 61.464 557.633 62.36V67H555.809V58.184H557.633V59.464ZM575.69 55.88L571.514 67H569.402L565.21 55.88H567.162L570.458 65.128L573.77 55.88H575.69ZM585.296 62.376C585.296 62.7067 585.274 63.0053 585.232 63.272H578.496C578.549 63.976 578.81 64.5413 579.28 64.968C579.749 65.3947 580.325 65.608 581.008 65.608C581.989 65.608 582.682 65.1973 583.088 64.376H585.056C584.789 65.1867 584.304 65.8533 583.6 66.376C582.906 66.888 582.042 67.144 581.008 67.144C580.165 67.144 579.408 66.9573 578.736 66.584C578.074 66.2 577.552 65.6667 577.168 64.984C576.794 64.2907 576.608 63.4907 576.608 62.584C576.608 61.6773 576.789 60.8827 577.152 60.2C577.525 59.5067 578.042 58.9733 578.704 58.6C579.376 58.2267 580.144 58.04 581.008 58.04C581.84 58.04 582.581 58.2213 583.232 58.584C583.882 58.9467 584.389 59.4587 584.752 60.12C585.114 60.7707 585.296 61.5227 585.296 62.376ZM583.392 61.8C583.381 61.128 583.141 60.5893 582.672 60.184C582.202 59.7787 581.621 59.576 580.928 59.576C580.298 59.576 579.76 59.7787 579.312 60.184C578.864 60.5787 578.597 61.1173 578.512 61.8H583.392ZM588.915 59.464C589.181 59.016 589.533 58.6693 589.971 58.424C590.419 58.168 590.947 58.04 591.555 58.04V59.928H591.091C590.376 59.928 589.832 60.1093 589.459 60.472C589.096 60.8347 588.915 61.464 588.915 62.36V67H587.091V58.184H588.915V59.464ZM594.159 57.016C593.829 57.016 593.551 56.904 593.327 56.68C593.103 56.456 592.991 56.1787 592.991 55.848C592.991 55.5173 593.103 55.24 593.327 55.016C593.551 54.792 593.829 54.68 594.159 54.68C594.479 54.68 594.751 54.792 594.975 55.016C595.199 55.24 595.311 55.5173 595.311 55.848C595.311 56.1787 595.199 56.456 594.975 56.68C594.751 56.904 594.479 57.016 594.159 57.016ZM595.055 58.184V67H593.231V58.184H595.055ZM601.146 59.672H599.514V67H597.674V59.672H596.634V58.184H597.674V57.56C597.674 56.5467 597.941 55.8107 598.474 55.352C599.018 54.8827 599.866 54.648 601.018 54.648V56.168C600.463 56.168 600.074 56.2747 599.85 56.488C599.626 56.6907 599.514 57.048 599.514 57.56V58.184H601.146V59.672ZM603.691 57.016C603.36 57.016 603.083 56.904 602.859 56.68C602.635 56.456 602.523 56.1787 602.523 55.848C602.523 55.5173 602.635 55.24 602.859 55.016C603.083 54.792 603.36 54.68 603.691 54.68C604.011 54.68 604.283 54.792 604.507 55.016C604.731 55.24 604.843 55.5173 604.843 55.848C604.843 56.1787 604.731 56.456 604.507 56.68C604.283 56.904 604.011 57.016 603.691 57.016ZM604.587 58.184V67H602.763V58.184H604.587ZM606.373 62.584C606.373 61.6773 606.555 60.8827 606.917 60.2C607.291 59.5067 607.803 58.9733 608.453 58.6C609.104 58.2267 609.851 58.04 610.693 58.04C611.76 58.04 612.64 58.296 613.333 58.808C614.037 59.3093 614.512 60.0293 614.757 60.968H612.789C612.629 60.5307 612.373 60.1893 612.021 59.944C611.669 59.6987 611.227 59.576 610.693 59.576C609.947 59.576 609.349 59.8427 608.901 60.376C608.464 60.8987 608.245 61.6347 608.245 62.584C608.245 63.5333 608.464 64.2747 608.901 64.808C609.349 65.3413 609.947 65.608 610.693 65.608C611.749 65.608 612.448 65.144 612.789 64.216H614.757C614.501 65.112 614.021 65.8267 613.317 66.36C612.613 66.8827 611.739 67.144 610.693 67.144C609.851 67.144 609.104 66.9573 608.453 66.584C607.803 66.2 607.291 65.6667 606.917 64.984C606.555 64.2907 606.373 63.4907 606.373 62.584ZM615.967 62.552C615.967 61.6667 616.148 60.8827 616.511 60.2C616.884 59.5173 617.386 58.9893 618.015 58.616C618.655 58.232 619.359 58.04 620.127 58.04C620.82 58.04 621.423 58.1787 621.935 58.456C622.458 58.7227 622.874 59.0587 623.183 59.464V58.184H625.023V67H623.183V65.688C622.874 66.104 622.452 66.4507 621.919 66.728C621.386 67.0053 620.778 67.144 620.095 67.144C619.338 67.144 618.644 66.952 618.015 66.568C617.386 66.1733 616.884 65.6293 616.511 64.936C616.148 64.232 615.967 63.4373 615.967 62.552ZM623.183 62.584C623.183 61.976 623.055 61.448 622.799 61C622.554 60.552 622.228 60.2107 621.823 59.976C621.418 59.7413 620.98 59.624 620.511 59.624C620.042 59.624 619.604 59.7413 619.199 59.976C618.794 60.2 618.463 60.536 618.207 60.984C617.962 61.4213 617.839 61.944 617.839 62.552C617.839 63.16 617.962 63.6933 618.207 64.152C618.463 64.6107 618.794 64.9627 619.199 65.208C619.615 65.4427 620.052 65.56 620.511 65.56C620.98 65.56 621.418 65.4427 621.823 65.208C622.228 64.9733 622.554 64.632 622.799 64.184C623.055 63.7253 623.183 63.192 623.183 62.584ZM629.547 59.672V64.552C629.547 64.8827 629.621 65.1227 629.771 65.272C629.931 65.4107 630.197 65.48 630.571 65.48H631.691V67H630.251C629.429 67 628.8 66.808 628.363 66.424C627.925 66.04 627.707 65.416 627.707 64.552V59.672H626.667V58.184H627.707V55.992H629.547V58.184H631.691V59.672H629.547ZM634.3 57.016C633.969 57.016 633.692 56.904 633.468 56.68C633.244 56.456 633.132 56.1787 633.132 55.848C633.132 55.5173 633.244 55.24 633.468 55.016C633.692 54.792 633.969 54.68 634.3 54.68C634.62 54.68 634.892 54.792 635.116 55.016C635.34 55.24 635.452 55.5173 635.452 55.848C635.452 56.1787 635.34 56.456 635.116 56.68C634.892 56.904 634.62 57.016 634.3 57.016ZM635.196 58.184V67H633.372V58.184H635.196ZM641.415 67.144C640.583 67.144 639.831 66.9573 639.159 66.584C638.487 66.2 637.959 65.6667 637.575 64.984C637.191 64.2907 636.999 63.4907 636.999 62.584C636.999 61.688 637.196 60.8933 637.591 60.2C637.985 59.5067 638.524 58.9733 639.207 58.6C639.889 58.2267 640.652 58.04 641.495 58.04C642.337 58.04 643.1 58.2267 643.783 58.6C644.465 58.9733 645.004 59.5067 645.399 60.2C645.793 60.8933 645.991 61.688 645.991 62.584C645.991 63.48 645.788 64.2747 645.383 64.968C644.977 65.6613 644.423 66.2 643.719 66.584C643.025 66.9573 642.257 67.144 641.415 67.144ZM641.415 65.56C641.884 65.56 642.321 65.448 642.727 65.224C643.143 65 643.479 64.664 643.735 64.216C643.991 63.768 644.119 63.224 644.119 62.584C644.119 61.944 643.996 61.4053 643.751 60.968C643.505 60.52 643.18 60.184 642.775 59.96C642.369 59.736 641.932 59.624 641.463 59.624C640.993 59.624 640.556 59.736 640.151 59.96C639.756 60.184 639.441 60.52 639.207 60.968C638.972 61.4053 638.855 61.944 638.855 62.584C638.855 63.5333 639.095 64.2693 639.575 64.792C640.065 65.304 640.679 65.56 641.415 65.56ZM652.242 58.04C652.935 58.04 653.554 58.184 654.098 58.472C654.652 58.76 655.084 59.1867 655.394 59.752C655.703 60.3173 655.858 61 655.858 61.8V67H654.05V62.072C654.05 61.2827 653.852 60.68 653.458 60.264C653.063 59.8373 652.524 59.624 651.842 59.624C651.159 59.624 650.615 59.8373 650.21 60.264C649.815 60.68 649.618 61.2827 649.618 62.072V67H647.794V58.184H649.618V59.192C649.916 58.8293 650.295 58.5467 650.754 58.344C651.223 58.1413 651.719 58.04 652.242 58.04ZM661.733 61.416C661.733 60.328 661.983 59.352 662.485 58.488C662.997 57.624 663.685 56.952 664.549 56.472C665.423 55.9813 666.378 55.736 667.413 55.736C668.597 55.736 669.647 56.0293 670.565 56.616C671.493 57.192 672.165 58.0133 672.581 59.08H670.389C670.101 58.4933 669.701 58.056 669.189 57.768C668.677 57.48 668.085 57.336 667.413 57.336C666.677 57.336 666.021 57.5013 665.445 57.832C664.869 58.1627 664.415 58.6373 664.085 59.256C663.765 59.8747 663.605 60.5947 663.605 61.416C663.605 62.2373 663.765 62.9573 664.085 63.576C664.415 64.1947 664.869 64.6747 665.445 65.016C666.021 65.3467 666.677 65.512 667.413 65.512C668.085 65.512 668.677 65.368 669.189 65.08C669.701 64.792 670.101 64.3547 670.389 63.768H672.581C672.165 64.8347 671.493 65.656 670.565 66.232C669.647 66.808 668.597 67.096 667.413 67.096C666.367 67.096 665.413 66.856 664.549 66.376C663.685 65.8853 662.997 65.208 662.485 64.344C661.983 63.48 661.733 62.504 661.733 61.416ZM678.54 67.144C677.708 67.144 676.956 66.9573 676.284 66.584C675.612 66.2 675.084 65.6667 674.7 64.984C674.316 64.2907 674.124 63.4907 674.124 62.584C674.124 61.688 674.321 60.8933 674.716 60.2C675.11 59.5067 675.649 58.9733 676.332 58.6C677.014 58.2267 677.777 58.04 678.62 58.04C679.462 58.04 680.225 58.2267 680.908 58.6C681.59 58.9733 682.129 59.5067 682.524 60.2C682.918 60.8933 683.116 61.688 683.116 62.584C683.116 63.48 682.913 64.2747 682.508 64.968C682.102 65.6613 681.548 66.2 680.844 66.584C680.15 66.9573 679.382 67.144 678.54 67.144ZM678.54 65.56C679.009 65.56 679.446 65.448 679.852 65.224C680.268 65 680.604 64.664 680.86 64.216C681.116 63.768 681.244 63.224 681.244 62.584C681.244 61.944 681.121 61.4053 680.876 60.968C680.63 60.52 680.305 60.184 679.9 59.96C679.494 59.736 679.057 59.624 678.588 59.624C678.118 59.624 677.681 59.736 677.276 59.96C676.881 60.184 676.566 60.52 676.332 60.968C676.097 61.4053 675.98 61.944 675.98 62.584C675.98 63.5333 676.22 64.2693 676.7 64.792C677.19 65.304 677.804 65.56 678.54 65.56ZM684.311 62.552C684.311 61.6667 684.492 60.8827 684.855 60.2C685.228 59.5173 685.729 58.9893 686.359 58.616C686.999 58.232 687.708 58.04 688.487 58.04C689.063 58.04 689.628 58.168 690.183 58.424C690.748 58.6693 691.196 59 691.527 59.416V55.16H693.367V67H691.527V65.672C691.228 66.0987 690.812 66.4507 690.279 66.728C689.756 67.0053 689.153 67.144 688.471 67.144C687.703 67.144 686.999 66.952 686.359 66.568C685.729 66.1733 685.228 65.6293 684.855 64.936C684.492 64.232 684.311 63.4373 684.311 62.552ZM691.527 62.584C691.527 61.976 691.399 61.448 691.143 61C690.897 60.552 690.572 60.2107 690.167 59.976C689.761 59.7413 689.324 59.624 688.855 59.624C688.385 59.624 687.948 59.7413 687.543 59.976C687.137 60.2 686.807 60.536 686.551 60.984C686.305 61.4213 686.183 61.944 686.183 62.552C686.183 63.16 686.305 63.6933 686.551 64.152C686.807 64.6107 687.137 64.9627 687.543 65.208C687.959 65.4427 688.396 65.56 688.855 65.56C689.324 65.56 689.761 65.4427 690.167 65.208C690.572 64.9733 690.897 64.632 691.143 64.184C691.399 63.7253 691.527 63.192 691.527 62.584ZM703.843 62.376C703.843 62.7067 703.821 63.0053 703.779 63.272H697.043C697.096 63.976 697.357 64.5413 697.827 64.968C698.296 65.3947 698.872 65.608 699.555 65.608C700.536 65.608 701.229 65.1973 701.635 64.376H703.602C703.336 65.1867 702.851 65.8533 702.147 66.376C701.453 66.888 700.589 67.144 699.555 67.144C698.712 67.144 697.955 66.9573 697.283 66.584C696.621 66.2 696.099 65.6667 695.715 64.984C695.341 64.2907 695.155 63.4907 695.155 62.584C695.155 61.6773 695.336 60.8827 695.699 60.2C696.072 59.5067 696.589 58.9733 697.251 58.6C697.923 58.2267 698.691 58.04 699.555 58.04C700.387 58.04 701.128 58.2213 701.779 58.584C702.429 58.9467 702.936 59.4587 703.299 60.12C703.661 60.7707 703.843 61.5227 703.843 62.376ZM701.939 61.8C701.928 61.128 701.688 60.5893 701.219 60.184C700.749 59.7787 700.168 59.576 699.475 59.576C698.845 59.576 698.307 59.7787 697.859 60.184C697.411 60.5787 697.144 61.1173 697.059 61.8H701.939Z" fill="#653EFF"/>
<line x1="112.5" y1="19.5" x2="331.5" y2="19.5" stroke="#653EFF" stroke-linecap="round" stroke-dasharray="2 4"/>
<line x1="372.5" y1="19.5" x2="591.5" y2="19.5" stroke="#9999A0" stroke-linecap="round" stroke-dasharray="2 4"/>
</svg>
