<svg width="705" height="72" viewBox="0 0 705 72" fill="none" xmlns="http://www.w3.org/2000/svg">
<rect x="73" y="0.5" width="39" height="39" rx="19.5" fill="#653EFF"/>
<rect x="73" y="0.5" width="39" height="39" rx="19.5" stroke="#653EFF"/>
<path d="M89.432 16.364V13.82H93.864V25.5H91.016V16.364H89.432Z" fill="white"/>
<path d="M37.832 55.88C41.4 55.88 43.736 58.04 43.736 61.48C43.736 64.904 41.4 67 37.832 67H34.2V55.88H37.832ZM36.024 65.512H37.832C40.456 65.512 41.864 64.008 41.864 61.48C41.864 58.936 40.456 57.368 37.832 57.368H36.024V65.512ZM53.9438 62.584C53.9438 65.352 51.8958 67.144 49.3678 67.144C46.8558 67.144 44.9518 65.352 44.9518 62.584C44.9518 59.816 46.9358 58.04 49.4478 58.04C51.9598 58.04 53.9438 59.816 53.9438 62.584ZM46.8078 62.584C46.8078 64.584 47.9918 65.56 49.3678 65.56C50.7278 65.56 52.0718 64.584 52.0718 62.584C52.0718 60.584 50.7758 59.624 49.4158 59.624C48.0398 59.624 46.8078 60.584 46.8078 62.584ZM57.4589 67L54.7069 58.184H56.5629L58.4029 65.272L60.2749 58.184H62.1789L63.9709 65.24L65.7949 58.184H67.5869L64.8509 67H62.9309L61.1549 60.488L59.3789 67H57.4589ZM75.206 67V62.072C75.206 60.456 74.326 59.624 72.998 59.624C71.654 59.624 70.774 60.456 70.774 62.072V67H68.95V58.184H70.774V59.192C71.366 58.472 72.342 58.04 73.398 58.04C75.462 58.04 77.014 59.336 77.014 61.8V67H75.206ZM79.3406 67V55.16H81.1646V67H79.3406ZM91.9594 62.584C91.9594 65.352 89.9114 67.144 87.3834 67.144C84.8714 67.144 82.9674 65.352 82.9674 62.584C82.9674 59.816 84.9514 58.04 87.4634 58.04C89.9754 58.04 91.9594 59.816 91.9594 62.584ZM84.8234 62.584C84.8234 64.584 86.0074 65.56 87.3834 65.56C88.7434 65.56 90.0874 64.584 90.0874 62.584C90.0874 60.584 88.7914 59.624 87.4314 59.624C86.0554 59.624 84.8234 60.584 84.8234 62.584ZM93.1545 62.552C93.1545 59.832 94.9945 58.04 97.3145 58.04C98.8025 58.04 99.8265 58.744 100.371 59.464V58.184H102.211V67H100.371V65.688C99.8105 66.44 98.7545 67.144 97.2825 67.144C94.9945 67.144 93.1545 65.272 93.1545 62.552ZM100.371 62.584C100.371 60.696 99.0745 59.624 97.6985 59.624C96.3385 59.624 95.0265 60.648 95.0265 62.552C95.0265 64.456 96.3385 65.56 97.6985 65.56C99.0745 65.56 100.371 64.488 100.371 62.584ZM103.998 62.552C103.998 59.832 105.838 58.04 108.174 58.04C109.326 58.04 110.542 58.584 111.214 59.416V55.16H113.054V67H111.214V65.672C110.654 66.472 109.598 67.144 108.158 67.144C105.838 67.144 103.998 65.272 103.998 62.552ZM111.214 62.584C111.214 60.696 109.918 59.624 108.542 59.624C107.182 59.624 105.87 60.648 105.87 62.552C105.87 64.456 107.182 65.56 108.542 65.56C109.918 65.56 111.214 64.488 111.214 62.584ZM127.11 67L126.31 64.728H121.654L120.854 67H118.95L122.934 55.864H125.046L129.03 67H127.11ZM125.798 63.24L123.99 58.072L122.166 63.24H125.798ZM132.587 59.48C133.147 58.744 134.219 58.04 135.659 58.04C137.979 58.04 139.803 59.832 139.803 62.552C139.803 65.272 137.979 67.144 135.659 67.144C134.203 67.144 133.163 66.408 132.587 65.72V71.192H130.763V58.184H132.587V59.48ZM137.947 62.552C137.947 60.648 136.635 59.624 135.259 59.624C133.899 59.624 132.587 60.696 132.587 62.584C132.587 64.488 133.899 65.56 135.259 65.56C136.635 65.56 137.947 64.456 137.947 62.552ZM143.43 59.48C143.99 58.744 145.062 58.04 146.502 58.04C148.822 58.04 150.646 59.832 150.646 62.552C150.646 65.272 148.822 67.144 146.502 67.144C145.046 67.144 144.006 66.408 143.43 65.72V71.192H141.606V58.184H143.43V59.48ZM148.79 62.552C148.79 60.648 147.478 59.624 146.102 59.624C144.742 59.624 143.43 60.696 143.43 62.584C143.43 64.488 144.742 65.56 146.102 65.56C147.478 65.56 148.79 64.456 148.79 62.552Z" fill="#653EFF"/>
<rect x="333" y="0.5" width="39" height="39" rx="19.5" stroke="#AFB8C7"/>
<path d="M348.554 25.34V23.308C351.034 21.26 353.674 19.228 353.674 17.26C353.674 16.412 353.29 15.868 352.458 15.868C351.642 15.868 351.162 16.508 351.162 17.612H348.522C348.602 14.78 350.442 13.564 352.57 13.564C355.226 13.564 356.41 15.116 356.41 17.084C356.41 19.644 354.122 21.692 352.266 23.116H356.586V25.34H348.554Z" fill="#AFB8C7"/>
<path d="M303.704 63.848C303.704 65.512 302.344 67.112 299.864 67.112C297.64 67.112 295.928 65.896 295.928 63.928H297.88C297.96 64.84 298.6 65.576 299.864 65.576C301.144 65.576 301.864 64.888 301.864 63.944C301.864 61.256 295.96 63 295.96 58.904C295.96 56.952 297.512 55.736 299.784 55.736C301.912 55.736 303.416 56.856 303.576 58.76H301.56C301.496 58.008 300.84 57.32 299.688 57.288C298.632 57.256 297.816 57.768 297.816 58.84C297.816 61.352 303.704 59.784 303.704 63.848ZM305.248 62.584C305.248 59.832 307.04 58.04 309.568 58.04C311.728 58.04 313.136 59.112 313.632 60.968H311.664C311.36 60.12 310.656 59.576 309.568 59.576C308.096 59.576 307.12 60.664 307.12 62.584C307.12 64.52 308.096 65.608 309.568 65.608C310.656 65.608 311.328 65.128 311.664 64.216H313.632C313.136 65.944 311.728 67.144 309.568 67.144C307.04 67.144 305.248 65.352 305.248 62.584ZM314.842 62.552C314.842 59.832 316.682 58.04 319.002 58.04C320.49 58.04 321.514 58.744 322.058 59.464V58.184H323.898V67H322.058V65.688C321.498 66.44 320.442 67.144 318.97 67.144C316.682 67.144 314.842 65.272 314.842 62.552ZM322.058 62.584C322.058 60.696 320.762 59.624 319.386 59.624C318.026 59.624 316.714 60.648 316.714 62.552C316.714 64.456 318.026 65.56 319.386 65.56C320.762 65.56 322.058 64.488 322.058 62.584ZM332.55 67V62.072C332.55 60.456 331.67 59.624 330.342 59.624C328.998 59.624 328.118 60.456 328.118 62.072V67H326.294V58.184H328.118V59.192C328.71 58.472 329.686 58.04 330.742 58.04C332.806 58.04 334.358 59.336 334.358 61.8V67H332.55ZM342.105 61.416C342.105 63.928 343.705 65.528 345.913 65.528C348.121 65.528 349.721 63.928 349.721 61.416C349.721 58.904 348.121 57.336 345.913 57.336C343.705 57.336 342.105 58.904 342.105 61.416ZM351.593 61.416C351.593 63.512 350.617 65.208 349.097 66.184L351.769 69.016H349.449L347.497 66.904C347.001 67.048 346.473 67.112 345.913 67.112C342.777 67.112 340.233 64.76 340.233 61.416C340.233 58.088 342.777 55.736 345.913 55.736C349.081 55.736 351.593 58.088 351.593 61.416ZM359.338 59.208C359.338 58.088 358.698 57.368 357.274 57.368H355.258V61.096H357.274C358.698 61.096 359.338 60.312 359.338 59.208ZM353.434 55.88H357.274C359.914 55.88 361.21 57.4 361.21 59.208C361.21 60.52 360.506 61.928 358.634 62.392L361.386 67H359.21L356.65 62.552H355.258V67H353.434V55.88ZM367.092 61.416C367.092 58.088 369.636 55.736 372.772 55.736C375.092 55.736 377.092 56.904 377.94 59.08H375.748C375.156 57.896 374.1 57.336 372.772 57.336C370.564 57.336 368.964 58.904 368.964 61.416C368.964 63.928 370.564 65.512 372.772 65.512C374.1 65.512 375.156 64.952 375.748 63.768H377.94C377.092 65.944 375.092 67.096 372.772 67.096C369.636 67.096 367.092 64.76 367.092 61.416ZM388.475 62.584C388.475 65.352 386.427 67.144 383.899 67.144C381.387 67.144 379.483 65.352 379.483 62.584C379.483 59.816 381.467 58.04 383.979 58.04C386.491 58.04 388.475 59.816 388.475 62.584ZM381.339 62.584C381.339 64.584 382.523 65.56 383.899 65.56C385.259 65.56 386.603 64.584 386.603 62.584C386.603 60.584 385.307 59.624 383.947 59.624C382.571 59.624 381.339 60.584 381.339 62.584ZM389.67 62.552C389.67 59.832 391.51 58.04 393.846 58.04C394.998 58.04 396.214 58.584 396.886 59.416V55.16H398.726V67H396.886V65.672C396.326 66.472 395.27 67.144 393.83 67.144C391.51 67.144 389.67 65.272 389.67 62.552ZM396.886 62.584C396.886 60.696 395.59 59.624 394.214 59.624C392.854 59.624 391.542 60.648 391.542 62.552C391.542 64.456 392.854 65.56 394.214 65.56C395.59 65.56 396.886 64.488 396.886 62.584ZM404.834 59.576C403.602 59.576 402.61 60.408 402.418 61.8H407.298C407.266 60.44 406.194 59.576 404.834 59.576ZM408.962 64.376C408.466 65.912 407.074 67.144 404.914 67.144C402.386 67.144 400.514 65.352 400.514 62.584C400.514 59.816 402.306 58.04 404.914 58.04C407.426 58.04 409.202 59.784 409.202 62.376C409.202 62.68 409.186 62.968 409.138 63.272H402.402C402.53 64.728 403.57 65.608 404.914 65.608C406.034 65.608 406.658 65.064 406.994 64.376H408.962Z" fill="#AFB8C7"/>
<rect x="593" y="0.5" width="39" height="39" rx="19.5" stroke="#AFB8C7"/>
<path d="M608.472 17.116C608.568 14.812 610.072 13.548 612.456 13.548C614.92 13.548 616.248 14.956 616.248 16.716C616.248 18.252 615.288 19.068 614.488 19.34V19.404C615.656 19.788 616.456 20.684 616.456 22.22C616.456 24.188 615.048 25.596 612.6 25.596C610.168 25.596 608.408 24.444 608.328 21.804H610.984C611 22.716 611.496 23.324 612.504 23.324C613.352 23.324 613.816 22.78 613.816 22.012C613.816 20.972 613.192 20.556 611.768 20.556H611.256V18.332H611.768C612.696 18.332 613.592 18.108 613.592 17.052C613.592 16.268 613.128 15.836 612.392 15.836C611.512 15.836 611.192 16.476 611.144 17.116H608.472Z" fill="#AFB8C7"/>
<path d="M527.344 55.864V57.352H523.024V60.616H526.864V62.104H523.024V65.512H527.344V67H521.2V55.864H527.344ZM535.847 67V62.072C535.847 60.456 534.967 59.624 533.639 59.624C532.295 59.624 531.415 60.456 531.415 62.072V67H529.591V58.184H531.415V59.192C532.007 58.472 532.983 58.04 534.039 58.04C536.103 58.04 537.655 59.336 537.655 61.8V67H535.847ZM540.269 64.552V59.672H539.229V58.184H540.269V55.992H542.109V58.184H544.253V59.672H542.109V64.552C542.109 65.208 542.365 65.48 543.133 65.48H544.253V67H542.813C541.245 67 540.269 66.344 540.269 64.552ZM549.646 59.576C548.414 59.576 547.422 60.408 547.23 61.8H552.11C552.078 60.44 551.006 59.576 549.646 59.576ZM553.774 64.376C553.278 65.912 551.886 67.144 549.726 67.144C547.198 67.144 545.326 65.352 545.326 62.584C545.326 59.816 547.118 58.04 549.726 58.04C552.238 58.04 554.014 59.784 554.014 62.376C554.014 62.68 553.998 62.968 553.95 63.272H547.214C547.342 64.728 548.382 65.608 549.726 65.608C550.846 65.608 551.47 65.064 551.806 64.376H553.774ZM557.633 62.36V67H555.809V58.184H557.633V59.464C558.145 58.584 559.025 58.04 560.273 58.04V59.928H559.809C558.465 59.928 557.633 60.488 557.633 62.36ZM570.458 65.128L573.77 55.88H575.69L571.514 67H569.402L565.21 55.88H567.162L570.458 65.128ZM580.928 59.576C579.696 59.576 578.704 60.408 578.512 61.8H583.392C583.36 60.44 582.288 59.576 580.928 59.576ZM585.056 64.376C584.56 65.912 583.168 67.144 581.008 67.144C578.48 67.144 576.608 65.352 576.608 62.584C576.608 59.816 578.4 58.04 581.008 58.04C583.52 58.04 585.296 59.784 585.296 62.376C585.296 62.68 585.28 62.968 585.232 63.272H578.496C578.624 64.728 579.664 65.608 581.008 65.608C582.128 65.608 582.752 65.064 583.088 64.376H585.056ZM588.915 62.36V67H587.091V58.184H588.915V59.464C589.427 58.584 590.307 58.04 591.555 58.04V59.928H591.091C589.747 59.928 588.915 60.488 588.915 62.36ZM593.231 67V58.184H595.055V67H593.231ZM594.159 57.016C593.503 57.016 592.991 56.504 592.991 55.848C592.991 55.192 593.503 54.68 594.159 54.68C594.799 54.68 595.311 55.192 595.311 55.848C595.311 56.504 594.799 57.016 594.159 57.016ZM597.674 67V59.672H596.634V58.184H597.674V57.56C597.674 55.528 598.714 54.648 601.018 54.648V56.168C599.898 56.168 599.514 56.552 599.514 57.56V58.184H601.146V59.672H599.514V67H597.674ZM602.763 67V58.184H604.587V67H602.763ZM603.691 57.016C603.035 57.016 602.523 56.504 602.523 55.848C602.523 55.192 603.035 54.68 603.691 54.68C604.331 54.68 604.843 55.192 604.843 55.848C604.843 56.504 604.331 57.016 603.691 57.016ZM606.373 62.584C606.373 59.832 608.165 58.04 610.693 58.04C612.853 58.04 614.261 59.112 614.757 60.968H612.789C612.485 60.12 611.781 59.576 610.693 59.576C609.221 59.576 608.245 60.664 608.245 62.584C608.245 64.52 609.221 65.608 610.693 65.608C611.781 65.608 612.453 65.128 612.789 64.216H614.757C614.261 65.944 612.853 67.144 610.693 67.144C608.165 67.144 606.373 65.352 606.373 62.584ZM615.967 62.552C615.967 59.832 617.807 58.04 620.127 58.04C621.615 58.04 622.639 58.744 623.183 59.464V58.184H625.023V67H623.183V65.688C622.623 66.44 621.567 67.144 620.095 67.144C617.807 67.144 615.967 65.272 615.967 62.552ZM623.183 62.584C623.183 60.696 621.887 59.624 620.511 59.624C619.151 59.624 617.839 60.648 617.839 62.552C617.839 64.456 619.151 65.56 620.511 65.56C621.887 65.56 623.183 64.488 623.183 62.584ZM627.707 64.552V59.672H626.667V58.184H627.707V55.992H629.547V58.184H631.691V59.672H629.547V64.552C629.547 65.208 629.803 65.48 630.571 65.48H631.691V67H630.251C628.683 67 627.707 66.344 627.707 64.552ZM633.372 67V58.184H635.196V67H633.372ZM634.3 57.016C633.644 57.016 633.132 56.504 633.132 55.848C633.132 55.192 633.644 54.68 634.3 54.68C634.94 54.68 635.452 55.192 635.452 55.848C635.452 56.504 634.94 57.016 634.3 57.016ZM645.991 62.584C645.991 65.352 643.943 67.144 641.415 67.144C638.903 67.144 636.999 65.352 636.999 62.584C636.999 59.816 638.983 58.04 641.495 58.04C644.007 58.04 645.991 59.816 645.991 62.584ZM638.855 62.584C638.855 64.584 640.039 65.56 641.415 65.56C642.775 65.56 644.119 64.584 644.119 62.584C644.119 60.584 642.823 59.624 641.463 59.624C640.087 59.624 638.855 60.584 638.855 62.584ZM654.05 67V62.072C654.05 60.456 653.17 59.624 651.842 59.624C650.498 59.624 649.618 60.456 649.618 62.072V67H647.794V58.184H649.618V59.192C650.21 58.472 651.186 58.04 652.242 58.04C654.306 58.04 655.858 59.336 655.858 61.8V67H654.05ZM661.733 61.416C661.733 58.088 664.277 55.736 667.413 55.736C669.733 55.736 671.733 56.904 672.581 59.08H670.389C669.797 57.896 668.741 57.336 667.413 57.336C665.205 57.336 663.605 58.904 663.605 61.416C663.605 63.928 665.205 65.512 667.413 65.512C668.741 65.512 669.797 64.952 670.389 63.768H672.581C671.733 65.944 669.733 67.096 667.413 67.096C664.277 67.096 661.733 64.76 661.733 61.416ZM683.116 62.584C683.116 65.352 681.068 67.144 678.54 67.144C676.028 67.144 674.124 65.352 674.124 62.584C674.124 59.816 676.108 58.04 678.62 58.04C681.132 58.04 683.116 59.816 683.116 62.584ZM675.98 62.584C675.98 64.584 677.164 65.56 678.54 65.56C679.9 65.56 681.244 64.584 681.244 62.584C681.244 60.584 679.948 59.624 678.588 59.624C677.212 59.624 675.98 60.584 675.98 62.584ZM684.311 62.552C684.311 59.832 686.151 58.04 688.487 58.04C689.639 58.04 690.855 58.584 691.527 59.416V55.16H693.367V67H691.527V65.672C690.967 66.472 689.911 67.144 688.471 67.144C686.151 67.144 684.311 65.272 684.311 62.552ZM691.527 62.584C691.527 60.696 690.231 59.624 688.855 59.624C687.495 59.624 686.183 60.648 686.183 62.552C686.183 64.456 687.495 65.56 688.855 65.56C690.231 65.56 691.527 64.488 691.527 62.584ZM699.475 59.576C698.243 59.576 697.251 60.408 697.059 61.8H701.939C701.907 60.44 700.835 59.576 699.475 59.576ZM703.602 64.376C703.107 65.912 701.715 67.144 699.555 67.144C697.027 67.144 695.155 65.352 695.155 62.584C695.155 59.816 696.947 58.04 699.555 58.04C702.067 58.04 703.843 59.784 703.843 62.376C703.843 62.68 703.827 62.968 703.779 63.272H697.043C697.171 64.728 698.211 65.608 699.555 65.608C700.675 65.608 701.299 65.064 701.635 64.376H703.602Z" fill="#AFB8C7"/>
<line x1="112.5" y1="19.5" x2="331.5" y2="19.5" stroke="#9999A0" stroke-linecap="round" stroke-dasharray="2 4"/>
<line x1="372.5" y1="19.5" x2="591.5" y2="19.5" stroke="#9999A0" stroke-linecap="round" stroke-dasharray="2 4"/>
</svg>
