<svg width="705" height="72" viewBox="0 0 705 72" fill="none" xmlns="http://www.w3.org/2000/svg">
<rect x="73" y="0.5" width="39" height="39" rx="19.5" fill="#653EFF"/>
<rect x="73" y="0.5" width="39" height="39" rx="19.5" stroke="#653EFF"/>
<path d="M99.1667 15L90 24.1667L85.8334 20" stroke="white" stroke-width="2" stroke-linecap="round" stroke-linejoin="round"/>
<path d="M37.832 55.88C41.4 55.88 43.736 58.04 43.736 61.48C43.736 64.904 41.4 67 37.832 67H34.2V55.88H37.832ZM36.024 65.512H37.832C40.456 65.512 41.864 64.008 41.864 61.48C41.864 58.936 40.456 57.368 37.832 57.368H36.024V65.512ZM53.9438 62.584C53.9438 65.352 51.8958 67.144 49.3678 67.144C46.8558 67.144 44.9518 65.352 44.9518 62.584C44.9518 59.816 46.9358 58.04 49.4478 58.04C51.9598 58.04 53.9438 59.816 53.9438 62.584ZM46.8078 62.584C46.8078 64.584 47.9918 65.56 49.3678 65.56C50.7278 65.56 52.0718 64.584 52.0718 62.584C52.0718 60.584 50.7758 59.624 49.4158 59.624C48.0398 59.624 46.8078 60.584 46.8078 62.584ZM57.4589 67L54.7069 58.184H56.5629L58.4029 65.272L60.2749 58.184H62.1789L63.9709 65.24L65.7949 58.184H67.5869L64.8509 67H62.9309L61.1549 60.488L59.3789 67H57.4589ZM75.206 67V62.072C75.206 60.456 74.326 59.624 72.998 59.624C71.654 59.624 70.774 60.456 70.774 62.072V67H68.95V58.184H70.774V59.192C71.366 58.472 72.342 58.04 73.398 58.04C75.462 58.04 77.014 59.336 77.014 61.8V67H75.206ZM79.3406 67V55.16H81.1646V67H79.3406ZM91.9594 62.584C91.9594 65.352 89.9114 67.144 87.3834 67.144C84.8714 67.144 82.9674 65.352 82.9674 62.584C82.9674 59.816 84.9514 58.04 87.4634 58.04C89.9754 58.04 91.9594 59.816 91.9594 62.584ZM84.8234 62.584C84.8234 64.584 86.0074 65.56 87.3834 65.56C88.7434 65.56 90.0874 64.584 90.0874 62.584C90.0874 60.584 88.7914 59.624 87.4314 59.624C86.0554 59.624 84.8234 60.584 84.8234 62.584ZM93.1545 62.552C93.1545 59.832 94.9945 58.04 97.3145 58.04C98.8025 58.04 99.8265 58.744 100.371 59.464V58.184H102.211V67H100.371V65.688C99.8105 66.44 98.7545 67.144 97.2825 67.144C94.9945 67.144 93.1545 65.272 93.1545 62.552ZM100.371 62.584C100.371 60.696 99.0745 59.624 97.6985 59.624C96.3385 59.624 95.0265 60.648 95.0265 62.552C95.0265 64.456 96.3385 65.56 97.6985 65.56C99.0745 65.56 100.371 64.488 100.371 62.584ZM103.998 62.552C103.998 59.832 105.838 58.04 108.174 58.04C109.326 58.04 110.542 58.584 111.214 59.416V55.16H113.054V67H111.214V65.672C110.654 66.472 109.598 67.144 108.158 67.144C105.838 67.144 103.998 65.272 103.998 62.552ZM111.214 62.584C111.214 60.696 109.918 59.624 108.542 59.624C107.182 59.624 105.87 60.648 105.87 62.552C105.87 64.456 107.182 65.56 108.542 65.56C109.918 65.56 111.214 64.488 111.214 62.584ZM127.11 67L126.31 64.728H121.654L120.854 67H118.95L122.934 55.864H125.046L129.03 67H127.11ZM125.798 63.24L123.99 58.072L122.166 63.24H125.798ZM132.587 59.48C133.147 58.744 134.219 58.04 135.659 58.04C137.979 58.04 139.803 59.832 139.803 62.552C139.803 65.272 137.979 67.144 135.659 67.144C134.203 67.144 133.163 66.408 132.587 65.72V71.192H130.763V58.184H132.587V59.48ZM137.947 62.552C137.947 60.648 136.635 59.624 135.259 59.624C133.899 59.624 132.587 60.696 132.587 62.584C132.587 64.488 133.899 65.56 135.259 65.56C136.635 65.56 137.947 64.456 137.947 62.552ZM143.43 59.48C143.99 58.744 145.062 58.04 146.502 58.04C148.822 58.04 150.646 59.832 150.646 62.552C150.646 65.272 148.822 67.144 146.502 67.144C145.046 67.144 144.006 66.408 143.43 65.72V71.192H141.606V58.184H143.43V59.48ZM148.79 62.552C148.79 60.648 147.478 59.624 146.102 59.624C144.742 59.624 143.43 60.696 143.43 62.584C143.43 64.488 144.742 65.56 146.102 65.56C147.478 65.56 148.79 64.456 148.79 62.552Z" fill="#653EFF"/>
<rect x="333" y="0.5" width="39" height="39" rx="19.5" fill="#F0ECFF"/>
<rect x="333" y="0.5" width="39" height="39" rx="19.5" stroke="#653EFF"/>
<path d="M348.554 23.308C348.916 23.02 349.082 22.8867 349.05 22.908C350.095 22.044 350.916 21.3347 351.514 20.78C352.122 20.2253 352.634 19.644 353.05 19.036C353.466 18.428 353.674 17.836 353.674 17.26C353.674 16.8227 353.572 16.4813 353.37 16.236C353.167 15.9907 352.863 15.868 352.458 15.868C352.052 15.868 351.732 16.0227 351.498 16.332C351.274 16.6307 351.162 17.0573 351.162 17.612H348.522C348.543 16.7053 348.735 15.948 349.098 15.34C349.471 14.732 349.956 14.284 350.554 13.996C351.162 13.708 351.834 13.564 352.57 13.564C353.839 13.564 354.794 13.8893 355.434 14.54C356.084 15.1907 356.41 16.0387 356.41 17.084C356.41 18.2253 356.02 19.2867 355.242 20.268C354.463 21.2387 353.471 22.188 352.266 23.116H356.586V25.34H348.554V23.308Z" fill="#653EFF"/>
<path d="M299.864 67.112C299.117 67.112 298.445 66.984 297.848 66.728C297.251 66.4613 296.781 66.088 296.44 65.608C296.099 65.128 295.928 64.568 295.928 63.928H297.88C297.923 64.408 298.109 64.8027 298.44 65.112C298.781 65.4213 299.256 65.576 299.864 65.576C300.493 65.576 300.984 65.4267 301.336 65.128C301.688 64.8187 301.864 64.424 301.864 63.944C301.864 63.5707 301.752 63.2667 301.528 63.032C301.315 62.7973 301.043 62.616 300.712 62.488C300.392 62.36 299.944 62.2213 299.368 62.072C298.643 61.88 298.051 61.688 297.592 61.496C297.144 61.2933 296.76 60.984 296.44 60.568C296.12 60.152 295.96 59.5973 295.96 58.904C295.96 58.264 296.12 57.704 296.44 57.224C296.76 56.744 297.208 56.376 297.784 56.12C298.36 55.864 299.027 55.736 299.784 55.736C300.861 55.736 301.741 56.008 302.424 56.552C303.117 57.0853 303.501 57.8213 303.576 58.76H301.56C301.528 58.3547 301.336 58.008 300.984 57.72C300.632 57.432 300.168 57.288 299.592 57.288C299.069 57.288 298.643 57.4213 298.312 57.688C297.981 57.9547 297.816 58.3387 297.816 58.84C297.816 59.1813 297.917 59.464 298.12 59.688C298.333 59.9013 298.6 60.072 298.92 60.2C299.24 60.328 299.677 60.4667 300.232 60.616C300.968 60.8187 301.565 61.0213 302.024 61.224C302.493 61.4267 302.888 61.7413 303.208 62.168C303.539 62.584 303.704 63.144 303.704 63.848C303.704 64.4133 303.549 64.9467 303.24 65.448C302.941 65.9493 302.499 66.3547 301.912 66.664C301.336 66.9627 300.653 67.112 299.864 67.112ZM305.248 62.584C305.248 61.6773 305.43 60.8827 305.792 60.2C306.166 59.5067 306.678 58.9733 307.328 58.6C307.979 58.2267 308.726 58.04 309.568 58.04C310.635 58.04 311.515 58.296 312.208 58.808C312.912 59.3093 313.387 60.0293 313.632 60.968H311.664C311.504 60.5307 311.248 60.1893 310.896 59.944C310.544 59.6987 310.102 59.576 309.568 59.576C308.822 59.576 308.224 59.8427 307.776 60.376C307.339 60.8987 307.12 61.6347 307.12 62.584C307.12 63.5333 307.339 64.2747 307.776 64.808C308.224 65.3413 308.822 65.608 309.568 65.608C310.624 65.608 311.323 65.144 311.664 64.216H313.632C313.376 65.112 312.896 65.8267 312.192 66.36C311.488 66.8827 310.614 67.144 309.568 67.144C308.726 67.144 307.979 66.9573 307.328 66.584C306.678 66.2 306.166 65.6667 305.792 64.984C305.43 64.2907 305.248 63.4907 305.248 62.584ZM314.842 62.552C314.842 61.6667 315.023 60.8827 315.386 60.2C315.759 59.5173 316.261 58.9893 316.89 58.616C317.53 58.232 318.234 58.04 319.002 58.04C319.695 58.04 320.298 58.1787 320.81 58.456C321.333 58.7227 321.749 59.0587 322.058 59.464V58.184H323.898V67H322.058V65.688C321.749 66.104 321.327 66.4507 320.794 66.728C320.261 67.0053 319.653 67.144 318.97 67.144C318.213 67.144 317.519 66.952 316.89 66.568C316.261 66.1733 315.759 65.6293 315.386 64.936C315.023 64.232 314.842 63.4373 314.842 62.552ZM322.058 62.584C322.058 61.976 321.93 61.448 321.674 61C321.429 60.552 321.103 60.2107 320.698 59.976C320.293 59.7413 319.855 59.624 319.386 59.624C318.917 59.624 318.479 59.7413 318.074 59.976C317.669 60.2 317.338 60.536 317.082 60.984C316.837 61.4213 316.714 61.944 316.714 62.552C316.714 63.16 316.837 63.6933 317.082 64.152C317.338 64.6107 317.669 64.9627 318.074 65.208C318.49 65.4427 318.927 65.56 319.386 65.56C319.855 65.56 320.293 65.4427 320.698 65.208C321.103 64.9733 321.429 64.632 321.674 64.184C321.93 63.7253 322.058 63.192 322.058 62.584ZM330.742 58.04C331.435 58.04 332.054 58.184 332.598 58.472C333.152 58.76 333.584 59.1867 333.894 59.752C334.203 60.3173 334.358 61 334.358 61.8V67H332.55V62.072C332.55 61.2827 332.352 60.68 331.958 60.264C331.563 59.8373 331.024 59.624 330.342 59.624C329.659 59.624 329.115 59.8373 328.71 60.264C328.315 60.68 328.118 61.2827 328.118 62.072V67H326.294V58.184H328.118V59.192C328.416 58.8293 328.795 58.5467 329.254 58.344C329.723 58.1413 330.219 58.04 330.742 58.04ZM349.449 69.016L347.497 66.904C347.017 67.0427 346.489 67.112 345.913 67.112C344.878 67.112 343.923 66.872 343.049 66.392C342.185 65.9013 341.497 65.224 340.985 64.36C340.483 63.4853 340.233 62.504 340.233 61.416C340.233 60.328 340.483 59.352 340.985 58.488C341.497 57.624 342.185 56.952 343.049 56.472C343.923 55.9813 344.878 55.736 345.913 55.736C346.958 55.736 347.913 55.9813 348.777 56.472C349.651 56.952 350.339 57.624 350.841 58.488C351.342 59.352 351.593 60.328 351.593 61.416C351.593 62.44 351.369 63.368 350.921 64.2C350.483 65.0213 349.875 65.6827 349.097 66.184L351.769 69.016H349.449ZM342.105 61.416C342.105 62.2373 342.265 62.9627 342.585 63.592C342.915 64.2107 343.369 64.6907 343.945 65.032C344.521 65.3627 345.177 65.528 345.913 65.528C346.649 65.528 347.305 65.3627 347.881 65.032C348.457 64.6907 348.905 64.2107 349.225 63.592C349.555 62.9627 349.721 62.2373 349.721 61.416C349.721 60.5947 349.555 59.8747 349.225 59.256C348.905 58.6373 348.457 58.1627 347.881 57.832C347.305 57.5013 346.649 57.336 345.913 57.336C345.177 57.336 344.521 57.5013 343.945 57.832C343.369 58.1627 342.915 58.6373 342.585 59.256C342.265 59.8747 342.105 60.5947 342.105 61.416ZM359.21 67L356.65 62.552H355.258V67H353.434V55.88H357.274C358.128 55.88 358.848 56.0293 359.434 56.328C360.032 56.6267 360.474 57.0267 360.762 57.528C361.061 58.0293 361.21 58.5893 361.21 59.208C361.21 59.9333 360.997 60.5947 360.57 61.192C360.154 61.7787 359.509 62.1787 358.634 62.392L361.386 67H359.21ZM355.258 61.096H357.274C357.957 61.096 358.469 60.9253 358.81 60.584C359.162 60.2427 359.338 59.784 359.338 59.208C359.338 58.632 359.168 58.184 358.826 57.864C358.485 57.5333 357.968 57.368 357.274 57.368H355.258V61.096ZM367.092 61.416C367.092 60.328 367.343 59.352 367.844 58.488C368.356 57.624 369.044 56.952 369.908 56.472C370.783 55.9813 371.737 55.736 372.772 55.736C373.956 55.736 375.007 56.0293 375.924 56.616C376.852 57.192 377.524 58.0133 377.94 59.08H375.748C375.46 58.4933 375.06 58.056 374.548 57.768C374.036 57.48 373.444 57.336 372.772 57.336C372.036 57.336 371.38 57.5013 370.804 57.832C370.228 58.1627 369.775 58.6373 369.444 59.256C369.124 59.8747 368.964 60.5947 368.964 61.416C368.964 62.2373 369.124 62.9573 369.444 63.576C369.775 64.1947 370.228 64.6747 370.804 65.016C371.38 65.3467 372.036 65.512 372.772 65.512C373.444 65.512 374.036 65.368 374.548 65.08C375.06 64.792 375.46 64.3547 375.748 63.768H377.94C377.524 64.8347 376.852 65.656 375.924 66.232C375.007 66.808 373.956 67.096 372.772 67.096C371.727 67.096 370.772 66.856 369.908 66.376C369.044 65.8853 368.356 65.208 367.844 64.344C367.343 63.48 367.092 62.504 367.092 61.416ZM383.899 67.144C383.067 67.144 382.315 66.9573 381.643 66.584C380.971 66.2 380.443 65.6667 380.059 64.984C379.675 64.2907 379.483 63.4907 379.483 62.584C379.483 61.688 379.68 60.8933 380.075 60.2C380.47 59.5067 381.008 58.9733 381.691 58.6C382.374 58.2267 383.136 58.04 383.979 58.04C384.822 58.04 385.584 58.2267 386.267 58.6C386.95 58.9733 387.488 59.5067 387.883 60.2C388.278 60.8933 388.475 61.688 388.475 62.584C388.475 63.48 388.272 64.2747 387.867 64.968C387.462 65.6613 386.907 66.2 386.203 66.584C385.51 66.9573 384.742 67.144 383.899 67.144ZM383.899 65.56C384.368 65.56 384.806 65.448 385.211 65.224C385.627 65 385.963 64.664 386.219 64.216C386.475 63.768 386.603 63.224 386.603 62.584C386.603 61.944 386.48 61.4053 386.235 60.968C385.99 60.52 385.664 60.184 385.259 59.96C384.854 59.736 384.416 59.624 383.947 59.624C383.478 59.624 383.04 59.736 382.635 59.96C382.24 60.184 381.926 60.52 381.691 60.968C381.456 61.4053 381.339 61.944 381.339 62.584C381.339 63.5333 381.579 64.2693 382.059 64.792C382.55 65.304 383.163 65.56 383.899 65.56ZM389.67 62.552C389.67 61.6667 389.851 60.8827 390.214 60.2C390.587 59.5173 391.089 58.9893 391.718 58.616C392.358 58.232 393.067 58.04 393.846 58.04C394.422 58.04 394.987 58.168 395.542 58.424C396.107 58.6693 396.555 59 396.886 59.416V55.16H398.726V67H396.886V65.672C396.587 66.0987 396.171 66.4507 395.638 66.728C395.115 67.0053 394.513 67.144 393.83 67.144C393.062 67.144 392.358 66.952 391.718 66.568C391.089 66.1733 390.587 65.6293 390.214 64.936C389.851 64.232 389.67 63.4373 389.67 62.552ZM396.886 62.584C396.886 61.976 396.758 61.448 396.502 61C396.257 60.552 395.931 60.2107 395.526 59.976C395.121 59.7413 394.683 59.624 394.214 59.624C393.745 59.624 393.307 59.7413 392.902 59.976C392.497 60.2 392.166 60.536 391.91 60.984C391.665 61.4213 391.542 61.944 391.542 62.552C391.542 63.16 391.665 63.6933 391.91 64.152C392.166 64.6107 392.497 64.9627 392.902 65.208C393.318 65.4427 393.755 65.56 394.214 65.56C394.683 65.56 395.121 65.4427 395.526 65.208C395.931 64.9733 396.257 64.632 396.502 64.184C396.758 63.7253 396.886 63.192 396.886 62.584ZM409.202 62.376C409.202 62.7067 409.181 63.0053 409.138 63.272H402.402C402.455 63.976 402.717 64.5413 403.186 64.968C403.655 65.3947 404.231 65.608 404.914 65.608C405.895 65.608 406.589 65.1973 406.994 64.376H408.962C408.695 65.1867 408.21 65.8533 407.506 66.376C406.813 66.888 405.949 67.144 404.914 67.144C404.071 67.144 403.314 66.9573 402.642 66.584C401.981 66.2 401.458 65.6667 401.074 64.984C400.701 64.2907 400.514 63.4907 400.514 62.584C400.514 61.6773 400.695 60.8827 401.058 60.2C401.431 59.5067 401.949 58.9733 402.61 58.6C403.282 58.2267 404.05 58.04 404.914 58.04C405.746 58.04 406.487 58.2213 407.138 58.584C407.789 58.9467 408.295 59.4587 408.658 60.12C409.021 60.7707 409.202 61.5227 409.202 62.376ZM407.298 61.8C407.287 61.128 407.047 60.5893 406.578 60.184C406.109 59.7787 405.527 59.576 404.834 59.576C404.205 59.576 403.666 59.7787 403.218 60.184C402.77 60.5787 402.503 61.1173 402.418 61.8H407.298Z" fill="#653EFF"/>
<rect x="593" y="0.5" width="39" height="39" rx="19.5" stroke="#AFB8C7"/>
<path d="M608.472 17.116C608.568 14.812 610.072 13.548 612.456 13.548C614.92 13.548 616.248 14.956 616.248 16.716C616.248 18.252 615.288 19.068 614.488 19.34V19.404C615.656 19.788 616.456 20.684 616.456 22.22C616.456 24.188 615.048 25.596 612.6 25.596C610.168 25.596 608.408 24.444 608.328 21.804H610.984C611 22.716 611.496 23.324 612.504 23.324C613.352 23.324 613.816 22.78 613.816 22.012C613.816 20.972 613.192 20.556 611.768 20.556H611.256V18.332H611.768C612.696 18.332 613.592 18.108 613.592 17.052C613.592 16.268 613.128 15.836 612.392 15.836C611.512 15.836 611.192 16.476 611.144 17.116H608.472Z" fill="#AFB8C7"/>
<path d="M527.344 55.864V57.352H523.024V60.616H526.864V62.104H523.024V65.512H527.344V67H521.2V55.864H527.344ZM535.847 67V62.072C535.847 60.456 534.967 59.624 533.639 59.624C532.295 59.624 531.415 60.456 531.415 62.072V67H529.591V58.184H531.415V59.192C532.007 58.472 532.983 58.04 534.039 58.04C536.103 58.04 537.655 59.336 537.655 61.8V67H535.847ZM540.269 64.552V59.672H539.229V58.184H540.269V55.992H542.109V58.184H544.253V59.672H542.109V64.552C542.109 65.208 542.365 65.48 543.133 65.48H544.253V67H542.813C541.245 67 540.269 66.344 540.269 64.552ZM549.646 59.576C548.414 59.576 547.422 60.408 547.23 61.8H552.11C552.078 60.44 551.006 59.576 549.646 59.576ZM553.774 64.376C553.278 65.912 551.886 67.144 549.726 67.144C547.198 67.144 545.326 65.352 545.326 62.584C545.326 59.816 547.118 58.04 549.726 58.04C552.238 58.04 554.014 59.784 554.014 62.376C554.014 62.68 553.998 62.968 553.95 63.272H547.214C547.342 64.728 548.382 65.608 549.726 65.608C550.846 65.608 551.47 65.064 551.806 64.376H553.774ZM557.633 62.36V67H555.809V58.184H557.633V59.464C558.145 58.584 559.025 58.04 560.273 58.04V59.928H559.809C558.465 59.928 557.633 60.488 557.633 62.36ZM570.458 65.128L573.77 55.88H575.69L571.514 67H569.402L565.21 55.88H567.162L570.458 65.128ZM580.928 59.576C579.696 59.576 578.704 60.408 578.512 61.8H583.392C583.36 60.44 582.288 59.576 580.928 59.576ZM585.056 64.376C584.56 65.912 583.168 67.144 581.008 67.144C578.48 67.144 576.608 65.352 576.608 62.584C576.608 59.816 578.4 58.04 581.008 58.04C583.52 58.04 585.296 59.784 585.296 62.376C585.296 62.68 585.28 62.968 585.232 63.272H578.496C578.624 64.728 579.664 65.608 581.008 65.608C582.128 65.608 582.752 65.064 583.088 64.376H585.056ZM588.915 62.36V67H587.091V58.184H588.915V59.464C589.427 58.584 590.307 58.04 591.555 58.04V59.928H591.091C589.747 59.928 588.915 60.488 588.915 62.36ZM593.231 67V58.184H595.055V67H593.231ZM594.159 57.016C593.503 57.016 592.991 56.504 592.991 55.848C592.991 55.192 593.503 54.68 594.159 54.68C594.799 54.68 595.311 55.192 595.311 55.848C595.311 56.504 594.799 57.016 594.159 57.016ZM597.674 67V59.672H596.634V58.184H597.674V57.56C597.674 55.528 598.714 54.648 601.018 54.648V56.168C599.898 56.168 599.514 56.552 599.514 57.56V58.184H601.146V59.672H599.514V67H597.674ZM602.763 67V58.184H604.587V67H602.763ZM603.691 57.016C603.035 57.016 602.523 56.504 602.523 55.848C602.523 55.192 603.035 54.68 603.691 54.68C604.331 54.68 604.843 55.192 604.843 55.848C604.843 56.504 604.331 57.016 603.691 57.016ZM606.373 62.584C606.373 59.832 608.165 58.04 610.693 58.04C612.853 58.04 614.261 59.112 614.757 60.968H612.789C612.485 60.12 611.781 59.576 610.693 59.576C609.221 59.576 608.245 60.664 608.245 62.584C608.245 64.52 609.221 65.608 610.693 65.608C611.781 65.608 612.453 65.128 612.789 64.216H614.757C614.261 65.944 612.853 67.144 610.693 67.144C608.165 67.144 606.373 65.352 606.373 62.584ZM615.967 62.552C615.967 59.832 617.807 58.04 620.127 58.04C621.615 58.04 622.639 58.744 623.183 59.464V58.184H625.023V67H623.183V65.688C622.623 66.44 621.567 67.144 620.095 67.144C617.807 67.144 615.967 65.272 615.967 62.552ZM623.183 62.584C623.183 60.696 621.887 59.624 620.511 59.624C619.151 59.624 617.839 60.648 617.839 62.552C617.839 64.456 619.151 65.56 620.511 65.56C621.887 65.56 623.183 64.488 623.183 62.584ZM627.707 64.552V59.672H626.667V58.184H627.707V55.992H629.547V58.184H631.691V59.672H629.547V64.552C629.547 65.208 629.803 65.48 630.571 65.48H631.691V67H630.251C628.683 67 627.707 66.344 627.707 64.552ZM633.372 67V58.184H635.196V67H633.372ZM634.3 57.016C633.644 57.016 633.132 56.504 633.132 55.848C633.132 55.192 633.644 54.68 634.3 54.68C634.94 54.68 635.452 55.192 635.452 55.848C635.452 56.504 634.94 57.016 634.3 57.016ZM645.991 62.584C645.991 65.352 643.943 67.144 641.415 67.144C638.903 67.144 636.999 65.352 636.999 62.584C636.999 59.816 638.983 58.04 641.495 58.04C644.007 58.04 645.991 59.816 645.991 62.584ZM638.855 62.584C638.855 64.584 640.039 65.56 641.415 65.56C642.775 65.56 644.119 64.584 644.119 62.584C644.119 60.584 642.823 59.624 641.463 59.624C640.087 59.624 638.855 60.584 638.855 62.584ZM654.05 67V62.072C654.05 60.456 653.17 59.624 651.842 59.624C650.498 59.624 649.618 60.456 649.618 62.072V67H647.794V58.184H649.618V59.192C650.21 58.472 651.186 58.04 652.242 58.04C654.306 58.04 655.858 59.336 655.858 61.8V67H654.05ZM661.733 61.416C661.733 58.088 664.277 55.736 667.413 55.736C669.733 55.736 671.733 56.904 672.581 59.08H670.389C669.797 57.896 668.741 57.336 667.413 57.336C665.205 57.336 663.605 58.904 663.605 61.416C663.605 63.928 665.205 65.512 667.413 65.512C668.741 65.512 669.797 64.952 670.389 63.768H672.581C671.733 65.944 669.733 67.096 667.413 67.096C664.277 67.096 661.733 64.76 661.733 61.416ZM683.116 62.584C683.116 65.352 681.068 67.144 678.54 67.144C676.028 67.144 674.124 65.352 674.124 62.584C674.124 59.816 676.108 58.04 678.62 58.04C681.132 58.04 683.116 59.816 683.116 62.584ZM675.98 62.584C675.98 64.584 677.164 65.56 678.54 65.56C679.9 65.56 681.244 64.584 681.244 62.584C681.244 60.584 679.948 59.624 678.588 59.624C677.212 59.624 675.98 60.584 675.98 62.584ZM684.311 62.552C684.311 59.832 686.151 58.04 688.487 58.04C689.639 58.04 690.855 58.584 691.527 59.416V55.16H693.367V67H691.527V65.672C690.967 66.472 689.911 67.144 688.471 67.144C686.151 67.144 684.311 65.272 684.311 62.552ZM691.527 62.584C691.527 60.696 690.231 59.624 688.855 59.624C687.495 59.624 686.183 60.648 686.183 62.552C686.183 64.456 687.495 65.56 688.855 65.56C690.231 65.56 691.527 64.488 691.527 62.584ZM699.475 59.576C698.243 59.576 697.251 60.408 697.059 61.8H701.939C701.907 60.44 700.835 59.576 699.475 59.576ZM703.602 64.376C703.107 65.912 701.715 67.144 699.555 67.144C697.027 67.144 695.155 65.352 695.155 62.584C695.155 59.816 696.947 58.04 699.555 58.04C702.067 58.04 703.843 59.784 703.843 62.376C703.843 62.68 703.827 62.968 703.779 63.272H697.043C697.171 64.728 698.211 65.608 699.555 65.608C700.675 65.608 701.299 65.064 701.635 64.376H703.602Z" fill="#AFB8C7"/>
<line x1="112.5" y1="19.5" x2="331.5" y2="19.5" stroke="#653EFF" stroke-linecap="round" stroke-dasharray="2 4"/>
<line x1="372.5" y1="19.5" x2="591.5" y2="19.5" stroke="#9999A0" stroke-linecap="round" stroke-dasharray="2 4"/>
</svg>
