<svg xmlns="http://www.w3.org/2000/svg" width="16" height="16" viewBox="0 0 16 16" fill="none">
<circle cx="8" cy="8" r="8" fill="white"/>
<path fill-rule="evenodd" clip-rule="evenodd" d="M8.50005 8C8.50005 8.2765 8.27605 8.5 8.00005 8.5C7.72405 8.5 7.50005 8.2765 7.50005 8V3C7.50005 2.7235 7.72405 2.5 8.00005 2.5C8.27605 2.5 8.50005 2.7235 8.50005 3V8ZM9.6195 3.77065C9.746 3.52515 10.048 3.42965 10.293 3.55565C11.9625 4.41915 13 6.12165 13 8.00015C13 10.7566 10.757 13.0001 8 13.0001C5.243 13.0001 3 10.7566 3 8.00015C3 6.12165 4.0375 4.41915 5.7075 3.55565C5.952 3.42915 6.254 3.52465 6.381 3.77065C6.508 4.01565 6.4115 4.31715 6.1665 4.44415C4.83 5.13465 4 6.49715 4 8.00015C4 10.2057 5.7945 12.0001 8 12.0001C10.2055 12.0001 12 10.2057 12 8.00015C12 6.49715 11.17 5.13465 9.834 4.44415C9.5885 4.31715 9.4925 4.01565 9.6195 3.77065Z" fill="#231F20"/>
<mask id="mask0_2943_160548" style="mask-type:luminance" maskUnits="userSpaceOnUse" x="3" y="2" width="10" height="11">
<path fill-rule="evenodd" clip-rule="evenodd" d="M8.50005 8C8.50005 8.2765 8.27605 8.5 8.00005 8.5C7.72405 8.5 7.50005 8.2765 7.50005 8V3C7.50005 2.7235 7.72405 2.5 8.00005 2.5C8.27605 2.5 8.50005 2.7235 8.50005 3V8ZM9.6195 3.77065C9.746 3.52515 10.048 3.42965 10.293 3.55565C11.9625 4.41915 13 6.12165 13 8.00015C13 10.7566 10.757 13.0001 8 13.0001C5.243 13.0001 3 10.7566 3 8.00015C3 6.12165 4.0375 4.41915 5.7075 3.55565C5.952 3.42915 6.254 3.52465 6.381 3.77065C6.508 4.01565 6.4115 4.31715 6.1665 4.44415C4.83 5.13465 4 6.49715 4 8.00015C4 10.2057 5.7945 12.0001 8 12.0001C10.2055 12.0001 12 10.2057 12 8.00015C12 6.49715 11.17 5.13465 9.834 4.44415C9.5885 4.31715 9.4925 4.01565 9.6195 3.77065Z" fill="white"/>
</mask>
<g mask="url(#mask0_2943_160548)">
<rect x="2" y="2" width="12" height="12" fill="#42BA7B"/>
</g>
</svg>