<svg width="16" height="16" viewBox="0 0 16 16" fill="none" xmlns="http://www.w3.org/2000/svg">
<path fill-rule="evenodd" clip-rule="evenodd" d="M14.4552 6.88403C14.4504 6.89462 14.4455 6.90522 14.441 6.916C14.4364 6.92717 14.4328 6.93882 14.4292 6.95044C14.4234 6.96934 14.4176 6.98815 14.4077 7.00467C14.3879 7.03735 14.3622 7.06479 14.3363 7.09231C14.329 7.10016 14.3216 7.10801 14.3143 7.116C14.3063 7.12434 14.2991 7.1335 14.292 7.14265C14.282 7.15542 14.2721 7.16818 14.2597 7.17867C14.2223 7.20916 14.1792 7.23036 14.1362 7.25148C14.1331 7.25299 14.1301 7.25449 14.127 7.256C14.1179 7.26041 14.1093 7.26595 14.1006 7.27151C14.0883 7.2794 14.076 7.2873 14.0623 7.292C13.9903 7.31867 13.9137 7.33333 13.8343 7.33333C13.7983 7.33333 13.761 7.33067 13.7243 7.324L10.891 6.854C10.5277 6.794 10.2823 6.45067 10.3423 6.08733C10.4023 5.72467 10.745 5.476 11.109 5.53933L12.205 5.72067C11.375 4.26333 9.79033 3.33333 8.04633 3.33333C6.07366 3.33333 4.33566 4.47867 3.61766 6.25C3.513 6.51 3.263 6.66667 2.99966 6.66667C2.91633 6.66667 2.83166 6.65133 2.74966 6.618C2.40833 6.48 2.24366 6.09133 2.38233 5.75C3.305 3.472 5.52833 2 8.04633 2C10.321 2 12.3883 3.24667 13.4317 5.192L13.6777 3.87667C13.7457 3.51533 14.095 3.276 14.4557 3.34533C14.8177 3.41267 15.0563 3.76133 14.9883 4.12333L14.489 6.79C14.4826 6.824 14.4689 6.854 14.4552 6.88403ZM12.3823 9.75013C12.5203 9.40813 12.9096 9.24413 13.2503 9.38213C13.5916 9.52013 13.7563 9.9088 13.6176 10.2501C12.6949 12.5281 10.4716 14.0001 7.9536 14.0001C5.67893 14.0001 3.6116 12.7535 2.56826 10.8081L2.3216 12.1228C2.26226 12.4435 1.98226 12.6668 1.66693 12.6668C1.62626 12.6668 1.58493 12.6628 1.5436 12.6548C1.1816 12.5875 0.943596 12.2388 1.0116 11.8768L1.51093 9.21013C1.516 9.18395 1.52722 9.16071 1.53849 9.13736C1.54501 9.12385 1.55155 9.11031 1.55693 9.09613C1.5622 9.08285 1.5668 9.0691 1.57142 9.05533C1.58139 9.02555 1.5914 8.99566 1.60826 8.97013C1.6181 8.95497 1.63097 8.94282 1.64391 8.9306C1.65202 8.92295 1.66015 8.91527 1.6676 8.9068C1.67347 8.9 1.67927 8.89316 1.68507 8.88632C1.7168 8.84892 1.74824 8.81186 1.78826 8.7848C1.79219 8.78194 1.79689 8.78023 1.80153 8.77854C1.80555 8.77708 1.80953 8.77563 1.81293 8.77347C1.8776 8.73147 1.94693 8.6988 2.0236 8.68213C2.02827 8.68106 2.03313 8.68133 2.03798 8.68161C2.04213 8.68185 2.04627 8.68208 2.05026 8.68147C2.1236 8.66947 2.1976 8.66213 2.2756 8.67547L5.10893 9.14613C5.47226 9.20547 5.7176 9.54947 5.6576 9.9128C5.6036 10.2388 5.32093 10.4701 5.00026 10.4701C4.96426 10.4701 4.9276 10.4675 4.89093 10.4608L3.79493 10.2795C4.62493 11.7368 6.2096 12.6668 7.9536 12.6668C9.92626 12.6668 11.6643 11.5215 12.3823 9.75013Z" fill="#231F20"/>
<mask id="mask0_8_2156" style="mask-type:luminance" maskUnits="userSpaceOnUse" x="1" y="2" width="14" height="12">
<path fill-rule="evenodd" clip-rule="evenodd" d="M14.4552 6.88403C14.4504 6.89462 14.4455 6.90522 14.441 6.916C14.4364 6.92717 14.4328 6.93882 14.4292 6.95044C14.4234 6.96934 14.4176 6.98815 14.4077 7.00467C14.3879 7.03735 14.3622 7.06479 14.3363 7.09231C14.329 7.10016 14.3216 7.10801 14.3143 7.116C14.3063 7.12434 14.2991 7.1335 14.292 7.14265C14.282 7.15542 14.2721 7.16818 14.2597 7.17867C14.2223 7.20916 14.1792 7.23036 14.1362 7.25148C14.1331 7.25299 14.1301 7.25449 14.127 7.256C14.1179 7.26041 14.1093 7.26595 14.1006 7.27151C14.0883 7.2794 14.076 7.2873 14.0623 7.292C13.9903 7.31867 13.9137 7.33333 13.8343 7.33333C13.7983 7.33333 13.761 7.33067 13.7243 7.324L10.891 6.854C10.5277 6.794 10.2823 6.45067 10.3423 6.08733C10.4023 5.72467 10.745 5.476 11.109 5.53933L12.205 5.72067C11.375 4.26333 9.79033 3.33333 8.04633 3.33333C6.07366 3.33333 4.33566 4.47867 3.61766 6.25C3.513 6.51 3.263 6.66667 2.99966 6.66667C2.91633 6.66667 2.83166 6.65133 2.74966 6.618C2.40833 6.48 2.24366 6.09133 2.38233 5.75C3.305 3.472 5.52833 2 8.04633 2C10.321 2 12.3883 3.24667 13.4317 5.192L13.6777 3.87667C13.7457 3.51533 14.095 3.276 14.4557 3.34533C14.8177 3.41267 15.0563 3.76133 14.9883 4.12333L14.489 6.79C14.4826 6.824 14.4689 6.854 14.4552 6.88403ZM12.3823 9.75013C12.5203 9.40813 12.9096 9.24413 13.2503 9.38213C13.5916 9.52013 13.7563 9.9088 13.6176 10.2501C12.6949 12.5281 10.4716 14.0001 7.9536 14.0001C5.67893 14.0001 3.6116 12.7535 2.56826 10.8081L2.3216 12.1228C2.26226 12.4435 1.98226 12.6668 1.66693 12.6668C1.62626 12.6668 1.58493 12.6628 1.5436 12.6548C1.1816 12.5875 0.943596 12.2388 1.0116 11.8768L1.51093 9.21013C1.516 9.18395 1.52722 9.16071 1.53849 9.13736C1.54501 9.12385 1.55155 9.11031 1.55693 9.09613C1.5622 9.08285 1.5668 9.0691 1.57142 9.05533C1.58139 9.02555 1.5914 8.99566 1.60826 8.97013C1.6181 8.95497 1.63097 8.94282 1.64391 8.9306C1.65202 8.92295 1.66015 8.91527 1.6676 8.9068C1.67347 8.9 1.67927 8.89316 1.68507 8.88632C1.7168 8.84892 1.74824 8.81186 1.78826 8.7848C1.79219 8.78194 1.79689 8.78023 1.80153 8.77854C1.80555 8.77708 1.80953 8.77563 1.81293 8.77347C1.8776 8.73147 1.94693 8.6988 2.0236 8.68213C2.02827 8.68106 2.03313 8.68133 2.03798 8.68161C2.04213 8.68185 2.04627 8.68208 2.05026 8.68147C2.1236 8.66947 2.1976 8.66213 2.2756 8.67547L5.10893 9.14613C5.47226 9.20547 5.7176 9.54947 5.6576 9.9128C5.6036 10.2388 5.32093 10.4701 5.00026 10.4701C4.96426 10.4701 4.9276 10.4675 4.89093 10.4608L3.79493 10.2795C4.62493 11.7368 6.2096 12.6668 7.9536 12.6668C9.92626 12.6668 11.6643 11.5215 12.3823 9.75013Z" fill="white"/>
</mask>
<g mask="url(#mask0_8_2156)">
<rect width="16" height="16" fill="#40BB7B"/>
</g>
</svg>
