<svg width="16" height="16" viewBox="0 0 16 16" fill="none" xmlns="http://www.w3.org/2000/svg">
<g opacity="0.3">
<path fill-rule="evenodd" clip-rule="evenodd" d="M2.46442 8.95067C2.81509 8.83933 3.18975 9.03333 3.30175 9.384C3.92642 11.348 5.76509 12.6667 7.87709 12.6667C10.5184 12.6667 12.6664 10.5733 12.6664 8C12.6664 5.42733 10.5184 3.33333 7.87709 3.33333C6.72509 3.33333 5.63842 3.73467 4.78042 4.44667L6.22442 4.20867C6.59109 4.142 6.93109 4.39467 6.99109 4.75733C7.05109 5.12067 6.80509 5.464 6.44176 5.52333L3.61109 5.99133C3.57442 5.99733 3.53709 6 3.50176 6C3.42242 6 3.34509 5.986 3.27309 5.95933C3.24842 5.95 3.22842 5.93267 3.20442 5.92C3.16042 5.89733 3.11442 5.87733 3.07642 5.84533C3.05242 5.826 3.03709 5.798 3.01642 5.77533C2.98509 5.74267 2.95176 5.71133 2.92842 5.67133C2.91176 5.64267 2.90509 5.60867 2.89242 5.57667C2.87642 5.53733 2.85509 5.50067 2.84709 5.45733L2.34442 2.79067C2.27642 2.42867 2.51442 2.07933 2.87642 2.012C3.23709 1.94667 3.58709 2.182 3.65509 2.54333L3.83642 3.504C4.94576 2.54333 6.36776 2 7.87709 2C11.2531 2 13.9998 4.69133 13.9998 8C13.9998 11.3087 11.2531 14 7.87709 14C5.18242 14 2.83309 12.3073 2.03109 9.788C1.91976 9.43733 2.11376 9.06267 2.46442 8.95067" fill="#231F20"/>
<mask id="mask0_8_2148" style="mask-type:luminance" maskUnits="userSpaceOnUse" x="1" y="2" width="13" height="12">
<path fill-rule="evenodd" clip-rule="evenodd" d="M2.46442 8.95067C2.81509 8.83933 3.18975 9.03333 3.30175 9.384C3.92642 11.348 5.76509 12.6667 7.87709 12.6667C10.5184 12.6667 12.6664 10.5733 12.6664 8C12.6664 5.42733 10.5184 3.33333 7.87709 3.33333C6.72509 3.33333 5.63842 3.73467 4.78042 4.44667L6.22442 4.20867C6.59109 4.142 6.93109 4.39467 6.99109 4.75733C7.05109 5.12067 6.80509 5.464 6.44176 5.52333L3.61109 5.99133C3.57442 5.99733 3.53709 6 3.50176 6C3.42242 6 3.34509 5.986 3.27309 5.95933C3.24842 5.95 3.22842 5.93267 3.20442 5.92C3.16042 5.89733 3.11442 5.87733 3.07642 5.84533C3.05242 5.826 3.03709 5.798 3.01642 5.77533C2.98509 5.74267 2.95176 5.71133 2.92842 5.67133C2.91176 5.64267 2.90509 5.60867 2.89242 5.57667C2.87642 5.53733 2.85509 5.50067 2.84709 5.45733L2.34442 2.79067C2.27642 2.42867 2.51442 2.07933 2.87642 2.012C3.23709 1.94667 3.58709 2.182 3.65509 2.54333L3.83642 3.504C4.94576 2.54333 6.36776 2 7.87709 2C11.2531 2 13.9998 4.69133 13.9998 8C13.9998 11.3087 11.2531 14 7.87709 14C5.18242 14 2.83309 12.3073 2.03109 9.788C1.91976 9.43733 2.11376 9.06267 2.46442 8.95067" fill="white"/>
</mask>
<g mask="url(#mask0_8_2148)">
<rect width="16" height="16" transform="matrix(-1 0 0 1 16 0)" fill="white"/>
</g>
</g>
</svg>
