<svg width="20" height="21" viewBox="0 0 20 21" fill="none" xmlns="http://www.w3.org/2000/svg">
<path fill-rule="evenodd" clip-rule="evenodd" d="M10.3706 13.9154C10.4982 13.9154 10.6258 13.947 10.7422 14.0095L13.7665 15.6512L13.1912 12.187C13.1455 11.9154 13.2329 11.6387 13.4239 11.4462L15.8601 8.99953L12.4875 8.48953C12.2267 8.45036 12.0012 8.2812 11.884 8.0362L10.3706 4.87453L8.85726 8.0362C8.7401 8.2812 8.51462 8.45036 8.25383 8.48953L4.8812 8.99953L7.31739 11.4462C7.50837 11.6387 7.59583 11.9154 7.5501 12.187L6.97475 15.6512L9.99912 14.0095C10.1155 13.947 10.2431 13.9154 10.3706 13.9154ZM14.8338 18.0029C14.7062 18.0029 14.5786 17.972 14.4623 17.9087L10.3706 15.6887L6.27904 17.9087C6.00782 18.0554 5.68043 18.0295 5.43568 17.8429C5.18853 17.6562 5.06576 17.3404 5.11712 17.0279L5.89708 12.3379L2.59106 9.01703C2.37039 8.7962 2.29175 8.46453 2.38564 8.16203C2.47872 7.85953 2.73068 7.63953 3.0332 7.5937L7.60787 6.9037L9.65167 2.63203C9.92289 2.06536 10.8184 2.06536 11.0896 2.63203L13.1334 6.9037L17.7081 7.5937C18.0106 7.63953 18.2626 7.85953 18.3557 8.16203C18.4495 8.46453 18.3709 8.7962 18.1502 9.01703L14.8442 12.3379L15.6242 17.0279C15.6755 17.3404 15.5528 17.6562 15.3056 17.8429C15.1668 17.9495 15.0007 18.0029 14.8338 18.0029Z" fill="#6A6A75"/>
<mask id="mask0_14_99222" style="mask-type:luminance" maskUnits="userSpaceOnUse" x="2" y="2" width="17" height="17">
<path fill-rule="evenodd" clip-rule="evenodd" d="M10.3706 13.9154C10.4982 13.9154 10.6258 13.947 10.7422 14.0095L13.7665 15.6512L13.1912 12.187C13.1455 11.9154 13.2329 11.6387 13.4239 11.4462L15.8601 8.99953L12.4875 8.48953C12.2267 8.45036 12.0012 8.2812 11.884 8.0362L10.3706 4.87453L8.85726 8.0362C8.7401 8.2812 8.51462 8.45036 8.25383 8.48953L4.8812 8.99953L7.31739 11.4462C7.50837 11.6387 7.59583 11.9154 7.5501 12.187L6.97475 15.6512L9.99912 14.0095C10.1155 13.947 10.2431 13.9154 10.3706 13.9154ZM14.8338 18.0029C14.7062 18.0029 14.5786 17.972 14.4623 17.9087L10.3706 15.6887L6.27904 17.9087C6.00782 18.0554 5.68043 18.0295 5.43568 17.8429C5.18853 17.6562 5.06576 17.3404 5.11712 17.0279L5.89708 12.3379L2.59106 9.01703C2.37039 8.7962 2.29175 8.46453 2.38564 8.16203C2.47872 7.85953 2.73068 7.63953 3.0332 7.5937L7.60787 6.9037L9.65167 2.63203C9.92289 2.06536 10.8184 2.06536 11.0896 2.63203L13.1334 6.9037L17.7081 7.5937C18.0106 7.63953 18.2626 7.85953 18.3557 8.16203C18.4495 8.46453 18.3709 8.7962 18.1502 9.01703L14.8442 12.3379L15.6242 17.0279C15.6755 17.3404 15.5528 17.6562 15.3056 17.8429C15.1668 17.9495 15.0007 18.0029 14.8338 18.0029Z" fill="white"/>
</mask>
<g mask="url(#mask0_14_99222)">
<rect x="0.741699" y="0.539062" width="19.2584" height="20" fill="#6A6A75"/>
</g>
</svg>
