<svg width="16" height="16" viewBox="0 0 16 16" fill="none" xmlns="http://www.w3.org/2000/svg">
<g opacity="0.7">
<path fill-rule="evenodd" clip-rule="evenodd" d="M13.5356 8.95067C13.1849 8.83933 12.8102 9.03333 12.6982 9.384C12.0736 11.348 10.2349 12.6667 8.12291 12.6667C5.48158 12.6667 3.33358 10.5733 3.33358 8C3.33358 5.42733 5.48158 3.33333 8.12291 3.33333C9.27491 3.33333 10.3616 3.73467 11.2196 4.44667L9.77558 4.20867C9.40891 4.142 9.06891 4.39467 9.00891 4.75733C8.94891 5.12067 9.19491 5.464 9.55824 5.52333L12.3889 5.99133C12.4256 5.99733 12.4629 6 12.4982 6C12.5776 6 12.6549 5.986 12.7269 5.95933C12.7516 5.95 12.7716 5.93267 12.7956 5.92C12.8396 5.89733 12.8856 5.87733 12.9236 5.84533C12.9476 5.826 12.9629 5.798 12.9836 5.77533C13.0149 5.74267 13.0482 5.71133 13.0716 5.67133C13.0882 5.64267 13.0949 5.60867 13.1076 5.57667C13.1236 5.53733 13.1449 5.50067 13.1529 5.45733L13.6556 2.79067C13.7236 2.42867 13.4856 2.07933 13.1236 2.012C12.7629 1.94667 12.4129 2.182 12.3449 2.54333L12.1636 3.504C11.0542 2.54333 9.63224 2 8.12291 2C4.74691 2 2.00024 4.69133 2.00024 8C2.00024 11.3087 4.74691 14 8.12291 14C10.8176 14 13.1669 12.3073 13.9689 9.788C14.0802 9.43733 13.8862 9.06267 13.5356 8.95067Z" fill="#231F20"/>
<mask id="mask0_8_2152" style="mask-type:luminance" maskUnits="userSpaceOnUse" x="2" y="2" width="13" height="12">
<path fill-rule="evenodd" clip-rule="evenodd" d="M13.5356 8.95067C13.1849 8.83933 12.8102 9.03333 12.6982 9.384C12.0736 11.348 10.2349 12.6667 8.12291 12.6667C5.48158 12.6667 3.33358 10.5733 3.33358 8C3.33358 5.42733 5.48158 3.33333 8.12291 3.33333C9.27491 3.33333 10.3616 3.73467 11.2196 4.44667L9.77558 4.20867C9.40891 4.142 9.06891 4.39467 9.00891 4.75733C8.94891 5.12067 9.19491 5.464 9.55824 5.52333L12.3889 5.99133C12.4256 5.99733 12.4629 6 12.4982 6C12.5776 6 12.6549 5.986 12.7269 5.95933C12.7516 5.95 12.7716 5.93267 12.7956 5.92C12.8396 5.89733 12.8856 5.87733 12.9236 5.84533C12.9476 5.826 12.9629 5.798 12.9836 5.77533C13.0149 5.74267 13.0482 5.71133 13.0716 5.67133C13.0882 5.64267 13.0949 5.60867 13.1076 5.57667C13.1236 5.53733 13.1449 5.50067 13.1529 5.45733L13.6556 2.79067C13.7236 2.42867 13.4856 2.07933 13.1236 2.012C12.7629 1.94667 12.4129 2.182 12.3449 2.54333L12.1636 3.504C11.0542 2.54333 9.63224 2 8.12291 2C4.74691 2 2.00024 4.69133 2.00024 8C2.00024 11.3087 4.74691 14 8.12291 14C10.8176 14 13.1669 12.3073 13.9689 9.788C14.0802 9.43733 13.8862 9.06267 13.5356 8.95067Z" fill="white"/>
</mask>
<g mask="url(#mask0_8_2152)">
<rect width="16" height="16" fill="white"/>
</g>
</g>
</svg>
