<svg width="20" height="21" viewBox="0 0 20 21" fill="none" xmlns="http://www.w3.org/2000/svg">
<path fill-rule="evenodd" clip-rule="evenodd" d="M10.146 12.207H7.73873C7.29579 12.207 6.9363 11.8337 6.9363 11.3737C6.9363 10.9137 7.29579 10.5404 7.73873 10.5404H10.146C10.589 10.5404 10.9485 10.9137 10.9485 11.3737C10.9485 11.8337 10.589 12.207 10.146 12.207ZM7.73873 13.8737H12.5533C12.9971 13.8737 13.3558 14.247 13.3558 14.707C13.3558 15.167 12.9971 15.5404 12.5533 15.5404H7.73873C7.29579 15.5404 6.9363 15.167 6.9363 14.707C6.9363 14.247 7.29579 13.8737 7.73873 13.8737ZM14.5147 17.207H5.77702C5.53148 17.207 5.33167 17.0204 5.33167 16.7904V4.29036C5.33167 4.06036 5.53148 3.8737 5.77702 3.8737H10.1463V6.4987C10.1463 7.8087 11.1228 8.8737 12.3241 8.8737H14.9609V16.7904C14.9609 17.0204 14.7611 17.207 14.5147 17.207ZM11.7511 4.6887L13.9514 7.20703H12.3241C12.0079 7.20703 11.7511 6.88953 11.7511 6.4987V4.6887ZM16.3571 7.48036L11.9887 2.48036C11.8362 2.3062 11.6211 2.20703 11.3941 2.20703H5.77702C4.6464 2.20703 3.72681 3.14203 3.72681 4.29036V16.7904C3.72681 17.9387 4.6464 18.8737 5.77702 18.8737H14.5147C15.6453 18.8737 16.5657 17.9387 16.5657 16.7904V8.04036C16.5657 7.83286 16.4911 7.6337 16.3571 7.48036Z" fill="#6A6A75"/>
<mask id="mask0_13_66105" style="mask-type:luminance" maskUnits="userSpaceOnUse" x="3" y="2" width="14" height="17">
<path fill-rule="evenodd" clip-rule="evenodd" d="M10.146 12.207H7.73873C7.29579 12.207 6.9363 11.8337 6.9363 11.3737C6.9363 10.9137 7.29579 10.5404 7.73873 10.5404H10.146C10.589 10.5404 10.9485 10.9137 10.9485 11.3737C10.9485 11.8337 10.589 12.207 10.146 12.207ZM7.73873 13.8737H12.5533C12.9971 13.8737 13.3558 14.247 13.3558 14.707C13.3558 15.167 12.9971 15.5404 12.5533 15.5404H7.73873C7.29579 15.5404 6.9363 15.167 6.9363 14.707C6.9363 14.247 7.29579 13.8737 7.73873 13.8737ZM14.5147 17.207H5.77702C5.53148 17.207 5.33167 17.0204 5.33167 16.7904V4.29036C5.33167 4.06036 5.53148 3.8737 5.77702 3.8737H10.1463V6.4987C10.1463 7.8087 11.1228 8.8737 12.3241 8.8737H14.9609V16.7904C14.9609 17.0204 14.7611 17.207 14.5147 17.207ZM11.7511 4.6887L13.9514 7.20703H12.3241C12.0079 7.20703 11.7511 6.88953 11.7511 6.4987V4.6887ZM16.3571 7.48036L11.9887 2.48036C11.8362 2.3062 11.6211 2.20703 11.3941 2.20703H5.77702C4.6464 2.20703 3.72681 3.14203 3.72681 4.29036V16.7904C3.72681 17.9387 4.6464 18.8737 5.77702 18.8737H14.5147C15.6453 18.8737 16.5657 17.9387 16.5657 16.7904V8.04036C16.5657 7.83286 16.4911 7.6337 16.3571 7.48036Z" fill="white"/>
</mask>
<g mask="url(#mask0_13_66105)">
<rect x="0.516846" y="0.539062" width="19.2584" height="20" fill="#6A6A75"/>
</g>
</svg>
