<svg width="20" height="21" viewBox="0 0 20 21" fill="none" xmlns="http://www.w3.org/2000/svg">
<path fill-rule="evenodd" clip-rule="evenodd" d="M6.67769 8.8724C7.34211 8.8724 7.88134 8.3124 7.88134 7.6224C7.88134 6.9324 7.34211 6.3724 6.67769 6.3724C6.01328 6.3724 5.47404 6.9324 5.47404 7.6224C5.47404 8.3124 6.01328 8.8724 6.67769 8.8724ZM14.702 16.3724H5.52299L11.144 11.5016C11.3414 11.3274 11.6993 11.3282 11.8927 11.5007L15.5045 14.7007V15.5391C15.5045 15.9991 15.145 16.3724 14.702 16.3724ZM5.07283 4.70573H14.702C15.145 4.70573 15.5045 5.07906 15.5045 5.53906V12.5091L12.9343 10.2324C12.1399 9.53073 10.8969 9.53073 10.1097 10.2274L4.27039 15.2874V5.53906C4.27039 5.07906 4.62988 4.70573 5.07283 4.70573ZM14.702 3.03906H5.07283C3.7456 3.03906 2.66553 4.16073 2.66553 5.53906V15.5391C2.66553 16.9174 3.7456 18.0391 5.07283 18.0391H14.702C16.0293 18.0391 17.1093 16.9174 17.1093 15.5391V5.53906C17.1093 4.16073 16.0293 3.03906 14.702 3.03906Z" fill="#6A6A75"/>
<mask id="mask0_13_66104" style="mask-type:luminance" maskUnits="userSpaceOnUse" x="2" y="3" width="16" height="16">
<path fill-rule="evenodd" clip-rule="evenodd" d="M6.67769 8.8724C7.34211 8.8724 7.88134 8.3124 7.88134 7.6224C7.88134 6.9324 7.34211 6.3724 6.67769 6.3724C6.01328 6.3724 5.47404 6.9324 5.47404 7.6224C5.47404 8.3124 6.01328 8.8724 6.67769 8.8724ZM14.702 16.3724H5.52299L11.144 11.5016C11.3414 11.3274 11.6993 11.3282 11.8927 11.5007L15.5045 14.7007V15.5391C15.5045 15.9991 15.145 16.3724 14.702 16.3724ZM5.07283 4.70573H14.702C15.145 4.70573 15.5045 5.07906 15.5045 5.53906V12.5091L12.9343 10.2324C12.1399 9.53073 10.8969 9.53073 10.1097 10.2274L4.27039 15.2874V5.53906C4.27039 5.07906 4.62988 4.70573 5.07283 4.70573ZM14.702 3.03906H5.07283C3.7456 3.03906 2.66553 4.16073 2.66553 5.53906V15.5391C2.66553 16.9174 3.7456 18.0391 5.07283 18.0391H14.702C16.0293 18.0391 17.1093 16.9174 17.1093 15.5391V5.53906C17.1093 4.16073 16.0293 3.03906 14.702 3.03906Z" fill="white"/>
</mask>
<g mask="url(#mask0_13_66104)">
<rect x="0.258301" y="0.539062" width="19.2584" height="20" fill="#6A6A75"/>
</g>
</svg>
