<svg width="40" height="40" viewBox="0 0 40 40" fill="none" xmlns="http://www.w3.org/2000/svg">
<path d="M0 12C0 5.37258 5.37258 0 12 0H28C34.6274 0 40 5.37258 40 12V28C40 34.6274 34.6274 40 28 40H12C5.37258 40 0 34.6274 0 28V12Z" fill="#212131"/>
<path d="M22.9961 30.75H16.9961C11.5661 30.75 9.24609 28.43 9.24609 23V17C9.24609 11.57 11.5661 9.25 16.9961 9.25H22.9961C28.4261 9.25 30.7461 11.57 30.7461 17V23C30.7461 28.43 28.4261 30.75 22.9961 30.75ZM16.9961 10.75C12.3861 10.75 10.7461 12.39 10.7461 17V23C10.7461 27.61 12.3861 29.25 16.9961 29.25H22.9961C27.6061 29.25 29.2461 27.61 29.2461 23V17C29.2461 12.39 27.6061 10.75 22.9961 10.75H16.9961Z" fill="white"/>
<path d="M21.7544 25.75H18.2244C17.1244 25.75 16.2544 25.21 15.7644 24.23L14.8744 22.44C14.6644 22.01 14.2344 21.75 13.7544 21.75H9.98438C9.57438 21.75 9.23438 21.41 9.23438 21C9.23438 20.59 9.58438 20.25 9.99438 20.25H13.7544C14.8044 20.25 15.7444 20.83 16.2144 21.77L17.1044 23.56C17.3344 24.02 17.7044 24.25 18.2244 24.25H21.7544C22.2344 24.25 22.6644 23.99 22.8744 23.56L23.7644 21.77C24.2344 20.83 25.1744 20.25 26.2244 20.25H29.9644C30.3744 20.25 30.7144 20.59 30.7144 21C30.7144 21.41 30.3744 21.75 29.9644 21.75H26.2244C25.7444 21.75 25.3144 22.01 25.1044 22.44L24.2144 24.23C23.7444 25.17 22.8044 25.75 21.7544 25.75Z" fill="white"/>
</svg>
