<svg width="21" height="20" viewBox="0 0 21 20" fill="none" xmlns="http://www.w3.org/2000/svg">
<path d="M20.4829 17.0455C20.4829 17.829 20.1716 18.5805 19.6175 19.1346C19.0635 19.6887 18.312 20 17.5284 20H3.43746C2.65386 20 1.90236 19.6887 1.34828 19.1346C0.794192 18.5805 0.48291 17.829 0.48291 17.0455V2.95455C0.48291 2.17095 0.794192 1.41945 1.34828 0.865366C1.90236 0.311281 2.65386 0 3.43746 0H17.5284C18.312 0 19.0635 0.311281 19.6175 0.865366C20.1716 1.41945 20.4829 2.17095 20.4829 2.95455V17.0455ZM19.1193 17.0455V2.95455C19.1193 2.53261 18.9517 2.12796 18.6533 1.8296C18.355 1.53125 17.9503 1.36364 17.5284 1.36364H3.43746C3.01552 1.36364 2.61087 1.53125 2.31251 1.8296C2.01416 2.12796 1.84655 2.53261 1.84655 2.95455V17.0455C1.84655 17.9236 2.55927 18.6364 3.43746 18.6364H17.5284C17.9503 18.6364 18.355 18.4688 18.6533 18.1704C18.9517 17.872 19.1193 17.4674 19.1193 17.0455ZM15.7102 10C15.7102 10.1648 15.6505 10.3239 15.5422 10.4481C15.4339 10.5723 15.2843 10.653 15.1211 10.6755L15.0284 10.6818H5.93746C5.76471 10.6818 5.59842 10.6161 5.47219 10.4982C5.34596 10.3803 5.26921 10.2188 5.25743 10.0465C5.24566 9.87413 5.29974 9.70373 5.40876 9.56973C5.51777 9.43572 5.67359 9.34809 5.84473 9.32455L5.93746 9.31818H15.0284C15.2092 9.31818 15.3826 9.39002 15.5105 9.51788C15.6383 9.64575 15.7102 9.81917 15.7102 10ZM15.7102 14.7727C15.7102 14.9375 15.6505 15.0967 15.5422 15.2208C15.4339 15.345 15.2843 15.4258 15.1211 15.4482L15.0284 15.4545H5.93746C5.76471 15.4545 5.59842 15.3889 5.47219 15.2709C5.34596 15.153 5.26921 14.9915 5.25743 14.8192C5.24566 14.6469 5.29974 14.4765 5.40876 14.3425C5.51777 14.2084 5.67359 14.1208 5.84473 14.0973L5.93746 14.0909H15.0284C15.2092 14.0909 15.3826 14.1627 15.5105 14.2906C15.6383 14.4185 15.7102 14.5919 15.7102 14.7727ZM15.7102 5.22727C15.7102 5.39203 15.6505 5.55122 15.5422 5.67539C15.4339 5.79956 15.2843 5.88032 15.1211 5.90273L15.0284 5.90909H5.93746C5.76471 5.90904 5.59842 5.84341 5.47219 5.72548C5.34596 5.60754 5.26921 5.44609 5.25743 5.27375C5.24566 5.1014 5.29974 4.93101 5.40876 4.797C5.51777 4.66299 5.67359 4.57537 5.84473 4.55182L5.93746 4.54545H15.0284C15.2092 4.54545 15.3826 4.61729 15.5105 4.74515C15.6383 4.87302 15.7102 5.04644 15.7102 5.22727Z" fill="#9999A0"/>
</svg>
