<svg width="20" height="20" viewBox="0 0 20 20" fill="none" xmlns="http://www.w3.org/2000/svg">
<path d="M3.33301 17.8333V2.16667C3.33301 1.89053 3.55687 1.66667 3.83301 1.66667H13.5426C13.6752 1.66667 13.8023 1.71935 13.8961 1.81312L16.5199 4.43689C16.6137 4.53066 16.6663 4.65784 16.6663 4.79045V17.8333C16.6663 18.1095 16.4425 18.3333 16.1663 18.3333H3.83301C3.55687 18.3333 3.33301 18.1095 3.33301 17.8333Z" stroke="#6A6A75" stroke-width="1.25" stroke-linecap="round" stroke-linejoin="round"/>
<path d="M13.333 4.50001V1.9613C13.333 1.79858 13.4649 1.66667 13.6277 1.66667C13.7058 1.66667 13.7807 1.69771 13.836 1.75296L16.58 4.49705C16.6353 4.5523 16.6663 4.62724 16.6663 4.70538C16.6663 4.8681 16.5344 5 16.3717 5H13.833C13.5568 5 13.333 4.77615 13.333 4.50001Z" fill="#6A6A75" stroke="#6A6A75" stroke-width="1.25" stroke-linecap="round" stroke-linejoin="round"/>
<path d="M6.66699 8.33333H13.3337" stroke="#6A6A75" stroke-width="1.25" stroke-linecap="round" stroke-linejoin="round"/>
<path d="M6.66699 15H13.3337" stroke="#6A6A75" stroke-width="1.25" stroke-linecap="round" stroke-linejoin="round"/>
<path d="M6.66699 11.6667H10.0003" stroke="#6A6A75" stroke-width="1.25" stroke-linecap="round" stroke-linejoin="round"/>
</svg>
