<svg width="21" height="20" viewBox="0 0 21 20" fill="none" xmlns="http://www.w3.org/2000/svg">
<path d="M6.17084 11.6668L7.66825 9.86991C8.26162 9.15791 8.5583 8.80183 8.94859 8.80183C9.33892 8.80183 9.63559 9.15791 10.229 9.86991L10.446 10.1304C11.0394 10.8424 11.3361 11.1985 11.7264 11.1985C12.1167 11.1985 12.4134 10.8424 13.0068 10.1304L14.5042 8.3335" stroke="#6A6A75" stroke-width="1.125" stroke-linecap="round"/>
<path d="M18.6709 9.99984C18.6709 13.9282 18.6709 15.8924 17.4505 17.1128C16.2301 18.3332 14.2659 18.3332 10.3375 18.3332C6.40917 18.3332 4.44499 18.3332 3.2246 17.1128C2.00421 15.8924 2.00421 13.9282 2.00421 9.99984C2.00421 6.07146 2.00421 4.10728 3.2246 2.8869C4.44499 1.6665 6.40917 1.6665 10.3375 1.6665C14.2659 1.6665 16.2301 1.6665 17.4505 2.8869C18.262 3.69835 18.5339 4.83863 18.625 6.6665" stroke="#6A6A75" stroke-width="1.125" stroke-linecap="round"/>
</svg>
