<svg width="20" height="20" viewBox="0 0 20 20" fill="none" xmlns="http://www.w3.org/2000/svg">
<path fill-rule="evenodd" clip-rule="evenodd" d="M13.3332 9.16667H10.8332V6.66667C10.8332 6.20584 10.4598 5.83334 9.99984 5.83334C9.53984 5.83334 9.1665 6.20584 9.1665 6.66667V10C9.1665 10.4608 9.53984 10.8333 9.99984 10.8333H13.3332C13.794 10.8333 14.1665 10.4608 14.1665 10C14.1665 9.53917 13.794 9.16667 13.3332 9.16667ZM9.99984 16.6667C6.324 16.6667 3.33317 13.6758 3.33317 10C3.33317 6.32417 6.324 3.33334 9.99984 3.33334C13.6757 3.33334 16.6665 6.32417 16.6665 10C16.6665 13.6758 13.6757 16.6667 9.99984 16.6667ZM9.99984 1.66667C5.40484 1.66667 1.6665 5.40501 1.6665 10C1.6665 14.595 5.40484 18.3333 9.99984 18.3333C14.5948 18.3333 18.3332 14.595 18.3332 10C18.3332 5.40501 14.5948 1.66667 9.99984 1.66667Z" fill="#231F20"/>
<mask id="mask0_19_124426" style="mask-type:luminance" maskUnits="userSpaceOnUse" x="1" y="1" width="18" height="18">
<path fill-rule="evenodd" clip-rule="evenodd" d="M13.3332 9.16667H10.8332V6.66667C10.8332 6.20584 10.4598 5.83334 9.99984 5.83334C9.53984 5.83334 9.1665 6.20584 9.1665 6.66667V10C9.1665 10.4608 9.53984 10.8333 9.99984 10.8333H13.3332C13.794 10.8333 14.1665 10.4608 14.1665 10C14.1665 9.53917 13.794 9.16667 13.3332 9.16667ZM9.99984 16.6667C6.324 16.6667 3.33317 13.6758 3.33317 10C3.33317 6.32417 6.324 3.33334 9.99984 3.33334C13.6757 3.33334 16.6665 6.32417 16.6665 10C16.6665 13.6758 13.6757 16.6667 9.99984 16.6667ZM9.99984 1.66667C5.40484 1.66667 1.6665 5.40501 1.6665 10C1.6665 14.595 5.40484 18.3333 9.99984 18.3333C14.5948 18.3333 18.3332 14.595 18.3332 10C18.3332 5.40501 14.5948 1.66667 9.99984 1.66667Z" fill="white"/>
</mask>
<g mask="url(#mask0_19_124426)">
<rect width="20" height="20" fill="#9999A0"/>
</g>
</svg>
