<svg width="27" height="28" viewBox="0 0 27 28" fill="none" xmlns="http://www.w3.org/2000/svg">
<path fill-rule="evenodd" clip-rule="evenodd" d="M12.7192 23.2899H14.1181V22.3992C14.1181 21.3134 14.7611 20.3379 15.7552 19.9118C16.784 19.467 17.9078 19.6853 18.6481 20.4587L19.2508 21.087L20.2438 20.0558L19.6344 19.424C18.893 18.6552 18.6839 17.4893 19.101 16.4546C19.101 16.4546 19.1021 16.4534 19.1021 16.4523L19.1144 16.4198C19.5214 15.3943 20.4619 14.7254 21.5074 14.7254H22.364V13.2738H21.5074C20.4619 13.2738 19.5214 12.6061 19.1122 11.5737C18.6816 10.5053 18.893 9.3382 19.6377 8.56827L20.2427 7.94233L19.2508 6.91227L18.6414 7.54517C17.9011 8.31394 16.7795 8.53111 15.7832 8.09911C14.7622 7.6613 14.1181 6.68582 14.1181 5.60001V4.7093H12.7192V5.60001C12.7192 6.68582 12.0763 7.6613 11.0822 8.08749C10.0545 8.53459 8.93068 8.31511 8.18929 7.54053L7.58657 6.91227L6.59358 7.94349L7.20301 8.57523C7.94328 9.34401 8.15351 10.5099 7.73641 11.5447C7.31596 12.6049 6.37553 13.2738 5.32998 13.2738H4.4723V14.7254H5.32998C6.37553 14.7254 7.31596 15.3932 7.72523 16.4256C8.15575 17.4939 7.9444 18.661 7.19966 19.431L6.5947 20.0569L7.58657 21.087L8.196 20.4541C8.93627 19.6853 10.0579 19.4681 11.0542 19.9001C12.0751 20.3379 12.7192 21.3134 12.7192 22.3992V23.2899ZM14.4726 25.6125H12.3569C11.3237 25.6125 10.4828 24.7392 10.4828 23.6662V22.3992C10.4828 22.2285 10.3519 22.1112 10.2289 22.059C10.0679 21.9905 9.89571 21.9765 9.77718 22.0961L8.91614 22.9915C8.18258 23.751 6.99055 23.7533 6.25811 22.9915L4.75968 21.4354C4.40409 21.0661 4.20951 20.576 4.20951 20.0534C4.21063 19.532 4.40632 19.0419 4.76304 18.6727L5.62184 17.7843C5.73925 17.6623 5.72695 17.4835 5.6744 17.3546C5.6073 17.1839 5.49548 17.048 5.32998 17.048H4.11782C3.0801 17.048 2.23584 16.1724 2.23584 15.0947V12.8976C2.23584 11.8234 3.07675 10.9512 4.11111 10.9512H5.32998C5.49436 10.9512 5.6073 10.8142 5.65762 10.6865C5.72472 10.5192 5.73813 10.3392 5.62184 10.2185L4.75968 9.32427C4.02836 8.5613 4.02836 7.32336 4.75968 6.56388L6.25811 5.00775C6.61371 4.63846 7.08448 4.4364 7.58657 4.4364H7.5888C8.09089 4.4364 8.5639 4.63962 8.91838 5.01007L9.77383 5.90311C9.89124 6.0262 10.0646 6.01227 10.1887 5.95769C10.3519 5.88685 10.4828 5.77072 10.4828 5.60001V4.34117C10.4828 3.26349 11.327 2.38672 12.3648 2.38672H14.4805C15.5137 2.38672 16.3546 3.26001 16.3546 4.33304V5.60001C16.3546 5.77072 16.4854 5.88801 16.6084 5.94027C16.7706 6.00994 16.9428 6.02504 17.0602 5.90311L17.9212 5.00775C18.6548 4.24827 19.8468 4.24594 20.5793 5.00775L22.0788 6.56504C22.4344 6.93317 22.629 7.42324 22.6279 7.94582C22.6279 8.46607 22.4322 8.9573 22.0755 9.32543L21.2155 10.215C21.0981 10.3369 21.1104 10.5158 21.163 10.6447C21.2301 10.8154 21.3419 10.9512 21.5074 10.9512H22.7196C23.7573 10.9512 24.6004 11.8268 24.6004 12.9045V15.1017C24.6004 16.1759 23.7606 17.048 22.7263 17.048H21.5074C21.343 17.048 21.2301 17.185 21.1798 17.3128C21.1786 17.3139 21.1652 17.3488 21.1641 17.3511C21.1127 17.48 21.0993 17.66 21.2155 17.7808L22.0777 18.675C22.809 19.4379 22.809 20.6759 22.0777 21.4354L20.5793 22.9915C20.2237 23.3608 19.7529 23.5629 19.2508 23.5629H19.2486C18.7465 23.5629 18.2735 23.3596 17.919 22.9892L17.0636 22.0961C16.9461 21.9742 16.7717 21.9881 16.6487 22.0416C16.4854 22.1124 16.3546 22.2285 16.3546 22.3992V23.6581C16.3546 24.7358 15.5103 25.6125 14.4726 25.6125ZM13.4187 12.2577C12.4939 12.2577 11.7413 13.0392 11.7413 13.9996C11.7413 14.96 12.4939 15.7416 13.4187 15.7416C14.3435 15.7416 15.096 14.96 15.096 13.9996C15.096 13.0392 14.3435 12.2577 13.4187 12.2577ZM13.4187 18.0641C11.2605 18.0641 9.50489 16.2409 9.50489 13.9996C9.50489 11.7583 11.2605 9.93511 13.4187 9.93511C15.5769 9.93511 17.3325 11.7583 17.3325 13.9996C17.3325 16.2409 15.5769 18.0641 13.4187 18.0641Z" fill="#212131"/>
<path fill-rule="evenodd" clip-rule="evenodd" d="M12.7192 23.2899H14.1181V22.3992C14.1181 21.3134 14.7611 20.3379 15.7552 19.9118C16.784 19.467 17.9078 19.6853 18.6481 20.4587L19.2508 21.087L20.2438 20.0558L19.6344 19.424C18.893 18.6552 18.6839 17.4893 19.101 16.4546C19.101 16.4546 19.1021 16.4534 19.1021 16.4523L19.1144 16.4198C19.5214 15.3943 20.4619 14.7254 21.5074 14.7254H22.364V13.2738H21.5074C20.4619 13.2738 19.5214 12.6061 19.1122 11.5737C18.6816 10.5053 18.893 9.3382 19.6377 8.56827L20.2427 7.94233L19.2508 6.91227L18.6414 7.54517C17.9011 8.31394 16.7795 8.53111 15.7832 8.09911C14.7622 7.6613 14.1181 6.68582 14.1181 5.60001V4.7093H12.7192V5.60001C12.7192 6.68582 12.0763 7.6613 11.0822 8.08749C10.0545 8.53459 8.93068 8.31511 8.18929 7.54053L7.58657 6.91227L6.59358 7.94349L7.20301 8.57523C7.94328 9.34401 8.15351 10.5099 7.73641 11.5447C7.31596 12.6049 6.37553 13.2738 5.32998 13.2738H4.4723V14.7254H5.32998C6.37553 14.7254 7.31596 15.3932 7.72523 16.4256C8.15575 17.4939 7.9444 18.661 7.19966 19.431L6.5947 20.0569L7.58657 21.087L8.196 20.4541C8.93627 19.6853 10.0579 19.4681 11.0542 19.9001C12.0751 20.3379 12.7192 21.3134 12.7192 22.3992V23.2899ZM14.4726 25.6125H12.3569C11.3237 25.6125 10.4828 24.7392 10.4828 23.6662V22.3992C10.4828 22.2285 10.3519 22.1112 10.2289 22.059C10.0679 21.9905 9.89571 21.9765 9.77718 22.0961L8.91614 22.9915C8.18258 23.751 6.99055 23.7533 6.25811 22.9915L4.75968 21.4354C4.40409 21.0661 4.20951 20.576 4.20951 20.0534C4.21063 19.532 4.40632 19.0419 4.76304 18.6727L5.62184 17.7843C5.73925 17.6623 5.72695 17.4835 5.6744 17.3546C5.6073 17.1839 5.49548 17.048 5.32998 17.048H4.11782C3.0801 17.048 2.23584 16.1724 2.23584 15.0947V12.8976C2.23584 11.8234 3.07675 10.9512 4.11111 10.9512H5.32998C5.49436 10.9512 5.6073 10.8142 5.65762 10.6865C5.72472 10.5192 5.73813 10.3392 5.62184 10.2185L4.75968 9.32427C4.02836 8.5613 4.02836 7.32336 4.75968 6.56388L6.25811 5.00775C6.61371 4.63846 7.08448 4.4364 7.58657 4.4364H7.5888C8.09089 4.4364 8.5639 4.63962 8.91838 5.01007L9.77383 5.90311C9.89124 6.0262 10.0646 6.01227 10.1887 5.95769C10.3519 5.88685 10.4828 5.77072 10.4828 5.60001V4.34117C10.4828 3.26349 11.327 2.38672 12.3648 2.38672H14.4805C15.5137 2.38672 16.3546 3.26001 16.3546 4.33304V5.60001C16.3546 5.77072 16.4854 5.88801 16.6084 5.94027C16.7706 6.00994 16.9428 6.02504 17.0602 5.90311L17.9212 5.00775C18.6548 4.24827 19.8468 4.24594 20.5793 5.00775L22.0788 6.56504C22.4344 6.93317 22.629 7.42324 22.6279 7.94582C22.6279 8.46607 22.4322 8.9573 22.0755 9.32543L21.2155 10.215C21.0981 10.3369 21.1104 10.5158 21.163 10.6447C21.2301 10.8154 21.3419 10.9512 21.5074 10.9512H22.7196C23.7573 10.9512 24.6004 11.8268 24.6004 12.9045V15.1017C24.6004 16.1759 23.7606 17.048 22.7263 17.048H21.5074C21.343 17.048 21.2301 17.185 21.1798 17.3128C21.1786 17.3139 21.1652 17.3488 21.1641 17.3511C21.1127 17.48 21.0993 17.66 21.2155 17.7808L22.0777 18.675C22.809 19.4379 22.809 20.6759 22.0777 21.4354L20.5793 22.9915C20.2237 23.3608 19.7529 23.5629 19.2508 23.5629H19.2486C18.7465 23.5629 18.2735 23.3596 17.919 22.9892L17.0636 22.0961C16.9461 21.9742 16.7717 21.9881 16.6487 22.0416C16.4854 22.1124 16.3546 22.2285 16.3546 22.3992V23.6581C16.3546 24.7358 15.5103 25.6125 14.4726 25.6125ZM13.4187 12.2577C12.4939 12.2577 11.7413 13.0392 11.7413 13.9996C11.7413 14.96 12.4939 15.7416 13.4187 15.7416C14.3435 15.7416 15.096 14.96 15.096 13.9996C15.096 13.0392 14.3435 12.2577 13.4187 12.2577ZM13.4187 18.0641C11.2605 18.0641 9.50489 16.2409 9.50489 13.9996C9.50489 11.7583 11.2605 9.93511 13.4187 9.93511C15.5769 9.93511 17.3325 11.7583 17.3325 13.9996C17.3325 16.2409 15.5769 18.0641 13.4187 18.0641Z" fill="black" fill-opacity="0.2"/>
<mask id="mask0_2943_139781" style="mask-type:luminance" maskUnits="userSpaceOnUse" x="2" y="2" width="23" height="24">
<path fill-rule="evenodd" clip-rule="evenodd" d="M12.7192 23.2899H14.1181V22.3992C14.1181 21.3134 14.7611 20.3379 15.7552 19.9118C16.784 19.467 17.9078 19.6853 18.6481 20.4587L19.2508 21.087L20.2438 20.0558L19.6344 19.424C18.893 18.6552 18.6839 17.4893 19.101 16.4546C19.101 16.4546 19.1021 16.4534 19.1021 16.4523L19.1144 16.4198C19.5214 15.3943 20.4619 14.7254 21.5074 14.7254H22.364V13.2738H21.5074C20.4619 13.2738 19.5214 12.6061 19.1122 11.5737C18.6816 10.5053 18.893 9.3382 19.6377 8.56827L20.2427 7.94233L19.2508 6.91227L18.6414 7.54517C17.9011 8.31394 16.7795 8.53111 15.7832 8.09911C14.7622 7.6613 14.1181 6.68582 14.1181 5.60001V4.7093H12.7192V5.60001C12.7192 6.68582 12.0763 7.6613 11.0822 8.08749C10.0545 8.53459 8.93068 8.31511 8.18929 7.54053L7.58657 6.91227L6.59358 7.94349L7.20301 8.57523C7.94328 9.34401 8.15351 10.5099 7.73641 11.5447C7.31596 12.6049 6.37553 13.2738 5.32998 13.2738H4.4723V14.7254H5.32998C6.37553 14.7254 7.31596 15.3932 7.72523 16.4256C8.15575 17.4939 7.9444 18.661 7.19966 19.431L6.5947 20.0569L7.58657 21.087L8.196 20.4541C8.93627 19.6853 10.0579 19.4681 11.0542 19.9001C12.0751 20.3379 12.7192 21.3134 12.7192 22.3992V23.2899ZM14.4726 25.6125H12.3569C11.3237 25.6125 10.4828 24.7392 10.4828 23.6662V22.3992C10.4828 22.2285 10.3519 22.1112 10.2289 22.059C10.0679 21.9905 9.89571 21.9765 9.77718 22.0961L8.91614 22.9915C8.18258 23.751 6.99055 23.7533 6.25811 22.9915L4.75968 21.4354C4.40409 21.0661 4.20951 20.576 4.20951 20.0534C4.21063 19.532 4.40632 19.0419 4.76304 18.6727L5.62184 17.7843C5.73925 17.6623 5.72695 17.4835 5.6744 17.3546C5.6073 17.1839 5.49548 17.048 5.32998 17.048H4.11782C3.0801 17.048 2.23584 16.1724 2.23584 15.0947V12.8976C2.23584 11.8234 3.07675 10.9512 4.11111 10.9512H5.32998C5.49436 10.9512 5.6073 10.8142 5.65762 10.6865C5.72472 10.5192 5.73813 10.3392 5.62184 10.2185L4.75968 9.32427C4.02836 8.5613 4.02836 7.32336 4.75968 6.56388L6.25811 5.00775C6.61371 4.63846 7.08448 4.4364 7.58657 4.4364H7.5888C8.09089 4.4364 8.5639 4.63962 8.91838 5.01007L9.77383 5.90311C9.89124 6.0262 10.0646 6.01227 10.1887 5.95769C10.3519 5.88685 10.4828 5.77072 10.4828 5.60001V4.34117C10.4828 3.26349 11.327 2.38672 12.3648 2.38672H14.4805C15.5137 2.38672 16.3546 3.26001 16.3546 4.33304V5.60001C16.3546 5.77072 16.4854 5.88801 16.6084 5.94027C16.7706 6.00994 16.9428 6.02504 17.0602 5.90311L17.9212 5.00775C18.6548 4.24827 19.8468 4.24594 20.5793 5.00775L22.0788 6.56504C22.4344 6.93317 22.629 7.42324 22.6279 7.94582C22.6279 8.46607 22.4322 8.9573 22.0755 9.32543L21.2155 10.215C21.0981 10.3369 21.1104 10.5158 21.163 10.6447C21.2301 10.8154 21.3419 10.9512 21.5074 10.9512H22.7196C23.7573 10.9512 24.6004 11.8268 24.6004 12.9045V15.1017C24.6004 16.1759 23.7606 17.048 22.7263 17.048H21.5074C21.343 17.048 21.2301 17.185 21.1798 17.3128C21.1786 17.3139 21.1652 17.3488 21.1641 17.3511C21.1127 17.48 21.0993 17.66 21.2155 17.7808L22.0777 18.675C22.809 19.4379 22.809 20.6759 22.0777 21.4354L20.5793 22.9915C20.2237 23.3608 19.7529 23.5629 19.2508 23.5629H19.2486C18.7465 23.5629 18.2735 23.3596 17.919 22.9892L17.0636 22.0961C16.9461 21.9742 16.7717 21.9881 16.6487 22.0416C16.4854 22.1124 16.3546 22.2285 16.3546 22.3992V23.6581C16.3546 24.7358 15.5103 25.6125 14.4726 25.6125ZM13.4187 12.2577C12.4939 12.2577 11.7413 13.0392 11.7413 13.9996C11.7413 14.96 12.4939 15.7416 13.4187 15.7416C14.3435 15.7416 15.096 14.96 15.096 13.9996C15.096 13.0392 14.3435 12.2577 13.4187 12.2577ZM13.4187 18.0641C11.2605 18.0641 9.50489 16.2409 9.50489 13.9996C9.50489 11.7583 11.2605 9.93511 13.4187 9.93511C15.5769 9.93511 17.3325 11.7583 17.3325 13.9996C17.3325 16.2409 15.5769 18.0641 13.4187 18.0641Z" fill="white"/>
</mask>
<g mask="url(#mask0_2943_139781)">
<rect y="0.0644531" width="26.8375" height="27.871" fill="#212131"/>
<rect y="0.0644531" width="26.8375" height="27.871" fill="black" fill-opacity="0.2"/>
</g>
</svg>
