<svg width="70" height="21" viewBox="0 0 70 21" fill="none" xmlns="http://www.w3.org/2000/svg">
<g filter="url(#filter0_d_9998_39207)">
<rect x="5" y="0.5" width="60" height="12" rx="2" fill="url(#paint0_linear_9998_39207)" shape-rendering="crispEdges"/>
<rect x="4.75" y="0.25" width="60.5" height="12.5" rx="2.25" stroke="url(#paint1_linear_9998_39207)" stroke-width="0.5" shape-rendering="crispEdges"/>
<path d="M9.259 6.557C9.259 6.081 9.36867 5.654 9.588 5.276C9.812 4.898 10.113 4.604 10.491 4.394C10.8737 4.17933 11.2913 4.072 11.744 4.072C12.262 4.072 12.7217 4.20033 13.123 4.457C13.529 4.709 13.823 5.06833 14.005 5.535H13.046C12.92 5.27833 12.745 5.087 12.521 4.961C12.297 4.835 12.038 4.772 11.744 4.772C11.422 4.772 11.135 4.84433 10.883 4.989C10.631 5.13367 10.4327 5.34133 10.288 5.612C10.148 5.88267 10.078 6.19767 10.078 6.557C10.078 6.91633 10.148 7.23133 10.288 7.502C10.4327 7.77267 10.631 7.98267 10.883 8.132C11.135 8.27667 11.422 8.349 11.744 8.349C12.038 8.349 12.297 8.286 12.521 8.16C12.745 8.034 12.92 7.84267 13.046 7.586H14.005C13.823 8.05267 13.529 8.412 13.123 8.664C12.7217 8.916 12.262 9.042 11.744 9.042C11.2867 9.042 10.869 8.937 10.491 8.727C10.113 8.51233 9.812 8.216 9.588 7.838C9.36867 7.46 9.259 7.033 9.259 6.557ZM17.1581 9.049C16.7054 9.049 16.2877 8.944 15.9051 8.734C15.5271 8.51933 15.2261 8.223 15.0021 7.845C14.7827 7.46233 14.6731 7.033 14.6731 6.557C14.6731 6.081 14.7827 5.654 15.0021 5.276C15.2261 4.898 15.5271 4.604 15.9051 4.394C16.2877 4.17933 16.7054 4.072 17.1581 4.072C17.6154 4.072 18.0331 4.17933 18.4111 4.394C18.7937 4.604 19.0947 4.898 19.3141 5.276C19.5334 5.654 19.6431 6.081 19.6431 6.557C19.6431 7.033 19.5334 7.46233 19.3141 7.845C19.0947 8.223 18.7937 8.51933 18.4111 8.734C18.0331 8.944 17.6154 9.049 17.1581 9.049ZM17.1581 8.356C17.4801 8.356 17.7671 8.28367 18.0191 8.139C18.2711 7.98967 18.4671 7.77967 18.6071 7.509C18.7517 7.23367 18.8241 6.91633 18.8241 6.557C18.8241 6.19767 18.7517 5.88267 18.6071 5.612C18.4671 5.34133 18.2711 5.13367 18.0191 4.989C17.7671 4.84433 17.4801 4.772 17.1581 4.772C16.8361 4.772 16.5491 4.84433 16.2971 4.989C16.0451 5.13367 15.8467 5.34133 15.7021 5.612C15.5621 5.88267 15.4921 6.19767 15.4921 6.557C15.4921 6.91633 15.5621 7.23367 15.7021 7.509C15.8467 7.77967 16.0451 7.98967 16.2971 8.139C16.5491 8.28367 16.8361 8.356 17.1581 8.356ZM25.5523 4.135V9H24.7543V5.668L23.2703 9H22.7173L21.2263 5.668V9H20.4283V4.135H21.2893L22.9973 7.95L24.6983 4.135H25.5523ZM27.3992 4.135V9H26.6012V4.135H27.3992ZM32.4439 9H31.6459L29.2449 5.367V9H28.4469V4.128H29.2449L31.6459 7.754V4.128H32.4439V9ZM37.0128 5.535C36.8868 5.29233 36.7118 5.11033 36.4878 4.989C36.2638 4.863 36.0048 4.8 35.7108 4.8C35.3888 4.8 35.1018 4.87233 34.8498 5.017C34.5978 5.16167 34.3995 5.367 34.2548 5.633C34.1148 5.899 34.0448 6.207 34.0448 6.557C34.0448 6.907 34.1148 7.21733 34.2548 7.488C34.3995 7.754 34.5978 7.95933 34.8498 8.104C35.1018 8.24867 35.3888 8.321 35.7108 8.321C36.1448 8.321 36.4971 8.19967 36.7678 7.957C37.0385 7.71433 37.2041 7.38533 37.2648 6.97H35.4378V6.333H38.1188V6.956C38.0675 7.334 37.9321 7.68167 37.7128 7.999C37.4981 8.31633 37.2158 8.57067 36.8658 8.762C36.5205 8.94867 36.1355 9.042 35.7108 9.042C35.2535 9.042 34.8358 8.937 34.4578 8.727C34.0798 8.51233 33.7788 8.216 33.5548 7.838C33.3355 7.46 33.2258 7.033 33.2258 6.557C33.2258 6.081 33.3355 5.654 33.5548 5.276C33.7788 4.898 34.0798 4.604 34.4578 4.394C34.8405 4.17933 35.2581 4.072 35.7108 4.072C36.2288 4.072 36.6885 4.20033 37.0898 4.457C37.4958 4.709 37.7898 5.06833 37.9718 5.535H37.0128ZM42.3272 9.049C42.0006 9.049 41.7066 8.993 41.4452 8.881C41.1839 8.76433 40.9786 8.601 40.8292 8.391C40.6799 8.181 40.6052 7.936 40.6052 7.656H41.4592C41.4779 7.866 41.5596 8.03867 41.7042 8.174C41.8536 8.30933 42.0612 8.377 42.3272 8.377C42.6026 8.377 42.8172 8.31167 42.9712 8.181C43.1252 8.04567 43.2022 7.873 43.2022 7.663C43.2022 7.49967 43.1532 7.36667 43.0552 7.264C42.9619 7.16133 42.8429 7.082 42.6982 7.026C42.5582 6.97 42.3622 6.90933 42.1102 6.844C41.7929 6.76 41.5339 6.676 41.3332 6.592C41.1372 6.50333 40.9692 6.368 40.8292 6.186C40.6892 6.004 40.6192 5.76133 40.6192 5.458C40.6192 5.178 40.6892 4.933 40.8292 4.723C40.9692 4.513 41.1652 4.352 41.4172 4.24C41.6692 4.128 41.9609 4.072 42.2922 4.072C42.7636 4.072 43.1486 4.191 43.4472 4.429C43.7506 4.66233 43.9186 4.98433 43.9512 5.395H43.0692C43.0552 5.21767 42.9712 5.066 42.8172 4.94C42.6632 4.814 42.4602 4.751 42.2082 4.751C41.9796 4.751 41.7929 4.80933 41.6482 4.926C41.5036 5.04267 41.4312 5.21067 41.4312 5.43C41.4312 5.57933 41.4756 5.703 41.5642 5.801C41.6576 5.89433 41.7742 5.969 41.9142 6.025C42.0542 6.081 42.2456 6.14167 42.4882 6.207C42.8102 6.29567 43.0716 6.38433 43.2722 6.473C43.4776 6.56167 43.6502 6.69933 43.7902 6.886C43.9349 7.068 44.0072 7.313 44.0072 7.621C44.0072 7.86833 43.9396 8.10167 43.8042 8.321C43.6736 8.54033 43.4799 8.71767 43.2232 8.853C42.9712 8.98367 42.6726 9.049 42.3272 9.049ZM47.1678 9.049C46.7152 9.049 46.2975 8.944 45.9148 8.734C45.5368 8.51933 45.2358 8.223 45.0118 7.845C44.7925 7.46233 44.6828 7.033 44.6828 6.557C44.6828 6.081 44.7925 5.654 45.0118 5.276C45.2358 4.898 45.5368 4.604 45.9148 4.394C46.2975 4.17933 46.7152 4.072 47.1678 4.072C47.6252 4.072 48.0428 4.17933 48.4208 4.394C48.8035 4.604 49.1045 4.898 49.3238 5.276C49.5432 5.654 49.6528 6.081 49.6528 6.557C49.6528 7.033 49.5432 7.46233 49.3238 7.845C49.1045 8.223 48.8035 8.51933 48.4208 8.734C48.0428 8.944 47.6252 9.049 47.1678 9.049ZM47.1678 8.356C47.4898 8.356 47.7768 8.28367 48.0288 8.139C48.2808 7.98967 48.4768 7.77967 48.6168 7.509C48.7615 7.23367 48.8338 6.91633 48.8338 6.557C48.8338 6.19767 48.7615 5.88267 48.6168 5.612C48.4768 5.34133 48.2808 5.13367 48.0288 4.989C47.7768 4.84433 47.4898 4.772 47.1678 4.772C46.8458 4.772 46.5588 4.84433 46.3068 4.989C46.0548 5.13367 45.8565 5.34133 45.7118 5.612C45.5718 5.88267 45.5018 6.19767 45.5018 6.557C45.5018 6.91633 45.5718 7.23367 45.7118 7.509C45.8565 7.77967 46.0548 7.98967 46.3068 8.139C46.5588 8.28367 46.8458 8.356 47.1678 8.356ZM52.6571 9.049C52.2044 9.049 51.7868 8.944 51.4041 8.734C51.0261 8.51933 50.7251 8.223 50.5011 7.845C50.2818 7.46233 50.1721 7.033 50.1721 6.557C50.1721 6.081 50.2818 5.654 50.5011 5.276C50.7251 4.898 51.0261 4.604 51.4041 4.394C51.7868 4.17933 52.2044 4.072 52.6571 4.072C53.1144 4.072 53.5321 4.17933 53.9101 4.394C54.2928 4.604 54.5938 4.898 54.8131 5.276C55.0324 5.654 55.1421 6.081 55.1421 6.557C55.1421 7.033 55.0324 7.46233 54.8131 7.845C54.5938 8.223 54.2928 8.51933 53.9101 8.734C53.5321 8.944 53.1144 9.049 52.6571 9.049ZM52.6571 8.356C52.9791 8.356 53.2661 8.28367 53.5181 8.139C53.7701 7.98967 53.9661 7.77967 54.1061 7.509C54.2508 7.23367 54.3231 6.91633 54.3231 6.557C54.3231 6.19767 54.2508 5.88267 54.1061 5.612C53.9661 5.34133 53.7701 5.13367 53.5181 4.989C53.2661 4.84433 52.9791 4.772 52.6571 4.772C52.3351 4.772 52.0481 4.84433 51.7961 4.989C51.5441 5.13367 51.3458 5.34133 51.2011 5.612C51.0611 5.88267 50.9911 6.19767 50.9911 6.557C50.9911 6.91633 51.0611 7.23367 51.2011 7.509C51.3458 7.77967 51.5441 7.98967 51.7961 8.139C52.0481 8.28367 52.3351 8.356 52.6571 8.356ZM59.9243 9H59.1263L56.7253 5.367V9H55.9273V4.128H56.7253L59.1263 7.754V4.128H59.9243V9Z" fill="white"/>
</g>
<defs>
<filter id="filter0_d_9998_39207" x="0.5" y="0" width="69" height="21" filterUnits="userSpaceOnUse" color-interpolation-filters="sRGB">
<feFlood flood-opacity="0" result="BackgroundImageFix"/>
<feColorMatrix in="SourceAlpha" type="matrix" values="0 0 0 0 0 0 0 0 0 0 0 0 0 0 0 0 0 0 127 0" result="hardAlpha"/>
<feOffset dy="4"/>
<feGaussianBlur stdDeviation="2"/>
<feComposite in2="hardAlpha" operator="out"/>
<feColorMatrix type="matrix" values="0 0 0 0 0 0 0 0 0 0 0 0 0 0 0 0 0 0 0.25 0"/>
<feBlend mode="normal" in2="BackgroundImageFix" result="effect1_dropShadow_9998_39207"/>
<feBlend mode="normal" in="SourceGraphic" in2="effect1_dropShadow_9998_39207" result="shape"/>
</filter>
<linearGradient id="paint0_linear_9998_39207" x1="5" y1="6.5" x2="65" y2="6.5" gradientUnits="userSpaceOnUse">
<stop stop-color="#F1507F" stop-opacity="0.9"/>
<stop offset="0.49949" stop-color="#F04A7A" stop-opacity="0.5"/>
<stop offset="1" stop-color="#EF4375"/>
</linearGradient>
<linearGradient id="paint1_linear_9998_39207" x1="50.5" y1="0.5" x2="25.5" y2="12.5" gradientUnits="userSpaceOnUse">
<stop stop-color="#F05582"/>
<stop offset="1" stop-color="#FDA8C1"/>
</linearGradient>
</defs>
</svg>
