<svg width="25" height="24" viewBox="0 0 25 24" fill="none" xmlns="http://www.w3.org/2000/svg">
<path d="M13.4862 3C17.3662 3 20.4862 6.14 20.4862 10C20.4862 12.8 18.8562 15.19 16.4862 16.31V21H9.48625V18H8.48625C7.37625 18 6.48625 17.11 6.48625 16V13H4.98625C4.56625 13 4.32625 12.5 4.56625 12.19L6.48625 9.66C6.57435 7.86329 7.35047 6.16939 8.65372 4.92945C9.95697 3.6895 11.6874 2.99861 13.4862 3ZM13.4862 1C8.89625 1 5.09625 4.42 4.54625 8.9L2.98625 11H2.95625L2.93625 11.03C2.38625 11.79 2.31625 12.79 2.74625 13.62C3.10625 14.31 3.74625 14.79 4.48625 14.94V16C4.48625 17.85 5.76625 19.42 7.48625 19.87V23H18.4862V17.5C20.9862 15.83 22.4862 13.06 22.4862 10C22.4862 5.03 18.4462 1 13.4862 1ZM17.8162 9.3L15.8562 9.81L17.2962 11.27C17.6462 11.61 17.6462 12.19 17.2962 12.54C16.9462 12.89 16.3662 12.89 16.0262 12.54L14.5762 11.1L14.0562 13.06C13.9362 13.55 13.4462 13.82 12.9862 13.7C12.8698 13.6708 12.7603 13.6189 12.664 13.5472C12.5677 13.4756 12.4866 13.3855 12.4252 13.2824C12.3639 13.1792 12.3236 13.0649 12.3066 12.9461C12.2896 12.8272 12.2963 12.7062 12.3262 12.59L12.8562 10.63L10.8962 11.16C10.78 11.19 10.659 11.1967 10.5402 11.1797C10.4214 11.1627 10.3071 11.1224 10.2039 11.061C10.1007 10.9997 10.0107 10.9185 9.93902 10.8222C9.86734 10.7259 9.81542 10.6164 9.78625 10.5C9.66625 10.05 9.94625 9.55 10.4262 9.43L12.3862 8.91L10.9462 7.46C10.7958 7.28817 10.7163 7.06558 10.7239 6.83732C10.7314 6.60907 10.8255 6.39222 10.987 6.23073C11.1485 6.06925 11.3653 5.97519 11.5936 5.96762C11.8218 5.96006 12.0444 6.03956 12.2162 6.19L13.6762 7.63L14.1862 5.67C14.3062 5.18 14.8062 4.9 15.2762 5.03C15.7662 5.16 16.0462 5.65 15.9162 6.13L15.3862 8.1L17.3562 7.57C17.8362 7.44 18.3262 7.72 18.4562 8.21C18.5862 8.68 18.3062 9.18 17.8162 9.3Z" fill="#9999A0"/>
</svg>
