<svg xmlns="http://www.w3.org/2000/svg" width="20" height="20" viewBox="0 0 20 20" fill="none">
<path fill-rule="evenodd" clip-rule="evenodd" d="M14.9965 13.3018L10.4306 15.5051V9.90846L15.2452 7.58596V12.9485C15.2452 13.0935 15.1506 13.2285 14.9965 13.3018V13.3018ZM4.25432 13.3026C4.10266 13.2293 4.00958 13.0943 4.01118 12.9426V7.58596L8.82578 9.90846V15.5068L4.25432 13.3026ZM9.3931 4.2193C9.46612 4.18346 9.54717 4.16596 9.62821 4.16596C9.70846 4.16596 9.7895 4.18346 9.86253 4.2193L14.1387 6.28096L9.62821 8.45763L5.11694 6.28096L9.3931 4.2193ZM16.5741 6.04846C16.5717 6.0418 16.5725 6.0343 16.5693 6.02763C16.5669 6.02096 16.5604 6.0168 16.5564 6.01013C16.5195 5.9468 16.4746 5.89096 16.432 5.83263C16.4072 5.8043 16.3871 5.77263 16.3598 5.74846C16.1713 5.51846 15.949 5.31596 15.6729 5.18346L10.5374 2.70596C10.5366 2.70596 10.5358 2.70596 10.5358 2.70513C9.95882 2.42846 9.29681 2.4293 8.71826 2.70596L3.58509 5.18263C3.30905 5.31513 3.08598 5.5168 2.89741 5.7468C2.86772 5.77263 2.84605 5.80763 2.81957 5.83846C2.77784 5.8943 2.73531 5.94846 2.70001 6.00846C2.69599 6.01596 2.68958 6.02096 2.68637 6.02763C2.68316 6.03513 2.68396 6.04263 2.68075 6.05013C2.51144 6.3518 2.40632 6.69096 2.40632 7.04763V12.9368C2.3999 13.7285 2.85889 14.4651 3.57626 14.8135L8.71103 17.2901C9.00151 17.431 9.31286 17.501 9.62501 17.501C9.93635 17.501 10.2477 17.431 10.5374 17.291L15.6705 14.8143C16.3863 14.471 16.8493 13.7393 16.8501 12.9493V7.0468C16.8493 6.69013 16.7442 6.35096 16.5741 6.04846V6.04846Z" fill="#231F20"/>
<mask id="mask0_3211_73577" style="mask-type:luminance" maskUnits="userSpaceOnUse" x="2" y="2" width="15" height="16">
<path fill-rule="evenodd" clip-rule="evenodd" d="M14.9965 13.3018L10.4306 15.5051V9.90846L15.2452 7.58596V12.9485C15.2452 13.0935 15.1506 13.2285 14.9965 13.3018V13.3018ZM4.25432 13.3026C4.10266 13.2293 4.00958 13.0943 4.01118 12.9426V7.58596L8.82578 9.90846V15.5068L4.25432 13.3026ZM9.3931 4.2193C9.46612 4.18346 9.54717 4.16596 9.62821 4.16596C9.70846 4.16596 9.7895 4.18346 9.86253 4.2193L14.1387 6.28096L9.62821 8.45763L5.11694 6.28096L9.3931 4.2193ZM16.5741 6.04846C16.5717 6.0418 16.5725 6.0343 16.5693 6.02763C16.5669 6.02096 16.5604 6.0168 16.5564 6.01013C16.5195 5.9468 16.4746 5.89096 16.432 5.83263C16.4072 5.8043 16.3871 5.77263 16.3598 5.74846C16.1713 5.51846 15.949 5.31596 15.6729 5.18346L10.5374 2.70596C10.5366 2.70596 10.5358 2.70596 10.5358 2.70513C9.95882 2.42846 9.29681 2.4293 8.71826 2.70596L3.58509 5.18263C3.30905 5.31513 3.08598 5.5168 2.89741 5.7468C2.86772 5.77263 2.84605 5.80763 2.81957 5.83846C2.77784 5.8943 2.73531 5.94846 2.70001 6.00846C2.69599 6.01596 2.68958 6.02096 2.68637 6.02763C2.68316 6.03513 2.68396 6.04263 2.68075 6.05013C2.51144 6.3518 2.40632 6.69096 2.40632 7.04763V12.9368C2.3999 13.7285 2.85889 14.4651 3.57626 14.8135L8.71103 17.2901C9.00151 17.431 9.31286 17.501 9.62501 17.501C9.93635 17.501 10.2477 17.431 10.5374 17.291L15.6705 14.8143C16.3863 14.471 16.8493 13.7393 16.8501 12.9493V7.0468C16.8493 6.69013 16.7442 6.35096 16.5741 6.04846V6.04846Z" fill="white"/>
</mask>
<g mask="url(#mask0_3211_73577)">
<rect width="19.2584" height="20" fill="#8E897C"/>
</g>
</svg>