<svg width="64" height="64" viewBox="0 0 64 64" fill="none" xmlns="http://www.w3.org/2000/svg">
<rect x="4" y="4" width="56" height="56" rx="28" fill="#E86B84"/>
<rect x="4" y="4" width="56" height="56" rx="28" stroke="#FCEDF0" stroke-width="8"/>
<path fill-rule="evenodd" clip-rule="evenodd" d="M37.3325 39C37.3325 39.551 36.9011 40 36.3696 40H26.7404C26.2088 40 25.7775 39.551 25.7775 39V28H37.3325V39ZM29.6291 24.328C29.6291 24.173 29.8352 24 30.1106 24H32.9994C33.2748 24 33.4808 24.173 33.4808 24.328V26H29.6291V24.328ZM40.2213 26H39.2583H35.4067V24.328C35.4067 23.044 34.3272 22 32.9994 22H30.1106C28.7827 22 27.7033 23.044 27.7033 24.328V26H23.8516H22.8887C22.3591 26 21.9258 26.45 21.9258 27C21.9258 27.55 22.3591 28 22.8887 28H23.8516V39C23.8516 40.654 25.1477 42 26.7404 42H36.3696C37.9622 42 39.2583 40.654 39.2583 39V28H40.2213C40.7509 28 41.1842 27.55 41.1842 27C41.1842 26.45 40.7509 26 40.2213 26Z" fill="white"/>
<mask id="mask0_9187_131725" style="mask-type:luminance" maskUnits="userSpaceOnUse" x="21" y="22" width="21" height="20">
<path fill-rule="evenodd" clip-rule="evenodd" d="M37.3325 39C37.3325 39.551 36.9011 40 36.3696 40H26.7404C26.2088 40 25.7775 39.551 25.7775 39V28H37.3325V39ZM29.6291 24.328C29.6291 24.173 29.8352 24 30.1106 24H32.9994C33.2748 24 33.4808 24.173 33.4808 24.328V26H29.6291V24.328ZM40.2213 26H39.2583H35.4067V24.328C35.4067 23.044 34.3272 22 32.9994 22H30.1106C28.7827 22 27.7033 23.044 27.7033 24.328V26H23.8516H22.8887C22.3591 26 21.9258 26.45 21.9258 27C21.9258 27.55 22.3591 28 22.8887 28H23.8516V39C23.8516 40.654 25.1477 42 26.7404 42H36.3696C37.9622 42 39.2583 40.654 39.2583 39V28H40.2213C40.7509 28 41.1842 27.55 41.1842 27C41.1842 26.45 40.7509 26 40.2213 26Z" fill="white"/>
</mask>
<g mask="url(#mask0_9187_131725)">
<rect x="20" y="20" width="23.1101" height="24" fill="white"/>
</g>
</svg>
