<svg width="12" height="13" viewBox="0 0 12 13" fill="none" xmlns="http://www.w3.org/2000/svg">
<g clip-path="url(#clip0_14_104669)">
<path d="M8.31 3.60408C8.25824 3.5631 8.19887 3.53278 8.13533 3.51486C8.07179 3.49694 8.00533 3.49179 7.93979 3.49969C7.87424 3.50759 7.81091 3.5284 7.75345 3.5609C7.69599 3.59341 7.64553 3.63697 7.605 3.68908L4.105 8.18908L2.39 6.09908C2.34977 6.04553 2.29919 6.00061 2.24127 5.96698C2.18335 5.93336 2.11926 5.91171 2.05282 5.90333C1.98637 5.89494 1.91891 5.9 1.85445 5.91818C1.79 5.93637 1.72985 5.96732 1.67758 6.0092C1.62532 6.05108 1.582 6.10304 1.55019 6.16198C1.51839 6.22092 1.49876 6.28566 1.49245 6.35233C1.48615 6.41901 1.49331 6.48628 1.5135 6.55013C1.53369 6.61399 1.56651 6.67314 1.61 6.72408L3.695 9.31408C3.74206 9.37209 3.80152 9.41882 3.869 9.45083C3.93649 9.48285 4.0103 9.49933 4.085 9.49908C4.16429 9.50262 4.24328 9.48723 4.31544 9.45419C4.38761 9.42115 4.45087 9.37141 4.5 9.30908L8.415 4.30908C8.45491 4.25609 8.48388 4.19569 8.50022 4.1314C8.51656 4.0671 8.51995 4.0002 8.51017 3.93458C8.5004 3.86897 8.47767 3.80595 8.4433 3.74921C8.40893 3.69247 8.36362 3.64313 8.31 3.60408Z" fill="#212131"/>
<path d="M8.31 3.60408C8.25824 3.5631 8.19887 3.53278 8.13533 3.51486C8.07179 3.49694 8.00533 3.49179 7.93979 3.49969C7.87424 3.50759 7.81091 3.5284 7.75345 3.5609C7.69599 3.59341 7.64553 3.63697 7.605 3.68908L4.105 8.18908L2.39 6.09908C2.34977 6.04553 2.29919 6.00061 2.24127 5.96698C2.18335 5.93336 2.11926 5.91171 2.05282 5.90333C1.98637 5.89494 1.91891 5.9 1.85445 5.91818C1.79 5.93637 1.72985 5.96732 1.67758 6.0092C1.62532 6.05108 1.582 6.10304 1.55019 6.16198C1.51839 6.22092 1.49876 6.28566 1.49245 6.35233C1.48615 6.41901 1.49331 6.48628 1.5135 6.55013C1.53369 6.61399 1.56651 6.67314 1.61 6.72408L3.695 9.31408C3.74206 9.37209 3.80152 9.41882 3.869 9.45083C3.93649 9.48285 4.0103 9.49933 4.085 9.49908C4.16429 9.50262 4.24328 9.48723 4.31544 9.45419C4.38761 9.42115 4.45087 9.37141 4.5 9.30908L8.415 4.30908C8.45491 4.25609 8.48388 4.19569 8.50022 4.1314C8.51656 4.0671 8.51995 4.0002 8.51017 3.93458C8.5004 3.86897 8.47767 3.80595 8.4433 3.74921C8.40893 3.69247 8.36362 3.64313 8.31 3.60408Z" fill="black" fill-opacity="0.2"/>
<path d="M10.8099 3.60408C10.7582 3.5631 10.6988 3.53278 10.6353 3.51486C10.5717 3.49694 10.5053 3.49179 10.4397 3.49969C10.3742 3.50759 10.3108 3.5284 10.2534 3.5609C10.1959 3.59341 10.1455 3.63697 10.1049 3.68908L6.60492 8.18908L6.29992 7.81408L5.66992 8.62408L6.21992 9.30908C6.26698 9.36709 6.32644 9.41382 6.39393 9.44583C6.46142 9.47785 6.53522 9.49433 6.60992 9.49408C6.68502 9.49373 6.75908 9.47647 6.8266 9.44358C6.89412 9.41068 6.95336 9.363 6.99992 9.30408L10.9149 4.30408C10.9541 4.25125 10.9824 4.19121 10.9983 4.12742C11.0142 4.06362 11.0174 3.99732 11.0076 3.9323C10.9979 3.86728 10.9754 3.80482 10.9415 3.7485C10.9075 3.69218 10.8628 3.6431 10.8099 3.60408Z" fill="#212131"/>
<path d="M10.8099 3.60408C10.7582 3.5631 10.6988 3.53278 10.6353 3.51486C10.5717 3.49694 10.5053 3.49179 10.4397 3.49969C10.3742 3.50759 10.3108 3.5284 10.2534 3.5609C10.1959 3.59341 10.1455 3.63697 10.1049 3.68908L6.60492 8.18908L6.29992 7.81408L5.66992 8.62408L6.21992 9.30908C6.26698 9.36709 6.32644 9.41382 6.39393 9.44583C6.46142 9.47785 6.53522 9.49433 6.60992 9.49408C6.68502 9.49373 6.75908 9.47647 6.8266 9.44358C6.89412 9.41068 6.95336 9.363 6.99992 9.30408L10.9149 4.30408C10.9541 4.25125 10.9824 4.19121 10.9983 4.12742C11.0142 4.06362 11.0174 3.99732 11.0076 3.9323C10.9979 3.86728 10.9754 3.80482 10.9415 3.7485C10.9075 3.69218 10.8628 3.6431 10.8099 3.60408Z" fill="black" fill-opacity="0.2"/>
<path d="M4.35491 7.0319L4.99991 6.2219L4.89991 6.1019C4.86044 6.04721 4.8103 6.00107 4.75253 5.96626C4.69476 5.93145 4.63054 5.90869 4.56375 5.89935C4.49695 5.89001 4.42895 5.89428 4.36385 5.9119C4.29874 5.92952 4.23787 5.96014 4.18491 6.0019C4.13355 6.04316 4.09084 6.09417 4.05926 6.15198C4.02767 6.2098 4.00782 6.27329 4.00085 6.33881C3.99388 6.40432 3.99993 6.47057 4.01865 6.53374C4.03736 6.59691 4.06838 6.65575 4.10991 6.7069L4.35491 7.0319Z" fill="#212131"/>
<path d="M4.35491 7.0319L4.99991 6.2219L4.89991 6.1019C4.86044 6.04721 4.8103 6.00107 4.75253 5.96626C4.69476 5.93145 4.63054 5.90869 4.56375 5.89935C4.49695 5.89001 4.42895 5.89428 4.36385 5.9119C4.29874 5.92952 4.23787 5.96014 4.18491 6.0019C4.13355 6.04316 4.09084 6.09417 4.05926 6.15198C4.02767 6.2098 4.00782 6.27329 4.00085 6.33881C3.99388 6.40432 3.99993 6.47057 4.01865 6.53374C4.03736 6.59691 4.06838 6.65575 4.10991 6.7069L4.35491 7.0319Z" fill="black" fill-opacity="0.2"/>
</g>
<defs>
<clipPath id="clip0_14_104669">
<rect width="12" height="12" fill="white" transform="translate(0 0.5)"/>
</clipPath>
</defs>
</svg>
