<svg width="16" height="16" viewBox="0 0 16 16" fill="none" xmlns="http://www.w3.org/2000/svg">
<path d="M12.0026 6.0026C12.0026 5.26727 11.4046 4.66927 10.6693 4.66927H9.71327L8.10127 1.98327C7.98247 1.78629 7.81492 1.62324 7.61477 1.50985C7.41463 1.39647 7.18864 1.33657 6.9586 1.33594H3.33594V2.66927H6.9586L8.1586 4.66927H2.66927C1.93394 4.66927 1.33594 5.26727 1.33594 6.0026V12.0026C1.33594 12.7379 1.93394 13.3359 2.66927 13.3359H10.6693C11.4046 13.3359 12.0026 12.7379 12.0026 12.0026V10.0026L14.6693 11.3359V6.66927L12.0026 8.0026V6.0026ZM7.33594 11.3359H3.33594V10.0026H7.33594V11.3359Z" fill="#777777"/>
</svg>
