<svg width="16" height="16" viewBox="0 0 16 16" fill="none" xmlns="http://www.w3.org/2000/svg">
<path d="M6.30859 2.8906C7.16193 1.9446 8.49926 1.33594 10.0019 1.33594C12.5793 1.33594 14.6686 3.1266 14.6686 5.33594C14.6686 6.66194 13.9153 7.83727 12.7566 8.56527C12.7277 8.58295 12.6984 8.59984 12.6686 8.61594V11.3159C12.6686 11.4487 12.629 11.5784 12.5548 11.6885C12.4806 11.7985 12.3753 11.884 12.2522 11.9338C12.1292 11.9836 11.9941 11.9956 11.8643 11.9682C11.7344 11.9408 11.6156 11.8752 11.5233 11.7799L10.7633 10.9973C11.4759 10.1546 11.8953 9.11994 11.8953 8.00194C11.8953 5.2906 9.42993 3.07194 6.30859 2.8906Z" fill="#777777"/>
<path d="M6.92594 11.9279L4.48127 14.4479C4.38888 14.5432 4.27015 14.6088 4.14028 14.6362C4.0104 14.6636 3.87531 14.6516 3.75228 14.6018C3.62926 14.5519 3.52392 14.4665 3.44974 14.3564C3.37557 14.2464 3.33594 14.1166 3.33594 13.9839V11.2839C3.30615 11.2678 3.27681 11.2509 3.24794 11.2332C2.0886 10.5052 1.33594 9.32991 1.33594 8.00391C1.33594 5.79457 3.42527 4.00391 6.0026 4.00391C8.57994 4.00391 10.6693 5.79457 10.6693 8.00391C10.6693 9.82124 9.25527 11.3559 7.3186 11.8426C7.18881 11.8758 7.05783 11.9043 6.92594 11.9279Z" fill="#777777"/>
</svg>
