<svg width="16" height="16" viewBox="0 0 16 16" fill="none" xmlns="http://www.w3.org/2000/svg">
<path d="M2.40156 4.79922C2.40156 4.58705 2.48585 4.38356 2.63588 4.23353C2.78591 4.0835 2.98939 3.99922 3.20156 3.99922H3.60156C3.70765 3.99922 3.80939 3.95708 3.8844 3.88206C3.95942 3.80705 4.00156 3.70531 4.00156 3.59922C4.00156 3.49313 3.95942 3.39139 3.8844 3.31638C3.80939 3.24136 3.70765 3.19922 3.60156 3.19922H3.20156C2.77722 3.19922 2.37025 3.36779 2.07019 3.66785C1.77013 3.96791 1.60156 4.37487 1.60156 4.79922V5.19922C1.60156 5.30531 1.64371 5.40705 1.71872 5.48206C1.79373 5.55708 1.89548 5.59922 2.00156 5.59922C2.10765 5.59922 2.20939 5.55708 2.28441 5.48206C2.35942 5.40705 2.40156 5.30531 2.40156 5.19922V4.79922ZM3.20156 11.9992C2.98939 11.9992 2.78591 11.9149 2.63588 11.7649C2.48585 11.6149 2.40156 11.4114 2.40156 11.1992V10.7992C2.40156 10.6931 2.35942 10.5914 2.28441 10.5164C2.20939 10.4414 2.10765 10.3992 2.00156 10.3992C1.89548 10.3992 1.79373 10.4414 1.71872 10.5164C1.64371 10.5914 1.60156 10.6931 1.60156 10.7992V11.1992C1.60156 11.6236 1.77013 12.0305 2.07019 12.3306C2.37025 12.6306 2.77722 12.7992 3.20156 12.7992H3.60156C3.70765 12.7992 3.80939 12.7571 3.8844 12.6821C3.95942 12.607 4.00156 12.5053 4.00156 12.3992C4.00156 12.2931 3.95942 12.1914 3.8844 12.1164C3.80939 12.0414 3.70765 11.9992 3.60156 11.9992H3.20156ZM2.00156 6.39922C2.10765 6.39922 2.20939 6.44136 2.28441 6.51638C2.35942 6.59139 2.40156 6.69313 2.40156 6.79922V9.19922C2.40156 9.30531 2.35942 9.40705 2.28441 9.48206C2.20939 9.55708 2.10765 9.59922 2.00156 9.59922C1.89548 9.59922 1.79373 9.55708 1.71872 9.48206C1.64371 9.40705 1.60156 9.30531 1.60156 9.19922V6.79922C1.60156 6.69313 1.64371 6.59139 1.71872 6.51638C1.79373 6.44136 1.89548 6.39922 2.00156 6.39922ZM5.20156 3.19922C5.09548 3.19922 4.99373 3.24136 4.91872 3.31638C4.84371 3.39139 4.80156 3.49313 4.80156 3.59922C4.80156 3.70531 4.84371 3.80705 4.91872 3.88206C4.99373 3.95708 5.09548 3.99922 5.20156 3.99922H6.80156C6.90765 3.99922 7.00939 3.95708 7.08441 3.88206C7.15942 3.80705 7.20156 3.70531 7.20156 3.59922C7.20156 3.49313 7.15942 3.39139 7.08441 3.31638C7.00939 3.24136 6.90765 3.19922 6.80156 3.19922H5.20156ZM4.80156 12.3992C4.80156 12.2931 4.84371 12.1914 4.91872 12.1164C4.99373 12.0414 5.09548 11.9992 5.20156 11.9992H6.80156C6.90765 11.9992 7.00939 12.0414 7.08441 12.1164C7.15942 12.1914 7.20156 12.2931 7.20156 12.3992C7.20156 12.5053 7.15942 12.607 7.08441 12.6821C7.00939 12.7571 6.90765 12.7992 6.80156 12.7992H5.20156C5.09548 12.7992 4.99373 12.7571 4.91872 12.6821C4.84371 12.607 4.80156 12.5053 4.80156 12.3992ZM9.60156 6.79922V3.19922H8.40156C8.29548 3.19922 8.19373 3.24136 8.11872 3.31638C8.0437 3.39139 8.00156 3.49313 8.00156 3.59922V12.3992C8.00156 12.5053 8.0437 12.607 8.11872 12.6821C8.19373 12.7571 8.29548 12.7992 8.40156 12.7992H12.8016C13.2259 12.7992 13.6329 12.6306 13.9329 12.3306C14.233 12.0305 14.4016 11.6236 14.4016 11.1992V7.99922H10.8016C10.4833 7.99922 10.1781 7.87279 9.95303 7.64775C9.72799 7.4227 9.60156 7.11748 9.60156 6.79922ZM10.4016 6.79922V3.24562C10.5952 3.30162 10.7736 3.40562 10.9184 3.55042L14.0504 6.68242C14.1952 6.82722 14.2992 7.00562 14.3544 7.19922H10.8016C10.6955 7.19922 10.5937 7.15708 10.5187 7.08206C10.4437 7.00705 10.4016 6.90531 10.4016 6.79922Z" fill="#777777"/>
</svg>
