<svg width="16" height="16" viewBox="0 0 16 16" fill="none" xmlns="http://www.w3.org/2000/svg">
<g clip-path="url(#clip0_6991_161420)">
<path d="M13.6049 10.8993C12.8907 10.1256 12.0241 9.50805 11.0595 9.0857C10.095 8.66335 9.0534 8.44531 8.00043 8.44531C6.94746 8.44531 5.9059 8.66335 4.94135 9.0857C3.97679 9.50805 3.11015 10.1256 2.39599 10.8993C2.28573 11.0213 2.22405 11.1794 2.22266 11.3438V14.0104C2.22499 14.1857 2.29626 14.353 2.42103 14.4761C2.54581 14.5992 2.71404 14.6682 2.88932 14.6682H13.1115C13.2884 14.6682 13.4579 14.598 13.5829 14.473C13.708 14.3479 13.7782 14.1784 13.7782 14.0016V11.3349C13.7747 11.1736 13.7131 11.019 13.6049 10.8993Z" fill="#777777"/>
<path d="M8.00174 7.55425C9.71996 7.55425 11.1128 6.16136 11.1128 4.44314C11.1128 2.72492 9.71996 1.33203 8.00174 1.33203C6.28352 1.33203 4.89062 2.72492 4.89062 4.44314C4.89062 6.16136 6.28352 7.55425 8.00174 7.55425Z" fill="#777777"/>
</g>
<defs>
<clipPath id="clip0_6991_161420">
<rect width="16" height="16" fill="white"/>
</clipPath>
</defs>
</svg>
