<svg width="16" height="16" viewBox="0 0 16 16" fill="none" xmlns="http://www.w3.org/2000/svg">
<path d="M8.99245 3.65104C9.72578 3.65104 10.3258 3.05104 10.3258 2.31771C10.3258 1.58437 9.72578 0.984375 8.99245 0.984375C8.25911 0.984375 7.65911 1.58437 7.65911 2.31771C7.65911 3.05104 8.25911 3.65104 8.99245 3.65104ZM6.59245 12.9177L7.25911 9.98437L8.65911 11.3177V15.3177H9.99245V10.3177L8.59245 8.98437L8.99245 6.98437C9.85911 7.98437 11.1924 8.65104 12.6591 8.65104V7.31771C11.3924 7.31771 10.3258 6.65104 9.79245 5.71771L9.12578 4.65104C8.85911 4.25104 8.45911 3.98437 7.99245 3.98437C7.79245 3.98437 7.65911 4.05104 7.45911 4.05104L3.99245 5.51771V8.65104H5.32578V6.38438L6.52578 5.91771L5.45911 11.3177L2.19245 10.651L1.92578 11.9844L6.59245 12.9177Z" fill="#777777"/>
</svg>
