<svg width="16" height="16" viewBox="0 0 16 16" fill="none" xmlns="http://www.w3.org/2000/svg">
<path d="M12.6693 2H3.33594C2.8055 2 2.2968 2.21071 1.92172 2.58579C1.54665 2.96086 1.33594 3.46957 1.33594 4V14C1.33614 14.1181 1.36773 14.2341 1.42747 14.336C1.48721 14.4379 1.57296 14.5221 1.67594 14.58C1.77557 14.6365 1.88808 14.6663 2.0026 14.6667C2.12226 14.6666 2.2397 14.6344 2.3426 14.5733L5.33594 12.76C5.44658 12.6941 5.57393 12.6617 5.7026 12.6667H12.6693C13.1997 12.6667 13.7084 12.456 14.0835 12.0809C14.4586 11.7058 14.6693 11.1971 14.6693 10.6667V4C14.6693 3.46957 14.4586 2.96086 14.0835 2.58579C13.7084 2.21071 13.1997 2 12.6693 2ZM5.33594 8C5.20408 8 5.07519 7.9609 4.96556 7.88765C4.85592 7.81439 4.77048 7.71027 4.72002 7.58846C4.66956 7.46664 4.65636 7.33259 4.68208 7.20327C4.7078 7.07395 4.7713 6.95516 4.86453 6.86193C4.95777 6.76869 5.07656 6.7052 5.20588 6.67948C5.3352 6.65375 5.46924 6.66696 5.59106 6.71741C5.71288 6.76787 5.817 6.85332 5.89025 6.96295C5.9635 7.07259 6.0026 7.20148 6.0026 7.33333C6.0026 7.51014 5.93237 7.67971 5.80734 7.80474C5.68232 7.92976 5.51275 8 5.33594 8ZM8.0026 8C7.87075 8 7.74186 7.9609 7.63222 7.88765C7.52259 7.81439 7.43714 7.71027 7.38668 7.58846C7.33623 7.46664 7.32302 7.33259 7.34875 7.20327C7.37447 7.07395 7.43796 6.95516 7.5312 6.86193C7.62443 6.76869 7.74322 6.7052 7.87254 6.67948C8.00186 6.65375 8.13591 6.66696 8.25773 6.71741C8.37954 6.76787 8.48366 6.85332 8.55692 6.96295C8.63017 7.07259 8.66927 7.20148 8.66927 7.33333C8.66927 7.51014 8.59903 7.67971 8.47401 7.80474C8.34898 7.92976 8.17941 8 8.0026 8ZM10.6693 8C10.5374 8 10.4085 7.9609 10.2989 7.88765C10.1893 7.81439 10.1038 7.71027 10.0534 7.58846C10.0029 7.46664 9.98969 7.33259 10.0154 7.20327C10.0411 7.07395 10.1046 6.95516 10.1979 6.86193C10.2911 6.76869 10.4099 6.7052 10.5392 6.67948C10.6685 6.65375 10.8026 6.66696 10.9244 6.71741C11.0462 6.76787 11.1503 6.85332 11.2236 6.96295C11.2968 7.07259 11.3359 7.20148 11.3359 7.33333C11.3359 7.51014 11.2657 7.67971 11.1407 7.80474C11.0157 7.92976 10.8461 8 10.6693 8Z" fill="#777777"/>
</svg>
