<svg width="16" height="16" viewBox="0 0 16 16" fill="none" xmlns="http://www.w3.org/2000/svg">
<path d="M12.345 6.72012C12.345 7.21212 11.9284 7.61146 11.4144 7.61146C10.901 7.61146 10.4844 7.21212 10.4844 6.72012C10.4844 6.22746 10.901 5.82812 11.4144 5.82812C11.9277 5.82812 12.345 6.22746 12.345 6.72012Z" fill="#777777"/>
<path fill-rule="evenodd" clip-rule="evenodd" d="M12.0266 3.68842C11.3199 3.59709 10.4173 3.59709 9.27794 3.59776H6.72727C5.58727 3.59776 4.6846 3.59776 3.9786 3.68842C3.25194 3.78176 2.6626 3.97976 2.1986 4.42442C1.7346 4.86909 1.52927 5.43309 1.4306 6.13042C1.33594 6.80709 1.33594 7.67242 1.33594 8.76509V8.83176C1.33594 9.92509 1.33594 10.7898 1.4306 11.4671C1.5286 12.1644 1.7346 12.7284 2.1986 13.1731C2.6626 13.6178 3.25194 13.8151 3.9786 13.9091C4.68527 13.9998 5.58794 13.9998 6.72727 13.9998H9.27794C10.4179 13.9998 11.3206 13.9998 12.0266 13.9091C12.7533 13.8158 13.3426 13.6178 13.8066 13.1731C14.2706 12.7284 14.4766 12.1638 14.5746 11.4671C14.6693 10.7898 14.6693 9.92442 14.6693 8.83242V8.76576C14.6693 7.67242 14.6693 6.80776 14.5746 6.13042C14.4766 5.43309 14.2706 4.86909 13.8066 4.42442C13.3426 3.97976 12.7533 3.78242 12.0266 3.68842ZM4.1026 4.57242C3.4786 4.65242 3.11927 4.80309 2.85594 5.05509C2.59394 5.30642 2.4366 5.65109 2.3526 6.24909C2.28594 6.72909 2.2706 7.32842 2.26727 8.11242L2.5806 7.84909C3.3306 7.22109 4.45994 7.25709 5.16394 7.93176L7.82394 10.4818C7.95577 10.6061 8.1259 10.6819 8.30648 10.697C8.48706 10.712 8.66738 10.6653 8.81794 10.5644L9.00327 10.4398C9.43803 10.149 9.95573 10.008 10.4779 10.0381C11 10.0682 11.4981 10.2677 11.8966 10.6064L13.5013 11.9911C13.5666 11.8151 13.6166 11.6051 13.6526 11.3484C13.7379 10.7378 13.7393 9.93242 13.7393 8.79909C13.7393 7.66576 13.7379 6.85976 13.6526 6.24909C13.5686 5.65109 13.4113 5.30642 13.1486 5.05509C12.8866 4.80309 12.5266 4.65242 11.9026 4.57242C11.2653 4.48976 10.4253 4.48909 9.2426 4.48909H6.76261C5.57994 4.48909 4.73994 4.48976 4.1026 4.57242Z" fill="#777777"/>
<path opacity="0.5" d="M11.3946 1.7413C10.8213 1.66797 10.0913 1.66797 9.18131 1.66797H7.12131C6.21198 1.66797 5.48198 1.66797 4.90931 1.7413C4.31598 1.81797 3.82065 1.97997 3.42798 2.35464C3.21127 2.56265 3.04601 2.8183 2.94531 3.1013C3.28131 2.94797 3.66131 2.8573 4.08798 2.8013C4.81131 2.70797 5.73465 2.70797 6.90131 2.70797H9.51131C10.6773 2.70797 11.6006 2.70797 12.324 2.8013C12.6966 2.84997 13.0333 2.9253 13.3373 3.0453C13.2356 2.7843 13.0779 2.54878 12.8753 2.3553C12.4826 1.97997 11.988 1.81797 11.3946 1.74197V1.7413Z" fill="#777777"/>
</svg>
