<svg width="21" height="20" viewBox="0 0 21 20" fill="none" xmlns="http://www.w3.org/2000/svg">
<path d="M6.67084 11.6663L8.16825 9.86942C8.76162 9.15742 9.0583 8.80134 9.44859 8.80134C9.83892 8.80134 10.1356 9.15742 10.729 9.86942L10.946 10.1299C11.5394 10.8419 11.8361 11.198 12.2264 11.198C12.6167 11.198 12.9134 10.8419 13.5068 10.1299L15.0042 8.33301" stroke="#212131" stroke-width="1.125" stroke-linecap="round"/>
<path d="M6.67084 11.6663L8.16825 9.86942C8.76162 9.15742 9.0583 8.80134 9.44859 8.80134C9.83892 8.80134 10.1356 9.15742 10.729 9.86942L10.946 10.1299C11.5394 10.8419 11.8361 11.198 12.2264 11.198C12.6167 11.198 12.9134 10.8419 13.5068 10.1299L15.0042 8.33301" stroke="black" stroke-opacity="0.2" stroke-width="1.125" stroke-linecap="round"/>
<path d="M19.1709 10.0003C19.1709 13.9287 19.1709 15.8929 17.9505 17.1132C16.7301 18.3337 14.7659 18.3337 10.8375 18.3337C6.90917 18.3337 4.94499 18.3337 3.7246 17.1132C2.50421 15.8929 2.50421 13.9287 2.50421 10.0003C2.50421 6.07195 2.50421 4.10777 3.7246 2.88738C4.94499 1.66699 6.90917 1.66699 10.8375 1.66699C14.7659 1.66699 16.7301 1.66699 17.9505 2.88738C18.762 3.69883 19.0339 4.83912 19.125 6.66699" stroke="#212131" stroke-width="1.125" stroke-linecap="round"/>
<path d="M19.1709 10.0003C19.1709 13.9287 19.1709 15.8929 17.9505 17.1132C16.7301 18.3337 14.7659 18.3337 10.8375 18.3337C6.90917 18.3337 4.94499 18.3337 3.7246 17.1132C2.50421 15.8929 2.50421 13.9287 2.50421 10.0003C2.50421 6.07195 2.50421 4.10777 3.7246 2.88738C4.94499 1.66699 6.90917 1.66699 10.8375 1.66699C14.7659 1.66699 16.7301 1.66699 17.9505 2.88738C18.762 3.69883 19.0339 4.83912 19.125 6.66699" stroke="black" stroke-opacity="0.2" stroke-width="1.125" stroke-linecap="round"/>
</svg>
