<svg width="16" height="16" viewBox="0 0 16 16" fill="none" xmlns="http://www.w3.org/2000/svg">
<path fill-rule="evenodd" clip-rule="evenodd" d="M12.6681 2.6836C13.0347 2.6856 13.3314 2.98293 13.3314 3.3496L13.3334 6.66626C13.3341 7.03426 13.0354 7.3336 12.6674 7.3336H12.6667C12.2987 7.3336 12.0007 7.03493 12.0001 6.6676L11.9987 4.94426L9.80474 7.13826C9.67474 7.26826 9.50407 7.3336 9.3334 7.3336C9.1634 7.3336 8.99274 7.26826 8.86207 7.13826C8.60207 6.8776 8.60207 6.4556 8.86207 6.1956L11.0487 4.00893L9.33074 4.00026C8.96207 3.99826 8.66474 3.6976 8.66674 3.33026C8.66874 2.96293 8.9674 2.66693 9.3334 2.66693H9.33674L12.6681 2.6836ZM6.19567 8.862C6.45634 8.60133 6.87767 8.60133 7.13834 8.862C7.399 9.12266 7.399 9.544 7.13834 9.80466L4.94367 11.9993L6.667 12C7.03567 12 7.33367 12.2987 7.33367 12.6673C7.333 13.0353 7.035 13.3333 6.667 13.3333H6.66634L3.34967 13.3313C2.983 13.3313 2.68567 13.0347 2.68367 12.668L2.667 9.33666C2.665 8.96866 2.96234 8.66866 3.33034 8.66666H3.33367C3.70034 8.66666 3.99834 8.96266 4.00034 9.33L4.009 11.0487L6.19567 8.862Z" fill="white"/>
<mask id="mask0_19_121389" style="mask-type:luminance" maskUnits="userSpaceOnUse" x="2" y="2" width="12" height="12">
<path fill-rule="evenodd" clip-rule="evenodd" d="M12.6681 2.6836C13.0347 2.6856 13.3314 2.98293 13.3314 3.3496L13.3334 6.66626C13.3341 7.03426 13.0354 7.3336 12.6674 7.3336H12.6667C12.2987 7.3336 12.0007 7.03493 12.0001 6.6676L11.9987 4.94426L9.80474 7.13826C9.67474 7.26826 9.50407 7.3336 9.3334 7.3336C9.1634 7.3336 8.99274 7.26826 8.86207 7.13826C8.60207 6.8776 8.60207 6.4556 8.86207 6.1956L11.0487 4.00893L9.33074 4.00026C8.96207 3.99826 8.66474 3.6976 8.66674 3.33026C8.66874 2.96293 8.9674 2.66693 9.3334 2.66693H9.33674L12.6681 2.6836ZM6.19567 8.862C6.45634 8.60133 6.87767 8.60133 7.13834 8.862C7.399 9.12266 7.399 9.544 7.13834 9.80466L4.94367 11.9993L6.667 12C7.03567 12 7.33367 12.2987 7.33367 12.6673C7.333 13.0353 7.035 13.3333 6.667 13.3333H6.66634L3.34967 13.3313C2.983 13.3313 2.68567 13.0347 2.68367 12.668L2.667 9.33666C2.665 8.96866 2.96234 8.66866 3.33034 8.66666H3.33367C3.70034 8.66666 3.99834 8.96266 4.00034 9.33L4.009 11.0487L6.19567 8.862Z" fill="white"/>
</mask>
<g mask="url(#mask0_19_121389)">
<rect width="16" height="16" fill="white"/>
</g>
</svg>
