<svg width="18" height="16" viewBox="0 0 18 16" fill="none" xmlns="http://www.w3.org/2000/svg">
<path fill-rule="evenodd" clip-rule="evenodd" d="M4.16889 2.66797H14.3605C14.7608 2.66797 15.0884 2.96797 15.0884 3.33464L15.0884 3.33572V4.66797C15.0884 5.03464 14.7608 5.33464 14.3605 5.33464C13.9601 5.33464 13.6325 5.03464 13.6325 4.66797V4.0013H4.89686V4.66797C4.89686 5.03464 4.56927 5.33464 4.16889 5.33464C3.7685 5.33464 3.44092 5.03464 3.44092 4.66797V3.33464C3.44092 2.96797 3.7685 2.66797 4.16889 2.66797ZM6.35352 9.33464C6.13149 9.33464 5.91383 9.24264 5.77042 9.06797C5.52873 8.7733 5.59425 8.3553 5.91601 8.13464L8.82789 6.13464C9.07977 5.9613 9.42628 5.95664 9.68325 6.12264L12.5951 7.99864C12.9242 8.21064 13.0035 8.62664 12.772 8.9273C12.5405 9.22797 12.087 9.3013 11.758 9.0893L9.99058 7.9507C9.99195 7.96741 9.99264 7.98428 9.99264 8.0013V13.3346C9.99264 13.7026 9.66724 14.0013 9.26467 14.0013C8.86211 14.0013 8.5367 13.7026 8.5367 13.3346V8.00142L6.78958 9.2013C6.65854 9.2913 6.50567 9.33464 6.35352 9.33464Z" fill="#231F20"/>
<mask id="mask0_2948_93632" style="mask-type:luminance" maskUnits="userSpaceOnUse" x="3" y="2" width="13" height="12">
<path fill-rule="evenodd" clip-rule="evenodd" d="M4.16889 2.66797H14.3605C14.7608 2.66797 15.0884 2.96797 15.0884 3.33464L15.0884 3.33572V4.66797C15.0884 5.03464 14.7608 5.33464 14.3605 5.33464C13.9601 5.33464 13.6325 5.03464 13.6325 4.66797V4.0013H4.89686V4.66797C4.89686 5.03464 4.56927 5.33464 4.16889 5.33464C3.7685 5.33464 3.44092 5.03464 3.44092 4.66797V3.33464C3.44092 2.96797 3.7685 2.66797 4.16889 2.66797ZM6.35352 9.33464C6.13149 9.33464 5.91383 9.24264 5.77042 9.06797C5.52873 8.7733 5.59425 8.3553 5.91601 8.13464L8.82789 6.13464C9.07977 5.9613 9.42628 5.95664 9.68325 6.12264L12.5951 7.99864C12.9242 8.21064 13.0035 8.62664 12.772 8.9273C12.5405 9.22797 12.087 9.3013 11.758 9.0893L9.99058 7.9507C9.99195 7.96741 9.99264 7.98428 9.99264 8.0013V13.3346C9.99264 13.7026 9.66724 14.0013 9.26467 14.0013C8.86211 14.0013 8.5367 13.7026 8.5367 13.3346V8.00142L6.78958 9.2013C6.65854 9.2913 6.50567 9.33464 6.35352 9.33464Z" fill="white"/>
</mask>
<g mask="url(#mask0_2948_93632)">
<rect x="0.528809" width="17.4713" height="16" fill="white"/>
</g>
</svg>
