<svg width="14" height="15" viewBox="0 0 14 15" fill="none" xmlns="http://www.w3.org/2000/svg">
<g clip-path="url(#clip0_14_104657)">
<mask id="mask0_14_104657" style="mask-type:luminance" maskUnits="userSpaceOnUse" x="0" y="0" width="14" height="15">
<path d="M14 0.5H0V14.5H14V0.5Z" fill="white"/>
</mask>
<g mask="url(#mask0_14_104657)">
<path d="M7 12.75C9.89952 12.75 12.25 10.3995 12.25 7.5C12.25 4.60051 9.89952 2.25 7 2.25C4.10051 2.25 1.75 4.60051 1.75 7.5C1.75 8.36777 1.96054 9.18642 2.33333 9.90753L1.75 12.75L4.59247 12.1667C5.31361 12.5395 6.13223 12.75 7 12.75Z" stroke="#212131" stroke-width="1.25" stroke-linecap="round" stroke-linejoin="round"/>
<path d="M7 12.75C9.89952 12.75 12.25 10.3995 12.25 7.5C12.25 4.60051 9.89952 2.25 7 2.25C4.10051 2.25 1.75 4.60051 1.75 7.5C1.75 8.36777 1.96054 9.18642 2.33333 9.90753L1.75 12.75L4.59247 12.1667C5.31361 12.5395 6.13223 12.75 7 12.75Z" stroke="black" stroke-opacity="0.2" stroke-width="1.25" stroke-linecap="round" stroke-linejoin="round"/>
<path d="M7 5.75V9.24998" stroke="#212131" stroke-width="1.25" stroke-linecap="round" stroke-linejoin="round"/>
<path d="M7 5.75V9.24998" stroke="black" stroke-opacity="0.2" stroke-width="1.25" stroke-linecap="round" stroke-linejoin="round"/>
<path d="M5.25 7.5H8.75" stroke="#212131" stroke-width="1.25" stroke-linecap="round" stroke-linejoin="round"/>
<path d="M5.25 7.5H8.75" stroke="black" stroke-opacity="0.2" stroke-width="1.25" stroke-linecap="round" stroke-linejoin="round"/>
</g>
</g>
<defs>
<clipPath id="clip0_14_104657">
<rect width="14" height="14" fill="white" transform="translate(0 0.5)"/>
</clipPath>
</defs>
</svg>
