<svg width="22" height="22" viewBox="0 0 22 22" fill="none" xmlns="http://www.w3.org/2000/svg">
<path d="M11.8912 6.97712H10.3223V13.1584L15.2904 16.0945L16.0748 14.8273L11.8912 12.3857V6.97712ZM16.9502 0.600098L21.7687 4.56127L20.43 6.14264L15.6083 2.18353L16.9502 0.600098ZM5.78621 0.600098L7.12706 2.1825L2.30751 6.14264L0.96875 4.56024L5.78621 0.600098ZM11.3682 2.85626C6.17006 2.85626 1.95504 7.00802 1.95504 12.1282C1.95504 17.2483 6.17006 21.4001 11.3682 21.4001C16.5664 21.4001 20.7814 17.2483 20.7814 12.1282C20.7814 7.00802 16.5664 2.85626 11.3682 2.85626ZM11.3682 19.3397C7.33102 19.3397 4.04686 16.1048 4.04686 12.1282C4.04686 8.15156 7.33102 4.91669 11.3682 4.91669C15.4054 4.91669 18.6896 8.15156 18.6896 12.1282C18.6896 16.1048 15.4054 19.3397 11.3682 19.3397Z" fill="white"/>
</svg>
