<svg width="27" height="26" viewBox="0 0 27 26" fill="none" xmlns="http://www.w3.org/2000/svg">
<path fill-rule="evenodd" clip-rule="evenodd" d="M19.1836 10.8344C19.1836 10.2364 18.6983 9.75108 18.1003 9.75108C17.5023 9.75108 17.0169 10.2364 17.0169 10.8344C17.0169 11.4324 17.5023 11.9177 18.1003 11.9177C18.6983 11.9177 19.1836 11.4324 19.1836 10.8344ZM13.7635 9.75108C14.3615 9.75108 14.8469 10.2364 14.8469 10.8344C14.8469 11.4324 14.3615 11.9177 13.7635 11.9177C13.1655 11.9177 12.6802 11.4324 12.6802 10.8344C12.6802 10.2364 13.1655 9.75108 13.7635 9.75108ZM9.4319 9.75108C10.0299 9.75108 10.5152 10.2364 10.5152 10.8344C10.5152 11.4324 10.0299 11.9177 9.4319 11.9177C8.8339 11.9177 8.34857 11.4324 8.34857 10.8344C8.34857 10.2364 8.8339 9.75108 9.4319 9.75108ZM5.09596 16.2507C5.09596 16.8477 5.58238 17.3341 6.17929 17.3341H17.4958C18.084 17.3341 18.6625 17.4944 19.1685 17.7977L22.4293 19.7542V5.41742C22.4293 4.8205 21.9429 4.33408 21.346 4.33408H6.17929C5.58238 4.33408 5.09596 4.8205 5.09596 5.41742V16.2507ZM6.18099 2.16699H21.3477C23.1395 2.16699 24.5977 3.62516 24.5977 5.41699V21.667C24.5977 22.057 24.3875 22.4177 24.0484 22.6095C23.8827 22.7037 23.6985 22.7503 23.5143 22.7503C23.3215 22.7503 23.1287 22.6994 22.9564 22.5954L18.0554 19.6552C17.8864 19.5534 17.6936 19.5003 17.4975 19.5003H6.18099C4.38915 19.5003 2.93099 18.0422 2.93099 16.2503V5.41699C2.93099 3.62516 4.38915 2.16699 6.18099 2.16699Z" fill="#231F20"/>
<mask id="mask0_3258_20624" style="mask-type:luminance" maskUnits="userSpaceOnUse" x="2" y="2" width="23" height="21">
<path fill-rule="evenodd" clip-rule="evenodd" d="M19.1836 10.8344C19.1836 10.2364 18.6983 9.75108 18.1003 9.75108C17.5023 9.75108 17.0169 10.2364 17.0169 10.8344C17.0169 11.4324 17.5023 11.9177 18.1003 11.9177C18.6983 11.9177 19.1836 11.4324 19.1836 10.8344ZM13.7635 9.75108C14.3615 9.75108 14.8469 10.2364 14.8469 10.8344C14.8469 11.4324 14.3615 11.9177 13.7635 11.9177C13.1655 11.9177 12.6802 11.4324 12.6802 10.8344C12.6802 10.2364 13.1655 9.75108 13.7635 9.75108ZM9.4319 9.75108C10.0299 9.75108 10.5152 10.2364 10.5152 10.8344C10.5152 11.4324 10.0299 11.9177 9.4319 11.9177C8.8339 11.9177 8.34857 11.4324 8.34857 10.8344C8.34857 10.2364 8.8339 9.75108 9.4319 9.75108ZM5.09596 16.2507C5.09596 16.8477 5.58238 17.3341 6.17929 17.3341H17.4958C18.084 17.3341 18.6625 17.4944 19.1685 17.7977L22.4293 19.7542V5.41742C22.4293 4.8205 21.9429 4.33408 21.346 4.33408H6.17929C5.58238 4.33408 5.09596 4.8205 5.09596 5.41742V16.2507ZM6.18099 2.16699H21.3477C23.1395 2.16699 24.5977 3.62516 24.5977 5.41699V21.667C24.5977 22.057 24.3875 22.4177 24.0484 22.6095C23.8827 22.7037 23.6985 22.7503 23.5143 22.7503C23.3215 22.7503 23.1287 22.6994 22.9564 22.5954L18.0554 19.6552C17.8864 19.5534 17.6936 19.5003 17.4975 19.5003H6.18099C4.38915 19.5003 2.93099 18.0422 2.93099 16.2503V5.41699C2.93099 3.62516 4.38915 2.16699 6.18099 2.16699Z" fill="white"/>
</mask>
<g mask="url(#mask0_3258_20624)">
<rect width="26" height="26" transform="matrix(-1 0 0 1 26.7656 0)" fill="white"/>
</g>
</svg>
