<svg width="35" height="34" viewBox="0 0 35 34" fill="none" xmlns="http://www.w3.org/2000/svg">
<g filter="url(#filter0_d_10218_120045)">
<path d="M22 23C22.5304 23 23.0391 23.2107 23.4142 23.5858C23.7893 23.9609 24 24.4696 24 25C24 24.4696 24.2107 23.9609 24.5858 23.5858C24.9609 23.2107 25.4696 23 26 23C25.4696 23 24.9609 22.7893 24.5858 22.4142C24.2107 22.0391 24 21.5304 24 21C24 21.5304 23.7893 22.0391 23.4142 22.4142C23.0391 22.7893 22.5304 23 22 23ZM22 11C22.5304 11 23.0391 11.2107 23.4142 11.5858C23.7893 11.9609 24 12.4696 24 13C24 12.4696 24.2107 11.9609 24.5858 11.5858C24.9609 11.2107 25.4696 11 26 11C25.4696 11 24.9609 10.7893 24.5858 10.4142C24.2107 10.0391 24 9.53043 24 9C24 9.53043 23.7893 10.0391 23.4142 10.4142C23.0391 10.7893 22.5304 11 22 11ZM15 23C15 21.4087 15.6321 19.8826 16.7574 18.7574C17.8826 17.6321 19.4087 17 21 17C19.4087 17 17.8826 16.3679 16.7574 15.2426C15.6321 14.1174 15 12.5913 15 11C15 12.5913 14.3679 14.1174 13.2426 15.2426C12.1174 16.3679 10.5913 17 9 17C10.5913 17 12.1174 17.6321 13.2426 18.7574C14.3679 19.8826 15 21.4087 15 23Z" stroke="white" stroke-linecap="round" stroke-linejoin="round" shape-rendering="crispEdges"/>
</g>
<defs>
<filter id="filter0_d_10218_120045" x="0.5" y="0.5" width="34" height="33" filterUnits="userSpaceOnUse" color-interpolation-filters="sRGB">
<feFlood flood-opacity="0" result="BackgroundImageFix"/>
<feColorMatrix in="SourceAlpha" type="matrix" values="0 0 0 0 0 0 0 0 0 0 0 0 0 0 0 0 0 0 127 0" result="hardAlpha"/>
<feOffset/>
<feGaussianBlur stdDeviation="4"/>
<feComposite in2="hardAlpha" operator="out"/>
<feColorMatrix type="matrix" values="0 0 0 0 1 0 0 0 0 1 0 0 0 0 1 0 0 0 0.35 0"/>
<feBlend mode="normal" in2="BackgroundImageFix" result="effect1_dropShadow_10218_120045"/>
<feBlend mode="normal" in="SourceGraphic" in2="effect1_dropShadow_10218_120045" result="shape"/>
</filter>
</defs>
</svg>
