<svg width="25" height="24" viewBox="0 0 25 24" fill="none" xmlns="http://www.w3.org/2000/svg">
<g clip-path="url(#clip0_19_124430)">
<path d="M8.8374 11V5.5C8.8374 5.10218 8.99544 4.72064 9.27674 4.43934C9.55805 4.15804 9.93958 4 10.3374 4C10.7352 4 11.1168 4.15804 11.3981 4.43934C11.6794 4.72064 11.8374 5.10218 11.8374 5.5V10" stroke="white" stroke-width="1.5" stroke-linecap="round" stroke-linejoin="round"/>
<path d="M11.8374 9.5V3.5C11.8374 3.10218 11.9954 2.72064 12.2767 2.43934C12.558 2.15804 12.9396 2 13.3374 2C13.7352 2 14.1168 2.15804 14.3981 2.43934C14.6794 2.72064 14.8374 3.10218 14.8374 3.5V10" stroke="white" stroke-width="1.5" stroke-linecap="round" stroke-linejoin="round"/>
<path d="M14.8374 5.5C14.8374 5.10218 14.9954 4.72064 15.2767 4.43934C15.558 4.15804 15.9396 4 16.3374 4C16.7352 4 17.1168 4.15804 17.3981 4.43934C17.6794 4.72064 17.8374 5.10218 17.8374 5.5V10" stroke="white" stroke-width="1.5" stroke-linecap="round" stroke-linejoin="round"/>
<path d="M17.8376 8.5C17.8376 8.10218 17.9956 7.72064 18.2769 7.43934C18.5582 7.15804 18.9398 7 19.3376 7C19.7354 7 20.1169 7.15804 20.3982 7.43934C20.6795 7.72064 20.8376 8.10218 20.8376 8.5V14C20.8376 15.5913 20.2054 17.1174 19.0802 18.2426C17.955 19.3679 16.4289 20 14.8376 20H12.8376H13.0456C12.0519 20.0002 11.0738 19.7535 10.199 19.2823C9.32417 18.811 8.5801 18.1299 8.03359 17.3L7.83759 17C7.52559 16.521 6.43059 14.612 4.55159 11.272C4.36004 10.9315 4.30887 10.5298 4.40897 10.1522C4.50907 9.77454 4.75253 9.45088 5.08759 9.25C5.44446 9.03587 5.86266 8.94712 6.27575 8.99785C6.68883 9.04858 7.07313 9.23588 7.36759 9.53L8.83759 11" stroke="white" stroke-width="1.5" stroke-linecap="round" stroke-linejoin="round"/>
</g>
<defs>
<clipPath id="clip0_19_124430">
<rect width="24" height="24" fill="white" transform="translate(0.837402)"/>
</clipPath>
</defs>
</svg>
