<svg width="18" height="16" viewBox="0 0 18 16" fill="none" xmlns="http://www.w3.org/2000/svg">
<path fill-rule="evenodd" clip-rule="evenodd" d="M8.52217 8.0506C8.5208 8.03389 8.52011 8.01702 8.52011 8V2.66667C8.52011 2.29867 8.84607 2 9.24933 2C9.6526 2 9.97856 2.29867 9.97856 2.66667V7.99988L11.7287 6.8C12.051 6.578 12.5082 6.63867 12.7496 6.93333C12.9917 7.228 12.9261 7.646 12.6038 7.86667L9.68687 9.86667C9.5578 9.95533 9.4032 10 9.24933 10C9.10276 10 8.95618 9.95933 8.83003 9.87867L5.91313 8.00267C5.58352 7.79067 5.50403 7.37467 5.73592 7.074C5.96782 6.77267 6.42213 6.7 6.75174 6.912L8.52217 8.0506ZM4.87398 11.3333V12H13.6247V11.3333C13.6247 10.9667 13.9528 10.6667 14.3539 10.6667C14.755 10.6667 15.0831 10.9667 15.0831 11.3333V12.6656L15.0831 12.6667C15.0831 13.0333 14.755 13.3333 14.3539 13.3333L4.14475 13.3333C3.79381 13.3333 3.4987 13.1036 3.43041 12.8006C3.42065 12.7573 3.41553 12.7125 3.41553 12.6667V11.3333C3.41553 10.9667 3.74368 10.6667 4.14475 10.6667C4.54583 10.6667 4.87398 10.9667 4.87398 11.3333Z" fill="#231F20"/>
<mask id="mask0_2948_93628" style="mask-type:luminance" maskUnits="userSpaceOnUse" x="3" y="2" width="13" height="12">
<path fill-rule="evenodd" clip-rule="evenodd" d="M8.52217 8.0506C8.5208 8.03389 8.52011 8.01702 8.52011 8V2.66667C8.52011 2.29867 8.84607 2 9.24933 2C9.6526 2 9.97856 2.29867 9.97856 2.66667V7.99988L11.7287 6.8C12.051 6.578 12.5082 6.63867 12.7496 6.93333C12.9917 7.228 12.9261 7.646 12.6038 7.86667L9.68687 9.86667C9.5578 9.95533 9.4032 10 9.24933 10C9.10276 10 8.95618 9.95933 8.83003 9.87867L5.91313 8.00267C5.58352 7.79067 5.50403 7.37467 5.73592 7.074C5.96782 6.77267 6.42213 6.7 6.75174 6.912L8.52217 8.0506ZM4.87398 11.3333V12H13.6247V11.3333C13.6247 10.9667 13.9528 10.6667 14.3539 10.6667C14.755 10.6667 15.0831 10.9667 15.0831 11.3333V12.6656L15.0831 12.6667C15.0831 13.0333 14.755 13.3333 14.3539 13.3333L4.14475 13.3333C3.79381 13.3333 3.4987 13.1036 3.43041 12.8006C3.42065 12.7573 3.41553 12.7125 3.41553 12.6667V11.3333C3.41553 10.9667 3.74368 10.6667 4.14475 10.6667C4.54583 10.6667 4.87398 10.9667 4.87398 11.3333Z" fill="white"/>
</mask>
<g mask="url(#mask0_2948_93628)">
<rect x="0.498535" width="17.5014" height="16" fill="white"/>
</g>
</svg>
