<svg width="12" height="13" viewBox="0 0 12 13" fill="none" xmlns="http://www.w3.org/2000/svg">
<path d="M11.5 12.5H0.5V11.5H1.7C0.9 9 2.5 8 3.55 7.3C4 7 4.45 6.75 4.45 6.5C4.45 6.25 4 5.95 3.55 5.7C2.5 5 0.9 4.05 1.7 1.5H0.5V0.5H11.5V1.5H10.3C11.1 4 9.5 5 8.45 5.7C7.95 5.95 7.5 6.25 7.5 6.5C7.5 6.75 7.95 7.05 8.4 7.3C9.45 8 11.05 9 10.25 11.5H11.5V12.5ZM2.8 11.5H9.2C10 9.5 8.95 8.85 7.9 8.15C7.2 7.75 6.5 7.3 6.5 6.5C6.5 5.7 7.2 5.25 7.9 4.85C8.95 4.15 10 3.5 9.2 1.5H2.8C2 3.5 3.05 4.15 4.1 4.85C4.8 5.25 5.5 5.7 5.5 6.5C5.5 7.3 4.8 7.75 4.1 8.15C3.05 8.85 2 9.5 2.8 11.5Z" fill="#212131"/>
<path d="M11.5 12.5H0.5V11.5H1.7C0.9 9 2.5 8 3.55 7.3C4 7 4.45 6.75 4.45 6.5C4.45 6.25 4 5.95 3.55 5.7C2.5 5 0.9 4.05 1.7 1.5H0.5V0.5H11.5V1.5H10.3C11.1 4 9.5 5 8.45 5.7C7.95 5.95 7.5 6.25 7.5 6.5C7.5 6.75 7.95 7.05 8.4 7.3C9.45 8 11.05 9 10.25 11.5H11.5V12.5ZM2.8 11.5H9.2C10 9.5 8.95 8.85 7.9 8.15C7.2 7.75 6.5 7.3 6.5 6.5C6.5 5.7 7.2 5.25 7.9 4.85C8.95 4.15 10 3.5 9.2 1.5H2.8C2 3.5 3.05 4.15 4.1 4.85C4.8 5.25 5.5 5.7 5.5 6.5C5.5 7.3 4.8 7.75 4.1 8.15C3.05 8.85 2 9.5 2.8 11.5Z" fill="black" fill-opacity="0.2"/>
<path d="M8.40007 11.9992H3.50007C3.35007 11.2492 3.60007 10.7992 4.65007 9.84922C5.05007 9.49922 5.55007 9.09922 6.00007 8.44922C6.50007 9.04922 7.00007 9.49922 7.35007 9.84922C8.40007 10.8492 8.65007 10.9992 8.40007 11.9992Z" fill="#212131"/>
<path d="M8.40007 11.9992H3.50007C3.35007 11.2492 3.60007 10.7992 4.65007 9.84922C5.05007 9.49922 5.55007 9.09922 6.00007 8.44922C6.50007 9.04922 7.00007 9.49922 7.35007 9.84922C8.40007 10.8492 8.65007 10.9992 8.40007 11.9992Z" fill="black" fill-opacity="0.2"/>
<path d="M4.70001 3.5C4.35001 4.15 4.35001 4.15 5.15001 4.55C5.40001 4.65 5.70001 4.8 5.95001 5C6.20001 4.8 6.55001 4.65 6.75001 4.55C7.60001 4.15 7.60001 4.15 7.25001 3.5" fill="#212131"/>
<path d="M4.70001 3.5C4.35001 4.15 4.35001 4.15 5.15001 4.55C5.40001 4.65 5.70001 4.8 5.95001 5C6.20001 4.8 6.55001 4.65 6.75001 4.55C7.60001 4.15 7.60001 4.15 7.25001 3.5" fill="black" fill-opacity="0.2"/>
</svg>
