<svg width="14" height="15" viewBox="0 0 14 15" fill="none" xmlns="http://www.w3.org/2000/svg">
<g clip-path="url(#clip0_12936_9968)">
<path d="M9.46274 4.14989V2.84303C9.91791 2.6689 10.2412 2.22827 10.2412 1.7119C10.2412 1.04314 9.69903 0.500977 9.03026 0.500977H4.96488C4.29612 0.500977 3.75392 1.04314 3.75392 1.7119C3.75392 2.22831 4.07724 2.6689 4.53241 2.84303V4.14989C2.89683 4.36078 1.63281 5.75761 1.63281 7.45061V11.1718C1.63281 13.0105 3.12338 14.501 4.9621 14.501H9.033C10.8718 14.501 12.3623 13.0104 12.3623 11.1718V7.45061C12.3623 5.75761 11.0983 4.36078 9.46274 4.14989ZM8.92165 10.8621H5.07337C4.05109 10.8621 3.22233 10.0334 3.22233 9.011C3.22233 7.98863 4.05109 7.15988 5.07341 7.15988H8.92169C9.94398 7.15988 10.7727 7.98863 10.7727 9.011C10.7727 10.0334 9.94398 10.8621 8.92165 10.8621Z" fill="black"/>
<path d="M4.69761 7.79297H4.68545C4.53686 7.79297 4.41602 7.91381 4.41602 8.06236V9.91213C4.41602 10.0607 4.5369 10.1815 4.68545 10.1815H4.69761C4.84615 10.1815 4.967 10.0607 4.967 9.91213V8.06236C4.96704 7.91381 4.84619 7.79297 4.69761 7.79297Z" fill="black"/>
<path d="M7.06033 7.79297H7.04805C6.89955 7.79297 6.77874 7.91381 6.77874 8.06236V9.11397L5.90019 7.90408C5.84961 7.83454 5.7681 7.79297 5.68227 7.79297H5.63275C5.48417 7.79297 5.36328 7.91381 5.36328 8.06236V9.91213C5.36328 10.0607 5.48417 10.1815 5.63275 10.1815H5.64483C5.79342 10.1815 5.9143 10.0607 5.9143 9.91213V8.86052L6.79273 10.0704C6.84328 10.1399 6.92482 10.1814 7.01078 10.1814H7.06029C7.2088 10.1814 7.32957 10.0606 7.32957 9.91209V8.06232C7.32968 7.91381 7.20884 7.79297 7.06033 7.79297Z" fill="black"/>
<path d="M9.52168 9.74217L8.83849 8.90185L9.44673 8.24552C9.51949 8.16687 9.53885 8.05266 9.49605 7.95447C9.45313 7.85635 9.35621 7.79297 9.24911 7.79297H9.23059C9.15556 7.79297 9.08348 7.82456 9.03257 7.87972L8.27364 8.70216V8.06236C8.27364 7.91382 8.15279 7.79297 8.00425 7.79297H7.99205C7.8435 7.79297 7.72266 7.91382 7.72266 8.06236V9.91213C7.72266 10.0607 7.8435 10.1815 7.99205 10.1815H8.00425C8.15279 10.1815 8.27364 10.0607 8.27364 9.91213V9.51327L8.45977 9.31136L9.08439 10.0818C9.13577 10.1452 9.21211 10.1816 9.29378 10.1816H9.31273C9.41621 10.1816 9.51162 10.1213 9.55609 10.028C9.60028 9.93442 9.58685 9.82228 9.52168 9.74217Z" fill="black"/>
</g>
<defs>
<clipPath id="clip0_12936_9968">
<rect width="14" height="14" fill="white" transform="translate(0 0.5)"/>
</clipPath>
</defs>
</svg>
