<svg width="16" height="16" viewBox="0 0 16 16" fill="none" xmlns="http://www.w3.org/2000/svg">
<g clip-path="url(#clip0_18_117436)">
<path d="M0.666702 12.5941C0.66674 12.7709 0.737003 12.9405 0.862036 13.0655L2.93337 15.1381C3.05839 15.2631 3.22793 15.3333 3.4047 15.3333C3.58148 15.3333 3.75102 15.2631 3.87604 15.1381L9.0587 9.95613L11.1334 7.88279C11.2584 7.75777 11.3286 7.58824 11.3286 7.41146C11.3286 7.23468 11.2584 7.06514 11.1334 6.94013L9.06004 4.86679C8.93502 4.74181 8.76548 4.6716 8.5887 4.6716C8.41193 4.6716 8.24239 4.74181 8.11737 4.86679L6.0447 6.93946L0.862036 12.1228C0.737003 12.2478 0.66674 12.4173 0.666702 12.5941ZM8.5887 6.28146L9.72204 7.41479L8.5887 8.54813L7.4587 7.41479L8.5887 6.28146ZM6.51604 8.35413L7.64937 9.48746L3.40937 13.7268L2.27937 12.5935L6.51604 8.35413ZM13.206 3.73679L12.1694 4.77346C12.0436 4.8949 11.8752 4.96209 11.7004 4.96058C11.5256 4.95906 11.3584 4.88894 11.2348 4.76534C11.1112 4.64173 11.0411 4.47453 11.0396 4.29973C11.0381 4.12493 11.1053 3.95653 11.2267 3.83079L12.2667 2.79413C12.3282 2.73045 12.4018 2.67967 12.4831 2.64473C12.5644 2.60979 12.6519 2.5914 12.7404 2.59063C12.829 2.58986 12.9167 2.60673 12.9987 2.64025C13.0806 2.67377 13.155 2.72327 13.2176 2.78586C13.2802 2.84846 13.3297 2.92289 13.3632 3.00482C13.3968 3.08676 13.4136 3.17454 13.4129 3.26306C13.4121 3.35158 13.3937 3.43906 13.3588 3.5204C13.3238 3.60173 13.273 3.6753 13.2094 3.73679H13.206ZM15.3334 7.93346C15.3334 8.11027 15.2631 8.27984 15.1381 8.40486C15.0131 8.52989 14.8435 8.60013 14.6667 8.60013H13.2C13.0232 8.60013 12.8537 8.52989 12.7286 8.40486C12.6036 8.27984 12.5334 8.11027 12.5334 7.93346C12.5334 7.75665 12.6036 7.58708 12.7286 7.46205C12.8537 7.33703 13.0232 7.26679 13.2 7.26679H14.6667C14.8435 7.26679 15.0131 7.33703 15.1381 7.46205C15.2631 7.58708 15.3334 7.75665 15.3334 7.93346ZM13.206 12.1261C13.2759 12.1858 13.3326 12.2593 13.3727 12.342C13.4127 12.4247 13.4353 12.5148 13.4389 12.6066C13.4425 12.6984 13.4271 12.79 13.3937 12.8755C13.3602 12.9611 13.3094 13.0388 13.2445 13.1039C13.1796 13.1689 13.1019 13.2198 13.0164 13.2534C12.9309 13.2869 12.8393 13.3025 12.7475 13.299C12.6557 13.2955 12.5656 13.2731 12.4828 13.2331C12.4001 13.1932 12.3265 13.1365 12.2667 13.0668L11.2267 12.0288C11.163 11.9673 11.1122 11.8937 11.0773 11.8124C11.0424 11.7311 11.024 11.6436 11.0232 11.5551C11.0224 11.4665 11.0393 11.3788 11.0728 11.2968C11.1063 11.2149 11.1558 11.1405 11.2184 11.0779C11.281 11.0153 11.3555 10.9658 11.4374 10.9322C11.5193 10.8987 11.6071 10.8819 11.6956 10.8826C11.7842 10.8834 11.8716 10.9018 11.953 10.9367C12.0343 10.9717 12.1079 11.0225 12.1694 11.0861L13.206 12.1261ZM3.87737 2.79413L4.91404 3.83079C4.97771 3.89229 5.0285 3.96585 5.06344 4.04719C5.09838 4.12853 5.11677 4.21601 5.11754 4.30453C5.11831 4.39305 5.10144 4.48083 5.06792 4.56276C5.0344 4.64469 4.98489 4.71913 4.9223 4.78172C4.8597 4.84432 4.78527 4.89382 4.70334 4.92734C4.62141 4.96086 4.53362 4.97773 4.4451 4.97696C4.35658 4.97619 4.2691 4.9578 4.18777 4.92286C4.10643 4.88792 4.03287 4.83713 3.97137 4.77346L2.93337 3.73679C2.87147 3.67481 2.82239 3.60124 2.78893 3.52029C2.75546 3.43934 2.73827 3.35259 2.73833 3.26499C2.73839 3.17739 2.75571 3.09067 2.78929 3.00976C2.82287 2.92886 2.87205 2.85536 2.93404 2.79346C2.99602 2.73156 3.06959 2.68248 3.15054 2.64902C3.23149 2.61555 3.31824 2.59836 3.40584 2.59842C3.49344 2.59848 3.58016 2.6158 3.66107 2.64938C3.74197 2.68296 3.81547 2.73214 3.87737 2.79413ZM8.0707 0.666794C8.24751 0.666794 8.41708 0.737032 8.54211 0.862056C8.66713 0.98708 8.73737 1.15665 8.73737 1.33346V2.80013C8.73737 2.97694 8.66713 3.14651 8.54211 3.27153C8.41708 3.39656 8.24751 3.46679 8.0707 3.46679C7.89389 3.46679 7.72432 3.39656 7.5993 3.27153C7.47427 3.14651 7.40404 2.97694 7.40404 2.80013V1.33346C7.40404 1.15665 7.47427 0.98708 7.5993 0.862056C7.72432 0.737032 7.89389 0.666794 8.0707 0.666794Z" fill="white"/>
</g>
<defs>
<clipPath id="clip0_18_117436">
<rect width="16" height="16" fill="white"/>
</clipPath>
</defs>
</svg>
