<svg width="20" height="21" viewBox="0 0 20 21" fill="none" xmlns="http://www.w3.org/2000/svg">
<path fill-rule="evenodd" clip-rule="evenodd" d="M5.61715 8.8737C5.61715 8.4137 5.97664 8.04036 6.41958 8.04036C6.86252 8.04036 7.22201 8.4137 7.22201 8.8737C7.22201 9.3337 6.86252 9.70703 6.41958 9.70703C5.97664 9.70703 5.61715 9.3337 5.61715 8.8737ZM9.62931 8.04036C9.18637 8.04036 8.82688 8.4137 8.82688 8.8737C8.82688 9.3337 9.18637 9.70703 9.62931 9.70703C10.0723 9.70703 10.4317 9.3337 10.4317 8.8737C10.4317 8.4137 10.0723 8.04036 9.62931 8.04036ZM12.839 8.04036C12.3961 8.04036 12.0366 8.4137 12.0366 8.8737C12.0366 9.3337 12.3961 9.70703 12.839 9.70703C13.282 9.70703 13.6415 9.3337 13.6415 8.8737C13.6415 8.4137 13.282 8.04036 12.839 8.04036ZM16.0488 13.0404C16.0488 13.4995 15.6885 13.8737 15.2463 13.8737H6.86413C6.42841 13.8737 5.99991 13.997 5.62517 14.2304L3.20985 15.7354V4.70703C3.20985 4.24786 3.57014 3.8737 4.01228 3.8737H15.2463C15.6885 3.8737 16.0488 4.24786 16.0488 4.70703V13.0404ZM15.2463 2.20703H4.01228C2.68506 2.20703 1.60498 3.3287 1.60498 4.70703V17.207C1.60498 17.507 1.76065 17.7845 2.01181 17.932C2.13459 18.0045 2.271 18.0404 2.40741 18.0404C2.55025 18.0404 2.69308 18.0012 2.82067 17.9212L6.45087 15.6595C6.57605 15.5812 6.71889 15.5404 6.86413 15.5404H15.2463C16.5736 15.5404 17.6536 14.4187 17.6536 13.0404V4.70703C17.6536 3.3287 16.5736 2.20703 15.2463 2.20703Z" fill="#6A6A75"/>
<mask id="mask0_13_66103" style="mask-type:luminance" maskUnits="userSpaceOnUse" x="1" y="2" width="17" height="17">
<path fill-rule="evenodd" clip-rule="evenodd" d="M5.61715 8.8737C5.61715 8.4137 5.97664 8.04036 6.41958 8.04036C6.86252 8.04036 7.22201 8.4137 7.22201 8.8737C7.22201 9.3337 6.86252 9.70703 6.41958 9.70703C5.97664 9.70703 5.61715 9.3337 5.61715 8.8737ZM9.62931 8.04036C9.18637 8.04036 8.82688 8.4137 8.82688 8.8737C8.82688 9.3337 9.18637 9.70703 9.62931 9.70703C10.0723 9.70703 10.4317 9.3337 10.4317 8.8737C10.4317 8.4137 10.0723 8.04036 9.62931 8.04036ZM12.839 8.04036C12.3961 8.04036 12.0366 8.4137 12.0366 8.8737C12.0366 9.3337 12.3961 9.70703 12.839 9.70703C13.282 9.70703 13.6415 9.3337 13.6415 8.8737C13.6415 8.4137 13.282 8.04036 12.839 8.04036ZM16.0488 13.0404C16.0488 13.4995 15.6885 13.8737 15.2463 13.8737H6.86413C6.42841 13.8737 5.99991 13.997 5.62517 14.2304L3.20985 15.7354V4.70703C3.20985 4.24786 3.57014 3.8737 4.01228 3.8737H15.2463C15.6885 3.8737 16.0488 4.24786 16.0488 4.70703V13.0404ZM15.2463 2.20703H4.01228C2.68506 2.20703 1.60498 3.3287 1.60498 4.70703V17.207C1.60498 17.507 1.76065 17.7845 2.01181 17.932C2.13459 18.0045 2.271 18.0404 2.40741 18.0404C2.55025 18.0404 2.69308 18.0012 2.82067 17.9212L6.45087 15.6595C6.57605 15.5812 6.71889 15.5404 6.86413 15.5404H15.2463C16.5736 15.5404 17.6536 14.4187 17.6536 13.0404V4.70703C17.6536 3.3287 16.5736 2.20703 15.2463 2.20703Z" fill="white"/>
</mask>
<g mask="url(#mask0_13_66103)">
<rect y="0.539062" width="19.2584" height="20" fill="#6A6A75"/>
</g>
</svg>
