<svg width="12" height="13" viewBox="0 0 12 13" fill="none" xmlns="http://www.w3.org/2000/svg">
<path d="M6 0.5C2.68551 0.5 0 3.18733 0 6.5C0 9.81267 2.68733 12.5 6 12.5C9.31449 12.5 12 9.81267 12 6.5C12 3.18733 9.31267 0.5 6 0.5ZM6 11.1691C3.42571 11.1691 1.33273 9.07612 1.33273 6.50182C1.33273 3.92753 3.42571 1.83455 6 1.83455C8.57429 1.83455 10.6673 3.92753 10.6673 6.50182C10.6673 9.07612 8.57247 11.1691 6 11.1691Z" fill="#212131"/>
<path d="M6 0.5C2.68551 0.5 0 3.18733 0 6.5C0 9.81267 2.68733 12.5 6 12.5C9.31449 12.5 12 9.81267 12 6.5C12 3.18733 9.31267 0.5 6 0.5ZM6 11.1691C3.42571 11.1691 1.33273 9.07612 1.33273 6.50182C1.33273 3.92753 3.42571 1.83455 6 1.83455C8.57429 1.83455 10.6673 3.92753 10.6673 6.50182C10.6673 9.07612 8.57247 11.1691 6 11.1691Z" fill="black" fill-opacity="0.2"/>
<path d="M6.67195 3.83203H5.3374V6.7746L7.5343 8.9715L8.47687 8.02893L6.67195 6.22401V3.83203Z" fill="#212131"/>
<path d="M6.67195 3.83203H5.3374V6.7746L7.5343 8.9715L8.47687 8.02893L6.67195 6.22401V3.83203Z" fill="black" fill-opacity="0.2"/>
</svg>
