<svg width="21" height="20" viewBox="0 0 21 20" fill="none" xmlns="http://www.w3.org/2000/svg">
<path d="M3.8335 4.16666C3.8335 3.94565 3.92129 3.73369 4.07757 3.57741C4.23385 3.42113 4.44582 3.33333 4.66683 3.33333H8.00016C8.22118 3.33333 8.43314 3.42113 8.58942 3.57741C8.7457 3.73369 8.8335 3.94565 8.8335 4.16666V7.49999C8.8335 7.72101 8.7457 7.93297 8.58942 8.08925C8.43314 8.24553 8.22118 8.33333 8.00016 8.33333H4.66683C4.44582 8.33333 4.23385 8.24553 4.07757 8.08925C3.92129 7.93297 3.8335 7.72101 3.8335 7.49999V4.16666Z" stroke="#212131" stroke-width="1.25" stroke-linecap="round" stroke-linejoin="round"/>
<path d="M3.8335 4.16666C3.8335 3.94565 3.92129 3.73369 4.07757 3.57741C4.23385 3.42113 4.44582 3.33333 4.66683 3.33333H8.00016C8.22118 3.33333 8.43314 3.42113 8.58942 3.57741C8.7457 3.73369 8.8335 3.94565 8.8335 4.16666V7.49999C8.8335 7.72101 8.7457 7.93297 8.58942 8.08925C8.43314 8.24553 8.22118 8.33333 8.00016 8.33333H4.66683C4.44582 8.33333 4.23385 8.24553 4.07757 8.08925C3.92129 7.93297 3.8335 7.72101 3.8335 7.49999V4.16666Z" stroke="black" stroke-opacity="0.2" stroke-width="1.25" stroke-linecap="round" stroke-linejoin="round"/>
<path d="M12.1665 4.16666C12.1665 3.94565 12.2543 3.73369 12.4106 3.57741C12.5669 3.42113 12.7788 3.33333 12.9998 3.33333H16.3332C16.5542 3.33333 16.7661 3.42113 16.9224 3.57741C17.0787 3.73369 17.1665 3.94565 17.1665 4.16666V7.49999C17.1665 7.72101 17.0787 7.93297 16.9224 8.08925C16.7661 8.24553 16.5542 8.33333 16.3332 8.33333H12.9998C12.7788 8.33333 12.5669 8.24553 12.4106 8.08925C12.2543 7.93297 12.1665 7.72101 12.1665 7.49999V4.16666Z" stroke="#212131" stroke-width="1.25" stroke-linecap="round" stroke-linejoin="round"/>
<path d="M12.1665 4.16666C12.1665 3.94565 12.2543 3.73369 12.4106 3.57741C12.5669 3.42113 12.7788 3.33333 12.9998 3.33333H16.3332C16.5542 3.33333 16.7661 3.42113 16.9224 3.57741C17.0787 3.73369 17.1665 3.94565 17.1665 4.16666V7.49999C17.1665 7.72101 17.0787 7.93297 16.9224 8.08925C16.7661 8.24553 16.5542 8.33333 16.3332 8.33333H12.9998C12.7788 8.33333 12.5669 8.24553 12.4106 8.08925C12.2543 7.93297 12.1665 7.72101 12.1665 7.49999V4.16666Z" stroke="black" stroke-opacity="0.2" stroke-width="1.25" stroke-linecap="round" stroke-linejoin="round"/>
<path d="M3.8335 12.5001C3.8335 12.2791 3.92129 12.0671 4.07757 11.9108C4.23385 11.7545 4.44582 11.6667 4.66683 11.6667H8.00016C8.22118 11.6667 8.43314 11.7545 8.58942 11.9108C8.7457 12.0671 8.8335 12.2791 8.8335 12.5001V15.8334C8.8335 16.0544 8.7457 16.2664 8.58942 16.4227C8.43314 16.579 8.22118 16.6667 8.00016 16.6667H4.66683C4.44582 16.6667 4.23385 16.579 4.07757 16.4227C3.92129 16.2664 3.8335 16.0544 3.8335 15.8334V12.5001Z" stroke="#212131" stroke-width="1.25" stroke-linecap="round" stroke-linejoin="round"/>
<path d="M3.8335 12.5001C3.8335 12.2791 3.92129 12.0671 4.07757 11.9108C4.23385 11.7545 4.44582 11.6667 4.66683 11.6667H8.00016C8.22118 11.6667 8.43314 11.7545 8.58942 11.9108C8.7457 12.0671 8.8335 12.2791 8.8335 12.5001V15.8334C8.8335 16.0544 8.7457 16.2664 8.58942 16.4227C8.43314 16.579 8.22118 16.6667 8.00016 16.6667H4.66683C4.44582 16.6667 4.23385 16.579 4.07757 16.4227C3.92129 16.2664 3.8335 16.0544 3.8335 15.8334V12.5001Z" stroke="black" stroke-opacity="0.2" stroke-width="1.25" stroke-linecap="round" stroke-linejoin="round"/>
<path d="M12.1665 12.5C12.1665 12.279 12.2543 12.067 12.4106 11.9107C12.5669 11.7545 12.7788 11.6667 12.9998 11.6667H16.3332C16.5542 11.6667 16.7661 11.7545 16.9224 11.9107C17.0787 12.067 17.1665 12.279 17.1665 12.5V15.8333C17.1665 16.0544 17.0787 16.2663 16.9224 16.4226C16.7661 16.5789 16.5542 16.6667 16.3332 16.6667H12.9998C12.7788 16.6667 12.5669 16.5789 12.4106 16.4226C12.2543 16.2663 12.1665 16.0544 12.1665 15.8333V12.5Z" stroke="#212131" stroke-width="1.25" stroke-linecap="round" stroke-linejoin="round"/>
<path d="M12.1665 12.5C12.1665 12.279 12.2543 12.067 12.4106 11.9107C12.5669 11.7545 12.7788 11.6667 12.9998 11.6667H16.3332C16.5542 11.6667 16.7661 11.7545 16.9224 11.9107C17.0787 12.067 17.1665 12.279 17.1665 12.5V15.8333C17.1665 16.0544 17.0787 16.2663 16.9224 16.4226C16.7661 16.5789 16.5542 16.6667 16.3332 16.6667H12.9998C12.7788 16.6667 12.5669 16.5789 12.4106 16.4226C12.2543 16.2663 12.1665 16.0544 12.1665 15.8333V12.5Z" stroke="black" stroke-opacity="0.2" stroke-width="1.25" stroke-linecap="round" stroke-linejoin="round"/>
</svg>
