<svg width="32" height="33" viewBox="0 0 32 33" fill="none" xmlns="http://www.w3.org/2000/svg">
<path fill-rule="evenodd" clip-rule="evenodd" d="M11.9887 14.8327C11.9887 14.3727 12.3482 13.9993 12.7912 13.9993C13.2341 13.9993 13.5936 14.3727 13.5936 14.8327C13.5936 15.2927 13.2341 15.666 12.7912 15.666C12.3482 15.666 11.9887 15.2927 11.9887 14.8327ZM16.0009 13.9993C15.558 13.9993 15.1985 14.3727 15.1985 14.8327C15.1985 15.2927 15.558 15.666 16.0009 15.666C16.4438 15.666 16.8033 15.2927 16.8033 14.8327C16.8033 14.3727 16.4438 13.9993 16.0009 13.9993ZM19.2106 13.9993C18.7677 13.9993 18.4082 14.3727 18.4082 14.8327C18.4082 15.2927 18.7677 15.666 19.2106 15.666C19.6536 15.666 20.0131 15.2927 20.0131 14.8327C20.0131 14.3727 19.6536 13.9993 19.2106 13.9993ZM22.4204 18.9993C22.4204 19.4585 22.0601 19.8327 21.6179 19.8327H13.2357C12.8 19.8327 12.3715 19.956 11.9968 20.1893L9.58143 21.6943V10.666C9.58143 10.2068 9.94172 9.83268 10.3839 9.83268H21.6179C22.0601 9.83268 22.4204 10.2068 22.4204 10.666V18.9993ZM21.6179 8.16602H10.3839C9.05664 8.16602 7.97656 9.28768 7.97656 10.666V23.166C7.97656 23.466 8.13223 23.7435 8.3834 23.891C8.50617 23.9635 8.64258 23.9993 8.779 23.9993C8.92183 23.9993 9.06466 23.9602 9.19225 23.8802L12.8225 21.6185C12.9476 21.5402 13.0905 21.4993 13.2357 21.4993H21.6179C22.9452 21.4993 24.0252 20.3777 24.0252 18.9993V10.666C24.0252 9.28768 22.9452 8.16602 21.6179 8.16602Z" fill="#212131"/>
<mask id="mask0_3211_62882" style="mask-type:luminance" maskUnits="userSpaceOnUse" x="7" y="8" width="18" height="16">
<path fill-rule="evenodd" clip-rule="evenodd" d="M11.9887 14.8327C11.9887 14.3727 12.3482 13.9993 12.7912 13.9993C13.2341 13.9993 13.5936 14.3727 13.5936 14.8327C13.5936 15.2927 13.2341 15.666 12.7912 15.666C12.3482 15.666 11.9887 15.2927 11.9887 14.8327ZM16.0009 13.9993C15.558 13.9993 15.1985 14.3727 15.1985 14.8327C15.1985 15.2927 15.558 15.666 16.0009 15.666C16.4438 15.666 16.8033 15.2927 16.8033 14.8327C16.8033 14.3727 16.4438 13.9993 16.0009 13.9993ZM19.2106 13.9993C18.7677 13.9993 18.4082 14.3727 18.4082 14.8327C18.4082 15.2927 18.7677 15.666 19.2106 15.666C19.6536 15.666 20.0131 15.2927 20.0131 14.8327C20.0131 14.3727 19.6536 13.9993 19.2106 13.9993ZM22.4204 18.9993C22.4204 19.4585 22.0601 19.8327 21.6179 19.8327H13.2357C12.8 19.8327 12.3715 19.956 11.9968 20.1893L9.58143 21.6943V10.666C9.58143 10.2068 9.94172 9.83268 10.3839 9.83268H21.6179C22.0601 9.83268 22.4204 10.2068 22.4204 10.666V18.9993ZM21.6179 8.16602H10.3839C9.05664 8.16602 7.97656 9.28768 7.97656 10.666V23.166C7.97656 23.466 8.13223 23.7435 8.3834 23.891C8.50617 23.9635 8.64258 23.9993 8.779 23.9993C8.92183 23.9993 9.06466 23.9602 9.19225 23.8802L12.8225 21.6185C12.9476 21.5402 13.0905 21.4993 13.2357 21.4993H21.6179C22.9452 21.4993 24.0252 20.3777 24.0252 18.9993V10.666C24.0252 9.28768 22.9452 8.16602 21.6179 8.16602Z" fill="white"/>
</mask>
<g mask="url(#mask0_3211_62882)">
<rect x="6.37109" y="6.5" width="19.2584" height="20" fill="#212131"/>
</g>
</svg>
