<svg width="32" height="33" viewBox="0 0 32 33" fill="none" xmlns="http://www.w3.org/2000/svg">
<path fill-rule="evenodd" clip-rule="evenodd" d="M21.6198 9.85482C22.0612 9.85732 22.4182 10.229 22.4182 10.6873L22.4207 14.8332C22.4215 15.2932 22.062 15.6673 21.619 15.6673H21.6182C21.1753 15.6673 20.8166 15.294 20.8158 14.8348L20.8142 12.6807L18.1734 15.4232C18.0169 15.5857 17.8115 15.6673 17.6061 15.6673C17.4014 15.6673 17.196 15.5857 17.0387 15.4232C16.7258 15.0973 16.7258 14.5698 17.0387 14.2448L19.6707 11.5115L17.6028 11.5007C17.1591 11.4982 16.8012 11.1223 16.8036 10.6632C16.806 10.204 17.1655 9.83398 17.6061 9.83398H17.6101L21.6198 9.85482ZM13.8293 17.5778C14.1431 17.252 14.6502 17.252 14.964 17.5778C15.2777 17.9037 15.2777 18.4303 14.964 18.7562L12.3224 21.4995L14.3966 21.5003C14.8404 21.5003 15.1991 21.8737 15.1991 22.3345C15.1983 22.7945 14.8396 23.167 14.3966 23.167H14.3958L10.4037 23.1645C9.9624 23.1645 9.60451 22.7937 9.6021 22.3353L9.58204 18.1712C9.57964 17.7112 9.93752 17.3362 10.3805 17.3337H10.3845C10.8258 17.3337 11.1845 17.7036 11.1869 18.1628L11.1973 20.3112L13.8293 17.5778Z" fill="#212131"/>
<mask id="mask0_3211_62886" style="mask-type:luminance" maskUnits="userSpaceOnUse" x="9" y="9" width="14" height="15">
<path fill-rule="evenodd" clip-rule="evenodd" d="M21.6198 9.85482C22.0612 9.85732 22.4182 10.229 22.4182 10.6873L22.4207 14.8332C22.4215 15.2932 22.062 15.6673 21.619 15.6673H21.6182C21.1753 15.6673 20.8166 15.294 20.8158 14.8348L20.8142 12.6807L18.1734 15.4232C18.0169 15.5857 17.8115 15.6673 17.6061 15.6673C17.4014 15.6673 17.196 15.5857 17.0387 15.4232C16.7258 15.0973 16.7258 14.5698 17.0387 14.2448L19.6707 11.5115L17.6028 11.5007C17.1591 11.4982 16.8012 11.1223 16.8036 10.6632C16.806 10.204 17.1655 9.83398 17.6061 9.83398H17.6101L21.6198 9.85482ZM13.8293 17.5778C14.1431 17.252 14.6502 17.252 14.964 17.5778C15.2777 17.9037 15.2777 18.4303 14.964 18.7562L12.3224 21.4995L14.3966 21.5003C14.8404 21.5003 15.1991 21.8737 15.1991 22.3345C15.1983 22.7945 14.8396 23.167 14.3966 23.167H14.3958L10.4037 23.1645C9.9624 23.1645 9.60451 22.7937 9.6021 22.3353L9.58204 18.1712C9.57964 17.7112 9.93752 17.3362 10.3805 17.3337H10.3845C10.8258 17.3337 11.1845 17.7036 11.1869 18.1628L11.1973 20.3112L13.8293 17.5778Z" fill="white"/>
</mask>
<g mask="url(#mask0_3211_62886)">
<rect x="6.37109" y="6.5" width="19.2584" height="20" fill="#212131"/>
</g>
</svg>
