<svg width="32" height="33" viewBox="0 0 32 33" fill="none" xmlns="http://www.w3.org/2000/svg">
<path fill-rule="evenodd" clip-rule="evenodd" d="M15.1985 22.3333C14.7555 22.3333 14.396 21.96 14.396 21.5C14.396 21.04 14.7555 20.6667 15.1985 20.6667C15.6414 20.6667 16.0009 21.04 16.0009 21.5C16.0009 21.96 15.6414 22.3333 15.1985 22.3333ZM23.2228 20.6667H17.4573C17.1251 19.6992 16.2432 19 15.1985 19C14.1537 19 13.2718 19.6992 12.9396 20.6667H8.779C8.33525 20.6667 7.97656 21.0392 7.97656 21.5C7.97656 21.9608 8.33525 22.3333 8.779 22.3333H12.9396C13.2718 23.3008 14.1537 24 15.1985 24C16.2432 24 17.1251 23.3008 17.4573 22.3333H23.2228C23.6665 22.3333 24.0252 21.9608 24.0252 21.5C24.0252 21.0392 23.6665 20.6667 23.2228 20.6667ZM21.6179 17.3333C21.175 17.3333 20.8155 16.96 20.8155 16.5C20.8155 16.04 21.175 15.6667 21.6179 15.6667C22.0609 15.6667 22.4204 16.04 22.4204 16.5C22.4204 16.96 22.0609 17.3333 21.6179 17.3333ZM21.6179 14C20.5732 14 19.6913 14.6992 19.3591 15.6667H8.779C8.33525 15.6667 7.97656 16.0392 7.97656 16.5C7.97656 16.9608 8.33525 17.3333 8.779 17.3333H19.3591C19.6913 18.3008 20.5732 19 21.6179 19C22.9452 19 24.0252 17.8783 24.0252 16.5C24.0252 15.1217 22.9452 14 21.6179 14ZM11.9887 10.6667C12.4317 10.6667 12.7912 11.04 12.7912 11.5C12.7912 11.96 12.4317 12.3333 11.9887 12.3333C11.5458 12.3333 11.1863 11.96 11.1863 11.5C11.1863 11.04 11.5458 10.6667 11.9887 10.6667ZM8.779 12.3333H9.72988C10.0621 13.3008 10.944 14 11.9887 14C13.0335 14 13.9154 13.3008 14.2476 12.3333H23.2228C23.6665 12.3333 24.0252 11.9608 24.0252 11.5C24.0252 11.0392 23.6665 10.6667 23.2228 10.6667H14.2476C13.9154 9.69917 13.0335 9 11.9887 9C10.944 9 10.0621 9.69917 9.72988 10.6667H8.779C8.33525 10.6667 7.97656 11.0392 7.97656 11.5C7.97656 11.9608 8.33525 12.3333 8.779 12.3333Z" fill="#212131"/>
<mask id="mask0_3211_62892" style="mask-type:luminance" maskUnits="userSpaceOnUse" x="7" y="9" width="18" height="15">
<path fill-rule="evenodd" clip-rule="evenodd" d="M15.1985 22.3333C14.7555 22.3333 14.396 21.96 14.396 21.5C14.396 21.04 14.7555 20.6667 15.1985 20.6667C15.6414 20.6667 16.0009 21.04 16.0009 21.5C16.0009 21.96 15.6414 22.3333 15.1985 22.3333ZM23.2228 20.6667H17.4573C17.1251 19.6992 16.2432 19 15.1985 19C14.1537 19 13.2718 19.6992 12.9396 20.6667H8.779C8.33525 20.6667 7.97656 21.0392 7.97656 21.5C7.97656 21.9608 8.33525 22.3333 8.779 22.3333H12.9396C13.2718 23.3008 14.1537 24 15.1985 24C16.2432 24 17.1251 23.3008 17.4573 22.3333H23.2228C23.6665 22.3333 24.0252 21.9608 24.0252 21.5C24.0252 21.0392 23.6665 20.6667 23.2228 20.6667ZM21.6179 17.3333C21.175 17.3333 20.8155 16.96 20.8155 16.5C20.8155 16.04 21.175 15.6667 21.6179 15.6667C22.0609 15.6667 22.4204 16.04 22.4204 16.5C22.4204 16.96 22.0609 17.3333 21.6179 17.3333ZM21.6179 14C20.5732 14 19.6913 14.6992 19.3591 15.6667H8.779C8.33525 15.6667 7.97656 16.0392 7.97656 16.5C7.97656 16.9608 8.33525 17.3333 8.779 17.3333H19.3591C19.6913 18.3008 20.5732 19 21.6179 19C22.9452 19 24.0252 17.8783 24.0252 16.5C24.0252 15.1217 22.9452 14 21.6179 14ZM11.9887 10.6667C12.4317 10.6667 12.7912 11.04 12.7912 11.5C12.7912 11.96 12.4317 12.3333 11.9887 12.3333C11.5458 12.3333 11.1863 11.96 11.1863 11.5C11.1863 11.04 11.5458 10.6667 11.9887 10.6667ZM8.779 12.3333H9.72988C10.0621 13.3008 10.944 14 11.9887 14C13.0335 14 13.9154 13.3008 14.2476 12.3333H23.2228C23.6665 12.3333 24.0252 11.9608 24.0252 11.5C24.0252 11.0392 23.6665 10.6667 23.2228 10.6667H14.2476C13.9154 9.69917 13.0335 9 11.9887 9C10.944 9 10.0621 9.69917 9.72988 10.6667H8.779C8.33525 10.6667 7.97656 11.0392 7.97656 11.5C7.97656 11.9608 8.33525 12.3333 8.779 12.3333Z" fill="white"/>
</mask>
<g mask="url(#mask0_3211_62892)">
<rect x="6.37109" y="6.5" width="19.2584" height="20" fill="#212131"/>
</g>
</svg>
