<svg width="32" height="33" viewBox="0 0 32 33" fill="none" xmlns="http://www.w3.org/2000/svg">
<path fill-rule="evenodd" clip-rule="evenodd" d="M15.1985 8.99935C15.1985 8.53852 15.558 8.16602 16.0009 8.16602C16.4438 8.16602 16.8033 8.53852 16.8033 8.99935V10.666C16.8033 11.1268 16.4438 11.4993 16.0009 11.4993C15.558 11.4993 15.1985 11.1268 15.1985 10.666V8.99935ZM21.6179 15.666H23.2228C23.6657 15.666 24.0252 16.0385 24.0252 16.4993C24.0252 16.9602 23.6657 17.3327 23.2228 17.3327H21.6179C21.175 17.3327 20.8155 16.9602 20.8155 16.4993C20.8155 16.0385 21.175 15.666 21.6179 15.666ZM11.1863 16.4993C11.1863 16.0385 10.8268 15.666 10.3839 15.666H8.779C8.33605 15.666 7.97656 16.0385 7.97656 16.4993C7.97656 16.9602 8.33605 17.3327 8.779 17.3327H10.3839C10.8268 17.3327 11.1863 16.9602 11.1863 16.4993ZM10.2288 10.7104C10.5377 10.3804 11.0448 10.3696 11.3634 10.6896L12.5181 11.8479C12.8367 12.1671 12.8455 12.6954 12.5374 13.0263C12.3801 13.1954 12.1706 13.2804 11.9604 13.2804C11.7598 13.2804 11.5592 13.2038 11.4027 13.0471L10.248 11.8888C9.92944 11.5696 9.92062 11.0413 10.2288 10.7104ZM20.0413 13.2808C20.2419 13.2808 20.4425 13.2033 20.599 13.0474L21.7537 11.8891C22.0723 11.5691 22.0811 11.0408 21.773 10.7108C21.4656 10.3808 20.9585 10.3699 20.6383 10.6899L19.4836 11.8474C19.165 12.1674 19.1562 12.6958 19.4644 13.0258C19.6216 13.1949 19.8311 13.2808 20.0413 13.2808ZM15.1985 22.3327C15.1985 21.8718 15.558 21.4993 16.0009 21.4993C16.4438 21.4993 16.8033 21.8718 16.8033 22.3327V23.9993C16.8033 24.4602 16.4438 24.8327 16.0009 24.8327C15.558 24.8327 15.1985 24.4602 15.1985 23.9993V22.3327ZM20.5988 19.9515C20.2803 19.6323 19.7723 19.6423 19.4642 19.9723C19.1561 20.3032 19.1649 20.8315 19.4835 21.1507L20.6382 22.309C20.7946 22.4657 20.9952 22.5423 21.1958 22.5423C21.4061 22.5423 21.6155 22.4573 21.7728 22.2882C22.0809 21.9573 22.0721 21.429 21.7535 21.1098L20.5988 19.9515ZM10.2483 21.1098L11.403 19.9515C11.7223 19.6323 12.2303 19.6423 12.5376 19.9723C12.8457 20.3032 12.8369 20.8315 12.5183 21.1507L11.3636 22.309C11.2072 22.4657 11.0066 22.5423 10.8059 22.5423C10.5957 22.5423 10.3863 22.4573 10.229 22.2882C9.92086 21.9573 9.92968 21.429 10.2483 21.1098Z" fill="#212131"/>
<mask id="mask0_3211_62880" style="mask-type:luminance" maskUnits="userSpaceOnUse" x="7" y="8" width="18" height="17">
<path fill-rule="evenodd" clip-rule="evenodd" d="M15.1985 8.99935C15.1985 8.53852 15.558 8.16602 16.0009 8.16602C16.4438 8.16602 16.8033 8.53852 16.8033 8.99935V10.666C16.8033 11.1268 16.4438 11.4993 16.0009 11.4993C15.558 11.4993 15.1985 11.1268 15.1985 10.666V8.99935ZM21.6179 15.666H23.2228C23.6657 15.666 24.0252 16.0385 24.0252 16.4993C24.0252 16.9602 23.6657 17.3327 23.2228 17.3327H21.6179C21.175 17.3327 20.8155 16.9602 20.8155 16.4993C20.8155 16.0385 21.175 15.666 21.6179 15.666ZM11.1863 16.4993C11.1863 16.0385 10.8268 15.666 10.3839 15.666H8.779C8.33605 15.666 7.97656 16.0385 7.97656 16.4993C7.97656 16.9602 8.33605 17.3327 8.779 17.3327H10.3839C10.8268 17.3327 11.1863 16.9602 11.1863 16.4993ZM10.2288 10.7104C10.5377 10.3804 11.0448 10.3696 11.3634 10.6896L12.5181 11.8479C12.8367 12.1671 12.8455 12.6954 12.5374 13.0263C12.3801 13.1954 12.1706 13.2804 11.9604 13.2804C11.7598 13.2804 11.5592 13.2038 11.4027 13.0471L10.248 11.8888C9.92944 11.5696 9.92062 11.0413 10.2288 10.7104ZM20.0413 13.2808C20.2419 13.2808 20.4425 13.2033 20.599 13.0474L21.7537 11.8891C22.0723 11.5691 22.0811 11.0408 21.773 10.7108C21.4656 10.3808 20.9585 10.3699 20.6383 10.6899L19.4836 11.8474C19.165 12.1674 19.1562 12.6958 19.4644 13.0258C19.6216 13.1949 19.8311 13.2808 20.0413 13.2808ZM15.1985 22.3327C15.1985 21.8718 15.558 21.4993 16.0009 21.4993C16.4438 21.4993 16.8033 21.8718 16.8033 22.3327V23.9993C16.8033 24.4602 16.4438 24.8327 16.0009 24.8327C15.558 24.8327 15.1985 24.4602 15.1985 23.9993V22.3327ZM20.5988 19.9515C20.2803 19.6323 19.7723 19.6423 19.4642 19.9723C19.1561 20.3032 19.1649 20.8315 19.4835 21.1507L20.6382 22.309C20.7946 22.4657 20.9952 22.5423 21.1958 22.5423C21.4061 22.5423 21.6155 22.4573 21.7728 22.2882C22.0809 21.9573 22.0721 21.429 21.7535 21.1098L20.5988 19.9515ZM10.2483 21.1098L11.403 19.9515C11.7223 19.6323 12.2303 19.6423 12.5376 19.9723C12.8457 20.3032 12.8369 20.8315 12.5183 21.1507L11.3636 22.309C11.2072 22.4657 11.0066 22.5423 10.8059 22.5423C10.5957 22.5423 10.3863 22.4573 10.229 22.2882C9.92086 21.9573 9.92968 21.429 10.2483 21.1098Z" fill="white"/>
</mask>
<g mask="url(#mask0_3211_62880)">
<rect x="6.37109" y="6.5" width="19.2584" height="20" fill="#212131"/>
</g>
</svg>
