<svg width="32" height="33" viewBox="0 0 32 33" fill="none" xmlns="http://www.w3.org/2000/svg">
<path fill-rule="evenodd" clip-rule="evenodd" d="M16.0005 19.8743C16.1281 19.8743 16.2557 19.906 16.3721 19.9685L19.3964 21.6102L18.8211 18.146C18.7753 17.8743 18.8628 17.5977 19.0538 17.4052L21.49 14.9585L18.1173 14.4485C17.8566 14.4093 17.6311 14.2402 17.5139 13.9952L16.0005 10.8335L14.4871 13.9952C14.37 14.2402 14.1445 14.4093 13.8837 14.4485L10.5111 14.9585L12.9473 17.4052C13.1383 17.5977 13.2257 17.8743 13.18 18.146L12.6046 21.6102L15.629 19.9685C15.7454 19.906 15.8729 19.8743 16.0005 19.8743ZM20.4637 23.9618C20.3361 23.9618 20.2085 23.931 20.0921 23.8677L16.0005 21.6477L11.9089 23.8677C11.6377 24.0143 11.3103 23.9885 11.0656 23.8018C10.8184 23.6152 10.6956 23.2993 10.747 22.9868L11.527 18.2968L8.22094 14.976C8.00027 14.7552 7.92163 14.4235 8.01552 14.121C8.1086 13.8185 8.36056 13.5985 8.66308 13.5527L13.2378 12.8627L15.2816 8.59102C15.5528 8.02435 16.4483 8.02435 16.7195 8.59102L18.7633 12.8627L23.338 13.5527C23.6405 13.5985 23.8925 13.8185 23.9855 14.121C24.0794 14.4235 24.0008 14.7552 23.7801 14.976L20.4741 18.2968L21.2541 22.9868C21.3054 23.2993 21.1826 23.6152 20.9355 23.8018C20.7967 23.9085 20.6306 23.9618 20.4637 23.9618Z" fill="#212131"/>
<mask id="mask0_3211_62890" style="mask-type:luminance" maskUnits="userSpaceOnUse" x="7" y="8" width="18" height="16">
<path fill-rule="evenodd" clip-rule="evenodd" d="M16.0005 19.8743C16.1281 19.8743 16.2557 19.906 16.3721 19.9685L19.3964 21.6102L18.8211 18.146C18.7753 17.8743 18.8628 17.5977 19.0538 17.4052L21.49 14.9585L18.1173 14.4485C17.8566 14.4093 17.6311 14.2402 17.5139 13.9952L16.0005 10.8335L14.4871 13.9952C14.37 14.2402 14.1445 14.4093 13.8837 14.4485L10.5111 14.9585L12.9473 17.4052C13.1383 17.5977 13.2257 17.8743 13.18 18.146L12.6046 21.6102L15.629 19.9685C15.7454 19.906 15.8729 19.8743 16.0005 19.8743ZM20.4637 23.9618C20.3361 23.9618 20.2085 23.931 20.0921 23.8677L16.0005 21.6477L11.9089 23.8677C11.6377 24.0143 11.3103 23.9885 11.0656 23.8018C10.8184 23.6152 10.6956 23.2993 10.747 22.9868L11.527 18.2968L8.22094 14.976C8.00027 14.7552 7.92163 14.4235 8.01552 14.121C8.1086 13.8185 8.36056 13.5985 8.66308 13.5527L13.2378 12.8627L15.2816 8.59102C15.5528 8.02435 16.4483 8.02435 16.7195 8.59102L18.7633 12.8627L23.338 13.5527C23.6405 13.5985 23.8925 13.8185 23.9855 14.121C24.0794 14.4235 24.0008 14.7552 23.7801 14.976L20.4741 18.2968L21.2541 22.9868C21.3054 23.2993 21.1826 23.6152 20.9355 23.8018C20.7967 23.9085 20.6306 23.9618 20.4637 23.9618Z" fill="white"/>
</mask>
<g mask="url(#mask0_3211_62890)">
<rect x="6.37109" y="6.5" width="19.2584" height="20" fill="#212131"/>
</g>
</svg>
