<svg width="32" height="33" viewBox="0 0 32 33" fill="none" xmlns="http://www.w3.org/2000/svg">
<path fill-rule="evenodd" clip-rule="evenodd" d="M19.5444 14L21.6187 14.0009C22.0617 14.0009 22.4212 14.3742 22.4212 14.835C22.4204 15.295 22.0609 15.6675 21.6187 15.6675H21.6179L17.6258 15.665C17.1845 15.665 16.8258 15.2942 16.8234 14.8359L16.8041 10.6717C16.8017 10.2117 17.1588 9.83669 17.6026 9.83419H17.6066C18.0479 9.83419 18.4066 10.2042 18.409 10.6634L18.4186 12.8117L21.0506 10.0784C21.3644 9.75253 21.8723 9.75253 22.186 10.0784C22.499 10.4042 22.499 10.9309 22.186 11.2567L19.5444 14ZM10.3879 17.3345L14.3976 17.3554C14.839 17.3579 15.1961 17.7295 15.1961 18.1879L15.1993 22.3337C15.1993 22.7937 14.8398 23.1679 14.3968 23.1679C13.9531 23.1679 13.5944 22.7945 13.5944 22.3354L13.5928 20.1812L10.952 22.9237C10.7947 23.0862 10.5893 23.1679 10.3847 23.1679C10.1792 23.1679 9.97382 23.0862 9.81734 22.9237C9.50359 22.5979 9.50359 22.0704 9.81734 21.7454L12.4485 19.012L10.3807 19.0012C9.93691 18.9987 9.57982 18.6229 9.58223 18.1637C9.58384 17.7045 9.94333 17.3345 10.3847 17.3345H10.3879Z" fill="#212131"/>
<mask id="mask0_3211_62888" style="mask-type:luminance" maskUnits="userSpaceOnUse" x="9" y="9" width="14" height="15">
<path fill-rule="evenodd" clip-rule="evenodd" d="M19.5444 14L21.6187 14.0009C22.0617 14.0009 22.4212 14.3742 22.4212 14.835C22.4204 15.295 22.0609 15.6675 21.6187 15.6675H21.6179L17.6258 15.665C17.1845 15.665 16.8258 15.2942 16.8234 14.8359L16.8041 10.6717C16.8017 10.2117 17.1588 9.83669 17.6026 9.83419H17.6066C18.0479 9.83419 18.4066 10.2042 18.409 10.6634L18.4186 12.8117L21.0506 10.0784C21.3644 9.75253 21.8723 9.75253 22.186 10.0784C22.499 10.4042 22.499 10.9309 22.186 11.2567L19.5444 14ZM10.3879 17.3345L14.3976 17.3554C14.839 17.3579 15.1961 17.7295 15.1961 18.1879L15.1993 22.3337C15.1993 22.7937 14.8398 23.1679 14.3968 23.1679C13.9531 23.1679 13.5944 22.7945 13.5944 22.3354L13.5928 20.1812L10.952 22.9237C10.7947 23.0862 10.5893 23.1679 10.3847 23.1679C10.1792 23.1679 9.97382 23.0862 9.81734 22.9237C9.50359 22.5979 9.50359 22.0704 9.81734 21.7454L12.4485 19.012L10.3807 19.0012C9.93691 18.9987 9.57982 18.6229 9.58223 18.1637C9.58384 17.7045 9.94333 17.3345 10.3847 17.3345H10.3879Z" fill="white"/>
</mask>
<g mask="url(#mask0_3211_62888)">
<rect x="6.37109" y="6.5" width="19.2584" height="20" fill="#212131"/>
</g>
</svg>
