<svg width="32" height="33" viewBox="0 0 32 33" fill="none" xmlns="http://www.w3.org/2000/svg">
<path fill-rule="evenodd" clip-rule="evenodd" d="M20.8155 14.8333C20.8155 14.3742 20.456 14 20.0131 14C19.5701 14 19.2106 14.3742 19.2106 14.8333C19.2106 15.2925 19.5701 15.6667 20.0131 15.6667C20.456 15.6667 20.8155 15.2925 20.8155 14.8333ZM22.4204 14.8333C22.4204 16.2117 21.3403 17.3333 20.0131 17.3333C18.6858 17.3333 17.6058 16.2117 17.6058 14.8333C17.6058 13.455 18.6858 12.3333 20.0131 12.3333C21.3403 12.3333 22.4204 13.455 22.4204 14.8333ZM15.1985 12.3333C15.1985 11.4142 14.4787 10.6667 13.5936 10.6667C12.7085 10.6667 11.9887 11.4142 11.9887 12.3333C11.9887 13.2525 12.7085 14 13.5936 14C14.4787 14 15.1985 13.2525 15.1985 12.3333ZM16.8033 12.3333C16.8033 14.1717 15.3638 15.6667 13.5936 15.6667C11.8234 15.6667 10.3839 14.1717 10.3839 12.3333C10.3839 10.495 11.8234 9 13.5936 9C15.3638 9 16.8033 10.495 16.8033 12.3333ZM17.5576 19.0383C18.2549 18.4783 19.1135 18.1667 20.0131 18.1667C22.2254 18.1667 24.0252 20.0358 24.0252 22.3333C24.0252 22.7933 23.6665 23.1667 23.2228 23.1667C22.779 23.1667 22.4204 22.7933 22.4204 22.3333C22.4204 20.955 21.3403 19.8333 20.0131 19.8333C19.465 19.8333 18.9442 20.0283 18.5237 20.3742C18.9603 21.2042 19.2106 22.1558 19.2106 23.1667C19.2106 23.6267 18.8519 24 18.4082 24C17.9644 24 17.6058 23.6267 17.6058 23.1667C17.6058 20.8692 15.8059 19 13.5936 19C11.3813 19 9.58143 20.8692 9.58143 23.1667C9.58143 23.6267 9.22274 24 8.779 24C8.33525 24 7.97656 23.6267 7.97656 23.1667C7.97656 19.95 10.497 17.3333 13.5936 17.3333C15.1399 17.3333 16.5409 17.9858 17.5576 19.0383Z" fill="#212131"/>
<mask id="mask0_3211_62878" style="mask-type:luminance" maskUnits="userSpaceOnUse" x="7" y="9" width="18" height="15">
<path fill-rule="evenodd" clip-rule="evenodd" d="M20.8155 14.8333C20.8155 14.3742 20.456 14 20.0131 14C19.5701 14 19.2106 14.3742 19.2106 14.8333C19.2106 15.2925 19.5701 15.6667 20.0131 15.6667C20.456 15.6667 20.8155 15.2925 20.8155 14.8333ZM22.4204 14.8333C22.4204 16.2117 21.3403 17.3333 20.0131 17.3333C18.6858 17.3333 17.6058 16.2117 17.6058 14.8333C17.6058 13.455 18.6858 12.3333 20.0131 12.3333C21.3403 12.3333 22.4204 13.455 22.4204 14.8333ZM15.1985 12.3333C15.1985 11.4142 14.4787 10.6667 13.5936 10.6667C12.7085 10.6667 11.9887 11.4142 11.9887 12.3333C11.9887 13.2525 12.7085 14 13.5936 14C14.4787 14 15.1985 13.2525 15.1985 12.3333ZM16.8033 12.3333C16.8033 14.1717 15.3638 15.6667 13.5936 15.6667C11.8234 15.6667 10.3839 14.1717 10.3839 12.3333C10.3839 10.495 11.8234 9 13.5936 9C15.3638 9 16.8033 10.495 16.8033 12.3333ZM17.5576 19.0383C18.2549 18.4783 19.1135 18.1667 20.0131 18.1667C22.2254 18.1667 24.0252 20.0358 24.0252 22.3333C24.0252 22.7933 23.6665 23.1667 23.2228 23.1667C22.779 23.1667 22.4204 22.7933 22.4204 22.3333C22.4204 20.955 21.3403 19.8333 20.0131 19.8333C19.465 19.8333 18.9442 20.0283 18.5237 20.3742C18.9603 21.2042 19.2106 22.1558 19.2106 23.1667C19.2106 23.6267 18.8519 24 18.4082 24C17.9644 24 17.6058 23.6267 17.6058 23.1667C17.6058 20.8692 15.8059 19 13.5936 19C11.3813 19 9.58143 20.8692 9.58143 23.1667C9.58143 23.6267 9.22274 24 8.779 24C8.33525 24 7.97656 23.6267 7.97656 23.1667C7.97656 19.95 10.497 17.3333 13.5936 17.3333C15.1399 17.3333 16.5409 17.9858 17.5576 19.0383Z" fill="white"/>
</mask>
<g mask="url(#mask0_3211_62878)">
<rect x="6.37109" y="6.5" width="19.2584" height="20" fill="#212131"/>
</g>
</svg>
