<svg width="20" height="20" viewBox="0 0 20 20" fill="none" xmlns="http://www.w3.org/2000/svg">
<path fill-rule="evenodd" clip-rule="evenodd" d="M3.08083 11.1883C3.51917 11.0492 3.9875 11.2917 4.1275 11.73C4.90833 14.185 7.20667 15.8333 9.84667 15.8333C13.1483 15.8333 15.8333 13.2167 15.8333 10C15.8333 6.78417 13.1483 4.16667 9.84667 4.16667C8.40667 4.16667 7.04833 4.66833 5.97583 5.55833L7.78083 5.26083C8.23917 5.1775 8.66417 5.49333 8.73917 5.94667C8.81417 6.40083 8.50667 6.83 8.0525 6.90417L4.51417 7.48917C4.46833 7.49667 4.42167 7.5 4.3775 7.5C4.27833 7.5 4.18167 7.4825 4.09167 7.44917C4.06083 7.4375 4.03583 7.41583 4.00583 7.4C3.95083 7.37167 3.89333 7.34667 3.84583 7.30667C3.81583 7.2825 3.79667 7.2475 3.77083 7.21917C3.73167 7.17833 3.69 7.13917 3.66083 7.08917C3.64 7.05333 3.63167 7.01083 3.61583 6.97083C3.59583 6.92167 3.56917 6.87583 3.55917 6.82167L2.93083 3.48833C2.84583 3.03583 3.14333 2.59917 3.59583 2.515C4.04667 2.43333 4.48417 2.7275 4.56917 3.17917L4.79583 4.38C6.1825 3.17917 7.96 2.5 9.84667 2.5C14.0667 2.5 17.5 5.86417 17.5 10C17.5 14.1358 14.0667 17.5 9.84667 17.5C6.47833 17.5 3.54167 15.3842 2.53917 12.235C2.4 11.7967 2.6425 11.3283 3.08083 11.1883Z" fill="#231F20"/>
<mask id="mask0_10_10359" style="mask-type:luminance" maskUnits="userSpaceOnUse" x="2" y="2" width="16" height="16">
<path fill-rule="evenodd" clip-rule="evenodd" d="M3.08083 11.1883C3.51917 11.0492 3.9875 11.2917 4.1275 11.73C4.90833 14.185 7.20667 15.8333 9.84667 15.8333C13.1483 15.8333 15.8333 13.2167 15.8333 10C15.8333 6.78417 13.1483 4.16667 9.84667 4.16667C8.40667 4.16667 7.04833 4.66833 5.97583 5.55833L7.78083 5.26083C8.23917 5.1775 8.66417 5.49333 8.73917 5.94667C8.81417 6.40083 8.50667 6.83 8.0525 6.90417L4.51417 7.48917C4.46833 7.49667 4.42167 7.5 4.3775 7.5C4.27833 7.5 4.18167 7.4825 4.09167 7.44917C4.06083 7.4375 4.03583 7.41583 4.00583 7.4C3.95083 7.37167 3.89333 7.34667 3.84583 7.30667C3.81583 7.2825 3.79667 7.2475 3.77083 7.21917C3.73167 7.17833 3.69 7.13917 3.66083 7.08917C3.64 7.05333 3.63167 7.01083 3.61583 6.97083C3.59583 6.92167 3.56917 6.87583 3.55917 6.82167L2.93083 3.48833C2.84583 3.03583 3.14333 2.59917 3.59583 2.515C4.04667 2.43333 4.48417 2.7275 4.56917 3.17917L4.79583 4.38C6.1825 3.17917 7.96 2.5 9.84667 2.5C14.0667 2.5 17.5 5.86417 17.5 10C17.5 14.1358 14.0667 17.5 9.84667 17.5C6.47833 17.5 3.54167 15.3842 2.53917 12.235C2.4 11.7967 2.6425 11.3283 3.08083 11.1883Z" fill="white"/>
</mask>
<g mask="url(#mask0_10_10359)">
<rect width="20" height="20" transform="matrix(-1 0 0 1 20 0)" fill="#0D1C2E"/>
</g>
</svg>
