<svg width="21" height="20" viewBox="0 0 21 20" fill="none" xmlns="http://www.w3.org/2000/svg">
<path d="M4.17078 17.8332V2.1665C4.17078 1.89036 4.39463 1.6665 4.67078 1.6665H14.3804C14.5129 1.6665 14.6401 1.71918 14.7339 1.81295L17.3577 4.43672C17.4514 4.5305 17.5041 4.65767 17.5041 4.79028V17.8332C17.5041 18.1093 17.2803 18.3332 17.0041 18.3332H4.67078C4.39463 18.3332 4.17078 18.1093 4.17078 17.8332Z" stroke="#6A6A75" stroke-width="1.25" stroke-linecap="round" stroke-linejoin="round"/>
<path d="M14.1708 4.49984V1.96113C14.1708 1.79841 14.3027 1.6665 14.4654 1.6665C14.5435 1.6665 14.6184 1.69755 14.6738 1.7528L17.4178 4.49688C17.4731 4.55213 17.5041 4.62707 17.5041 4.70521C17.5041 4.86793 17.3722 4.99984 17.2094 4.99984H14.6708C14.3946 4.99984 14.1708 4.77598 14.1708 4.49984Z" fill="#6A6A75" stroke="#6A6A75" stroke-width="1.25" stroke-linecap="round" stroke-linejoin="round"/>
<path d="M7.50427 8.3335H14.1709" stroke="#6A6A75" stroke-width="1.25" stroke-linecap="round" stroke-linejoin="round"/>
<path d="M7.50427 15H14.1709" stroke="#6A6A75" stroke-width="1.25" stroke-linecap="round" stroke-linejoin="round"/>
<path d="M7.50427 11.6665H10.8376" stroke="#6A6A75" stroke-width="1.25" stroke-linecap="round" stroke-linejoin="round"/>
</svg>
