<svg width="21" height="20" viewBox="0 0 21 20" fill="none" xmlns="http://www.w3.org/2000/svg">
<path d="M4.17078 17.8337V2.16699C4.17078 1.89085 4.39463 1.66699 4.67078 1.66699H14.3804C14.5129 1.66699 14.6401 1.71967 14.7339 1.81344L17.3577 4.43721C17.4514 4.53098 17.5041 4.65816 17.5041 4.79077V17.8337C17.5041 18.1098 17.2803 18.3337 17.0041 18.3337H4.67078C4.39463 18.3337 4.17078 18.1098 4.17078 17.8337Z" stroke="#212131" stroke-width="1.25" stroke-linecap="round" stroke-linejoin="round"/>
<path d="M4.17078 17.8337V2.16699C4.17078 1.89085 4.39463 1.66699 4.67078 1.66699H14.3804C14.5129 1.66699 14.6401 1.71967 14.7339 1.81344L17.3577 4.43721C17.4514 4.53098 17.5041 4.65816 17.5041 4.79077V17.8337C17.5041 18.1098 17.2803 18.3337 17.0041 18.3337H4.67078C4.39463 18.3337 4.17078 18.1098 4.17078 17.8337Z" stroke="black" stroke-opacity="0.2" stroke-width="1.25" stroke-linecap="round" stroke-linejoin="round"/>
<path d="M14.1708 4.50033V1.96162C14.1708 1.7989 14.3027 1.66699 14.4654 1.66699C14.5435 1.66699 14.6184 1.69803 14.6738 1.75328L17.4178 4.49737C17.4731 4.55262 17.5041 4.62756 17.5041 4.7057C17.5041 4.86842 17.3722 5.00033 17.2094 5.00033H14.6708C14.3946 5.00033 14.1708 4.77647 14.1708 4.50033Z" fill="#212131"/>
<path d="M14.1708 4.50033V1.96162C14.1708 1.7989 14.3027 1.66699 14.4654 1.66699C14.5435 1.66699 14.6184 1.69803 14.6738 1.75328L17.4178 4.49737C17.4731 4.55262 17.5041 4.62756 17.5041 4.7057C17.5041 4.86842 17.3722 5.00033 17.2094 5.00033H14.6708C14.3946 5.00033 14.1708 4.77647 14.1708 4.50033Z" fill="black" fill-opacity="0.2"/>
<path d="M14.1708 4.50033V1.96162C14.1708 1.7989 14.3027 1.66699 14.4654 1.66699C14.5435 1.66699 14.6184 1.69803 14.6738 1.75328L17.4178 4.49737C17.4731 4.55262 17.5041 4.62756 17.5041 4.7057C17.5041 4.86842 17.3722 5.00033 17.2094 5.00033H14.6708C14.3946 5.00033 14.1708 4.77647 14.1708 4.50033Z" stroke="#212131" stroke-width="1.25" stroke-linecap="round" stroke-linejoin="round"/>
<path d="M14.1708 4.50033V1.96162C14.1708 1.7989 14.3027 1.66699 14.4654 1.66699C14.5435 1.66699 14.6184 1.69803 14.6738 1.75328L17.4178 4.49737C17.4731 4.55262 17.5041 4.62756 17.5041 4.7057C17.5041 4.86842 17.3722 5.00033 17.2094 5.00033H14.6708C14.3946 5.00033 14.1708 4.77647 14.1708 4.50033Z" stroke="black" stroke-opacity="0.2" stroke-width="1.25" stroke-linecap="round" stroke-linejoin="round"/>
<path d="M7.50427 8.33301H14.1709" stroke="#212131" stroke-width="1.25" stroke-linecap="round" stroke-linejoin="round"/>
<path d="M7.50427 8.33301H14.1709" stroke="black" stroke-opacity="0.2" stroke-width="1.25" stroke-linecap="round" stroke-linejoin="round"/>
<path d="M7.50427 15H14.1709" stroke="#212131" stroke-width="1.25" stroke-linecap="round" stroke-linejoin="round"/>
<path d="M7.50427 15H14.1709" stroke="black" stroke-opacity="0.2" stroke-width="1.25" stroke-linecap="round" stroke-linejoin="round"/>
<path d="M7.50427 11.667H10.8376" stroke="#212131" stroke-width="1.25" stroke-linecap="round" stroke-linejoin="round"/>
<path d="M7.50427 11.667H10.8376" stroke="black" stroke-opacity="0.2" stroke-width="1.25" stroke-linecap="round" stroke-linejoin="round"/>
</svg>
