<svg width="40" height="40" viewBox="0 0 40 40" fill="none" xmlns="http://www.w3.org/2000/svg">
<rect width="40" height="40" rx="12" fill="#212131"/>
<path fill-rule="evenodd" clip-rule="evenodd" d="M12.5 13.3333C12.5 12.8731 12.8731 12.5 13.3333 12.5H16.6667C17.1269 12.5 17.5 12.8731 17.5 13.3333C17.5 13.7936 17.1269 14.1667 16.6667 14.1667H15.3452L18.0893 16.9107C18.4147 17.2362 18.4147 17.7638 18.0893 18.0893C17.7638 18.4147 17.2362 18.4147 16.9107 18.0893L14.1667 15.3452V16.6667C14.1667 17.1269 13.7936 17.5 13.3333 17.5C12.8731 17.5 12.5 17.1269 12.5 16.6667V13.3333ZM23.3333 12.5H26.6667C27.1269 12.5 27.5 12.8731 27.5 13.3333V16.6667C27.5 17.1269 27.1269 17.5 26.6667 17.5C26.2064 17.5 25.8333 17.1269 25.8333 16.6667V15.3452L23.0892 18.0893C22.7638 18.4147 22.2362 18.4147 21.9107 18.0893C21.5853 17.7638 21.5853 17.2362 21.9107 16.9107L24.6548 14.1667H23.3333C22.8731 14.1667 22.5 13.7936 22.5 13.3333C22.5 12.8731 22.8731 12.5 23.3333 12.5ZM18.0893 21.9107C18.4147 22.2362 18.4147 22.7638 18.0893 23.0892L15.3452 25.8333H16.6667C17.1269 25.8333 17.5 26.2064 17.5 26.6667C17.5 27.1269 17.1269 27.5 16.6667 27.5H13.3333C12.8731 27.5 12.5 27.1269 12.5 26.6667V23.3333C12.5 22.8731 12.8731 22.5 13.3333 22.5C13.7936 22.5 14.1667 22.8731 14.1667 23.3333V24.6548L16.9107 21.9107C17.2362 21.5853 17.7638 21.5853 18.0893 21.9107ZM21.9107 21.9107C22.2362 21.5853 22.7638 21.5853 23.0892 21.9107L25.8333 24.6548V23.3333C25.8333 22.8731 26.2064 22.5 26.6667 22.5C27.1269 22.5 27.5 22.8731 27.5 23.3333V26.6667C27.5 27.1269 27.1269 27.5 26.6667 27.5H23.3333C22.8731 27.5 22.5 27.1269 22.5 26.6667C22.5 26.2064 22.8731 25.8333 23.3333 25.8333H24.6548L21.9107 23.0892C21.5853 22.7638 21.5853 22.2362 21.9107 21.9107Z" fill="white"/>
</svg>
