<svg width="15" height="14" viewBox="0 0 15 14" fill="none" xmlns="http://www.w3.org/2000/svg">
<path fill-rule="evenodd" clip-rule="evenodd" d="M6.16683 9.66732C6.16683 10.034 5.86683 10.334 5.50016 10.334C5.1335 10.334 4.8335 10.034 4.8335 9.66732V7.00065C4.8335 6.63398 5.1335 6.33398 5.50016 6.33398C5.86683 6.33398 6.16683 6.63398 6.16683 7.00065V9.66732ZM10.1668 9.66732C10.1668 10.034 9.86683 10.334 9.50016 10.334C9.1335 10.334 8.8335 10.034 8.8335 9.66732V7.00065C8.8335 6.63398 9.1335 6.33398 9.50016 6.33398C9.86683 6.33398 10.1668 6.63398 10.1668 7.00065V9.66732ZM11.5002 11.6673C11.5002 12.0347 11.2015 12.334 10.8335 12.334H4.16683C3.79883 12.334 3.50016 12.0347 3.50016 11.6673V4.33398H11.5002V11.6673ZM6.16683 1.88598C6.16683 1.78265 6.3095 1.66732 6.50016 1.66732H8.50016C8.69083 1.66732 8.8335 1.78265 8.8335 1.88598V3.00065H6.16683V1.88598ZM13.5002 3.00065H12.8335H10.1668V1.88598C10.1668 1.02998 9.4195 0.333984 8.50016 0.333984H6.50016C5.58083 0.333984 4.8335 1.02998 4.8335 1.88598V3.00065H2.16683H1.50016C1.1335 3.00065 0.833496 3.30065 0.833496 3.66732C0.833496 4.03398 1.1335 4.33398 1.50016 4.33398H2.16683V11.6673C2.16683 12.77 3.06416 13.6673 4.16683 13.6673H10.8335C11.9362 13.6673 12.8335 12.77 12.8335 11.6673V4.33398H13.5002C13.8668 4.33398 14.1668 4.03398 14.1668 3.66732C14.1668 3.30065 13.8668 3.00065 13.5002 3.00065V3.00065Z" fill="#9999A0"/>
</svg>
