<svg width="14" height="10" viewBox="0 0 14 10" fill="none" xmlns="http://www.w3.org/2000/svg">
<path fill-rule="evenodd" clip-rule="evenodd" d="M7.0002 5.99936C6.44886 5.99936 6.0002 5.5507 6.0002 4.99936C6.0002 4.44803 6.44886 3.99936 7.0002 3.99936C7.55153 3.99936 8.0002 4.44803 8.0002 4.99936C8.0002 5.5507 7.55153 5.99936 7.0002 5.99936M7.0002 2.66603C5.71353 2.66603 4.66686 3.7127 4.66686 4.99936C4.66686 6.28603 5.71353 7.3327 7.0002 7.3327C8.28686 7.3327 9.33353 6.28603 9.33353 4.99936C9.33353 3.7127 8.28686 2.66603 7.0002 2.66603M7.14666 8.3311C4.276 8.39776 2.40333 5.94243 1.782 4.99643C2.466 3.92643 4.18866 1.73576 6.854 1.66776C9.71333 1.5951 11.5967 4.05643 12.218 5.00243C11.5347 6.07243 9.81133 8.2631 7.14666 8.3311M13.5787 4.66776C13.1533 3.92643 10.804 0.210429 6.82 0.335096C3.13466 0.428429 0.991329 3.6751 0.421996 4.66776C0.303996 4.8731 0.303996 5.12576 0.421996 5.3311C0.841329 6.06243 3.108 9.66576 7.01666 9.66576C7.07133 9.66576 7.126 9.6651 7.18066 9.66376C10.8653 9.56976 13.0093 6.32376 13.5787 5.3311C13.696 5.12576 13.696 4.8731 13.5787 4.66776" fill="#9999A0"/>
</svg>
