<svg width="21" height="20" viewBox="0 0 21 20" fill="none" xmlns="http://www.w3.org/2000/svg">
<path d="M3.67084 4.16683C3.67084 3.94582 3.75863 3.73385 3.91492 3.57757C4.0712 3.42129 4.28316 3.3335 4.50417 3.3335H7.8375C8.05852 3.3335 8.27048 3.42129 8.42676 3.57757C8.58304 3.73385 8.67084 3.94582 8.67084 4.16683V7.50016C8.67084 7.72118 8.58304 7.93314 8.42676 8.08942C8.27048 8.2457 8.05852 8.3335 7.8375 8.3335H4.50417C4.28316 8.3335 4.0712 8.2457 3.91492 8.08942C3.75863 7.93314 3.67084 7.72118 3.67084 7.50016V4.16683Z" stroke="#212131" stroke-width="1.25" stroke-linecap="round" stroke-linejoin="round"/>
<path d="M3.67084 4.16683C3.67084 3.94582 3.75863 3.73385 3.91492 3.57757C4.0712 3.42129 4.28316 3.3335 4.50417 3.3335H7.8375C8.05852 3.3335 8.27048 3.42129 8.42676 3.57757C8.58304 3.73385 8.67084 3.94582 8.67084 4.16683V7.50016C8.67084 7.72118 8.58304 7.93314 8.42676 8.08942C8.27048 8.2457 8.05852 8.3335 7.8375 8.3335H4.50417C4.28316 8.3335 4.0712 8.2457 3.91492 8.08942C3.75863 7.93314 3.67084 7.72118 3.67084 7.50016V4.16683Z" stroke="black" stroke-opacity="0.2" stroke-width="1.25" stroke-linecap="round" stroke-linejoin="round"/>
<path d="M12.0042 4.16683C12.0042 3.94582 12.092 3.73385 12.2483 3.57757C12.4046 3.42129 12.6165 3.3335 12.8375 3.3335H16.1709C16.3919 3.3335 16.6039 3.42129 16.7601 3.57757C16.9164 3.73385 17.0042 3.94582 17.0042 4.16683V7.50016C17.0042 7.72118 16.9164 7.93314 16.7601 8.08942C16.6039 8.2457 16.3919 8.3335 16.1709 8.3335H12.8375C12.6165 8.3335 12.4046 8.2457 12.2483 8.08942C12.092 7.93314 12.0042 7.72118 12.0042 7.50016V4.16683Z" stroke="#212131" stroke-width="1.25" stroke-linecap="round" stroke-linejoin="round"/>
<path d="M12.0042 4.16683C12.0042 3.94582 12.092 3.73385 12.2483 3.57757C12.4046 3.42129 12.6165 3.3335 12.8375 3.3335H16.1709C16.3919 3.3335 16.6039 3.42129 16.7601 3.57757C16.9164 3.73385 17.0042 3.94582 17.0042 4.16683V7.50016C17.0042 7.72118 16.9164 7.93314 16.7601 8.08942C16.6039 8.2457 16.3919 8.3335 16.1709 8.3335H12.8375C12.6165 8.3335 12.4046 8.2457 12.2483 8.08942C12.092 7.93314 12.0042 7.72118 12.0042 7.50016V4.16683Z" stroke="black" stroke-opacity="0.2" stroke-width="1.25" stroke-linecap="round" stroke-linejoin="round"/>
<path d="M3.67102 12.5003C3.67102 12.2793 3.75882 12.0674 3.9151 11.9111C4.07138 11.7548 4.28334 11.667 4.50435 11.667H7.83769C8.0587 11.667 8.27066 11.7548 8.42694 11.9111C8.58322 12.0674 8.67102 12.2793 8.67102 12.5003V15.8337C8.67102 16.0547 8.58322 16.2666 8.42694 16.4229C8.27066 16.5792 8.0587 16.667 7.83769 16.667H4.50435C4.28334 16.667 4.07138 16.5792 3.9151 16.4229C3.75882 16.2666 3.67102 16.0547 3.67102 15.8337V12.5003Z" stroke="#212131" stroke-width="1.25" stroke-linecap="round" stroke-linejoin="round"/>
<path d="M3.67102 12.5003C3.67102 12.2793 3.75882 12.0674 3.9151 11.9111C4.07138 11.7548 4.28334 11.667 4.50435 11.667H7.83769C8.0587 11.667 8.27066 11.7548 8.42694 11.9111C8.58322 12.0674 8.67102 12.2793 8.67102 12.5003V15.8337C8.67102 16.0547 8.58322 16.2666 8.42694 16.4229C8.27066 16.5792 8.0587 16.667 7.83769 16.667H4.50435C4.28334 16.667 4.07138 16.5792 3.9151 16.4229C3.75882 16.2666 3.67102 16.0547 3.67102 15.8337V12.5003Z" stroke="black" stroke-opacity="0.2" stroke-width="1.25" stroke-linecap="round" stroke-linejoin="round"/>
<path d="M12.0042 12.4998C12.0042 12.2788 12.092 12.0669 12.2483 11.9106C12.4046 11.7543 12.6165 11.6665 12.8375 11.6665H16.1709C16.3919 11.6665 16.6039 11.7543 16.7601 11.9106C16.9164 12.0669 17.0042 12.2788 17.0042 12.4998V15.8332C17.0042 16.0542 16.9164 16.2661 16.7601 16.4224C16.6039 16.5787 16.3919 16.6665 16.1709 16.6665H12.8375C12.6165 16.6665 12.4046 16.5787 12.2483 16.4224C12.092 16.2661 12.0042 16.0542 12.0042 15.8332V12.4998Z" stroke="#212131" stroke-width="1.25" stroke-linecap="round" stroke-linejoin="round"/>
<path d="M12.0042 12.4998C12.0042 12.2788 12.092 12.0669 12.2483 11.9106C12.4046 11.7543 12.6165 11.6665 12.8375 11.6665H16.1709C16.3919 11.6665 16.6039 11.7543 16.7601 11.9106C16.9164 12.0669 17.0042 12.2788 17.0042 12.4998V15.8332C17.0042 16.0542 16.9164 16.2661 16.7601 16.4224C16.6039 16.5787 16.3919 16.6665 16.1709 16.6665H12.8375C12.6165 16.6665 12.4046 16.5787 12.2483 16.4224C12.092 16.2661 12.0042 16.0542 12.0042 15.8332V12.4998Z" stroke="black" stroke-opacity="0.2" stroke-width="1.25" stroke-linecap="round" stroke-linejoin="round"/>
</svg>
