<svg xmlns="http://www.w3.org/2000/svg" width="24" height="24" viewBox="0 0 24 24" fill="none">
<path fill-rule="evenodd" clip-rule="evenodd" d="M19.2583 14.6L16.5535 12L19.2583 9.401V14.6ZM14.4437 16C14.4437 16.552 14.0124 17 13.4808 17H4.81454C4.28301 17 3.85162 16.552 3.85162 16V8C3.85162 7.449 4.28301 7 4.81454 7H13.4808C14.0124 7 14.4437 7.449 14.4437 8V16ZM20.2328 7.146C19.63 6.873 18.9309 6.992 18.4504 7.452L16.3696 9.452V8C16.3696 6.346 15.0735 5 13.4808 5H4.81454C3.22187 5 1.92578 6.346 1.92578 8V16C1.92578 17.655 3.22187 19 4.81454 19H13.4808C15.0735 19 16.3696 17.655 16.3696 16V14.549L18.4504 16.548C18.7586 16.845 19.1582 17 19.5655 17C19.7908 17 20.0171 16.953 20.2328 16.855C20.8192 16.589 21.1842 16.02 21.1842 15.371V8.63C21.1842 7.981 20.8192 7.412 20.2328 7.146V7.146Z" fill="#231F20"/>
<mask id="mask0_2943_160553" style="mask-type:luminance" maskUnits="userSpaceOnUse" x="1" y="5" width="21" height="14">
<path fill-rule="evenodd" clip-rule="evenodd" d="M19.2583 14.6L16.5535 12L19.2583 9.401V14.6ZM14.4437 16C14.4437 16.552 14.0124 17 13.4808 17H4.81454C4.28301 17 3.85162 16.552 3.85162 16V8C3.85162 7.449 4.28301 7 4.81454 7H13.4808C14.0124 7 14.4437 7.449 14.4437 8V16ZM20.2328 7.146C19.63 6.873 18.9309 6.992 18.4504 7.452L16.3696 9.452V8C16.3696 6.346 15.0735 5 13.4808 5H4.81454C3.22187 5 1.92578 6.346 1.92578 8V16C1.92578 17.655 3.22187 19 4.81454 19H13.4808C15.0735 19 16.3696 17.655 16.3696 16V14.549L18.4504 16.548C18.7586 16.845 19.1582 17 19.5655 17C19.7908 17 20.0171 16.953 20.2328 16.855C20.8192 16.589 21.1842 16.02 21.1842 15.371V8.63C21.1842 7.981 20.8192 7.412 20.2328 7.146V7.146Z" fill="white"/>
</mask>
<g mask="url(#mask0_2943_160553)">
<rect width="23.1101" height="24" fill="#0D1C2E"/>
</g>
</svg>