<svg width="27" height="28" viewBox="0 0 27 28" fill="none" xmlns="http://www.w3.org/2000/svg">
<path fill-rule="evenodd" clip-rule="evenodd" d="M14.5368 11.6774H13.4186V10.5161C13.4186 9.87743 12.9154 9.35485 12.3003 9.35485C11.6853 9.35485 11.1821 9.87743 11.1821 10.5161V11.6774H10.0639C9.44884 11.6774 8.94564 12.2 8.94564 12.8387C8.94564 13.4774 9.44884 14 10.0639 14H11.1821V15.1613C11.1821 15.8 11.6853 16.3226 12.3003 16.3226C12.9154 16.3226 13.4186 15.8 13.4186 15.1613V14H14.5368C15.1518 14 15.655 13.4774 15.655 12.8387C15.655 12.2 15.1518 11.6774 14.5368 11.6774ZM5.59095 12.8387C5.59095 8.99601 8.60011 5.87098 12.3003 5.87098C16.0005 5.87098 19.0097 8.99601 19.0097 12.8387C19.0097 16.6814 16.0005 19.8065 12.3003 19.8065C8.60011 19.8065 5.59095 16.6814 5.59095 12.8387ZM23.155 22.4693L19.3586 18.5256C20.5361 16.9532 21.2462 14.9825 21.2462 12.8387C21.2462 7.71627 17.2328 3.5484 12.3003 3.5484C7.36782 3.5484 3.35449 7.71627 3.35449 12.8387C3.35449 17.9612 7.36782 22.129 12.3003 22.129C14.3646 22.129 16.2622 21.3916 17.7763 20.1688L21.5738 24.1114C21.7919 24.3378 22.0781 24.4516 22.3644 24.4516C22.6507 24.4516 22.9369 24.3378 23.155 24.1114C23.5922 23.6573 23.5922 22.9234 23.155 22.4693Z" fill="#231F20"/>
<mask id="mask0_19_124429" style="mask-type:luminance" maskUnits="userSpaceOnUse" x="3" y="3" width="21" height="22">
<path fill-rule="evenodd" clip-rule="evenodd" d="M14.5368 11.6774H13.4186V10.5161C13.4186 9.87743 12.9154 9.35485 12.3003 9.35485C11.6853 9.35485 11.1821 9.87743 11.1821 10.5161V11.6774H10.0639C9.44884 11.6774 8.94564 12.2 8.94564 12.8387C8.94564 13.4774 9.44884 14 10.0639 14H11.1821V15.1613C11.1821 15.8 11.6853 16.3226 12.3003 16.3226C12.9154 16.3226 13.4186 15.8 13.4186 15.1613V14H14.5368C15.1518 14 15.655 13.4774 15.655 12.8387C15.655 12.2 15.1518 11.6774 14.5368 11.6774ZM5.59095 12.8387C5.59095 8.99601 8.60011 5.87098 12.3003 5.87098C16.0005 5.87098 19.0097 8.99601 19.0097 12.8387C19.0097 16.6814 16.0005 19.8065 12.3003 19.8065C8.60011 19.8065 5.59095 16.6814 5.59095 12.8387ZM23.155 22.4693L19.3586 18.5256C20.5361 16.9532 21.2462 14.9825 21.2462 12.8387C21.2462 7.71627 17.2328 3.5484 12.3003 3.5484C7.36782 3.5484 3.35449 7.71627 3.35449 12.8387C3.35449 17.9612 7.36782 22.129 12.3003 22.129C14.3646 22.129 16.2622 21.3916 17.7763 20.1688L21.5738 24.1114C21.7919 24.3378 22.0781 24.4516 22.3644 24.4516C22.6507 24.4516 22.9369 24.3378 23.155 24.1114C23.5922 23.6573 23.5922 22.9234 23.155 22.4693Z" fill="white"/>
</mask>
<g mask="url(#mask0_19_124429)">
<rect y="0.0645142" width="26.8375" height="27.871" fill="white"/>
</g>
</svg>
