<svg width="28" height="28" viewBox="0 0 28 28" fill="none" xmlns="http://www.w3.org/2000/svg">
<path fill-rule="evenodd" clip-rule="evenodd" d="M15.3742 11.6774H10.9013C10.2862 11.6774 9.78304 12.2 9.78304 12.8387C9.78304 13.4774 10.2862 14 10.9013 14H15.3742C15.9892 14 16.4924 13.4774 16.4924 12.8387C16.4924 12.2 15.9892 11.6774 15.3742 11.6774ZM6.42835 12.8387C6.42835 8.99601 9.43751 5.87098 13.1377 5.87098C16.838 5.87098 19.8471 8.99601 19.8471 12.8387C19.8471 16.6814 16.838 19.8065 13.1377 19.8065C9.43751 19.8065 6.42835 16.6814 6.42835 12.8387ZM23.9924 22.4693L20.196 18.5256C21.3735 16.9532 22.0836 14.9825 22.0836 12.8387C22.0836 7.71627 18.0702 3.5484 13.1377 3.5484C8.20522 3.5484 4.19189 7.71627 4.19189 12.8387C4.19189 17.9612 8.20522 22.129 13.1377 22.129C15.202 22.129 17.0996 21.3916 18.6137 20.1688L22.4112 24.1114C22.6293 24.3378 22.9155 24.4516 23.2018 24.4516C23.4881 24.4516 23.7743 24.3378 23.9924 24.1114C24.4296 23.6573 24.4296 22.9234 23.9924 22.4693Z" fill="#231F20"/>
<mask id="mask0_19_124436" style="mask-type:luminance" maskUnits="userSpaceOnUse" x="4" y="3" width="21" height="22">
<path fill-rule="evenodd" clip-rule="evenodd" d="M15.3742 11.6774H10.9013C10.2862 11.6774 9.78304 12.2 9.78304 12.8387C9.78304 13.4774 10.2862 14 10.9013 14H15.3742C15.9892 14 16.4924 13.4774 16.4924 12.8387C16.4924 12.2 15.9892 11.6774 15.3742 11.6774ZM6.42835 12.8387C6.42835 8.99601 9.43751 5.87098 13.1377 5.87098C16.838 5.87098 19.8471 8.99601 19.8471 12.8387C19.8471 16.6814 16.838 19.8065 13.1377 19.8065C9.43751 19.8065 6.42835 16.6814 6.42835 12.8387ZM23.9924 22.4693L20.196 18.5256C21.3735 16.9532 22.0836 14.9825 22.0836 12.8387C22.0836 7.71627 18.0702 3.5484 13.1377 3.5484C8.20522 3.5484 4.19189 7.71627 4.19189 12.8387C4.19189 17.9612 8.20522 22.129 13.1377 22.129C15.202 22.129 17.0996 21.3916 18.6137 20.1688L22.4112 24.1114C22.6293 24.3378 22.9155 24.4516 23.2018 24.4516C23.4881 24.4516 23.7743 24.3378 23.9924 24.1114C24.4296 23.6573 24.4296 22.9234 23.9924 22.4693Z" fill="white"/>
</mask>
<g mask="url(#mask0_19_124436)">
<rect x="0.837402" y="0.0645142" width="26.8375" height="27.871" fill="white"/>
</g>
</svg>
