<svg width="20" height="20" viewBox="0 0 20 20" fill="none" xmlns="http://www.w3.org/2000/svg">
<g clip-path="url(#clip0_150_119577)">
<path d="M17.0051 13.6217C16.1124 12.6545 15.0291 11.8826 13.8234 11.3547C12.6177 10.8268 11.3158 10.5542 9.99957 10.5542C8.68335 10.5542 7.3814 10.8268 6.17571 11.3547C4.97002 11.8826 3.88671 12.6545 2.99401 13.6217C2.85619 13.7741 2.77909 13.9718 2.77734 14.1773V17.5106C2.78027 17.7297 2.86935 17.9388 3.02532 18.0927C3.18128 18.2466 3.39158 18.3329 3.61068 18.3328H16.3885C16.6095 18.3328 16.8214 18.245 16.9777 18.0888C17.134 17.9325 17.2218 17.7205 17.2218 17.4995V14.1662C17.2174 13.9645 17.1404 13.7713 17.0051 13.6217Z" fill="#6A6A75"/>
<path d="M10.0022 9.44379C12.1499 9.44379 13.8911 7.70268 13.8911 5.5549C13.8911 3.40713 12.1499 1.66602 10.0022 1.66602C7.8544 1.66602 6.11328 3.40713 6.11328 5.5549C6.11328 7.70268 7.8544 9.44379 10.0022 9.44379Z" fill="#6A6A75"/>
</g>
<defs>
<clipPath id="clip0_150_119577">
<rect width="20" height="20" fill="white"/>
</clipPath>
</defs>
</svg>
