<svg width="24" height="24" viewBox="0 0 24 24" fill="none" xmlns="http://www.w3.org/2000/svg">
<path fill-rule="evenodd" clip-rule="evenodd" d="M18.2955 11H6.87044L10.3687 6.64C10.7096 6.216 10.6537 5.585 10.2455 5.232C9.83623 4.878 9.22959 4.936 8.88968 5.36L4.07508 11.36C4.03753 11.407 4.01827 11.462 3.99035 11.514C3.96723 11.556 3.93931 11.592 3.92198 11.638C3.87865 11.753 3.85265 11.874 3.85265 11.996C3.85265 11.997 3.85168 11.999 3.85168 12C3.85168 12.001 3.85265 12.003 3.85265 12.004C3.85265 12.126 3.87865 12.247 3.92198 12.362C3.93931 12.408 3.96723 12.444 3.99035 12.486C4.01827 12.538 4.03753 12.593 4.07508 12.64L8.88968 18.64C9.08034 18.877 9.35381 19 9.6292 19C9.84682 19 10.0654 18.924 10.2455 18.768C10.6537 18.415 10.7096 17.784 10.3687 17.36L6.87044 13H18.2955C18.827 13 19.2584 12.552 19.2584 12C19.2584 11.448 18.827 11 18.2955 11Z" fill="#212131"/>
<path fill-rule="evenodd" clip-rule="evenodd" d="M18.2955 11H6.87044L10.3687 6.64C10.7096 6.216 10.6537 5.585 10.2455 5.232C9.83623 4.878 9.22959 4.936 8.88968 5.36L4.07508 11.36C4.03753 11.407 4.01827 11.462 3.99035 11.514C3.96723 11.556 3.93931 11.592 3.92198 11.638C3.87865 11.753 3.85265 11.874 3.85265 11.996C3.85265 11.997 3.85168 11.999 3.85168 12C3.85168 12.001 3.85265 12.003 3.85265 12.004C3.85265 12.126 3.87865 12.247 3.92198 12.362C3.93931 12.408 3.96723 12.444 3.99035 12.486C4.01827 12.538 4.03753 12.593 4.07508 12.64L8.88968 18.64C9.08034 18.877 9.35381 19 9.6292 19C9.84682 19 10.0654 18.924 10.2455 18.768C10.6537 18.415 10.7096 17.784 10.3687 17.36L6.87044 13H18.2955C18.827 13 19.2584 12.552 19.2584 12C19.2584 11.448 18.827 11 18.2955 11Z" fill="black" fill-opacity="0.2"/>
<mask id="mask0_1_1140" style="mask-type:luminance" maskUnits="userSpaceOnUse" x="3" y="5" width="17" height="14">
<path fill-rule="evenodd" clip-rule="evenodd" d="M18.2955 11H6.87044L10.3687 6.64C10.7096 6.216 10.6537 5.585 10.2455 5.232C9.83623 4.878 9.22959 4.936 8.88968 5.36L4.07508 11.36C4.03753 11.407 4.01827 11.462 3.99035 11.514C3.96723 11.556 3.93931 11.592 3.92198 11.638C3.87865 11.753 3.85265 11.874 3.85265 11.996C3.85265 11.997 3.85168 11.999 3.85168 12C3.85168 12.001 3.85265 12.003 3.85265 12.004C3.85265 12.126 3.87865 12.247 3.92198 12.362C3.93931 12.408 3.96723 12.444 3.99035 12.486C4.01827 12.538 4.03753 12.593 4.07508 12.64L8.88968 18.64C9.08034 18.877 9.35381 19 9.6292 19C9.84682 19 10.0654 18.924 10.2455 18.768C10.6537 18.415 10.7096 17.784 10.3687 17.36L6.87044 13H18.2955C18.827 13 19.2584 12.552 19.2584 12C19.2584 11.448 18.827 11 18.2955 11Z" fill="white"/>
</mask>
<g mask="url(#mask0_1_1140)">
<rect width="23.1101" height="24" fill="#212131"/>
<rect width="23.1101" height="24" fill="black" fill-opacity="0.2"/>
</g>
</svg>
