<svg width="20" height="20" viewBox="0 0 20 20" fill="none" xmlns="http://www.w3.org/2000/svg">
<path d="M2.52076 5.92056L3.18808 6.26289L2.52076 5.92056ZM2.72738 5.5627L3.3575 5.96944L2.72738 5.5627ZM6.03068 16.8751L5.65568 17.5246L6.03068 16.8751ZM2.72738 14.4375L3.3575 14.0308L2.72738 14.4375ZM2.52076 14.0797L3.18808 13.7373L2.52076 14.0797ZM13.9693 16.8751L14.3443 17.5246L13.9693 16.8751ZM10.2066 18.5171L10.2438 19.2661L10.2066 18.5171ZM9.79335 18.5171L9.75616 19.2661L9.79335 18.5171ZM17.4792 14.0797L16.8119 13.7373L17.4792 14.0797ZM17.2726 14.4375L16.6424 14.0308L17.2726 14.4375ZM17.2726 5.5627L16.6424 5.96944L17.2726 5.5627ZM17.4792 5.92056L16.8119 6.26289L17.4792 5.92056ZM10.2066 1.48315L10.2438 0.734076L10.2066 1.48315ZM9.79335 1.48315L9.75616 0.734076L9.79335 1.48315ZM15.6967 15.7191L14.9775 15.932L14.9833 15.9515L14.9901 15.9707L15.6967 15.7191ZM4.29741 15.7391L3.57693 15.5308L3.56723 15.5643L3.56069 15.5986L4.29741 15.7391ZM4.27944 15.8334L3.87386 16.4643L4.27944 15.8334ZM12.5833 7.50011C12.5833 8.92684 11.4267 10.0834 9.99997 10.0834V11.5834C12.2551 11.5834 14.0833 9.75527 14.0833 7.50011H12.5833ZM9.99997 10.0834C8.57323 10.0834 7.41663 8.92684 7.41663 7.50011H5.91663C5.91663 9.75527 7.7448 11.5834 9.99997 11.5834V10.0834ZM7.41663 7.50011C7.41663 6.07337 8.57323 4.91678 9.99997 4.91678V3.41678C7.74481 3.41678 5.91663 5.24495 5.91663 7.50011H7.41663ZM9.99997 4.91678C11.4267 4.91678 12.5833 6.07337 12.5833 7.50011H14.0833C14.0833 5.24495 12.2551 3.41678 9.99997 3.41678V4.91678ZM2.8114 10.0001C2.8114 8.92559 2.81209 8.16845 2.86585 7.56685C2.91832 6.97956 3.01793 6.59457 3.18808 6.26289L1.85345 5.57823C1.56423 6.142 1.43416 6.73542 1.3718 7.43335C1.31071 8.11698 1.3114 8.95189 1.3114 10.0001H2.8114ZM5.65568 2.47559C4.7479 2.9997 4.02451 3.41656 3.46301 3.81127C2.88976 4.21425 2.44088 4.6236 2.09725 5.15595L3.3575 5.96944C3.55966 5.65626 3.84327 5.3775 4.32564 5.03841C4.81977 4.69105 5.47513 4.31188 6.40568 3.77463L5.65568 2.47559ZM3.18808 6.26289C3.23966 6.16234 3.29621 6.0644 3.3575 5.96944L2.09725 5.15595C2.00905 5.29259 1.92768 5.43353 1.85345 5.57823L3.18808 6.26289ZM1.3114 10.0001C1.3114 11.0483 1.31071 11.8832 1.3718 12.5669C1.43416 13.2648 1.56423 13.8582 1.85345 14.422L3.18808 13.7373C3.01793 13.4056 2.91832 13.0207 2.86585 12.4334C2.81209 11.8318 2.8114 11.0746 2.8114 10.0001H1.3114ZM3.3575 14.0308C3.29621 13.9358 3.23966 13.8379 3.18808 13.7373L1.85345 14.422C1.92768 14.5667 2.00905 14.7076 2.09725 14.8443L3.3575 14.0308ZM13.5943 16.2256C12.6637 16.7628 12.0076 17.1408 11.4598 17.3951C10.9249 17.6433 10.5417 17.7495 10.1694 17.768L10.2438 19.2661C10.8766 19.2347 11.4556 19.0507 12.0912 18.7557C12.7138 18.4668 13.4365 18.0487 14.3443 17.5246L13.5943 16.2256ZM5.65568 17.5246C6.56347 18.0487 7.28618 18.4668 7.90876 18.7557C8.54437 19.0507 9.12332 19.2347 9.75616 19.2661L9.83054 17.768C9.45823 17.7495 9.07502 17.6433 8.54017 17.3951C7.99229 17.1408 7.33624 16.7628 6.40568 16.2256L5.65568 17.5246ZM10.1694 17.768C10.0565 17.7736 9.94342 17.7736 9.83054 17.768L9.75616 19.2661C9.9186 19.2742 10.0813 19.2742 10.2438 19.2661L10.1694 17.768ZM17.1885 10.0001C17.1885 11.0746 17.1878 11.8318 17.1341 12.4334C17.0816 13.0207 16.982 13.4056 16.8119 13.7373L18.1465 14.422C18.4357 13.8582 18.5658 13.2648 18.6281 12.5669C18.6892 11.8832 18.6885 11.0483 18.6885 10.0001H17.1885ZM16.8119 13.7373C16.7603 13.8379 16.7037 13.9358 16.6424 14.0308L17.9027 14.8443C17.9909 14.7076 18.0723 14.5667 18.1465 14.422L16.8119 13.7373ZM13.5943 3.77463C14.5248 4.31188 15.1802 4.69105 15.6743 5.03841C16.1567 5.3775 16.4403 5.65626 16.6424 5.96944L17.9027 5.15595C17.5591 4.6236 17.1102 4.21425 16.5369 3.81127C15.9754 3.41656 15.252 2.9997 14.3443 2.47559L13.5943 3.77463ZM18.6885 10.0001C18.6885 8.95189 18.6892 8.11698 18.6281 7.43335C18.5658 6.73542 18.4357 6.142 18.1465 5.57823L16.8119 6.26289C16.982 6.59457 17.0816 6.97956 17.1341 7.56685C17.1878 8.16845 17.1885 8.92559 17.1885 10.0001H18.6885ZM16.6424 5.96944C16.7037 6.0644 16.7603 6.16234 16.8119 6.26289L18.1465 5.57823C18.0723 5.43352 17.9909 5.29259 17.9027 5.15595L16.6424 5.96944ZM14.3443 2.47559C13.4365 1.95148 12.7138 1.53343 12.0912 1.24452C11.4556 0.949557 10.8766 0.765496 10.2438 0.734076L10.1694 2.23223C10.5417 2.25072 10.9249 2.35695 11.4598 2.60515C12.0076 2.85939 12.6637 3.23737 13.5943 3.77463L14.3443 2.47559ZM6.40568 3.77463C7.33624 3.23737 7.99229 2.85939 8.54017 2.60515C9.07502 2.35695 9.45823 2.25072 9.83054 2.23223L9.75616 0.734076C9.12332 0.765496 8.54437 0.949557 7.90876 1.24452C7.28618 1.53343 6.56347 1.95148 5.65568 2.47559L6.40568 3.77463ZM10.2438 0.734076C10.0813 0.726011 9.9186 0.726011 9.75616 0.734076L9.83054 2.23223C9.94342 2.22663 10.0565 2.22663 10.1694 2.23223L10.2438 0.734076ZM7.49997 14.0834H12.5V12.5834H7.49997V14.0834ZM12.5 14.0834C13.6705 14.0834 14.6609 14.8625 14.9775 15.932L16.4158 15.5062C15.9158 13.8171 14.3529 12.5834 12.5 12.5834V14.0834ZM14.3443 17.5246C15.0562 17.1136 15.6518 16.77 16.1405 16.455L15.3279 15.1941C14.8768 15.4849 14.3174 15.8081 13.5943 16.2256L14.3443 17.5246ZM16.1405 16.455C16.9069 15.9611 17.484 15.493 17.9027 14.8443L16.6424 14.0308C16.3956 14.4131 16.0296 14.7419 15.3279 15.1941L16.1405 16.455ZM14.9901 15.9707L15.0277 16.0762L16.4407 15.5729L16.4032 15.4675L14.9901 15.9707ZM7.49997 12.5834C5.63805 12.5834 4.069 13.829 3.57693 15.5308L5.0179 15.9475C5.32942 14.8701 6.32381 14.0834 7.49997 14.0834V12.5834ZM6.40568 16.2256C5.6897 15.8122 5.13406 15.4912 4.68502 15.2025L3.87386 16.4643C4.35968 16.7766 4.95053 17.1175 5.65568 17.5246L6.40568 16.2256ZM4.68502 15.2025C3.9749 14.746 3.60586 14.4155 3.3575 14.0308L2.09725 14.8443C2.51855 15.4969 3.10022 15.9669 3.87386 16.4643L4.68502 15.2025ZM3.56069 15.5986L3.54271 15.6929L5.01616 15.9739L5.03414 15.8796L3.56069 15.5986Z" fill="white"/>
</svg>
