<svg width="40" height="40" viewBox="0 0 40 40" fill="none" xmlns="http://www.w3.org/2000/svg">
<rect x="0.5" y="0.5" width="39" height="39" rx="15.5" stroke="black" stroke-opacity="0.1"/>
<g clip-path="url(#clip0_150_119498)">
<path d="M11 28.0001L12.3 24.1001C11.1764 22.4384 10.77 20.4705 11.1562 18.5624C11.5424 16.6543 12.6951 14.9358 14.3998 13.7264C16.1045 12.517 18.2453 11.899 20.4241 11.9873C22.6029 12.0757 24.6715 12.8643 26.2453 14.2066C27.819 15.549 28.7909 17.3536 28.9801 19.2851C29.1693 21.2165 28.563 23.1433 27.2739 24.7072C25.9848 26.2711 24.1007 27.3657 21.9718 27.7874C19.8429 28.2092 17.6142 27.9294 15.7 27.0001L11 28.0001Z" stroke="#2C3E50" stroke-width="1.5" stroke-linecap="round" stroke-linejoin="round"/>
</g>
<defs>
<clipPath id="clip0_150_119498">
<rect width="24" height="24" fill="white" transform="translate(8 8)"/>
</clipPath>
</defs>
</svg>
