<svg width="36" height="36" viewBox="0 0 36 36" fill="none" xmlns="http://www.w3.org/2000/svg">
<path d="M23.4274 16.3982C23.4274 17.0132 22.9066 17.5124 22.2641 17.5124C21.6224 17.5124 21.1016 17.0132 21.1016 16.3982C21.1016 15.7824 21.6224 15.2832 22.2641 15.2832C22.9057 15.2832 23.4274 15.7824 23.4274 16.3982Z" fill="#6A6A75"/>
<path fill-rule="evenodd" clip-rule="evenodd" d="M23.0313 12.6105C22.148 12.4964 21.0196 12.4964 19.5955 12.4972H16.4071C14.9821 12.4972 13.8538 12.4972 12.9713 12.6105C12.063 12.7272 11.3263 12.9747 10.7463 13.5305C10.1663 14.0864 9.90964 14.7914 9.7863 15.663C9.66797 16.5089 9.66797 17.5905 9.66797 18.9564V19.0397C9.66797 20.4064 9.66797 21.4872 9.7863 22.3339C9.9088 23.2055 10.1663 23.9105 10.7463 24.4664C11.3263 25.0222 12.063 25.2689 12.9713 25.3864C13.8546 25.4997 14.983 25.4997 16.4071 25.4997H19.5955C21.0205 25.4997 22.1488 25.4997 23.0313 25.3864C23.9396 25.2697 24.6763 25.0222 25.2563 24.4664C25.8363 23.9105 26.0938 23.2047 26.2163 22.3339C26.3346 21.4872 26.3346 20.4055 26.3346 19.0405V18.9572C26.3346 17.5905 26.3346 16.5097 26.2163 15.663C26.0938 14.7914 25.8363 14.0864 25.2563 13.5305C24.6763 12.9747 23.9396 12.728 23.0313 12.6105ZM13.1263 13.7155C12.3463 13.8155 11.8971 14.0039 11.568 14.3189C11.2405 14.633 11.0438 15.0639 10.9388 15.8114C10.8555 16.4114 10.8363 17.1605 10.8321 18.1405L11.2238 17.8114C12.1613 17.0264 13.573 17.0714 14.453 17.9147L17.778 21.1022C17.9428 21.2576 18.1554 21.3524 18.3811 21.3712C18.6069 21.39 18.8323 21.3316 19.0205 21.2055L19.2521 21.0497C19.7956 20.6863 20.4427 20.51 21.0954 20.5476C21.7481 20.5852 22.3707 20.8346 22.8688 21.258L24.8746 22.9889C24.9563 22.7689 25.0188 22.5064 25.0638 22.1855C25.1705 21.4222 25.1721 20.4155 25.1721 18.9989C25.1721 17.5822 25.1705 16.5747 25.0638 15.8114C24.9588 15.0639 24.7621 14.633 24.4338 14.3189C24.1063 14.0039 23.6563 13.8155 22.8763 13.7155C22.0796 13.6122 21.0296 13.6114 19.5513 13.6114H16.4513C14.973 13.6114 13.923 13.6122 13.1263 13.7155Z" fill="#6A6A75"/>
<path opacity="0.5" d="M22.2414 10.1757C21.5247 10.084 20.6122 10.084 19.4747 10.084H16.8997C15.763 10.084 14.8505 10.084 14.1347 10.1757C13.393 10.2715 12.7739 10.474 12.283 10.9423C12.0121 11.2023 11.8056 11.5219 11.6797 11.8757C12.0997 11.684 12.5747 11.5707 13.108 11.5007C14.0122 11.384 15.1664 11.384 16.6247 11.384H19.8872C21.3447 11.384 22.4989 11.384 23.403 11.5007C23.8689 11.5615 24.2897 11.6557 24.6697 11.8057C24.5425 11.4794 24.3454 11.185 24.0922 10.9432C23.6014 10.474 22.983 10.2715 22.2414 10.1765V10.1757Z" fill="#6A6A75"/>
</svg>
