<svg width="20" height="20" viewBox="0 0 20 20" fill="none" xmlns="http://www.w3.org/2000/svg">
<path d="M3.00195 6C3.00195 5.73478 3.10731 5.48043 3.29485 5.29289C3.48238 5.10536 3.73674 5 4.00195 5H4.50195C4.63456 5 4.76174 4.94732 4.85551 4.85355C4.94927 4.75979 5.00195 4.63261 5.00195 4.5C5.00195 4.36739 4.94927 4.24021 4.85551 4.14645C4.76174 4.05268 4.63456 4 4.50195 4H4.00195C3.47152 4 2.96281 4.21071 2.58774 4.58579C2.21267 4.96086 2.00195 5.46957 2.00195 6V6.5C2.00195 6.63261 2.05463 6.75979 2.1484 6.85355C2.24217 6.94732 2.36934 7 2.50195 7C2.63456 7 2.76174 6.94732 2.85551 6.85355C2.94927 6.75979 3.00195 6.63261 3.00195 6.5V6ZM4.00195 15C3.73674 15 3.48238 14.8946 3.29485 14.7071C3.10731 14.5196 3.00195 14.2652 3.00195 14V13.5C3.00195 13.3674 2.94927 13.2402 2.85551 13.1464C2.76174 13.0527 2.63456 13 2.50195 13C2.36934 13 2.24217 13.0527 2.1484 13.1464C2.05463 13.2402 2.00195 13.3674 2.00195 13.5V14C2.00195 14.5304 2.21267 15.0391 2.58774 15.4142C2.96281 15.7893 3.47152 16 4.00195 16H4.50195C4.63456 16 4.76174 15.9473 4.85551 15.8536C4.94927 15.7598 5.00195 15.6326 5.00195 15.5C5.00195 15.3674 4.94927 15.2402 4.85551 15.1464C4.76174 15.0527 4.63456 15 4.50195 15H4.00195ZM2.50195 8C2.63456 8 2.76174 8.05268 2.85551 8.14645C2.94927 8.24021 3.00195 8.36739 3.00195 8.5V11.5C3.00195 11.6326 2.94927 11.7598 2.85551 11.8536C2.76174 11.9473 2.63456 12 2.50195 12C2.36934 12 2.24217 11.9473 2.1484 11.8536C2.05463 11.7598 2.00195 11.6326 2.00195 11.5V8.5C2.00195 8.36739 2.05463 8.24021 2.1484 8.14645C2.24217 8.05268 2.36934 8 2.50195 8ZM6.50195 4C6.36934 4 6.24217 4.05268 6.1484 4.14645C6.05463 4.24021 6.00195 4.36739 6.00195 4.5C6.00195 4.63261 6.05463 4.75979 6.1484 4.85355C6.24217 4.94732 6.36934 5 6.50195 5H8.50195C8.63456 5 8.76174 4.94732 8.85551 4.85355C8.94927 4.75979 9.00195 4.63261 9.00195 4.5C9.00195 4.36739 8.94927 4.24021 8.85551 4.14645C8.76174 4.05268 8.63456 4 8.50195 4H6.50195ZM6.00195 15.5C6.00195 15.3674 6.05463 15.2402 6.1484 15.1464C6.24217 15.0527 6.36934 15 6.50195 15H8.50195C8.63456 15 8.76174 15.0527 8.85551 15.1464C8.94927 15.2402 9.00195 15.3674 9.00195 15.5C9.00195 15.6326 8.94927 15.7598 8.85551 15.8536C8.76174 15.9473 8.63456 16 8.50195 16H6.50195C6.36934 16 6.24217 15.9473 6.1484 15.8536C6.05463 15.7598 6.00195 15.6326 6.00195 15.5ZM12.002 8.5V4H10.502C10.3693 4 10.2422 4.05268 10.1484 4.14645C10.0546 4.24021 10.002 4.36739 10.002 4.5V15.5C10.002 15.6326 10.0546 15.7598 10.1484 15.8536C10.2422 15.9473 10.3693 16 10.502 16H16.002C16.5324 16 17.0411 15.7893 17.4162 15.4142C17.7912 15.0391 18.002 14.5304 18.002 14V10H13.502C13.1041 10 12.7226 9.84196 12.4413 9.56066C12.16 9.27936 12.002 8.89782 12.002 8.5ZM13.002 8.5V4.058C13.244 4.128 13.467 4.258 13.648 4.439L17.563 8.354C17.744 8.535 17.874 8.758 17.943 9H13.502C13.3693 9 13.2422 8.94732 13.1484 8.85355C13.0546 8.75979 13.002 8.63261 13.002 8.5Z" fill="#777777"/>
</svg>
