<svg width="18" height="17" viewBox="0 0 18 17" fill="none" xmlns="http://www.w3.org/2000/svg">
<path d="M14.8366 0.499023H3.16992C2.50688 0.499023 1.871 0.762416 1.40215 1.23126C0.933314 1.7001 0.669922 2.33598 0.669922 2.99902V15.499C0.670176 15.6467 0.709663 15.7916 0.784339 15.919C0.859015 16.0464 0.9662 16.1517 1.09492 16.224C1.21947 16.2946 1.3601 16.3319 1.50326 16.3324C1.65282 16.3323 1.79963 16.292 1.92826 16.2157L5.66992 13.949C5.80823 13.8667 5.96742 13.8262 6.12826 13.8324H14.8366C15.4996 13.8324 16.1355 13.569 16.6044 13.1001C17.0732 12.6313 17.3366 11.9954 17.3366 11.3324V2.99902C17.3366 2.33598 17.0732 1.7001 16.6044 1.23126C16.1355 0.762416 15.4996 0.499023 14.8366 0.499023ZM5.66992 7.99902C5.5051 7.99902 5.34399 7.95015 5.20695 7.85858C5.06991 7.76701 4.9631 7.63687 4.90002 7.48459C4.83695 7.33232 4.82045 7.16477 4.8526 7.00312C4.88476 6.84146 4.96412 6.69298 5.08067 6.57644C5.19721 6.45989 5.3457 6.38052 5.50735 6.34837C5.669 6.31622 5.83655 6.33272 5.98882 6.39579C6.1411 6.45886 6.27125 6.56567 6.36281 6.70271C6.45438 6.83976 6.50325 7.00087 6.50325 7.16569C6.50325 7.3867 6.41546 7.59867 6.25918 7.75495C6.1029 7.91123 5.89094 7.99902 5.66992 7.99902ZM9.00325 7.99902C8.83844 7.99902 8.67732 7.95015 8.54028 7.85858C8.40324 7.76701 8.29643 7.63687 8.23336 7.48459C8.17028 7.33232 8.15378 7.16477 8.18593 7.00312C8.21809 6.84146 8.29746 6.69298 8.414 6.57644C8.53054 6.45989 8.67903 6.38052 8.84068 6.34837C9.00233 6.31622 9.16989 6.33272 9.32216 6.39579C9.47443 6.45886 9.60458 6.56567 9.69615 6.70271C9.78771 6.83976 9.83659 7.00087 9.83659 7.16569C9.83659 7.3867 9.74879 7.59867 9.59251 7.75495C9.43623 7.91123 9.22427 7.99902 9.00325 7.99902ZM12.3366 7.99902C12.1718 7.99902 12.0107 7.95015 11.8736 7.85858C11.7366 7.76701 11.6298 7.63687 11.5667 7.48459C11.5036 7.33232 11.4871 7.16477 11.5193 7.00312C11.5514 6.84146 11.6308 6.69298 11.7473 6.57644C11.8639 6.45989 12.0124 6.38052 12.174 6.34837C12.3357 6.31622 12.5032 6.33272 12.6555 6.39579C12.8078 6.45886 12.9379 6.56567 13.0295 6.70271C13.121 6.83976 13.1699 7.00087 13.1699 7.16569C13.1699 7.3867 13.0821 7.59867 12.9258 7.75495C12.7696 7.91123 12.5576 7.99902 12.3366 7.99902Z" fill="#777777"/>
</svg>
