<svg width="36" height="36" viewBox="0 0 36 36" fill="none" xmlns="http://www.w3.org/2000/svg">
<path d="M15.8867 11.6113C16.9534 10.4288 18.6251 9.66797 20.5034 9.66797C23.7251 9.66797 26.3367 11.9063 26.3367 14.668C26.3367 16.3255 25.3951 17.7946 23.9467 18.7046C23.9106 18.7267 23.8739 18.7479 23.8367 18.768V22.143C23.8367 22.3089 23.7872 22.471 23.6945 22.6086C23.6017 22.7462 23.4701 22.853 23.3163 22.9153C23.1625 22.9776 22.9936 22.9926 22.8313 22.9583C22.669 22.924 22.5205 22.8421 22.4051 22.723L21.4551 21.7446C22.3459 20.6913 22.8701 19.398 22.8701 18.0005C22.8701 14.6113 19.7884 11.838 15.8867 11.6113Z" fill="#777777"/>
<path d="M16.6574 22.907L13.6016 26.057C13.4861 26.1761 13.3377 26.258 13.1753 26.2923C13.013 26.3266 12.8441 26.3116 12.6904 26.2493C12.5366 26.187 12.4049 26.0802 12.3122 25.9426C12.2195 25.805 12.1699 25.6429 12.1699 25.477V22.102C12.1327 22.0818 12.096 22.0607 12.0599 22.0386C10.6108 21.1286 9.66992 19.6595 9.66992 18.002C9.66992 15.2403 12.2816 13.002 15.5033 13.002C18.7249 13.002 21.3366 15.2403 21.3366 18.002C21.3366 20.2736 19.5691 22.192 17.1483 22.8003C16.986 22.8419 16.8223 22.8774 16.6574 22.907Z" fill="#777777"/>
</svg>
