<svg width="20" height="20" viewBox="0 0 20 20" fill="none" xmlns="http://www.w3.org/2000/svg">
<path d="M11.2396 4.56624C12.1562 4.56624 12.9062 3.81624 12.9062 2.89958C12.9062 1.98291 12.1562 1.23291 11.2396 1.23291C10.3229 1.23291 9.57292 1.98291 9.57292 2.89958C9.57292 3.81624 10.3229 4.56624 11.2396 4.56624ZM8.23958 16.1496L9.07292 12.4829L10.8229 14.1496V19.1496H12.4896V12.8996L10.7396 11.2329L11.2396 8.73291C12.3229 9.98291 13.9896 10.8162 15.8229 10.8162V9.14958C14.2396 9.14958 12.9062 8.31624 12.2396 7.14958L11.4062 5.81624C11.0729 5.31624 10.5729 4.98291 9.98958 4.98291C9.73958 4.98291 9.57292 5.06624 9.32292 5.06624L4.98958 6.89958V10.8162H6.65625V7.98291L8.15625 7.39958L6.82292 14.1496L2.73958 13.3162L2.40625 14.9829L8.23958 16.1496Z" fill="#6A6A75"/>
</svg>
