<svg width="25" height="24" viewBox="0 0 25 24" fill="none" xmlns="http://www.w3.org/2000/svg">
<path d="M13.8591 18.001C13.8591 17.0345 13.0756 16.251 12.1091 16.251C11.1426 16.251 10.3591 17.0345 10.3591 18.001C10.3591 18.9675 11.1426 19.751 12.1091 19.751C13.0756 19.751 13.8591 18.9675 13.8591 18.001Z" fill="black"/>
<path d="M13.8591 12.001C13.8591 11.0345 13.0756 10.251 12.1091 10.251C11.1426 10.251 10.3591 11.0345 10.3591 12.001C10.3591 12.9675 11.1426 13.751 12.1091 13.751C13.0756 13.751 13.8591 12.9675 13.8591 12.001Z" fill="black"/>
<path d="M13.8591 6.00098C13.8591 5.03448 13.0756 4.25098 12.1091 4.25098C11.1426 4.25098 10.3591 5.03448 10.3591 6.00098C10.3591 6.96747 11.1426 7.75098 12.1091 7.75098C13.0756 7.75098 13.8591 6.96747 13.8591 6.00098Z" fill="black"/>
</svg>
