<svg width="20" height="20" viewBox="0 0 20 20" fill="none" xmlns="http://www.w3.org/2000/svg">
<g clip-path="url(#clip0_150_110831)">
<path d="M14.6413 2.5V3.52273C14.6413 3.82457 14.5845 4.1424 14.4709 4.47621C14.3608 4.80646 14.2045 5.12429 14.0021 5.42969C13.7997 5.73509 13.5618 5.99787 13.2884 6.21804L12.5 5.65341C12.7095 5.34801 12.8906 5.02308 13.0433 4.67862C13.1996 4.33416 13.2777 3.95419 13.2777 3.53871V2.5H14.6413ZM17.3526 2.5V3.52273C17.3526 3.82457 17.2958 4.1424 17.1822 4.47621C17.0721 4.80646 16.9158 5.12429 16.7134 5.42969C16.511 5.73509 16.2731 5.99787 15.9996 6.21804L15.2113 5.65341C15.4208 5.34801 15.6019 5.02308 15.7546 4.67862C15.9109 4.33416 15.989 3.95419 15.989 3.53871V2.5H17.3526Z" fill="#777777"/>
<path d="M2.5 6.21804V5.19531C2.5 4.89347 2.55682 4.57564 2.67045 4.24183C2.78409 3.90803 2.94212 3.58842 3.14453 3.28303C3.34695 2.97763 3.58487 2.71662 3.85831 2.5L4.64666 3.06463C4.43004 3.38068 4.24538 3.71094 4.09268 4.0554C3.93999 4.39986 3.86364 4.7745 3.86364 5.17933V6.21804H2.5ZM5.21662 6.21804V5.19531C5.21662 4.89347 5.27344 4.57564 5.38707 4.24183C5.50071 3.90803 5.65874 3.58842 5.86115 3.28303C6.06357 2.97763 6.30149 2.71662 6.57493 2.5L7.36328 3.06463C7.14666 3.38068 6.962 3.71094 6.8093 4.0554C6.65661 4.39986 6.58026 4.7745 6.58026 5.17933V6.21804H5.21662Z" fill="#777777"/>
<path d="M14.7461 17.5C14.4044 17.5 14.1107 17.3789 13.8648 17.1366C13.619 16.8901 13.4961 16.5936 13.4961 16.2469C13.4961 15.9043 13.619 15.6119 13.8648 15.3697C14.1107 15.1232 14.4044 15 14.7461 15C15.0878 15 15.3815 15.1232 15.6273 15.3697C15.8732 15.6119 15.9961 15.9043 15.9961 16.2469C15.9961 16.4766 15.9378 16.6876 15.8211 16.8797C15.7086 17.0677 15.5586 17.218 15.3711 17.3308C15.1836 17.4436 14.9753 17.5 14.7461 17.5Z" fill="#777777"/>
<path d="M10.498 17.5C10.1564 17.5 9.86263 17.3789 9.6168 17.1366C9.37096 16.8901 9.24805 16.5936 9.24805 16.2469C9.24805 15.9043 9.37096 15.6119 9.6168 15.3697C9.86263 15.1232 10.1564 15 10.498 15C10.8397 15 11.1335 15.1232 11.3793 15.3697C11.6251 15.6119 11.748 15.9043 11.748 16.2469C11.748 16.4766 11.6897 16.6876 11.573 16.8797C11.4605 17.0677 11.3105 17.218 11.123 17.3308C10.9355 17.4436 10.7272 17.5 10.498 17.5Z" fill="#777777"/>
<path d="M6.25 17.5C5.90833 17.5 5.61458 17.3789 5.36875 17.1366C5.12292 16.8901 5 16.5936 5 16.2469C5 15.9043 5.12292 15.6119 5.36875 15.3697C5.61458 15.1232 5.90833 15 6.25 15C6.59167 15 6.88542 15.1232 7.13125 15.3697C7.37708 15.6119 7.5 15.9043 7.5 16.2469C7.5 16.4766 7.44167 16.6876 7.325 16.8797C7.2125 17.0677 7.0625 17.218 6.875 17.3308C6.6875 17.4436 6.47917 17.5 6.25 17.5Z" fill="#777777"/>
</g>
<defs>
<clipPath id="clip0_150_110831">
<rect width="20" height="20" fill="white"/>
</clipPath>
</defs>
</svg>
