<svg width="20" height="20" viewBox="0 0 20 20" fill="none" xmlns="http://www.w3.org/2000/svg">
<path d="M15.0033 7.5013C15.0033 6.58214 14.2558 5.83464 13.3366 5.83464H12.1416L10.1266 2.47714C9.97809 2.2309 9.76865 2.02709 9.51847 1.88536C9.26828 1.74363 8.9858 1.66876 8.69826 1.66797H4.16992V3.33464H8.69826L10.1983 5.83464H3.33659C2.41742 5.83464 1.66992 6.58214 1.66992 7.5013V15.0013C1.66992 15.9205 2.41742 16.668 3.33659 16.668H13.3366C14.2558 16.668 15.0033 15.9205 15.0033 15.0013V12.5013L18.3366 14.168V8.33464L15.0033 10.0013V7.5013ZM9.16992 14.168H4.16992V12.5013H9.16992V14.168Z" fill="#777777"/>
</svg>
